<svg width="16" height="19" viewBox="0 0 16 19" fill="none" xmlns="http://www.w3.org/2000/svg">
<g opacity="0.5">
<path fill-rule="evenodd" clip-rule="evenodd" d="M0.0109778 5.82364L0.0219957 11.6385L0.130487 12.026C0.329093 12.735 0.637316 13.2879 1.22183 13.9836C2.58839 15.6101 4.13731 16.9169 5.99336 18.0094C6.54684 18.3352 7.91139 19.0069 8.00552 18.9999C8.12568 18.991 9.25812 18.4747 9.83359 18.1664C11.2364 17.415 12.3024 16.6456 13.3867 15.6021C14.6298 14.4057 15.475 13.2691 15.76 12.4101C15.99 11.7172 15.9781 12.051 15.9948 5.83732C16.0032 2.69025 16.0012 0.0925665 15.9904 0.0646697C15.9761 0.0281741 15.7977 0.0857904 15.355 0.269774C13.2444 1.14702 12.063 1.35339 10.7109 1.081C9.95515 0.928756 8.98452 0.563443 8.31491 0.179189L8.00263 0L7.73184 0.160882C7.02379 0.581671 6.01315 0.977971 5.22934 1.14214C4.71371 1.25012 3.78156 1.24152 3.17854 1.12316C2.60725 1.01102 1.73614 0.72904 0.966892 0.407197C0.646203 0.273024 0.297447 0.128468 0.191931 0.0859886L0 0.00871771L0.0109778 5.82364ZM8.2523 1.81479C8.89336 2.13493 10.0513 2.49351 10.7956 2.60244C11.8244 2.75298 13.2228 2.61754 14.2558 2.26736L14.4781 2.192V6.74852C14.4781 11.7153 14.4828 11.6024 14.2492 12.1536C14.0146 12.7071 13.2328 13.6794 12.3214 14.551C11.2057 15.618 10.0572 16.4137 8.63154 17.1077L8.03267 17.3992L7.66646 17.2183C6.89109 16.8353 5.95086 16.2578 5.21245 15.7109C3.82816 14.6855 2.23356 13.047 1.82899 12.234C1.48651 11.5458 1.51257 11.9746 1.49922 6.80915C1.48792 2.42401 1.49061 2.21847 1.55889 2.23828C2.7383 2.58061 3.21469 2.6662 4.08423 2.69204C4.61301 2.70777 4.86812 2.69703 5.20525 2.64496C6.01906 2.51919 7.02351 2.2019 7.71463 1.85228C7.86269 1.77739 7.998 1.71521 8.01533 1.71414C8.03267 1.71307 8.13931 1.75837 8.2523 1.81479ZM9.3911 7.97328L7.17997 10.1524L5.95295 8.94376L4.72589 7.73505L4.19369 8.26061L3.66144 8.78617L5.42067 10.5194L7.17989 12.2527L9.92443 9.5479L12.669 6.8431L12.1356 6.31861L11.6022 5.79408L9.3911 7.97328Z" fill="#0B4977"/>
</g>
</svg>
