<svg width="20" height="20" viewBox="0 0 20 20" fill="none" xmlns="http://www.w3.org/2000/svg">
<g opacity="0.5">
<path fill-rule="evenodd" clip-rule="evenodd" d="M9.298 1.10673C9.2386 1.16613 9.19 1.36864 9.19 1.55676C9.19 1.85531 9.16327 1.89878 8.9794 1.89878C8.55244 1.89878 7.3234 2.27096 6.58576 2.6236C4.84075 3.45796 3.45853 4.84073 2.62342 6.58776C2.27197 7.32302 1.9 8.55233 1.9 8.97869C1.9 9.16257 1.85653 9.1893 1.558 9.1893C1.08343 9.1893 1 9.31045 1 9.99936C1 10.6883 1.08343 10.8094 1.558 10.8094C1.85653 10.8094 1.9 10.8361 1.9 11.02C1.9 11.4193 2.2636 12.6562 2.57293 13.3091C3.43396 15.1266 4.74526 16.4616 6.535 17.3429C7.3054 17.7222 8.52508 18.0999 8.9794 18.0999C9.16327 18.0999 9.19 18.1434 9.19 18.442C9.19 18.9166 9.31114 19 10 19C10.6889 19 10.81 18.9166 10.81 18.442C10.81 18.1434 10.8367 18.0999 11.0206 18.0999C11.4749 18.0999 12.6946 17.7222 13.465 17.3429C15.2547 16.4616 16.566 15.1266 17.4271 13.3091C17.7364 12.6562 18.1 11.4193 18.1 11.02C18.1 10.8361 18.1435 10.8094 18.442 10.8094C18.9166 10.8094 19 10.6883 19 9.99936C19 9.31045 18.9166 9.1893 18.442 9.1893C18.1435 9.1893 18.1 9.16257 18.1 8.97869C18.1 8.52433 17.7223 7.30457 17.343 6.53411C16.4618 4.74424 15.1269 3.43285 13.3095 2.57176C12.6566 2.26241 11.4198 1.89878 11.0206 1.89878C10.8367 1.89878 10.81 1.85531 10.81 1.55676C10.81 1.36864 10.7614 1.16613 10.702 1.10673C10.5597 0.964425 9.44029 0.964425 9.298 1.10673ZM9.19 3.77091C9.19 4.1511 9.34201 4.23895 10 4.23895C10.662 4.23895 10.81 4.15155 10.81 3.76065C10.81 3.49937 10.8114 3.49865 11.232 3.56174C12.8989 3.81178 14.7058 5.04199 15.5974 6.53411C15.9696 7.15714 16.3456 8.15702 16.4372 8.76726C16.5003 9.18786 16.4995 9.1893 16.2383 9.1893C15.8474 9.1893 15.76 9.33727 15.76 9.99936C15.76 10.6614 15.8474 10.8094 16.2383 10.8094C16.4999 10.8094 16.5003 10.8102 16.4365 11.2357C16.271 12.3397 15.601 13.6576 14.7453 14.5624C13.883 15.4742 12.4114 16.2601 11.2362 16.4363C10.8108 16.5002 10.81 16.4997 10.81 16.2381C10.81 15.8472 10.662 15.7598 10 15.7598C9.33796 15.7598 9.19 15.8472 9.19 16.2381C9.19 16.4994 9.18856 16.5001 8.76799 16.437C8.15779 16.3454 7.15798 15.9694 6.535 15.5971C5.04298 14.7055 3.81286 12.8985 3.56284 11.2315C3.49975 10.8109 3.50047 10.8094 3.76174 10.8094C4.15261 10.8094 4.24 10.6614 4.24 9.99936C4.24 9.33727 4.15261 9.1893 3.76174 9.1893C3.50047 9.1893 3.49975 9.18786 3.56284 8.76726C3.73663 7.60834 4.49218 6.1704 5.38183 5.30534C6.21838 4.49196 7.14385 3.97388 8.335 3.65229C9.05446 3.45796 9.19 3.47677 9.19 3.77091Z" fill="#0B4977" stroke="#F6F8FC" stroke-width="0.2"/>
<circle cx="10" cy="10" r="2" fill="#0B4977" stroke="#0B4977"/>
</g>
</svg>
