<svg width="19" height="18" viewBox="0 0 19 18" fill="none" xmlns="http://www.w3.org/2000/svg">
<g opacity="0.5">
<path fill-rule="evenodd" clip-rule="evenodd" d="M0.979015 8.09513C0.891783 7.70034 0.874687 7.01906 0.926941 6.49379C1.34103 6.80253 1.80757 7.04485 2.31076 7.20496C2.31787 7.75839 2.36995 8.00668 2.57151 8.49088L2.57374 8.49622C2.60394 8.56878 2.63044 8.63243 2.66002 8.69461C2.87138 9.1389 3.24017 9.5083 6.24394 12.517L6.2747 12.5478C9.74557 16.0244 9.78683 16.0622 10.3798 16.3089C11.6158 16.8231 12.971 16.6318 14.0015 15.7976C14.3412 15.5226 14.4578 15.3402 14.4578 15.0835C14.4578 14.9911 14.441 14.8709 14.4205 14.8165C14.3653 14.6694 12.2211 12.5265 12.0485 12.4458C11.7626 12.3122 11.5154 12.3736 11.197 12.6574C10.9571 12.8713 10.6128 13.0562 10.3075 13.1351C9.98889 13.2175 9.38605 13.1944 9.09648 13.0887C8.67315 12.934 8.52779 12.8143 7.35904 11.6575C6.15881 10.4695 5.95319 10.2243 5.80649 9.80602C5.70812 9.52542 5.67115 8.94343 5.73341 8.65545C5.7971 8.36106 6.02252 7.92106 6.22591 7.69407C6.51386 7.37281 6.57601 7.12643 6.44169 6.83901C6.4307 6.8155 6.38142 6.75539 6.30413 6.66894C6.70483 6.40882 7.06353 6.08946 7.36783 5.72328C7.56583 5.93933 7.61883 6.02705 7.68216 6.1577C8.06768 6.95307 7.96603 7.77827 7.3952 8.48701C7.2728 8.63899 7.15786 8.80225 7.13978 8.8498C7.09571 8.96576 7.09806 9.25537 7.1441 9.37787C7.19169 9.50449 9.33614 11.6568 9.4852 11.7275C9.61312 11.7882 9.90676 11.7975 10.0443 11.7452C10.0955 11.7258 10.2429 11.6203 10.3719 11.5108C11.0533 10.9325 11.9314 10.8187 12.7298 11.2052C12.9821 11.3273 13.0732 11.4101 14.2511 12.5866C15.4258 13.76 15.512 13.8546 15.631 14.1019C15.7972 14.447 15.8646 14.7228 15.8646 15.0572C15.8646 15.4275 15.8134 15.6485 15.6461 16.0012C15.5276 16.2509 15.4513 16.3526 15.1832 16.6183C14.8231 16.9751 14.3043 17.3373 13.8574 17.5438C12.2295 18.2958 10.3206 18.1084 8.86371 17.0533C8.4432 16.7488 2.13873 10.4443 1.83418 10.0238C1.43241 9.46904 1.13377 8.79543 0.979015 8.09513ZM9.46627 1.63741C9.11053 1.7336 8.75331 1.86879 8.40619 2.03701C8.33758 1.55936 8.19735 1.10485 7.99674 0.684698C8.75917 0.346641 9.57908 0.11814 10.3603 0.0394927C12.6841 -0.194504 14.9671 0.619261 16.6177 2.26983C18.9524 4.60456 19.5498 8.16835 18.1018 11.1235C17.7148 11.9134 17.0561 12.8351 16.7769 12.9776C16.6167 13.0593 16.3358 13.0688 16.1712 12.9982C16.0333 12.9391 15.8471 12.7479 15.7964 12.6137C15.749 12.4879 15.7484 12.2355 15.7952 12.1124C15.815 12.0602 15.9285 11.8969 16.0474 11.7496C16.3662 11.3543 16.6153 10.9576 16.8495 10.4718C17.1417 9.86567 17.3092 9.31664 17.4293 8.57121L17.4505 8.43932H17.0324C16.6626 8.43932 16.5964 8.42986 16.4593 8.35747C16.374 8.31249 16.2568 8.20824 16.1988 8.12583C16.1071 7.99566 16.0932 7.94533 16.0932 7.74165C16.0932 7.46119 16.1815 7.29082 16.4027 7.1444C16.5353 7.05654 16.5764 7.04919 16.9961 7.03773L17.4471 7.02538L17.4258 6.87946C17.3077 6.0672 16.9916 5.17353 16.5799 4.48831C16.1964 3.84988 15.5704 3.14789 14.9995 2.71581C14.1143 2.04596 13.1567 1.64596 11.9905 1.45891L11.8622 1.4383L11.8498 1.89029C11.8383 2.31119 11.831 2.3521 11.7431 2.48483C11.5967 2.70599 11.4263 2.79427 11.1459 2.79427C10.9422 2.79427 10.8918 2.78045 10.7617 2.68876C10.6793 2.63073 10.575 2.5135 10.53 2.42824C10.4577 2.29121 10.4482 2.22485 10.4482 1.8567C10.4482 1.6276 10.4424 1.44017 10.4352 1.44017C10.351 1.44017 9.72271 1.56805 9.46627 1.63741ZM10.9295 4.25245C10.7675 4.30444 10.6009 4.45297 10.5221 4.61578C10.4504 4.76399 10.4482 4.81499 10.4482 6.33458V7.90066L10.53 8.0557C10.575 8.14096 10.6793 8.25818 10.7617 8.31622L10.9115 8.42173H12.5553H14.1991L14.3417 8.32736C14.5629 8.18095 14.6512 8.01061 14.6512 7.73012C14.6512 7.52633 14.6374 7.47625 14.5457 7.34636C14.3407 7.05623 14.3166 7.05144 13.0083 7.03987L11.8578 7.02974L11.8476 5.87921C11.838 4.79149 11.8335 4.72104 11.764 4.58803C11.6192 4.31077 11.2325 4.15524 10.9295 4.25245ZM0.267871 4.37075V5H2.94749V4.29474H1.48042V4.27177L1.91347 3.8723C2.17625 3.64369 2.37893 3.44749 2.52151 3.2837C2.66527 3.11991 2.76484 2.97025 2.82023 2.83474C2.87561 2.69923 2.9033 2.56254 2.9033 2.42467C2.9033 2.20785 2.84733 2.01754 2.73538 1.85374C2.62462 1.68877 2.46789 1.56033 2.26521 1.46842C2.06253 1.3765 1.82391 1.33055 1.54935 1.33055C1.28304 1.33055 1.04913 1.37945 0.84763 1.47725C0.647307 1.57388 0.491761 1.71175 0.380994 1.89086C0.270227 2.06998 0.214844 2.28267 0.214844 2.52895H1.04383C1.04383 2.41936 1.06445 2.32627 1.10569 2.24968C1.14812 2.17308 1.20703 2.11475 1.28245 2.07469C1.35787 2.03345 1.44565 2.01283 1.54582 2.01283C1.6448 2.01283 1.73259 2.03227 1.80918 2.07115C1.88578 2.11004 1.94587 2.16542 1.98947 2.2373C2.03307 2.30801 2.05487 2.39344 2.05487 2.4936C2.05487 2.58316 2.03661 2.66623 2.00008 2.74283C1.96355 2.81824 1.91052 2.89366 1.841 2.96907C1.77147 3.04331 1.68722 3.12521 1.58824 3.21477L0.267871 4.37075ZM3.32 3.71675V4.39903H5.06812V5H5.90417V4.39903H6.33723V3.70968H5.90417V1.38004H5.40926H5.08579H4.80299L3.32 3.71675ZM5.08579 2.30624H5.05751L4.18964 3.6814V3.70968H5.08579V2.30624Z" fill="#0B4977"/>
</g>
</svg>
