<svg width="19" height="19" viewBox="0 0 19 19" fill="none" xmlns="http://www.w3.org/2000/svg">
<path fill-rule="evenodd" clip-rule="evenodd" d="M15.9978 0.693246C16.2095 0.774618 16.4303 0.975281 16.5454 1.19071C16.6218 1.33375 16.6267 1.38612 16.6373 2.15896L16.6484 2.97599L17.4654 2.98713C18.2383 2.99767 18.2907 3.00263 18.4337 3.079C19.0617 3.41432 19.1927 4.22476 18.6989 4.7186C18.4238 4.99366 18.2924 5.02463 17.4001 5.02463H16.6438V5.78704C16.6438 6.59967 16.6263 6.71779 16.4724 6.94439C16.0391 7.58237 15.0991 7.53401 14.7231 6.85442L14.6174 6.66335L14.6063 5.84582L14.5951 5.0283L13.793 5.01765L12.991 5.00701L12.7832 4.90065C12.0423 4.52142 12.0467 3.46532 12.7908 3.0852C12.9552 3.00126 12.9894 2.99791 13.7804 2.98766L14.5998 2.97701V2.22247C14.5998 1.33224 14.6309 1.20047 14.9058 0.92552C15.197 0.634393 15.614 0.545656 15.9978 0.693246ZM7.39881 3.62975C8.55024 3.8486 9.53322 4.58362 10.0451 5.60854C10.2493 6.01752 10.3362 6.31076 10.4171 6.86482C10.4301 6.9538 10.406 6.97428 10.075 7.15552C7.87104 8.36222 6.93651 10.9444 7.87491 13.2344C7.94018 13.3937 7.96795 13.5023 7.94529 13.5099C7.92474 13.5167 7.73656 13.635 7.52712 13.7728C6.65723 14.345 5.94634 15.2788 5.61504 16.2842C5.42456 16.8623 5.38442 17.1366 5.38431 17.8612L5.38421 18.5219L3.19172 18.522L0.999222 18.522L0.988401 17.7026C0.952526 14.9804 0.96109 13.3175 1.01258 13.0236C1.26025 11.6094 2.29856 10.4615 3.67413 10.0814C3.83938 10.0357 4.0504 9.98832 4.14308 9.97602L4.31164 9.95374L4.07704 9.70057C3.15274 8.70314 2.87165 7.32479 3.32542 6.01512C3.72456 4.86323 4.74648 3.95485 5.96569 3.66823C6.31447 3.58623 7.06394 3.56611 7.39881 3.62975ZM12.732 7.77676C13.3511 7.83681 14.0166 8.10485 14.5566 8.51182C16.2647 9.79889 16.4826 12.3215 15.0207 13.8843C14.8 14.1202 14.7996 14.152 15.0167 14.1522C15.2064 14.1524 15.7841 14.3347 16.1299 14.5036C17.0808 14.9679 17.7719 15.8012 18.0696 16.8424C18.157 17.1481 18.2293 17.808 18.2295 18.3017L18.2296 18.522H12.3979H6.56613L6.5434 18.4314C6.53089 18.3816 6.5287 18.0763 6.53853 17.753C6.55372 17.2534 6.57046 17.1176 6.65011 16.848C6.96344 15.7875 7.67429 14.9372 8.62763 14.4828C8.96084 14.3239 9.53188 14.1523 9.72768 14.1522C9.79069 14.1521 9.84222 14.1427 9.84222 14.1312C9.84222 14.1197 9.7533 14.0127 9.64466 13.8933C9.16679 13.3684 8.86262 12.7552 8.72962 12.0486C8.65114 11.6317 8.67464 10.9381 8.781 10.5311C9.1807 9.00142 10.4479 7.91938 12.0095 7.77429C12.2228 7.75448 12.4051 7.74039 12.4148 7.74299C12.4245 7.7456 12.5672 7.76079 12.732 7.77676Z" fill="white"/>
</svg>
