<svg width="18" height="21" viewBox="0 0 18 21" fill="none" xmlns="http://www.w3.org/2000/svg">
<path fill-rule="evenodd" clip-rule="evenodd" d="M13.4109 1.39166L13.4119 2.14129C16.1665 2.35718 17.9862 4.23424 17.9891 7.1128L18 15.5386C18.0039 18.677 16.0322 20.608 12.8718 20.613L5.15188 20.623C2.01119 20.627 0.0148166 18.65 0.0108673 15.5026L6.64975e-06 7.17577C-0.00394266 4.27822 1.75153 2.40616 4.50617 2.15328L4.50518 1.40366C4.5042 0.963878 4.83001 0.633044 5.26444 0.633044C5.69886 0.632045 6.02468 0.961879 6.02567 1.40166L6.02666 2.10131L11.8914 2.09331L11.8904 1.39366C11.8894 0.953883 12.2152 0.624049 12.6497 0.623049C13.0742 0.62205 13.4099 0.951884 13.4109 1.39166ZM1.52148 7.48461L16.4696 7.46462V7.1148C16.4272 4.96587 15.349 3.83844 13.4138 3.67052L13.4148 4.44014C13.4148 4.86992 13.0801 5.21075 12.6556 5.21075C12.2212 5.21175 11.8943 4.87192 11.8943 4.44214L11.8934 3.63254L6.02863 3.64054L6.02962 4.44913C6.02962 4.87992 5.70479 5.21975 5.27036 5.21975C4.83594 5.22075 4.50913 4.88192 4.50913 4.45113L4.50815 3.68152C2.58286 3.87442 1.51753 5.00585 1.52049 7.17377L1.52148 7.48461ZM12.2399 12.0273V12.0383C12.2498 12.4981 12.625 12.8469 13.0801 12.8369C13.5244 12.8259 13.8789 12.4451 13.869 11.9854C13.8483 11.5456 13.4918 11.1868 13.0485 11.1878C12.5944 11.1978 12.2389 11.5676 12.2399 12.0273ZM13.0554 16.5151C12.6013 16.5051 12.235 16.1263 12.234 15.6665C12.2241 15.2067 12.5884 14.8259 13.0426 14.8149H13.0525C13.5165 14.8149 13.8927 15.1938 13.8927 15.6635C13.8937 16.1333 13.5185 16.5141 13.0554 16.5151ZM8.17212 12.0433C8.19187 12.5031 8.56804 12.8619 9.02221 12.8419C9.46651 12.8209 9.82096 12.4411 9.80121 11.9814C9.79035 11.5316 9.42504 11.1818 8.98074 11.1828C8.52657 11.2028 8.17113 11.5836 8.17212 12.0433ZM9.02616 16.4701C8.57199 16.4901 8.1968 16.1313 8.17607 15.6715C8.17607 15.2117 8.53052 14.8319 8.98469 14.8109C9.42899 14.8099 9.79529 15.1598 9.80516 15.6085C9.82589 16.0693 9.47046 16.4491 9.02616 16.4701ZM4.10433 12.0783C4.12408 12.5381 4.50025 12.8979 4.95442 12.8769C5.39872 12.8569 5.75317 12.4761 5.73243 12.0163C5.72256 11.5666 5.35725 11.2167 4.91196 11.2177C4.45779 11.2377 4.10334 11.6185 4.10433 12.0783ZM4.95837 16.4751C4.5042 16.4961 4.12901 16.1363 4.10828 15.6765C4.10729 15.2167 4.46273 14.8359 4.9169 14.8159C5.3612 14.8149 5.7275 15.1648 5.73737 15.6145C5.7581 16.0743 5.40365 16.4551 4.95837 16.4751Z" fill="#5882A2"/>
</svg>
