<svg width="19" height="15" viewBox="0 0 19 15" fill="none" xmlns="http://www.w3.org/2000/svg">
<path fill-rule="evenodd" clip-rule="evenodd" d="M1.66027 0.0677247C0.986043 0.249439 0.390562 0.710962 0.116681 1.264L0 1.49965V5.2831V9.06654L0.10737 9.26037C0.329457 9.6613 0.834445 10.0085 1.43596 10.1739C1.5856 10.215 1.75335 10.2486 1.80878 10.2486C1.86919 10.2486 1.90953 10.2683 1.90953 10.2978C1.90953 10.3249 1.77862 10.8445 1.61866 11.4526C1.4587 12.0607 1.33183 12.5693 1.33678 12.5828C1.34172 12.5964 2.23346 12.0849 3.31847 11.4462L5.29114 10.285H9.63962C14.5087 10.285 14.296 10.2956 14.8482 10.0248C15.186 9.85909 15.5042 9.55342 15.6365 9.2675C15.712 9.10433 15.7128 9.07062 15.7236 5.37479C15.7357 1.20191 15.7465 1.39395 15.4771 0.981824C15.2109 0.574568 14.8224 0.264715 14.3574 0.0888567L14.1487 0.00992966L8.0382 0.00276444C2.04872 -0.00421898 1.9224 -0.00294598 1.66027 0.0677247ZM4.2737 3.89216C4.5494 3.97502 4.81848 4.23228 4.9304 4.52005C5.00478 4.71129 4.98718 5.07967 4.89341 5.29401C4.73603 5.65376 4.33295 5.92037 3.94636 5.92037C3.30636 5.92037 2.79678 5.29739 2.92631 4.67332C3.05546 4.05129 3.65211 3.70536 4.2737 3.89216ZM8.31659 3.9393C8.6642 4.11429 8.89294 4.49455 8.89294 4.89752C8.89294 5.16031 8.73385 5.50257 8.53573 5.66599C8.36453 5.80718 8.06228 5.92037 7.85634 5.92037C7.6504 5.92037 7.34815 5.80718 7.17695 5.66599C6.97883 5.50257 6.81974 5.16031 6.81974 4.89752C6.81974 4.37045 7.18968 3.92522 7.68914 3.85113C7.89362 3.8208 8.15375 3.85735 8.31659 3.9393ZM12.0972 3.88718C12.4129 3.96567 12.71 4.30546 12.7869 4.67605C12.9257 5.34438 12.3486 5.97937 11.6665 5.90899C10.8068 5.82024 10.4204 4.75665 11.0273 4.14971C11.3192 3.85786 11.6514 3.77635 12.0972 3.88718ZM16.785 6.7842C16.7843 9.92634 16.7819 9.97042 16.5862 10.3567C16.3902 10.7433 16.0176 11.0287 15.5927 11.1176C15.4569 11.146 13.9045 11.1579 10.3422 11.1579H5.28441L5.29746 11.4398C5.30747 11.6566 5.33395 11.7695 5.41207 11.9287C5.61026 12.3327 6.00359 12.6766 6.47861 12.8611L6.72881 12.9583L10.7297 12.9765L14.7306 12.9947L16.143 13.8253C16.9198 14.2821 17.5643 14.6469 17.5754 14.6358C17.5909 14.6203 17.2902 13.3406 17.2017 13.0455C17.1875 12.998 17.2247 12.9828 17.4002 12.9645C17.9951 12.9023 18.4237 12.4806 18.5635 11.8199C18.6274 11.5178 18.6194 5.05286 18.5548 4.81103C18.3805 4.15848 17.9526 3.88354 17.1112 3.88354H16.7857L16.785 6.7842Z" fill="#ffffff"/>
</svg>
