<svg width="17" height="18" viewBox="0 0 17 18" fill="none" xmlns="http://www.w3.org/2000/svg">
<path fill-rule="evenodd" clip-rule="evenodd" d="M1.71016 0.077009C1.11978 0.280955 0.456427 0.953715 0.185816 1.62301L0.0928435 1.85294L0.0819294 8.30769C0.0711783 14.6458 0.0724816 14.7672 0.151853 15.029C0.307174 15.5413 0.840373 16.1541 1.43673 16.5057C1.99355 16.834 1.80089 16.8162 4.81711 16.8177L7.50518 16.819L8.58416 15.7296C11.022 13.2684 11.0274 13.2627 10.8236 13.3448C10.6514 13.4141 10.4186 13.4186 6.95483 13.4186H3.26931L3.05645 13.3223C2.81732 13.2142 2.54097 12.9387 2.44767 12.7153C2.23053 12.1957 2.54878 11.5131 3.10882 11.2971C3.3014 11.2228 3.46833 11.2195 6.99556 11.2195H10.6811L10.8934 11.3155C11.4699 11.5761 11.7542 12.2745 11.495 12.7929C11.4533 12.8764 11.9131 12.4449 12.6726 11.688L13.9186 10.4462V7.46515V4.48408L12.3587 4.4717L10.7988 4.45928L10.4863 4.30477C9.94247 4.03591 9.58902 3.59129 9.3951 2.93213C9.31279 2.65243 9.30363 2.51605 9.28649 1.31335L9.26775 0L5.59661 0.00134393C2.14993 0.00256565 1.91227 0.0072081 1.71016 0.077009ZM10.5466 0.0328642C10.5044 0.0612488 10.496 0.331045 10.5058 1.34764L10.5182 2.6267L10.6318 2.85809C10.6943 2.98531 10.8095 3.14568 10.8878 3.21443L11.0301 3.33937H12.479H13.9278L13.9111 3.06448C13.9017 2.90948 13.8604 2.71934 13.8164 2.62849C13.6149 2.21192 11.6479 0.418032 11.0684 0.122416C10.8832 0.0278959 10.6208 -0.0171041 10.5466 0.0328642ZM10.8488 6.80624C11.2661 6.96234 11.5564 7.34388 11.5883 7.77828C11.6238 8.26 11.3263 8.69176 10.83 8.87889C10.617 8.95924 10.5361 8.9607 6.90018 8.94991L3.18787 8.93891L3.00461 8.84374C2.59541 8.6312 2.38357 8.28533 2.38617 7.83407C2.38882 7.37222 2.6668 6.97105 3.09945 6.80469C3.30385 6.7261 3.41763 6.72365 6.96347 6.72157C10.5944 6.71946 10.6184 6.71999 10.8488 6.80624ZM15.1763 10.9855C15.0952 11.028 14.9194 11.1591 14.7856 11.2769L14.5422 11.4911L15.1772 12.1132C15.5265 12.4553 15.8833 12.7967 15.9701 12.8718L16.128 13.0084L16.4079 12.7149C16.6878 12.4214 16.6879 12.4213 16.6875 12.1869C16.6869 11.88 16.5591 11.6091 16.2836 11.3308C16.0258 11.0705 15.8269 10.9638 15.5404 10.9323C15.3727 10.9138 15.2902 10.9259 15.1763 10.9855ZM12.4933 13.4944C11.6982 14.2641 10.7893 15.1575 10.4736 15.4797C9.83838 16.1281 9.85788 16.0946 9.57705 17.0186C9.32982 17.8319 9.3424 18 9.6504 18C9.97032 18 10.8388 17.7454 11.3327 17.5069C11.6321 17.3623 11.4908 17.494 14.8302 14.2464L15.4865 13.6082L14.7335 12.8516C14.3194 12.4355 13.9712 12.095 13.9598 12.095C13.9483 12.095 13.2884 12.7247 12.4933 13.4944Z" fill="#5882A2"/>
</svg>
