<svg width="18" height="19" viewBox="0 0 18 19" fill="none" xmlns="http://www.w3.org/2000/svg">
<path fill-rule="evenodd" clip-rule="evenodd" d="M5.22939 0.261719H12.7723C15.5524 0.261719 17.1004 1.86372 17.1004 4.60872V13.9057C17.1004 16.6957 15.5524 18.2617 12.7723 18.2617H5.22939C2.49339 18.2617 0.900391 16.6957 0.900391 13.9057V4.60872C0.900391 1.86372 2.49339 0.261719 5.22939 0.261719ZM5.47253 4.45607V4.44707H8.16263C8.55053 4.44707 8.86553 4.76207 8.86553 5.14817C8.86553 5.54507 8.55053 5.86007 8.16263 5.86007H5.47253C5.08463 5.86007 4.77053 5.54507 4.77053 5.15807C4.77053 4.77107 5.08463 4.45607 5.47253 4.45607ZM5.47253 9.92834H12.5285C12.9155 9.92834 13.2305 9.61334 13.2305 9.22634C13.2305 8.83934 12.9155 8.52344 12.5285 8.52344H5.47253C5.08463 8.52344 4.77053 8.83934 4.77053 9.22634C4.77053 9.61334 5.08463 9.92834 5.47253 9.92834ZM5.47245 14.0416H12.5285C12.8876 14.0056 13.1585 13.6987 13.1585 13.3396C13.1585 12.9706 12.8876 12.6646 12.5285 12.6286H5.47245C5.20245 12.6016 4.94145 12.7276 4.79745 12.9616C4.65345 13.1866 4.65345 13.4836 4.79745 13.7176C4.94145 13.9426 5.20245 14.0776 5.47245 14.0416Z" fill="#5882A2"/>
</svg>
