<svg width="19" height="16" viewBox="0 0 19 16" fill="none" xmlns="http://www.w3.org/2000/svg">
<path fill-rule="evenodd" clip-rule="evenodd" d="M1.52496 0.659015C1.09788 0.732816 0.698178 0.955685 0.428288 1.27043C0.348626 1.36333 0.223875 1.56311 0.15102 1.71441L0.0185701 1.98953L0.00930286 8.80629L0 15.623L5.10627 15.6224C10.6662 15.6217 10.4664 15.6289 10.8951 15.4151C11.1698 15.2782 11.5461 14.9103 11.6829 14.645C11.9031 14.2181 11.9056 14.1936 11.9056 12.4308V10.8252L11.6731 11.0277C11.3613 11.2992 11.193 11.3958 10.6046 11.6408L10.1056 11.8487L10.0878 12.7937L10.0699 13.7387L5.94424 13.748L1.81855 13.7573V8.14057V2.52389H4.72004H7.6215L7.63701 3.33801C7.65479 4.27197 7.68434 4.40695 7.92732 4.66399C8.17454 4.92553 8.38266 4.98342 9.14321 5.00219L9.78479 5.018L10.3133 4.47204L10.8417 3.92608L9.22616 2.27457L7.61056 0.623047L4.65218 0.62645C3.02507 0.628316 1.61784 0.642952 1.52496 0.659015ZM15.5766 0.653234C15.5274 0.669772 15.4312 0.713021 15.3628 0.749392C15.2943 0.785725 13.7919 2.28777 12.024 4.08726L8.80977 7.35909L10.0937 8.6645C10.7999 9.38247 11.3891 9.97435 11.403 9.97972C11.4169 9.98514 12.5809 8.81609 13.9895 7.38185C16.7778 4.54292 16.7167 4.61408 16.7167 4.20702C16.7167 3.89458 16.6041 3.69795 16.1777 3.26553L15.8085 2.89118L14.0441 4.67727C13.0738 5.65964 12.2448 6.48261 12.202 6.50611C12.1591 6.52956 12.0586 6.54877 11.9787 6.54877C11.8628 6.54877 11.8062 6.52334 11.7001 6.42352C11.5763 6.30702 11.5669 6.28375 11.5669 6.09019V5.88207L13.6813 3.72502L15.7955 1.56794L16.7561 2.53988C17.2844 3.07446 17.7294 3.51181 17.7451 3.51181C17.7608 3.51181 17.8636 3.42535 17.9735 3.31972C18.1847 3.11672 18.2467 2.96095 18.1992 2.75283C18.168 2.61573 16.4294 0.841488 16.2177 0.730658C16.0515 0.64361 15.723 0.603947 15.5766 0.653234ZM2.93571 6.33128C2.77899 6.43435 2.69644 6.65536 2.74523 6.84138C2.78651 6.99871 2.95781 7.16959 3.07771 7.17299C3.12031 7.1742 4.17121 7.17665 5.41302 7.17848L7.67083 7.18174L8.12172 6.71888L8.57257 6.25605L5.8104 6.25667C3.09931 6.25726 3.04617 6.25865 2.93571 6.33128ZM7.42357 9.66845C7.02669 10.5587 6.69164 11.3448 6.6791 11.4152C6.66242 11.5086 6.58161 11.6225 6.38066 11.836C6.20765 12.0198 6.09615 12.1706 6.08111 12.2413C6.01703 12.5423 6.31539 12.8421 6.62061 12.7834C6.7162 12.7649 6.82523 12.684 7.04134 12.4711C7.22732 12.2878 7.36177 12.1836 7.41242 12.1836C7.45612 12.1836 8.22857 11.843 9.12903 11.4267L10.7662 10.6697L9.47748 9.36849C8.76868 8.65279 8.17892 8.06329 8.16698 8.0585C8.15501 8.05371 7.82046 8.77819 7.42357 9.66845ZM3.00967 8.15759C2.90363 8.20164 2.75536 8.39418 2.72759 8.52389C2.69794 8.66253 2.7941 8.87383 2.935 8.97961C3.03323 9.05342 3.08003 9.05539 4.93276 9.06523L6.8299 9.0753L7.01528 8.6199C7.11726 8.36941 7.20066 8.15495 7.20066 8.14332C7.20066 8.10951 3.09179 8.12349 3.00967 8.15759ZM3.00956 10.0402C2.66244 10.1954 2.63324 10.6364 2.95549 10.8567C3.07654 10.9395 3.07725 10.9395 4.57726 10.9388L6.0779 10.938L6.20854 10.6003C6.28036 10.4146 6.3648 10.2009 6.39613 10.1254L6.45312 9.98821L4.7863 9.98964C3.47203 9.99077 3.09628 10.0015 3.00956 10.0402Z" fill="#5882A2"/>
</svg>
