<svg width="18" height="18" viewBox="0 0 18 18" fill="none" xmlns="http://www.w3.org/2000/svg">
<path fill-rule="evenodd" clip-rule="evenodd" d="M4.58178 0.0441953C3.57269 0.137252 2.85017 0.315969 2.21412 0.629749C1.46331 1.00016 0.99739 1.46586 0.626808 2.21632C0.289416 2.89949 0.0689273 3.83183 0.0616552 4.60612C0.0580191 4.99081 0.0652489 5.02474 0.216188 5.32999C0.448726 5.80038 0.812797 6.09561 1.32455 6.22882C1.69788 6.32597 6.36379 6.32669 6.73657 6.22962C7.42932 6.04925 7.93566 5.50359 8.06593 4.79696C8.09358 4.64694 8.11184 3.97636 8.11142 3.12769C8.11045 1.27772 8.06669 1.06029 7.59489 0.561669C7.1408 0.0817643 6.85909 -0.00436159 5.76849 0.00337198C5.3251 0.00649922 4.79107 0.0248825 4.58178 0.0441953ZM11.1563 0.0769044C11.0284 0.117981 10.8476 0.199966 10.7546 0.259045C10.5312 0.401039 10.2142 0.744401 10.1 0.968125C9.89571 1.3685 9.88937 1.48843 9.88937 4.94208C9.88937 8.39777 9.89562 8.5155 10.1008 8.91752C10.219 9.14902 10.5667 9.51702 10.7921 9.64904C11.203 9.88971 11.2078 9.89005 14.0592 9.87716L16.6783 9.86537L16.997 9.70791C17.3866 9.51542 17.6627 9.23426 17.8498 8.83943L17.9845 8.55531L17.9976 6.9283C18.0147 4.8123 17.9432 3.91749 17.6834 2.99813C17.5492 2.52308 17.2162 1.85706 16.9498 1.53065C16.0866 0.473134 14.5744 -0.00693941 12.1287 7.57417e-05C11.5416 0.00176614 11.3408 0.0176137 11.1563 0.0769044ZM1.24113 8.18697C0.733142 8.36409 0.375836 8.68264 0.149386 9.16048L0.0155703 9.44277L0.00216753 11.0909C-0.0193951 13.7362 0.115012 14.7453 0.626808 15.7818C0.99739 16.5322 1.46331 16.9979 2.21412 17.3683C3.09544 17.8031 4.23001 17.9989 5.87419 18C6.62981 18.0005 6.87639 17.9566 7.20845 17.7624C7.43317 17.6311 7.78109 17.2629 7.89922 17.0314C8.1044 16.6294 8.11066 16.5117 8.11066 13.056C8.11066 9.53587 8.10651 9.46551 7.87322 9.03708C7.71031 8.73792 7.28599 8.35369 6.98399 8.2319L6.73805 8.13271L4.09556 8.12291C1.67332 8.11391 1.43541 8.11923 1.24113 8.18697ZM11.2514 11.769C10.9128 11.8601 10.6969 11.987 10.4366 12.2478C10.1688 12.5161 10.0021 12.8323 9.9341 13.2011C9.90645 13.3511 9.88818 14.0217 9.88861 14.8704C9.88958 16.7204 9.93334 16.9378 10.4051 17.4364C10.8441 17.9004 11.1501 18.0006 12.1258 18C13.77 17.9989 14.9046 17.8031 15.7859 17.3683C16.2748 17.1271 16.6456 16.8401 16.9498 16.4674C17.5098 15.7814 17.9281 14.4798 17.9384 13.392C17.942 13.0073 17.9348 12.9733 17.7838 12.6681C17.5513 12.1977 17.1872 11.9025 16.6755 11.7693C16.3188 11.6764 11.5962 11.6762 11.2514 11.769Z" fill="#ffffff" fill-opacity="1"/>
</svg>
