<svg width="22" height="23" viewBox="0 0 22 23" fill="none" xmlns="http://www.w3.org/2000/svg">
<g opacity="0.5">
<path d="M16.6114 13.0013C16.7998 13.436 16.9093 13.968 16.9335 14.5831C17.5691 14.7287 18.0447 15.2972 18.0447 15.9761C18.0447 16.7646 17.4032 17.4061 16.6147 17.4061C15.8263 17.4061 15.1847 16.7646 15.1847 15.9761C15.1847 15.3049 15.65 14.7424 16.2744 14.5886C16.2469 13.9777 16.1008 13.0482 15.5029 12.5892C15.1943 12.5087 14.8797 12.4533 14.5621 12.4236C14.5384 13.4939 11.0008 16.1352 11.0008 16.1352C11.0008 16.1352 7.46207 13.4943 7.43809 12.424C7.08588 12.4562 6.73734 12.5205 6.39683 12.6161C5.96057 12.9615 5.73485 13.605 5.72319 14.5404C5.85343 14.6163 5.95673 14.731 6.01865 14.8684C6.48857 15.0904 6.90371 15.5573 7.22161 16.2219C7.27485 16.3336 7.28189 16.4599 7.24273 16.5752C7.43325 17.0656 7.54215 17.6015 7.54215 18.0516C7.54215 18.6824 7.54215 19.2788 6.85465 19.4319C6.78011 19.494 6.68613 19.5279 6.58911 19.5278H6.12975C6.01904 19.5276 5.91291 19.4836 5.83461 19.4053C5.7563 19.3271 5.7122 19.221 5.71197 19.1103L5.71241 19.094C5.71721 18.9863 5.7632 18.8846 5.84087 18.8099C5.91855 18.7351 6.02197 18.6931 6.12975 18.6925H6.58911C6.63593 18.6925 6.68241 18.7004 6.72661 18.7158C6.73955 18.713 6.75195 18.7082 6.76335 18.7015C6.81439 18.6109 6.81439 18.2333 6.81439 18.0521C6.81439 17.6864 6.72287 17.2449 6.56249 16.8346C6.47912 16.7873 6.41218 16.7157 6.37065 16.6293C6.09213 16.0461 5.71329 15.6695 5.40573 15.6695C5.09113 15.6695 4.69337 16.0769 4.41595 16.6823C4.37002 16.7813 4.29151 16.8616 4.19353 16.9096C4.04855 17.3021 3.96891 17.7062 3.96891 18.0518C3.96891 18.2041 3.96891 18.608 4.02699 18.703C4.02765 18.703 4.04063 18.711 4.07715 18.72C4.12467 18.7017 4.17571 18.6923 4.22675 18.6923H4.68699C4.79042 18.6924 4.89013 18.7308 4.96685 18.8002C5.04357 18.8696 5.09185 18.9649 5.10235 19.0678L5.10455 19.0935C5.10455 19.3402 4.91711 19.528 4.68699 19.528H4.22675C4.13545 19.528 4.04723 19.4975 3.97463 19.442C3.71173 19.3925 3.52649 19.2766 3.40923 19.0878C3.26711 18.8597 3.24115 18.56 3.24115 18.0518C3.24115 17.6061 3.34411 17.0926 3.53111 16.6023C3.50336 16.4978 3.51309 16.387 3.55861 16.289C3.75331 15.8631 4.00103 15.4983 4.27471 15.2345C4.41686 15.0955 4.57913 14.9786 4.75607 14.8878C4.81832 14.7419 4.92635 14.6202 5.06385 14.5411C5.07089 13.9548 5.16109 13.4486 5.32785 13.0312C3.41869 13.9997 2.11035 15.9803 2.11035 18.2677C2.11035 21.1906 4.24589 21.3336 7.04143 21.3336C7.34657 21.3336 7.65897 21.3318 7.97819 21.3318H14.0209C14.3397 21.3318 14.6521 21.3336 14.9573 21.3336C17.7532 21.3336 19.8897 21.1906 19.8897 18.2677C19.8894 15.9561 18.5532 13.9581 16.6114 13.0013Z" fill="#222222"/>
<path d="M11.002 13.1919C13.7044 13.1919 15.895 9.12831 15.895 6.42605C15.895 3.72423 13.7044 1.53369 11.002 1.53369C8.29992 1.53369 6.10938 3.72423 6.10938 6.42605C6.10938 9.12831 8.29992 13.1919 11.002 13.1919Z" fill="#222222"/>
<path d="M16.6141 16.6362C16.9786 16.6362 17.2741 16.3407 17.2741 15.9762C17.2741 15.6117 16.9786 15.3162 16.6141 15.3162C16.2496 15.3162 15.9541 15.6117 15.9541 15.9762C15.9541 16.3407 16.2496 16.6362 16.6141 16.6362Z" fill="#222222"/>
</g>
</svg>
