<svg width="23" height="23" viewBox="0 0 23 23" fill="none" xmlns="http://www.w3.org/2000/svg">
<path d="M17.0255 13.0006C17.2138 13.4353 17.3234 13.9673 17.3476 14.5824C17.9832 14.728 18.4588 15.2965 18.4588 15.9754C18.4588 16.7639 17.8173 17.4054 17.0288 17.4054C16.2403 17.4054 15.5988 16.7639 15.5988 15.9754C15.5988 15.3042 16.0641 14.7417 16.6885 14.5879C16.661 13.9769 16.5149 13.0474 15.9169 12.5885C15.6083 12.5079 15.2937 12.4525 14.9762 12.4229C14.9524 13.4932 11.4148 16.1345 11.4148 16.1345C11.4148 16.1345 7.87613 13.4936 7.85215 12.4233C7.49994 12.4555 7.15141 12.5198 6.81089 12.6154C6.37463 12.9608 6.14891 13.6043 6.13725 14.5397C6.2675 14.6156 6.37079 14.7303 6.43271 14.8677C6.90263 15.0897 7.31777 15.5565 7.63567 16.2212C7.68891 16.3329 7.69595 16.4592 7.65679 16.5745C7.84731 17.0649 7.95621 17.6008 7.95621 18.0509C7.95621 18.6816 7.95621 19.2781 7.26871 19.4312C7.19417 19.4933 7.10019 19.5272 7.00317 19.5271H6.54381C6.4331 19.5269 6.32697 19.4829 6.24867 19.4046C6.17036 19.3263 6.12627 19.2202 6.12603 19.1095L6.12647 19.0933C6.13127 18.9856 6.17726 18.8839 6.25493 18.8091C6.33261 18.7344 6.43603 18.6924 6.54381 18.6918H7.00317C7.04999 18.6918 7.09647 18.6997 7.14067 18.7151C7.15361 18.7123 7.16601 18.7075 7.17741 18.7008C7.22845 18.6101 7.22845 18.2326 7.22845 18.0513C7.22845 17.6857 7.13693 17.2442 6.97655 16.8339C6.89318 16.7866 6.82624 16.715 6.78471 16.6286C6.50619 16.0454 6.12735 15.6687 5.81979 15.6687C5.50519 15.6687 5.10743 16.0762 4.83001 16.6816C4.78408 16.7806 4.70557 16.8608 4.60759 16.9089C4.46261 17.3014 4.38297 17.7055 4.38297 18.0511C4.38297 18.2034 4.38297 18.6073 4.44105 18.7023C4.44171 18.7023 4.45469 18.7102 4.49121 18.7193C4.53873 18.701 4.58977 18.6915 4.64081 18.6915H5.10105C5.20448 18.6917 5.30419 18.7301 5.38091 18.7995C5.45763 18.8688 5.50591 18.9642 5.51641 19.0671L5.51861 19.0928C5.51861 19.3394 5.33117 19.5273 5.10105 19.5273H4.64081C4.54951 19.5273 4.46129 19.4967 4.38869 19.4413C4.12579 19.3918 3.94055 19.2759 3.82329 19.0871C3.68117 18.859 3.65521 18.5593 3.65521 18.0511C3.65521 17.6054 3.75817 17.0919 3.94517 16.6015C3.91742 16.4971 3.92715 16.3862 3.97267 16.2883C4.16737 15.8623 4.41509 15.4976 4.68877 15.2338C4.83092 15.0947 4.9932 14.9778 5.17013 14.8871C5.23238 14.7412 5.34041 14.6195 5.47791 14.5404C5.48495 13.9541 5.57515 13.4478 5.74191 13.0305C3.83275 13.9989 2.52441 15.9796 2.52441 18.2669C2.52441 21.1899 4.65995 21.3329 7.45549 21.3329C7.76063 21.3329 8.07303 21.3311 8.39225 21.3311H14.435C14.7538 21.3311 15.0662 21.3329 15.3713 21.3329C18.1673 21.3329 20.3037 21.1899 20.3037 18.2669C20.3035 15.9554 18.9672 13.9574 17.0255 13.0006Z" fill="white"/>
<path d="M11.416 13.1914C14.1185 13.1914 16.309 9.12782 16.309 6.42556C16.309 3.72374 14.1185 1.5332 11.416 1.5332C8.71398 1.5332 6.52344 3.72374 6.52344 6.42556C6.52344 9.12782 8.71398 13.1914 11.416 13.1914Z" fill="white"/>
<path d="M17.0282 16.6354C17.3927 16.6354 17.6882 16.3399 17.6882 15.9754C17.6882 15.6109 17.3927 15.3154 17.0282 15.3154C16.6637 15.3154 16.3682 15.6109 16.3682 15.9754C16.3682 16.3399 16.6637 16.6354 17.0282 16.6354Z" fill="white"/>
</svg>
