<svg width="19" height="22" viewBox="0 0 19 22" fill="none" xmlns="http://www.w3.org/2000/svg">
<path fill-rule="evenodd" clip-rule="evenodd" d="M9.92467 1.03019V6.59822C9.92467 6.82402 10.0118 7.04057 10.1669 7.20024C10.322 7.3599 10.5324 7.4496 10.7517 7.4496H16.1607C15.8719 6.66198 15.4233 5.94681 14.8448 5.3518L11.9634 2.38388C11.3847 1.78903 10.6897 1.3276 9.92467 1.03019ZM16.5411 13.2057V9.56528C16.5411 9.44485 16.533 9.32571 16.5249 9.20673C16.5237 9.18861 16.5225 9.17049 16.5213 9.15236H10.7517C10.0937 9.15236 9.46259 8.88327 8.99728 8.40427C8.53197 7.92528 8.27056 7.27562 8.27056 6.59822V0.658983C8.25297 0.657746 8.23538 0.656479 8.21779 0.655212C8.1022 0.646887 7.98644 0.63855 7.86944 0.63855H4.13528C3.03894 0.639902 1.98788 1.08883 1.21265 1.88686C0.437415 2.68489 0.00131325 3.76687 0 4.89546V16.8148C0.00131325 17.9434 0.437415 19.0254 1.21265 19.8234C1.98788 20.6214 3.03894 21.0704 4.13528 21.0717H11.1213C10.261 20.1942 9.7305 18.9921 9.7305 17.6661C9.7305 14.9792 11.9087 12.8011 14.5955 12.8011C15.2873 12.8011 15.9453 12.9454 16.5411 13.2057ZM7.24992 16.2128C7.40502 16.3724 7.49216 16.589 7.49216 16.8148C7.49216 17.0406 7.40502 17.2572 7.24992 17.4168C7.09481 17.5765 6.88445 17.6662 6.6651 17.6662H2.52982C2.31047 17.6662 2.10011 17.5765 1.945 17.4168C1.7899 17.2572 1.70276 17.0406 1.70276 16.8148C1.70276 16.589 1.7899 16.3724 1.945 16.2128C2.10011 16.0531 2.31047 15.9634 2.52982 15.9634H6.6651C6.88445 15.9634 7.09481 16.0531 7.24992 16.2128ZM9.73109 12.8073C9.88619 12.9669 9.97332 13.1835 9.97332 13.4093C9.97332 13.6351 9.88619 13.8516 9.73109 14.0113C9.57598 14.171 9.36562 14.2607 9.14627 14.2607H2.52982C2.31047 14.2607 2.10011 14.171 1.945 14.0113C1.7899 13.8516 1.70276 13.6351 1.70276 13.4093C1.70276 13.1835 1.7899 12.9669 1.945 12.8073C2.10011 12.6476 2.31047 12.5579 2.52982 12.5579H9.14627C9.36562 12.5579 9.57598 12.6476 9.73109 12.8073Z" fill="#ffffff"/>
<circle cx="14.5957" cy="17.6662" r="3.75003" fill="#ffffff"/>
<path fill-rule="evenodd" clip-rule="evenodd" d="M15.471 15.2426C15.2446 15.2685 15.0148 15.3614 14.8218 15.505C14.723 15.5785 12.7407 17.5621 12.6755 17.6528C12.5694 17.8003 12.5019 17.945 12.4577 18.1195C12.3821 18.4183 12.4112 18.734 12.5397 19.0105C12.8146 19.6019 13.4632 19.9122 14.0922 19.7533C14.2664 19.7093 14.4113 19.6418 14.5588 19.5357C14.6495 19.4705 16.6334 17.4886 16.707 17.3898C16.8215 17.236 16.89 17.0925 16.9363 16.9097C17.0119 16.6109 16.9828 16.2952 16.8542 16.0187C16.607 15.4869 16.0528 15.1759 15.471 15.2426ZM15.8606 15.6761C16.2013 15.7698 16.4527 16.0249 16.5391 16.3646C16.5644 16.464 16.5626 16.7155 16.536 16.8119C16.5069 16.917 16.4668 17.0056 16.407 17.097C16.3604 17.1681 16.2851 17.2479 15.8928 17.6419L15.4331 18.1035L14.7708 17.4413L14.1085 16.7792L14.5075 16.3794C14.727 16.1594 14.9441 15.9457 14.9901 15.9044C15.1304 15.7783 15.2686 15.7053 15.4371 15.6682C15.5385 15.6459 15.7663 15.6501 15.8606 15.6761ZM13.859 17.1582C13.889 17.1795 13.9066 17.2264 13.8981 17.2619C13.8939 17.2793 13.7822 17.398 13.5427 17.6394C13.2655 17.9189 13.1848 18.0056 13.1514 18.0595C13.0813 18.1729 13.0537 18.2575 13.039 18.4033C13.0277 18.516 13.0022 18.5487 12.9257 18.5487C12.9014 18.5487 12.8868 18.5415 12.8625 18.5172L12.831 18.4856L12.8359 18.3857C12.8441 18.2191 12.8909 18.0788 12.9872 17.9322C13.032 17.8639 13.1006 17.7897 13.3679 17.5201C13.5472 17.3393 13.7095 17.1798 13.7287 17.1657C13.7712 17.1345 13.8217 17.1316 13.859 17.1582Z" fill="#ffffff"/>
</svg>
