<svg width="20" height="20" viewBox="0 0 20 20" fill="none" xmlns="http://www.w3.org/2000/svg">
<path fill-rule="evenodd" clip-rule="evenodd" d="M9.36641 0.0270576C8.59052 0.136743 7.89913 0.480707 7.34209 1.03407C6.84302 1.52985 6.74052 1.82087 6.97311 2.0816C7.07812 2.19929 7.12639 2.22072 7.28676 2.22072C7.47087 2.22072 7.48847 2.20828 7.89628 1.79143C8.56002 1.113 9.01542 0.923324 9.98341 0.922174C10.6225 0.921407 10.8526 0.9669 11.3145 1.18542C11.6316 1.3354 11.73 1.41207 12.1147 1.8089C12.5257 2.23282 12.564 2.2614 12.7209 2.2614C12.8518 2.2614 12.9174 2.23226 13.0216 2.12794C13.2909 1.85823 13.1805 1.56026 12.6045 1.00191C12.1192 0.531439 11.6645 0.273051 11.0381 0.111739C10.6469 0.0109989 9.78778 -0.0325345 9.36641 0.0270576ZM9.52036 1.87867C9.03668 2.01208 8.64921 2.29863 8.37247 2.72749C8.15349 3.06681 8.1503 3.25572 8.35997 3.46572C8.49483 3.60079 8.52745 3.61366 8.68225 3.59287C8.88141 3.56608 8.99492 3.47645 9.1063 3.25781C9.21696 3.04065 9.46584 2.84752 9.7376 2.76787C10.1831 2.63731 10.6278 2.83513 10.8951 3.28285C11.1257 3.6689 11.4221 3.74281 11.6758 3.47748C11.8447 3.30092 11.8367 3.08197 11.6499 2.77093C11.2093 2.03713 10.3107 1.66062 9.52036 1.87867ZM9.7285 3.73356C9.566 3.86157 9.50901 4.07267 9.58666 4.25886C9.65127 4.41374 9.83694 4.54221 9.99613 4.54221C10.1553 4.54221 10.341 4.41374 10.4056 4.25886C10.5276 3.9664 10.3141 3.64769 9.99613 3.64769C9.90146 3.64769 9.79352 3.68232 9.7285 3.73356ZM0.882085 5.09473C0.56108 5.22034 0.322537 5.4435 0.163522 5.76702L0.0231781 6.05254L0.0116103 10.5154L0 14.9783H9.9963H19.9926L19.9809 10.5163L19.9691 6.05438L19.8551 5.81073C19.7057 5.49159 19.4136 5.2102 19.1157 5.09856C18.8818 5.0109 18.8675 5.01077 9.98388 5.01277C1.38401 5.01469 1.07955 5.01741 0.882085 5.09473ZM14.8322 6.93612C14.8862 6.98693 14.9477 7.09687 14.9688 7.18041C14.9899 7.26394 15.1365 8.24744 15.2946 9.36602C15.4526 10.4846 15.5895 11.3922 15.5988 11.3829C15.6081 11.3737 15.6791 11.1274 15.7568 10.8356C15.9233 10.21 15.9542 10.1444 16.1242 10.0564C16.2313 10.0009 16.3934 9.99175 17.0765 10.0027C17.8794 10.0155 17.9025 10.0184 18.0088 10.1185C18.2273 10.3243 18.1791 10.7239 17.9217 10.8414C17.8616 10.8689 17.5783 10.889 17.253 10.889H16.6887L16.2875 12.348C15.9261 13.6625 15.8731 13.8206 15.7524 13.9453C15.6536 14.0474 15.581 14.0837 15.4759 14.0836C15.2612 14.0834 15.0698 13.9466 15.0168 13.7557C14.992 13.6667 14.8368 12.6259 14.6717 11.4428C14.5066 10.2597 14.3582 9.25744 14.3419 9.21557C14.3216 9.16339 14.1987 9.44431 13.9513 10.1085C13.7528 10.6414 13.5461 11.1303 13.4919 11.1948C13.3651 11.3456 13.1543 11.3875 12.9789 11.2967C12.8967 11.2541 12.7477 11.0793 12.5853 10.835C12.4415 10.6187 12.309 10.4254 12.291 10.4053C12.2729 10.3853 12.1247 10.568 11.9617 10.8114C11.7844 11.076 11.6195 11.2748 11.5517 11.3058C11.4728 11.3418 11.1325 11.3576 10.4366 11.3576C9.57858 11.3576 9.41795 11.3474 9.31525 11.2867C9.06918 11.1411 9.02503 10.7902 9.22734 10.5876L9.35165 10.4631H10.2261H11.1005L11.526 9.82588C11.76 9.47545 11.9887 9.16875 12.0342 9.14435C12.0797 9.11998 12.1838 9.1 12.2654 9.1C12.4567 9.1 12.6122 9.2312 12.8449 9.58892C12.9443 9.74171 13.0378 9.86644 13.0525 9.8661C13.0673 9.86576 13.3163 9.22839 13.6058 8.44977C13.8952 7.67116 14.1536 7.00721 14.1799 6.97433C14.3272 6.7901 14.6565 6.7708 14.8322 6.93612ZM4.20497 7.58963C4.32422 7.62507 4.54941 7.73982 4.7054 7.84461C4.8614 7.94939 4.99826 8.0351 5.00957 8.0351C5.02088 8.0351 5.1571 7.95135 5.31229 7.849C5.93618 7.43747 6.56446 7.38419 7.20893 7.68807C7.94608 8.03561 8.38672 8.85963 8.26313 9.65933C8.18012 10.1966 8.06754 10.3596 6.67813 11.9539C5.97378 12.7622 5.34984 13.4666 5.29158 13.5194C5.16454 13.6343 4.93514 13.6461 4.77166 13.5462C4.70957 13.5082 4.08466 12.8195 3.38294 12.0158C1.99786 10.4294 1.82737 10.1844 1.74873 9.66721C1.60197 8.7019 2.24653 7.76014 3.20223 7.54354C3.50282 7.47538 3.87912 7.49268 4.20497 7.58963ZM3.40786 8.42439C3.16213 8.46971 2.9229 8.63191 2.77775 8.85158C2.61062 9.10456 2.58888 9.55314 2.73114 9.81332C2.83062 9.99512 4.96202 12.468 5.01382 12.4617C5.07136 12.4547 7.21425 9.94924 7.29514 9.79445C7.41158 9.57163 7.40776 9.18 7.28689 8.95092C7.10402 8.60423 6.78365 8.40726 6.40246 8.40726C6.12497 8.40726 5.95859 8.48146 5.54173 8.79105C5.02496 9.1748 4.97623 9.17459 4.45691 8.78654C3.96911 8.42213 3.7779 8.3561 3.40786 8.42439ZM0.00191379 16.3819C0.00191379 16.6384 0.0229655 16.9499 0.0486527 17.0741C0.163522 17.6286 0.619726 18.0649 1.17825 18.1543L1.35156 18.1821L1.37269 18.5533C1.40999 19.2089 1.66946 19.618 2.2083 19.8711L2.44731 19.9833H3.61684C4.98375 19.9833 5.0851 19.9633 5.46173 19.6185C5.77223 19.3343 5.88051 19.0774 5.9048 18.567L5.92355 18.173H9.99613H14.0687L14.0875 18.567C14.1117 19.0768 14.2201 19.3344 14.5295 19.6176C14.8967 19.9538 14.9952 19.9755 16.2343 19.9946C17.1029 20.0079 17.3539 19.9986 17.5624 19.945C18.215 19.7776 18.577 19.3017 18.6195 18.5553L18.6407 18.1821L18.8114 18.1547C19.1191 18.1054 19.3875 17.9588 19.6039 17.7216C19.8947 17.403 19.9553 17.2062 19.9797 16.5011L20 15.9154H10.0009H0.00191379V16.3819Z" fill="white"/>
</svg>
