<svg width="16" height="21" viewBox="0 0 16 21" fill="none" xmlns="http://www.w3.org/2000/svg">
<path fill-rule="evenodd" clip-rule="evenodd" d="M4.59389 3.73504V6.84703H7.70588H10.8179V3.73504V0.623047H7.70588H4.59389V3.73504ZM8.29864 2.49098V3.14228H8.9655H9.63235V3.73504V4.3278H8.9655H8.29864V4.99465V5.66151H7.70588H7.11312V4.99465V4.3278H6.44627H5.77941V3.73504V3.14228H6.44627H7.11312V2.43452V1.72662L7.70588 1.78323L8.29864 1.83969V2.49098ZM0.177828 5.98753C0.0443084 6.12105 0 7.98646 0 13.4711V20.7769H2.81561H5.63122V18.8504V16.924H7.70588H9.78054V18.8504V20.7769H12.5962H15.4118V13.4711C15.4118 7.98646 15.3675 6.12105 15.2339 5.98753C15.1157 5.86927 14.4699 5.8097 13.3075 5.8097H11.5588V6.69884V7.58798H7.70588H3.85294V6.69884V5.8097H2.1043C0.941896 5.8097 0.296083 5.86927 0.177828 5.98753ZM8.74321 10.2184V11.5891H7.70588H6.66855V10.2184V8.84759H7.70588H8.74321V10.2184ZM3.85294 10.2619V11.6022L2.77856 11.5586L1.70419 11.515L1.66136 10.2184L1.61853 8.92169H2.73574H3.85294V10.2619ZM13.7817 10.2554V11.5891H12.6702H11.5588V10.2554V8.92169H12.6702H13.7817V10.2554ZM3.85294 14.189V15.6033L2.77856 15.5597L1.70419 15.5161L1.66047 14.3437C1.63646 13.6989 1.65099 13.0821 1.69292 12.9729C1.74642 12.8333 2.07733 12.7746 2.81102 12.7746H3.85294V14.189ZM8.74321 14.1824V15.5902H7.70588H6.66855V14.1824V12.7746H7.70588H8.74321V14.1824ZM13.7076 14.1824V15.5161H12.6702H11.6329L11.5892 14.3437C11.5652 13.6989 11.5809 13.079 11.6242 12.9661C11.683 12.813 11.9572 12.7721 12.7052 12.8049L13.7076 12.8487V14.1824Z" fill="#5882A2"/>
</svg>
