<svg width="34" height="34" viewBox="0 0 34 34" fill="none" xmlns="http://www.w3.org/2000/svg">
<rect width="34" height="34" rx="9" fill="#0B4977" fill-opacity="0.14"/>
<path fill-rule="evenodd" clip-rule="evenodd" d="M16.7537 9.05015C16.6859 9.0781 14.7222 10.4464 12.3899 12.0907C8.53093 14.8115 8.14203 15.0943 8.06771 15.2339C7.88323 15.5803 8.09259 16.0763 8.49137 16.2376C8.59681 16.2803 8.77959 16.2906 9.43274 16.2906H10.2433V20.3744V24.4582L10.3347 24.6359C10.4025 24.7678 10.4682 24.8375 10.5898 24.9068L10.7535 25H17H23.2465L23.4102 24.9068C23.5318 24.8375 23.5975 24.7678 23.6653 24.6359L23.7567 24.4582V20.3744V16.2906H24.5673C25.2204 16.2906 25.4032 16.2803 25.5086 16.2376C25.9074 16.0763 26.1168 15.5803 25.9323 15.2339C25.858 15.0943 25.4691 14.8115 21.6101 12.0907C19.2778 10.4464 17.3098 9.07735 17.2368 9.04841C17.0726 8.9833 16.9143 8.98385 16.7537 9.05015ZM17.888 14.9308C20.0541 15.3449 21.6344 17.3218 21.4912 19.4384C21.3562 21.4344 19.9085 23.0514 17.8798 23.4722C17.4621 23.5588 16.5379 23.5588 16.1202 23.4722C14.9707 23.2338 14.0206 22.6327 13.338 21.7121C12.0781 20.0129 12.2638 17.6631 13.7758 16.1725C14.8749 15.0889 16.3636 14.6394 17.888 14.9308ZM15.8739 17.0064V18.0972H14.7478H13.6216V19.188V20.2789H14.7478H15.8739V21.3697V22.4605H17H18.1261V21.3697V20.2789H19.2522H20.3784V19.188V18.0972H19.2522H18.1261V17.0064V15.9156H17H15.8739V17.0064Z" fill="#ffffff" fill-opacity="1"/>
</svg>
