<svg width="17" height="20" viewBox="0 0 17 20" fill="none" xmlns="http://www.w3.org/2000/svg">
<path fill-rule="evenodd" clip-rule="evenodd" d="M8.04261 0.803806C7.48555 1.07939 6.27594 1.57433 5.46054 1.86042C3.85651 2.42317 2.52152 2.77282 0.889297 3.05769C0.233128 3.1722 0.122324 3.20194 0.0620656 3.2797C-0.00453034 3.36567 -0.00688302 3.53443 0.00647411 7.2585C0.021387 11.4194 0.0180857 11.3413 0.219885 12.3074C0.406467 13.2008 0.874725 14.3622 1.35099 15.1128C2.67714 17.2027 4.87518 18.7114 7.71835 19.4834C8.39092 19.666 8.59112 19.668 9.23351 19.4984C11.3529 18.939 13.2354 17.8787 14.5513 16.5034C15.8447 15.1516 16.5953 13.5737 16.9105 11.544C16.9636 11.2024 16.974 10.6079 16.986 7.25183L17 3.35619L16.9094 3.26146C16.8467 3.19591 16.7555 3.15848 16.6134 3.13981C14.4003 2.84931 11.2451 1.89318 9.02686 0.840802C8.77068 0.719267 8.52513 0.621287 8.48123 0.623071C8.43732 0.624895 8.23993 0.706222 8.04261 0.803806ZM9.51481 4.52355C11.7582 4.99807 13.4514 6.78695 13.8703 9.12525C13.9676 9.66857 13.9676 10.6042 13.8703 11.1475C13.7255 11.956 13.4031 12.7614 12.9627 13.415C12.6697 13.8498 12.0666 14.4838 11.6556 14.7888C11.043 15.2436 10.2533 15.5959 9.49053 15.7546C8.99278 15.8581 7.91769 15.8485 7.42681 15.736C6.66208 15.5608 5.95373 15.2415 5.35873 14.8037C4.94258 14.4975 4.33593 13.8673 4.04397 13.4378C2.52175 11.1987 2.75212 8.10813 4.58588 6.16814C5.47975 5.22251 6.56793 4.64636 7.79485 4.46915C8.1492 4.41796 9.16798 4.4502 9.51481 4.52355ZM7.37513 7.06154C7.28197 7.15885 7.28197 7.15897 7.28197 8.0132V8.86751H6.46442C5.64694 8.86751 5.64682 8.86751 5.5537 8.96486L5.46054 9.06216V10.1364V11.2106L5.5537 11.3079C5.64682 11.4053 5.64694 11.4053 6.46442 11.4053H7.28197V12.2596C7.28197 13.1138 7.28197 13.1139 7.37513 13.2112L7.46825 13.3086H8.49625H9.52426L9.61738 13.2112C9.71054 13.1139 9.71054 13.1138 9.71054 12.2596V11.4053H10.5281C11.3456 11.4053 11.3457 11.4053 11.4388 11.3079L11.532 11.2106V10.1364V9.06216L11.4388 8.96486C11.3457 8.86751 11.3456 8.86751 10.5281 8.86751H9.71054V8.0132C9.71054 7.15897 9.71054 7.15885 9.61738 7.06154L9.52426 6.9642H8.49625H7.46825L7.37513 7.06154Z" fill="#5882A2"/>
</svg>
