<svg width="23" height="22" viewBox="0 0 23 22" fill="none" xmlns="http://www.w3.org/2000/svg">
<g opacity="0.5" clip-path="url(#clip0_2946_9013)">
<path d="M15.3988 6.05194C15.4603 5.93937 15.4754 5.8072 15.4407 5.68369C15.4061 5.56017 15.3245 5.45511 15.2134 5.39095C15.1023 5.32679 14.9706 5.30863 14.8463 5.34034C14.722 5.37206 14.615 5.45113 14.5482 5.56067L10.7368 12.1623C10.6753 12.2749 10.6603 12.4071 10.6949 12.5306C10.7296 12.6541 10.8112 12.7592 10.9222 12.8233C11.0333 12.8875 11.1651 12.9057 11.2894 12.8739C11.4137 12.8422 11.5207 12.7631 11.5874 12.6536L15.3988 6.05194ZM6.03478 9.10562C5.97326 9.21819 5.95822 9.35036 5.99287 9.47387C6.02751 9.59738 6.10909 9.70245 6.22018 9.7666C6.33126 9.83076 6.46303 9.84893 6.58733 9.81721C6.71163 9.7855 6.81859 9.70642 6.88536 9.59689L10.5486 3.2515C10.6086 3.13903 10.6226 3.00762 10.5876 2.88503C10.5525 2.76244 10.4712 2.65828 10.3607 2.59456C10.2503 2.53084 10.1194 2.51255 9.99573 2.54356C9.87205 2.57457 9.76528 2.65245 9.69797 2.76074L6.03478 9.10562Z" fill="#222222"/>
<path d="M17.6437 4.1646L10.2162 -0.134231C10.1076 -0.19709 9.96857 -0.160003 9.90572 -0.0513953L8.74732 1.95009C8.68446 2.0587 8.72155 2.1977 8.83016 2.26056L16.2577 6.55939C16.3663 6.62225 16.5053 6.58516 16.5682 6.47655L17.7266 4.47506C17.7894 4.36646 17.7524 4.22745 17.6437 4.1646Z" fill="#222222"/>
<path d="M7.3111 8.04977L8.90163 8.96836L8.51338 9.64334L6.92285 8.72475L7.3111 8.04977ZM8.0749 6.72872L9.07723 7.30728L8.68644 7.98278L7.68411 7.40422L8.0749 6.72872ZM8.83616 5.40869L10.4262 6.32677L10.0384 7.00176L8.44792 6.08368L8.83616 5.40869Z" fill="#222222"/>
<path fill-rule="evenodd" clip-rule="evenodd" d="M7.13995 20.3563L11.5873 12.6533C10.9539 12.2879 10.4682 11.6657 9.83482 11.2998C9.20145 10.9344 8.41989 10.8253 7.78652 10.4593C7.15315 10.0934 6.66797 9.47123 6.0346 9.10582L1.43961 17.0646C0.534217 18.6328 1.07624 20.6557 2.64393 21.5611C4.21213 22.466 6.23506 21.924 7.14046 20.3563H7.13995ZM20.0489 5.38477C18.9421 6.71698 18.4315 7.80964 18.3031 8.66327C18.0707 10.2127 19.0989 10.9735 20.1038 10.945C21.0665 10.9176 22.0079 10.1655 21.7988 8.68966C21.677 7.83197 21.1675 6.73068 20.0489 5.38477Z" fill="#222222"/>
</g>
<defs>
<clipPath id="clip0_2946_9013">
<rect width="22" height="22" fill="white" transform="translate(0.414062)"/>
</clipPath>
</defs>
</svg>
