<svg width="22" height="22" viewBox="0 0 22 22" fill="none" xmlns="http://www.w3.org/2000/svg">
<g clip-path="url(#clip0_2946_11737)">
<path d="M14.9848 6.05218C15.0463 5.93961 15.0613 5.80745 15.0267 5.68393C14.992 5.56042 14.9104 5.45535 14.7994 5.3912C14.6883 5.32704 14.5565 5.30887 14.4322 5.34059C14.3079 5.3723 14.2009 5.45138 14.1342 5.56091L10.3228 12.1626C10.2613 12.2752 10.2462 12.4073 10.2809 12.5308C10.3155 12.6544 10.3971 12.7594 10.5082 12.8236C10.6193 12.8877 10.751 12.9059 10.8753 12.8742C10.9996 12.8425 11.1066 12.7634 11.1734 12.6539L14.9848 6.05218ZM5.62071 9.10586C5.5592 9.21843 5.54416 9.3506 5.5788 9.47411C5.61345 9.59763 5.69503 9.70269 5.80611 9.76685C5.9172 9.83101 6.04897 9.84917 6.17327 9.81746C6.29757 9.78574 6.40453 9.70667 6.4713 9.59713L10.1345 3.25175C10.1946 3.13928 10.2085 3.00786 10.1735 2.88527C10.1384 2.76268 10.0571 2.65852 9.94667 2.5948C9.83623 2.53108 9.70534 2.51279 9.58167 2.54381C9.45799 2.57482 9.35122 2.6527 9.28391 2.76099L5.62071 9.10586Z" fill="white"/>
<path d="M17.2297 4.1646L9.80212 -0.134231C9.69351 -0.19709 9.55451 -0.160003 9.49165 -0.0513953L8.33326 1.95009C8.2704 2.0587 8.30749 2.1977 8.41609 2.26056L15.8437 6.55939C15.9523 6.62225 16.0913 6.58516 16.1541 6.47655L17.3125 4.47506C17.3754 4.36646 17.3383 4.22745 17.2297 4.1646Z" fill="white"/>
<path d="M6.89703 8.04971L8.48757 8.9683L8.09932 9.64328L6.50879 8.72469L6.89703 8.04971ZM7.66083 6.72866L8.66316 7.30722L8.27238 7.98271L7.27005 7.40415L7.66083 6.72866ZM8.4221 5.40863L10.0121 6.32671L9.62439 7.0017L8.03385 6.08362L8.4221 5.40863Z" fill="white"/>
<path fill-rule="evenodd" clip-rule="evenodd" d="M6.72589 20.3563L11.1732 12.6533C10.5398 12.2879 10.0541 11.6657 9.42076 11.2998C8.78739 10.9344 8.00583 10.8253 7.37246 10.4593C6.73908 10.0934 6.25391 9.47123 5.62054 9.10582L1.02555 17.0646C0.120155 18.6328 0.662174 20.6557 2.22987 21.5611C3.79807 22.466 5.821 21.924 6.7264 20.3563H6.72589ZM19.6349 5.38477C18.528 6.71698 18.0175 7.80964 17.8891 8.66327C17.6566 10.2127 18.6848 10.9735 19.6897 10.945C20.6524 10.9176 21.5939 10.1655 21.3848 8.68966C21.263 7.83197 20.7534 6.73068 19.6349 5.38477Z" fill="white"/>
</g>
<defs>
<clipPath id="clip0_2946_11737">
<rect width="22" height="22" fill="white"/>
</clipPath>
</defs>
</svg>
