<svg width="18" height="17" viewBox="0 0 18 17" fill="none" xmlns="http://www.w3.org/2000/svg">
<path d="M13.4008 0.261719C10.9104 0.261719 8.89209 2.27999 8.89209 4.76856C8.89209 7.25713 10.9104 9.2754 13.4008 9.2754C15.8913 9.2754 17.9096 7.25713 17.9096 4.76856C17.9096 2.27999 15.8913 0.261719 13.4008 0.261719Z" fill="#5882A2"/>
<path d="M10.2684 3.78516H9.69533H1.36709C0.613098 3.78516 0 4.39825 0 5.15035V14.8838C0 15.6358 0.613098 16.2489 1.36709 16.2489H12.9112C13.6652 16.2489 14.2783 15.6358 14.2783 14.8838V8.36435V7.79124L13.7109 7.72269C11.9383 7.51134 10.5502 6.12521 10.3389 4.35256L10.2684 3.78516Z" fill="#5882A2"/>
<path d="M11.2872 9.47656H2.98948C2.69054 9.47656 2.44873 9.71837 2.44873 10.0173C2.44873 10.3162 2.69054 10.5581 2.98948 10.5581H11.2872C11.5862 10.5581 11.828 10.3162 11.828 10.0173C11.828 9.71837 11.5862 9.47656 11.2872 9.47656Z" fill="white"/>
<path d="M11.2872 12.3633H2.98948C2.69054 12.3633 2.44873 12.6051 2.44873 12.904C2.44873 13.203 2.69054 13.4448 2.98948 13.4448H11.2872C11.5862 13.4448 11.828 13.203 11.828 12.904C11.828 12.6051 11.5862 12.3633 11.2872 12.3633Z" fill="white"/>
<path d="M2.98948 6.59375C2.69054 6.59375 2.44873 6.83556 2.44873 7.13449C2.44873 7.43343 2.69054 7.67524 2.98948 7.67524H9.49364C9.21756 7.34013 8.97384 6.97836 8.7663 6.59375H2.98948Z" fill="white"/>
<path d="M15.931 4.29418H13.8747V2.23973C13.8747 1.97697 13.6614 1.76562 13.4006 1.76562C13.1378 1.76562 12.9265 1.97888 12.9265 2.23973V4.29418H10.8701C10.6073 4.29418 10.396 4.50553 10.396 4.76828C10.396 5.03104 10.6092 5.24239 10.8701 5.24239H12.9265V7.29684C12.9265 7.55959 13.1397 7.77094 13.4006 7.77094C13.6633 7.77094 13.8747 7.55769 13.8747 7.29684V5.24239H15.931C16.1938 5.24239 16.4051 5.02913 16.4051 4.76828C16.4051 4.50743 16.1938 4.29418 15.931 4.29418Z" fill="white"/>
</svg>
