<svg width="22" height="22" viewBox="0 0 22 22" fill="none" xmlns="http://www.w3.org/2000/svg">
<path fill-rule="evenodd" clip-rule="evenodd" d="M3.66732 14.6654V16.4987C3.66732 17.4712 4.05363 18.4038 4.74126 19.0914C5.42889 19.7791 6.36152 20.1654 7.33398 20.1654H16.5007C18.5265 20.1654 20.1673 18.5245 20.1673 16.4987V5.4987C20.1673 4.52624 19.781 3.59361 19.0934 2.90597C18.4057 2.21834 17.4731 1.83203 16.5007 1.83203H7.33398C6.36152 1.83203 5.42889 2.21834 4.74126 2.90597C4.05363 3.59361 3.66732 4.52624 3.66732 5.4987V7.33203C3.66732 7.57515 3.7639 7.8083 3.9358 7.98021C4.10771 8.15212 4.34087 8.2487 4.58398 8.2487C4.8271 8.2487 5.06026 8.15212 5.23217 7.98021C5.40407 7.8083 5.50065 7.57515 5.50065 7.33203V5.4987C5.50065 5.01247 5.69381 4.54615 6.03762 4.20234C6.38144 3.85852 6.84775 3.66536 7.33398 3.66536H16.5007C16.9869 3.66536 17.4532 3.85852 17.797 4.20234C18.1408 4.54615 18.334 5.01247 18.334 5.4987V16.4987C18.334 16.9849 18.1408 17.4512 17.797 17.7951C17.4532 18.1389 16.9869 18.332 16.5007 18.332H7.33398C6.84775 18.332 6.38144 18.1389 6.03762 17.7951C5.69381 17.4512 5.50065 16.9849 5.50065 16.4987V14.6654C5.49009 14.4293 5.3889 14.2065 5.21815 14.0432C5.0474 13.8799 4.82024 13.7888 4.58398 13.7888C4.34773 13.7888 4.12057 13.8799 3.94982 14.0432C3.77907 14.2065 3.67788 14.4293 3.66732 14.6654ZM10.6212 10.082L9.4359 8.8977C9.2639 8.72582 9.16722 8.49264 9.16713 8.24948C9.16705 8.00632 9.26356 7.77308 9.43544 7.60107C9.60733 7.42907 9.8405 7.33239 10.0837 7.3323C10.3268 7.33222 10.5601 7.42873 10.7321 7.60062L13.4821 10.3506C13.5673 10.4357 13.6349 10.5368 13.681 10.6481C13.7272 10.7594 13.7509 10.8787 13.7509 10.9992C13.7509 11.1196 13.7272 11.2389 13.681 11.3502C13.6349 11.4615 13.5673 11.5626 13.4821 11.6477L10.7321 14.3977C10.5601 14.5696 10.3268 14.6661 10.0837 14.666C9.8405 14.6659 9.60733 14.5692 9.43544 14.3972C9.26356 14.2252 9.16705 13.992 9.16713 13.7488C9.16722 13.5057 9.2639 13.2725 9.4359 13.1006L10.6212 11.9154H2.75065C2.50754 11.9154 2.27438 11.8188 2.10247 11.6469C1.93056 11.475 1.83398 11.2418 1.83398 10.9987C1.83398 10.7556 1.93056 10.5224 2.10247 10.3505C2.27438 10.1786 2.50754 10.082 2.75065 10.082H10.6212Z" fill="white"/>
</svg>
