<svg width="22" height="22" viewBox="0 0 22 22" fill="none" xmlns="http://www.w3.org/2000/svg">
<g opacity="0.5">
<path fill-rule="evenodd" clip-rule="evenodd" d="M3.66634 14.6654V16.4987C3.66634 17.4712 4.05265 18.4038 4.74028 19.0914C5.42792 19.7791 6.36055 20.1654 7.33301 20.1654H16.4997C18.5255 20.1654 20.1663 18.5245 20.1663 16.4987V5.4987C20.1663 4.52624 19.78 3.59361 19.0924 2.90597C18.4048 2.21834 17.4721 1.83203 16.4997 1.83203H7.33301C6.36055 1.83203 5.42792 2.21834 4.74028 2.90597C4.05265 3.59361 3.66634 4.52624 3.66634 5.4987V7.33203C3.66634 7.57515 3.76292 7.8083 3.93483 7.98021C4.10674 8.15212 4.33989 8.2487 4.58301 8.2487C4.82612 8.2487 5.05928 8.15212 5.23119 7.98021C5.4031 7.8083 5.49967 7.57515 5.49967 7.33203V5.4987C5.49967 5.01247 5.69283 4.54615 6.03665 4.20234C6.38046 3.85852 6.84678 3.66536 7.33301 3.66536H16.4997C16.9859 3.66536 17.4522 3.85852 17.796 4.20234C18.1399 4.54615 18.333 5.01247 18.333 5.4987V16.4987C18.333 16.9849 18.1399 17.4512 17.796 17.7951C17.4522 18.1389 16.9859 18.332 16.4997 18.332H7.33301C6.84678 18.332 6.38046 18.1389 6.03665 17.7951C5.69283 17.4512 5.49967 16.9849 5.49967 16.4987V14.6654C5.48912 14.4293 5.38793 14.2065 5.21717 14.0432C5.04642 13.8799 4.81927 13.7888 4.58301 13.7888C4.34675 13.7888 4.11959 13.8799 3.94884 14.0432C3.77809 14.2065 3.6769 14.4293 3.66634 14.6654ZM10.6202 10.082L9.43493 8.8977C9.26292 8.72582 9.16624 8.49264 9.16616 8.24948C9.16607 8.00632 9.26258 7.77308 9.43447 7.60107C9.60635 7.42907 9.83952 7.33239 10.0827 7.3323C10.3258 7.33222 10.5591 7.42873 10.7311 7.60062L13.4811 10.3506C13.5663 10.4357 13.6339 10.5368 13.6801 10.6481C13.7262 10.7594 13.7499 10.8787 13.7499 10.9992C13.7499 11.1196 13.7262 11.2389 13.6801 11.3502C13.6339 11.4615 13.5663 11.5626 13.4811 11.6477L10.7311 14.3977C10.5591 14.5696 10.3258 14.6661 10.0827 14.666C9.83952 14.6659 9.60635 14.5692 9.43447 14.3972C9.26258 14.2252 9.16607 13.992 9.16616 13.7488C9.16624 13.5057 9.26292 13.2725 9.43493 13.1006L10.6202 11.9154H2.74967C2.50656 11.9154 2.2734 11.8188 2.10149 11.6469C1.92958 11.475 1.83301 11.2418 1.83301 10.9987C1.83301 10.7556 1.92958 10.5224 2.10149 10.3505C2.2734 10.1786 2.50656 10.082 2.74967 10.082H10.6202Z" fill="#222222"/>
</g>
</svg>
