<svg width="18" height="18" viewBox="0 0 18 18" fill="none" xmlns="http://www.w3.org/2000/svg">
<path fill-rule="evenodd" clip-rule="evenodd" d="M13.4451 0.899902C14.652 0.899902 15.813 1.3769 16.6671 2.2328C17.5221 3.0869 18 4.2389 18 5.4449V12.5549C18 15.0659 15.957 17.0999 13.4451 17.0999H4.554C2.0421 17.0999 0 15.0659 0 12.5549V5.4449C0 2.9339 2.0331 0.899902 4.554 0.899902H13.4451ZM14.8769 6.7859L14.9489 6.7139C15.164 6.4529 15.164 6.0749 14.939 5.8139C14.8139 5.6798 14.642 5.5979 14.4629 5.5799C14.2739 5.57 14.0939 5.6339 13.958 5.7599L9.89994 8.9999C9.37794 9.4328 8.63004 9.4328 8.09994 8.9999L4.04994 5.7599C3.77004 5.5529 3.38304 5.5799 3.14994 5.8229C2.90694 6.0659 2.87994 6.4529 3.08604 6.7229L3.20394 6.8399L7.29894 10.0349C7.80294 10.4309 8.41404 10.6469 9.05394 10.6469C9.69204 10.6469 10.3139 10.4309 10.817 10.0349L14.8769 6.7859Z" fill="#5882A2"/>
</svg>
