<svg width="18" height="18" viewBox="0 0 18 18" fill="none" xmlns="http://www.w3.org/2000/svg">
<path fill-rule="evenodd" clip-rule="evenodd" d="M1.6235 0.0112786C0.941101 0.127447 0.36749 0.617626 0.104465 1.30936L0.0252557 1.51763L0.0157014 6.02961L0.00614709 10.5416H2.13206H4.25796V9.69584C4.25796 8.72882 4.27525 8.65378 4.53135 8.5096C4.65345 8.44089 4.72286 8.43066 5.07064 8.43013L5.46982 8.42953L5.60006 8.19266C5.67172 8.06238 5.7607 7.90829 5.79779 7.85024L5.86527 7.74469L5.65876 7.37596C5.42925 6.96614 5.40785 6.84831 5.52514 6.6393C5.61152 6.48538 5.52289 6.5441 6.68076 5.87355C7.19223 5.57736 7.66145 5.3255 7.72348 5.31382C7.87192 5.28592 8.06399 5.35216 8.17443 5.46935C8.22329 5.52121 8.3385 5.69539 8.43043 5.85642L8.59752 6.14916H9H9.40248L9.56631 5.86215C9.6564 5.70433 9.77394 5.52937 9.8275 5.47336C9.94669 5.34879 10.1257 5.2855 10.2779 5.3141C10.3668 5.33077 11.943 6.21291 12.3256 6.46002C12.4344 6.53035 12.5477 6.74875 12.5477 6.88821C12.5477 6.96814 12.4799 7.12836 12.3412 7.37596L12.1347 7.74469L12.2022 7.85024C12.2393 7.90829 12.3283 8.06238 12.3999 8.19266L12.5302 8.42953L12.9268 8.43013C13.4038 8.43083 13.5582 8.48916 13.6713 8.71126C13.7364 8.839 13.742 8.91763 13.742 9.69584V10.5416H15.8679H17.9939L17.9843 6.02961L17.9747 1.51763L17.8955 1.30936C17.6718 0.720882 17.2786 0.32235 16.6989 0.0963114L16.4643 0.00484042L9.08782 0.000583501C5.03074 -0.00173846 1.6718 0.00308136 1.6235 0.0112786ZM15.6046 2.16894C15.7605 2.24859 15.8847 2.45127 15.8847 2.62584C15.8847 2.80041 15.7605 3.00308 15.6046 3.08273C15.47 3.15151 15.4017 3.15355 13.2301 3.15355H10.9942L10.8541 3.07468C10.5006 2.87569 10.497 2.39413 10.8474 2.18167L10.9846 2.09847L13.2253 2.09829C15.4019 2.09812 15.47 2.10016 15.6046 2.16894ZM15.6046 4.27981C15.7605 4.35946 15.8847 4.56214 15.8847 4.73671C15.8847 4.91127 15.7605 5.11395 15.6046 5.1936C15.472 5.26136 15.4001 5.26442 13.9326 5.26442C12.4091 5.26442 12.3984 5.26393 12.2591 5.18555C11.9056 4.98656 11.902 4.505 12.2524 4.29254L12.3897 4.20934L13.9279 4.20916C15.4003 4.20899 15.4719 4.21201 15.6046 4.27981ZM7.16318 6.8087C6.93535 6.94137 6.74075 7.05813 6.73071 7.0682C6.72066 7.07826 6.78456 7.22004 6.87269 7.38328C7.10259 7.80918 7.09251 7.89207 6.75684 8.33627C6.66274 8.46077 6.54412 8.6517 6.49322 8.76055C6.44232 8.8694 6.3615 9.04239 6.31365 9.14501C6.18709 9.41633 6.04754 9.48616 5.63189 9.48616H5.31175V10.0139V10.5416H6.22661H7.14151L7.11355 10.4097C7.05784 10.1465 7.08474 9.65897 7.16884 9.40911C7.36157 8.83622 7.79907 8.39481 8.3881 8.17894C8.68636 8.06963 9.31364 8.06963 9.6119 8.17894C10.2009 8.39481 10.6384 8.83622 10.8312 9.40911C10.9153 9.65897 10.9422 10.1465 10.8865 10.4097L10.8585 10.5416H11.7734H12.6883V10.0139V9.48616H12.3681C11.9525 9.48616 11.8129 9.41633 11.6863 9.14501C11.6385 9.04239 11.5579 8.86975 11.5072 8.76132C11.4565 8.65293 11.3201 8.43801 11.204 8.28374C10.912 7.89559 10.9029 7.79894 11.1208 7.39535C11.2101 7.22989 11.2832 7.08762 11.2832 7.07921C11.2832 7.06204 10.4249 6.56613 10.3952 6.56613C10.3847 6.56613 10.3023 6.69422 10.2121 6.85078C10.0697 7.09821 10.0269 7.14489 9.88546 7.20755C9.73681 7.27341 9.69985 7.27615 9.45798 7.23928C9.12315 7.18823 8.87685 7.18823 8.54202 7.23928C8.29994 7.27619 8.26326 7.27344 8.11391 7.20727C7.9721 7.14443 7.92883 7.0974 7.78558 6.85053C7.69485 6.69411 7.61086 6.56644 7.59899 6.56683C7.58712 6.56718 7.39097 6.67603 7.16318 6.8087ZM8.68688 9.19476C8.22912 9.35669 7.9962 9.9419 8.21272 10.3861L8.27991 10.524H9H9.72009L9.78728 10.3861C10.128 9.68697 9.43047 8.93171 8.68688 9.19476ZM0.0162634 12.2391C0.0299978 12.7812 0.0442941 12.9136 0.108083 13.0894C0.321089 13.6766 0.759148 14.113 1.33581 14.3126L1.57081 14.3939H9H16.4292L16.6642 14.3126C17.2409 14.113 17.6789 13.6766 17.8919 13.0894C17.9557 12.9136 17.97 12.7812 17.9837 12.2391L18 11.597H13.7635H9.52689V11.9151C9.52689 12.307 9.4565 12.4745 9.2468 12.5816C9.06684 12.6736 8.91995 12.6712 8.74649 12.5736C8.53742 12.4559 8.47311 12.301 8.47311 11.9151V11.597H4.23654H0L0.0162634 12.2391ZM5.94237 15.6692C5.69691 16.1058 5.31863 16.5117 4.8903 16.7982L4.67147 16.9446H4.14718C3.69106 16.9446 3.60486 16.9538 3.48427 17.0154C3.32842 17.095 3.20418 17.2977 3.20418 17.4723C3.20418 17.6469 3.32842 17.8495 3.48427 17.9292C3.62141 17.9993 3.68024 18 9 18C14.3198 18 14.3786 17.9993 14.5157 17.9292C14.6716 17.8495 14.7958 17.6469 14.7958 17.4723C14.7958 17.2977 14.6716 17.095 14.5157 17.0154C14.3953 16.9539 14.3089 16.9446 13.8573 16.9446H13.3375L13.115 16.7989C12.6896 16.5206 12.3056 16.1103 12.0576 15.6692L11.9439 15.467H9H6.05611L5.94237 15.6692Z" fill="#ffffff"/>
</svg>
