<svg width="15" height="23" viewBox="0 0 15 23" fill="none" xmlns="http://www.w3.org/2000/svg">
<path d="M12.3862 7.35156C12.3862 7.22953 12.3819 7.10664 12.3737 6.98375L14.0473 5.68051L11.9823 2.10465L10.0173 2.90215C9.81363 2.76465 9.60051 2.64176 9.38008 2.53348L9.08832 0.433594H4.95902L4.66727 2.53348C4.44667 2.64164 4.23376 2.76482 4.03004 2.90215L2.06508 2.10465L0 5.68051L1.67363 6.98375C1.65709 7.22996 1.65709 7.47316 1.67363 7.71937L0 9.02262L2.06508 12.5985L4.03004 11.801C4.23371 11.9385 4.44684 12.0614 4.66727 12.1696L4.95902 14.2695H9.08832L9.38008 12.1696C9.60067 12.0615 9.81358 11.9383 10.0173 11.801L11.9823 12.5985L14.0473 9.02262L12.3737 7.71937C12.3819 7.59648 12.3862 7.47359 12.3862 7.35156ZM7.02367 8.90703C6.16473 8.90703 5.4682 8.21051 5.4682 7.35156C5.55032 5.28829 8.49737 5.28889 8.57914 7.35156C8.57914 8.21051 7.88262 8.90703 7.02367 8.90703ZM1.20141 20.0819V22.4336H4.65223L5.39301 17.5712L4.62516 15.6939C2.66062 16.1864 1.20141 17.967 1.20141 20.0819ZM8.085 15.5586H5.96234L6.48957 16.8477H7.55777L8.085 15.5586ZM6.61074 18.1367L5.9559 22.4336H8.09144L7.4366 18.1367H6.61074ZM9.42219 15.6939L8.65434 17.5712L9.39512 22.4336H12.8459V20.0819C12.8459 17.967 11.3867 16.1864 9.42219 15.6939ZM11.5354 20.439H10.2463V19.1499H11.5354V20.439Z" fill="white"/>
</svg>
