<svg width="22" height="22" viewBox="0 0 22 22" fill="none" xmlns="http://www.w3.org/2000/svg">
<g opacity="0.5">
<path d="M16.3627 6.91797C16.3627 6.79594 16.3584 6.67305 16.3503 6.55016L18.0239 5.24691L15.9588 1.67105L13.9939 2.46855C13.7902 2.33105 13.5771 2.20816 13.3566 2.09988L13.0649 0H8.93559L8.64383 2.09988C8.42324 2.20805 8.21033 2.33123 8.0066 2.46855L6.04164 1.67105L3.97656 5.24691L5.6502 6.55016C5.63365 6.79637 5.63365 7.03957 5.6502 7.28578L3.97656 8.58902L6.04164 12.1649L8.0066 11.3674C8.21027 11.5049 8.4234 11.6278 8.64383 11.7361L8.93559 13.8359H13.0649L13.3566 11.7361C13.5772 11.6279 13.7901 11.5047 13.9939 11.3674L15.9588 12.1649L18.0239 8.58902L16.3503 7.28578C16.3584 7.16289 16.3627 7.04 16.3627 6.91797ZM11.0002 8.47344C10.1413 8.47344 9.44477 7.77691 9.44477 6.91797C9.52688 4.8547 12.4739 4.8553 12.5557 6.91797C12.5557 7.77691 11.8592 8.47344 11.0002 8.47344ZM5.17797 19.6483V22H8.62879L9.36957 17.1377L8.60172 15.2604C6.63719 15.7528 5.17797 17.5334 5.17797 19.6483ZM12.0616 15.125H9.93891L10.4661 16.4141H11.5343L12.0616 15.125ZM10.5873 17.7031L9.93246 22H12.068L11.4132 17.7031H10.5873ZM13.3988 15.2604L12.6309 17.1377L13.3717 22H16.8225V19.6483C16.8225 17.5334 15.3633 15.7528 13.3988 15.2604ZM15.512 20.0054H14.2229V18.7163H15.512V20.0054Z" fill="#222222"/>
</g>
</svg>
