<svg width="18" height="18" viewBox="0 0 18 18" fill="none" xmlns="http://www.w3.org/2000/svg">
<path fill-rule="evenodd" clip-rule="evenodd" d="M12.0548 0.0352562C11.1613 0.137603 10.2543 0.504171 9.49265 1.07072C9.10247 1.36097 1.27959 9.18937 1.02218 9.54714C0.603497 10.1291 0.336973 10.7002 0.16268 11.389C-0.135761 12.5684 -0.0211144 13.8141 0.486316 14.9056C1.57124 17.2393 4.13074 18.4639 6.61325 17.837C7.30067 17.6634 7.87246 17.3967 8.45457 16.9781C8.81241 16.7207 16.6423 8.89936 16.9326 8.50925C17.3843 7.90224 17.6548 7.3358 17.8373 6.61463C18.1358 5.43523 18.0211 4.18952 17.5137 3.09801C16.538 0.999403 14.3508 -0.227769 12.0548 0.0352562ZM13.5922 1.74605C14.9368 2.11582 15.9289 3.12264 16.2699 4.46324C16.3697 4.85578 16.3628 5.84828 16.2576 6.22853C16.1428 6.6433 15.9845 6.99319 15.7485 7.35378C15.5649 7.63433 15.2676 7.94928 13.7192 9.50411L11.9052 11.3257L9.29137 8.71261L6.67757 6.09948L8.25226 4.52154C9.11834 3.65365 9.97534 2.81018 10.1567 2.64711C10.7104 2.14935 11.2557 1.86117 11.9207 1.71495C12.321 1.62692 13.2199 1.64363 13.5922 1.74605ZM5.69304 7.5951C5.8111 7.67915 5.88081 7.86428 5.84717 8.00434C5.83063 8.07313 5.38964 8.54162 4.44466 9.49437C3.35049 10.5975 3.03206 10.9394 2.90041 11.1523C2.62379 11.5997 2.51456 11.9337 2.45678 12.5089C2.41213 12.9539 2.31155 13.083 2.00974 13.083C1.91353 13.083 1.85603 13.0543 1.76021 12.9585L1.63571 12.834L1.65517 12.4396C1.68761 11.7823 1.87236 11.2284 2.25212 10.6498C2.42902 10.3804 2.69973 10.0874 3.75453 9.02355C4.46219 8.30987 5.10295 7.68052 5.17843 7.62504C5.34618 7.50172 5.54556 7.49011 5.69304 7.5951Z" fill="#ffffff" fill-opacity="1"/>
</svg>
