<svg width="16" height="16" viewBox="0 0 16 16" fill="none" xmlns="http://www.w3.org/2000/svg">
<path fill-rule="evenodd" clip-rule="evenodd" d="M7.33295 0.0728814C7.10457 0.134436 4.99766 1.04636 4.90532 1.12362C4.88856 1.13765 6.50715 1.91922 8.50216 2.86042L12.1295 4.57176L13.6605 3.88997C14.5026 3.51499 15.1995 3.20123 15.2092 3.19265C15.2411 3.1643 15.0304 2.96603 14.8176 2.82424C14.5192 2.62538 8.92995 0.132594 8.61556 0.0581419C8.26486 -0.0249357 7.67052 -0.0180685 7.33295 0.0728814ZM2.33205 2.2643C1.81718 2.49394 1.30072 2.74527 1.18432 2.82286C0.970485 2.96544 0.758573 3.16438 0.790841 3.19227C0.833115 3.22878 7.16765 6.04559 7.36535 6.11577C7.67369 6.22527 8.03373 6.25467 8.34224 6.19554C8.63841 6.1388 10.5231 5.31728 10.4714 5.26749C10.4535 5.25028 8.87237 4.49764 6.95774 3.59497C5.0431 2.69225 3.42968 1.92965 3.37236 1.90025C3.27705 1.85143 3.18808 1.88254 2.33205 2.2643ZM0.0529194 4.42081C0.0327829 4.46243 0.0110623 6.03642 0.00468363 7.91852C-0.00824041 11.7286 -0.0146191 11.6263 0.273379 12.2123C0.445811 12.5632 0.848916 13.0232 1.17356 13.2395C1.37693 13.375 7.01465 15.9196 7.23398 15.975L7.33337 16L7.32274 11.7403L7.31211 7.48061L7.04112 7.39778C6.89208 7.35226 5.28803 6.65507 3.47658 5.84845C1.66513 5.04184 0.162023 4.37361 0.1363 4.36348C0.110619 4.35339 0.0730976 4.37914 0.0529194 4.42081ZM14.3786 5.02019C13.5646 5.38533 12.8658 5.7044 12.8257 5.72919C12.759 5.77044 12.7527 5.87584 12.7525 6.95689C12.7524 8.06307 12.747 8.14833 12.6695 8.27596C12.4279 8.67414 11.8177 8.6831 11.5756 8.29208C11.4871 8.14912 11.4798 8.0825 11.4603 7.23569L11.4395 6.33188L10.418 6.79074C9.85627 7.04307 9.23717 7.30227 9.04226 7.36663L8.68789 7.48371L8.67726 11.7419L8.66663 16L8.77832 15.9719C9.00499 15.9147 14.6155 13.38 14.8264 13.2395C15.1511 13.0232 15.5542 12.5632 15.7266 12.2123C16.0146 11.6263 16.0082 11.7286 15.9953 7.91852C15.9889 6.03642 15.9676 4.46352 15.948 4.42319C15.9284 4.38287 15.9002 4.35134 15.8855 4.3531C15.8707 4.35485 15.1926 4.65505 14.3786 5.02019Z" fill="#5882A2"/>
</svg>
