<svg width="34" height="34" viewBox="0 0 34 34" fill="none" xmlns="http://www.w3.org/2000/svg">
<rect width="34" height="34" rx="9" fill="#0B4977" fill-opacity="0.14"/>
<path fill-rule="evenodd" clip-rule="evenodd" d="M19.7082 9.02161C17.6332 9.30112 15.9997 10.9065 15.6652 12.9951C15.6098 13.3412 15.6185 14.0768 15.6825 14.4605C15.7885 15.0961 16.0855 15.8327 16.4329 16.3218C16.7136 16.7171 16.7118 16.684 16.4649 16.9112C16.2318 17.1255 15.9326 17.3078 15.6781 17.3905C15.4709 17.4578 15.3664 17.5696 15.3664 17.7242C15.3664 17.876 15.4806 17.9852 15.8057 18.1446C16.1776 18.3268 16.4122 18.3748 16.9301 18.3746C17.4477 18.3744 17.7442 18.3117 18.1678 18.1131L18.4239 17.9929L18.6668 18.0829C19.1835 18.2746 19.5342 18.3399 20.1463 18.3586C21.0199 18.3852 21.6355 18.2578 22.3773 17.8969C24.469 16.8791 25.499 14.428 24.7633 12.2191C24.2245 10.6012 22.8542 9.39564 21.1826 9.06875C20.8515 9.00401 20.033 8.97787 19.7082 9.02161ZM21.1137 10.5013C21.2717 10.5673 21.3473 10.6373 21.4251 10.7898C21.4817 10.9008 21.4881 10.9939 21.4881 11.713V12.5127H22.2879C23.0183 12.5127 23.0989 12.5184 23.2163 12.5783C23.5206 12.7335 23.559 12.8721 23.5451 13.7628C23.5345 14.4462 23.5321 14.467 23.4516 14.5844C23.4062 14.6506 23.3089 14.7393 23.2353 14.7814C23.1076 14.8547 23.0659 14.8586 22.2949 14.869L21.4881 14.8799V15.6652C21.4881 16.3945 21.4831 16.4608 21.4184 16.5945C21.3714 16.6915 21.3016 16.7662 21.2046 16.823L21.0605 16.9075L20.2818 16.8974L19.5032 16.8874L19.3811 16.7941C19.1522 16.6195 19.1438 16.5823 19.1317 15.684L19.1208 14.8798L18.3166 14.8689C17.4182 14.8568 17.381 14.8484 17.2063 14.6196L17.1131 14.4975L17.1031 13.7206C17.0936 12.9824 17.0965 12.9375 17.1631 12.8191C17.2016 12.7506 17.2873 12.6574 17.3536 12.6119C17.4727 12.5302 17.4828 12.5292 18.2974 12.5194L19.1208 12.5095L19.1317 11.7044C19.141 11.0123 19.1508 10.8842 19.2011 10.7922C19.2801 10.6477 19.4207 10.5212 19.5418 10.4855C19.5967 10.4694 19.9453 10.4548 20.3164 10.4531C20.8535 10.4507 21.0162 10.4606 21.1137 10.5013ZM19.7241 11.8391C19.7234 12.5376 19.7161 12.6449 19.6614 12.7655C19.5254 13.065 19.3575 13.1111 18.4023 13.1113L17.6621 13.1115V13.6937V14.2759H18.4616C19.3317 14.2759 19.4005 14.2876 19.5646 14.4631C19.7136 14.6224 19.7248 14.6979 19.7248 15.5422V16.3384H20.3045H20.8841L20.895 15.5126L20.9059 14.6867L20.9996 14.5452C21.1642 14.2966 21.2469 14.2774 22.1618 14.2766L22.952 14.2759V13.6937V13.1115L22.2117 13.1113C21.7743 13.1112 21.4173 13.0961 21.3392 13.0744C21.1695 13.0273 20.9734 12.8312 20.9263 12.6616C20.9046 12.5835 20.8895 12.2265 20.8894 11.7891L20.8892 11.049H20.307H19.7248L19.7241 11.8391ZM9.6782 12.0639C8.27189 12.7671 8.17514 12.8212 8.08894 12.9516C8.00803 13.0742 7.99755 13.1203 8.00041 13.3423C8.00716 13.8714 8.27505 15.0926 8.58233 15.9951C9.16502 17.7063 10.0943 19.3167 11.351 20.7926C11.7284 21.2358 12.7481 22.2569 13.1873 22.6312C14.68 23.9036 16.2853 24.8318 18.0055 25.4175C18.9085 25.7249 20.133 25.9936 20.6587 25.9997C20.8807 26.0023 20.9271 25.9917 21.0494 25.9108C21.1796 25.8247 21.2345 25.7263 21.9404 24.3148L22.6927 22.8105L22.6789 22.6189C22.668 22.4686 22.6435 22.4004 22.565 22.3021C22.4321 22.1356 19.7089 20.4195 19.4919 20.3655C19.3724 20.3358 19.3092 20.3382 19.1786 20.3777C19.0356 20.4209 18.9388 20.5029 18.4129 21.026C17.7984 21.6372 17.6739 21.7277 17.4482 21.7277C17.1297 21.7277 16.2805 21.4554 15.718 21.1728C15.0537 20.8391 14.6012 20.4941 13.9525 19.8271C13.3271 19.1839 12.98 18.6728 12.6561 17.9179C12.4888 17.5282 12.3116 16.9333 12.2836 16.6678C12.2494 16.3434 12.2851 16.2873 12.9706 15.5899C13.5131 15.038 13.5966 14.9389 13.6291 14.8082C13.6544 14.7064 13.6562 14.6129 13.6344 14.5163C13.6012 14.3683 11.9504 11.6868 11.779 11.5023C11.6631 11.3776 11.5118 11.3151 11.3258 11.3151C11.1966 11.3151 10.967 11.4194 9.6782 12.0639Z" fill="#0B4977" fill-opacity="0.62"/>
</svg>
