<svg width="16" height="17" viewBox="0 0 16 17" fill="none" xmlns="http://www.w3.org/2000/svg">
<path fill-rule="evenodd" clip-rule="evenodd" d="M7.33295 0.7096C7.10457 0.771155 4.99766 1.68308 4.90532 1.76034C4.88856 1.77437 6.50715 2.55594 8.50216 3.49714L12.1295 5.20848L13.6605 4.52669C14.5026 4.15171 15.1995 3.83795 15.2092 3.82937C15.2411 3.80102 15.0304 3.60274 14.8176 3.46096C14.5192 3.2621 8.92995 0.769312 8.61556 0.694861C8.26486 0.611783 7.67052 0.61865 7.33295 0.7096ZM2.33205 2.90102C1.81718 3.13066 1.30072 3.38199 1.18432 3.45958C0.970485 3.60216 0.758573 3.8011 0.790841 3.82899C0.833115 3.8655 7.16765 6.68231 7.36535 6.75249C7.67369 6.86199 8.03373 6.89139 8.34224 6.83226C8.63841 6.77552 10.5231 5.954 10.4714 5.90421C10.4535 5.887 8.87237 5.13436 6.95774 4.23169C5.0431 3.32897 3.42968 2.56637 3.37236 2.53697C3.27705 2.48815 3.18808 2.51926 2.33205 2.90102ZM0.0529194 5.05752C0.0327829 5.09915 0.0110623 6.67314 0.00468363 8.55524C-0.00824041 12.3653 -0.0146191 12.263 0.273379 12.8491C0.445811 13.1999 0.848916 13.6599 1.17356 13.8762C1.37693 14.0117 7.01465 16.5564 7.23398 16.6117L7.33337 16.6367L7.32274 12.377L7.31211 8.11733L7.04112 8.0345C6.89208 7.98898 5.28803 7.29178 3.47658 6.48517C1.66513 5.67856 0.162023 5.01033 0.1363 5.0002C0.110619 4.99011 0.0730976 5.01586 0.0529194 5.05752ZM14.3786 5.65691C13.5646 6.02205 12.8658 6.34112 12.8257 6.36591C12.759 6.40716 12.7527 6.51256 12.7525 7.59361C12.7524 8.69979 12.747 8.78505 12.6695 8.91268C12.4279 9.31086 11.8177 9.31982 11.5756 8.9288C11.4871 8.78584 11.4798 8.71922 11.4603 7.87241L11.4395 6.9686L10.418 7.42746C9.85627 7.67979 9.23717 7.93899 9.04226 8.00335L8.68789 8.12043L8.67726 12.3786L8.66663 16.6367L8.77832 16.6086C9.00499 16.5514 14.6155 14.0168 14.8264 13.8762C15.1511 13.6599 15.5542 13.1999 15.7266 12.8491C16.0146 12.263 16.0082 12.3653 15.9953 8.55524C15.9889 6.67314 15.9676 5.10024 15.948 5.05991C15.9284 5.01959 15.9002 4.98806 15.8855 4.98981C15.8707 4.99157 15.1926 5.29177 14.3786 5.65691Z" fill="white"/>
</svg>
