<svg width="20" height="20" viewBox="0 0 20 20" fill="none" xmlns="http://www.w3.org/2000/svg">
<path fill-rule="evenodd" clip-rule="evenodd" d="M1.72716 0.0773571C1.31239 0.186068 0.996511 0.369169 0.683604 0.682207C0.365891 1.00001 0.186775 1.31297 0.0771716 1.7416C0.00179742 2.03654 0 2.19931 0 8.75462C0 15.3099 0.00179742 15.4727 0.0771716 15.7676C0.186775 16.1963 0.365891 16.5092 0.683604 16.827C1.00128 17.1449 1.31411 17.3241 1.74256 17.4337C2.03213 17.5078 2.18679 17.5109 5.5548 17.5109C7.48553 17.5109 9.06523 17.5024 9.06523 17.492C9.06523 17.4815 9.0131 17.3883 8.94941 17.2847C8.76752 16.989 8.41804 16.2321 8.30551 15.8902C7.98689 14.9224 7.93367 14.4903 7.93278 12.8647C7.93211 11.6382 7.92801 11.5625 7.86369 11.5893C7.65496 11.6763 7.29856 11.6886 5.29229 11.6782L3.1064 11.6669L2.92185 11.5583C2.59305 11.365 2.43808 10.975 2.54217 10.6031C2.60699 10.3714 2.84922 10.1201 3.07186 10.0536C3.3099 9.98242 7.58099 9.98821 7.78179 10.06L7.92453 10.111L7.95106 9.89865C8.00815 9.4416 8.25018 8.93053 8.58469 8.56073L8.79827 8.32463H5.98039C2.90161 8.32463 3.0095 8.33221 2.75958 8.09778C2.34156 7.70562 2.45191 7.02807 2.97785 6.7574C3.1177 6.68548 3.26278 6.68282 7.07807 6.68282C11.0029 6.68282 11.0346 6.68344 11.2011 6.76405C11.355 6.83859 11.4858 6.96255 11.5855 7.12822C11.6204 7.18623 11.761 7.14663 12.9063 6.75592L14.1881 6.31869L14.1748 4.10643C14.1627 2.09971 14.1549 1.87424 14.0908 1.67921C13.8195 0.853971 13.2264 0.276368 12.4447 0.0763799C12.1472 0.000270348 12.013 -0.00164509 7.07596 0.000465809C2.2193 0.00253761 2.00068 0.00566487 1.72716 0.0773571ZM7.08115 3.44912C7.40996 3.64246 7.56493 4.03239 7.46084 4.40434C7.39601 4.63599 7.15379 4.88731 6.93115 4.95384C6.70264 5.02217 3.30037 5.02217 3.07186 4.95384C2.75423 4.85889 2.50075 4.49562 2.50075 4.13528C2.50075 3.81259 2.80596 3.43884 3.13516 3.35839C3.2053 3.34123 4.08033 3.33021 5.07965 3.33388L6.8966 3.34057L7.08115 3.44912ZM12.3135 8.7144C10.8125 9.2282 9.98757 9.52967 9.90036 9.5962C9.82749 9.65183 9.72843 9.77106 9.68029 9.8612C9.59386 10.0229 9.59257 10.0482 9.57999 11.8037C9.56612 13.7427 9.5973 14.3169 9.74883 14.9144C10.212 16.7412 11.6475 18.4098 13.7779 19.598C14.6801 20.1012 14.8037 20.1114 15.5326 19.7434C16.5059 19.2521 17.4171 18.5795 18.1709 17.796C19.0902 16.8404 19.6339 15.8654 19.8952 14.7042C19.9757 14.346 19.9813 14.2102 19.9957 12.247C20.0063 10.8075 19.9977 10.1196 19.9678 10.0085C19.9194 9.82903 19.7367 9.59992 19.5752 9.51638C19.5166 9.48605 18.4774 9.12309 17.2659 8.70986C15.5632 8.12909 15.0099 7.95569 14.8287 7.94611C14.611 7.93462 14.431 7.98962 12.3135 8.7144ZM17.4611 11.359C17.6938 11.475 17.8435 11.6678 17.9016 11.9266C17.981 12.2802 17.9605 12.3145 16.5031 14.2606C15.242 15.9446 15.1424 16.0668 14.955 16.1602C14.738 16.2684 14.5649 16.2838 14.3207 16.2166C14.1923 16.1813 13.995 16.0054 13.2136 15.2298C12.6907 14.7107 12.2257 14.2156 12.1803 14.1296C12.0196 13.8253 12.0975 13.3837 12.3539 13.1444C12.5691 12.9437 13.0058 12.8738 13.2579 12.9999C13.3267 13.0342 13.6329 13.3104 13.9384 13.6137C14.2439 13.9169 14.5006 14.1569 14.5089 14.1473C14.5172 14.1375 14.9746 13.5279 15.5253 12.7926C16.0759 12.0573 16.5664 11.4328 16.6153 11.4049C16.9233 11.2291 17.1734 11.2155 17.4611 11.359Z" fill="#5882A2"/>
</svg>
