<svg width="16" height="21" viewBox="0 0 16 21" fill="none" xmlns="http://www.w3.org/2000/svg">
<path fill-rule="evenodd" clip-rule="evenodd" d="M2.76729 0.68043C1.62646 0.908845 0.662009 1.73751 0.224865 2.86502C-0.00975476 3.47012 5.84772e-05 3.12903 5.84772e-05 10.6676V17.6635L0.0933067 18.0196C0.402105 19.1995 1.20727 20.0758 2.37429 20.5021L2.74265 20.6367H7.97072H13.1988L13.5202 20.5349C14.6754 20.1689 15.5574 19.2406 15.89 18.0408C15.9818 17.7096 15.9826 17.6717 15.9965 12.8538C16.0042 10.1845 15.9988 7.91823 15.9845 7.81775L15.9585 7.63511L14.043 7.61832C12.3422 7.60346 12.1011 7.59274 11.8918 7.52279C11.0609 7.24518 10.4735 6.67851 10.1875 5.8788L10.0705 5.55187L10.0581 3.11936L10.0457 0.686857L9.9135 0.65988C9.70909 0.618167 2.98168 0.637536 2.76729 0.68043ZM11.4295 3.32928C11.4416 5.33395 11.4437 5.38065 11.5346 5.55187C11.6558 5.78038 11.9128 6.03061 12.1275 6.12908C12.2809 6.19947 12.4689 6.20914 13.9166 6.22107C14.8063 6.22842 15.5343 6.22313 15.5343 6.20927C15.5343 6.12234 15.1283 5.60216 13.6126 3.74703C12.125 1.92639 11.7166 1.46226 11.4723 1.31487C11.4276 1.28785 11.4195 1.66847 11.4295 3.32928ZM12.0065 10.0595C12.4272 10.3776 12.4272 10.9139 12.0065 11.232C11.8858 11.3232 11.8754 11.3235 7.99214 11.3235C4.10889 11.3235 4.09848 11.3232 3.9778 11.232C3.59585 10.9432 3.55407 10.4498 3.8849 10.1346C3.94022 10.082 4.03364 10.0191 4.09256 9.99491C4.16207 9.9664 5.54785 9.95398 8.04258 9.95949C11.8682 9.96797 11.8861 9.96841 12.0065 10.0595ZM10.0037 13.7057C10.2025 13.7639 10.4269 13.9952 10.4801 14.1968C10.5587 14.4946 10.4025 14.8551 10.1331 14.9972C10.0284 15.0524 9.58469 15.0619 7.09013 15.0619C4.48445 15.0619 4.15397 15.0542 4.02314 14.9909C3.80759 14.8866 3.6927 14.6955 3.67307 14.4089C3.65225 14.1048 3.76744 13.9059 4.04838 13.7611L4.23925 13.6627H7.048C8.76058 13.6627 9.91414 13.6795 10.0037 13.7057Z" fill="#5882A2"/>
</svg>
