<svg width="16" height="19" viewBox="0 0 16 19" fill="none" xmlns="http://www.w3.org/2000/svg">
<path fill-rule="evenodd" clip-rule="evenodd" d="M13.6864 6.73974C13.6864 7.87008 13.9851 8.53632 14.6426 9.30408C15.1408 9.8697 15.3 10.5958 15.3 11.3835C15.3 12.1703 15.0415 12.9172 14.5236 13.5236C13.8456 14.2506 12.8894 14.7147 11.9135 14.7953C10.4994 14.9159 9.08429 15.0174 7.65045 15.0174C6.21571 15.0174 4.80154 14.9567 3.38738 14.7953C2.41061 14.7147 1.45442 14.2506 0.777299 13.5236C0.259398 12.9172 0 12.1703 0 11.3835C0 10.5958 0.160111 9.8697 0.657439 9.30408C1.33545 8.53632 1.61453 7.87008 1.61453 6.73974V6.35632C1.61453 4.84255 1.992 3.85271 2.7693 2.88372C3.92496 1.47057 5.77742 0.623047 7.6102 0.623047H7.6907C9.56284 0.623047 11.4752 1.51136 12.6112 2.98524C13.3483 3.93429 13.6864 4.88244 13.6864 6.35632V6.73974ZM5.01626 16.8779C5.01626 16.4247 5.43219 16.2171 5.81681 16.1282C6.26674 16.0331 9.0083 16.0331 9.45822 16.1282C9.84285 16.2171 10.2588 16.4247 10.2588 16.8779C10.2364 17.3093 9.98328 17.6919 9.63354 17.9348C9.18004 18.2883 8.64783 18.5122 8.09147 18.5929C7.78377 18.6328 7.48143 18.6337 7.18447 18.5929C6.62721 18.5122 6.095 18.2883 5.64239 17.9339C5.29176 17.6919 5.03862 17.3093 5.01626 16.8779Z" fill="#5882A2"/>
</svg>
