<svg width="21" height="22" viewBox="0 0 21 22" fill="none" xmlns="http://www.w3.org/2000/svg">
<path fill-rule="evenodd" clip-rule="evenodd" d="M9.53816 0.645576C5.11496 1.01976 1.4001 4.16206 0.30957 8.45171C0.0756065 9.37212 0 9.99499 0 11.0022C0 12.6725 0.331361 14.1068 1.05824 15.5824C2.55564 18.6222 5.44588 20.7384 8.82863 21.2717C9.31628 21.3486 9.64453 21.3694 10.3712 21.3694C11.4361 21.3694 12.159 21.2766 13.0965 21.0197C16.633 20.0504 19.4194 17.2641 20.3887 13.7276C20.6456 12.79 20.7384 12.0671 20.7384 11.0022C20.7384 9.93731 20.6456 9.21443 20.3887 8.27687C19.4015 4.67497 16.5347 1.85835 12.9217 0.940732C12.5962 0.858061 12.107 0.75882 11.8346 0.720142C11.2086 0.631302 10.1234 0.59609 9.53816 0.645576ZM11.6352 1.88654C15.7124 2.45519 18.8937 5.63307 19.4842 9.72712C19.5783 10.3794 19.5796 11.6015 19.4869 12.2663C18.9185 16.3415 15.7104 19.5495 11.6352 20.1179C10.9705 20.2106 9.7484 20.2093 9.09608 20.1152C5.00203 19.5247 1.82416 16.3434 1.25551 12.2663C1.1659 11.6239 1.16536 10.3679 1.25438 9.74148C1.54071 7.72654 2.4428 5.91494 3.86649 4.49589C5.28868 3.07829 7.08884 2.17656 9.0743 1.88726C9.6669 1.80094 11.0186 1.80054 11.6352 1.88654ZM9.80833 2.95C8.40996 3.02831 6.87772 3.57391 5.68831 4.41705C5.13906 4.8064 4.17536 5.77009 3.78601 6.31933C3.38959 6.87858 2.9029 7.8405 2.70212 8.46166C2.16692 10.1172 2.16497 11.9046 2.6967 13.5238C2.90063 14.1446 3.40775 15.1502 3.78674 15.6851C4.20762 16.2791 5.09934 17.1648 5.71082 17.5962C6.57778 18.2079 7.70987 18.7004 8.77271 18.9284C9.41759 19.0668 10.8242 19.1021 11.5343 18.9979C12.814 18.8099 14.1448 18.2604 15.171 17.4964C15.6847 17.114 16.4829 16.3157 16.8653 15.802C17.6293 14.7759 18.1791 13.4443 18.3666 12.1663C18.4712 11.4529 18.4381 10.0903 18.3002 9.4348C17.7238 6.69459 15.8735 4.49071 13.298 3.47692C12.1939 3.04231 11.1026 2.87751 9.80833 2.95ZM10.7419 4.82973C10.8356 4.91338 10.8896 5.03267 10.8906 5.15823L10.9115 7.70024L10.921 8.85301C10.9282 9.73482 11.6385 10.4494 12.5203 10.4619L13.93 10.4819C14.0432 10.4835 14.1513 10.5292 14.2313 10.6093C14.3402 10.7182 14.3561 10.7688 14.3561 11.0069C14.3561 11.2582 14.3445 11.2902 14.2091 11.4112C14.1144 11.4958 13.9918 11.5425 13.8648 11.5425H12.0995H10.3535C10.2149 11.5425 10.082 11.4875 9.98395 11.3895C9.88592 11.2914 9.83084 11.1585 9.83084 11.0198V8.12044V5.22104C9.83084 5.08241 9.88592 4.94946 9.98395 4.85143C10.1179 4.71747 10.1656 4.69834 10.366 4.69834C10.5553 4.69834 10.6204 4.72108 10.7419 4.82973Z" fill="white"/>
</svg>
