<svg width="19" height="20" viewBox="0 0 19 20" fill="none" xmlns="http://www.w3.org/2000/svg">
<path fill-rule="evenodd" clip-rule="evenodd" d="M6.38284 0.650016C5.47556 0.793079 4.54354 1.31339 3.99625 1.98236C3.39622 2.71573 3.10239 3.51268 3.09421 4.42872C3.08625 5.31972 3.33758 6.09125 3.86284 6.78833C4.38257 7.47807 5.10078 7.96238 5.95742 8.2008C6.27599 8.28946 6.36425 8.29821 6.94044 8.29843C7.48835 8.29861 7.61481 8.28743 7.88093 8.21541C9.00326 7.91156 9.89821 7.18417 10.393 6.17365C11.1291 4.67046 10.8327 2.90429 9.64717 1.72988C9.16238 1.24961 8.5545 0.905539 7.88838 0.734334C7.49255 0.632581 6.75521 0.591272 6.38284 0.650016ZM3.19658 9.93017C1.78932 10.1847 0.653029 11.1644 0.191611 12.5211C0.0146185 13.0415 -0.00925542 13.3492 0.00253685 14.9614C0.0130269 16.4005 0.0159207 16.4543 0.0879766 16.5507C0.128996 16.6056 0.207491 16.6841 0.262437 16.7252C0.360827 16.7986 0.40058 16.7999 2.94865 16.8095C5.40825 16.8188 5.53413 16.8161 5.51644 16.7553C5.42861 16.4529 5.40984 16.3189 5.41121 16.004C5.41505 15.1288 5.9028 14.3654 6.70532 13.9785C6.88438 13.8922 7.11715 13.804 7.22256 13.7824C7.33892 13.7586 7.91512 13.7432 8.68899 13.7432C10.0543 13.7432 10.1779 13.756 10.5787 13.939L10.7623 14.0229L11.1161 13.3133C11.3106 12.923 11.5417 12.5025 11.6297 12.3788C11.9075 11.988 12.4049 11.65 12.8878 11.5239C13.0028 11.4939 13.1032 11.4629 13.111 11.4551C13.1442 11.4219 12.6869 10.9358 12.4206 10.7211C12.0559 10.4272 11.4469 10.1198 10.9737 9.99065L10.612 9.89197L7.04896 9.88492C4.07471 9.87903 3.43814 9.88648 3.19658 9.93017ZM13.3154 12.9828C13.2504 12.9982 13.1327 13.0535 13.0539 13.1057C12.9215 13.1933 12.8405 13.3404 12.0029 15.0133L11.0954 16.826L10.6441 16.1533C10.2612 15.5825 10.167 15.4655 10.0226 15.3806L9.85234 15.2805H8.67673H7.50112L7.33028 15.381C6.89447 15.6371 6.81746 16.2268 7.17343 16.5822C7.38848 16.797 7.49841 16.8177 8.42772 16.8187L9.23741 16.8196L9.9245 17.8546C10.3024 18.4238 10.6605 18.926 10.7203 18.9705C10.9818 19.1655 11.311 19.1771 11.5992 19.0015C11.7686 18.8983 11.7739 18.8889 12.6557 17.1345C13.1431 16.1647 13.5518 15.3711 13.5639 15.3711C13.576 15.371 13.9493 15.9773 14.3935 16.7184C14.8377 17.4595 15.2488 18.1106 15.307 18.1654C15.5101 18.3566 15.6875 18.3793 16.8784 18.3666L17.955 18.3552L18.1258 18.2547C18.5617 17.9985 18.6387 17.4088 18.2827 17.0534C18.068 16.8391 17.9565 16.8178 17.0463 16.8178H16.2545L15.1945 15.0504C14.6115 14.0783 14.0809 13.231 14.0154 13.1675C13.9499 13.104 13.818 13.0285 13.7224 12.9997C13.5327 12.9426 13.4918 12.9409 13.3154 12.9828Z" fill="#5882A2"/>
</svg>
