<svg width="20" height="20" viewBox="0 0 20 20" fill="none" xmlns="http://www.w3.org/2000/svg">
<path fill-rule="evenodd" clip-rule="evenodd" d="M3.04951 0.685709C3.37227 0.444484 3.4578 0.396327 3.66704 0.338084C3.82226 0.294916 4.27137 0.324551 4.42126 0.387855C4.49058 0.417123 4.69414 0.550921 4.87368 0.685159C5.26762 0.979822 5.49003 1.05739 5.85332 1.02695C6.14277 1.00267 6.29594 0.931262 6.69839 0.632857C7.0498 0.372304 7.29762 0.287213 7.62775 0.313694C7.91086 0.336434 8.14083 0.437479 8.429 0.665867C8.74779 0.918498 8.93254 1.00289 9.21961 1.02695C9.58256 1.05739 9.8093 0.978722 10.2015 0.686296C10.6411 0.358587 10.7164 0.328915 11.1125 0.327631C11.5102 0.326311 11.5849 0.355579 12.0257 0.685159C12.4194 0.979639 12.6421 1.05739 13.0046 1.02703C13.1847 1.01191 13.3193 0.97157 13.5099 0.875586C13.7057 0.777035 13.8155 0.744759 13.9555 0.744759C14.2782 0.744759 14.5667 0.954185 14.6525 1.25072C14.68 1.3459 14.6886 3.52466 14.681 8.52028L14.6787 10.0247C11.6581 10.0689 9.22312 12.5313 9.22312 15.5623C9.22312 15.7598 9.23345 15.9548 9.2536 16.1469L8.5661 16.1491L2.9335 16.1674L2.71901 16.2485C2.14113 16.4667 1.65292 17.0004 1.53985 17.5374C1.50489 17.7034 1.26803 17.9355 1.1017 17.9667C0.818923 18.0197 0.538637 17.8775 0.434474 17.6283C0.392736 17.5283 0.384447 16.1683 0.384447 9.41887C0.384447 1.48188 0.37368 1.17073 0.523767 1.02301C0.540116 1.00692 0.558374 0.992768 0.578762 0.970909C0.823177 0.708889 1.16607 0.675696 1.56303 0.875586C1.7536 0.97157 1.88824 1.01191 2.06833 1.02703C2.43102 1.05743 2.65765 0.978575 3.04951 0.685709ZM9.48879 17.2619L9.24194 17.2617C5.48981 17.2579 3.14439 17.2689 3.06961 17.2906C2.81034 17.3658 2.58584 17.6964 2.58529 18.0038C2.58496 18.182 2.48523 18.4713 2.36864 18.6323C2.23466 18.8172 2.07089 18.9352 1.83396 19.0174C1.6578 19.0785 1.93849 19.0809 8.30668 19.0731L10.4757 19.0704C10.0415 18.5406 9.70362 17.9289 9.48879 17.2619ZM12.1877 5.08365C12.1336 5.0019 12.0264 4.89579 11.9493 4.84793L11.8093 4.76089L7.59148 4.75473C4.99544 4.75092 3.32726 4.76203 3.25299 4.78363C3.07951 4.83414 2.85402 5.07441 2.8033 5.26289C2.71549 5.58895 2.84595 5.93166 3.1236 6.10426L3.26359 6.19129H7.53914H11.8147L11.9634 6.09289C12.1931 5.94086 12.2861 5.76232 12.2861 5.47342C12.2861 5.27327 12.2694 5.20707 12.1877 5.08365ZM12.1877 8.38458C12.1336 8.30283 12.0264 8.19672 11.9493 8.14886L11.8093 8.06182L7.59148 8.05566C4.99544 8.05185 3.32726 8.06296 3.25299 8.08456C3.07951 8.13507 2.85402 8.37534 2.8033 8.56382C2.71549 8.88988 2.84595 9.23259 3.1236 9.40519L3.26359 9.49222H7.53914H11.8147L11.9634 9.39382C12.1931 9.24179 12.2861 9.06325 12.2861 8.77435C12.2861 8.5742 12.2694 8.508 12.1877 8.38458ZM8.61843 12.078C8.61843 11.7919 8.52461 11.6127 8.29571 11.4612L8.14706 11.3628L5.76034 11.3564C4.31868 11.3525 3.32587 11.364 3.25299 11.3853C3.07936 11.4361 2.85402 11.6764 2.8033 11.8648C2.71549 12.1908 2.84595 12.5335 3.1236 12.7061L3.26359 12.7932H5.70529H8.14699L8.29568 12.6948C8.52462 12.5432 8.61843 12.364 8.61843 12.078Z" fill="#5882A2"/>
<path fill-rule="evenodd" clip-rule="evenodd" d="M14.7619 20.0001C17.2129 20.0001 19.1998 18.0132 19.1998 15.5622C19.1998 13.1112 17.2129 11.1243 14.7619 11.1243C12.3109 11.1243 10.324 13.1112 10.324 15.5622C10.324 18.0132 12.3109 20.0001 14.7619 20.0001ZM14.5972 17.9757V18.4966H14.9722V17.9756C15.2663 17.9589 15.5224 17.9026 15.7404 17.8066C16.0056 17.6889 16.2084 17.5262 16.3486 17.3183C16.4888 17.109 16.559 16.8667 16.559 16.5917C16.559 16.3884 16.5209 16.2111 16.4446 16.0598C16.3684 15.9085 16.2648 15.7794 16.1337 15.6724C16.0041 15.5655 15.857 15.4768 15.6924 15.4065C15.5293 15.3362 15.3593 15.2805 15.1825 15.2392L14.9722 15.1865V13.8807C15.1447 13.9013 15.2903 13.9537 15.4089 14.038C15.5674 14.1496 15.6573 14.3055 15.6787 14.5056H16.4949C16.4904 14.2413 16.4164 14.0075 16.2732 13.8042C16.1299 13.5994 15.9325 13.4397 15.681 13.3251C15.4731 13.2286 15.2369 13.1721 14.9722 13.1558V12.6282H14.5972V13.1592C14.3529 13.1791 14.1296 13.2344 13.9272 13.3251C13.6681 13.4397 13.4631 13.6009 13.3122 13.8088C13.1628 14.0166 13.0881 14.2588 13.0881 14.5354C13.0881 14.8717 13.1994 15.1414 13.4219 15.3446C13.646 15.5464 13.9509 15.6969 14.3365 15.7962L14.5972 15.8635V17.2444C14.4894 17.2323 14.3888 17.2088 14.2954 17.1739C14.1536 17.1204 14.0385 17.0394 13.9501 16.9309C13.8617 16.8224 13.8114 16.6864 13.7992 16.5229H12.9646C12.9768 16.8346 13.0576 17.099 13.207 17.316C13.3579 17.533 13.5667 17.6981 13.8335 17.8112C14.0552 17.9046 14.3098 17.9595 14.5972 17.9757ZM14.9722 17.2427C15.0772 17.2298 15.1732 17.2061 15.2602 17.1716C15.4005 17.1151 15.5102 17.0371 15.5895 16.9378C15.6688 16.8369 15.7092 16.7193 15.7107 16.5848C15.7092 16.4625 15.6733 16.3617 15.6032 16.2822C15.5331 16.2012 15.4348 16.134 15.3083 16.0805C15.2095 16.037 15.0975 15.9974 14.9722 15.9615V17.2427ZM14.5972 15.0899V13.8834C14.5027 13.8962 14.4173 13.9187 14.3411 13.9509C14.2146 14.0044 14.1178 14.077 14.0507 14.1687C13.9836 14.2604 13.9493 14.3651 13.9478 14.4827C13.9478 14.5805 13.9699 14.6653 14.0141 14.7372C14.0598 14.809 14.1216 14.8701 14.1993 14.9206C14.2771 14.9695 14.3632 15.0107 14.4577 15.0443C14.504 15.0608 14.5505 15.076 14.5972 15.0899Z" fill="#5882A2"/>
</svg>
