<svg width="23" height="22" viewBox="0 0 23 22" fill="none" xmlns="http://www.w3.org/2000/svg">
<g clip-path="url(#clip0_2946_9007)">
<path d="M5.60071 4.55452H6.89199V3.25786H8.18865V1.96658H6.89199V0.669922H5.60071V1.96658H4.30405V3.25786H5.60071V4.55452ZM3.00739 7.15322H4.29867V8.4445H3.00739V7.15322ZM1.71073 4.5599H3.00201V5.85118H1.71073V4.5599ZM16.9424 21.3299C19.7668 21.3299 22.0944 19.2046 22.4141 16.4661H11.4708C11.7905 19.2046 14.1181 21.3299 16.9424 21.3299ZM11.4709 15.1748H22.4141C22.0944 12.4363 19.7668 10.311 16.9424 10.311C14.1181 10.311 11.7906 12.4363 11.4709 15.1748ZM10.6621 13.2078L5.70333 8.24909L2.02774 11.9247C-0.123831 14.0762 -0.123831 17.5646 2.02774 19.7162C4.17932 21.8678 7.66771 21.8678 9.81928 19.7162L10.7978 18.7377C10.3773 17.8536 10.1417 16.8646 10.1417 15.8204C10.1417 14.8947 10.327 14.0122 10.6621 13.2078Z" fill="#EEEEEE"/>
<path d="M16.9423 9.0196C17.7894 9.0196 18.6001 9.17494 19.3481 9.45794C20.0558 7.5091 19.6285 5.24097 18.0656 3.67813C15.914 1.52656 12.4256 1.52656 10.2741 3.67813L6.61621 7.33598L11.3011 12.0208C12.523 10.2102 14.5936 9.0196 16.9423 9.0196Z" fill="#EEEEEE"/>
</g>
<defs>
<clipPath id="clip0_2946_9007">
<rect width="22" height="22" fill="white" transform="translate(0.414062)"/>
</clipPath>
</defs>
</svg>
