<svg width="22" height="22" viewBox="0 0 22 22" fill="none" xmlns="http://www.w3.org/2000/svg">
<g opacity="0.5" clip-path="url(#clip0_2946_10723)">
<path d="M5.18665 4.55452H6.47793V3.25786H7.77459V1.96658H6.47793V0.669922H5.18665V1.96658H3.88999V3.25786H5.18665V4.55452ZM2.59333 7.15322H3.88461V8.4445H2.59333V7.15322ZM1.29667 4.5599H2.58795V5.85118H1.29667V4.5599ZM16.5284 21.3299C19.3527 21.3299 21.6803 19.2046 22 16.4661H11.0568C11.3765 19.2046 13.7041 21.3299 16.5284 21.3299ZM11.0568 15.1748H22C21.6803 12.4363 19.3527 10.311 16.5284 10.311C13.7041 10.311 11.3765 12.4363 11.0568 15.1748ZM10.248 13.2078L5.28926 8.24909L1.61368 11.9247C-0.537893 14.0762 -0.537893 17.5646 1.61368 19.7162C3.76525 21.8678 7.25364 21.8678 9.40522 19.7162L10.3837 18.7377C9.96326 17.8536 9.72765 16.8646 9.72765 15.8204C9.72765 14.8947 9.91295 14.0122 10.248 13.2078Z" fill="#222222"/>
<path d="M16.5282 9.0196C17.3753 9.0196 18.186 9.17494 18.9341 9.45794C19.6417 7.5091 19.2144 5.24097 17.6515 3.67813C15.5 1.52656 12.0116 1.52656 9.86 3.67813L6.20215 7.33598L10.887 12.0208C12.1089 10.2102 14.1795 9.0196 16.5282 9.0196Z" fill="#222222"/>
</g>
<defs>
<clipPath id="clip0_2946_10723">
<rect width="22" height="22" fill="white"/>
</clipPath>
</defs>
</svg>
