<svg width="16" height="19" viewBox="0 0 16 19" fill="none" xmlns="http://www.w3.org/2000/svg">
<path fill-rule="evenodd" clip-rule="evenodd" d="M4.13334 1.26024C0.147414 2.63571 0.25268 2.59048 0.0776262 3.00284C0.00412769 3.17606 0.00012552 3.37261 4.5153e-07 6.82111C-8.29274e-05 10.6889 0.0111732 10.9564 0.207364 11.7504C0.545882 13.1205 1.37133 14.4588 2.4006 15.3062C2.6547 15.5154 7.32913 18.7453 7.61554 18.9096C7.78459 19.0065 8.12957 19.0303 8.30875 18.9574C8.43411 18.9065 13.1414 15.6744 13.464 15.4179C14.72 14.4189 15.5474 13.0269 15.8929 11.3312C15.9768 10.9189 15.9807 10.7599 15.9955 7.1013C16.0065 4.38251 15.9976 3.24676 15.9641 3.11374C15.9365 3.00405 15.8459 2.84684 15.7431 2.7305L15.569 2.53324L11.8807 1.26456C8.94664 0.255328 8.14958 -0.0032262 7.98291 3.02619e-05C7.8297 0.00297446 6.79526 0.341646 4.13334 1.26024ZM9.09518 3.93794C10.6273 4.35931 11.8323 5.61158 12.2736 7.24097C12.4267 7.80607 12.4823 8.46852 12.4227 9.01672C12.2035 11.0347 10.9519 12.6041 9.12828 13.1478C8.76921 13.2549 8.66411 13.2659 8.00267 13.2659C7.33818 13.2659 7.23712 13.2552 6.86971 13.1458C6.35998 12.994 6.00953 12.8241 5.57421 12.5176C3.93519 11.3638 3.19199 9.23392 3.73229 7.23896C4.21697 5.44925 5.62624 4.12645 7.36002 3.83395C7.78917 3.76151 8.63897 3.81245 9.09518 3.93794ZM9.4204 5.77694C9.34031 5.8141 9.23046 5.8886 9.17622 5.94249C9.12203 5.99638 8.78685 6.66274 8.43132 7.42333C8.07583 8.18391 7.77763 8.81464 7.76862 8.82494C7.75962 8.83525 7.50377 8.58241 7.20002 8.26309C6.70454 7.74219 6.62612 7.67698 6.43739 7.62871C6.02492 7.52325 5.63133 7.71811 5.44389 8.12052C5.32579 8.37413 5.30882 8.57049 5.38086 8.85082C5.4185 8.99745 5.60606 9.22268 6.43327 10.1147C7.00037 10.7263 7.51265 11.2407 7.60662 11.2928C7.95489 11.4861 8.45562 11.3724 8.68383 11.0482C8.74015 10.9683 9.20199 10.0122 9.71018 8.92362C10.6853 6.83498 10.735 6.69611 10.6298 6.35503C10.5638 6.14104 10.3668 5.90225 10.1657 5.79247C9.97387 5.68773 9.62818 5.68054 9.4204 5.77694Z" fill="#ffffff"/>
</svg>
