<svg width="18" height="21" viewBox="0 0 18 21" fill="none" xmlns="http://www.w3.org/2000/svg">
<path fill-rule="evenodd" clip-rule="evenodd" d="M9.67757 0.381884V5.81129C9.67757 6.03146 9.76253 6.24262 9.91377 6.39831C10.065 6.554 10.2701 6.64147 10.484 6.64147H15.7583C15.4768 5.87346 15.0393 5.1761 14.4752 4.5959L11.6655 1.70188C11.1012 1.12184 10.4236 0.671897 9.67757 0.381884ZM16.1293 12.2543V8.70447C16.1293 8.58702 16.1214 8.47082 16.1135 8.35478C16.1123 8.33713 16.1111 8.31948 16.1099 8.30184H10.484C9.84237 8.30184 9.22699 8.03944 8.77326 7.57237C8.31954 7.1053 8.06464 6.47182 8.06464 5.81129V0.0199244C8.04749 0.018718 8.03033 0.0174827 8.01318 0.016247C7.90047 0.00812928 7.78759 0 7.6735 0H4.03232C2.96327 0.00131821 1.93838 0.439069 1.18245 1.21723C0.426524 1.99539 0.00128055 3.05043 0 4.15092V15.7735C0.00128055 16.874 0.426524 17.929 1.18245 18.7072C1.93838 19.4853 2.96327 19.9231 4.03232 19.9244H10.8443C10.0054 19.0687 9.4881 17.8966 9.4881 16.6036C9.4881 13.9836 11.612 11.8597 14.232 11.8597C14.9066 11.8597 15.5483 12.0005 16.1293 12.2543ZM7.06941 15.1865C7.22065 15.3421 7.30561 15.5533 7.30561 15.7735C7.30561 15.9937 7.22065 16.2048 7.06941 16.3605C6.91817 16.5162 6.71304 16.6037 6.49915 16.6037H2.46683C2.25294 16.6037 2.04782 16.5162 1.89657 16.3605C1.74533 16.2048 1.66037 15.9937 1.66037 15.7735C1.66037 15.5533 1.74533 15.3421 1.89657 15.1865C2.04782 15.0308 2.25294 14.9433 2.46683 14.9433H6.49915C6.71304 14.9433 6.91817 15.0308 7.06941 15.1865ZM9.4888 11.8657C9.64004 12.0214 9.72501 12.2326 9.72501 12.4528C9.72501 12.6729 9.64004 12.8841 9.4888 13.0398C9.33756 13.1955 9.13243 13.2829 8.91854 13.2829H2.46683C2.25294 13.2829 2.04782 13.1955 1.89657 13.0398C1.74533 12.8841 1.66037 12.6729 1.66037 12.4528C1.66037 12.2326 1.74533 12.0214 1.89657 11.8657C2.04782 11.71 2.25294 11.6226 2.46683 11.6226H8.91854C9.13243 11.6226 9.33756 11.71 9.4888 11.8657Z" fill="white"/>
<circle cx="14.2323" cy="16.6039" r="3.65666" fill="white"/>
<path fill-rule="evenodd" clip-rule="evenodd" d="M15.0854 14.2411C14.8646 14.2664 14.6405 14.357 14.4524 14.497C14.356 14.5687 12.4231 16.5029 12.3595 16.5913C12.256 16.7351 12.1902 16.8762 12.1471 17.0464C12.0734 17.3378 12.1017 17.6456 12.2271 17.9153C12.4952 18.4919 13.1276 18.7944 13.7409 18.6396C13.9108 18.5967 14.052 18.5308 14.1959 18.4273C14.2843 18.3638 16.2189 16.4313 16.2906 16.3349C16.4022 16.1849 16.4691 16.0449 16.5142 15.8668C16.5879 15.5754 16.5596 15.2676 16.4342 14.9979C16.1931 14.4794 15.6527 14.1761 15.0854 14.2411ZM15.4653 14.6638C15.7975 14.7552 16.0426 15.004 16.1269 15.3352C16.1515 15.4322 16.1498 15.6774 16.1238 15.7714C16.0955 15.8738 16.0564 15.9603 15.998 16.0494C15.9527 16.1187 15.8792 16.1965 15.4967 16.5807L15.0484 17.0308L14.4026 16.3851L13.7568 15.7395L14.1459 15.3496C14.3599 15.1352 14.5716 14.9268 14.6164 14.8865C14.7532 14.7635 14.888 14.6923 15.0523 14.6561C15.1512 14.6344 15.3733 14.6385 15.4653 14.6638ZM13.5136 16.109C13.5427 16.1298 13.56 16.1755 13.5516 16.2101C13.5476 16.2271 13.4386 16.3429 13.2051 16.5783C12.9348 16.8508 12.8561 16.9353 12.8236 16.9879C12.7552 17.0984 12.7282 17.181 12.714 17.3231C12.7029 17.433 12.6781 17.4649 12.6035 17.4649C12.5797 17.4649 12.5655 17.4579 12.5418 17.4342L12.5111 17.4034L12.5159 17.306C12.5239 17.1436 12.5696 17.0067 12.6634 16.8638C12.7071 16.7972 12.774 16.7248 13.0346 16.4619C13.2094 16.2856 13.3678 16.1301 13.3864 16.1164C13.4279 16.0859 13.4771 16.0831 13.5136 16.109Z" fill="#0B4977"/>
</svg>
