<svg width="22" height="22" viewBox="0 0 22 22" fill="none" xmlns="http://www.w3.org/2000/svg">
<g clip-path="url(#clip0_2946_1682)">
<path d="M6.42513 16.8734L7.58433 12.9321C6.63828 12.1005 6.014 10.9412 5.85311 9.67772H1.94336C2.15932 12.7377 3.89698 15.3991 6.42513 16.8734ZM16.1466 9.67772C15.9857 10.9412 15.3614 12.1004 14.4154 12.9321L15.5746 16.8734C18.1007 15.4004 19.8402 12.7402 20.0563 9.67772H16.1466ZM10.9999 3.84084C13.6411 3.84084 15.8276 5.82473 16.1477 8.38063H20.056C18.9223 -2.79772 3.07308 -2.78937 1.94366 8.38063H5.85195C6.17211 5.82473 8.3586 3.84084 10.9999 3.84084Z" fill="white"/>
<path d="M14.9672 19.4059L12.4874 10.9748H14.2423V9.67773H7.7569V10.9748H9.51181L7.03209 19.4059H14.9672ZM16.3192 19.4059H18.7821V15.8931C17.9779 16.806 17.0191 17.5699 15.9498 18.1498L16.3192 19.4059ZM3.21711 15.8931V19.4059H5.68001L6.04942 18.1498C4.98006 17.5698 4.02129 16.8059 3.21711 15.8931ZM1.27148 20.7029V22H20.7277V20.7029H1.27148Z" fill="white"/>
</g>
<defs>
<clipPath id="clip0_2946_1682">
<rect width="22" height="22" fill="white"/>
</clipPath>
</defs>
</svg>
