<svg width="23" height="22" viewBox="0 0 23 22" fill="none" xmlns="http://www.w3.org/2000/svg">
<g opacity="0.5" clip-path="url(#clip0_2946_9031)">
<path d="M6.83919 16.8734L7.99839 12.9321C7.05234 12.1005 6.42806 10.9412 6.26718 9.67772H2.35742C2.57339 12.7377 4.31104 15.3991 6.83919 16.8734ZM16.5607 9.67772C16.3998 10.9412 15.7755 12.1004 14.8294 12.9321L15.9886 16.8734C18.5148 15.4004 20.2543 12.7402 20.4704 9.67772H16.5607ZM11.4139 3.84084C14.0552 3.84084 16.2417 5.82473 16.5618 8.38063H20.4701C19.3364 -2.79772 3.48714 -2.78937 2.35772 8.38063H6.26601C6.58617 5.82473 8.77267 3.84084 11.4139 3.84084Z" fill="#222222"/>
<path d="M15.3812 19.4059L12.9015 10.9748H14.6564V9.67773H8.17096V10.9748H9.92587L7.44615 19.4059H15.3812ZM16.7332 19.4059H19.1962V15.8931C18.392 16.806 17.4332 17.5699 16.3638 18.1498L16.7332 19.4059ZM3.63117 15.8931V19.4059H6.09407L6.46348 18.1498C5.39412 17.5698 4.43535 16.8059 3.63117 15.8931ZM1.68555 20.7029V22H21.1418V20.7029H1.68555Z" fill="#222222"/>
</g>
<defs>
<clipPath id="clip0_2946_9031">
<rect width="22" height="22" fill="white" transform="translate(0.414062)"/>
</clipPath>
</defs>
</svg>
