<svg width="18" height="19" viewBox="0 0 18 19" fill="none" xmlns="http://www.w3.org/2000/svg">
<path fill-rule="evenodd" clip-rule="evenodd" d="M13.6618 2.79205C13.6618 1.59505 14.6338 0.623047 15.8308 0.623047C17.0278 0.623047 17.9998 1.59505 17.9998 2.79205C17.9998 3.98905 17.0278 4.96105 15.8308 4.96105C14.6338 4.96105 13.6618 3.98905 13.6618 2.79205ZM10.197 12.1076L12.798 8.75145L12.762 8.76945C12.906 8.57145 12.933 8.31945 12.834 8.09445C12.7359 7.86945 12.519 7.71645 12.2859 7.69845C12.042 7.67145 11.7999 7.77945 11.655 7.97745L9.47787 10.7945L6.98396 8.83245C6.83096 8.71545 6.65096 8.66955 6.47096 8.68845C6.29186 8.71545 6.12986 8.81355 6.02096 8.95755L3.35786 12.4235L3.30296 12.5045C3.14996 12.7916 3.22196 13.1606 3.49196 13.3595C3.61796 13.4405 3.75296 13.4945 3.90596 13.4945C4.11386 13.5035 4.31096 13.3946 4.43696 13.2245L6.69596 10.3166L9.26097 12.2435L9.34197 12.2966C9.62997 12.4496 9.98997 12.3785 10.197 12.1076ZM12.105 2.22579C12.069 2.45079 12.051 2.67579 12.051 2.90079C12.051 4.92579 13.689 6.56289 15.705 6.56289C15.93 6.56289 16.146 6.53679 16.371 6.50079V13.7629C16.371 16.8148 14.571 18.6238 11.511 18.6238H4.86091C1.8 18.6238 0 16.8148 0 13.7629V7.1038C0 4.04379 1.8 2.22579 4.86091 2.22579H12.105Z" fill="#ffffff"/>
</svg>
