<svg width="22" height="22" viewBox="0 0 22 22" fill="none" xmlns="http://www.w3.org/2000/svg">
<path fill-rule="evenodd" clip-rule="evenodd" d="M9.47067 0.0650842C9.26121 0.156271 9.18962 0.259742 8.83044 0.990355L8.49394 1.67492L8.19017 1.76551C7.57025 1.95033 6.82548 2.26624 6.27781 2.57661L5.973 2.74932L5.36773 2.45025C4.75816 2.14898 4.6212 2.11316 4.39963 2.19675C4.24437 2.25538 2.30414 4.18607 2.2179 4.36771C2.10821 4.59896 2.1402 4.73551 2.45188 5.36634L2.75093 5.97166L2.57823 6.27649C2.26789 6.82422 1.952 7.56905 1.7672 8.18902L1.67662 8.49282L0.992107 8.82934C0.25361 9.19246 0.156375 9.26062 0.0650668 9.47916C-0.0216889 9.68679 -0.0216889 12.3117 0.0650668 12.5193C0.156289 12.7377 0.253653 12.806 0.986524 13.1664L1.66541 13.5002L1.86963 14.1074C1.98194 14.4413 2.19982 14.9677 2.35387 15.2772L2.63389 15.8397L2.3875 16.5924C2.18405 17.2138 2.14643 17.374 2.17164 17.5116C2.19831 17.6572 2.33626 17.8124 3.26193 18.7381C4.18571 19.662 4.34298 19.8018 4.48759 19.8283C4.62425 19.8533 4.78788 19.8149 5.41519 19.6105L6.17688 19.3622L6.47331 19.5211C7.06106 19.8362 8.08404 20.2413 8.53839 20.3389C8.61351 20.3551 8.69361 20.3912 8.71633 20.4192C8.73905 20.4472 8.83757 20.7254 8.93532 21.0375C9.12563 21.6451 9.24163 21.8355 9.48283 21.9363C9.68589 22.0212 12.3144 22.0212 12.5175 21.9363C12.7587 21.8355 12.8747 21.6451 13.065 21.0375C13.1627 20.7254 13.2613 20.4472 13.284 20.4192C13.3067 20.3912 13.3868 20.3551 13.4619 20.3389C13.9163 20.2413 14.9392 19.8362 15.527 19.5211L15.8234 19.3622L16.5851 19.6105C17.2124 19.8149 17.3761 19.8533 17.5127 19.8283C17.6573 19.8018 17.8146 19.662 18.7384 18.7381C19.6621 17.8142 19.802 17.657 19.8285 17.5123C19.8535 17.3757 19.8151 17.212 19.6107 16.5847L19.3624 15.8229L19.5213 15.5265C19.8363 14.9387 20.2415 13.9156 20.3391 13.4612C20.3552 13.3861 20.3913 13.306 20.4193 13.2832C20.4473 13.2605 20.7256 13.162 21.0376 13.0642C21.6451 12.8739 21.8356 12.7579 21.9364 12.5167C22.0212 12.3136 22.0212 9.68486 21.9364 9.48178C21.8354 9.24022 21.6453 9.12455 21.0376 8.93492C20.7256 8.83755 20.4479 8.73549 20.4205 8.70813C20.3932 8.68073 20.3283 8.50484 20.2764 8.31718C20.1032 7.69155 19.762 6.87499 19.4267 6.28418L19.2494 5.97166L19.5484 5.36634C19.8601 4.73551 19.8921 4.59896 19.7824 4.36771C19.6962 4.18607 17.7559 2.25538 17.6007 2.19675C17.3791 2.11316 17.2421 2.14898 16.6326 2.45025L16.0273 2.74932L15.7225 2.57661C15.1748 2.26624 14.4301 1.95033 13.8101 1.76551L13.5064 1.67492L13.1699 0.990355C12.8068 0.251796 12.7386 0.154553 12.5201 0.0632373C12.3157 -0.0221942 9.66742 -0.020562 9.47067 0.0650842ZM11.6935 3.95739C14.5164 4.24444 16.8546 6.13265 17.7391 8.83948C18.1886 10.2151 18.1886 11.7833 17.7391 13.159C16.7137 16.2969 13.6698 18.3385 10.4444 18.0516C9.78587 17.9931 9.37146 17.9122 8.84058 17.7387C6.64806 17.0222 4.97772 15.3517 4.26121 13.159C3.81171 11.7833 3.81171 10.2151 4.26121 8.83948C4.62167 7.73639 5.18687 6.81378 6.00096 5.99963C7.51498 4.48548 9.5847 3.74293 11.6935 3.95739ZM10.5921 6.5132C10.5449 6.52411 10.4008 6.55448 10.272 6.58068C9.33813 6.77031 8.42913 7.54298 8.02976 8.48654C7.85358 8.90275 7.8014 9.18245 7.8014 9.71067C7.8014 10.2389 7.85358 10.5186 8.02976 10.9348C8.42763 11.8748 9.27436 12.5987 10.27 12.85C10.5767 12.9275 11.4236 12.9275 11.7303 12.85C12.7259 12.5987 13.5727 11.8748 13.9705 10.9348C14.1467 10.5186 14.1989 10.2389 14.1989 9.71067C14.1989 9.43131 14.173 9.11411 14.1392 8.98049C13.8479 7.82637 12.9479 6.90836 11.7947 6.58906C11.5772 6.52884 10.7499 6.47665 10.5921 6.5132ZM7.61187 13.2313C7.22868 13.6918 6.99625 14.0833 6.79087 14.6144L6.70231 14.8434L7.09765 15.225C7.87819 15.9783 8.8523 16.4792 9.96157 16.6977C10.4697 16.7978 11.5306 16.7978 12.0387 16.6977C13.148 16.4792 14.1221 15.9783 14.9027 15.225L15.298 14.8434L15.2096 14.615C14.9972 14.0656 14.5277 13.3159 14.225 13.0426C14.1343 12.9607 14.132 12.9608 14.0162 13.054C13.3595 13.5823 12.7582 13.9031 12.0953 14.0785C11.7191 14.1781 11.5833 14.1922 11.0002 14.1922C10.4146 14.1922 10.2827 14.1785 9.90497 14.0776C9.24081 13.9002 8.52482 13.5264 8.0688 13.119C7.98015 13.0398 7.88906 12.975 7.86638 12.975C7.84366 12.975 7.72916 13.0903 7.61187 13.2313Z" fill="#5882A2"/>
</svg>
