<svg width="18" height="18" viewBox="0 0 18 18" fill="none" xmlns="http://www.w3.org/2000/svg">
<path d="M14.3251 10.8368C14.092 11.0614 13.985 11.3861 14.0381 11.7046L14.838 16.1064C14.9055 16.4795 14.7472 16.8571 14.4331 17.0727C14.1253 17.2964 13.7159 17.3232 13.3802 17.1443L9.39466 15.0776C9.25608 15.0042 9.1022 14.9648 8.94472 14.9604H8.70085C8.61626 14.9729 8.53347 14.9997 8.45788 15.0409L4.4714 17.1174C4.27433 17.2159 4.05116 17.2507 3.83249 17.2159C3.29976 17.1156 2.9443 16.611 3.03159 16.0787L3.83249 11.6769C3.88558 11.3557 3.77849 11.0292 3.54543 10.801L0.29595 7.66964C0.0241851 7.4075 -0.0703026 7.01385 0.0538812 6.65866C0.174465 6.30437 0.482225 6.04581 0.853877 5.98765L5.32629 5.34259C5.66645 5.3077 5.96521 5.10192 6.11819 4.79773L8.08893 0.780631C8.13573 0.691164 8.19602 0.608853 8.26891 0.539069L8.3499 0.476441C8.39219 0.429918 8.44079 0.391447 8.49478 0.360133L8.59287 0.324346L8.74585 0.261719H9.1247C9.46305 0.296611 9.76091 0.497914 9.91659 0.798525L11.9134 4.79773C12.0574 5.09029 12.3373 5.29338 12.6603 5.34259L17.1327 5.98765C17.5107 6.04133 17.8266 6.30079 17.9516 6.65866C18.0695 7.01743 17.9678 7.41108 17.6907 7.66964L14.3251 10.8368Z" fill="#5882A2"/>
</svg>
