<svg width="15" height="18" viewBox="0 0 15 18" fill="none" xmlns="http://www.w3.org/2000/svg">
<path fill-rule="evenodd" clip-rule="evenodd" d="M5.38173 0.0441736C4.92755 0.127565 4.62349 0.305771 4.14054 0.771706C3.90909 0.994947 3.08799 1.76759 2.31583 2.48866C0.475439 4.20729 0.42993 4.25386 0.265615 4.58761C-0.0184536 5.16456 0.000253369 4.73582 0.000253369 10.6641C0.000253369 14.9389 0.00958862 15.998 0.0488623 16.1748C0.2278 16.9811 0.889435 17.6794 1.71415 17.9325C1.92215 17.9963 2.1843 17.9996 7.01992 17.9996C12.714 17.9996 12.2294 18.0216 12.7976 17.7367C13.1582 17.5557 13.5976 17.1086 13.7784 16.7386C14.062 16.1581 14.0396 16.8231 14.0396 9.00353C14.0396 2.44625 14.0356 2.00006 13.9754 1.77748C13.7575 0.972211 13.1574 0.346135 12.3439 0.0754866C12.1563 0.0130797 11.9332 0.00829886 8.8979 0.00162023C6.29235 -0.00410952 5.59906 0.00428436 5.38173 0.0441736ZM5.88178 3.10043L5.87124 4.71534L5.77049 4.92059C5.62966 5.20744 5.42115 5.43083 5.16826 5.56572C4.79612 5.76422 4.73811 5.76761 3.12442 5.68458C2.32108 5.64327 1.63002 5.60948 1.5887 5.60948C1.48565 5.60948 1.48952 5.45342 1.59731 5.26295C1.69176 5.09602 5.22347 1.69398 5.39537 1.60431C5.51822 1.54022 5.68082 1.49497 5.80885 1.48924L5.89236 1.48552L5.88178 3.10043ZM11.7058 2.78434C11.9314 2.9023 12.064 3.11809 12.0817 3.39615C12.0933 3.57728 12.0803 3.65804 12.0212 3.77402C11.9276 3.95752 11.7633 4.09883 11.5861 4.14806C11.3996 4.19992 8.07053 4.19905 7.88361 4.14708C7.40868 4.01511 7.23536 3.32119 7.57905 2.92777C7.78584 2.69106 7.7853 2.69114 9.77308 2.70008C11.5063 2.70785 11.5643 2.71041 11.7058 2.78434ZM11.6909 5.76739C12.263 6.06964 12.1956 6.9713 11.5882 7.14009C11.3892 7.19538 8.12654 7.1922 7.90545 7.13647C7.28203 6.97936 7.21071 6.02008 7.80244 5.75108C7.93889 5.68904 8.08202 5.684 9.74001 5.68327L11.5302 5.68247L11.6909 5.76739ZM6.42655 10.5922C6.50006 10.6229 6.61168 10.6874 6.67466 10.7355C6.73877 10.7844 7.13165 11.3464 7.56683 12.0117C7.9945 12.6655 8.35416 13.2005 8.36605 13.2005C8.37794 13.2005 8.88711 12.6317 9.49758 11.9365C10.6971 10.5705 10.7341 10.5379 11.0859 10.5379C11.4231 10.5379 11.7298 10.755 11.7814 11.0303C11.8092 11.1788 11.7756 11.4331 11.7131 11.5465C11.6732 11.619 9.75438 13.8093 8.97306 14.6742C8.61704 15.0683 8.45689 15.1691 8.18485 15.1704C7.99928 15.1713 7.69763 15.0397 7.57974 14.9065C7.53988 14.8614 7.16556 14.3025 6.74788 13.6645C6.3302 13.0265 5.97561 12.5092 5.95986 12.5149C5.9441 12.5206 5.38125 13.1103 4.70901 13.8252C3.75309 14.842 3.45444 15.1381 3.33819 15.1847C2.73614 15.4258 2.11476 14.7949 2.38059 14.2123C2.41815 14.1301 3.10014 13.3857 4.07432 12.3636C5.4516 10.9186 5.72947 10.644 5.86114 10.5973C6.06553 10.5249 6.26146 10.5232 6.42655 10.5922Z" fill="#ffffff"/>
</svg>
