<svg width="23" height="23" viewBox="0 0 23 23" fill="none" xmlns="http://www.w3.org/2000/svg">
<g clip-path="url(#clip0_2946_11089)">
<path d="M1.71196 10.5981C2.15196 6.41807 5.23196 3.03007 9.23596 2.12807L8.55396 1.55607C8.33396 1.35807 8.31196 1.00607 8.50996 0.786074C8.68596 0.588074 8.99396 0.544074 9.23596 0.698074L10.842 1.97407C10.952 2.06207 11.018 2.19407 11.04 2.34807C11.062 2.50207 11.018 2.65607 10.93 2.76607L9.65396 4.37207C9.54396 4.50407 9.38996 4.59207 9.21396 4.57007C8.90596 4.57007 8.66396 4.32807 8.66396 4.02007C8.66396 3.88807 8.70796 3.75607 8.77396 3.66807L9.08196 3.29407C5.71596 4.24007 3.20796 7.14407 2.81196 10.7081C2.78996 10.9941 2.54796 11.1921 2.26196 11.1921H2.21796C1.90996 11.1701 1.68996 10.9061 1.71196 10.5981ZM10.49 20.1681C6.90396 19.7941 3.99996 17.2421 3.07596 13.8541L3.51596 14.2061C3.75796 14.4041 4.10996 14.3601 4.28596 14.1181C4.48396 13.8761 4.43996 13.5241 4.19796 13.3481L2.59196 12.0501C2.48196 11.9621 2.32796 11.9181 2.19596 11.9401C2.04196 11.9621 1.90996 12.0281 1.82196 12.1381L0.54596 13.7441C0.45796 13.8321 0.43596 13.9641 0.43596 14.0961C0.41396 14.4041 0.65596 14.6461 0.96396 14.6461C1.13996 14.6461 1.29396 14.5801 1.40396 14.4481L1.93196 13.7881C2.85596 17.7921 6.22196 20.8281 10.402 21.2681H10.446C10.754 21.2901 11.018 21.0481 11.018 20.7401C11.04 20.4541 10.798 20.1901 10.49 20.1681ZM20.566 12.0061C20.258 11.9841 19.994 12.2041 19.95 12.4901C19.576 16.0541 17.046 18.9581 13.68 19.9041L14.054 19.4421C14.252 19.2001 14.208 18.8481 13.966 18.6721C13.724 18.4741 13.372 18.5181 13.196 18.7601L11.986 20.2781C11.832 20.3881 11.744 20.5641 11.766 20.7401C11.766 20.9601 11.92 21.1361 12.096 21.2241L13.592 22.4341C13.68 22.5001 13.812 22.5441 13.944 22.5441C14.12 22.5441 14.274 22.4781 14.362 22.3461C14.56 22.1041 14.516 21.7521 14.274 21.5761L13.636 21.0701C17.596 20.1241 20.61 16.7581 21.05 12.6221C21.094 12.2921 20.874 12.0281 20.566 12.0061ZM22.216 8.81607C21.974 8.61807 21.622 8.66207 21.446 8.90407L20.896 9.58607C20.016 5.51607 16.628 2.39207 12.404 1.93007C12.096 1.88607 11.81 2.10607 11.788 2.41407C11.766 2.72207 11.986 2.98607 12.272 3.03007C15.902 3.42607 18.85 6.02207 19.73 9.47607L19.312 9.12407C19.07 8.92607 18.718 8.97007 18.542 9.21207C18.366 9.45407 18.388 9.80607 18.63 9.98207L20.236 11.2581C20.324 11.3241 20.456 11.3681 20.588 11.3681C20.764 11.3681 20.918 11.3021 21.028 11.1701L22.304 9.56407C22.48 9.34407 22.458 8.99207 22.216 8.81607ZM11.414 17.3081C8.22396 17.3081 5.62796 14.7121 5.62796 11.5221C5.62796 8.33207 8.22396 5.73607 11.414 5.73607C14.604 5.73607 17.2 8.33207 17.2 11.5221C17.2 14.7341 14.604 17.3081 11.414 17.3081ZM13.24 12.7981C13.24 11.7861 12.426 10.9721 11.414 10.9721C11.018 10.9721 10.688 10.6421 10.688 10.2461C10.688 9.85007 11.018 9.52007 11.414 9.52007C11.81 9.52007 12.14 9.85007 12.14 10.2461C12.14 10.5541 12.382 10.7961 12.69 10.7961C12.998 10.7961 13.24 10.5541 13.24 10.2461C13.24 9.43207 12.734 8.72807 11.964 8.48607V8.39807C11.964 8.09007 11.722 7.84807 11.414 7.84807C11.106 7.84807 10.864 8.09007 10.864 8.39807V8.48607C10.094 8.72807 9.56596 9.45407 9.56596 10.2681C9.58796 11.2801 10.402 12.0941 11.414 12.0721C11.788 12.0941 12.074 12.3801 12.096 12.7541C12.118 13.1501 11.81 13.5021 11.414 13.5241C11.018 13.5241 10.688 13.1941 10.688 12.7981C10.688 12.4901 10.446 12.2481 10.138 12.2481C9.82996 12.2481 9.58796 12.4901 9.58796 12.7981C9.58796 13.5901 10.116 14.2941 10.864 14.5361V14.6461C10.864 14.9541 11.106 15.1961 11.414 15.1961C11.722 15.1961 11.964 14.9541 11.964 14.6461V14.5361C12.734 14.2941 13.24 13.5901 13.24 12.7981Z" fill="white"/>
</g>
<defs>
<clipPath id="clip0_2946_11089">
<rect width="22" height="22" fill="white" transform="translate(0.414062 0.566406)"/>
</clipPath>
</defs>
</svg>
