<svg width="22" height="23" viewBox="0 0 22 23" fill="none" xmlns="http://www.w3.org/2000/svg">
<g opacity="0.5" clip-path="url(#clip0_2946_6422)">
<path d="M1.2979 10.5981C1.7379 6.41807 4.8179 3.03007 8.8219 2.12807L8.1399 1.55607C7.9199 1.35807 7.8979 1.00607 8.0959 0.786074C8.2719 0.588074 8.5799 0.544074 8.8219 0.698074L10.4279 1.97407C10.5379 2.06207 10.6039 2.19407 10.6259 2.34807C10.6479 2.50207 10.6039 2.65607 10.5159 2.76607L9.2399 4.37207C9.1299 4.50407 8.9759 4.59207 8.7999 4.57007C8.4919 4.57007 8.2499 4.32807 8.2499 4.02007C8.2499 3.88807 8.2939 3.75607 8.3599 3.66807L8.6679 3.29407C5.3019 4.24007 2.7939 7.14407 2.3979 10.7081C2.3759 10.9941 2.1339 11.1921 1.8479 11.1921H1.8039C1.4959 11.1701 1.2759 10.9061 1.2979 10.5981ZM10.0759 20.1681C6.4899 19.7941 3.5859 17.2421 2.6619 13.8541L3.1019 14.2061C3.3439 14.4041 3.6959 14.3601 3.8719 14.1181C4.0699 13.8761 4.0259 13.5241 3.7839 13.3481L2.1779 12.0501C2.0679 11.9621 1.9139 11.9181 1.7819 11.9401C1.6279 11.9621 1.4959 12.0281 1.4079 12.1381L0.131897 13.7441C0.0438975 13.8321 0.0218975 13.9641 0.0218975 14.0961C-0.000102518 14.4041 0.241898 14.6461 0.549897 14.6461C0.725897 14.6461 0.879897 14.5801 0.989897 14.4481L1.5179 13.7881C2.4419 17.7921 5.8079 20.8281 9.9879 21.2681H10.0319C10.3399 21.2901 10.6039 21.0481 10.6039 20.7401C10.6259 20.4541 10.3839 20.1901 10.0759 20.1681ZM20.1519 12.0061C19.8439 11.9841 19.5799 12.2041 19.5359 12.4901C19.1619 16.0541 16.6319 18.9581 13.2659 19.9041L13.6399 19.4421C13.8379 19.2001 13.7939 18.8481 13.5519 18.6721C13.3099 18.4741 12.9579 18.5181 12.7819 18.7601L11.5719 20.2781C11.4179 20.3881 11.3299 20.5641 11.3519 20.7401C11.3519 20.9601 11.5059 21.1361 11.6819 21.2241L13.1779 22.4341C13.2659 22.5001 13.3979 22.5441 13.5299 22.5441C13.7059 22.5441 13.8599 22.4781 13.9479 22.3461C14.1459 22.1041 14.1019 21.7521 13.8599 21.5761L13.2219 21.0701C17.1819 20.1241 20.1959 16.7581 20.6359 12.6221C20.6799 12.2921 20.4599 12.0281 20.1519 12.0061ZM21.8019 8.81607C21.5599 8.61807 21.2079 8.66207 21.0319 8.90407L20.4819 9.58607C19.6019 5.51607 16.2139 2.39207 11.9899 1.93007C11.6819 1.88607 11.3959 2.10607 11.3739 2.41407C11.3519 2.72207 11.5719 2.98607 11.8579 3.03007C15.4879 3.42607 18.4359 6.02207 19.3159 9.47607L18.8979 9.12407C18.6559 8.92607 18.3039 8.97007 18.1279 9.21207C17.9519 9.45407 17.9739 9.80607 18.2159 9.98207L19.8219 11.2581C19.9099 11.3241 20.0419 11.3681 20.1739 11.3681C20.3499 11.3681 20.5039 11.3021 20.6139 11.1701L21.8899 9.56407C22.0659 9.34407 22.0439 8.99207 21.8019 8.81607ZM10.9999 17.3081C7.8099 17.3081 5.2139 14.7121 5.2139 11.5221C5.2139 8.33207 7.8099 5.73607 10.9999 5.73607C14.1899 5.73607 16.7859 8.33207 16.7859 11.5221C16.7859 14.7341 14.1899 17.3081 10.9999 17.3081ZM12.8259 12.7981C12.8259 11.7861 12.0119 10.9721 10.9999 10.9721C10.6039 10.9721 10.2739 10.6421 10.2739 10.2461C10.2739 9.85007 10.6039 9.52007 10.9999 9.52007C11.3959 9.52007 11.7259 9.85007 11.7259 10.2461C11.7259 10.5541 11.9679 10.7961 12.2759 10.7961C12.5839 10.7961 12.8259 10.5541 12.8259 10.2461C12.8259 9.43207 12.3199 8.72807 11.5499 8.48607V8.39807C11.5499 8.09007 11.3079 7.84807 10.9999 7.84807C10.6919 7.84807 10.4499 8.09007 10.4499 8.39807V8.48607C9.6799 8.72807 9.1519 9.45407 9.1519 10.2681C9.1739 11.2801 9.9879 12.0941 10.9999 12.0721C11.3739 12.0941 11.6599 12.3801 11.6819 12.7541C11.7039 13.1501 11.3959 13.5021 10.9999 13.5241C10.6039 13.5241 10.2739 13.1941 10.2739 12.7981C10.2739 12.4901 10.0319 12.2481 9.7239 12.2481C9.4159 12.2481 9.1739 12.4901 9.1739 12.7981C9.1739 13.5901 9.7019 14.2941 10.4499 14.5361V14.6461C10.4499 14.9541 10.6919 15.1961 10.9999 15.1961C11.3079 15.1961 11.5499 14.9541 11.5499 14.6461V14.5361C12.3199 14.2941 12.8259 13.5901 12.8259 12.7981Z" fill="#222222"/>
</g>
<defs>
<clipPath id="clip0_2946_6422">
<rect width="22" height="22" fill="white" transform="translate(0 0.566406)"/>
</clipPath>
</defs>
</svg>
