<svg width="18" height="12" viewBox="0 0 18 12" fill="none" xmlns="http://www.w3.org/2000/svg">
<path fill-rule="evenodd" clip-rule="evenodd" d="M8.69065 0.0397877C8.61507 0.0674579 8.51825 0.114238 8.47546 0.143673C8.43268 0.173145 7.69513 0.83081 6.83649 1.60516C5.87557 2.47176 5.19985 3.05276 5.07903 3.11633C4.84007 3.24202 4.53267 3.25471 4.29405 3.14876C4.20836 3.11069 3.57755 2.76315 2.89223 2.37636C2.20691 1.98962 1.57494 1.63306 1.48788 1.58406C0.880257 1.24218 0.161796 1.53312 0.0149702 2.18057C-0.0328837 2.39172 0.00605994 2.67473 0.55565 6.11049C0.745605 7.29783 0.986065 8.86062 1.08999 9.58335C1.35634 11.4353 1.3417 11.3581 1.46345 11.5511C1.60129 11.7696 1.90504 11.9543 2.17842 11.9858C2.28703 11.9984 5.43494 12.0036 9.17376 11.9974L15.9716 11.9862L16.1734 11.8769C16.5441 11.6761 16.6458 11.4795 16.7384 10.7848C16.8663 9.82551 17.1123 8.20014 17.4316 6.20435C17.9798 2.77798 18.0337 2.38714 17.9867 2.17986C17.8724 1.6756 17.357 1.34498 16.8564 1.45469C16.7379 1.48063 16.1776 1.77449 15.2724 2.28543C14.502 2.72027 13.7998 3.10795 13.7118 3.147C13.469 3.25479 13.1634 3.24293 12.9233 3.11633C12.8033 3.05303 12.1245 2.46842 11.1686 1.60516C10.3112 0.83081 9.54138 0.157264 9.45789 0.108381C9.2715 -0.000797684 8.89366 -0.0345502 8.69065 0.0397877ZM11.7857 8.05773C12.394 8.3279 12.4266 9.16841 11.8413 9.48949L11.6701 9.58335H9.00093C6.34178 9.58335 6.33114 9.58305 6.17809 9.50251C5.88206 9.34678 5.73642 9.10717 5.73642 8.77584C5.73642 8.56022 5.8266 8.35914 5.99213 8.20566C6.23163 7.98362 6.13285 7.99071 9.00093 7.99C11.4644 7.9894 11.6415 7.99372 11.7857 8.05773Z" fill="#5882A2"/>
</svg>
