<svg width="18" height="18" viewBox="0 0 18 18" fill="none" xmlns="http://www.w3.org/2000/svg">
<path opacity="1" fill-rule="evenodd" clip-rule="evenodd" d="M7.62352 1.44806C3.6637 4.42439 1.10105 6.63278 0.96381 7.18718C0.941985 7.27517 0.934028 9.29092 0.946001 11.6666L0.967902 15.9861L1.17796 16.3435C1.41531 16.7471 1.78004 17.0545 2.19918 17.2041C2.61832 17.3537 16.2922 17.3537 16.7114 17.2041C17.1305 17.0545 17.4952 16.7471 17.7326 16.3435L17.9426 15.9861L17.9639 11.6395L17.9853 7.29282L17.7956 6.96924C17.3707 6.24403 15.0451 4.27715 11.1346 1.33567C9.96353 0.454806 9.66147 0.261719 9.45436 0.261719C9.24619 0.261719 8.92481 0.469962 7.62352 1.44806ZM14.7057 6.66521C14.6938 7.64467 14.7027 8.44604 14.7252 8.44604C14.7479 8.44597 15.1571 8.2888 15.6346 8.0967C17.0431 7.53009 17.2227 7.46158 17.2227 7.49137C17.2227 7.50698 16.1306 8.38322 14.7956 9.43869L12.3686 11.3576L13.5266 12.5351C15.2103 14.2474 16.4439 15.5338 16.3134 15.4412C16.2509 15.3968 15.1767 14.6302 13.9263 13.7377C12.6759 12.8452 11.6105 12.0889 11.5589 12.0572C11.5009 12.0217 11.0951 12.2389 10.503 12.6224C9.97399 12.965 9.50256 13.2453 9.45527 13.2453C9.40798 13.2453 8.93656 12.965 8.40754 12.6224C7.82759 12.2468 7.40845 12.0217 7.35169 12.0553C7.30001 12.086 6.23462 12.8426 4.98425 13.7366C3.73387 14.6307 2.65969 15.3981 2.59717 15.442C2.46729 15.5332 3.68924 14.2586 5.38383 12.5353L6.54168 11.3579L4.07686 9.43611C2.72123 8.37921 1.61203 7.50645 1.61203 7.49667C1.61203 7.4869 2.17614 7.6965 2.86559 7.96249C3.55511 8.2284 4.14331 8.44597 4.17279 8.44604C4.20235 8.44604 4.21675 7.64467 4.20485 6.66521L4.18325 4.8843H9.45527H14.7273L14.7057 6.66521ZM8.81114 7.15771V8.14285H7.826H6.84086V8.78698V9.43111H7.826H8.81114V10.4163V11.4014H9.45527H10.0994V10.4163V9.43111H11.0845H12.0697V8.78698V8.14285H11.0845H10.0994V7.15771V6.17257H9.45527H8.81114V7.15771Z" fill="#ffffff"/>
</svg>
