<svg width="17" height="21" viewBox="0 0 17 21" fill="none" xmlns="http://www.w3.org/2000/svg">
<path fill-rule="evenodd" clip-rule="evenodd" d="M13.3797 0.0635632C13.2944 0.104304 13.1789 0.200349 13.1232 0.277029C13.0221 0.416195 13.0219 0.419108 13.0219 2.07198V3.72753L12.6092 3.72761C12.1307 3.72765 11.9436 3.79186 11.7848 4.01054C11.6966 4.1319 11.6835 4.20222 11.6835 4.55415V4.95835H13.6965H15.7095L15.6913 4.57709C15.6714 4.15865 15.599 3.98998 15.3722 3.8344C15.2686 3.76322 15.1688 3.74558 14.8057 3.73401L14.3651 3.71998L14.3515 2.09291C14.3388 0.551914 14.3333 0.458453 14.2488 0.32655C14.0592 0.0304949 13.6859 -0.0824539 13.3797 0.0635632ZM11.3721 6.26045C11.2867 6.30024 11.1712 6.39551 11.1155 6.47219L11.0143 6.6116V11.9346V17.2575L10.8626 17.2836C10.2628 17.3871 10.153 18.1716 10.7029 18.4256C10.8379 18.488 10.9991 18.4973 11.94 18.4974L13.0219 18.4974V19.1334V19.7693L12.2746 19.7694C11.6522 19.7694 11.5014 19.7814 11.3721 19.8412C10.8945 20.0618 10.8945 20.7076 11.3721 20.9282C11.5135 20.9936 11.719 21 13.6688 21C15.6187 21 15.8242 20.9936 15.9656 20.9282C16.4432 20.7076 16.4432 20.0618 15.9656 19.8412C15.8369 19.7817 15.6866 19.7694 15.0854 19.7694L14.3604 19.7693V19.1334V18.4974H15.4103C16.5527 18.4974 16.6741 18.4784 16.8506 18.272C17.1447 17.9282 16.9848 17.4236 16.5432 17.3019L16.368 17.2536V16.0293V14.805H15.2699C14.2236 14.805 14.1636 14.8007 13.9984 14.7154C13.809 14.6175 13.6465 14.3666 13.6465 14.1719C13.6465 13.9992 13.8146 13.7587 14.0036 13.661C14.1622 13.5791 14.234 13.5741 15.2699 13.5741H16.368V12.9587V12.3433H15.2699C14.2236 12.3433 14.1636 12.3391 13.9984 12.2537C13.809 12.1558 13.6465 11.9049 13.6465 11.7103C13.6465 11.5375 13.8146 11.2971 14.0036 11.1994C14.1622 11.1174 14.234 11.1125 15.2699 11.1125H16.368V10.4971V9.88166H15.2699C14.2236 9.88166 14.1636 9.87743 13.9984 9.79206C13.809 9.69416 13.6465 9.44328 13.6465 9.2486C13.6465 9.07588 13.8146 8.83542 14.0036 8.73773C14.1622 8.65576 14.234 8.65083 15.2734 8.65083H16.375L16.3604 7.65591C16.347 6.74892 16.3378 6.64869 16.2565 6.52171C16.2074 6.44507 16.1106 6.34353 16.0414 6.29606C15.9179 6.21138 15.8729 6.20949 13.7214 6.1989C11.7 6.18893 11.5151 6.19378 11.3721 6.26045ZM1.33375 7.90171C1.24836 7.94143 1.13289 8.03661 1.07721 8.11329C0.977588 8.2504 0.975938 8.27268 0.975938 9.47138C0.975938 10.6701 0.977588 10.6924 1.07721 10.8295C1.29435 11.1284 1.10416 11.1145 4.7984 11.1026C8.08401 11.0921 8.10873 11.0914 8.23374 11.0056C8.30303 10.9581 8.39984 10.8566 8.44892 10.78C8.53253 10.6494 8.53815 10.5669 8.53815 9.47138C8.53815 8.37587 8.53253 8.29332 8.44892 8.16281C8.39984 8.08617 8.30303 7.98463 8.23374 7.93716C8.10873 7.85141 8.08401 7.85071 4.7984 7.84017C1.71538 7.83028 1.47839 7.83451 1.33375 7.90171ZM2.30466 12.8212L2.29207 13.299L1.94747 13.4322C1.11612 13.7536 0.478304 14.3686 0.192457 15.1245C0.0157828 15.5917 -0.0110756 16.0527 0.00333498 18.3744C0.016184 20.4426 0.0202887 20.5338 0.105949 20.6676C0.155025 20.7442 0.251839 20.8458 0.321126 20.8932L0.447119 20.9796H4.72358H9.00004L9.12604 20.8932C9.19532 20.8458 9.29214 20.7442 9.34121 20.6676C9.42687 20.5338 9.43098 20.4426 9.44383 18.3744C9.45186 17.0753 9.43879 16.0626 9.41081 15.8228C9.29214 14.8047 8.69715 13.9953 7.74168 13.5522C7.5245 13.4514 7.31869 13.369 7.28438 13.369C7.23428 13.369 7.22201 13.2681 7.22201 12.8562V12.3433H4.76962H2.31719L2.30466 12.8212Z" fill="#5882A2"/>
</svg>
