<svg width="23" height="22" viewBox="0 0 23 22" fill="none" xmlns="http://www.w3.org/2000/svg">
<g opacity="0.5" clip-path="url(#clip0_2534_24248)">
<path d="M12.8807 0.333008H2.58073C1.6474 0.333008 0.914062 1.09967 0.914062 2.03301V19.9663C0.914062 20.8997 1.68073 21.6663 2.61406 21.6663H15.4807C16.4141 21.6663 17.1807 20.8997 17.1807 19.9663V4.56634C17.1474 4.36634 13.0474 0.333008 12.8807 0.333008ZM7.88073 2.89967H11.4141C11.6141 2.89967 11.7474 3.03301 11.7474 3.23301C11.7474 3.43301 11.6141 3.56634 11.4141 3.56634H7.88073C7.68073 3.56634 7.5474 3.43301 7.5474 3.23301C7.5474 3.03301 7.68073 2.89967 7.88073 2.89967ZM7.88073 4.63301H11.4141C11.6141 4.63301 11.7474 4.76634 11.7474 4.96634C11.7474 5.16634 11.6141 5.29967 11.4141 5.29967H7.88073C7.68073 5.29967 7.5474 5.16634 7.5474 4.96634C7.5474 4.79967 7.68073 4.63301 7.88073 4.63301ZM6.31406 18.7663C6.31406 19.033 6.08073 19.2663 5.81406 19.2663H3.78073C3.51406 19.2663 3.28073 19.033 3.28073 18.7663V16.9997C3.28073 16.6997 3.51406 16.4997 3.78073 16.4997H5.81406C6.11406 16.4997 6.31406 16.733 6.31406 16.9997V18.7663ZM6.31406 14.1663C6.31406 14.4663 6.08073 14.6663 5.81406 14.6663H3.78073C3.51406 14.6663 3.28073 14.433 3.28073 14.1663V12.3997C3.28073 12.133 3.51406 11.8997 3.78073 11.8997H5.81406C6.11406 11.8997 6.31406 12.133 6.31406 12.3997V14.1663ZM6.31406 9.56634C6.31406 9.83301 6.08073 10.0663 5.81406 10.0663H3.78073C3.51406 10.0663 3.28073 9.83301 3.28073 9.56634V7.79967C3.28073 7.53301 3.51406 7.29967 3.78073 7.29967H5.81406C6.11406 7.29967 6.31406 7.53301 6.31406 7.79967V9.56634ZM6.31406 4.96634C6.31406 5.26634 6.08073 5.46634 5.81406 5.46634H3.78073C3.51406 5.46634 3.28073 5.23301 3.28073 4.96634V3.23301C3.28073 2.96634 3.51406 2.73301 3.78073 2.73301H5.81406C6.11406 2.73301 6.31406 2.96634 6.31406 3.23301V4.96634ZM14.7807 19.0997H7.88073C7.68073 19.0997 7.5474 18.933 7.5474 18.7663C7.5474 18.5663 7.68073 18.433 7.88073 18.433H14.7807C14.9474 18.433 15.1141 18.5663 15.1141 18.7663C15.1141 18.933 14.9474 19.0997 14.7807 19.0997ZM14.7807 17.333H7.88073C7.68073 17.333 7.5474 17.1997 7.5474 16.9997C7.5474 16.833 7.68073 16.6663 7.88073 16.6663H14.7807C14.9474 16.6663 15.1141 16.833 15.1141 16.9997C15.1141 17.1997 14.9474 17.333 14.7807 17.333ZM14.7807 14.4997H7.88073C7.68073 14.4997 7.5474 14.333 7.5474 14.1663C7.5474 13.9663 7.68073 13.833 7.88073 13.833H14.7807C14.9474 13.833 15.1141 13.9663 15.1141 14.1663C15.1141 14.333 14.9474 14.4997 14.7807 14.4997ZM14.7807 12.7663H7.88073C7.68073 12.7663 7.5474 12.5997 7.5474 12.433C7.5474 12.233 7.68073 12.0997 7.88073 12.0997H14.7807C14.9474 12.0997 15.1141 12.233 15.1141 12.433C15.1141 12.5997 14.9474 12.7663 14.7807 12.7663ZM14.7807 9.89968H7.88073C7.68073 9.89968 7.5474 9.76634 7.5474 9.56634C7.5474 9.36634 7.68073 9.23301 7.88073 9.23301H14.7807C14.9474 9.23301 15.1141 9.36634 15.1141 9.56634C15.1141 9.73301 14.9474 9.89968 14.7807 9.89968ZM14.7807 8.16634H7.88073C7.68073 8.16634 7.5474 7.99967 7.5474 7.83301C7.5474 7.63301 7.68073 7.49967 7.88073 7.49967H14.7807C14.9474 7.49967 15.1141 7.63301 15.1141 7.83301C15.1141 7.99967 14.9474 8.16634 14.7807 8.16634ZM13.9141 4.23301C13.5474 4.23301 13.2141 3.93301 13.2141 3.53301V1.46634L16.0141 4.23301H13.9141Z" fill="#222222"/>
<path d="M5.01452 8.16673L4.64785 8.5334L4.61452 8.50006C4.48119 8.36673 4.28118 8.36673 4.14785 8.50006C4.01452 8.6334 4.01452 8.8334 4.14785 8.96673L4.41452 9.2334C4.48118 9.30007 4.54785 9.3334 4.64785 9.3334C4.74785 9.3334 4.81452 9.30007 4.88118 9.2334L5.48118 8.6334C5.61452 8.50006 5.61452 8.30006 5.48118 8.16673C5.34785 8.0334 5.11452 8.0334 5.01452 8.16673ZM5.01452 17.3334L4.64785 17.7001L4.61452 17.6667C4.48119 17.5334 4.28118 17.5334 4.14785 17.6667C4.01452 17.8001 4.01452 18.0001 4.14785 18.1334L4.41452 18.4001C4.48118 18.4667 4.54785 18.5001 4.64785 18.5001C4.74785 18.5001 4.81452 18.4667 4.88118 18.4001L5.48118 17.8001C5.61452 17.6667 5.61452 17.4667 5.48118 17.3334C5.34785 17.2001 5.11452 17.2001 5.01452 17.3334ZM20.6812 7.60006C20.5479 7.36673 20.3479 7.2334 20.0812 7.2334C19.8145 7.2334 19.6145 7.36673 19.4812 7.60006L18.3479 9.7334H21.8145L20.6812 7.60006ZM18.2145 10.4001H21.9145V18.7667H18.2145V10.4001ZM18.2145 20.6667C18.2145 21.2334 18.6812 21.6667 19.2145 21.6667H20.9145C21.4812 21.6667 21.9145 21.2001 21.9145 20.6667V19.4334H18.2145V20.6667Z" fill="#222222"/>
</g>
<defs>
<clipPath id="clip0_2534_24248">
<rect width="22" height="22" fill="white" transform="translate(0.414062)"/>
</clipPath>
</defs>
</svg>
