<svg width="22" height="22" viewBox="0 0 22 22" fill="none" xmlns="http://www.w3.org/2000/svg">
<g clip-path="url(#clip0_2715_3065)">
<path d="M12.4667 0.333008H2.16667C1.23333 0.333008 0.5 1.09967 0.5 2.03301V19.9663C0.5 20.8997 1.26667 21.6663 2.2 21.6663H15.0667C16 21.6663 16.7667 20.8997 16.7667 19.9663V4.56634C16.7333 4.36634 12.6333 0.333008 12.4667 0.333008ZM7.46667 2.89967H11C11.2 2.89967 11.3333 3.03301 11.3333 3.23301C11.3333 3.43301 11.2 3.56634 11 3.56634H7.46667C7.26667 3.56634 7.13333 3.43301 7.13333 3.23301C7.13333 3.03301 7.26667 2.89967 7.46667 2.89967ZM7.46667 4.63301H11C11.2 4.63301 11.3333 4.76634 11.3333 4.96634C11.3333 5.16634 11.2 5.29967 11 5.29967H7.46667C7.26667 5.29967 7.13333 5.16634 7.13333 4.96634C7.13333 4.79967 7.26667 4.63301 7.46667 4.63301ZM5.9 18.7663C5.9 19.033 5.66667 19.2663 5.4 19.2663H3.36667C3.1 19.2663 2.86667 19.033 2.86667 18.7663V16.9997C2.86667 16.6997 3.1 16.4997 3.36667 16.4997H5.4C5.7 16.4997 5.9 16.733 5.9 16.9997V18.7663ZM5.9 14.1663C5.9 14.4663 5.66667 14.6663 5.4 14.6663H3.36667C3.1 14.6663 2.86667 14.433 2.86667 14.1663V12.3997C2.86667 12.133 3.1 11.8997 3.36667 11.8997H5.4C5.7 11.8997 5.9 12.133 5.9 12.3997V14.1663ZM5.9 9.56634C5.9 9.83301 5.66667 10.0663 5.4 10.0663H3.36667C3.1 10.0663 2.86667 9.83301 2.86667 9.56634V7.79967C2.86667 7.53301 3.1 7.29967 3.36667 7.29967H5.4C5.7 7.29967 5.9 7.53301 5.9 7.79967V9.56634ZM5.9 4.96634C5.9 5.26634 5.66667 5.46634 5.4 5.46634H3.36667C3.1 5.46634 2.86667 5.23301 2.86667 4.96634V3.23301C2.86667 2.96634 3.1 2.73301 3.36667 2.73301H5.4C5.7 2.73301 5.9 2.96634 5.9 3.23301V4.96634ZM14.3667 19.0997H7.46667C7.26667 19.0997 7.13333 18.933 7.13333 18.7663C7.13333 18.5663 7.26667 18.433 7.46667 18.433H14.3667C14.5333 18.433 14.7 18.5663 14.7 18.7663C14.7 18.933 14.5333 19.0997 14.3667 19.0997ZM14.3667 17.333H7.46667C7.26667 17.333 7.13333 17.1997 7.13333 16.9997C7.13333 16.833 7.26667 16.6663 7.46667 16.6663H14.3667C14.5333 16.6663 14.7 16.833 14.7 16.9997C14.7 17.1997 14.5333 17.333 14.3667 17.333ZM14.3667 14.4997H7.46667C7.26667 14.4997 7.13333 14.333 7.13333 14.1663C7.13333 13.9663 7.26667 13.833 7.46667 13.833H14.3667C14.5333 13.833 14.7 13.9663 14.7 14.1663C14.7 14.333 14.5333 14.4997 14.3667 14.4997ZM14.3667 12.7663H7.46667C7.26667 12.7663 7.13333 12.5997 7.13333 12.433C7.13333 12.233 7.26667 12.0997 7.46667 12.0997H14.3667C14.5333 12.0997 14.7 12.233 14.7 12.433C14.7 12.5997 14.5333 12.7663 14.3667 12.7663ZM14.3667 9.89968H7.46667C7.26667 9.89968 7.13333 9.76634 7.13333 9.56634C7.13333 9.36634 7.26667 9.23301 7.46667 9.23301H14.3667C14.5333 9.23301 14.7 9.36634 14.7 9.56634C14.7 9.73301 14.5333 9.89968 14.3667 9.89968ZM14.3667 8.16634H7.46667C7.26667 8.16634 7.13333 7.99967 7.13333 7.83301C7.13333 7.63301 7.26667 7.49967 7.46667 7.49967H14.3667C14.5333 7.49967 14.7 7.63301 14.7 7.83301C14.7 7.99967 14.5333 8.16634 14.3667 8.16634ZM13.5 4.23301C13.1333 4.23301 12.8 3.93301 12.8 3.53301V1.46634L15.6 4.23301H13.5Z" fill="white"/>
<path d="M4.60046 8.16673L4.23379 8.5334L4.20046 8.50006C4.06712 8.36673 3.86712 8.36673 3.73379 8.50006C3.60046 8.6334 3.60046 8.8334 3.73379 8.96673L4.00046 9.2334C4.06712 9.30007 4.13379 9.3334 4.23379 9.3334C4.33379 9.3334 4.40046 9.30007 4.46712 9.2334L5.06712 8.6334C5.20046 8.50006 5.20046 8.30006 5.06712 8.16673C4.93379 8.0334 4.70046 8.0334 4.60046 8.16673ZM4.60046 17.3334L4.23379 17.7001L4.20046 17.6667C4.06712 17.5334 3.86712 17.5334 3.73379 17.6667C3.60046 17.8001 3.60046 18.0001 3.73379 18.1334L4.00046 18.4001C4.06712 18.4667 4.13379 18.5001 4.23379 18.5001C4.33379 18.5001 4.40046 18.4667 4.46712 18.4001L5.06712 17.8001C5.20046 17.6667 5.20046 17.4667 5.06712 17.3334C4.93379 17.2001 4.70046 17.2001 4.60046 17.3334ZM20.2671 7.60006C20.1338 7.36673 19.9338 7.2334 19.6671 7.2334C19.4005 7.2334 19.2005 7.36673 19.0671 7.60006L17.9338 9.7334H21.4005L20.2671 7.60006ZM17.8005 10.4001H21.5005V18.7667H17.8005V10.4001ZM17.8005 20.6667C17.8005 21.2334 18.2671 21.6667 18.8005 21.6667H20.5005C21.0671 21.6667 21.5005 21.2001 21.5005 20.6667V19.4334H17.8005V20.6667Z" fill="white"/>
</g>
<defs>
<clipPath id="clip0_2715_3065">
<rect width="22" height="22" fill="white"/>
</clipPath>
</defs>
</svg>
