<svg width="16" height="15" viewBox="0 0 16 15" fill="none" xmlns="http://www.w3.org/2000/svg">
<path fill-rule="evenodd" clip-rule="evenodd" d="M2.17569 0.0306132C1.77079 0.110113 1.34213 0.442363 1.15672 0.820394C1.09651 0.943207 1.03319 1.11943 1.01604 1.21199C0.996287 1.31855 0.984818 2.86955 0.984818 5.43855V9.4968H7.98482H14.9848V5.43855C14.9848 2.80889 14.9736 1.32111 14.9529 1.21214C14.8713 0.781551 14.5515 0.360113 14.1612 0.168707C14.0384 0.108488 13.8622 0.0451757 13.7696 0.0280194C13.5594 -0.0109806 2.37469 -0.00848059 2.17569 0.0306132ZM8.46579 2.05843C9.35372 2.28552 9.98372 3.09002 9.98372 3.9968C9.98372 4.42964 9.83613 4.85136 9.55504 5.22161L9.39622 5.4308L9.50235 5.51177C9.99391 5.88671 10.3522 6.49518 10.4542 7.12839C10.5224 7.55193 10.4709 7.75483 10.254 7.91674C10.1688 7.98039 10.1408 7.98118 7.98482 7.98118C5.82882 7.98118 5.80085 7.98039 5.7156 7.91674C5.49876 7.75483 5.44722 7.55193 5.51544 7.12839C5.61791 6.49236 5.97313 5.88868 6.46619 5.51261L6.57341 5.4308L6.4146 5.22161C6.13351 4.85136 5.98591 4.42964 5.98591 3.9968C5.98591 2.70939 7.22479 1.74102 8.46579 2.05843ZM4.25144 2.23011C4.42441 2.33149 4.49644 2.48139 4.47813 2.70199C4.46622 2.84558 4.44304 2.8933 4.30188 3.06486C4.02801 3.39774 3.92447 3.67436 3.92307 4.07705C3.92185 4.43658 4.0541 4.79139 4.28922 5.0593C4.45682 5.25024 4.48485 5.31158 4.48469 5.48693C4.48444 5.81139 4.18869 6.04571 3.88319 5.96343C3.5476 5.87308 3.13063 5.25636 2.98047 4.62833C2.92626 4.40158 2.91801 4.29099 2.93101 3.96555C2.95435 3.38077 3.10701 2.96514 3.46779 2.50408C3.74213 2.15346 3.97922 2.07058 4.25144 2.23011ZM12.2027 2.21508C12.4436 2.33799 12.8036 2.88524 12.9534 3.35618C13.0591 3.68821 13.0753 4.26786 12.9892 4.62833C12.875 5.10602 12.6322 5.54296 12.3223 5.82864C12.0953 6.03783 11.8165 6.03971 11.6194 5.83333C11.5259 5.73552 11.445 5.53283 11.4684 5.45539C11.4746 5.43521 11.4878 5.38118 11.4978 5.33536C11.5078 5.28955 11.5804 5.17705 11.6593 5.08536C11.9479 4.74974 12.0636 4.41389 12.0391 3.98305C12.02 3.64874 11.9409 3.4208 11.7663 3.19739C11.4923 2.84674 11.4776 2.81908 11.4776 2.65314C11.4776 2.26911 11.858 2.03927 12.2027 2.21508ZM7.75044 3.02393C7.46285 3.09949 7.21035 3.30652 7.07838 3.57493C6.97288 3.78949 6.97016 4.19255 7.07279 4.40402C7.17997 4.62486 7.30704 4.75777 7.52154 4.87343C7.70269 4.97111 7.74138 4.97996 7.98482 4.97933C8.21054 4.97874 8.27441 4.96618 8.41004 4.89571C8.64554 4.77333 8.7436 4.67864 8.86185 4.45933C8.95882 4.27952 8.96804 4.23939 8.96804 3.9968C8.96804 3.75402 8.95885 3.71418 8.86144 3.53352C8.68585 3.20789 8.41422 3.03296 8.05085 3.01149C7.93719 3.00477 7.80201 3.01036 7.75044 3.02393ZM5.35247 3.32914C5.54472 3.47577 5.6051 3.76099 5.48547 3.95724C5.42388 4.05821 5.42391 4.05839 5.48935 4.16933C5.54051 4.25602 5.55185 4.31674 5.54113 4.44614C5.51654 4.74243 5.33094 4.90305 5.0131 4.90305C4.8546 4.90305 4.84116 4.89624 4.68904 4.73899C4.35513 4.39377 4.32916 3.84114 4.62844 3.44877C4.81166 3.20855 5.12622 3.15655 5.35247 3.32914ZM11.1387 3.27686C11.5072 3.46483 11.6618 4.08914 11.4453 4.51439C11.3369 4.72724 11.1519 4.89046 10.9876 4.91821C10.8214 4.94627 10.5939 4.84021 10.4927 4.68749C10.4025 4.55143 10.3991 4.33599 10.4846 4.17649C10.5468 4.06039 10.5468 4.06005 10.4848 3.95821C10.4505 3.90208 10.4225 3.80436 10.4224 3.74102C10.422 3.34527 10.7968 3.10243 11.1387 3.27686ZM7.61332 6.04621C7.22082 6.15174 6.83469 6.45805 6.66032 6.80214C6.61535 6.89086 6.57857 6.97096 6.57857 6.98014C6.57857 6.9893 7.21138 6.9968 7.98482 6.9968C8.75826 6.9968 9.39107 6.9893 9.39107 6.98014C9.39107 6.91008 9.19701 6.60877 9.05807 6.46311C8.68776 6.07486 8.11804 5.91046 7.61332 6.04621ZM0.699787 10.5489C0.369537 10.6591 0.0872869 10.9819 0.0145057 11.3325C-0.0169006 11.4838 -0.00436934 11.6269 0.123131 12.5728C0.202412 13.1609 0.280412 13.6879 0.296506 13.7439C0.373068 14.011 0.616474 14.2873 0.885756 14.4131L1.03169 14.4812H7.98482H14.9379L15.0839 14.4131C15.3529 14.2875 15.5966 14.0109 15.673 13.7445C15.7369 13.5215 15.9885 11.5173 15.9684 11.3909C15.9153 11.0567 15.6883 10.7429 15.3961 10.5993L15.2192 10.5124L13.1048 10.5038L10.9904 10.4951L10.9793 11.1288C10.9684 11.7482 10.9662 11.7661 10.8827 11.9255C10.7744 12.1321 10.6208 12.2859 10.4135 12.3952L10.2504 12.4812H7.98482H5.71919L5.52229 12.3744C5.30326 12.2556 5.20885 12.158 5.08519 11.922C5.00385 11.7669 5.00122 11.7448 4.99038 11.1296L4.97926 10.4968L2.91172 10.4987C1.13519 10.5004 0.823881 10.5075 0.699787 10.5489ZM5.98482 10.9968V11.4968H7.98482H9.98482V10.9968V10.4968H7.98482H5.98482V10.9968Z" fill="#ffffff"/>
</svg>
