<svg width="40" height="48" viewBox="0 0 40 48" fill="none" xmlns="http://www.w3.org/2000/svg">
<path fill-rule="evenodd" clip-rule="evenodd" d="M18.4807 0.209077C13.1085 0.767152 8.1865 3.83129 5.16855 8.49663C4.50811 9.51745 3.66684 11.3047 3.26489 12.5403C1.40409 18.262 2.38243 24.2469 5.97447 29.115C6.02611 29.1849 5.10228 31.3833 3.40622 35.2267C1.34328 39.9016 0.757535 41.313 0.757813 41.6078C0.75846 42.3193 1.37549 42.957 2.06387 42.9577C2.24786 42.9579 3.7642 42.4977 5.43342 41.935C7.7852 41.1423 8.48525 40.9392 8.54384 41.0327C8.5853 41.099 9.16531 42.4236 9.83259 43.9761C10.5436 45.6303 11.1465 46.9051 11.2889 47.0554C11.7794 47.5735 12.6453 47.613 13.1637 47.1409C13.3706 46.9526 14.012 45.588 15.7801 41.5737L18.1225 36.2561H20.3773H22.6321L24.9746 41.5737C26.7477 45.5991 27.3837 46.952 27.5917 47.1409C28.1112 47.6129 28.9766 47.5735 29.4671 47.0554C29.6094 46.9051 30.2123 45.6303 30.9234 43.9761C31.5907 42.4236 32.1716 41.0974 32.2143 41.0292C32.2757 40.931 32.9262 41.12 35.3206 41.9316C37.005 42.5024 38.4995 42.9579 38.6879 42.9577C39.3804 42.957 39.9975 42.3211 39.9982 41.6078C39.9984 41.313 39.4127 39.9016 37.3497 35.2267C35.6537 31.3833 34.7299 29.1849 34.7815 29.115C37.5187 25.4053 38.7777 20.9189 38.3282 16.4755C37.456 7.85313 30.7121 1.07062 22.1498 0.204542C21.06 0.0942232 19.5682 0.0960742 18.4807 0.209077ZM10.5214 33.3465C11.5598 34.0349 13.2993 34.8925 14.4548 35.2857C14.9384 35.4502 15.3434 35.5907 15.3548 35.5979C15.3773 35.6121 12.341 42.5114 12.2893 42.5631C12.2718 42.5805 11.9137 41.7916 11.4935 40.8097C10.4206 38.3033 10.3535 38.1816 9.92273 37.9619C9.72162 37.8592 9.43481 37.7753 9.28534 37.7753C9.13597 37.7753 8.04518 38.1091 6.86147 38.5172C5.67766 38.9252 4.70136 39.2479 4.69173 39.2344C4.68211 39.2209 5.44268 37.4738 6.38187 35.3521L8.08951 31.4944L8.88905 32.1443C9.32875 32.5018 10.0633 33.0428 10.5214 33.3465ZM34.3847 35.3769C35.3182 37.485 36.0759 39.2191 36.0684 39.2303C36.0609 39.2417 35.0851 38.9189 33.9 38.5131C32.7149 38.1073 31.6224 37.7753 31.4721 37.7753C31.3219 37.7753 31.0343 37.8592 30.8332 37.9619C30.4025 38.1816 30.3354 38.3033 29.2625 40.8097C28.8423 41.7916 28.4841 42.5805 28.4666 42.5631C28.415 42.5114 25.3786 35.6121 25.4012 35.5979C25.4126 35.5907 25.8176 35.4508 26.3012 35.287C28.1634 34.6562 30.4422 33.3596 31.993 32.0484C32.3493 31.7471 32.6513 31.5103 32.6641 31.5223C32.6769 31.5342 33.4512 33.2688 34.3847 35.3769Z" fill="white"/>
<path fill-rule="evenodd" clip-rule="evenodd" d="M19.7329 8.19641C19.3964 8.38725 19.2797 8.58169 18.2202 10.7169C17.5888 11.9895 17.0623 13.0409 17.0503 13.0535C17.0382 13.0661 15.9906 13.2246 14.7222 13.4059C13.4537 13.5872 12.2627 13.7755 12.0755 13.8244C11.4382 13.991 10.9795 14.8313 11.1676 15.4874C11.2341 15.719 11.7619 16.3089 13.1121 17.6603L14.9654 19.5152L14.5415 21.9648C14.2834 23.456 14.1395 24.5327 14.1736 24.717C14.2951 25.3731 15.0964 25.9374 15.7274 25.8112C15.8851 25.7796 17.008 25.2325 18.2225 24.5953L20.4305 23.4368L22.6266 24.5947C23.8343 25.2316 24.953 25.7787 25.1125 25.8107C25.7462 25.9374 26.5474 25.3745 26.6691 24.717C26.7033 24.5327 26.5594 23.456 26.3012 21.9648L25.8774 19.5152L27.7307 17.6603C29.0809 16.3089 29.6087 15.719 29.6751 15.4874C29.8634 14.8311 29.4043 13.9905 28.7672 13.8249C28.5801 13.7762 27.3857 13.584 26.1132 13.3976C24.8406 13.2112 23.793 13.0524 23.785 13.0447C23.7771 13.0369 23.254 11.9895 22.6226 10.7169C21.5631 8.58169 21.4464 8.38725 21.1099 8.19641C20.9094 8.08276 20.5995 7.98975 20.4214 7.98975C20.2432 7.98975 19.9334 8.08276 19.7329 8.19641Z" fill="#1C5680"/>
</svg>
