<svg width="47" height="47" viewBox="0 0 47 47" fill="none" xmlns="http://www.w3.org/2000/svg">
<path fill-rule="evenodd" clip-rule="evenodd" d="M17.3545 0.144129C15.3683 0.572238 13.6839 2.27307 13.2635 4.27505C13.1578 4.77905 13.1311 5.78732 13.1298 9.33305L13.1283 13.7616H23.0195H32.9107L32.9092 9.33305C32.9079 5.78732 32.8812 4.77905 32.7754 4.27505C32.3505 2.25113 30.6634 0.564055 28.6395 0.139094C27.7422 -0.0492885 18.2323 -0.0450623 17.3545 0.144129ZM23.6513 4.14134C24.1412 4.39132 24.3683 4.8598 24.3683 5.62025V6.20833H24.9564C25.7168 6.20833 26.1853 6.43547 26.4353 6.92535C26.5348 7.12048 26.6163 7.4048 26.6163 7.55713C26.6163 7.70945 26.5348 7.99378 26.4353 8.1889C26.1853 8.67879 25.7168 8.90592 24.9564 8.90592H24.3683V9.494C24.3683 10.2545 24.1412 10.7229 23.6513 10.9729C23.1906 11.2079 22.8146 11.2019 22.3705 10.9523C21.8811 10.6773 21.6707 10.2388 21.6707 9.494V8.90592H21.076C20.0958 8.90592 19.4227 8.35678 19.4227 7.55713C19.4227 6.75747 20.0958 6.20833 21.076 6.20833H21.6707V5.62025C21.6707 4.87509 21.8984 4.39401 22.3686 4.14575C22.8024 3.91672 23.2082 3.91537 23.6513 4.14134ZM13.1531 18.5498C13.2002 20.8023 13.2576 21.1729 13.7619 22.4806C14.5424 24.5044 16.4983 26.4631 18.5155 27.241C19.9788 27.8054 20.2033 27.8344 23.0645 27.8301C25.96 27.8257 26.2911 27.7768 27.7774 27.1341C29.7163 26.296 31.5266 24.4269 32.2721 22.4935C32.7818 21.1716 32.8387 20.8065 32.8859 18.5498L32.9297 16.4592H23.0195H13.1093L13.1531 18.5498ZM9.66495 29.7307C7.4897 31.0954 5.46713 32.3852 5.17039 32.597C2.88994 34.225 1.10637 36.8668 0.403021 39.6585C0.0821868 40.9319 0 41.8256 0 44.0398V46.0428H23.0195H46.039V44.0398C46.039 42.9381 45.9964 41.6938 45.9443 41.2748C45.6744 39.1034 44.836 37.0001 43.5438 35.2525C42.8875 34.3649 41.5693 33.0741 40.7309 32.498C40.094 32.0604 32.9197 27.5368 32.5417 27.3345C32.3959 27.2565 32.3071 27.2854 32.0589 27.4916L31.7547 27.7441L31.7482 31.2193L31.7417 34.6944L32.8432 34.728C33.8004 34.757 34.0109 34.7923 34.4501 34.9966C35.1591 35.3266 35.6479 35.8027 35.9895 36.4961L36.2827 37.0911L36.3122 38.7801C36.3472 40.7806 36.2626 41.167 35.6576 41.772C35.1329 42.2968 34.6381 42.4461 33.424 42.4461C32.5718 42.4461 32.3927 42.4192 32.0819 42.2445C31.4329 41.8797 31.2179 41.1422 31.5631 40.4655C31.813 39.9756 32.2815 39.7485 33.042 39.7485H33.63V38.7208C33.63 37.9064 33.6007 37.6638 33.4888 37.5518C33.3659 37.429 32.9508 37.4105 30.303 37.4105C27.6552 37.4105 27.2402 37.429 27.1172 37.5518C27.0053 37.6638 26.976 37.9064 26.976 38.7208V39.7485H27.5641C28.3245 39.7485 28.793 39.9756 29.043 40.4655C29.1425 40.6606 29.224 40.9449 29.224 41.0973C29.224 41.5434 28.9059 42.0615 28.5069 42.265C28.2158 42.4136 27.9768 42.4461 27.1754 42.4461C25.9684 42.4461 25.4722 42.2959 24.9484 41.772C24.3434 41.167 24.2589 40.7806 24.2938 38.7801L24.3233 37.0911L24.6165 36.4961C24.9579 35.803 25.4463 35.3271 26.1559 34.996C26.6047 34.7865 26.7945 34.7566 27.8527 34.7277L29.0441 34.6953V32.1414C29.0441 30.7368 29.034 29.5875 29.0217 29.5875C29.0093 29.5875 28.6148 29.7247 28.1449 29.8923C26.5041 30.4777 26.0713 30.5317 23.0195 30.5317C20.0008 30.5317 19.4899 30.4702 18.0289 29.9305C17.6333 29.7843 17.218 29.6425 17.1059 29.6154L16.9022 29.566L16.9261 32.2916L16.9499 35.017L17.3995 35.2447C17.9753 35.5362 18.8678 36.4312 19.141 36.9911C19.7647 38.2695 19.7478 39.4908 19.0889 40.7564C17.8538 43.1289 14.6329 43.5989 12.7197 41.6857C11.4486 40.4147 11.166 38.6417 11.9713 36.9911C12.262 36.3955 13.1493 35.5295 13.7802 35.2259L14.2973 34.9771V31.4007V27.8244L14.0007 27.537C13.8377 27.3789 13.6853 27.2496 13.6622 27.2496C13.639 27.2496 11.8403 28.3661 9.66495 29.7307ZM14.9052 37.6859C14.5256 37.8863 14.2073 38.4168 14.2073 38.8493C14.2073 39.5139 14.888 40.1981 15.5495 40.1981C16.2207 40.1981 16.9049 39.5205 16.9049 38.8559C16.9049 38.4036 16.5891 37.8861 16.1879 37.6815C15.7449 37.4555 15.3391 37.4568 14.9052 37.6859Z" fill="white"/>
</svg>
