<svg width="48" height="49" viewBox="0 0 48 49" fill="none" xmlns="http://www.w3.org/2000/svg">
<path fill-rule="evenodd" clip-rule="evenodd" d="M17.0963 30.6316C19.3398 37.2347 28.7153 37.4773 30.8235 30.6316C33.3056 32.8631 40.6486 33.3126 43.3813 34.8361C44.2444 35.3174 45.0281 35.93 45.6526 36.7613C46.6032 38.0183 47.188 39.6611 47.3471 41.7494L47.9159 46.4272C47.7767 47.903 46.9414 48.7542 45.2906 48.8775H2.62531C0.978525 48.7502 0.139221 47.903 0 46.4272L0.568817 41.7494C0.727927 39.6651 1.31266 38.0223 2.26334 36.7613C2.89182 35.93 3.67146 35.3174 4.53463 34.8361C7.27132 33.3126 14.6142 32.8671 17.0963 30.6316ZM36.4878 37.6762H37.9238C38.1943 37.6762 38.4131 37.895 38.4131 38.1655V40.3095H40.5571C40.8236 40.3095 41.0463 40.5283 41.0463 40.7987V42.2347C41.0463 42.5012 40.8276 42.724 40.5571 42.724H38.4131V44.868C38.4131 45.1345 38.1943 45.3572 37.9238 45.3572H36.4878C36.2213 45.3572 35.9986 45.1385 35.9986 44.868V42.724H33.8546C33.5881 42.724 33.3653 42.5052 33.3653 42.2347V40.7987C33.3653 40.5322 33.5841 40.3095 33.8546 40.3095H35.9986V38.1655C35.9986 37.895 36.2174 37.6762 36.4878 37.6762ZM15.378 14.6451C14.9086 14.665 14.5506 14.7604 14.3079 14.9235C14.1687 15.015 14.0653 15.1343 14.0017 15.2775C13.9301 15.4366 13.8943 15.6276 13.9022 15.8463C13.9221 16.4907 14.2602 17.338 14.9126 18.3086L14.9205 18.3245L17.0446 21.7016C17.8959 23.054 18.7869 24.4343 19.8967 25.4486C20.9627 26.4232 22.2555 27.0835 23.9659 27.0875C25.8195 27.0914 27.172 26.4073 28.2738 25.377C29.4194 24.307 30.3184 22.8392 31.2094 21.3714L33.6 17.4335C34.0455 16.4152 34.2086 15.735 34.1052 15.3372C34.0455 15.0985 33.783 14.9832 33.3335 14.9593C33.238 14.9553 33.1426 14.9553 33.0431 14.9553C32.9357 14.9593 32.8243 14.9673 32.709 14.9752C32.6453 14.9792 32.5817 14.9752 32.526 14.9633C32.3152 14.9752 32.0924 14.9593 31.8697 14.9275L32.6891 11.3038C26.6111 12.2624 22.0685 7.74766 15.6445 10.4008L16.1099 14.6769C15.8473 14.6888 15.6047 14.6809 15.378 14.6451ZM34.1529 13.8853C34.7416 14.0643 35.1195 14.4382 35.2746 15.0428C35.4457 15.7111 35.2587 16.6538 34.6939 17.9426C34.6819 17.9665 34.67 17.9904 34.6581 18.0102L32.2356 21.9959C31.3048 23.5313 30.3581 25.0707 29.0932 26.2521C27.7845 27.4773 26.1736 28.2927 23.9659 28.2887C21.9054 28.2848 20.3581 27.4972 19.0852 26.3357C17.8561 25.2139 16.9173 23.7621 16.0263 22.346L13.9022 18.9689C13.1266 17.8114 12.7208 16.7533 12.697 15.8861C12.685 15.4764 12.7566 15.1065 12.9038 14.7803C13.0629 14.4382 13.3056 14.1518 13.6317 13.9331C13.7869 13.8296 13.9579 13.7421 14.1449 13.6705C14.0056 11.8408 13.9539 9.53367 14.0454 7.60049C14.0931 7.14305 14.1807 6.68561 14.3079 6.22419C14.8489 4.28703 16.2093 2.72775 17.8959 1.65376C18.4886 1.27587 19.1409 0.961633 19.8251 0.715013C23.9062 -0.76073 29.312 0.0427739 32.2078 3.17326C33.3852 4.45011 34.1251 6.14066 34.2842 8.37615L34.1529 13.8853Z" fill="white"/>
</svg>
