<svg width="36" height="35" viewBox="0 0 36 35" fill="none" xmlns="http://www.w3.org/2000/svg">
<path d="M28.6482 21.2717C28.182 21.7234 27.9679 22.3766 28.0741 23.0173L29.6739 31.8715C29.8089 32.622 29.4922 33.3814 28.8641 33.8151C28.2486 34.265 27.4298 34.319 26.7585 33.9591L18.788 29.8019C18.5108 29.6544 18.2031 29.5752 17.8881 29.5662H17.4004C17.2313 29.5914 17.0657 29.6454 16.9145 29.7282L8.94216 33.9051C8.54804 34.1031 8.10173 34.1733 7.66442 34.1031C6.59904 33.9015 5.88818 32.8865 6.06274 31.8157L7.66442 22.9615C7.7706 22.3155 7.55644 21.6586 7.09034 21.1997L0.591856 14.901C0.0483667 14.3737 -0.140595 13.5818 0.107755 12.8674C0.348906 12.1547 0.96438 11.6346 1.70763 11.5177L10.6518 10.2201C11.3321 10.1499 11.9296 9.73602 12.2355 9.12415L16.1767 1.04379C16.2703 0.863824 16.3908 0.698258 16.5366 0.557887L16.6986 0.431912C16.7832 0.338331 16.8803 0.260947 16.9883 0.19796L17.1845 0.125974L17.4904 0H18.2481C18.9247 0.0701857 19.5204 0.475103 19.8317 1.07978L23.8251 9.12415C24.1131 9.71263 24.6728 10.1211 25.3188 10.2201L34.263 11.5177C35.0189 11.6256 35.6505 12.1475 35.9007 12.8674C36.1364 13.589 35.9331 14.3809 35.3788 14.901L28.6482 21.2717Z" fill="white"/>
</svg>
