<svg width="15" height="18" viewBox="0 0 15 18" fill="none" xmlns="http://www.w3.org/2000/svg">
<path opacity="0.75" fill-rule="evenodd" clip-rule="evenodd" d="M7.3416 0.0489456C6.98758 0.0948297 6.56373 0.231196 6.17712 0.423596C5.23304 0.893421 4.58835 1.68781 4.32629 2.70419C4.22743 3.08762 4.19983 3.34399 4.1962 3.91278L4.19293 4.4255L4.1452 4.54678C4.11896 4.61349 4.09312 4.72024 4.08776 4.78397C4.06736 5.0274 4.15216 5.4365 4.28864 5.7531C4.41672 6.05015 4.51514 6.18199 4.81558 6.459C4.87417 6.51303 4.9081 6.56919 4.96778 6.71101C5.32894 7.56924 5.79465 8.1775 6.40306 8.58566C7.141 9.0807 7.89939 9.13413 8.66958 8.74533C8.82649 8.66611 9.11578 8.46521 9.28545 8.3176C9.69818 7.95856 10.094 7.37242 10.3587 6.72839C10.4318 6.55042 10.4383 6.54138 10.6197 6.36341C10.9155 6.07312 11.0644 5.81424 11.1665 5.41251C11.2559 5.06115 11.2657 4.73249 11.1932 4.5232C11.1582 4.4225 11.1532 4.36045 11.1383 3.84536C11.1134 2.98101 11.0831 2.74069 10.9469 2.32552C10.7058 1.59039 10.3061 1.17091 9.6934 1.01018C9.58827 0.982599 9.48473 0.948551 9.46334 0.934543C9.44194 0.920517 9.41016 0.871209 9.39271 0.82496C9.2886 0.549047 9.03504 0.316603 8.6862 0.177299C8.50386 0.104476 8.37046 0.0762675 8.10816 0.0550809C7.8955 0.0378918 7.45405 0.0343636 7.3416 0.0489456ZM6.95923 2.9739C7.17044 3.01742 7.27933 3.02958 7.53279 3.03793C7.88583 3.04955 8.09799 3.03181 8.43802 2.96222C8.61737 2.92551 8.71143 2.91625 8.90583 2.91611C9.12394 2.91597 9.16395 2.92084 9.29193 2.96303C9.4774 3.02421 9.6592 3.14685 9.82382 3.32183C10.0787 3.59283 10.1921 3.77132 10.2379 3.97361C10.2742 4.13412 10.2688 4.98643 10.2297 5.26845C10.0238 6.75208 9.36778 7.84658 8.39005 8.3376C7.96076 8.55321 7.52199 8.57358 7.08067 8.3984C6.27561 8.07883 5.63013 7.26666 5.29123 6.14695C5.14918 5.67756 5.0751 5.17863 5.06144 4.59931C5.04703 3.98698 5.08591 3.83501 5.33816 3.51788C5.50115 3.31299 5.59997 3.21218 5.72857 3.11961C6.03406 2.89974 6.39304 2.85722 6.95923 2.9739ZM5.35512 8.79653C5.31405 8.81516 5.17259 8.90066 5.04074 8.98652C4.60085 9.27296 4.02782 9.56671 3.20509 9.9275C2.49764 10.2377 1.90944 10.5548 1.69451 10.7416C1.44844 10.9555 1.28486 11.2794 1.13629 11.8469C0.932609 12.6249 0.792854 14.0078 0.769199 15.4794C0.75858 16.1408 0.767635 16.2413 0.85518 16.4323C0.948008 16.6349 1.21118 16.8854 1.45298 17.0014L1.59534 17.0697H7.67238H13.7494L13.9058 16.9889C14.172 16.8514 14.4318 16.5735 14.5217 16.33C14.5833 16.163 14.5725 14.9005 14.5012 13.9499C14.3914 12.4856 14.1565 11.428 13.8364 10.9566C13.643 10.6718 13.2127 10.4106 12.1733 9.94727C11.0916 9.46501 10.6337 9.22826 10.2048 8.92937C9.8788 8.70221 9.77028 8.70485 9.68169 8.94204C9.66335 8.99112 9.61554 9.16425 9.57544 9.32675C9.42992 9.91636 9.15943 10.6712 8.92787 11.1339C8.72796 11.5334 8.44659 12.012 8.41166 12.012C8.39669 12.012 8.33497 11.8157 8.23959 11.4646L8.17351 11.2214L8.24666 11.122C8.34021 10.9949 8.36129 10.904 8.36374 10.6173C8.36555 10.4048 8.36228 10.3795 8.32142 10.2914C8.26326 10.1658 8.13812 10.0396 8.01457 9.98173C7.92221 9.93851 7.8985 9.9352 7.68052 9.93513C7.4971 9.93508 7.42579 9.94207 7.35384 9.96715C7.23115 10.0099 7.07299 10.1563 7.01795 10.2782C6.97995 10.3622 6.97661 10.3921 6.97661 10.6477C6.97661 10.8986 6.9804 10.9339 7.01537 11.0097C7.03668 11.0559 7.07384 11.1171 7.09793 11.1458C7.12202 11.1744 7.14173 11.2187 7.14171 11.2443C7.14169 11.3299 6.94371 12.012 6.91888 12.012C6.89938 12.012 6.77954 11.8239 6.63659 11.5688C6.25778 10.893 5.95333 10.1132 5.75786 9.31806C5.66955 8.95881 5.62769 8.84608 5.56405 8.79601C5.50956 8.75315 5.45038 8.75331 5.35512 8.79653ZM5.42203 9.89161C5.83247 11.2496 6.40522 12.2909 7.2831 13.2755C7.37852 13.3825 7.49267 13.4939 7.53677 13.5231C7.68825 13.6235 7.75819 13.5921 8.0231 13.3051C8.70189 12.5696 9.2135 11.7392 9.64352 10.6752C9.77453 10.351 9.93553 9.86636 10.0004 9.60089C10.0415 9.43244 10.0519 9.40788 10.0766 9.42128C10.0922 9.42982 10.2533 9.52339 10.4344 9.62922C10.6156 9.73507 10.8053 9.83885 10.8559 9.85984L10.948 9.89801V10.1792C10.948 10.3338 10.9431 10.4963 10.9371 10.5404C10.927 10.6135 10.9207 10.6221 10.8632 10.6405C10.7152 10.6879 10.4932 10.8193 10.3718 10.9316C10.1309 11.1543 9.91966 11.5003 9.82902 11.8208C9.67823 12.3541 9.27951 14.3344 9.27951 14.5501C9.27951 14.6973 9.32524 14.8283 9.41191 14.9296C9.51376 15.0486 9.75893 15.2007 9.91782 15.2435C9.95791 15.2543 10.0256 15.2897 10.0683 15.3223C10.1912 15.4161 10.2528 15.4415 10.3571 15.4415C10.4789 15.4414 10.5835 15.3894 10.6519 15.2951C10.7552 15.1525 10.7642 15.0156 10.6799 14.8717C10.6219 14.7727 10.5316 14.7116 10.4038 14.6848C10.313 14.6657 10.2983 14.6673 10.2139 14.7053C10.0281 14.7889 9.87544 14.7637 9.78611 14.6347C9.74985 14.5823 9.74626 14.5618 9.75432 14.4539C9.77761 14.1428 10.2422 12.068 10.3564 11.7651C10.4459 11.5278 10.6786 11.2515 10.8808 11.1425C10.9832 11.0873 11.0031 11.0828 11.1479 11.0825C11.3334 11.0821 11.4278 11.1124 11.5834 11.2222C11.839 11.4024 12.0046 11.7067 12.1294 12.2254C12.3073 12.9647 12.5991 14.4033 12.5991 14.5411C12.5991 14.6136 12.5937 14.6228 12.5166 14.6796C12.3819 14.779 12.3289 14.788 12.1943 14.7341C11.8782 14.6077 11.6226 14.7586 11.6197 15.0735C11.6188 15.1731 11.6255 15.1989 11.668 15.2602C11.7267 15.3449 11.85 15.4308 11.9362 15.4469C12.0197 15.4626 12.1409 15.4286 12.2255 15.3659C12.2915 15.3169 12.4286 15.2465 12.6594 15.1434C12.7951 15.0827 12.9591 14.9222 13.0263 14.7842C13.1039 14.625 13.0964 14.5102 12.968 13.8804C12.845 13.2776 12.6275 12.2966 12.5382 11.9422C12.4312 11.5171 12.2611 11.1965 12.0174 10.9605C11.8695 10.8173 11.742 10.7373 11.5591 10.6727L11.426 10.6258L11.4212 10.3803C11.4185 10.2454 11.4203 10.1349 11.4252 10.1349C11.4301 10.1349 11.6474 10.2294 11.908 10.3448C12.7247 10.7064 13.1852 10.9544 13.3626 11.128C13.4946 11.2573 13.6179 11.5221 13.7191 11.8934C13.9431 12.7157 14.0934 14.2244 14.0937 15.6541C14.0939 16.1394 14.0936 16.1421 14.0504 16.2289C13.9776 16.3749 13.8992 16.4507 13.7307 16.5377L13.5756 16.6178H7.66429H1.75296L1.63036 16.556C1.47428 16.4775 1.36837 16.3796 1.29245 16.2438L1.23242 16.1365L1.23265 15.8253C1.23379 14.1881 1.41893 12.4559 1.67704 11.6676C1.79584 11.3048 1.91395 11.1435 2.19524 10.9602C2.42859 10.8081 3.76058 10.1697 3.84459 10.1697C3.87645 10.1697 3.89154 10.8928 3.89157 12.4211L3.89161 13.5516L3.75542 13.6152C3.52396 13.7233 3.35755 13.9068 3.27247 14.1478C3.22471 14.2831 3.21684 14.5203 3.25532 14.6648C3.33707 14.9718 3.61877 15.2524 3.9055 15.3124C4.03882 15.3403 4.28228 15.3343 4.41302 15.3C4.76662 15.207 5.03871 14.8316 5.03871 14.4366C5.03871 14.0848 4.85314 13.7941 4.51806 13.621L4.36088 13.5398V11.7334V9.92696L4.45212 9.88113C4.57976 9.81703 5.04375 9.55106 5.16877 9.47035L5.27275 9.40321L5.29356 9.46927C5.30498 9.5056 5.3628 9.69565 5.42203 9.89161Z" fill="#26323C"/>
</svg>
