<svg width="15" height="17" viewBox="0 0 15 17" fill="none" xmlns="http://www.w3.org/2000/svg">
<path opacity="0.75" d="M2.20176 16.2505L2.20176 16.2505L2.1821 16.1618L2.17344 16.1226L2.13334 16.1226L1.44805 16.1219C1.14779 16.1216 0.974314 16.1195 0.861444 16.111C0.750522 16.1028 0.701926 16.0886 0.65054 16.0653C0.487363 15.9912 0.380997 15.8463 0.340201 15.6275L2.20176 16.2505ZM2.20176 16.2505C2.23328 16.3929 2.26972 16.488 2.32097 16.5582C2.3714 16.6273 2.43923 16.6764 2.54172 16.7208C2.8355 16.848 3.19529 16.6697 3.28179 16.3484C3.28604 16.3326 3.29054 16.3013 3.29442 16.2527C3.29823 16.2051 3.30124 16.144 3.30337 16.0706C3.30764 15.924 3.30836 15.7299 3.30516 15.5002C3.30029 15.1519 3.29678 14.9702 3.28594 14.8599C3.28058 14.8054 3.27362 14.7706 3.26467 14.7431C3.2558 14.7158 3.24433 14.6936 3.22721 14.6637C3.10436 14.4495 2.87348 14.3468 2.6126 14.3957C2.58493 14.4009 2.5484 14.4168 2.50692 14.4426C2.46612 14.4679 2.42341 14.5011 2.3838 14.5379C2.34417 14.5747 2.30853 14.6142 2.28144 14.6517C2.25374 14.6901 2.23753 14.723 2.23243 14.7467C2.22102 14.7999 2.20506 14.8759 2.19701 14.9156C2.19363 14.9323 2.18842 14.9571 2.17161 14.9778C2.15325 15.0005 2.12769 15.0111 2.10041 15.0169C2.07364 15.0227 2.03854 15.0253 1.99335 15.0267C1.94751 15.0281 1.88802 15.0283 1.81113 15.0283H1.48896H1.43896L1.43896 14.9783L1.439 13.6791C1.43906 12.3532 1.45379 12.135 1.58176 11.6884C1.96485 10.3513 3.13392 9.30371 4.49256 9.08095C4.64556 9.05587 4.87587 9.04364 5.10405 9.04364C5.33222 9.04364 5.56254 9.05587 5.71553 9.08095C6.24534 9.16782 6.81923 9.4136 7.26406 9.74367L7.23427 9.78382L7.26407 9.74367C7.98227 10.2767 8.44152 10.9682 8.67534 11.8671C8.74453 12.1331 8.74908 12.2387 8.76087 13.5669L8.77339 14.9801L8.77385 15.0319L8.72208 15.0305L8.37345 15.0214L8.02481 15.0122L7.98362 15.0111L7.97682 14.9704L7.95791 14.8575C7.95791 14.8575 7.95791 14.8575 7.95791 14.8575C7.9066 14.5512 7.67359 14.3653 7.38042 14.3896C7.17284 14.4068 7.01056 14.5153 6.92664 14.6887L6.92664 14.6887C6.91022 14.7226 6.89915 14.7477 6.89087 14.7784C6.88254 14.8093 6.87653 14.8478 6.87271 14.9078C6.86499 15.0291 6.8666 15.2292 6.87124 15.615C6.87599 16.0109 6.87878 16.2095 6.88966 16.3237C6.89504 16.3802 6.90215 16.4125 6.91099 16.4362C6.9197 16.4595 6.93096 16.4771 6.94992 16.5047L6.94992 16.5047C7.01278 16.5964 7.0761 16.6571 7.14787 16.6955C7.21955 16.7338 7.30374 16.752 7.41189 16.752C7.49272 16.752 7.54287 16.7479 7.58556 16.7364C7.62745 16.725 7.66536 16.7056 7.72005 16.6694C7.78565 16.626 7.84551 16.5591 7.88906 16.484C7.93275 16.4086 7.95778 16.3288 7.95832 16.2609L7.95903 16.1722L7.95942 16.1226L8.00898 16.1226L8.72715 16.1219C9.1374 16.1215 9.35779 16.1158 9.4972 16.0843C9.56498 16.069 9.61112 16.048 9.64964 16.0197C9.6889 15.9909 9.72288 15.9526 9.76442 15.8981L9.80417 15.9285L9.76442 15.8981L9.84736 15.7894L9.85701 14.0607C9.86728 12.2163 9.85795 12.0572 9.71857 11.5046C9.34486 10.0226 8.22365 8.77488 6.77487 8.22955C6.52935 8.13713 6.0243 8.00593 5.79781 7.97548L5.80447 7.92592L5.7978 7.97548L5.64287 7.95463L5.5993 7.94876L5.59954 7.90481L5.61003 5.94617L5.62052 3.98754L5.62056 3.98008L5.62277 3.97297L5.71089 3.6895C5.87863 3.14989 6.12471 2.73692 6.51284 2.34427L6.5484 2.37942L6.51285 2.34427C7.07863 1.77195 7.81726 1.46616 8.63828 1.4636C9.08219 1.46223 9.4205 1.52117 9.7657 1.66167C10.5211 1.96907 11.0645 2.47271 11.4103 3.1869C11.5569 3.4896 11.6412 3.72354 11.6865 4.08617C11.7315 4.44596 11.738 4.93256 11.7316 5.74013L11.7225 6.87879L11.7223 6.91129L11.6925 6.92424L11.4442 7.03215C11.1424 7.16332 10.8304 7.38361 10.6543 7.58775C9.88311 8.48173 9.92764 9.77177 10.7555 10.5843C11.0079 10.832 11.2828 10.9994 11.6238 11.1129C11.7358 11.1501 11.8097 11.1704 11.9001 11.1819C11.9916 11.1935 12.1015 11.1962 12.2858 11.1962C12.4709 11.1962 12.5805 11.1935 12.6717 11.1819C12.7617 11.1704 12.8351 11.1499 12.9477 11.1121C13.3695 10.9705 13.7066 10.7339 13.9871 10.3823C14.7168 9.46786 14.5739 8.12062 13.6651 7.36148C13.4813 7.20796 13.181 7.03818 13.0061 6.98689L12.8689 6.94667L12.8329 6.93614V6.89869V5.58558C12.8329 4.24588 12.8131 3.93793 12.7034 3.49779C12.3328 2.01114 11.119 0.81212 9.62753 0.459274C9.11579 0.338228 8.64765 0.31633 8.11255 0.388639C6.39791 0.620304 5.00067 1.88696 4.60419 3.56902C4.50227 4.00147 4.47774 4.50949 4.47696 6.2876L4.47622 7.94183L4.4762 7.99181M2.20176 16.2505L4.4762 7.99181M4.4762 7.99181H4.42622M4.4762 7.99181H4.42622M4.42622 7.99181H4.336C4.3171 7.99181 4.26513 7.99957 4.19193 8.01427C4.1209 8.02854 4.03491 8.04828 3.95134 8.06999C3.05731 8.30234 2.32534 8.7249 1.6991 9.36971C0.979701 10.1104 0.557306 10.9465 0.386228 11.9686M4.42622 7.99181L0.386228 11.9686M0.386228 11.9686C0.371079 12.0591 0.356899 12.3138 0.345294 12.6546M0.386228 11.9686L0.345294 12.6546M0.345294 12.6546C0.333753 12.9935 0.324857 13.4133 0.319651 13.8305M0.345294 12.6546L0.319651 13.8305M0.319651 13.8305C0.314445 14.2478 0.312934 14.6622 0.316148 14.9907M0.319651 13.8305L0.316148 14.9907M0.316148 14.9907C0.317755 15.1549 0.320542 15.2974 0.324624 15.4078M0.316148 14.9907L0.324624 15.4078M0.324624 15.4078C0.328763 15.5197 0.334141 15.595 0.3402 15.6275L0.324624 15.4078ZM13.0371 8.28699C13.5587 8.82448 13.4023 9.69634 12.7262 10.0048C12.1488 10.2682 11.4681 9.97419 11.2689 9.37426C11.1833 9.11655 11.2121 8.7684 11.3392 8.53486C11.6802 7.9084 12.5454 7.78036 13.0371 8.28699Z" fill="#26323C" stroke="white" stroke-width="0.1"/>
</svg>
