<svg width="95" height="74" viewBox="0 0 95 74" fill="none" xmlns="http://www.w3.org/2000/svg">
<g opacity="0.1">
<circle cx="2.5" cy="3.14734" r="2.5" fill="#C4C4C4"/>
<circle cx="13.75" cy="3.14734" r="2.5" fill="#C4C4C4"/>
<circle cx="47.5" cy="3.14734" r="2.5" fill="#C4C4C4"/>
<circle cx="25" cy="3.14734" r="2.5" fill="#C4C4C4"/>
<circle cx="58.75" cy="3.14734" r="2.5" fill="#C4C4C4"/>
<circle cx="92.5" cy="3.14734" r="2.5" fill="#C4C4C4"/>
<circle cx="36.25" cy="3.14734" r="2.5" fill="#C4C4C4"/>
<circle cx="70" cy="3.14734" r="2.5" fill="#C4C4C4"/>
<circle cx="81.25" cy="3.14734" r="2.5" fill="#C4C4C4"/>
<circle cx="2.5" cy="71.1473" r="2.5" fill="#C4C4C4"/>
<circle cx="13.75" cy="71.1473" r="2.5" fill="#C4C4C4"/>
<circle cx="47.5" cy="71.1473" r="2.5" fill="#C4C4C4"/>
<circle cx="25" cy="71.1473" r="2.5" fill="#C4C4C4"/>
<circle cx="58.75" cy="71.1473" r="2.5" fill="#C4C4C4"/>
<circle cx="92.5" cy="71.1473" r="2.5" fill="#C4C4C4"/>
<circle cx="36.25" cy="71.1473" r="2.5" fill="#C4C4C4"/>
<circle cx="70" cy="71.1473" r="2.5" fill="#C4C4C4"/>
<circle cx="81.25" cy="71.1473" r="2.5" fill="#C4C4C4"/>
<circle cx="2.5" cy="37.1473" r="2.5" fill="#C4C4C4"/>
<circle cx="13.75" cy="37.1473" r="2.5" fill="#C4C4C4"/>
<circle cx="47.5" cy="37.1473" r="2.5" fill="#C4C4C4"/>
<circle cx="25" cy="37.1473" r="2.5" fill="#C4C4C4"/>
<circle cx="58.75" cy="37.1473" r="2.5" fill="#C4C4C4"/>
<circle cx="92.5" cy="37.1473" r="2.5" fill="#C4C4C4"/>
<circle cx="36.25" cy="37.1473" r="2.5" fill="#C4C4C4"/>
<circle cx="70" cy="37.1473" r="2.5" fill="#C4C4C4"/>
<circle cx="81.25" cy="37.1473" r="2.5" fill="#C4C4C4"/>
<circle cx="2.5" cy="20.1473" r="2.5" fill="#C4C4C4"/>
<circle cx="13.75" cy="20.1473" r="2.5" fill="#C4C4C4"/>
<circle cx="47.5" cy="20.1473" r="2.5" fill="#C4C4C4"/>
<circle cx="25" cy="20.1473" r="2.5" fill="#C4C4C4"/>
<circle cx="58.75" cy="20.1473" r="2.5" fill="#C4C4C4"/>
<circle cx="92.5" cy="20.1473" r="2.5" fill="#C4C4C4"/>
<circle cx="36.25" cy="20.1473" r="2.5" fill="#C4C4C4"/>
<circle cx="70" cy="20.1473" r="2.5" fill="#C4C4C4"/>
<circle cx="81.25" cy="20.1473" r="2.5" fill="#C4C4C4"/>
<circle cx="2.5" cy="54.1473" r="2.5" fill="#C4C4C4"/>
<circle cx="13.75" cy="54.1473" r="2.5" fill="#C4C4C4"/>
<circle cx="47.5" cy="54.1473" r="2.5" fill="#C4C4C4"/>
<circle cx="25" cy="54.1473" r="2.5" fill="#C4C4C4"/>
<circle cx="58.75" cy="54.1473" r="2.5" fill="#C4C4C4"/>
<circle cx="92.5" cy="54.1473" r="2.5" fill="#C4C4C4"/>
<circle cx="36.25" cy="54.1473" r="2.5" fill="#C4C4C4"/>
<circle cx="70" cy="54.1473" r="2.5" fill="#C4C4C4"/>
<circle cx="81.25" cy="54.1473" r="2.5" fill="#C4C4C4"/>
</g>
</svg>
