<svg width="27" height="30" viewBox="0 0 27 30" fill="none" xmlns="http://www.w3.org/2000/svg">
<path fill-rule="evenodd" clip-rule="evenodd" d="M20.1163 1.15293L20.1178 2.27736C24.2498 2.6012 26.9792 5.41679 26.9837 9.73463L27 22.3733C27.0059 27.0809 24.0484 29.9775 19.3077 29.985L7.72783 30C3.01679 30.006 0.0222249 27.0405 0.0163009 22.3193L9.97462e-06 9.82908C-0.00591399 5.48276 2.62729 2.67466 6.75926 2.29535L6.75778 1.17092C6.75629 0.511247 7.24502 0.0149959 7.89666 0.0149959C8.5483 0.0134966 9.03702 0.508249 9.0385 1.16792L9.03998 2.21739L17.8371 2.2054L17.8356 1.15592C17.8341 0.496255 18.3228 0.00150265 18.9745 3.39823e-06C19.6113 -0.00149585 20.1148 0.493256 20.1163 1.15293ZM2.28273 10.2923L24.705 10.2623V9.73754C24.6413 6.51416 23.024 4.823 20.1213 4.57113L20.1228 5.72555C20.1228 6.37023 19.6207 6.88147 18.9839 6.88147C18.3322 6.88297 17.842 6.37323 17.842 5.72855L17.8406 4.51416L9.04346 4.52615L9.04494 5.73904C9.04494 6.38522 8.5577 6.89497 7.90606 6.89497C7.25442 6.89646 6.76421 6.38822 6.76421 5.74204L6.76273 4.58762C3.8748 4.87698 2.27681 6.57413 2.28125 9.826L2.28273 10.2923ZM18.3594 17.1063V17.1228C18.3742 17.8124 18.937 18.3357 19.6197 18.3207C20.2861 18.3042 20.8178 17.733 20.803 17.0433C20.7719 16.3837 20.2373 15.8454 19.5723 15.8469C18.891 15.8619 18.3579 16.4166 18.3594 17.1063ZM19.584 23.8378C18.9028 23.8228 18.3533 23.2546 18.3519 22.565C18.337 21.8753 18.8835 21.3041 19.5648 21.2876H19.5796C20.2757 21.2876 20.8399 21.8558 20.8399 22.5605C20.8414 23.2651 20.2786 23.8363 19.584 23.8378ZM12.2578 17.1302C12.2874 17.8199 12.8517 18.3581 13.5329 18.3281C14.1994 18.2966 14.7311 17.7269 14.7014 17.0373C14.6852 16.3626 14.1372 15.8379 13.4707 15.8394C12.7895 15.8693 12.2563 16.4406 12.2578 17.1302ZM13.5408 23.7705C12.8595 23.8005 12.2967 23.2622 12.2656 22.5726C12.2656 21.8829 12.7973 21.3132 13.4786 21.2817C14.145 21.2802 14.6944 21.805 14.7093 22.4781C14.7404 23.1693 14.2072 23.739 13.5408 23.7705ZM6.15625 17.1829C6.18587 17.8726 6.75012 18.4123 7.43138 18.3808C8.09783 18.3509 8.6295 17.7796 8.5984 17.09C8.58359 16.4153 8.03563 15.8906 7.3677 15.8921C6.68644 15.9221 6.15477 16.4933 6.15625 17.1829ZM7.43919 23.7781C6.75794 23.8095 6.19516 23.2698 6.16406 22.5802C6.16258 21.8905 6.69573 21.3193 7.37699 21.2893C8.04344 21.2878 8.59289 21.8125 8.6077 22.4872C8.6388 23.1769 8.10712 23.7481 7.43919 23.7781Z" fill="#0B4977"/>
</svg>
