<svg width="39" height="36" viewBox="0 0 39 36" fill="none" xmlns="http://www.w3.org/2000/svg">
<path fill-rule="evenodd" clip-rule="evenodd" d="M7.93292 1.27152C7.19729 1.5044 6.64615 1.86199 6.1121 2.45275C5.21927 3.44034 4.97331 4.29753 5.06435 6.10384L5.12197 7.24709L4.79055 7.30674C3.42583 7.55219 2.43945 8.1547 1.68285 9.20499C1.29896 9.73784 1.087 10.2372 0.944201 10.9453C0.833172 11.4958 0.841052 11.7136 1.3083 20.9605C1.8401 31.484 1.78764 30.9307 2.34832 31.9373C2.90723 32.9406 3.88882 33.7295 5.00921 34.076L5.53182 34.2377L12.8316 33.889L20.1314 33.5402L19.6885 33.1209C19.1246 32.5869 18.7286 32.0998 18.2387 31.337L17.8489 30.7301L11.8969 30.9948L5.94498 31.2596L5.62319 31.0998C5.44626 31.0119 5.19836 30.8079 5.07229 30.6464L4.84317 30.3528L4.73416 28.6075L4.6252 26.8621L8.89369 26.6218C13.5901 26.3574 13.4337 26.379 14.3593 25.8639C14.9585 25.5304 15.6801 24.7306 15.9825 24.0647C16.3912 23.1648 16.4053 22.9749 16.2672 20.2352C16.1313 17.5395 16.0985 17.3435 15.6442 16.5125C15.3087 15.8987 14.3849 15.0697 13.7247 14.7901C12.837 14.4139 12.7019 14.4103 8.15234 14.6382L4.02637 14.8449L3.94127 13.1565C3.84765 11.299 3.86493 11.1781 4.28794 10.734C4.72079 10.2797 4.18327 10.3307 13.4634 9.86301C19.9651 9.53532 22.0059 9.4526 22.231 9.50772C22.6097 9.60038 23.0882 10.0329 23.2184 10.4005C23.2902 10.603 23.3563 11.4185 23.4473 13.223C23.5229 14.723 23.6017 15.7594 23.6399 15.7575C23.6755 15.7557 23.9646 15.6788 24.2825 15.5866C24.7527 15.4503 26.0835 15.2122 26.4919 15.1914C26.5688 15.1874 26.557 14.7184 26.4258 12.5718C26.2738 10.0832 26.2572 9.93371 26.0815 9.47349C25.7899 8.70937 25.4048 8.15134 24.7868 7.59702C23.9955 6.88731 23.1176 6.52711 21.9699 6.44146L21.6428 6.41704L21.5431 5.14009C21.4707 4.2122 21.4052 3.75924 21.3035 3.48294C20.776 2.05025 19.6313 1.04087 18.2063 0.751971C17.678 0.644888 17.4258 0.650908 13.0448 0.875378C8.74205 1.09583 8.40535 1.12195 7.93292 1.27152ZM25.4433 18.3843C21.9895 19.1897 19.5812 22.2227 19.5957 25.7485C19.6103 29.2919 22.111 32.3205 25.6316 33.0582C26.3427 33.2073 27.7527 33.2016 28.5351 33.0466C29.3476 32.8857 30.1164 32.5885 30.8746 32.1422L31.5207 31.762L33.5897 33.6274C35.7309 35.5579 36.013 35.7593 36.5429 35.736C37.3975 35.6985 38.065 34.9602 38.0164 34.1061C37.9862 33.5765 37.7575 33.3161 35.6208 31.379L33.5562 29.5071L33.841 28.8987C34.4466 27.605 34.6481 26.4067 34.508 24.9333C34.4161 23.9673 34.2353 23.2991 33.8438 22.4779C33.0714 20.8574 31.5169 19.3891 29.8989 18.752C28.4661 18.1876 26.8561 18.0548 25.4433 18.3843ZM27.8091 21.2566C28.3535 21.3397 29.4187 21.8125 29.8661 22.1696C30.9351 23.0231 31.6575 24.5653 31.5815 25.8318C31.5134 26.964 31.1395 27.86 30.3885 28.6908C29.6374 29.5216 28.7836 29.9838 27.664 30.1653C26.4117 30.3683 24.8047 29.8046 23.8482 28.8268C23.4479 28.4175 22.8704 27.4052 22.733 26.8719C22.5972 26.345 22.5619 25.3467 22.6615 24.8518C22.9822 23.258 24.2123 21.8855 25.7601 21.3945C26.2179 21.2493 27.2888 21.1772 27.8091 21.2566Z" fill="#0B4977"/>
</svg>
