<svg width="33" height="36" viewBox="0 0 33 36" fill="none" xmlns="http://www.w3.org/2000/svg">
<path fill-rule="evenodd" clip-rule="evenodd" d="M28.9597 0.107162C27.5371 0.48619 26.6103 1.69064 26.6103 3.16027C26.6103 3.89983 26.7604 4.33104 27.3892 5.3978C27.6634 5.86298 27.8877 6.26148 27.8877 6.28335C27.8877 6.30522 23.6745 6.33145 18.525 6.34151L9.1623 6.35986L8.96196 6.50789C8.85174 6.58925 8.69774 6.76329 8.61967 6.89465C8.48632 7.11897 8.47639 7.28169 8.45574 9.58568C8.44367 10.9344 8.44871 12.0766 8.46695 12.1236C8.49108 12.1861 8.66495 12.1546 9.10744 12.008C10.3822 11.5855 12.0272 11.4957 13.3746 11.775C16.3644 12.3948 18.7543 14.494 19.7386 17.365C20.0295 18.2139 20.1521 19.0057 20.1521 20.0372C20.1521 21.0688 20.0295 21.8606 19.7386 22.7094C18.8704 25.2418 16.9185 27.1791 14.3923 28.0157C12.6397 28.5962 10.7619 28.6147 9.11206 28.068C8.78134 27.9583 8.49534 27.8839 8.47653 27.9027C8.45765 27.9213 8.44225 29.7508 8.44225 31.9683V36H20.7211H33L32.981 19.3164C32.962 2.64461 32.9619 2.63259 32.8148 2.21094C32.2478 0.584428 30.5813 -0.324959 28.9597 0.107162ZM20.4715 2.7638C18.1685 3.50787 16.2364 4.13632 16.1778 4.1603C16.1193 4.18435 17.9716 4.2065 20.294 4.20953L24.5167 4.21515L24.4949 3.31849C24.4778 2.61522 24.5018 2.31199 24.6065 1.91208C24.6799 1.63164 24.7216 1.40423 24.6993 1.40655C24.6769 1.40894 22.7744 2.01967 20.4715 2.7638ZM29.1637 10.6671C29.6644 10.9164 29.8892 11.5941 29.6315 12.0769C29.5758 12.1814 28.4979 13.2841 27.2363 14.5276C24.7935 16.9352 24.7825 16.9437 24.2095 16.8386C23.9937 16.799 23.7376 16.5834 22.7192 15.5836C22.0428 14.9196 21.444 14.291 21.3885 14.1865C21.0745 13.5956 21.4579 12.8041 22.1178 12.6815C22.5774 12.596 22.8346 12.7406 23.6283 13.5305C24.0374 13.9378 24.405 14.2709 24.445 14.2709C24.485 14.2709 25.3159 13.4767 26.2915 12.506C27.2669 11.5352 28.1609 10.6979 28.278 10.6452C28.5703 10.5138 28.8706 10.5212 29.1637 10.6671ZM10.8197 13.7525C9.36321 13.9753 8.01112 14.6803 7.01351 15.7368C5.86864 16.9494 5.31963 18.3407 5.31963 20.0296C5.31963 21.2358 5.58988 22.2373 6.18275 23.2281L6.47209 23.7116L3.31291 26.8496C1.57539 28.5755 0.118467 30.0567 0.0753183 30.1412C-0.035535 30.3585 -0.021838 30.8376 0.102002 31.0748C0.33109 31.5138 0.848665 31.7263 1.33445 31.5806C1.53742 31.5197 2.2855 30.8169 4.77636 28.3474L7.95888 25.1919L8.50222 25.499C9.58599 26.1115 10.3852 26.3202 11.6713 26.3264C12.357 26.3298 12.7306 26.2965 13.1262 26.197C15.5848 25.5783 17.4039 23.73 17.9173 21.3289C18.054 20.6895 18.0513 19.3954 17.9118 18.7158C17.6918 17.6436 17.1445 16.6103 16.3433 15.7542C15.4948 14.8475 14.4121 14.206 13.1972 13.8904C12.7443 13.7727 11.253 13.6862 10.8197 13.7525ZM29.1637 16.996C29.6644 17.2452 29.8892 17.923 29.6315 18.4058C29.5758 18.5102 28.4979 19.613 27.2363 20.8565C24.7935 23.264 24.7825 23.2725 24.2095 23.1675C23.9937 23.1279 23.7376 22.9122 22.7192 21.9125C22.0428 21.2485 21.444 20.6198 21.3885 20.5154C21.0745 19.9244 21.4579 19.133 22.1178 19.0103C22.5774 18.9249 22.8346 19.0695 23.6283 19.8594C24.0374 20.2666 24.405 20.5998 24.445 20.5998C24.485 20.5998 25.3159 19.8055 26.2915 18.8348C27.2669 17.864 28.1609 17.0267 28.278 16.9741C28.5703 16.8426 28.8706 16.85 29.1637 16.996ZM29.1637 23.3249C29.6644 23.5741 29.8892 24.2518 29.6315 24.7346C29.5758 24.8391 28.4979 25.9418 27.2363 27.1853C24.7935 29.5929 24.7825 29.6014 24.2095 29.4963C23.9937 29.4567 23.7376 29.2411 22.7192 28.2413C22.0428 27.5773 21.444 26.9487 21.3885 26.8443C21.0745 26.2533 21.4579 25.4618 22.1178 25.3392C22.5774 25.2537 22.8346 25.3983 23.6283 26.1882C24.0374 26.5955 24.405 26.9286 24.445 26.9286C24.485 26.9286 25.3159 26.1344 26.2915 25.1637C27.2669 24.1929 28.1609 23.3556 28.278 23.3029C28.5703 23.1715 28.8706 23.1789 29.1637 23.3249Z" fill="#0B4977"/>
</svg>
