<svg width="36" height="36" viewBox="0 0 36 36" fill="none" xmlns="http://www.w3.org/2000/svg">
<path fill-rule="evenodd" clip-rule="evenodd" d="M3.10889 0.139243C2.3623 0.334923 1.79372 0.664504 1.23049 1.22797C0.658604 1.80002 0.336195 2.36335 0.138909 3.13488C0.00323535 3.66577 0 3.95877 0 15.7583C0 27.5579 0.00323535 27.8509 0.138909 28.3818C0.336195 29.1533 0.658604 29.7166 1.23049 30.2887C1.8023 30.8608 2.36539 31.1833 3.1366 31.3807C3.65784 31.514 3.93622 31.5197 9.99863 31.5197C13.474 31.5197 16.3174 31.5043 16.3174 31.4855C16.3174 31.4668 16.2236 31.2989 16.1089 31.1125C15.7815 30.5802 15.1525 29.2178 14.9499 28.6024C14.3764 26.8603 14.2806 26.0826 14.279 23.1565C14.2778 20.9488 14.2704 20.8124 14.1546 20.8607C13.7789 21.0173 13.1374 21.0395 9.52613 21.0208L5.59152 21.0004L5.25934 20.805C4.66748 20.457 4.38854 19.7551 4.57591 19.0856C4.69259 18.6686 5.12859 18.2162 5.52935 18.0965C5.95782 17.9684 13.6458 17.9788 14.0072 18.108L14.2642 18.1998L14.3119 17.8176C14.4147 16.9949 14.8503 16.075 15.4524 15.4093L15.8369 14.9843H10.7647C5.22291 14.9843 5.4171 14.998 4.96724 14.576C4.21481 13.8701 4.41344 12.6505 5.36013 12.1633C5.61185 12.0339 5.873 12.0291 12.7405 12.0291C19.8053 12.0291 19.8624 12.0302 20.1619 12.1753C20.439 12.3095 20.6745 12.5326 20.8539 12.8308C20.9168 12.9352 21.1697 12.8639 23.2314 12.1606L25.5385 11.3736L25.5146 7.39158C25.4929 3.77948 25.4788 3.37363 25.3634 3.02258C24.8752 1.53715 23.8074 0.497462 22.4005 0.137484C21.865 0.000486635 21.6234 -0.00296116 12.7367 0.000838455C3.99474 0.0045677 3.60122 0.0101968 3.10889 0.139243ZM12.7461 6.20842C13.3379 6.55643 13.6169 7.25831 13.4295 7.92781C13.3128 8.34478 12.8768 8.79715 12.4761 8.91691C12.0648 9.0399 5.94066 9.0399 5.52935 8.91691C4.95761 8.746 4.50135 8.09211 4.50135 7.4435C4.50135 6.86266 5.05073 6.18991 5.64329 6.04511C5.76954 6.01422 7.34459 5.99437 9.14337 6.00099L12.4139 6.01302L12.7461 6.20842ZM22.1644 15.6859C19.4626 16.6108 17.9776 17.1534 17.8206 17.2732C17.6895 17.3733 17.5112 17.5879 17.4245 17.7502C17.2689 18.0413 17.2666 18.0868 17.244 21.2466C17.219 24.7368 17.2751 25.7704 17.5479 26.846C18.3816 30.1341 20.9655 33.1376 24.8003 35.2764C26.4242 36.1821 26.6467 36.2005 27.9587 35.5382C29.7106 34.6539 31.3507 33.4432 32.7075 32.0328C34.3623 30.3127 35.341 28.5577 35.8113 26.4675C35.9563 25.8228 35.9663 25.5783 35.9922 22.0446C36.0112 19.4534 35.9958 18.2153 35.942 18.0154C35.855 17.6922 35.526 17.2799 35.2353 17.1295C35.1298 17.0749 33.2592 16.4216 31.0785 15.6778C28.0137 14.6324 27.0178 14.3202 26.6916 14.303C26.2999 14.2823 25.9758 14.3813 22.1644 15.6859ZM31.4301 20.4461C31.8489 20.655 32.1183 21.0021 32.2229 21.4678C32.3659 22.1044 32.3289 22.1661 29.7056 25.669C27.4356 28.7002 27.2563 28.9202 26.919 29.0883C26.5284 29.283 26.2169 29.3108 25.7773 29.1899C25.5461 29.1263 25.191 28.8098 23.7845 27.4136C22.8432 26.4792 22.0062 25.5881 21.9245 25.4333C21.6353 24.8855 21.7755 24.0907 22.2371 23.66C22.6244 23.2986 23.4105 23.1729 23.8642 23.3998C23.988 23.4616 24.5392 23.9588 25.0891 24.5046C25.6389 25.0503 26.1011 25.4825 26.1161 25.4651C26.131 25.4475 26.9542 24.3503 27.9455 23.0268C28.9366 21.7032 29.8196 20.5791 29.9076 20.5289C30.4619 20.2123 30.9121 20.1879 31.4301 20.4461Z" fill="#0B4977"/>
</svg>
