<svg width="44" height="38" viewBox="0 0 44 38" fill="none" xmlns="http://www.w3.org/2000/svg">
<path d="M12.2609 29.9213C11.1042 31.2005 9.48687 31.9679 7.76475 32.0547C6.04228 32.1415 4.35593 31.5405 3.07686 30.3838C1.79771 29.2275 1.03033 27.6101 0.943517 25.8877C0.856722 24.1656 1.45765 22.4792 2.61399 21.2002C3.77037 19.9207 5.38775 19.1533 7.11014 19.0665C8.83226 18.9797 10.5186 19.5806 11.798 20.7369C13.0765 21.8941 13.8432 23.511 13.93 25.2332C14.0168 26.9556 13.4166 28.6416 12.2609 29.9213ZM9.84477 24.5132L8.31811 24.5902L8.24118 23.0639C8.21541 22.5526 7.78026 22.1589 7.2689 22.1846C6.75759 22.2104 6.36418 22.6459 6.38995 23.1572L6.46689 24.6838L4.94023 24.7608L4.94022 24.7604C4.69541 24.7742 4.46592 24.8841 4.30218 25.067C4.13877 25.2496 4.05427 25.4896 4.06767 25.7348C4.09337 26.2447 4.52778 26.6374 5.03769 26.6117L6.56017 26.535L6.63712 28.0616L6.6371 28.0613C6.66287 28.5726 7.09803 28.9663 7.60938 28.9405C8.1207 28.9148 8.5141 28.4793 8.48833 27.968L8.41141 26.4417L9.93807 26.3647C10.4494 26.339 10.8428 25.9035 10.817 25.3925C10.7913 24.8812 10.3561 24.4875 9.84476 24.5132L9.84477 24.5132ZM41.9465 35.8493L7.73029 37.5739C7.0315 37.6091 6.4367 37.0713 6.40148 36.3726C6.35397 35.5405 6.45525 34.7065 6.7 33.9099C8.87733 34.1175 11.0491 33.4588 12.7442 32.0761C14.4394 30.6939 15.5214 28.699 15.7555 26.5242C16.412 26.2924 17.0027 26.1064 17.5154 25.962C17.5583 25.948 17.5862 25.9064 17.5821 25.8613L17.512 24.4696C16.6527 23.4591 15.9906 22.2968 15.5594 21.0422C14.5988 20.1861 14.1219 18.7769 13.868 18.016C13.4502 16.7688 13.0008 14.9861 13.9179 13.6378L13.9573 13.5807C13.3701 11.3273 12.5089 5.98061 16.4579 3.05017C15.9577 2.58404 15.6676 1.93537 15.6527 1.25159C15.6546 1.18559 15.6835 1.12276 15.7329 1.07878C15.7863 1.03075 15.8569 1.00732 15.9284 1.01383C15.9789 1.01129 21.1192 1.33561 23.5519 0.701435C26.0557 0.0511278 28.9228 1.83014 29.5961 3.779C30.5561 3.8551 31.4486 4.30145 32.0855 5.02329C33.2724 6.34163 33.7245 8.5174 33.4296 11.4747C33.4192 11.8557 33.3916 12.2291 33.3477 12.616L33.3925 12.6688C34.4362 13.9141 34.1692 15.7496 33.8782 17.02C33.6845 17.7907 33.335 19.2415 32.4823 20.189C32.1817 21.4889 31.6402 22.721 30.8855 23.8208L30.9542 25.1829C30.953 25.2286 30.9857 25.2681 31.0307 25.2763C34.567 25.9057 42.8275 28.0681 43.1524 34.5155C43.1704 34.8525 43.0532 35.1827 42.8269 35.433C42.6007 35.6833 42.2839 35.8331 41.9468 35.8487L41.9465 35.8493ZM24.5279 30.5508C26.6899 30.4676 28.6797 29.3473 29.8719 27.5417C29.2999 27.257 28.8515 26.7729 28.6113 26.1807C28.0579 26.5873 27.4573 26.9255 26.823 27.1883C25.2566 27.8325 23.5164 27.9202 21.8932 27.4367C21.2372 27.2344 20.6069 26.9555 20.0164 26.6055C19.8393 27.2289 19.437 27.7641 18.8873 28.1081C20.2624 29.7855 22.3633 30.6954 24.5278 30.5508L24.5279 30.5508ZM31.6406 16.4991C32.0116 14.8865 31.7929 14.3182 31.6265 14.1237L31.6269 14.124C31.5126 13.9942 31.3413 13.9299 31.1698 13.9525L31.0602 13.958C30.9294 13.9719 30.8117 13.8778 30.7961 13.7471C30.7944 13.7134 30.3394 10.3036 28.2485 9.16996C27.2012 8.60553 25.9034 8.69221 24.3806 9.43256C21.2695 10.9507 18.8989 10.9771 17.4408 10.7336C15.8575 12.0311 16.4274 13.9426 16.5602 14.3167L16.5626 14.363C16.5936 14.4392 16.5837 14.5258 16.5361 14.5927C16.4883 14.6607 16.409 14.6999 16.3259 14.6965C16.1219 14.6694 15.9189 14.7518 15.7914 14.9134C15.65 15.1235 15.4892 15.7108 16.0163 17.2782C16.6967 19.286 17.1744 19.452 17.3058 19.4582L17.3058 19.4579C17.4172 19.461 17.5122 19.5402 17.5352 19.6492C17.982 21.8041 19.8423 24.4118 22.5431 25.2353C23.6634 25.5729 24.8659 25.5123 25.9463 25.0638C28.673 23.9667 30.1461 21.1529 30.3635 19.0113C30.3753 18.9002 30.4619 18.8118 30.5728 18.7979C30.7071 18.7782 31.1866 18.564 31.6405 16.4991L31.6406 16.4991Z" fill="#0B4977"/>
</svg>
