<svg width="32" height="32" viewBox="0 0 32 32" fill="none" xmlns="http://www.w3.org/2000/svg">
<path fill-rule="evenodd" clip-rule="evenodd" d="M3.05985 1.7237C2.56604 1.92853 2.27111 2.22529 2.01583 2.77412L1.87309 3.08086L1.98071 5.21626C2.08723 7.32967 2.08988 7.35441 2.23762 7.61952C2.58033 8.23464 3.15334 8.56349 3.89191 8.56896L4.35119 8.57238L4.40093 9.55941L4.45068 10.5465L3.84817 10.5769C3.50013 10.5944 3.10437 10.6517 2.91114 10.7125C1.91717 11.0254 1.15666 11.7818 0.950957 12.6622C0.881559 12.9589 0.917822 13.8357 1.30942 21.326L1.74512 29.6596L1.96548 30.0578C2.23467 30.5443 2.84777 31.112 3.3346 31.3253C4.04438 31.6365 3.69941 31.6393 11.211 31.2615L18.1131 30.9143L17.8627 30.6688C17.2041 30.0235 16.7813 29.3859 16.456 28.5475C15.8373 26.9533 15.9975 25.1373 16.8899 23.6295C17.0713 23.3229 17.8384 22.424 19.4452 20.6353L21.7413 18.0791L21.5624 14.8686L21.3835 11.6579L21.1762 11.272C20.7939 10.5605 20.1092 10.0565 19.296 9.88808C19.0783 9.84298 18.6879 9.82893 18.257 9.85065L17.5666 9.88544L17.5169 8.89801L17.4671 7.91063L17.979 7.86026C18.7798 7.78142 19.2987 7.42247 19.5913 6.74477C19.7116 6.46632 19.7118 6.44115 19.6052 4.32798L19.4976 2.19257L19.3214 1.8957C19.0764 1.48328 18.8356 1.25159 18.4618 1.06855L18.1416 0.911898L16.7793 0.962024L15.417 1.01209L15.5485 3.61945L15.6799 6.22675L14.8016 6.27102L13.9233 6.31529L13.792 3.71185L13.6608 1.10841L12.5776 1.163L11.4944 1.2176L11.6256 3.82104L11.7568 6.42448L10.8785 6.46874L10.0002 6.51301L9.86898 3.90957L9.73776 1.30613L8.59597 1.36368L7.45419 1.42122L7.5854 4.02466L7.71661 6.6281L6.83832 6.67237L5.96002 6.71664L5.8288 4.1132L5.69759 1.50976L4.48274 1.57357C3.64358 1.61762 3.20354 1.66408 3.05985 1.7237ZM11.8324 16.1491C11.9137 16.2017 12.0383 16.3147 12.1092 16.4002C12.231 16.547 12.2435 16.6449 12.3375 18.186L12.437 19.8166L14.0994 19.75L15.7618 19.6835L15.9257 19.8218C16.5135 20.3179 16.348 21.1507 15.6206 21.3572C15.4774 21.3979 14.7224 21.4639 13.943 21.504L12.5258 21.5768L12.5894 23.1824C12.6494 24.6982 12.6467 24.7973 12.5404 24.9555C12.3382 25.2564 12.1486 25.3722 11.832 25.3881C11.5155 25.4041 11.3152 25.3079 11.0838 25.0289C10.9622 24.8823 10.9494 24.7838 10.857 23.2739L10.759 21.6743L9.19443 21.7343C7.75473 21.7895 7.61348 21.7857 7.42513 21.6873C7.12917 21.5326 6.97658 21.3191 6.93251 20.9979C6.88671 20.6646 7.01079 20.394 7.29933 20.1977C7.47193 20.0802 7.59104 20.0664 9.07987 19.9911L10.6754 19.9105L10.5972 18.3583C10.5132 16.6908 10.5261 16.5583 10.8 16.2793C11.0675 16.0071 11.524 15.9495 11.8324 16.1491ZM26.2687 16.7803C25.8234 16.8837 25.2291 17.1582 24.8447 17.4378C24.6579 17.5738 23.9859 18.2597 23.3514 18.9623L22.1979 20.2396L25.2283 22.9764L28.2587 25.7133L29.5147 24.3143C30.7024 22.9915 30.7822 22.8877 30.9834 22.4061C31.4746 21.2301 31.4164 20.0719 30.8102 18.9583C30.5957 18.5643 30.4381 18.3748 29.943 17.915C29.2588 17.2797 28.8072 17.0127 28.1059 16.8287C27.5742 16.6893 26.7535 16.6676 26.2687 16.7803ZM19.7694 22.9273C18.4299 24.414 18.1952 24.7548 17.9737 25.5339C17.7801 26.215 17.812 27.1568 18.0508 27.8088C18.3217 28.5489 18.5522 28.8713 19.2892 29.5416C19.8764 30.0755 20.0367 30.1876 20.4776 30.3723C21.6524 30.8642 22.8089 30.8063 23.9323 30.1993C24.3944 29.9497 24.4831 29.8654 25.753 28.4703L27.0879 27.0037L24.0745 24.2805C22.4171 22.7827 21.0476 21.5579 21.0311 21.5587C21.0146 21.5595 20.4468 22.1754 19.7694 22.9273Z" fill="#0B4977"/>
</svg>
