<svg width="38" height="47" viewBox="0 0 38 47" fill="none" xmlns="http://www.w3.org/2000/svg">
<path fill-rule="evenodd" clip-rule="evenodd" d="M11.8798 0.118429C9.66346 0.58646 7.73974 1.9169 6.92361 3.54619C6.35289 4.68543 6.23224 5.36906 6.30283 7.06262C6.35505 8.31386 6.33873 8.57446 6.20121 8.68951C5.59016 9.20057 5.31416 11.0476 5.67568 12.2061C5.81017 12.6367 5.9918 12.9332 6.28489 13.2C6.51462 13.4091 6.7489 13.5802 6.80555 13.5802C6.8622 13.5802 7.15323 14.0581 7.45216 14.6424C8.74084 17.1609 10.8741 19.0686 13.022 19.6236C14.2958 19.9526 15.4223 19.7768 16.856 19.0252C18.6441 18.0877 19.9977 16.6267 21.0677 14.479C21.3139 13.9846 21.5619 13.5802 21.6186 13.5802C21.8216 13.5802 22.4996 12.8876 22.674 12.5022C22.8032 12.2167 22.853 11.7821 22.8567 10.911C22.861 9.87593 22.8289 9.65052 22.6213 9.25701C22.4892 9.00643 22.3293 8.76915 22.266 8.72971C22.1882 8.68123 22.1736 8.19348 22.2212 7.2243C22.3033 5.54741 22.1537 4.62039 21.6336 3.58192C21.1269 2.57058 20.0327 1.77331 18.9685 1.64018C18.6459 1.59987 18.2595 1.45323 17.9995 1.27238C17.3782 0.840412 16.6894 0.502681 15.9454 0.265179C15.0796 -0.0111069 12.8709 -0.0907462 11.8798 0.118429ZM18.5998 6.46495C18.8089 7.21743 19.7077 8.49831 20.4707 9.13096C21.1912 9.72841 21.3897 10.0977 21.3983 10.8565C21.4078 11.701 21.244 12.0782 20.7314 12.3925C20.3395 12.6327 20.1823 12.8504 19.6905 13.8332C18.7238 15.7653 17.2743 17.2377 15.7084 17.8781C14.7805 18.2576 14.1999 18.3153 13.3962 18.1078C11.5049 17.6195 9.78703 16.0188 8.66106 13.6956C8.24202 12.8309 8.08958 12.6227 7.70428 12.3882C7.1928 12.0771 7.02782 11.6991 7.02685 10.8364C7.02599 10.1455 7.1315 9.91918 7.77206 9.2387C8.07737 8.91448 8.47727 8.32116 8.67349 7.90151C9.0722 7.04879 8.87458 7.10751 10.4858 7.36331C12.7292 7.71946 15.7179 7.27038 17.6985 6.27952C18.0424 6.1075 18.354 5.96391 18.3908 5.96031C18.4277 5.95682 18.5218 6.18398 18.5998 6.46495ZM24.5402 16.726C23.5709 17.0477 22.8626 17.6656 22.4646 18.5372L22.2158 19.0819L22.1855 25.666C22.1646 30.2237 22.1188 32.2941 22.0371 32.3934C21.7079 32.7932 21.3917 32.5438 19.9177 30.7217C19.5942 30.3219 19.2496 30.0497 18.7572 29.8055C18.1076 29.4832 17.9954 29.4616 17.2047 29.5078C16.5351 29.5468 16.2472 29.6197 15.8607 29.8479C14.7642 30.4955 14.2028 31.5715 14.294 32.8509C14.3561 33.7229 14.5942 34.2236 15.3666 35.1068C16.6734 36.6005 17.2622 37.3708 18.1947 38.8062C18.826 39.7779 19.1724 40.4517 20.32 42.941C20.9498 44.3071 22.0226 45.4336 23.3143 46.0852C25.0525 46.962 28.3887 47.2558 30.9654 46.7589C34.0542 46.1634 36.325 44.1625 37.3973 41.092C37.9481 39.5147 38 38.9425 38 34.4433V30.3033L37.6961 29.6797C37.3779 29.0267 36.7898 28.4378 36.1237 28.1049C35.8411 27.9637 35.4697 27.9063 34.8107 27.9019C33.9963 27.8964 33.8416 27.862 33.4505 27.5992C32.8418 27.1901 32.3962 27.0764 31.5133 27.1048C30.8259 27.1268 30.7076 27.0973 30.2215 26.7822C29.9274 26.5915 29.403 26.3764 29.0565 26.3043L28.4264 26.1731L28.4367 22.6755C28.4457 19.6065 28.4241 19.1187 28.2604 18.6942C27.8032 17.5088 26.7595 16.7491 25.4867 16.6754C25.1148 16.654 24.6888 16.6766 24.5402 16.726ZM26.1878 18.4436C26.3507 18.5275 26.5819 18.7893 26.7013 19.0254C26.9115 19.4405 26.9186 19.6594 26.9186 25.7086C26.9186 31.8706 26.9219 31.9668 27.1427 32.2497C27.423 32.6087 27.9795 32.6423 28.2712 32.3175C28.4466 32.1222 28.467 31.8914 28.4584 30.2002C28.4532 29.1561 28.475 28.2007 28.5071 28.077C28.6289 27.6075 29.5557 27.9766 29.9133 28.6371C30.0755 28.9365 30.1135 29.3212 30.143 30.957C30.1758 32.7711 30.1955 32.9365 30.4053 33.1632C30.702 33.4839 31.0337 33.4734 31.3993 33.1319L31.6953 32.8555L31.6583 30.7252L31.6215 28.5949L31.9974 28.6564C32.4851 28.7363 32.8721 29.0281 33.1078 29.494C33.2667 29.808 33.2968 30.1754 33.297 31.7971C33.2972 33.6417 33.3075 33.7364 33.5338 33.9488C33.8365 34.233 34.3165 34.2331 34.5985 33.949C34.8061 33.7398 34.8182 33.6025 34.8081 31.5794L34.7974 29.4318L35.1308 29.4481C35.5581 29.469 35.9544 29.7326 36.2209 30.173C36.4197 30.5016 36.4316 30.749 36.432 34.5724C36.4323 37.7048 36.3966 38.7947 36.2748 39.3785C35.6465 42.3881 33.8962 44.3481 31.1311 45.1381C30.1172 45.4278 26.2195 45.4258 25.1888 45.135C23.5099 44.6614 22.4609 43.8228 21.8051 42.4305C21.5987 41.9922 21.2043 41.1493 20.9287 40.5574C20.047 38.6631 18.3633 36.1554 16.7656 34.3567C16.404 33.9494 16.035 33.4739 15.9456 33.2998C15.4415 32.3173 16.2276 31.0115 17.3235 31.0115C18.0186 31.0115 18.3936 31.2798 19.3993 32.497C20.0748 33.3144 20.4808 33.7085 20.7971 33.8532C21.756 34.2921 22.8012 33.992 23.3496 33.1206L23.6753 32.603V26.2448C23.6753 22.0016 23.7146 19.7291 23.7936 19.413C24.0582 18.3543 25.1532 17.9109 26.1878 18.4436ZM8.84182 20.0871C8.56603 20.403 8.24451 21.1186 8.04234 21.8666C7.8379 22.6229 7.79325 24.7623 7.96331 25.6543C8.04904 26.1036 8.08083 26.1355 8.64095 26.3342C9.69936 26.7098 10.2912 27.5293 10.2912 28.6195C10.2912 29.6062 9.83482 30.3501 8.9509 30.8046C8.24732 31.1663 7.14999 31.0458 6.44802 30.5297C5.55114 29.8703 5.27848 28.4006 5.86606 27.3933C6.03082 27.111 6.23872 26.8388 6.32824 26.7882C6.47278 26.7067 6.47116 26.5631 6.31343 25.5039C6.13202 24.2858 6.1571 22.7434 6.37354 21.8086C6.42856 21.5707 6.46403 21.3661 6.45213 21.3541C6.41667 21.3184 3.77368 22.1429 3.16459 22.3797C1.02691 23.2111 0.163101 25.0401 0.0317461 29.0132C-0.0277149 30.8156 -0.0214447 30.8944 0.207859 31.219C1.25221 32.697 5.37989 33.7443 11.6652 34.1262C12.8475 34.198 12.8952 34.1927 12.8124 33.9954C12.7649 33.8822 12.7027 33.3641 12.6741 32.8441C12.6082 31.6428 12.8758 30.6735 13.5096 29.8174C14.4808 28.5057 15.7878 27.8279 17.3458 27.8279C18.3065 27.8279 19.0984 28.0495 19.9184 28.5478L20.5401 28.9256L20.537 24.7664L20.5339 20.6072L19.9304 20.2389C19.5915 20.0322 19.2966 19.9162 19.2578 19.9744C18.903 20.5067 14.8658 25.367 14.7076 25.4523C14.4451 25.5938 13.9902 25.5961 13.7325 25.4571C13.5648 25.3666 11.7299 23.1691 9.68822 20.6135C9.39827 20.2505 9.12712 19.9401 9.08572 19.9237C9.04431 19.9072 8.93458 19.9807 8.84182 20.0871ZM7.35843 28.1391C7.23518 28.297 7.13431 28.511 7.13431 28.6147C7.13431 28.9424 7.55714 29.3776 7.87195 29.3738C8.40765 29.3674 8.8042 28.8658 8.63284 28.4114C8.40397 27.8049 7.73141 27.6612 7.35843 28.1391Z" fill="#0B4977"/>
</svg>
