<svg width="36" height="39" viewBox="0 0 36 39" fill="none" xmlns="http://www.w3.org/2000/svg">
<path fill-rule="evenodd" clip-rule="evenodd" d="M13.8538 0.132267C5.02609 1.7445 -0.953932 9.69658 0.125804 18.3869C0.617913 22.3473 2.05772 25.2615 4.98522 28.2221C6.49371 29.7478 7.22522 30.2718 9.0962 31.1672C12.1086 32.609 13.4657 32.9115 16.813 32.8876C19.1799 32.8706 19.882 32.7691 21.5285 32.2049C22.5925 31.8402 24.0505 31.2064 24.7682 30.7963L26.0733 30.0505L26.7499 30.8744C27.3262 31.5767 27.377 31.7486 27.0926 32.0371C26.8075 32.3261 27.1182 32.8003 29.2083 35.2669C30.5557 36.8571 31.7905 38.2089 31.9525 38.271C32.2287 38.3769 35.9169 35.8291 35.9169 35.5321C35.9169 35.4565 34.8561 34.1463 33.5592 32.6204C32.2623 31.0945 31.065 29.6701 30.8982 29.4552C30.6629 29.1519 30.5304 29.1292 30.3057 29.3538C29.8782 29.7814 29.7495 29.725 29.0461 28.8027L28.405 27.9624L29.4743 26.6495C30.8808 24.9229 31.9281 22.7407 32.5629 20.2149C32.9849 18.5352 33.0545 17.7222 32.9464 15.7412C32.6964 11.1671 31.264 8.0031 27.9612 4.72907C25.707 2.49463 23.5659 1.23183 20.8031 0.507817C19.0332 0.0440021 15.4099 -0.151874 13.8538 0.132267ZM19.8454 2.92701C23.5352 3.8689 27.2554 6.78262 28.8777 10.001C31.7279 15.6553 30.6377 22.1794 26.1273 26.4641C23.304 29.1459 20.3262 30.3603 16.5615 30.3656C12.6476 30.3712 9.49085 29.0864 6.76528 26.3792C-1.07484 18.5918 2.65357 5.36119 13.4062 2.81311C14.8414 2.47311 18.3075 2.53429 19.8454 2.92701ZM13.0865 4.68385C11.7826 5.76914 11.6179 6.38531 11.8029 9.48644C11.926 11.5497 12.0206 11.8935 12.8732 13.3778C15.0056 17.0901 17.6937 17.0676 19.7441 13.32C20.613 11.732 20.6705 11.4982 20.6761 9.54157C20.6841 6.75481 20.5085 6.02886 19.6087 5.12904C18.7708 4.29088 17.1839 3.79708 15.3076 3.79007C14.3413 3.78669 13.9989 3.92428 13.0865 4.68385ZM19.3161 8.30223C19.3807 8.53511 19.5042 9.34739 19.5906 10.1077C19.7369 11.3947 19.6856 11.6012 18.8486 13.0976C18.1561 14.3362 17.7501 14.7886 17.079 15.0694C16.2788 15.4046 16.1407 15.3973 15.3703 14.9816C14.0538 14.2709 12.1954 10.639 12.9194 10.1913C13.066 10.1009 13.1857 9.61629 13.1857 9.11427C13.1857 8.61225 13.2582 8.12885 13.347 8.04034C13.4355 7.95159 14.7885 7.87904 16.3533 7.87904C18.8571 7.87904 19.2126 7.92983 19.3161 8.30223ZM12.7402 16.9554C12.4474 17.2922 11.9514 17.6653 11.638 17.7846C11.0985 17.9896 11.0818 18.0593 11.3214 19.1066C11.557 20.1358 11.6276 20.212 12.3468 20.212C13.1801 20.212 14.7749 21.3028 15.2931 22.2271C15.7792 23.0947 15.6745 25.2397 15.1004 26.1685C14.8238 26.6164 14.4492 26.983 14.2683 26.983C13.605 26.983 13.6516 26.4682 14.3764 25.7911C15.3519 24.8799 15.3521 23.989 14.3771 22.8062C13.7464 22.0411 13.4887 21.9047 12.6725 21.9047C11.5439 21.9047 10.3704 22.4471 10.1929 23.0507C9.75589 24.5375 9.77765 25.1964 10.2845 25.8409C10.588 26.2266 11.04 26.4994 11.3754 26.4994C12.1187 26.4994 12.3739 26.931 11.9067 27.3985C11.5761 27.729 11.4501 27.7005 10.6927 27.1228C10.1665 26.7214 9.65215 25.9961 9.32908 25.2003C8.82995 23.9704 8.82536 23.8778 9.20816 22.7323C9.42677 22.0776 9.87463 21.2562 10.2033 20.907C10.7021 20.3767 10.7735 20.1269 10.6356 19.3929C10.545 18.9095 10.3878 18.4624 10.286 18.3998C10.1844 18.3369 9.73437 18.5328 9.28579 18.835C8.09627 19.6362 7.38071 21.0995 7.21555 23.0691C7.0765 24.7299 7.07843 24.737 7.98116 25.7359C9.90268 27.863 14.3786 29.4056 17.6451 29.0665C20.7489 28.7444 24.6398 26.8278 25.2678 25.3118C25.966 23.6263 24.8071 19.8553 23.2733 18.8215C22.8293 18.5224 22.3911 18.2774 22.2995 18.2774C21.9764 18.2774 22.1486 20.8165 22.5036 21.2859C23.0801 22.0481 22.9543 23.4234 22.2475 24.0874C20.9264 25.3285 18.7476 24.4013 18.7476 22.598C18.7476 21.6714 19.9042 20.4538 20.7844 20.4538C21.3713 20.4538 21.4076 20.3832 21.4076 19.2386C21.4076 18.1831 21.3324 17.995 20.8347 17.8058C20.5199 17.6861 20.0416 17.3079 19.7722 16.9655C19.503 16.6231 19.2307 16.3428 19.1671 16.3428C19.1038 16.3428 18.6322 17.285 18.1191 18.4363C17.1931 20.5143 17.1852 20.5234 17.0176 19.7058C16.8938 19.102 16.9542 18.7652 17.2439 18.4445C17.9742 17.6363 17.0156 16.8436 15.7057 17.1723C15.0912 17.3266 14.9219 17.9824 15.3785 18.4389C15.5207 18.5811 15.5976 19.1197 15.5497 19.636L15.4624 20.5747L14.447 18.4588C13.8884 17.2951 13.3958 16.3428 13.3523 16.3428C13.3085 16.3428 13.0331 16.6185 12.7402 16.9554ZM19.7149 21.4211C19.0121 22.1238 19.0888 23.2086 19.8858 23.8354C21.0147 24.7234 22.4554 24.033 22.4554 22.6041C22.4554 21.1638 20.7208 20.4151 19.7149 21.4211ZM21.5285 22.4829C21.5285 22.7344 21.3317 23.0609 21.0911 23.2084C20.7431 23.4219 20.5861 23.3854 20.3218 23.0299C19.8493 22.3939 20.131 21.8636 20.8945 21.9521C21.3293 22.0024 21.5285 22.1693 21.5285 22.4829Z" fill="#0B4977"/>
</svg>
