<svg width="30" height="42" viewBox="0 0 30 42" fill="none" xmlns="http://www.w3.org/2000/svg">
<path fill-rule="evenodd" clip-rule="evenodd" d="M0.72281 1.79766C0.57968 1.87631 0.387082 2.05674 0.294813 2.19864L0.127071 2.45672L0.888317 17.9779L1.64965 33.4991L1.84356 33.8022C1.96733 33.9959 2.16175 34.1573 2.38134 34.2487C2.71396 34.3873 2.89126 34.3835 7.80693 34.1358L12.8887 33.8797L16.6669 29.7489C18.7448 27.477 20.6582 25.4504 20.9186 25.2453C22.1116 24.306 23.4265 23.8465 25.0271 23.8096L26.0167 23.7868L25.6968 17.4437L25.3771 11.1006L20.586 11.3202C15.8916 11.5353 15.7903 11.5366 15.5622 11.386C15.4342 11.3014 15.2491 11.1365 15.1508 11.0196C14.9754 10.811 14.9669 10.7136 14.7015 5.89012L14.4308 0.973284L7.70699 1.31402C1.67951 1.61941 0.956101 1.66951 0.72281 1.79766ZM17.082 4.97335L17.2898 9.09655L21.2728 8.89581L25.2558 8.69506L25.2399 8.38002C25.2312 8.20676 25.1864 7.98035 25.1403 7.8768C25.0942 7.77333 23.4586 6.17853 21.5055 4.33277C17.8527 0.880607 17.7591 0.80554 17.1466 0.836409L16.8742 0.850138L17.082 4.97335ZM13.5389 12.609C13.6628 12.6648 13.8604 12.8021 13.9781 12.9142C14.1726 13.0995 14.1984 13.1927 14.2612 13.9419L14.3302 14.7659L15.1353 14.7572C15.7835 14.7502 15.985 14.778 16.1693 14.8997C16.7588 15.2891 16.9478 15.8472 16.6853 16.4233C16.4603 16.9171 16.0727 17.1002 15.149 17.149L14.4379 17.1866L14.4768 17.9578C14.5212 18.8392 14.4125 19.1423 13.9538 19.416C13.5853 19.636 12.9224 19.6064 12.6218 19.3565C12.2477 19.0456 12.1563 18.8063 12.1175 18.0374L12.0814 17.3204L11.2728 17.3336C10.4036 17.3477 10.199 17.2769 9.82544 16.8325C9.57837 16.5385 9.55851 15.936 9.78454 15.5878C10.0512 15.1768 10.3635 15.0384 11.2084 14.9568L11.9586 14.8844L11.9239 14.1934C11.8834 13.3879 12.0011 13.0365 12.4124 12.7352C12.72 12.5098 13.1995 12.4561 13.5389 12.609ZM20.4527 21.7597C21.318 22.135 21.4001 23.2935 20.5995 23.8323C20.3762 23.9826 20.0033 24.0109 13.906 24.3393C9.55201 24.5738 7.31107 24.6662 7.02586 24.6227C6.41207 24.529 5.98153 24.0727 5.95566 23.4883C5.94143 23.1655 6.24241 22.652 6.55359 22.4684C6.81569 22.3138 7.16014 22.2891 13.496 21.9699C19.6808 21.6583 20.1837 21.643 20.4527 21.7597ZM15.865 26.7163C16.4859 26.9692 16.7666 27.7082 16.4669 28.3008C16.1289 28.9692 16.3604 28.9289 11.4421 29.1768C7.16211 29.3925 7.07457 29.3938 6.84621 29.2429C6.25553 28.8528 6.07667 28.3421 6.32696 27.7605C6.4428 27.4914 6.57485 27.3432 6.81834 27.2089C7.14255 27.0301 7.2619 27.0198 11.3658 26.8128C15.086 26.6253 15.6138 26.6139 15.865 26.7163ZM24.0686 26.2608C23.8504 26.3163 23.405 26.4997 23.0789 26.6685C22.5438 26.9453 22.34 27.1328 20.9883 28.5931L19.4907 30.211L22.7566 33.1224L26.0225 36.0338L27.4513 34.4534C28.9473 32.7988 29.2187 32.3902 29.453 31.4395C29.5883 30.891 29.5382 29.7064 29.3566 29.1568C28.76 27.3514 27.0687 26.1423 25.1579 26.1552C24.7771 26.1577 24.2869 26.2052 24.0686 26.2608ZM16.3602 33.6445C15.2269 34.8968 14.8505 35.3688 14.6979 35.7286C13.815 37.8109 14.5534 40.1081 16.4672 41.2331C17.2585 41.6983 17.9264 41.8511 18.938 41.7981C20.5377 41.7145 21.1981 41.3002 23.1636 39.1469L24.3985 37.7939L21.1575 34.9075C19.3748 33.3198 17.8959 32.022 17.8707 32.0232C17.8457 32.0245 17.1659 32.7541 16.3602 33.6445Z" fill="#0B4977"/>
</svg>
