<svg width="30" height="34" viewBox="0 0 30 34" fill="none" xmlns="http://www.w3.org/2000/svg">
<path fill-rule="evenodd" clip-rule="evenodd" d="M5.34057 0.128586C4.01896 0.473278 2.98234 1.4931 2.6337 2.79148C2.53769 3.14891 2.51704 3.90807 2.51704 7.07772V10.9296H3.76594H5.01491L5.03649 7.06725C5.0576 3.3015 5.06222 3.19972 5.21937 2.99556C5.30804 2.88044 5.47771 2.71586 5.59648 2.62986C5.81126 2.47431 5.85481 2.47348 13.7761 2.47348C21.6974 2.47348 21.7409 2.47431 21.9557 2.62986C22.0745 2.71586 22.2442 2.88044 22.3328 2.99556C22.49 3.19972 22.4946 3.30157 22.5156 7.05102L22.5372 10.8972L23.4168 10.9877C23.9007 11.0375 24.4627 11.1269 24.6658 11.1862L25.0352 11.294V7.25988C25.0352 3.8822 25.0157 3.15331 24.9155 2.78002C24.5642 1.47194 23.5221 0.464405 22.1662 0.121837C21.5068 -0.0447836 5.98124 -0.0385647 5.34057 0.128586ZM9.51095 4.96808C8.99319 5.18908 8.69553 5.76993 8.80632 6.3429C8.87482 6.69723 9.26505 7.11632 9.61987 7.21658C9.81088 7.27065 11.2473 7.28984 13.9464 7.27444C17.8863 7.252 17.9923 7.24752 18.2028 7.09501C18.613 6.79779 18.741 6.55548 18.741 6.07587C18.741 5.59626 18.613 5.35395 18.2028 5.05674C17.9919 4.90392 17.8921 4.89997 13.8681 4.88337C10.5634 4.86964 9.70228 4.8864 9.51095 4.96808ZM9.51095 8.60839C8.99319 8.82939 8.69553 9.41025 8.80632 9.98322C8.87482 10.3375 9.26505 10.7566 9.61987 10.8569C9.81088 10.911 11.2473 10.9302 13.9464 10.9148C17.8863 10.8923 17.9923 10.8878 18.2028 10.7353C18.613 10.4381 18.741 10.1958 18.741 9.71619C18.741 9.23657 18.613 8.99426 18.2028 8.69705C17.9919 8.54423 17.8921 8.54029 13.8681 8.52368C10.5634 8.50995 9.70228 8.52671 9.51095 8.60839ZM2.83855 12.263C1.51694 12.6077 0.480327 13.6275 0.131687 14.9259C-0.0457993 15.5867 -0.0429844 30.5518 0.134737 31.2136C0.486035 32.5217 1.52812 33.5292 2.88398 33.8718C3.56797 34.0446 23.9953 34.0418 24.68 33.8688C26.0286 33.5281 27.0673 32.5173 27.4205 31.2021C27.5108 30.8658 27.5372 30.275 27.5372 28.5834V26.3991L27.2398 26.5812C23.2278 29.0378 17.9677 27.9787 15.2664 24.1703C14.8925 23.6431 14.2815 22.3497 14.099 21.6989C13.6108 19.958 13.7067 17.9915 14.357 16.4091L14.614 15.7834H13.7182C12.7075 15.7834 12.403 15.6921 12.1003 15.2987C12.0005 15.169 11.8752 14.9264 11.8216 14.7595C11.4286 13.5339 10.3966 12.5816 9.10883 12.2562C8.4709 12.0951 3.46155 12.1004 2.83855 12.263ZM21.2307 12.2552C19.6533 12.5329 18.2365 13.2732 17.1273 14.3993C14.3202 17.2492 14.3384 21.6569 17.1688 24.4932C18.4947 25.8219 20.2431 26.5846 22.1813 26.6797C25.7355 26.8542 28.8518 24.6111 29.8228 21.1791C30.059 20.3444 30.059 18.503 29.8228 17.6683C29.0156 14.8153 26.7185 12.7486 23.8072 12.2562C23.0066 12.1208 21.9968 12.1204 21.2307 12.2552ZM25.7203 17.1995C26.1986 17.5458 26.391 18.0894 26.2167 18.6017C26.1553 18.7822 25.4918 19.4752 23.9988 20.918C22.1638 22.6914 21.8279 22.984 21.5753 23.0288C21.1617 23.1022 20.7797 23.015 20.4942 22.782C20.164 22.5124 18.7801 19.8243 18.7801 19.4524C18.7801 18.4089 20.0384 17.8307 20.8344 18.5087C20.9732 18.6269 21.2085 18.9676 21.3572 19.2657L21.6275 19.8077L22.999 18.4813C23.7533 17.7517 24.4585 17.1196 24.566 17.0765C24.854 16.9611 25.4837 17.0282 25.7203 17.1995Z" fill="#0B4977"/>
</svg>
