<svg width="42" height="37" viewBox="0 0 42 37" fill="none" xmlns="http://www.w3.org/2000/svg">
<path d="M30.6211 28.7017C31.8408 29.9211 33.4946 30.6061 35.2189 30.6061C36.9436 30.6061 38.5976 29.921 39.8168 28.7014C41.0361 27.4821 41.7211 25.8281 41.7211 24.1035C41.7211 22.3792 41.036 20.7253 39.8168 19.5061C38.5975 18.2864 36.9435 17.6014 35.2189 17.6014C33.4946 17.6014 31.8407 18.2864 30.6211 19.5057C29.4025 20.7257 28.7181 22.3792 28.7181 24.1035C28.7181 25.8282 29.4025 27.4818 30.6211 28.7017ZM32.7619 23.1789H34.2905V21.6506C34.2905 21.1387 34.7053 20.7236 35.2173 20.7236C35.7293 20.7236 36.1441 21.1387 36.1441 21.6506V23.1793H37.6727V23.1789C37.9179 23.1803 38.1526 23.2785 38.3254 23.453C38.4978 23.6271 38.5942 23.8626 38.5932 24.1081C38.5932 24.6187 38.1791 25.0327 37.6686 25.0327H36.1441V26.5613V26.561C36.1441 27.073 35.7294 27.4881 35.2174 27.4881C34.7054 27.4881 34.2906 27.0729 34.2906 26.561V25.0328H32.762C32.25 25.0328 31.8352 24.6176 31.8352 24.106C31.8352 23.594 32.25 23.1789 32.762 23.1789L32.7619 23.1789ZM1.27157 36.1165H35.5312C36.2309 36.1165 36.7978 35.5495 36.7978 34.8499C36.8034 34.0164 36.6603 33.1886 36.3757 32.4053C34.2116 32.7223 32.0094 32.1737 30.2469 30.8782C28.4842 29.583 27.3032 27.6451 26.9599 25.4849C26.2926 25.2863 25.6932 25.1303 25.174 25.0119C25.1305 25.0001 25.1005 24.96 25.1022 24.9147V23.5213C25.9095 22.4688 26.5124 21.2746 26.8799 19.9999C27.7961 19.0965 28.2015 17.6651 28.4168 16.8924C28.7713 15.6257 29.1304 13.8227 28.1465 12.5222L28.1044 12.4672C28.5773 10.1871 29.1684 4.80386 25.0769 2.07591C25.5529 1.5852 25.81 0.922752 25.7905 0.239093C25.7852 0.17327 25.7532 0.111973 25.7016 0.0705329C25.6459 0.0252579 25.5742 0.00540636 25.5031 0.0155061C25.4526 0.0155061 20.3351 0.598167 17.8736 0.0872499C15.3403 -0.436202 12.5663 1.48488 11.992 3.46515C11.037 3.58948 10.1681 4.0802 9.56831 4.83319C8.44929 6.2096 8.10729 8.40536 8.55066 11.3441C8.58027 11.724 8.62659 12.0956 8.68997 12.4798L8.64783 12.5348C7.66817 13.831 8.02722 15.6508 8.38175 16.9049C8.61405 17.6649 9.03615 19.0962 9.93541 19.9997C10.3011 21.2827 10.9039 22.486 11.713 23.5464V24.9103C11.7165 24.9559 11.6859 24.997 11.6413 25.0074C8.14114 25.814 6.07639e-06 28.3895 6.07639e-06 34.8451C-0.00103876 35.1825 0.1327 35.5064 0.371267 35.745C0.609834 35.9836 0.933724 36.1173 1.27122 36.1159L1.27157 36.1165ZM18.4014 29.9479C16.2379 29.9737 14.1942 28.955 12.9127 27.2116C13.4695 26.8985 13.893 26.3924 14.1031 25.7889C14.6763 26.1671 15.2932 26.4746 15.9399 26.7052C17.5367 27.2697 19.2791 27.2697 20.8759 26.7052C21.5209 26.4701 22.1363 26.1598 22.7086 25.7805C22.9168 26.3942 23.3455 26.9085 23.9118 27.2244C22.6229 28.9689 20.5705 29.9834 18.4015 29.9479H18.4014ZM10.5904 16.2721C10.1387 14.6801 10.3285 14.1016 10.4849 13.899L10.4845 13.8993C10.5921 13.7638 10.76 13.691 10.9324 13.705H11.0421C11.1734 13.7123 11.2862 13.6123 11.2953 13.481C11.2953 13.4472 11.5781 10.0189 13.6092 8.78146C14.6268 8.16501 15.9273 8.18626 17.4855 8.84902C20.669 10.2087 23.0379 10.1157 24.4819 9.79908C26.1286 11.0153 25.6556 12.953 25.5417 13.3334V13.3797C25.5146 13.4574 25.5288 13.5434 25.5797 13.6078C25.6309 13.6733 25.712 13.7085 25.7949 13.7008C25.9973 13.6635 26.2041 13.7356 26.3396 13.8906C26.4915 14.0933 26.6816 14.6718 26.2341 16.2637C25.6556 18.3032 25.1869 18.493 25.0559 18.5058V18.5055C24.9448 18.5142 24.8539 18.5981 24.8365 18.7082C24.4987 20.8828 22.7719 23.5808 20.116 24.5392C19.0141 24.9328 17.8102 24.9328 16.7085 24.5392C13.93 23.5808 12.3172 20.8447 11.9923 18.7168C11.9749 18.6064 11.884 18.5225 11.7725 18.5141C11.6374 18.5012 11.1477 18.3114 10.5905 16.272L10.5904 16.2721Z" fill="#0B4977"/>
</svg>
