<svg width="18" height="20" viewBox="0 0 18 20" fill="none" xmlns="http://www.w3.org/2000/svg">
<path fill-rule="evenodd" clip-rule="evenodd" d="M13.4109 0.768617L13.4119 1.51824C16.1665 1.73413 17.9862 3.61119 17.9891 6.48975L18 14.9155C18.0039 18.054 16.0322 19.985 12.8718 19.99L5.15188 20C2.01119 20.004 0.0148166 18.027 0.0108673 14.8795L6.64975e-06 6.55272C-0.00394266 3.65517 1.75153 1.78311 4.50617 1.53024L4.50518 0.780611C4.5042 0.340832 4.83001 0.00999726 5.26444 0.00999726C5.69886 0.00899776 6.02468 0.338833 6.02567 0.778612L6.02666 1.47826L11.8914 1.47027L11.8904 0.770616C11.8894 0.330837 12.2152 0.00100177 12.6497 2.26549e-06C13.0742 -0.000997234 13.4099 0.328838 13.4109 0.768617ZM1.52149 6.85988L16.4696 6.83989V6.49007C16.4272 4.34114 15.349 3.21371 13.4139 3.04579L13.4148 3.81541C13.4148 4.24519 13.0801 4.58602 12.6556 4.58602C12.2212 4.58702 11.8944 4.24719 11.8944 3.8174L11.8934 3.00781L6.02865 3.01581L6.02963 3.8244C6.02963 4.25519 5.7048 4.59502 5.27038 4.59502C4.83595 4.59601 4.50915 4.25718 4.50915 3.8264L4.50816 3.05679C2.58287 3.24969 1.51755 4.38112 1.52051 6.54904L1.52149 6.85988ZM12.2397 11.4021V11.4131C12.2496 11.8728 12.6248 12.2217 13.08 12.2117C13.5243 12.2007 13.8787 11.8199 13.8688 11.3601C13.8481 10.9203 13.4917 10.5615 13.0484 10.5625C12.5942 10.5725 12.2388 10.9423 12.2397 11.4021ZM13.0555 15.8916C12.6014 15.8816 12.2351 15.5027 12.2341 15.043C12.2242 14.5832 12.5885 14.2024 13.0427 14.1914H13.0526C13.5166 14.1914 13.8928 14.5702 13.8928 15.04C13.8938 15.5097 13.5186 15.8906 13.0555 15.8916ZM8.17236 11.4192C8.19211 11.8789 8.56828 12.2378 9.02245 12.2178C9.46675 12.1968 9.8212 11.817 9.80145 11.3572C9.79059 10.9074 9.42528 10.5576 8.98098 10.5586C8.52681 10.5786 8.17137 10.9594 8.17236 11.4192ZM9.02635 15.8467C8.57218 15.8667 8.197 15.5078 8.17626 15.0481C8.17626 14.5883 8.53071 14.2085 8.98488 14.1875C9.42918 14.1865 9.79548 14.5363 9.80535 14.9851C9.82609 15.4459 9.47065 15.8257 9.02635 15.8467ZM4.10449 11.4543C4.12423 11.9141 4.50041 12.2739 4.95458 12.2529C5.39887 12.2329 5.75332 11.8521 5.73259 11.3924C5.72272 10.9426 5.35741 10.5928 4.91212 10.5937C4.45795 10.6137 4.1035 10.9945 4.10449 11.4543ZM4.95848 15.8506C4.50431 15.8716 4.12913 15.5117 4.10839 15.052C4.10741 14.5922 4.46284 14.2114 4.91702 14.1914C5.36131 14.1904 5.72761 14.5402 5.73748 14.99C5.75822 15.4498 5.40377 15.8306 4.95848 15.8506Z" fill="#5882A2"/>
</svg>
