<svg width="18" height="21" viewBox="0 0 18 21" fill="none" xmlns="http://www.w3.org/2000/svg">
<rect y="3" width="15" height="18" rx="3" fill="#5882A2"/>
<path fill-rule="evenodd" clip-rule="evenodd" d="M7.00868 9.02339L6.97634 9.04707L6.97631 9.52912C6.9763 9.96524 6.97425 10.015 6.95483 10.0509C6.92898 10.0988 6.91845 10.1037 6.70018 10.1685C5.86227 10.4174 5.34545 11.0114 5.24603 11.8398C5.21844 12.0697 5.23734 12.3811 5.28941 12.5541C5.43841 13.0493 5.82188 13.4392 6.52835 13.8139C6.61611 13.8604 6.86465 13.9824 7.08066 14.085C7.53967 14.303 7.63146 14.3502 7.77967 14.4443C7.93894 14.5455 8.04279 14.6453 8.09902 14.7513L8.14539 14.8386L8.13961 14.9736C8.13303 15.1269 8.10835 15.2073 8.04101 15.2948C7.92221 15.449 7.65135 15.5264 7.28426 15.511C6.86413 15.4934 6.47625 15.3549 5.98218 15.0462C5.82993 14.9511 5.79211 14.9441 5.74482 15.0028C5.72833 15.0232 5.55352 15.276 5.35635 15.5647C4.94255 16.1703 4.95722 16.1372 5.06345 16.2268C5.16328 16.311 5.42807 16.4703 5.62012 16.5617C5.83163 16.6623 6.08367 16.7558 6.30848 16.817C6.48198 16.8642 6.80582 16.9314 6.86008 16.9314C6.87655 16.9314 6.90807 16.9464 6.93011 16.9647L6.9702 16.9981L6.97634 17.4786C6.98197 17.9202 6.98425 17.9609 7.00438 17.9796C7.02479 17.9986 7.06593 18 7.60379 18H8.18127L8.21089 17.9679L8.24051 17.9359V17.4343V16.9327L8.26813 16.9037C8.28787 16.883 8.3448 16.8597 8.46758 16.8222C9.2236 16.5913 9.72041 16.1186 9.91421 15.4456C10.0081 15.1194 10.027 14.7048 9.96064 14.4222C9.85125 13.9559 9.55155 13.5849 9.02008 13.2577C8.79103 13.1168 8.67761 13.0581 8.33046 12.9013C7.49059 12.5218 7.38507 12.4665 7.23688 12.3286C7.13394 12.2327 7.09519 12.1561 7.08883 12.0358C7.07722 11.8163 7.16554 11.6442 7.32945 11.5668C7.43268 11.5181 7.52353 11.5013 7.72064 11.4946C7.93676 11.4872 8.0588 11.5005 8.21793 11.5489C8.41897 11.6101 8.60668 11.7096 8.82908 11.8729C8.94129 11.9553 8.97319 11.9686 9.0122 11.9491C9.02611 11.9422 9.23223 11.7272 9.47025 11.4713C9.99017 10.9125 9.96244 10.9685 9.79284 10.8194C9.35975 10.4388 8.88007 10.1951 8.37074 10.0971C8.3221 10.0877 8.28896 10.0736 8.26948 10.0541L8.24051 10.025V9.55158C8.24051 9.06751 8.23871 9.0474 8.19249 9.01435C8.17785 9.00388 8.03258 9.00033 7.60701 9.00006C7.05269 8.99971 7.04034 9.00019 7.00868 9.02339Z" fill="white"/>
<circle cx="13.5" cy="4.5" r="4.175" fill="white" stroke="#E7EDF1" stroke-width="0.65"/>
<path d="M12 4.99986L13.0003 5.99972L15 4" stroke="#5882A2" stroke-width="0.632023" stroke-linecap="round" stroke-linejoin="round"/>
</svg>
