<svg width="18" height="19" viewBox="0 0 18 19" fill="none" xmlns="http://www.w3.org/2000/svg">
<path fill-rule="evenodd" clip-rule="evenodd" d="M4.329 1H11.8719C14.652 1 16.2 2.602 16.2 5.347V14.644C16.2 17.434 14.652 19 11.8719 19H4.329C1.593 19 0 17.434 0 14.644V5.347C0 2.602 1.593 1 4.329 1ZM4.57214 5.19259V5.18359H7.26224C7.65014 5.18359 7.96514 5.49859 7.96514 5.88469C7.96514 6.28159 7.65014 6.59659 7.26224 6.59659H4.57214C4.18424 6.59659 3.87014 6.28159 3.87014 5.89459C3.87014 5.50759 4.18424 5.19259 4.57214 5.19259ZM4.57212 10.6629H11.6281C12.0151 10.6629 12.3301 10.3479 12.3301 9.96091C12.3301 9.57391 12.0151 9.25801 11.6281 9.25801H4.57212C4.18422 9.25801 3.87012 9.57391 3.87012 9.96091C3.87012 10.3479 4.18422 10.6629 4.57212 10.6629ZM4.57206 14.7762H11.6281C11.9872 14.7402 12.2581 14.4333 12.2581 14.0742C12.2581 13.7052 11.9872 13.3992 11.6281 13.3632H4.57206C4.30206 13.3362 4.04106 13.4622 3.89706 13.6962C3.75306 13.9212 3.75306 14.2182 3.89706 14.4522C4.04106 14.6772 4.30206 14.8122 4.57206 14.7762Z" fill="#5882A2"/>
<circle cx="14" cy="4" r="4" fill="white"/>
<path d="M15.3825 4.81528L14.5672 4.0004L15.382 3.18552C15.5387 3.02924 15.5387 2.77487 15.382 2.61859C15.2253 2.46093 14.9718 2.46139 14.8151 2.61813L13.9998 3.43301L13.1846 2.61721C13.0278 2.46047 12.7739 2.46139 12.6172 2.61721C12.4609 2.77396 12.4609 3.02832 12.6172 3.1846L13.4329 4.0004L12.619 4.81391C12.4623 4.97065 12.4623 5.22501 12.619 5.38084C12.6974 5.45967 12.7996 5.49863 12.9023 5.49863C13.0054 5.49863 13.1076 5.45967 13.1859 5.3813L13.9998 4.56733L14.8156 5.38267C14.8939 5.46104 14.9961 5.5 15.0988 5.5C15.2014 5.5 15.3041 5.46059 15.3825 5.38267C15.5392 5.22593 15.5392 4.97202 15.3825 4.81528Z" fill="#5882A2"/>
</svg>
