<svg width="18" height="19" viewBox="0 0 18 19" fill="none" xmlns="http://www.w3.org/2000/svg">
<path fill-rule="evenodd" clip-rule="evenodd" d="M4.329 1H11.8719C14.652 1 16.2 2.602 16.2 5.347V14.644C16.2 17.434 14.652 19 11.8719 19H4.329C1.593 19 0 17.434 0 14.644V5.347C0 2.602 1.593 1 4.329 1ZM4.57214 5.19259V5.18359H7.26224C7.65014 5.18359 7.96514 5.49859 7.96514 5.88469C7.96514 6.28159 7.65014 6.59659 7.26224 6.59659H4.57214C4.18424 6.59659 3.87014 6.28159 3.87014 5.89459C3.87014 5.50759 4.18424 5.19259 4.57214 5.19259ZM4.57212 10.6629H11.6281C12.0151 10.6629 12.3301 10.3479 12.3301 9.96091C12.3301 9.57391 12.0151 9.25801 11.6281 9.25801H4.57212C4.18422 9.25801 3.87012 9.57391 3.87012 9.96091C3.87012 10.3479 4.18422 10.6629 4.57212 10.6629ZM4.57206 14.7762H11.6281C11.9872 14.7402 12.2581 14.4333 12.2581 14.0742C12.2581 13.7052 11.9872 13.3992 11.6281 13.3632H4.57206C4.30206 13.3362 4.04106 13.4622 3.89706 13.6962C3.75306 13.9212 3.75306 14.2182 3.89706 14.4522C4.04106 14.6772 4.30206 14.8122 4.57206 14.7762Z" fill="#5882A2"/>
<circle cx="14" cy="4" r="4" fill="white"/>
<path d="M13.6481 5.5C13.5344 5.5 13.4208 5.46075 13.334 5.38178L12.1301 4.28596C11.9566 4.12803 11.9566 3.8722 12.1301 3.71473C12.3036 3.5568 12.5842 3.55634 12.7577 3.71427L13.6481 4.52471L15.7423 2.61845C15.9158 2.46052 16.1964 2.46052 16.3699 2.61845C16.5434 2.77638 16.5434 3.03221 16.3699 3.19014L13.9621 5.38178C13.8753 5.46075 13.7617 5.5 13.6481 5.5Z" fill="#5882A2"/>
</svg>
