<svg width="24" height="24" viewBox="0 0 24 24" fill="none" xmlns="http://www.w3.org/2000/svg">
<path fill-rule="evenodd" clip-rule="evenodd" d="M13.2437 0.046522C12.3823 0.189648 11.5349 0.521796 10.8138 0.998851C10.3715 1.29153 9.64617 1.99755 9.31435 2.45843C8.52521 3.5544 8.17051 4.74854 8.21889 6.14642C8.25434 7.17137 8.49779 8.03223 8.99125 8.87763C9.83186 10.3178 11.1468 11.2942 12.7984 11.7044C13.3589 11.8437 14.4919 11.8803 15.0784 11.7782C17.5417 11.3492 19.44 9.51956 19.9485 7.08403C20.0649 6.52615 20.0885 5.63191 20.0015 5.06475C19.8033 3.77178 19.242 2.66615 18.3112 1.7353C17.4685 0.892621 16.5447 0.383217 15.3768 0.117218C14.8523 -0.00223362 13.7558 -0.038566 13.2437 0.046522ZM14.4718 1.66727C14.6728 1.78987 14.783 1.96937 14.8129 2.22285C14.8366 2.42416 14.8462 2.43536 15.0441 2.49363C15.5081 2.63024 15.9897 3.09877 16.1831 3.60175C16.3175 3.95119 16.3229 4.43238 16.1943 4.60466C15.9549 4.92546 15.5843 5.0323 15.2845 4.867C15.0573 4.74174 14.9484 4.57677 14.9029 4.28901C14.8766 4.12231 14.8248 4.00262 14.7442 3.92203C14.6311 3.80887 14.5977 3.8024 14.1295 3.8024H13.6345L13.4977 3.95551C13.3366 4.13586 13.3207 4.32464 13.4527 4.49238C13.5031 4.55652 14.0041 4.94815 14.5661 5.36267C15.128 5.77724 15.676 6.20755 15.7839 6.31894C16.7184 7.28388 16.3225 8.88907 15.0369 9.34723C14.8311 9.4206 14.8142 9.43855 14.8142 9.58435C14.8142 9.95742 14.5204 10.2543 14.1455 10.2599C13.7616 10.2658 13.4893 10.0191 13.428 9.60999C13.4007 9.42828 13.3824 9.40775 13.1805 9.33166C12.5154 9.08104 12.042 8.46452 11.9767 7.76379C11.9433 7.40586 12.0293 7.19837 12.2826 7.02543C12.6912 6.74654 13.3601 7.06509 13.3607 7.53891C13.3613 7.91461 13.5652 8.04508 14.152 8.04508C14.5335 8.04508 14.5857 8.03406 14.7134 7.92661C14.875 7.79061 14.9325 7.60004 14.8653 7.42311C14.8344 7.34206 14.4231 7.00616 13.6504 6.43098C13.0078 5.95271 12.4297 5.49262 12.3657 5.40857C11.9408 4.85046 11.8434 4.10914 12.1165 3.51249C12.3382 3.02817 12.6517 2.72204 13.1212 2.53119C13.3729 2.42889 13.3829 2.41792 13.4349 2.18727C13.4643 2.05619 13.5284 1.90416 13.5771 1.84931C13.8221 1.57361 14.194 1.49789 14.4718 1.66727ZM9.71991 12.8026C8.32812 13.0551 7.02452 13.9442 6.33735 15.1096L6.19764 15.3466L7.63453 17.8369L9.07137 20.3272H12.0014C15.1796 20.3272 15.4589 20.31 16.2667 20.065C17.2023 19.7813 17.6467 19.5065 20.396 17.5129C23.7983 15.0456 23.5909 15.2261 23.6185 14.7073C23.6389 14.3238 23.5093 14.0457 23.213 13.837C22.9619 13.6601 22.5284 13.6212 22.2616 13.7515C22.1677 13.7973 21.129 14.531 19.9534 15.3819C18.7778 16.2327 17.704 16.9972 17.5673 17.0807C17.4306 17.1641 17.1526 17.2749 16.9497 17.3268C16.6101 17.4137 16.4313 17.4212 14.7043 17.4212C12.9055 17.4212 12.8197 17.4172 12.6285 17.3246C12.4083 17.218 12.2352 16.9383 12.2365 16.6914C12.2377 16.492 12.4213 16.2021 12.6101 16.1017C12.7617 16.021 12.9152 16.0148 14.7457 16.0148H16.7179L16.9501 15.8991C17.3502 15.6997 17.552 15.2605 17.438 14.8371C17.3677 14.5759 17.0611 14.2627 16.8065 14.1921C16.6883 14.1593 16.0936 14.14 15.1955 14.1398L13.7719 14.1395L13.4959 13.884C12.5295 12.9892 11.0408 12.5629 9.71991 12.8026ZM3.78339 14.9382C3.71124 14.9592 2.87129 15.4263 1.91675 15.9761C0.0323476 17.0616 0 17.0869 0 17.476C0 17.6639 0.163425 17.967 1.70321 20.6349C2.64003 22.258 3.43315 23.6281 3.46573 23.6797C3.58471 23.8679 3.76422 23.961 4.00828 23.961C4.2274 23.961 4.34502 23.9019 5.81318 23.0534C7.80517 21.9022 7.80541 21.9021 7.895 21.7133C8.03737 21.4133 8.00118 21.2947 7.50073 20.4204C5.26467 16.5137 4.42355 15.1007 4.28956 15.026C4.09927 14.92 3.94035 14.8924 3.78339 14.9382Z" fill="#5882A2"/>
</svg>
