<svg width="18" height="20" viewBox="0 0 18 20" fill="none" xmlns="http://www.w3.org/2000/svg">
<path fill-rule="evenodd" clip-rule="evenodd" d="M13.4119 1.51824L13.4109 0.768617C13.4099 0.328838 13.0742 -0.000997234 12.6497 2.26549e-06C12.2152 0.00100177 11.8894 0.330837 11.8904 0.770616L11.8914 1.47027L6.02666 1.47826L6.02567 0.778612C6.02468 0.338833 5.69886 0.00899776 5.26444 0.00999726C4.83001 0.00999726 4.5042 0.340832 4.50518 0.780611L4.50617 1.53024C1.75153 1.78311 -0.00394266 3.65517 6.64975e-06 6.55272L0.0108673 14.8795C0.0148166 18.027 2.01119 20.004 5.15188 20L12.8718 19.99C16.0322 19.985 18.0039 18.054 18 14.9155L17.9891 6.48975C17.9862 3.61119 16.1665 1.73413 13.4119 1.51824ZM16.4696 6.83989L1.52149 6.85988L1.52051 6.54904C1.51755 4.38112 2.58287 3.24969 4.50816 3.05679L4.50915 3.8264C4.50915 4.25718 4.83595 4.59601 5.27038 4.59502C5.7048 4.59502 6.02963 4.25519 6.02963 3.8244L6.02865 3.01581L11.8934 3.00781L11.8944 3.8174C11.8944 4.24719 12.2212 4.58702 12.6556 4.58602C13.0801 4.58602 13.4148 4.24519 13.4148 3.81541L13.4139 3.04579C15.349 3.21371 16.4272 4.34114 16.4696 6.49007V6.83989ZM10.5107 12.2737L12.2897 14.0517C12.6317 14.3937 12.6317 14.9477 12.2897 15.2897C12.1187 15.4597 11.8947 15.5457 11.6707 15.5457C11.4467 15.5457 11.2237 15.4607 11.0527 15.2897L9.27274 13.5107L7.49674 15.2867C7.32574 15.4577 7.10274 15.5427 6.87774 15.5427C6.65374 15.5427 6.43074 15.4577 6.25974 15.2857C5.91774 14.9457 5.91774 14.3907 6.25974 14.0487L8.03574 12.2737L6.25574 10.4937C5.91474 10.1527 5.91474 9.59775 6.25574 9.25575C6.59774 8.91575 7.15174 8.91375 7.49374 9.25575L9.27274 11.0357L11.0517 9.25775C11.3937 8.91575 11.9467 8.91475 12.2887 9.25875C12.6307 9.59975 12.6307 10.1547 12.2887 10.4957L10.5107 12.2737Z" fill="#5882A2"/>
</svg>
