<svg width="24" height="24" viewBox="0 0 24 24" fill="none" xmlns="http://www.w3.org/2000/svg">
<path fill-rule="evenodd" clip-rule="evenodd" d="M2 12.015C2 6.74712 6.21 2 12.02 2C17.7 2 22 6.65699 22 11.985C22 18.1642 16.96 22 12 22C10.36 22 8.54 21.5593 7.08 20.698C6.57 20.3876 6.14 20.1572 5.59 20.3375L3.57 20.9384C3.06 21.0986 2.6 20.698 2.75 20.1572L3.42 17.9139C3.53 17.6034 3.51 17.2729 3.35 17.0125C2.49 15.4301 2 13.6975 2 12.015ZM7.36984 13.306C6.66984 13.306 6.08984 12.7252 6.08984 12.0241C6.08984 11.313 6.65984 10.7422 7.36984 10.7422C8.07984 10.7422 8.64984 11.313 8.64984 12.0241C8.64984 12.7252 8.07984 13.296 7.36984 13.306ZM10.7002 12.0142C10.7002 12.7253 11.2702 13.2961 11.9802 13.3062C12.6902 13.3062 13.2602 12.7253 13.2602 12.0242C13.2602 11.3132 12.6902 10.7423 11.9802 10.7423C11.2802 10.7323 10.7002 11.3132 10.7002 12.0142ZM15.3102 12.0242C15.3102 12.7253 15.8802 13.3062 16.5902 13.3062C17.3002 13.3062 17.8702 12.7253 17.8702 12.0242C17.8702 11.3132 17.3002 10.7423 16.5902 10.7423C15.8802 10.7423 15.3102 11.3132 15.3102 12.0242Z" fill="#5882A2"/>
</svg>
