<svg width="25" height="27" viewBox="0 0 25 27" fill="none" xmlns="http://www.w3.org/2000/svg">
<path fill-rule="evenodd" clip-rule="evenodd" d="M13.0997 0.217016C12.9642 0.352944 12.8831 0.677431 12.8831 1.08494V1.73571L11.3752 1.89637C5.85003 2.48484 1.72998 6.08058 0.252508 11.6036C-0.0795718 12.8448 -0.0852236 16.0011 0.242169 17.3128C1.40796 21.9823 5.01163 25.5932 9.66722 26.7567C10.9652 27.0811 14.1118 27.0811 15.4098 26.7567C19.0202 25.8544 22.1654 23.3609 23.807 20.0992C24.2782 19.163 24.876 17.2242 24.876 16.6323C24.876 15.9829 24.3693 15.4715 23.7258 15.4715C23.0156 15.4715 22.7037 15.8225 22.3866 16.9786C21.1253 21.5771 17.2281 24.5887 12.5385 24.5887C8.49068 24.5887 5.15416 22.4563 3.35219 18.7178C2.70058 17.3658 2.41206 16.0647 2.40889 14.4627C2.39841 9.14878 6.49406 4.70113 11.7459 4.32318L12.8831 4.24127V5.1382C12.8831 6.05903 13.1078 6.49251 13.585 6.49251C13.8318 6.49251 17.5792 3.81691 17.7429 3.52405C17.8086 3.40622 17.8246 3.19017 17.7784 3.04416C17.6752 2.71829 13.914 0 13.5663 0C13.4289 0 13.2189 0.0976639 13.0997 0.217016ZM19.2585 4.56299C19.0879 4.63165 18.8459 4.90295 18.7208 5.16583C18.527 5.57334 18.5196 5.70747 18.6714 6.07464C19.0316 6.94629 20.1676 7.12187 20.7389 6.39415C21.1409 5.88208 21.0948 5.30673 20.6133 4.82421C20.2021 4.41214 19.8172 4.33783 19.2585 4.56299ZM21.6167 7.92501C20.8004 8.62868 21.3272 9.94597 22.4251 9.94597C23.5159 9.94597 23.9921 8.87264 23.2785 8.02267C22.8266 7.48434 22.1725 7.44594 21.6167 7.92501ZM10.9274 8.2151C9.77199 8.53392 8.97122 9.01354 8.05176 9.93713C5.5622 12.4379 5.47618 16.1985 7.85023 18.7584C9.25698 20.2753 10.9101 20.9455 12.9478 20.8248C18.5361 20.4941 21.0037 13.6671 16.9439 9.76888C16.5824 9.42174 15.9971 8.97983 15.643 8.78671C14.3031 8.05596 12.3583 7.82016 10.9274 8.2151ZM13.1312 10.8024C13.2399 10.9113 13.2967 11.4894 13.2967 12.4847V14.0012L14.3305 15.0658C15.4129 16.1804 15.5626 16.5426 15.1363 17.0147C14.7172 17.4787 14.3825 17.314 13.058 15.9923L11.7803 14.7173V12.894C11.7803 11.4207 11.8219 11.0291 11.9969 10.8537C12.2533 10.5969 12.897 10.5677 13.1312 10.8024ZM23.0226 11.7763C22.483 12.2522 22.4293 12.8409 22.8772 13.3743C23.1559 13.7062 23.3587 13.8139 23.7053 13.8139C24.354 13.8139 24.5817 13.6981 24.8122 13.2514C25.1 12.6937 25.0636 12.3749 24.657 11.8905C24.2113 11.3597 23.5476 11.3134 23.0226 11.7763Z" fill="#5882A2"/>
</svg>
