<svg width="86" height="86" viewBox="0 0 86 86" fill="none" xmlns="http://www.w3.org/2000/svg">
<circle cx="43" cy="43" r="43" fill="#4CC8F4"/>
<path d="M43.125 67.25C57.0012 67.25 68.25 56.0012 68.25 42.125C68.25 28.2488 57.0012 17 43.125 17C29.2488 17 18 28.2488 18 42.125C18 56.0012 29.2488 67.25 43.125 67.25Z" stroke="white" stroke-width="2.79167" stroke-linecap="round" stroke-linejoin="round"/>
<path d="M43.125 58.875C44.8595 58.875 46.2656 57.4689 46.2656 55.7344C46.2656 53.9999 44.8595 52.5938 43.125 52.5938C41.3905 52.5938 39.9844 53.9999 39.9844 55.7344C39.9844 57.4689 41.3905 58.875 43.125 58.875Z" fill="white"/>
<path d="M43.125 46.3125V44.2188C44.5744 44.2188 45.9912 43.789 47.1963 42.9837C48.4014 42.1785 49.3407 41.034 49.8953 39.695C50.45 38.3559 50.5951 36.8825 50.3123 35.461C50.0296 34.0395 49.3316 32.7337 48.3068 31.7089C47.2819 30.684 45.9762 29.9861 44.5546 29.7033C43.1331 29.4206 41.6597 29.5657 40.3206 30.1203C38.9816 30.675 37.8371 31.6142 37.0319 32.8193C36.2267 34.0244 35.7969 35.4413 35.7969 36.8906" stroke="white" stroke-width="2.79167" stroke-linecap="round" stroke-linejoin="round"/>
</svg>
