<svg width="42" height="42" viewBox="0 0 42 42" fill="none" xmlns="http://www.w3.org/2000/svg">
<rect width="42" height="42" rx="9" fill="#447FD9"/>
<path fill-rule="evenodd" clip-rule="evenodd" d="M15.6833 9.79086C10.2027 11.7455 10.3474 11.6812 10.1067 12.2672C10.0057 12.5133 10.0002 12.7927 10 17.6932C9.99989 23.1895 10.0154 23.5696 10.2851 24.6979C10.7506 26.6449 11.8856 28.5466 13.3008 29.7509C13.6502 30.0482 20.0776 34.638 20.4714 34.8715C20.7038 35.0092 21.1782 35.0431 21.4245 34.9395C21.5969 34.8671 28.0694 30.2742 28.513 29.9096C30.2401 28.49 31.3776 26.5119 31.8527 24.1022C31.9681 23.5164 31.9735 23.2903 31.9939 18.0913C32.009 14.2278 31.9967 12.6138 31.9507 12.4248C31.9127 12.2689 31.7881 12.0455 31.6468 11.8802L31.4073 11.5999L26.336 9.79701C22.3016 8.36283 21.2057 7.99542 20.9765 8.00004C20.7658 8.00423 19.3435 8.4855 15.6833 9.79086ZM22.5059 13.596C24.6125 14.1948 26.2695 15.9743 26.8762 18.2898C27.0867 19.0928 27.1631 20.0342 27.0812 20.8132C26.7798 23.6809 25.0589 25.9111 22.5514 26.6838C22.0577 26.8359 21.9132 26.8516 21.0037 26.8516C20.09 26.8516 19.951 26.8363 19.4459 26.6808C18.745 26.4651 18.2631 26.2237 17.6645 25.7882C15.4109 24.1486 14.389 21.1219 15.1319 18.2869C15.7983 15.7437 17.7361 13.8639 20.12 13.4482C20.7101 13.3453 21.8786 13.4177 22.5059 13.596ZM22.953 16.2093C22.8429 16.2621 22.6919 16.368 22.6173 16.4446C22.5428 16.5212 22.0819 17.4681 21.5931 18.5489C21.1043 19.6298 20.6942 20.5261 20.6819 20.5407C20.6695 20.5554 20.3177 20.196 19.9 19.7423C19.2187 19.0021 19.1109 18.9094 18.8514 18.8408C18.2843 18.6909 17.7431 18.9678 17.4854 19.5397C17.323 19.9001 17.2996 20.1791 17.3987 20.5775C17.4504 20.7858 17.7083 21.1059 18.8457 22.3736C19.6255 23.2426 20.3299 23.9736 20.4591 24.0477C20.938 24.3223 21.6265 24.1608 21.9403 23.7001C22.0177 23.5865 22.6527 22.2279 23.3515 20.6809C24.6923 17.7129 24.7606 17.5155 24.616 17.0308C24.5252 16.7267 24.2543 16.3874 23.9779 16.2314C23.7141 16.0826 23.2387 16.0724 22.953 16.2093Z" fill="white"/>
</svg>
