<svg width="40" height="38" viewBox="0 0 40 38" fill="none" xmlns="http://www.w3.org/2000/svg">
<path fill-rule="evenodd" clip-rule="evenodd" d="M33.618 0.200647C32.9433 0.593488 32.8478 0.878892 32.8107 2.61348L32.7782 4.13108H31.3345C30.2018 4.13108 29.8201 4.1648 29.5619 4.28746C29.0782 4.51747 28.8203 4.93844 28.7763 5.57015C28.7295 6.2403 28.988 6.67852 29.6185 6.99765C30.0032 7.19239 30.187 7.21445 31.421 7.21445H32.7951V8.59118C32.7951 9.82751 32.8171 10.0116 33.0115 10.3971C33.33 11.0288 33.7674 11.2878 34.4363 11.241C35.0668 11.1968 35.487 10.9385 35.7166 10.4538C35.839 10.1951 35.8726 9.81267 35.8726 8.6778V7.23141L37.3874 7.19884C38.7793 7.16888 38.9315 7.14787 39.2657 6.93974C40.2192 6.3459 40.2352 5.07999 39.2983 4.37794C39.0636 4.20209 38.8545 4.17377 37.477 4.13108L35.9207 4.0829L35.8726 2.52368C35.83 1.14358 35.8018 0.934008 35.6262 0.698901C35.1093 0.00649081 34.2973 -0.194988 33.618 0.200647ZM5.43405 2.15387C3.30902 2.62254 1.52367 4.05332 0.622152 6.01001C-0.033744 7.43376 0.000301136 6.66648 0.000301136 20.0297C0.000301136 33.393 -0.033744 32.6257 0.622152 34.0494C1.45058 35.8476 3.04099 37.2029 5.04936 37.822C5.59946 37.9917 6.29585 38 19.9561 38C33.3151 38 34.3271 37.9885 34.8956 37.8311C36.8309 37.2952 38.4805 35.9254 39.3337 34.1458C40.0358 32.6815 40.0203 32.9034 39.9884 24.7341C39.9603 17.5085 39.9581 17.4397 39.7588 17.1702C39.0591 16.2242 37.8798 16.2242 37.1798 17.1701C36.9855 17.4328 36.9777 17.5629 36.9511 21.0177L36.9237 24.5935L32.1906 19.8606C27.166 14.8362 27.0463 14.7344 26.1592 14.7344C25.264 14.7344 25.1885 14.7995 19.5555 20.4341C14.2756 25.7156 14.2483 25.741 13.8564 25.741C13.4824 25.741 13.4013 25.6809 12.2253 24.532C11.5446 23.8671 10.8416 23.2451 10.6632 23.1498C10.2271 22.917 9.29739 22.918 8.84817 23.1518C8.66304 23.2483 7.28893 24.5462 5.79469 26.0362L3.07782 28.7454L3.07859 18.9194C3.07898 12.7029 3.11533 8.8709 3.17736 8.4876C3.45664 6.76351 4.27998 5.7777 5.81874 5.32502C6.34259 5.17095 7.14409 5.15033 14.5223 5.1009L22.6489 5.04646L22.9497 4.83158C23.5664 4.39076 23.758 3.39425 23.3454 2.77228C23.226 2.59219 22.9355 2.34725 22.6999 2.22806L22.2715 2.01126L14.1413 2.01887C7.78287 2.02494 5.88529 2.05433 5.43405 2.15387ZM11.1274 11.3988C10.0445 11.6904 9.22555 12.7531 9.24017 13.8473C9.25354 14.8426 9.737 15.661 10.5851 16.1237C11.5923 16.6731 12.9897 16.4289 13.7076 15.578C14.1943 15.0009 14.3586 14.4914 14.3087 13.7125C14.2339 12.5461 13.5901 11.7384 12.4695 11.4049C11.8982 11.235 11.7382 11.2342 11.1274 11.3988Z" fill="white"/>
</svg>
