<svg width="86" height="86" viewBox="0 0 86 86" fill="none" xmlns="http://www.w3.org/2000/svg">
<circle cx="43" cy="43" r="43" fill="#FF5A36"/>
<path fill-rule="evenodd" clip-rule="evenodd" d="M37.9743 20.531C29.582 22.3273 22.2663 29.6975 20.499 38.1362C17.8749 50.6664 25.8571 62.8723 38.3991 65.5085C45.897 67.0841 53.568 64.8216 58.974 59.4395C63.4393 54.9941 65.6051 50.2867 65.9593 44.2559C66.8507 29.092 52.9663 17.3214 37.9743 20.531ZM45.2182 30.3253C46.5337 31.5 46.5366 31.5446 45.8855 39.9361C45.3645 46.6541 45.1725 47.1357 43.0186 47.1357C40.8513 47.1357 40.6733 46.6724 40.113 39.5761C39.4605 31.3124 39.4425 31.554 40.7904 30.3509C42.2972 29.0056 43.7305 28.9974 45.2182 30.3253ZM45.0673 51.6982C46.8702 53.3908 45.5184 56.6753 43.0186 56.6753C40.5587 56.6753 39.2267 53.5492 40.9194 51.7485C41.9531 50.6495 43.9244 50.6258 45.0673 51.6982Z" fill="white"/>
</svg>
