<svg width="22" height="22" viewBox="0 0 22 22" fill="none" xmlns="http://www.w3.org/2000/svg">
<rect width="22" height="22" rx="11" fill="#EBF0F4"/>
<path d="M10.3112 16C10.114 16 9.95408 15.8401 9.95408 15.6429V9.31773C9.95408 9.12049 10.114 8.96059 10.3112 8.96059H11.6843C11.8815 8.96059 12.0414 9.12049 12.0414 9.31773V15.6429C12.0414 15.8401 11.8815 16 11.6843 16H10.3112ZM10.9999 8.14024C10.7068 8.14024 10.4549 8.03636 10.2443 7.8286C10.0338 7.61778 9.92847 7.36419 9.92847 7.06783C9.92847 6.77452 10.0338 6.52398 10.2443 6.31622C10.4549 6.10541 10.7068 6 10.9999 6C11.2959 6 11.5477 6.10541 11.7554 6.31622C11.966 6.52398 12.0713 6.77452 12.0713 7.06783C12.0713 7.36419 11.966 7.61778 11.7554 7.8286C11.5477 8.03636 11.2959 8.14024 10.9999 8.14024Z" fill="#0B4977"/>
</svg>
