<svg width="42" height="42" viewBox="0 0 42 42" fill="none" xmlns="http://www.w3.org/2000/svg">
<rect width="42" height="42" rx="9" fill="#0B4977"/>
<path fill-rule="evenodd" clip-rule="evenodd" d="M19.9242 8.03908C18.0717 8.29451 16.4333 9.11123 15.1018 10.4428C13.8853 11.6594 13.1124 13.11 12.7719 14.8155C12.6305 15.5234 12.6305 17.1599 12.7719 17.8677C13.1123 19.573 13.885 21.0232 15.1018 22.2408C16.3045 23.4443 17.6426 24.1683 19.3611 24.5453C20.1171 24.7111 21.7565 24.7242 22.5285 24.5706C24.2352 24.231 25.6781 23.4611 26.8924 22.2423C28.0974 21.0328 28.8182 19.699 29.1963 17.9789C29.3743 17.1692 29.3743 15.5141 29.1963 14.7044C28.8182 12.9842 28.0974 11.6504 26.8924 10.441C25.6852 9.22922 24.2259 8.44776 22.5606 8.12111C21.9773 8.00672 20.4936 7.96054 19.9242 8.03908ZM21.5061 11.3847C21.5895 11.4471 21.7117 11.5703 21.7775 11.6585C21.8922 11.8121 21.898 11.9036 21.915 13.8624L21.9327 15.9059L22.9216 16.6902C24.0272 17.567 24.1694 17.71 24.2237 17.999C24.3494 18.6699 23.79 19.2313 23.1208 19.1057C22.8301 19.0511 20.2633 16.9862 20.1505 16.7162C20.0845 16.5582 20.0684 16.0754 20.0684 14.2559C20.0684 12.7935 20.0904 11.9344 20.1304 11.8287C20.2121 11.6129 20.4049 11.4079 20.62 11.3083C20.8513 11.2011 21.3137 11.241 21.5061 11.3847ZM10.8955 26.6562C9.5389 26.9477 8.36552 28.1326 8.07965 29.4995C7.73328 31.1561 8.54097 32.8488 10.0283 33.5834C10.9264 34.027 10.2081 33.9997 20.9973 33.9997C31.7789 33.9997 31.0782 34.026 31.9681 33.587C33.1793 32.9896 34 31.6554 34 30.2838C34 28.9122 33.1793 27.578 31.9681 26.9805C31.0775 26.5412 31.784 26.5675 20.9683 26.5715C12.9 26.5745 11.2095 26.5887 10.8955 26.6562ZM17.7819 29.5032C18.0865 29.7308 18.1816 29.9164 18.1816 30.2838C18.1816 30.6512 18.0865 30.8368 17.7819 31.0644C17.6256 31.1813 17.5469 31.1847 14.6214 31.2019C12.6173 31.2137 11.5507 31.199 11.4089 31.1576C10.8188 30.9855 10.5911 30.1789 10.9965 29.6969C11.2884 29.3497 11.2194 29.3561 14.5633 29.3704C17.5512 29.3831 17.6253 29.3861 17.7819 29.5032Z" fill="white"/>
</svg>
