<svg width="42" height="42" viewBox="0 0 42 42" fill="none" xmlns="http://www.w3.org/2000/svg">
<rect width="42" height="42" rx="9" fill="#0B4977"/>
<path fill-rule="evenodd" clip-rule="evenodd" d="M16.8088 9.14253L16.6496 9.28501V10.4649V11.6448L16.8088 11.7873L16.968 11.9297H21.4788C26.3782 11.9297 26.1903 11.9401 26.3165 11.6625C26.3973 11.4849 26.3973 9.44492 26.3165 9.26724C26.1903 8.98965 26.3782 9.00005 21.4788 9.00005H16.968L16.8088 9.14253ZM13.6567 10.5422C12.9432 10.7343 12.4048 11.2369 12.1232 11.9734L12.0186 12.2471L12.0039 22.086C11.9931 29.3284 12.004 32.0021 12.0451 32.2178C12.2084 33.0746 12.8862 33.7658 13.7393 33.9456C13.9228 33.9842 16.1756 34 21.5165 34C28.1144 34 29.0706 33.9908 29.3223 33.9251C30.0537 33.7343 30.5912 33.2386 30.8768 32.4915L30.9814 32.2178L30.9961 22.3789C31.0069 15.1365 30.996 12.4628 30.9549 12.2471C30.8704 11.8035 30.6819 11.4518 30.3512 11.1206C29.8518 10.6204 29.3938 10.4649 28.4198 10.4649H27.8372V11.1012C27.8372 11.6152 27.8179 11.7951 27.7364 12.0371C27.5496 12.5926 27.2203 12.9572 26.6695 13.2186L26.3504 13.3702L21.6223 13.3835C16.9971 13.3966 16.8872 13.3948 16.5698 13.2982C15.9944 13.1232 15.5005 12.6545 15.3017 12.0951C15.2244 11.8774 15.1935 11.6448 15.1744 11.1363L15.1491 10.4649L14.5344 10.4681C14.1607 10.4701 13.8166 10.4991 13.6567 10.5422ZM19.4775 16.3946C19.755 16.5107 19.9285 16.8641 19.8686 17.1913C19.8399 17.3482 19.6578 17.5525 18.5836 18.6329C17.2463 19.9781 17.1693 20.0351 16.7883 19.9639C16.6326 19.9348 16.4962 19.8241 15.9836 19.3107C15.4711 18.7972 15.3605 18.6606 15.3314 18.5046C15.2295 17.9576 15.7485 17.4736 16.2567 17.6417C16.3525 17.6733 16.553 17.811 16.7023 17.9476L16.9736 18.196L17.8597 17.3147C18.347 16.8301 18.7896 16.4096 18.8433 16.3804C18.9811 16.3052 19.28 16.3119 19.4775 16.3946ZM27.334 17.9163C27.7562 18.2316 27.7562 18.8115 27.334 19.1267C27.1984 19.2281 27.1562 19.2297 24.3935 19.2429L21.5905 19.2563L21.399 19.1485C21.1974 19.0349 21.0125 18.7351 21.0125 18.5215C21.0125 18.3149 21.197 18.0097 21.3899 17.8971L21.5731 17.79L24.3847 17.8018C27.1577 17.8134 27.1983 17.8149 27.334 17.9163ZM19.5092 21.6768C19.6851 21.7655 19.8337 21.9644 19.8704 22.1603C19.9386 22.5244 19.8979 22.5802 18.6304 23.8599C17.9699 24.5268 17.3638 25.107 17.2834 25.1492C17.0586 25.2674 16.749 25.2425 16.5273 25.0886C16.4234 25.0165 16.1305 24.7429 15.8765 24.4806C15.3772 23.9653 15.2687 23.7573 15.3295 23.4327C15.3723 23.2042 15.6431 22.931 15.8689 22.8885C16.1818 22.8298 16.3753 22.9031 16.6836 23.1977L16.9709 23.4722L17.8879 22.5546C18.5912 21.8509 18.8434 21.6282 18.9703 21.5991C19.1557 21.5567 19.3172 21.58 19.5092 21.6768ZM27.334 22.7991C27.7562 23.1144 27.7562 23.6943 27.334 24.0095C27.1984 24.1109 27.1562 24.1125 24.3935 24.1257L21.5905 24.1391L21.399 24.0313C21.1974 23.9177 21.0125 23.6179 21.0125 23.4043C21.0125 23.1977 21.197 22.8926 21.3899 22.7799L21.5731 22.6728L24.3847 22.6846C27.1577 22.6962 27.1983 22.6977 27.334 22.7991ZM19.5092 26.5596C19.6851 26.6483 19.8337 26.8472 19.8704 27.0431C19.9386 27.4072 19.8979 27.463 18.6304 28.7427C17.9699 29.4096 17.3638 29.9898 17.2834 30.032C17.0586 30.1502 16.749 30.1253 16.5273 29.9714C16.4234 29.8993 16.1305 29.6257 15.8765 29.3634C15.3772 28.8481 15.2687 28.6401 15.3295 28.3155C15.3723 28.087 15.6431 27.8138 15.8689 27.7714C16.1818 27.7126 16.3753 27.7859 16.6836 28.0805L16.9709 28.355L17.8879 27.4374C18.5912 26.7337 18.8434 26.511 18.9703 26.4819C19.1557 26.4395 19.3172 26.4628 19.5092 26.5596ZM27.3008 27.6581C27.5073 27.7744 27.691 28.0606 27.691 28.2661C27.691 28.5057 27.5042 28.8181 27.2978 28.9235C27.1175 29.0156 26.998 29.0195 24.3481 29.0195C21.5991 29.0195 21.5855 29.0191 21.3969 28.9129C21.1974 28.8005 21.0125 28.4996 21.0125 28.2871C21.0125 28.0801 21.1969 27.7754 21.3899 27.6633C21.5722 27.5575 21.5871 27.5569 24.3451 27.5558C27.0792 27.5547 27.1196 27.5561 27.3008 27.6581Z" fill="white"/>
</svg>
