<svg xmlns="http://www.w3.org/2000/svg" version="1.1" xmlns:xlink="http://www.w3.org/1999/xlink" width="512" height="512" x="0" y="0" viewBox="0 0 512 512" style="enable-background:new 0 0 512 512" xml:space="preserve" class=""><g><path fill="#2939ff" d="M260.157 0H52.323c-2.914 0-5.714.495-8.313 1.414L35.668 24.94v200.25c0 13.774 11.166 24.94 24.94 24.94h199.549c13.774 0 24.94-11.166 24.94-24.94V24.94c0-13.774-11.166-24.94-24.94-24.94z" opacity="1" data-original="#eceaec" class=""></path><path fill="#dbd8db" d="M44.01 216.147V1.414C34.345 4.849 27.383 14.097 27.383 24.94v207.833c0 13.774 11.166 24.94 24.94 24.94h8.313v46.436c0 7.406 8.955 11.116 14.192 5.879l52.315-52.315h133.013c10.843 0 19.977-6.962 23.413-16.627H68.95c-13.774.001-24.94-11.165-24.94-24.939z" opacity="1" data-original="#dbd8db" class=""></path><path fill="#3bd4e9" d="M459.677 199.52H251.843c-2.914 0-5.714.493-8.313 1.412l-8.624 23.528v198.631c0 13.774 11.166 24.94 24.94 24.94h199.831l23.523-7.424a24.634 24.634 0 0 0 1.417-8.313V224.46c0-13.774-11.166-24.94-24.94-24.94z" opacity="1" data-original="#ffc263" class=""></path><path fill="#2939ff" d="M403.878 390.788c-2.825-3.609-8.054-4.266-11.674-1.425-8.094 6.332-17.82 9.677-28.131 9.677-25.208 0-45.723-20.511-45.723-45.723s20.515-45.723 45.723-45.723h20.783c4.595 0 8.313-3.722 8.313-8.313s-3.718-8.313-8.313-8.313h-24.94c-9.166 0-16.627-7.457-16.627-16.627s7.461-16.627 16.627-16.627c4.725 0 9.239 2.022 12.397 5.545 3.077 3.43 8.338 3.71 11.739.645 3.418-3.061 3.71-8.317.649-11.735a33.32 33.32 0 0 0-24.786-11.082c-18.34 0-33.253 14.918-33.253 33.253 0 9.061 3.662 17.269 9.56 23.272-20.42 10.252-34.5 31.339-34.5 55.705 0 34.382 27.968 62.35 62.35 62.35 14.053 0 27.327-4.567 38.376-13.209 3.614-2.829 4.255-8.054 1.43-11.67z" opacity="1" data-original="#ffffff" class=""></path><g fill="#ffaa5a"><path d="M243.53 415.667V200.932c-9.665 3.436-16.627 12.685-16.627 23.528v207.833c0 13.774 11.166 24.94 24.94 24.94h133.013l52.315 52.315c5.237 5.237 14.192 1.528 14.192-5.878v-46.436h8.313c10.843 0 20.087-6.962 23.523-16.627H268.47c-13.774 0-24.94-11.166-24.94-24.94zM220.043 196.561 166.899 57.024a11.471 11.471 0 0 0-10.643-7.144h-.008c-4.684 0-8.865 2.793-10.741 7.339L92.445 196.561a8.316 8.316 0 0 0 4.814 10.729c4.278 1.628 9.085-.524 10.725-4.81l11.175-29.348h74.169l11.177 29.348a8.317 8.317 0 0 0 7.769 5.358 8.3 8.3 0 0 0 2.955-.548 8.315 8.315 0 0 0 4.814-10.729zm-94.553-40.057 30.75-80.759 30.755 80.759z" fill="#e3e1e1" opacity="1" data-original="#ffaa5a" class=""></path></g></g></svg>
