<svg xmlns="http://www.w3.org/2000/svg" width="22.276" height="22.224" viewBox="0 0 22.276 22.224">
  <g id="Group_225" data-name="Group 225" transform="translate(-1320 -7775.869)">
    <path id="Path_133" data-name="Path 133" d="M.368,20.89H4.989V35.736H.368Zm2.312-7.378A2.676,2.676,0,1,1,0,16.186a2.676,2.676,0,0,1,2.679-2.674" transform="translate(1320 7762.356)" fill="#fff"/>
    <path id="Path_134" data-name="Path 134" d="M64.168,70.927h4.427v2.031h.06a4.851,4.851,0,0,1,4.37-2.4c4.672,0,5.534,3.073,5.534,7.071v8.143H73.947V78.555c0-1.723-.034-3.937-2.4-3.937-2.4,0-2.769,1.875-2.769,3.811v7.344H64.168Z" transform="translate(1263.717 7712.319)" fill="#fff"/>
  </g>
</svg>
