<svg xmlns="http://www.w3.org/2000/svg" xmlns:xlink="http://www.w3.org/1999/xlink" width="667.805" height="1125.43" viewBox="0 0 667.805 1125.43">
  <defs>
    <linearGradient id="linear-gradient" x1="-1.236" y1="-0.199" x2="0.55" y2="1.373" gradientUnits="objectBoundingBox">
      <stop offset="0" stop-color="#2939ff"/>
      <stop offset="0.53" stop-color="#50a4fc"/>
      <stop offset="1" stop-color="#4ff3b6"/>
    </linearGradient>
    <linearGradient id="linear-gradient-3" x1="-2.534" y1="0.481" x2="0.623" y2="5.948" xlink:href="#linear-gradient"/>
    <linearGradient id="linear-gradient-5" x1="-0.467" y1="0.481" x2="2.69" y2="5.948" xlink:href="#linear-gradient"/>
    <linearGradient id="linear-gradient-7" x1="-0.047" y1="-0.114" x2="1.738" y2="0.789" xlink:href="#linear-gradient"/>
    <linearGradient id="linear-gradient-9" x1="0.412" y1="-2.972" x2="3.75" y2="4.003" xlink:href="#linear-gradient"/>
  </defs>
  <g id="Layer_1" data-name="Layer 1" transform="matrix(0.966, -0.259, 0.259, 0.966, -103.926, 145.258)">
    <g id="Group_893" data-name="Group 893" transform="translate(0 0)">
      <g id="Group_892" data-name="Group 892">
        <g id="Group_885" data-name="Group 885">
          <path id="Path_1319" data-name="Path 1319" d="M160.534,40.25h0A72.126,72.126,0,0,0,88.39,112.394V356.745a180.387,180.387,0,0,0,180.4,180.4h0A72.126,72.126,0,0,0,340.937,465V220.653a180.387,180.387,0,0,0-180.4-180.4Z" transform="translate(280.002 127.213)" fill="#0505f1"/>
          <circle id="Ellipse_9" data-name="Ellipse 9" cx="71.437" cy="71.437" r="71.437" transform="translate(418.361)" fill="#0505f1"/>
          <circle id="Ellipse_10" data-name="Ellipse 10" cx="71.437" cy="71.437" r="71.437" transform="translate(122.568)" fill="#0505f1"/>
          <path id="Path_1320" data-name="Path 1320" d="M196.611,40.25h-2A178.372,178.372,0,0,0,16.25,218.614,17.384,17.384,0,0,0,33.6,235.922c41.647,0,74.308,32.744,74.308,74.558s-63.241,90.784-63.241,90.784c-10.693,8.446-17.89,14.312-18.639,14.936l-3.245,2.621a17.308,17.308,0,0,0-6.449,13.48v401.2a72.126,72.126,0,0,0,72.144,72.144h2A178.372,178.372,0,0,0,268.839,727.287V112.394A72.126,72.126,0,0,0,196.694,40.25Z" transform="translate(51.359 127.213)" fill="#0505f1"/>
          <path id="Path_1321" data-name="Path 1321" d="M135.136,132.707c0-20.636-15.6-36.2-35.906-36.2-16.018,0-26.295,10.485-31.662,19.888C62.2,106.995,51.882,96.51,35.906,96.51,15.6,96.51,0,112.071,0,132.707c0,22.384,19.513,37.612,48.679,60.7,14.271,11.275,15.186,12.149,18.889,15.1,3.037-2.413,4.7-3.911,18.889-15.1,29.166-23.091,48.679-38.319,48.679-60.7Z" transform="translate(0 305.028)" fill="#6ae5ce"/>
        </g>
        <g id="Group_891" data-name="Group 891">
          <g id="Group_886" data-name="Group 886" transform="translate(368.392 167.463)">
            <path id="Path_1322" data-name="Path 1322" d="M160.534,40.25h0A72.126,72.126,0,0,0,88.39,112.394V356.745a180.387,180.387,0,0,0,180.4,180.4h0A72.126,72.126,0,0,0,340.937,465V220.653a180.387,180.387,0,0,0-180.4-180.4Z" transform="translate(-88.39 -40.25)" fill="url(#linear-gradient)"/>
            <path id="Path_1323" data-name="Path 1323" d="M160.534,40.25h0A72.126,72.126,0,0,0,88.39,112.394V356.745a180.387,180.387,0,0,0,180.4,180.4h0A72.126,72.126,0,0,0,340.937,465V220.653a180.387,180.387,0,0,0-180.4-180.4Z" transform="translate(-88.39 -40.25)" fill="url(#linear-gradient)"/>
          </g>
          <g id="Group_887" data-name="Group 887" transform="translate(418.361)">
            <circle id="Ellipse_11" data-name="Ellipse 11" cx="71.437" cy="71.437" r="71.437" fill="url(#linear-gradient-3)"/>
            <circle id="Ellipse_12" data-name="Ellipse 12" cx="71.437" cy="71.437" r="71.437" fill="url(#linear-gradient-3)"/>
          </g>
          <g id="Group_888" data-name="Group 888" transform="translate(122.568)">
            <circle id="Ellipse_13" data-name="Ellipse 13" cx="71.437" cy="71.437" r="71.437" fill="url(#linear-gradient-5)"/>
            <circle id="Ellipse_14" data-name="Ellipse 14" cx="71.437" cy="71.437" r="71.437" fill="url(#linear-gradient-5)"/>
          </g>
          <g id="Group_889" data-name="Group 889" transform="translate(67.609 167.463)">
            <path id="Path_1324" data-name="Path 1324" d="M196.611,40.25h-2A178.372,178.372,0,0,0,16.25,218.614,17.384,17.384,0,0,0,33.6,235.922c41.647,0,74.308,32.744,74.308,74.558s-63.241,90.784-63.241,90.784c-10.693,8.446-17.89,14.312-18.639,14.936l-3.245,2.621a17.308,17.308,0,0,0-6.449,13.48v401.2a72.126,72.126,0,0,0,72.144,72.144h2A178.372,178.372,0,0,0,268.839,727.287V112.394A72.126,72.126,0,0,0,196.694,40.25Z" transform="translate(-16.25 -40.25)" fill="url(#linear-gradient-7)"/>
            <path id="Path_1325" data-name="Path 1325" d="M196.611,40.25h-2A178.372,178.372,0,0,0,16.25,218.614,17.384,17.384,0,0,0,33.6,235.922c41.647,0,74.308,32.744,74.308,74.558s-63.241,90.784-63.241,90.784c-10.693,8.446-17.89,14.312-18.639,14.936l-3.245,2.621a17.308,17.308,0,0,0-6.449,13.48v401.2a72.126,72.126,0,0,0,72.144,72.144h2A178.372,178.372,0,0,0,268.839,727.287V112.394A72.126,72.126,0,0,0,196.694,40.25Z" transform="translate(-16.25 -40.25)" fill="url(#linear-gradient-7)"/>
          </g>
          <g id="Group_890" data-name="Group 890" transform="translate(0 401.538)">
            <path id="Path_1326" data-name="Path 1326" d="M135.136,132.707c0-20.636-15.6-36.2-35.906-36.2-16.018,0-26.295,10.485-31.662,19.888C62.2,106.995,51.882,96.51,35.906,96.51,15.6,96.51,0,112.071,0,132.707c0,22.384,19.513,37.612,48.679,60.7,14.271,11.275,15.186,12.149,18.889,15.1,3.037-2.413,4.7-3.911,18.889-15.1,29.166-23.091,48.679-38.319,48.679-60.7Z" transform="translate(0 -96.51)" fill="url(#linear-gradient-9)"/>
            <path id="Path_1327" data-name="Path 1327" d="M135.136,132.707c0-20.636-15.6-36.2-35.906-36.2-16.018,0-26.295,10.485-31.662,19.888C62.2,106.995,51.882,96.51,35.906,96.51,15.6,96.51,0,112.071,0,132.707c0,22.384,19.513,37.612,48.679,60.7,14.271,11.275,15.186,12.149,18.889,15.1,3.037-2.413,4.7-3.911,18.889-15.1,29.166-23.091,48.679-38.319,48.679-60.7Z" transform="translate(0 -96.51)" fill="url(#linear-gradient-9)"/>
          </g>
        </g>
      </g>
      <path id="Path_1328" data-name="Path 1328" d="M135.136,132.707c0-20.636-15.6-36.2-35.906-36.2-16.018,0-26.295,10.485-31.662,19.888C62.2,106.995,51.882,96.51,35.906,96.51,15.6,96.51,0,112.071,0,132.707c0,22.384,19.513,37.612,48.679,60.7,14.271,11.275,15.186,12.149,18.889,15.1,3.037-2.413,4.7-3.911,18.889-15.1,29.166-23.091,48.679-38.319,48.679-60.7Z" transform="translate(0 305.028)" fill="#2939ff"/>
    </g>
  </g>
</svg>
