<svg xmlns="http://www.w3.org/2000/svg" width="604.712" height="240.393" viewBox="0 0 604.712 240.393">
  <path id="Path_1329" data-name="Path 1329" d="M0,63.155v17.56A55.749,55.749,0,0,1,10.454,92.07a54.748,54.748,0,0,1,12.62-13.018A44.221,44.221,0,0,1,49.508,70.5a47.377,47.377,0,0,1,33.93,13.773,48.087,48.087,0,0,1,13.725,34.25c0,13.188-5.433,25.937-17.1,39.026-10.526,11.811-25.672,23.8-43.208,37.673l-1,.785c-13.137,10.386-17.019,13.548-20.137,16.084-1.04.847-1.982,1.611-3.141,2.543l-.2.163a63.062,63.062,0,0,0,50.776,25.594h478.4a63.154,63.154,0,0,0,63.155-63.155V63.155A63.156,63.156,0,0,0,541.557,0H63.155A63.156,63.156,0,0,0,0,63.155Z" fill="#fff"/>
</svg>
