<svg xmlns="http://www.w3.org/2000/svg" xmlns:xlink="http://www.w3.org/1999/xlink" width="103.706" height="66.396" viewBox="0 0 103.706 66.396">
  <defs>
    <linearGradient id="linear-gradient" y1="0.5" x2="1" y2="0.5" gradientUnits="objectBoundingBox">
      <stop offset="0" stop-color="#2939ff"/>
      <stop offset="0.53" stop-color="#50a4fc"/>
      <stop offset="1" stop-color="#4ff3b6"/>
    </linearGradient>
    <linearGradient id="linear-gradient-2" x1="0" y1="0.5" x2="1" y2="0.5" xlink:href="#linear-gradient"/>
  </defs>
  <g id="Layer_1" data-name="Layer 1" transform="translate(0.001)">
    <g id="Group_895" data-name="Group 895" transform="translate(-0.001 0)">
      <path id="Path_1331" data-name="Path 1331" d="M8.186,39A5.314,5.314,0,1,1,13.5,44.311,5.317,5.317,0,0,1,8.186,39Zm15.591,9.174a4.764,4.764,0,0,1-.873-4.288l-4.288,1.34a10.575,10.575,0,0,1-3.17.482H11.011a5.752,5.752,0,0,0-3.9,1.516L.72,52.98a2.176,2.176,0,0,0,1.47,3.8,2.148,2.148,0,0,0,1.455-.551L7.313,52.9l-2.1,6.371a1.581,1.581,0,0,0,1.5,2.068H8.025L7.251,68.08a2.181,2.181,0,1,0,4.334.49l.8-6.984a.3.3,0,0,1,.291-.26h1.646a.3.3,0,0,1,.291.26l.8,6.984a2.19,2.19,0,0,0,2.167,1.937,1.238,1.238,0,0,0,.245-.015,2.167,2.167,0,0,0,1.922-2.412l-.773-6.746h1.309a1.577,1.577,0,0,0,1.5-2.068l-3.14-9.557c.421-.1.842-.207,1.263-.337l3.867-1.21Zm79.209,4.809L96.6,47.191a5.917,5.917,0,0,0-3.913-1.5H88.252a10.612,10.612,0,0,1-3.17-.482l-4.273-1.34a4.8,4.8,0,0,1-.888,4.288l3.867,1.21c.161.061.322.084.482.13V68.318a2.182,2.182,0,0,0,4.365,0V59.6a.582.582,0,0,1,.582-.582h1.976a.582.582,0,0,1,.582.582v8.714a2.182,2.182,0,0,0,4.365,0V52.666l3.913,3.545a2.185,2.185,0,0,0,1.47.551,2.147,2.147,0,0,0,1.616-.712,2.189,2.189,0,0,0-.145-3.086ZM90.2,44.311A5.314,5.314,0,1,0,84.883,39,5.317,5.317,0,0,0,90.2,44.311ZM71.49,33.645a6.389,6.389,0,0,0-5.284-2.787H61.819a6.4,6.4,0,0,0-5.284,2.787l-4.694,6.884-4.694-6.884a6.389,6.389,0,0,0-5.284-2.787H37.475a6.4,6.4,0,0,0-5.284,2.787L25.338,43.7a2.618,2.618,0,0,0,4.326,2.948l3.5-5.138V67.8a2.709,2.709,0,0,0,2.175,2.718,2.619,2.619,0,0,0,3.055-2.581V52.26a.582.582,0,0,1,.582-.582h1.371a.582.582,0,0,1,.582.582V67.789A2.709,2.709,0,0,0,43.1,70.508a2.619,2.619,0,0,0,3.055-2.581V41.5l3.5,5.131a2.614,2.614,0,0,0,4.319,0l4.227-6.2L54.261,52.413a1.851,1.851,0,0,0,1.754,2.427h1.562L56.941,67.8a2.614,2.614,0,0,0,2.489,2.741h.13a2.616,2.616,0,0,0,2.611-2.489L62.8,55.116a.293.293,0,0,1,.291-.276h1.761a.293.293,0,0,1,.291.276l.62,12.8a2.71,2.71,0,0,0,2.313,2.611A2.618,2.618,0,0,0,71,67.8L70.364,54.84h1.562a1.851,1.851,0,0,0,1.754-2.427L69.744,40.429l4.227,6.2A2.618,2.618,0,0,0,78.3,43.684L71.444,33.629ZM39.681,29.379a5.82,5.82,0,1,0-5.82-5.82A5.817,5.817,0,0,0,39.681,29.379Zm24.335,0a5.82,5.82,0,1,0-5.82-5.82A5.817,5.817,0,0,0,64.016,29.379Z" transform="translate(0.001 -4.156)" fill="url(#linear-gradient)"/>
      <path id="Path_1332" data-name="Path 1332" d="M20.285,24.443a1.715,1.715,0,0,1-.781-.2,1.612,1.612,0,0,1-.636-2.19,42.647,42.647,0,0,1,74.691,0,1.612,1.612,0,0,1-2.826,1.554,39.408,39.408,0,0,0-69.032,0,1.6,1.6,0,0,1-1.409.835Z" transform="translate(-4.373 0)" fill="url(#linear-gradient-2)"/>
    </g>
  </g>
</svg>
