<svg xmlns="http://www.w3.org/2000/svg" xmlns:xlink="http://www.w3.org/1999/xlink" width="83.259" height="82.793" viewBox="0 0 83.259 82.793">
  <defs>
    <linearGradient id="linear-gradient" x1="0.691" y1="-0.509" x2="1.652" y2="1.156" gradientUnits="objectBoundingBox">
      <stop offset="0" stop-color="#2939ff"/>
      <stop offset="0.53" stop-color="#50a4fc"/>
      <stop offset="1" stop-color="#4ff3b6"/>
    </linearGradient>
    <linearGradient id="linear-gradient-2" x1="-0.205" y1="-0.431" x2="0.61" y2="0.98" xlink:href="#linear-gradient"/>
    <linearGradient id="linear-gradient-3" x1="-0.422" y1="0.297" x2="0.54" y2="2.327" xlink:href="#linear-gradient"/>
  </defs>
  <g id="Layer_1" data-name="Layer 1" transform="translate(-0.003 0.002)">
    <g id="Group_863" data-name="Group 863" transform="translate(0.003 -0.002)">
      <g id="Group_862" data-name="Group 862" transform="translate(6.296 12.385)">
        <g id="Group_860" data-name="Group 860">
          <path id="Path_1310" data-name="Path 1310" d="M36.014,60.324a8.648,8.648,0,0,1,6.566-8.361V45.346H33.347a2.539,2.539,0,0,1-2.544-2.38,4.511,4.511,0,0,0-9,.01,2.533,2.533,0,0,1-2.544,2.38H12.7v7.858a.5.5,0,0,1-.482.492,6.564,6.564,0,0,0,0,13.091.514.514,0,0,1,.482.5v7.417a.532.532,0,0,0,.523.523H42.57V68.7A8.657,8.657,0,0,1,36,60.334Z" transform="translate(-6.14 -11.378)" fill="#1b3666"/>
          <path id="Path_1311" data-name="Path 1311" d="M76.172,53.707a.5.5,0,0,1-.482-.492V45.356H67.637a2.546,2.546,0,0,1-2.544-2.38,4.51,4.51,0,0,0-9,0,2.526,2.526,0,0,1-2.544,2.38H45.816V53.3a2.539,2.539,0,0,1-2.38,2.544,4.51,4.51,0,0,0,0,9,2.533,2.533,0,0,1,2.38,2.544v7.858h6.279a.52.52,0,0,1,.5.472,6.564,6.564,0,0,0,13.091,0,.5.5,0,0,1,.492-.472h9a.53.53,0,0,0,.513-.523V67.3a.522.522,0,0,1,.482-.5,6.564,6.564,0,0,0,0-13.091Z" transform="translate(-5.282 -11.378)" fill="#1b3666"/>
          <path id="Path_1312" data-name="Path 1312" d="M60.423,35.389a8.628,8.628,0,0,1,8.351,6.566h6.74V35.717A.512.512,0,0,1,76,35.225a6.564,6.564,0,0,0,0-13.091.514.514,0,0,1-.482-.5V12.593A.523.523,0,0,0,75,12.07H45.64v6.535a8.607,8.607,0,0,1,0,16.722v6.607h6.422a8.657,8.657,0,0,1,8.361-6.566Z" transform="translate(-5.117 -12.07)" fill="#1b3666"/>
        </g>
        <g id="Group_861" data-name="Group 861">
          <path id="Path_1313" data-name="Path 1313" d="M36.014,60.324a8.648,8.648,0,0,1,6.566-8.361V45.346H33.347a2.539,2.539,0,0,1-2.544-2.38,4.511,4.511,0,0,0-9,.01,2.533,2.533,0,0,1-2.544,2.38H12.7v7.858a.5.5,0,0,1-.482.492,6.564,6.564,0,0,0,0,13.091.514.514,0,0,1,.482.5v7.417a.532.532,0,0,0,.523.523H42.57V68.7A8.657,8.657,0,0,1,36,60.334Z" transform="translate(-6.14 -11.378)" fill="url(#linear-gradient)"/>
          <path id="Path_1314" data-name="Path 1314" d="M76.172,53.707a.5.5,0,0,1-.482-.492V45.356H67.637a2.546,2.546,0,0,1-2.544-2.38,4.51,4.51,0,0,0-9,0,2.526,2.526,0,0,1-2.544,2.38H45.816V53.3a2.539,2.539,0,0,1-2.38,2.544,4.51,4.51,0,0,0,0,9,2.533,2.533,0,0,1,2.38,2.544v7.858h6.279a.52.52,0,0,1,.5.472,6.564,6.564,0,0,0,13.091,0,.5.5,0,0,1,.492-.472h9a.53.53,0,0,0,.513-.523V67.3a.522.522,0,0,1,.482-.5,6.564,6.564,0,0,0,0-13.091Z" transform="translate(-5.282 -11.378)" fill="url(#linear-gradient-2)"/>
          <path id="Path_1315" data-name="Path 1315" d="M60.423,35.389a8.628,8.628,0,0,1,8.351,6.566h6.74V35.717A.512.512,0,0,1,76,35.225a6.564,6.564,0,0,0,0-13.091.514.514,0,0,1-.482-.5V12.593A.523.523,0,0,0,75,12.07H45.64v6.535a8.607,8.607,0,0,1,0,16.722v6.607h6.422a8.657,8.657,0,0,1,8.361-6.566Z" transform="translate(-5.117 -12.07)" fill="url(#linear-gradient-3)"/>
        </g>
      </g>
      <path id="Path_1316" data-name="Path 1316" d="M22.878,29.977a8.888,8.888,0,0,1,10.68,2.555l7.612-3.539-3.519-7.561a2.564,2.564,0,0,1,1.108-3.314,4.787,4.787,0,0,0-4.042-8.648,2.536,2.536,0,0,1-3.232-1.3L28.048.769,21.657,3.734A.523.523,0,0,1,20.98,3.5,6.816,6.816,0,0,0,8.648,9.223a.524.524,0,0,1-.256.677L.318,13.645a.549.549,0,0,0-.267.718L12.937,42.1l5.006-2.329a8.882,8.882,0,0,1,4.935-9.808Z" transform="translate(-0.003 0.002)" fill="#4ff3b6"/>
    </g>
  </g>
</svg>
