<svg id="Layer_1" data-name="Layer 1" xmlns="http://www.w3.org/2000/svg" xmlns:xlink="http://www.w3.org/1999/xlink" width="79.877" height="96.986" viewBox="0 0 79.877 96.986">
  <defs>
    <linearGradient id="linear-gradient" x1="-0.063" y1="0.068" x2="0.932" y2="1.006" gradientUnits="objectBoundingBox">
      <stop offset="0" stop-color="#2939ff"/>
      <stop offset="0.53" stop-color="#50a4fc"/>
      <stop offset="1" stop-color="#4ff3b6"/>
    </linearGradient>
    <linearGradient id="linear-gradient-2" x1="-1.791" y1="-1.767" x2="4.139" y2="5.396" xlink:href="#linear-gradient"/>
    <linearGradient id="linear-gradient-3" x1="-1.144" y1="-1.493" x2="0.818" y2="0.879" xlink:href="#linear-gradient"/>
  </defs>
  <g id="Group_855" data-name="Group 855">
    <g id="Group_854" data-name="Group 854">
      <path id="Path_1296" data-name="Path 1296" d="M47.139,19.349a2.662,2.662,0,0,1-2.665-2.665V0H4.938A4.932,4.932,0,0,0,0,4.927V76.962A4.934,4.934,0,0,0,4.938,81.9H41.244L37.85,67.87c-.12.011-.239.022-.359.022H13.878a2.659,2.659,0,0,1,0-5.319H36.73a8.354,8.354,0,0,1,8.331-8.723,8.553,8.553,0,0,1,1.969.239l16.815,4.068V19.349Zm-33.26-5.33H31.923a2.665,2.665,0,0,1,0,5.33H13.878a2.665,2.665,0,0,1,0-5.33ZM49.967,51.7H13.878a2.659,2.659,0,0,1,0-5.319H49.967a2.659,2.659,0,0,1,0,5.319Zm0-16.173H13.878a2.665,2.665,0,0,1,0-5.33H49.967a2.665,2.665,0,0,1,0,5.33Z" fill="url(#linear-gradient)"/>
      <path id="Path_1297" data-name="Path 1297" d="M45.8,1.41V13.9H58.275Z" transform="translate(4.015 0.124)" fill="url(#linear-gradient-2)"/>
    </g>
    <path id="Path_1298" data-name="Path 1298" d="M75.946,83.474l-13.03-13.03,7.472-3.8a2.913,2.913,0,0,0-.631-5.427L42.37,54.6a2.908,2.908,0,0,0-3.513,3.513L45.481,85.5a2.911,2.911,0,0,0,5.427.631l3.8-7.472,13.03,13.03a1.8,1.8,0,0,0,2.534,0L75.957,86a1.8,1.8,0,0,0,0-2.534Z" transform="translate(3.399 4.778)" fill="url(#linear-gradient-3)"/>
  </g>
</svg>
