<svg id="Layer_1" data-name="Layer 1" xmlns="http://www.w3.org/2000/svg" xmlns:xlink="http://www.w3.org/1999/xlink" width="74.729" height="74.42" viewBox="0 0 74.729 74.42">
  <defs>
    <linearGradient id="linear-gradient" x1="-0.67" y1="2.644" x2="1.001" y2="2.644" gradientUnits="objectBoundingBox">
      <stop offset="0" stop-color="#2939ff"/>
      <stop offset="0.53" stop-color="#50a4fc"/>
      <stop offset="1" stop-color="#4ff3b6"/>
    </linearGradient>
    <linearGradient id="linear-gradient-2" x1="0" y1="0.5" x2="1" y2="0.5" xlink:href="#linear-gradient"/>
  </defs>
  <g id="Group_853" data-name="Group 853">
    <g id="Group_851" data-name="Group 851" transform="translate(0 5.202)">
      <g id="Group_849" data-name="Group 849">
        <path id="Path_1288" data-name="Path 1288" d="M69.422,5.15H30.161A9.084,9.084,0,0,0,29.04,8.756H38.7A2.531,2.531,0,0,1,41.049,7.17a2.492,2.492,0,0,1,2.343,1.586h5.949a2.539,2.539,0,0,1,4.707,0H60a2.539,2.539,0,0,1,4.707,0H69.2V18.24a10.2,10.2,0,0,0,3.606-3.232V8.574A3.423,3.423,0,0,0,69.391,5.16Z" transform="translate(0.292 -5.15)" fill="#1b3666"/>
        <path id="Path_1289" data-name="Path 1289" d="M69.521,51.279H3.6V8.756h22.12v-.03A12.7,12.7,0,0,1,26.5,5.15H3.414A3.423,3.423,0,0,0,0,8.564V57.622a3.416,3.416,0,0,0,3.414,3.414h24.18v9.737H22.14a1.8,1.8,0,1,0,0,3.6H50.987a1.8,1.8,0,1,0,0-3.6H44.472V61.036H69.713a3.416,3.416,0,0,0,3.414-3.414V20.139a13.89,13.89,0,0,1-3.606,2.03v29.1Zm-2.434,3.283A1.722,1.722,0,0,1,68.8,56.278a1.675,1.675,0,0,1-.444,1.141,1.692,1.692,0,0,1-2.525,0,1.665,1.665,0,0,1-.444-1.141,1.716,1.716,0,0,1,1.717-1.717Zm-6.091,0a1.716,1.716,0,0,1,1.717,1.717,1.675,1.675,0,0,1-.444,1.141,1.7,1.7,0,0,1-1.263.566,1.719,1.719,0,0,1-1.7-1.707,1.714,1.714,0,0,1,1.707-1.717Z" transform="translate(0 -5.15)" fill="#1b3666"/>
      </g>
      <g id="Group_850" data-name="Group 850">
        <path id="Path_1290" data-name="Path 1290" d="M69.422,5.15H30.161A9.084,9.084,0,0,0,29.04,8.756H38.7A2.531,2.531,0,0,1,41.049,7.17a2.492,2.492,0,0,1,2.343,1.586h5.949a2.539,2.539,0,0,1,4.707,0H60a2.539,2.539,0,0,1,4.707,0H69.2V18.24a10.2,10.2,0,0,0,3.606-3.232V8.574A3.423,3.423,0,0,0,69.391,5.16Z" transform="translate(0.292 -5.15)" fill="url(#linear-gradient)"/>
        <path id="Path_1291" data-name="Path 1291" d="M69.521,51.279H3.6V8.756h22.12v-.03A12.7,12.7,0,0,1,26.5,5.15H3.414A3.423,3.423,0,0,0,0,8.564V57.622a3.416,3.416,0,0,0,3.414,3.414h24.18v9.737H22.14a1.8,1.8,0,1,0,0,3.6H50.987a1.8,1.8,0,1,0,0-3.6H44.472V61.036H69.713a3.416,3.416,0,0,0,3.414-3.414V20.139a13.89,13.89,0,0,1-3.606,2.03v29.1Zm-2.434,3.283A1.722,1.722,0,0,1,68.8,56.278a1.675,1.675,0,0,1-.444,1.141,1.692,1.692,0,0,1-2.525,0,1.665,1.665,0,0,1-.444-1.141,1.716,1.716,0,0,1,1.717-1.717Zm-6.091,0a1.716,1.716,0,0,1,1.717,1.717,1.675,1.675,0,0,1-.444,1.141,1.7,1.7,0,0,1-1.263.566,1.719,1.719,0,0,1-1.7-1.707,1.714,1.714,0,0,1,1.707-1.717Z" transform="translate(0 -5.15)" fill="url(#linear-gradient-2)"/>
      </g>
    </g>
    <path id="Path_1292" data-name="Path 1292" d="M64.665,0h-25.5a10.337,10.337,0,0,0-9,5.2A9.084,9.084,0,0,0,29.04,8.808a.9.9,0,0,1-.02.232,9.736,9.736,0,0,0,7.121,10.121.693.693,0,0,1,.465.374l3.565,7.373a.345.345,0,0,0,.616,0l3.363-6.949a.75.75,0,0,1,.667-.424H64.251a10.466,10.466,0,0,0,4.98-1.252,10.2,10.2,0,0,0,3.606-3.232,9.3,9.3,0,0,0,1.555-4.323A9.769,9.769,0,0,0,64.665,0ZM41.05,12.312a2.545,2.545,0,0,1-2.555-2.555,2.361,2.361,0,0,1,.192-.96A2.531,2.531,0,0,1,41.04,7.212,2.492,2.492,0,0,1,43.383,8.8a2.361,2.361,0,0,1,.192.96,2.543,2.543,0,0,1-2.545,2.555Zm10.666,0a2.552,2.552,0,0,1-2.555-2.555,2.361,2.361,0,0,1,.192-.96,2.539,2.539,0,0,1,4.707,0,2.361,2.361,0,0,1,.192.96A2.552,2.552,0,0,1,51.7,12.312Zm10.666,0a2.55,2.55,0,0,1-.01-5.1,2.558,2.558,0,0,1,2.545,2.545,2.552,2.552,0,0,1-2.555,2.555Z" transform="translate(0.291)" fill="#fff"/>
    <path id="Path_1293" data-name="Path 1293" d="M64.665,0h-25.5a10.337,10.337,0,0,0-9,5.2A9.084,9.084,0,0,0,29.04,8.808a.9.9,0,0,1-.02.232,9.736,9.736,0,0,0,7.121,10.121.693.693,0,0,1,.465.374l3.565,7.373a.345.345,0,0,0,.616,0l3.363-6.949a.75.75,0,0,1,.667-.424H64.251a10.466,10.466,0,0,0,4.98-1.252,10.2,10.2,0,0,0,3.606-3.232,9.3,9.3,0,0,0,1.555-4.323A9.769,9.769,0,0,0,64.665,0ZM41.05,12.312a2.545,2.545,0,0,1-2.555-2.555,2.361,2.361,0,0,1,.192-.96A2.531,2.531,0,0,1,41.04,7.212,2.492,2.492,0,0,1,43.383,8.8a2.361,2.361,0,0,1,.192.96,2.543,2.543,0,0,1-2.545,2.555Zm10.666,0a2.552,2.552,0,0,1-2.555-2.555,2.361,2.361,0,0,1,.192-.96,2.539,2.539,0,0,1,4.707,0,2.361,2.361,0,0,1,.192.96A2.552,2.552,0,0,1,51.7,12.312Zm10.666,0a2.55,2.55,0,0,1-.01-5.1,2.558,2.558,0,0,1,2.545,2.545,2.552,2.552,0,0,1-2.555,2.555Z" transform="translate(0.291)" fill="#4ff3b6"/>
    <g id="Group_852" data-name="Group 852" transform="translate(9.151 16.565)">
      <path id="Path_1294" data-name="Path 1294" d="M20.525,29.551a6.577,6.577,0,0,0,1.323-13.019,6.323,6.323,0,0,0-1.323-.131,7.081,7.081,0,0,0-1.323.131,6.577,6.577,0,0,0,1.323,13.019Z" transform="translate(-9.011 -16.4)" fill="#4ff3b6"/>
      <path id="Path_1295" data-name="Path 1295" d="M32.109,34.567c0-3.313-2.778-3.99-4.565-3.677a1.231,1.231,0,0,0-.8.343l-5.707,4.677a.6.6,0,0,1-.455.212.589.589,0,0,1-.455-.212l-5.707-4.677a1.284,1.284,0,0,0-.8-.343c-1.788-.313-4.565.364-4.565,3.677l.717,7.293a2.106,2.106,0,0,0,1.555,2c3.212.9,11.03,2.535,18.645.03a2.279,2.279,0,0,0,1.414-1.97l.727-7.353Z" transform="translate(-9.06 -16.255)" fill="#4ff3b6"/>
    </g>
  </g>
</svg>
