<svg width="20" height="18" viewBox="0 0 20 18" fill="none" xmlns="http://www.w3.org/2000/svg">
<path fill-rule="evenodd" clip-rule="evenodd" d="M4.73691 0.0574469C4.24676 0.188544 3.8516 0.497374 3.64074 0.914217C3.475 1.24182 3.4375 1.47418 3.4375 2.17413C3.4375 2.85243 3.46637 2.97143 3.65125 3.05508C3.7293 3.09042 5.24125 3.10144 10.0038 3.10144C16.8002 3.10144 16.4127 3.11409 16.5158 2.88914C16.5763 2.75726 16.5783 1.62732 16.5186 1.34774C16.3821 0.709598 15.8457 0.176789 15.2032 0.0412682C15.0555 0.0101525 13.5538 -0.00164204 9.96879 0.000181452C5.77137 0.00231533 4.90766 0.0117432 4.73691 0.0574469ZM1.56879 4.4218C1.19957 4.51787 0.894492 4.69203 0.622969 4.96171C0.346797 5.23597 0.175625 5.53569 0.0775391 5.91648C0.00273438 6.20704 0 6.3542 0 10.085C0 13.8159 0.00273438 13.963 0.0775391 14.2536C0.175586 14.6343 0.343828 14.9271 0.625 15.2063C0.906172 15.4856 1.20098 15.6527 1.58426 15.7501C1.83656 15.8142 2.01727 15.8271 2.66004 15.8271H3.43262L3.44582 14.0133L3.45902 12.1995L3.56027 11.902C3.71902 11.4356 3.92344 11.1087 4.27391 10.7606C4.62359 10.4133 4.9516 10.2107 5.42316 10.0508L5.72266 9.94924H10H14.2773L14.5898 10.0549C15.043 10.2082 15.3682 10.4117 15.7228 10.7639C16.0782 11.1169 16.2832 11.4407 16.4355 11.8891L16.5408 12.1995L16.5541 14.0133L16.5674 15.8271H17.34C17.9827 15.8271 18.1634 15.8142 18.4157 15.7501C18.799 15.6527 19.0938 15.4856 19.375 15.2063C19.6562 14.9271 19.8244 14.6343 19.9225 14.2536C19.9973 13.963 20 13.8159 20 10.085C20 6.3542 19.9973 6.20704 19.9225 5.91648C19.8244 5.5358 19.6562 5.243 19.375 4.96373C19.0938 4.68446 18.799 4.51736 18.4157 4.41998C18.1179 4.34432 17.9683 4.343 9.98398 4.3451C2.09418 4.34719 1.84703 4.34944 1.56879 4.4218ZM4.03844 7.18358C4.25301 7.24655 4.5766 7.56795 4.64 7.78106C4.7482 8.14483 4.67191 8.43484 4.39586 8.70903C4.00066 9.10154 3.49934 9.10154 3.10414 8.70903C2.70895 8.31651 2.70895 7.81901 3.10414 7.42564C3.37816 7.15289 3.67332 7.07642 4.03844 7.18358ZM5.9375 11.8428C5.74578 11.9029 5.41879 12.2392 5.36 12.4368C5.29219 12.6648 5.29219 17.1271 5.36 17.3551C5.4234 17.5682 5.74699 17.8896 5.96156 17.9526C6.08309 17.9882 7.07125 17.9998 10.0073 17.9998C14.4136 17.9998 14.127 18.0199 14.4257 17.6898C14.5186 17.5872 14.6155 17.434 14.6411 17.3494C14.707 17.1307 14.707 12.6612 14.6411 12.4425C14.6155 12.3579 14.5186 12.2047 14.4257 12.102C14.1266 11.7716 14.4177 11.7916 9.98328 11.7961C7.25258 11.7988 6.03301 11.813 5.9375 11.8428Z" fill="#0B4977"/>
</svg>
