<svg width="16" height="16" viewBox="0 0 16 16" fill="none" xmlns="http://www.w3.org/2000/svg">
<path d="M5.46875 8.28125H10.5312V2.9375H5.46875V8.28125ZM7.66856 3.91853C7.85159 3.73547 8.14841 3.73547 8.33147 3.91853C8.44787 4.03494 9.46875 5.08234 9.46875 6C9.46875 6.80988 8.80988 7.46875 8 7.46875C7.19012 7.46875 6.53125 6.80988 6.53125 6C6.53125 5.08234 7.55212 4.03494 7.66856 3.91853Z" fill="white"/>
<path d="M8 6.53211C8.29294 6.53211 8.53125 6.2938 8.53125 6.00086C8.53125 5.73002 8.27619 5.30905 8 4.95898C7.72387 5.30895 7.46875 5.72998 7.46875 6.00086C7.46875 6.2938 7.70706 6.53211 8 6.53211ZM6.84375 15.5321C6.84375 15.791 7.05362 16.0009 7.3125 16.0009H8.6875C8.94638 16.0009 9.15625 15.791 9.15625 15.5321V12.7196H6.84375V15.5321Z" fill="white"/>
<path d="M11.4688 0H4.53125C3.42669 0 2.53125 0.895437 2.53125 2V12.4688C2.53125 13.5733 3.42669 14.4688 4.53125 14.4688H5.90625V12.7188H5.78125C5.52237 12.7188 5.3125 12.5089 5.3125 12.25C5.3125 11.9911 5.52237 11.7812 5.78125 11.7812H10.2188C10.4776 11.7812 10.6875 11.9911 10.6875 12.25C10.6875 12.5089 10.4776 12.7188 10.2188 12.7188H10.0938V14.4688H11.4688C12.5733 14.4688 13.4688 13.5733 13.4688 12.4688V2C13.4688 0.895437 12.5733 0 11.4688 0ZM6.25 10.9688C5.99112 10.9688 5.78125 10.7589 5.78125 10.5001C5.78125 10.2412 5.99112 10.0313 6.25 10.0313C6.50888 10.0313 6.71875 10.2412 6.71875 10.5001C6.71875 10.759 6.50888 10.9688 6.25 10.9688ZM8 10.9688C7.74112 10.9688 7.53125 10.7589 7.53125 10.5001C7.53125 10.2412 7.74112 10.0313 8 10.0313C8.25888 10.0313 8.46875 10.2412 8.46875 10.5001C8.46875 10.759 8.25888 10.9688 8 10.9688ZM9.75 10.9688C9.49112 10.9688 9.28125 10.7589 9.28125 10.5001C9.28125 10.2412 9.49112 10.0313 9.75 10.0313C10.0089 10.0313 10.2188 10.2412 10.2188 10.5001C10.2188 10.759 10.0089 10.9688 9.75 10.9688ZM11.4688 8.75C11.4688 9.00888 11.2589 9.21875 11 9.21875H5C4.74112 9.21875 4.53125 9.00888 4.53125 8.75V2.46875C4.53125 2.20987 4.74112 2 5 2H11C11.2589 2 11.4688 2.20987 11.4688 2.46875V8.75Z" fill="white"/>
</svg>
