<svg width="16" height="16" viewBox="0 0 16 16" fill="none" xmlns="http://www.w3.org/2000/svg">
<g clip-path="url(#clip0_1893_21229)">
<path d="M2.34313 2.34313C0.832188 3.85406 0 5.86312 0 8C0 8.70969 0.0928125 9.41313 0.27625 10.0913C0.331563 10.2956 0.516875 10.4375 0.72875 10.4375H8L8.97062 5.54909L8 0C5.86312 0 3.85406 0.832188 2.34313 2.34313Z" fill="white"/>
<path d="M13.6569 2.34313C12.1459 0.832188 10.1369 0 8 0V10.4375H15.2712C15.4831 10.4375 15.6684 10.2956 15.7238 10.0913C15.9072 9.41313 16 8.70969 16 8C16 5.86312 15.1678 3.85406 13.6569 2.34313Z" fill="white"/>
<path d="M5.73409 3.13879C5.60462 2.91457 5.318 2.83769 5.09375 2.96722C4.86956 3.09666 4.79275 3.38332 4.92219 3.60754L5.36416 4.3731C5.49366 4.59738 5.78034 4.6741 6.0045 4.54466C6.22869 4.41522 6.3055 4.12857 6.17606 3.90435L5.73409 3.13879ZM4.37209 5.36516L3.60656 4.92319C3.38234 4.79366 3.09569 4.8705 2.96625 5.09475C2.83681 5.31894 2.91363 5.60566 3.13781 5.73507L3.90334 6.17707C4.12753 6.30654 4.41422 6.22972 4.54366 6.0055C4.67309 5.78132 4.59628 5.4946 4.37209 5.36516ZM3.54022 7.53225H2.65625C2.39737 7.53225 2.1875 7.74213 2.1875 8.001C2.1875 8.25988 2.39737 8.46975 2.65625 8.46975H3.54022C3.79909 8.46975 4.00897 8.25988 4.00897 8.001C4.00897 7.74213 3.79909 7.53225 3.54022 7.53225Z" fill="url(#paint0_linear_1893_21229)"/>
<path d="M13.3437 7.53223H12.4598C12.2009 7.53223 11.991 7.74211 11.991 8.00098C11.991 8.25986 12.2009 8.46973 12.4598 8.46973H13.3437C13.6026 8.46973 13.8125 8.25986 13.8125 8.00098C13.8125 7.74211 13.6026 7.53223 13.3437 7.53223ZM12.8622 5.73505C13.0864 5.60561 13.1632 5.31892 13.0337 5.09473C12.9043 4.87055 12.6176 4.79367 12.3934 4.92317L11.6279 5.36517C11.4037 5.49461 11.3269 5.7813 11.4563 6.00548C11.5859 6.22983 11.8726 6.30645 12.0966 6.17705L12.8622 5.73505ZM10.9062 2.9672C10.682 2.8377 10.3953 2.91458 10.2659 3.13876L9.82392 3.90433C9.69448 4.12855 9.7713 4.41523 9.99548 4.54464C10.2198 4.67417 10.5064 4.59714 10.6358 4.37308L11.0778 3.60751C11.2072 3.3833 11.1304 3.09664 10.9062 2.9672ZM9.1373 6.2008L7.66855 7.66955C7.48548 7.85258 7.48548 8.14939 7.66855 8.33245C7.76005 8.42395 7.88002 8.46973 7.99998 8.46973C8.11995 8.46973 8.23992 8.42395 8.33142 8.33242L9.80017 6.86367C9.98323 6.68064 9.98323 6.38383 9.80017 6.20076C9.61714 6.01773 9.32033 6.01773 9.1373 6.2008Z" fill="url(#paint1_linear_1893_21229)"/>
<path d="M10.8791 11.7188L10.878 11.7132C10.8534 11.5932 10.7899 11.4848 10.6973 11.4047C10.6047 11.3246 10.4882 11.2774 10.366 11.2704C10.1147 11.2568 9.88508 11.4134 9.80739 11.6527C9.80564 11.6581 9.80402 11.6635 9.80245 11.669L9.11833 14.0688L8.40889 11.6643C8.40727 11.6587 8.40553 11.6532 8.40367 11.6477C8.32355 11.4091 8.09221 11.2546 7.84108 11.271C7.71888 11.2792 7.60285 11.3277 7.51108 11.4088C7.41931 11.4899 7.35695 11.5991 7.33374 11.7193L7.33274 11.7247L6.6663 15.4171C6.6203 15.6718 6.78955 15.9157 7.04433 15.9617C7.2992 16.0077 7.54289 15.8384 7.58886 15.5836L7.96802 13.4829L8.59392 15.6042C8.62814 15.7183 8.69827 15.8183 8.79388 15.8894C8.8895 15.9605 9.0055 15.9988 9.12464 15.9987H9.12745C9.24702 15.9982 9.36322 15.9591 9.45867 15.8871C9.55412 15.815 9.62368 15.7141 9.65695 15.5992L10.2611 13.4797L10.6641 15.5883C10.7127 15.8426 10.9582 16.0094 11.2125 15.9608C11.4668 15.9122 11.6335 15.6666 11.5849 15.4123L10.8791 11.7188ZM13.0948 11.2695C12.836 11.2695 12.6261 11.4794 12.6261 11.7383V15.5299C12.6261 15.7888 12.836 15.9987 13.0948 15.9987C13.3537 15.9987 13.5636 15.7888 13.5636 15.5299V11.7383C13.5636 11.4794 13.3537 11.2695 13.0948 11.2695ZM5.12964 13.3431C5.27237 13.1255 5.3483 12.871 5.34808 12.6108C5.34808 11.8712 4.74642 11.2695 4.00686 11.2695H2.90552C2.64664 11.2695 2.43677 11.4794 2.43677 11.7383V15.5299C2.43676 15.5915 2.44887 15.6525 2.47242 15.7093C2.49598 15.7662 2.5305 15.8179 2.57403 15.8614C2.61756 15.905 2.66924 15.9395 2.72612 15.963C2.783 15.9866 2.84396 15.9987 2.90552 15.9987H2.90761C2.91774 15.9986 3.92392 15.9942 4.19927 15.9942C5.02049 15.9942 5.68861 15.326 5.68861 14.5048C5.68858 14.0354 5.47008 13.6163 5.12964 13.3431ZM4.00689 12.207C4.22952 12.207 4.41061 12.3882 4.41061 12.6108C4.41061 12.8333 4.22952 13.0145 4.00689 13.0145C3.92602 13.0145 3.77614 13.0149 3.61236 13.0155H3.37427V12.207H4.00689ZM4.19924 15.0567C4.04805 15.0567 3.67974 15.058 3.37427 15.0592V13.9538L3.61445 13.9529H4.19924C4.50352 13.9529 4.75108 14.2005 4.75108 14.5048C4.75108 14.8091 4.50352 15.0567 4.19924 15.0567Z" fill="white"/>
<path d="M8.46875 2.65625V3.54031C8.46875 3.79906 8.25875 4.00906 8 4.00906V2.1875C8.25875 2.1875 8.46875 2.3975 8.46875 2.65625Z" fill="url(#paint2_linear_1893_21229)"/>
<path d="M8 2.1875V4.00906C7.74125 4.00906 7.53125 3.79906 7.53125 3.54031V2.65625C7.53125 2.3975 7.74125 2.1875 8 2.1875Z" fill="url(#paint3_linear_1893_21229)"/>
</g>
<defs>
<linearGradient id="paint0_linear_1893_21229" x1="2.553" y1="-2.61147" x2="7.42002" y2="-2.12101" gradientUnits="userSpaceOnUse">
<stop stop-color="#0B63F6"/>
<stop offset="1" stop-color="#003CC5"/>
</linearGradient>
<linearGradient id="paint1_linear_1893_21229" x1="8.09791" y1="-2.61145" x2="15.5386" y2="-1.44896" gradientUnits="userSpaceOnUse">
<stop stop-color="#0B63F6"/>
<stop offset="1" stop-color="#003CC5"/>
</linearGradient>
<linearGradient id="paint2_linear_1893_21229" x1="8.04229" y1="0.382202" x2="8.6104" y2="0.402439" gradientUnits="userSpaceOnUse">
<stop stop-color="#0B63F6"/>
<stop offset="1" stop-color="#003CC5"/>
</linearGradient>
<linearGradient id="paint3_linear_1893_21229" x1="7.57354" y1="0.382202" x2="8.14165" y2="0.402439" gradientUnits="userSpaceOnUse">
<stop stop-color="#0B63F6"/>
<stop offset="1" stop-color="#003CC5"/>
</linearGradient>
<clipPath id="clip0_1893_21229">
<rect width="16" height="16" fill="white"/>
</clipPath>
</defs>
</svg>
