<svg width="16" height="16" viewBox="0 0 16 16" fill="none" xmlns="http://www.w3.org/2000/svg">
<path d="M11.4286 6.85742C8.90387 6.85742 6.85718 8.90412 6.85718 11.4288C6.85718 13.9536 8.90387 16.0003 11.4286 16.0003C13.9533 16.0003 16 13.9536 16 11.4288C15.997 8.90537 13.9521 6.8604 11.4286 6.85742ZM11.4286 12.5717C10.8538 12.5724 10.3683 12.1453 10.2957 11.5751C10.2232 11.0049 10.5862 10.4698 11.1429 10.3266V8.85743C11.1429 8.69963 11.2708 8.57172 11.4286 8.57172C11.5864 8.57172 11.7143 8.69963 11.7143 8.85743V10.3266C12.271 10.4698 12.634 11.0049 12.5615 11.5751C12.4889 12.1453 12.0034 12.5724 11.4286 12.5717ZM15.1429 11.7146C14.9851 11.7146 14.8572 11.5867 14.8572 11.4289C14.8572 9.53532 13.3221 8.0003 11.4286 8.0003C9.53505 8.0003 8.00003 9.53532 8.00003 11.4289C8.00003 11.5867 7.87212 11.7146 7.71431 11.7146C7.55651 11.7146 7.4286 11.5867 7.4286 11.4289C7.4286 9.21972 9.21948 7.42887 11.4286 7.42887C13.6377 7.42887 15.4286 9.21975 15.4286 11.4289C15.4286 11.5046 15.3985 11.5773 15.3449 11.6309C15.2913 11.6845 15.2187 11.7146 15.1429 11.7146Z" fill="white"/>
<path d="M6.28572 11.4286C6.28889 9.19044 7.73693 7.21044 9.86888 6.52917C8.39087 3.19344 5.73315 0.323711 5.42657 0C4.87487 0.58743 0 5.88342 0 10.5714C2.61522e-05 12.4958 1.01884 14.2763 2.67785 15.2514C4.33686 16.2266 6.38814 16.2505 8.06943 15.3143C7.51009 14.8331 7.06118 14.2368 6.75335 13.5662C6.44551 12.8956 6.28601 12.1665 6.28572 11.4286ZM5.42859 15.4286C2.74728 15.4256 0.574432 13.2527 0.571425 10.5714C0.571425 10.4136 0.699335 10.2857 0.857137 10.2857C1.01494 10.2857 1.14285 10.4137 1.14285 10.5714C1.14552 12.9373 3.06273 14.8545 5.42856 14.8571C5.58636 14.8571 5.71427 14.9851 5.71427 15.1429C5.71427 15.3007 5.58636 15.4286 5.42859 15.4286Z" fill="white"/>
</svg>
