<svg width="11" height="14" viewBox="0 0 11 14" fill="none" xmlns="http://www.w3.org/2000/svg">
<path d="M5.36821 3.12046C5.9428 2.54587 5.9428 1.61428 5.36821 1.0397C4.79363 0.465111 3.86204 0.46511 3.28745 1.0397C2.71286 1.61428 2.71286 2.54587 3.28745 3.12046C3.86204 3.69505 4.79363 3.69505 5.36821 3.12046Z" fill="white"/>
<path d="M10.6796 0.601562H6.51209C6.37812 0.601562 6.27285 0.70922 6.27285 0.840802C6.27285 0.972383 6.37812 1.08004 6.51209 1.08004H7.97863V2.18772H8.79204C8.92362 2.18772 9.03128 2.29298 9.03128 2.42696C9.03128 2.55854 8.92362 2.6662 8.79204 2.6662H7.97863V3.58009H9.44995C9.58153 3.58009 9.68919 3.68775 9.68919 3.81933C9.68919 3.95091 9.58153 4.05857 9.44995 4.05857H7.97863V4.97246H8.79204C8.92362 4.97246 9.03128 5.08012 9.03128 5.2117C9.03128 5.34328 8.92362 5.45094 8.79204 5.45094H7.97863V6.36483H9.44995C9.58153 6.36483 9.68919 6.47249 9.68919 6.60407C9.68919 6.73566 9.58153 6.84331 9.44995 6.84331H7.97863V7.75721H8.79204C8.92362 7.75721 9.03128 7.86486 9.03128 7.99645C9.03128 8.12803 8.92362 8.23569 8.79204 8.23569H7.97863V9.14958H9.44995C9.58153 9.14958 9.68919 9.25724 9.68919 9.38882C9.68919 9.5204 9.58153 9.62806 9.44995 9.62806H7.97863V10.542H8.79204C8.92362 10.542 9.03128 10.6496 9.03128 10.7812C9.03128 10.9128 8.92362 11.0204 8.79204 11.0204H7.97863V11.9343H9.44995C9.58153 11.9343 9.68919 12.042 9.68919 12.1736C9.68919 12.3075 9.58153 12.4128 9.44995 12.4128H7.97863V13.5205H5.83026C5.90442 13.3865 5.94749 13.2334 5.94749 13.0707V9.1735C6.05754 9.22614 6.18194 9.25724 6.31113 9.25724C6.77525 9.25724 7.15086 8.87924 7.15086 8.41511V5.60405C7.15086 4.76672 6.47142 4.08728 5.63408 4.08728H3.02398C2.18665 4.08728 1.50481 4.76672 1.50481 5.60405V8.41511C1.50481 8.87924 1.88281 9.25724 2.34694 9.25724C2.47613 9.25724 2.60053 9.22853 2.70819 9.1735V13.0707C2.70819 13.2334 2.75125 13.3865 2.82541 13.5205H0.239239C0.105265 13.5205 0 13.6281 0 13.7597C0 13.8913 0.105265 13.999 0.239239 13.999H10.6796C10.8136 13.999 10.9189 13.8913 10.9189 13.7597V0.840802C10.9189 0.70922 10.8136 0.601562 10.6796 0.601562Z" fill="white"/>
</svg>
