<svg width="14" height="14" viewBox="0 0 14 14" fill="none" xmlns="http://www.w3.org/2000/svg">
<g clip-path="url(#clip0_1893_21270)">
<path fill-rule="evenodd" clip-rule="evenodd" d="M7.77496 5.53588H9.76793V3.25586H7.20905L7.77496 5.53588ZM1.30396 3.25586V7.48784H5.82299L5.3145 4.65832L4.87162 5.75732C4.85904 5.78616 4.83843 5.81077 4.81226 5.82822C4.78608 5.84567 4.75544 5.85522 4.72399 5.85574H3.09189C3.04838 5.85574 3.00666 5.83846 2.9759 5.8077C2.94514 5.77694 2.92786 5.73522 2.92786 5.69171C2.92786 5.64821 2.94514 5.60649 2.9759 5.57572C3.00666 5.54496 3.04838 5.52768 3.09189 5.52768H4.60917L5.21608 4.0186C5.22989 3.98641 5.25364 3.95948 5.28386 3.94176C5.31407 3.92404 5.34917 3.91646 5.384 3.92013C5.41884 3.9238 5.45159 3.93852 5.47745 3.96214C5.50331 3.98576 5.52094 4.01705 5.52774 4.05141L6.03623 6.80712L6.79898 3.25586H1.30396ZM2.11591 6.01977C2.0289 6.01977 1.94546 5.98521 1.88393 5.92369C1.82241 5.86216 1.78784 5.77872 1.78784 5.69171C1.78784 5.6047 1.82241 5.52126 1.88393 5.45974C1.94546 5.39821 2.0289 5.36365 2.11591 5.36365C2.20291 5.36365 2.28636 5.39821 2.34788 5.45974C2.4094 5.52126 2.44397 5.6047 2.44397 5.69171C2.44397 5.77872 2.4094 5.86216 2.34788 5.92369C2.28636 5.98521 2.20291 6.01977 2.11591 6.01977Z" fill="white"/>
<path fill-rule="evenodd" clip-rule="evenodd" d="M7.48799 5.7422L7.0123 3.80664L6.22496 7.48912H9.76801V5.85702H7.65202C7.61584 5.85868 7.58013 5.84831 7.55045 5.82754C7.52078 5.80677 7.49882 5.77676 7.48799 5.7422ZM0 10.007C0 10.4171 0.328061 10.7451 0.738137 10.7451H11.72V9.10482H0V10.007ZM6.9959 9.59691C7.08291 9.59691 7.16635 9.63148 7.22787 9.693C7.2894 9.75453 7.32396 9.83797 7.32396 9.92498C7.32396 10.012 7.2894 10.0954 7.22787 10.1569C7.16635 10.2185 7.08291 10.253 6.9959 10.253C6.90889 10.253 6.82545 10.2185 6.76393 10.1569C6.7024 10.0954 6.66784 10.012 6.66784 9.92498C6.66784 9.83797 6.7024 9.75453 6.76393 9.693C6.82545 9.63148 6.90889 9.59691 6.9959 9.59691ZM6.15114 11.0732L5.58524 13.0252H8.40656L7.84886 11.065L6.15114 11.0732ZM12.048 10.7451H13.2619C13.6719 10.7451 14 10.4171 14 10.007V9.11302H12.048V10.7451Z" fill="white"/>
<path fill-rule="evenodd" clip-rule="evenodd" d="M13.2619 0.984764H0.738137C0.54656 0.984658 0.362447 1.05904 0.224705 1.19219C0.0869638 1.32534 0.00638586 1.50683 0 1.6983V8.78441H14V1.7065C13.9978 1.51216 13.9191 1.32651 13.7809 1.18985C13.6427 1.05319 13.4562 0.984752 13.2619 0.984764ZM13.0158 7.6526C13.0158 7.69611 12.9985 7.73783 12.9678 7.76859C12.937 7.79935 12.8953 7.81663 12.8518 7.81663H1.14821C1.10471 7.81663 1.06299 7.79935 1.03223 7.76859C1.00146 7.73783 0.984183 7.69611 0.984183 7.6526V3.09256C0.984183 3.04905 1.00146 3.00733 1.03223 2.97657C1.06299 2.94581 1.10471 2.92853 1.14821 2.92853H12.8682C12.9117 2.92853 12.9534 2.94581 12.9842 2.97657C13.0149 3.00733 13.0322 3.04905 13.0322 3.09256V7.6526H13.0158Z" fill="white"/>
<path fill-rule="evenodd" clip-rule="evenodd" d="M10.0879 7.48784H12.696V3.25586H10.0879V7.48784ZM11.2361 4.5599H11.884C11.9275 4.5599 11.9692 4.57718 12 4.60794C12.0308 4.63871 12.0481 4.68043 12.0481 4.72393C12.0481 4.76744 12.0308 4.80916 12 4.83992C11.9692 4.87068 11.9275 4.88796 11.884 4.88796H11.2279C11.1844 4.88796 11.1427 4.87068 11.1119 4.83992C11.0812 4.80916 11.0639 4.76744 11.0639 4.72393C11.0639 4.68043 11.0812 4.63871 11.1119 4.60794C11.1427 4.57718 11.1844 4.5599 11.2279 4.5599H11.2361ZM11.2361 5.53588H11.884C11.9275 5.53588 11.9692 5.55316 12 5.58393C12.0308 5.61469 12.0481 5.65641 12.0481 5.69991C12.0481 5.74342 12.0308 5.78514 12 5.8159C11.9692 5.84666 11.9275 5.86394 11.884 5.86394H11.2279C11.1844 5.86394 11.1427 5.84666 11.1119 5.8159C11.0812 5.78514 11.0639 5.74342 11.0639 5.69991C11.0639 5.65641 11.0812 5.61469 11.1119 5.58393C11.1427 5.55316 11.1844 5.53588 11.2279 5.53588H11.2361ZM11.2361 6.51186H11.884C11.9275 6.51186 11.9692 6.52915 12 6.55991C12.0308 6.59067 12.0481 6.63239 12.0481 6.67589C12.0481 6.7194 12.0308 6.76112 12 6.79188C11.9692 6.82264 11.9275 6.83992 11.884 6.83992H11.2279C11.1844 6.83992 11.1427 6.82264 11.1119 6.79188C11.0812 6.76112 11.0639 6.7194 11.0639 6.67589C11.0639 6.63239 11.0812 6.59067 11.1119 6.55991C11.1427 6.52915 11.1844 6.51186 11.2279 6.51186H11.2361Z" fill="white"/>
</g>
<defs>
<clipPath id="clip0_1893_21270">
<rect width="14" height="14" fill="white"/>
</clipPath>
</defs>
</svg>
