<svg width="14" height="12" viewBox="0 0 14 12" fill="none" xmlns="http://www.w3.org/2000/svg">
<path d="M13.149 1.80063C13.0144 0.777507 12.4128 0.15625 11.5046 0.15625H2.49531C1.58721 0.15625 0.985625 0.777507 0.850965 1.80063C0.716304 2.82375 0 10.1988 0 10.1988C0 11.107 0.736241 11.8432 1.64438 11.8432H12.3556C13.2637 11.8432 14 11.107 14 10.1988C13.9999 10.1988 13.2836 2.82372 13.149 1.80063ZM7.04018 4.29125C7.05851 4.26789 7.07486 4.24305 7.08906 4.21698C7.40313 3.81714 8.19984 2.77797 8.08411 2.66281C7.99297 2.57243 7.29672 2.93355 6.7976 3.21087C6.65147 3.29208 6.50621 3.37485 6.36183 3.45915C6.33848 3.47065 6.31672 3.48401 6.29524 3.49844L6.28403 3.50508L6.28443 3.50551C6.12862 3.61517 6.0323 3.80071 6.05003 4.00443C6.05903 4.10867 6.09759 4.20817 6.16119 4.29125H3.62664C3.59824 4.29125 3.57101 4.27997 3.55093 4.25989C3.53085 4.23981 3.51957 4.21257 3.51957 4.18418C3.51957 2.40375 4.96803 0.955257 6.74846 0.955257C6.83994 0.955257 6.93415 0.959401 7.02847 0.967486C7.83081 1.03642 8.57453 1.40163 9.1225 1.99577C9.67375 2.59341 9.97735 3.37059 9.97735 4.18418C9.97735 4.21257 9.96607 4.23981 9.94599 4.25989C9.92591 4.27997 9.89867 4.29125 9.87027 4.29125H7.04018Z" fill="white"/>
</svg>
