<svg width="49" height="49" viewBox="0 0 49 49" fill="none" xmlns="http://www.w3.org/2000/svg">
<path fill-rule="evenodd" clip-rule="evenodd" d="M24.3431 0.0653757C14.3049 1.00427 5.80892 7.23143 1.96164 16.47C0.752699 19.3731 0.0364719 22.7454 0.00322809 25.6914C-0.0146872 27.2823 0.021814 27.4062 0.646453 27.8723C0.910679 28.0694 0.930127 28.0697 13.9572 28.0697C26.9065 28.0697 27.0059 28.0683 27.3354 27.8749C27.5179 27.7676 27.755 27.5307 27.8623 27.3483C28.0558 27.019 28.0573 26.9196 28.0573 13.978C28.0573 0.95869 28.057 0.939254 27.8597 0.675186C27.4327 0.103579 27.2147 0.0172152 26.1584 0.00132125C25.622 -0.00662571 24.8051 0.0220983 24.3431 0.0653757ZM32.2238 5.44959C32.0496 5.56803 31.8169 5.78661 31.7066 5.93531C31.5097 6.20091 31.5062 6.28737 31.5062 10.8663C31.5062 15.1846 31.5189 15.5503 31.6798 15.8448C31.7939 16.0538 32.1744 16.3708 32.7913 16.7709C35.5802 18.5797 37.426 21.2603 38.0659 24.4313L38.2206 25.1973L43.6103 25.222L49 25.2468L48.9403 24.6475C48.4068 19.2942 46.2133 14.6213 42.4771 10.8792C40.5691 8.96808 38.7692 7.68048 36.3922 6.52626C34.9839 5.84234 33.3176 5.23416 32.8523 5.23416C32.6808 5.23416 32.3979 5.33115 32.2238 5.44959ZM38.1645 28.3447C38.1645 28.7961 37.6879 30.4351 37.2987 31.322C36.5106 33.1181 35.1167 34.8607 33.5181 36.0487C32.241 36.9978 29.9994 37.9445 28.5854 38.132L28.1052 38.1957V43.593C28.1052 46.5615 28.1375 48.9899 28.177 48.9896C28.5426 48.9855 30.1714 48.7566 30.9711 48.5968C35.3967 47.7126 39.391 45.5638 42.5451 42.3703C45.638 39.2389 47.608 35.5679 48.5495 31.1815C48.7326 30.3288 48.9903 28.5674 48.9903 28.1692C48.9903 28.1409 46.5545 28.1176 43.5774 28.1176H38.1645V28.3447ZM6.22547 31.566C5.68821 31.7303 5.20813 32.3554 5.20813 32.8909C5.20813 33.6518 6.58244 36.8141 7.64844 38.5061C9.39772 41.2826 12.0297 43.9173 14.754 45.6189C17.6695 47.44 21.08 48.5867 24.6331 48.9403L25.2327 49L25.2079 43.6135L25.1832 38.227L24.4167 38.0724C21.2438 37.4329 18.5616 35.5882 16.7518 32.8009C16.3514 32.1844 16.0342 31.8041 15.8251 31.6901C15.5322 31.5303 15.1504 31.5152 11.0042 31.4991C8.52773 31.4894 6.37732 31.5196 6.22547 31.566Z" fill="#72D284"/>
</svg>
