<svg width="36" height="36" viewBox="0 0 36 36" fill="none" xmlns="http://www.w3.org/2000/svg">
<path fill-rule="evenodd" clip-rule="evenodd" d="M12.4155 0.0524737C10.6508 0.33083 8.83783 1.34319 7.77327 2.64481C6.60613 4.07172 6.03458 5.62235 6.01868 7.40467C6.0032 9.1383 6.49207 10.6395 7.51378 11.9958C8.52473 13.3378 9.92174 14.2801 11.588 14.744C12.2077 14.9165 12.3794 14.9335 13.5002 14.934C14.5659 14.9343 14.8119 14.9126 15.3295 14.7724C17.5126 14.1812 19.2534 12.7659 20.216 10.7998C21.6477 7.87503 21.0711 4.43861 18.7651 2.15355C17.8221 1.21911 16.6397 0.549644 15.344 0.216532C14.5741 0.0185501 13.1398 -0.0618249 12.4155 0.0524737ZM6.2178 18.1088C3.48048 18.604 1.27023 20.5103 0.372711 23.1499C0.0284351 24.1625 -0.0180031 24.7612 0.00493454 27.898C0.0253392 30.6982 0.0309681 30.8027 0.171127 30.9904C0.250916 31.0973 0.4036 31.25 0.510478 31.3298C0.701859 31.4728 0.779186 31.4752 5.73555 31.4939C10.5198 31.512 10.7647 31.5068 10.7303 31.3884C10.5594 30.8001 10.5229 30.5394 10.5256 29.9266C10.533 28.2238 11.4818 26.7385 13.0428 25.9857C13.3911 25.8178 13.8439 25.6461 14.0489 25.6041C14.2753 25.5577 15.396 25.5278 16.9013 25.5278C19.557 25.5278 19.7974 25.5527 20.577 25.9087L20.9343 26.0719L21.6223 24.6914C22.0008 23.932 22.4503 23.1138 22.6214 22.8732C23.1618 22.1127 24.1292 21.4551 25.0687 21.2098C25.2922 21.1513 25.4876 21.0911 25.5028 21.076C25.5674 21.0113 24.6779 20.0654 24.1598 19.6478C23.4504 19.0759 22.2658 18.4777 21.3454 18.2265L20.6418 18.0345L13.7112 18.0208C7.92589 18.0093 6.68767 18.0238 6.2178 18.1088ZM25.9003 24.0483C25.7739 24.0783 25.545 24.1859 25.3916 24.2874C25.1342 24.4578 24.9766 24.7441 23.3474 27.9991L21.5821 31.5261L20.7043 30.2172C19.9594 29.1066 19.7764 28.8789 19.4953 28.7137L19.1642 28.5189H16.8775H14.5908L14.2584 28.7144C13.4107 29.2128 13.2609 30.3603 13.9534 31.0517C14.3716 31.4695 14.5855 31.5099 16.3931 31.5119L17.9681 31.5137L19.3046 33.5273C20.0397 34.6348 20.7363 35.6119 20.8525 35.6986C21.3612 36.0779 22.0014 36.1005 22.5621 35.7589C22.8917 35.558 22.902 35.5398 24.6172 32.1263C25.5653 30.2393 26.3602 28.6953 26.3837 28.6952C26.4072 28.695 27.1334 29.8746 27.9975 31.3166C28.8615 32.7586 29.6611 34.0255 29.7743 34.1321C30.1693 34.5041 30.5145 34.5483 32.8308 34.5236L34.9251 34.5013L35.2574 34.3059C36.1051 33.8074 36.2549 32.66 35.5625 31.9685C35.1449 31.5515 34.9279 31.5101 33.1574 31.5101H31.6173L29.5555 28.0713C28.4215 26.1799 27.3894 24.5313 27.2619 24.4077C27.1345 24.2841 26.8779 24.1372 26.692 24.0812C26.3231 23.9702 26.2436 23.9669 25.9003 24.0483Z" fill="#39A6F4"/>
</svg>
