<svg width="18" height="24" viewBox="0 0 18 24" fill="none" xmlns="http://www.w3.org/2000/svg">
<path fill-rule="evenodd" clip-rule="evenodd" d="M5.08988 0.0778925C3.29177 0.396946 1.81712 1.65975 1.24019 3.37464C0.982208 4.14146 0.991643 3.9311 0.962494 9.56438L0.935457 14.7928L0.762907 15.0976C0.506618 15.5503 0.26948 16.1574 0.126831 16.726C0.0147863 17.1728 9.41077e-05 17.3207 2.28782e-07 18.0049C-0.00014059 18.8592 0.064683 19.2692 0.311303 19.9744C0.935879 21.7606 2.47286 23.2265 4.26839 23.7485C5.47563 24.0995 6.67535 24.083 7.84762 23.6995C10.2877 22.9009 11.9927 20.5563 11.9885 18.0049C11.9869 17.0205 11.6701 15.8529 11.1762 15.0111L11.004 14.7175L11.0036 9.80803C11.0032 4.77366 10.991 4.38188 10.8135 3.67943C10.6939 3.20657 10.2858 2.36589 9.98266 1.96788C8.85128 0.482711 6.9492 -0.25204 5.08988 0.0778925ZM13.4874 2.12393C13.3525 2.19507 13.2323 2.31094 13.1418 2.45687C13.0236 2.64739 13.003 2.72804 13.003 2.9995C13.003 3.27096 13.0236 3.35161 13.1418 3.54213C13.2323 3.68806 13.3525 3.80393 13.4874 3.87507C13.6936 3.9839 13.7 3.98423 15.4823 3.9832C17.1155 3.98226 17.2868 3.97471 17.4601 3.89608C18.18 3.56943 18.18 2.42957 17.4601 2.10292C17.2868 2.02429 17.1155 2.01674 15.4823 2.0158C13.7 2.01477 13.6936 2.0151 13.4874 2.12393ZM13.615 6.06947C13.0677 6.26436 12.8324 6.94045 13.1169 7.50113C13.2132 7.691 13.3095 7.78342 13.5387 7.90577C13.6808 7.98164 13.8113 7.9935 14.5046 7.9935H15.3063L15.5337 7.85282C15.8392 7.66376 15.9799 7.39825 15.9785 7.01313C15.9768 6.52583 15.7318 6.16026 15.3327 6.04955C15.0702 5.97672 13.8352 5.99107 13.615 6.06947ZM6.54106 10.1643C6.6724 10.2446 6.78881 10.3671 6.8579 10.4979L6.96718 10.7046L6.96821 13.499L6.96924 16.2934L7.17845 16.4337C7.73515 16.807 8.06706 17.6007 7.95558 18.2922C7.78003 19.3812 6.75172 20.1473 5.6939 19.9771C4.8158 19.8358 4.14813 19.1657 4.00581 18.2828C3.8971 17.6087 4.2146 16.8371 4.75684 16.4575L4.99131 16.2934L4.99351 13.5064C4.99567 10.7644 4.99731 10.7161 5.09528 10.5139C5.33434 10.0206 6.03064 9.85221 6.54106 10.1643ZM13.6863 10.0421C13.3748 10.1116 13.0943 10.4141 13.0229 10.7574C12.9422 11.1458 13.0237 11.4508 13.2758 11.7043C13.3895 11.8186 13.5456 11.9195 13.6562 11.9502C13.7776 11.9839 14.4416 12.0023 15.537 12.0025L17.2301 12.0028L17.4849 11.8738C17.6979 11.7661 17.761 11.703 17.8689 11.4903C18.0784 11.077 18.0273 10.6387 17.7314 10.3116C17.4525 10.0032 17.33 9.98566 15.4899 9.99143C14.6104 9.99419 13.7987 10.017 13.6863 10.0421ZM13.4874 14.1283C13.3525 14.1994 13.2323 14.3153 13.1418 14.4612C13.0236 14.6517 13.003 14.7324 13.003 15.0039C13.003 15.2753 13.0236 15.356 13.1418 15.5465C13.2323 15.6924 13.3525 15.8083 13.4874 15.8794C13.6804 15.9812 13.7476 15.9886 14.4872 15.9886C15.1243 15.9886 15.3096 15.9737 15.4304 15.9128C15.8014 15.7255 15.9796 15.4304 15.9796 15.0034C15.9796 14.6943 15.9054 14.5008 15.7043 14.2849C15.4866 14.0513 15.3383 14.0191 14.4791 14.0191C13.748 14.0191 13.6801 14.0266 13.4874 14.1283Z" fill="#FFB71B"/>
</svg>
