<svg width="47" height="47" viewBox="0 0 47 47" fill="none" xmlns="http://www.w3.org/2000/svg">
<path fill-rule="evenodd" clip-rule="evenodd" d="M28.3899 0.0596946C27.6907 0.289972 27.0001 0.943666 19.0611 8.89003L10.6975 17.2616H20.5313H30.3652L34.6164 13.0103C36.9546 10.6721 38.8677 8.71602 38.8677 8.66343C38.8677 8.61085 37.0374 6.74528 34.8006 4.5177C31.6818 1.41194 30.6295 0.418394 30.2872 0.256419C29.808 0.0298183 28.7986 -0.0748868 28.3899 0.0596946ZM37.535 13.9522L34.2271 17.2616L35.6972 17.2635C36.6036 17.2647 37.3964 17.3147 37.7647 17.394L38.3621 17.5226L40.6829 15.2095C41.9592 13.9373 43.0036 12.854 43.0036 12.8023C43.0036 12.7107 40.9775 10.6428 40.8878 10.6428C40.863 10.6428 39.3542 12.132 37.535 13.9522ZM42.874 16.8856L40.7699 18.9915L41.1051 19.4482C41.8596 20.4764 42.2638 21.7462 42.2668 23.0982L42.2683 23.8329L44.3888 21.7193C46.8664 19.2497 46.9972 19.0609 47 17.951C47.0023 16.9928 46.8005 16.5789 45.8321 15.5557C45.4281 15.1288 45.0707 14.7795 45.0379 14.7795C45.0051 14.7795 44.0314 15.7272 42.874 16.8856ZM2.01112 20.1429C1.08283 20.3948 0.280816 21.2351 0.0807275 22.1654C0.00839403 22.5019 -0.0129292 25.8789 0.0071992 33.8085L0.0355076 44.9776L0.291938 45.4999C0.582466 46.0917 1.02777 46.5235 1.63925 46.8064L2.05754 47H19.7503H37.443L37.8703 46.8025C38.4155 46.5504 38.9583 46.0075 39.2424 45.4302L39.4651 44.9776V33.5327V22.0877L39.2137 21.6109C38.904 21.0233 38.4372 20.5599 37.8725 20.279L37.443 20.0653L19.9341 20.048C6.38211 20.0345 2.33161 20.056 2.01112 20.1429ZM14.1438 30.3152V34.6358H9.31846H4.49316V30.3152V25.9946H9.31846H14.1438V30.3152ZM7.25048 30.3152V31.878H9.31846H11.3864V30.3152V28.7525H9.31846H7.25048V30.3152ZM9.82397 39.6918V41.0707H7.11261H4.40125V39.6918V38.3129H7.11261H9.82397V39.6918ZM18.2797 39.6918V41.0707H15.5224H12.7651V39.6918V38.3129H15.5224H18.2797V39.6918ZM26.6436 39.6918V41.0707H23.9322H21.2209V39.6918V38.3129H23.9322H26.6436V39.6918ZM35.0993 39.6918V41.0707H32.388H29.6766V39.6918V38.3129H32.388H35.0993V39.6918Z" fill="#72D284"/>
</svg>
