<svg width="42" height="48" viewBox="0 0 42 48" fill="none" xmlns="http://www.w3.org/2000/svg">
<path fill-rule="evenodd" clip-rule="evenodd" d="M31.2921 2.45946L31.2944 4.20858C37.7219 4.71233 41.9677 9.09213 41.9746 15.8088L42 35.4689C42.0092 42.7919 37.4086 47.2977 30.0342 47.3093L12.0211 47.3326C4.69278 47.342 0.034572 42.729 0.0253569 35.385L1.55161e-05 15.9557C-0.00919954 9.19475 4.08689 4.8266 10.5144 4.23657L10.5121 2.48744C10.5098 1.46129 11.27 0.689343 12.2837 0.689343C13.2973 0.68701 14.0576 1.45662 14.0599 2.48278L14.0622 4.11529L27.7466 4.09664L27.7443 2.46412C27.742 1.43797 28.5022 0.668353 29.5159 0.666021C30.5065 0.663689 31.2898 1.4333 31.2921 2.45946ZM3.55047 16.678L38.4295 16.6313V15.8151C38.3304 10.8009 35.8147 8.17022 31.2993 7.77842L31.3016 9.57418C31.3016 10.577 30.5206 11.3723 29.53 11.3723C28.5164 11.3746 27.7538 10.5817 27.7538 9.57885L27.7515 7.68979L14.0672 7.70845L14.0695 9.59517C14.0695 10.6003 13.3115 11.3933 12.2979 11.3933C11.2842 11.3956 10.5217 10.605 10.5217 9.59984L10.5194 7.80407C6.02701 8.25418 3.54125 10.8942 3.54816 15.9527L3.55047 16.678ZM28.56 27.2772V27.3029C28.583 28.3757 29.4584 29.1896 30.5205 29.1663C31.5572 29.1406 32.3842 28.2521 32.3612 27.1793C32.3128 26.1531 31.4811 25.3159 30.4467 25.3182C29.387 25.3415 28.5577 26.2044 28.56 27.2772ZM30.4632 37.7473C29.4035 37.724 28.5488 36.8401 28.5465 35.7673C28.5235 34.6945 29.3735 33.8059 30.4333 33.7803H30.4563C31.5391 33.7803 32.4168 34.6642 32.4168 35.7603C32.4191 36.8564 31.5437 37.745 30.4632 37.7473ZM19.0693 27.3167C19.1154 28.3895 19.9931 29.2267 21.0528 29.1801C22.0895 29.1311 22.9166 28.2449 22.8705 27.1721C22.8452 26.1226 21.9928 25.3064 20.9561 25.3087C19.8964 25.3553 19.067 26.2439 19.0693 27.3167ZM21.0618 37.6426C20.0021 37.6892 19.1266 36.852 19.0783 35.7792C19.0783 34.7064 19.9053 33.8202 20.965 33.7712C22.0017 33.7688 22.8564 34.5851 22.8795 35.6322C22.9279 36.7074 22.0985 37.5936 21.0618 37.6426ZM9.57745 27.3975C9.62353 28.4703 10.5013 29.3099 11.561 29.2609C12.5977 29.2143 13.4247 28.3257 13.3764 27.2529C13.3533 26.2035 12.5009 25.3872 11.4619 25.3895C10.4022 25.4362 9.57515 26.3247 9.57745 27.3975ZM11.5699 37.6543C10.5102 37.7032 9.63475 36.8637 9.58637 35.7909C9.58406 34.7181 10.4134 33.8295 11.4732 33.7829C12.5098 33.7805 13.3645 34.5968 13.3876 35.6463C13.436 36.7191 12.6089 37.6076 11.5699 37.6543Z" fill="#FF7354"/>
</svg>
