<svg width="30" height="35" viewBox="0 0 30 35" fill="none" xmlns="http://www.w3.org/2000/svg">
<path fill-rule="evenodd" clip-rule="evenodd" d="M7.75002 2.32149C0.276401 4.85526 0.473775 4.77193 0.145549 5.53155C0.00773941 5.85063 0.00023535 6.2127 8.46618e-07 12.5652C-0.000155489 19.6901 0.0209498 20.1828 0.388807 21.6455C1.02353 24.1693 2.57125 26.6345 4.50113 28.1956C4.97757 28.581 13.7421 34.5308 14.2791 34.8334C14.5961 35.012 15.2429 35.0559 15.5789 34.9216C15.814 34.8277 24.6401 28.874 25.245 28.4014C27.6001 26.5612 29.1513 23.9969 29.7991 20.8732C29.9565 20.1138 29.9638 19.8208 29.9916 13.0813C30.0123 8.07304 29.9955 5.98088 29.9328 5.73584C29.881 5.53377 29.711 5.24419 29.5184 5.02988L29.1918 4.6665L22.2763 2.32946C16.775 0.470341 15.2805 -0.00594299 14.9679 5.57455e-05C14.6807 0.00547926 12.7411 0.629349 7.75002 2.32149ZM17.0535 7.25409C19.9262 8.03031 22.1856 10.3371 23.013 13.3386C23.3 14.3796 23.4043 15.5999 23.2926 16.6097C22.8815 20.3272 20.5348 23.2181 17.1155 24.2197C16.4423 24.4169 16.2452 24.4372 15.005 24.4372C13.7591 24.4372 13.5696 24.4175 12.8807 24.2159C11.925 23.9363 11.2679 23.6233 10.4517 23.0587C7.37849 20.9334 5.98499 17.0099 6.99804 13.3349C7.90682 10.0381 10.5492 7.60136 13.8 7.06254C14.6047 6.92909 16.1981 7.02294 17.0535 7.25409ZM17.6632 10.6417C17.5131 10.7102 17.3071 10.8474 17.2054 10.9467C17.1038 11.046 16.4753 12.2735 15.8087 13.6746C15.1422 15.0756 14.583 16.2375 14.5662 16.2565C14.5493 16.2755 14.0696 15.8097 13.5 15.2215C12.571 14.2619 12.424 14.1418 12.0701 14.0529C11.2967 13.8586 10.5587 14.2176 10.2073 14.9589C9.98585 15.426 9.95403 15.7878 10.0891 16.3041C10.1597 16.5742 10.5114 16.9891 12.0624 18.6324C13.1257 19.7589 14.0862 20.7065 14.2624 20.8025C14.9154 21.1586 15.8543 20.9492 16.2822 20.352C16.3878 20.2047 17.2537 18.4436 18.2066 16.4382C20.0349 12.5908 20.1281 12.3349 19.9309 11.7066C19.8072 11.3124 19.4377 10.8726 19.0607 10.6703C18.701 10.4774 18.0528 10.4642 17.6632 10.6417Z" fill="#447FD9"/>
</svg>
