<svg width="20" height="24" viewBox="0 0 20 24" fill="none" xmlns="http://www.w3.org/2000/svg">
<path fill-rule="evenodd" clip-rule="evenodd" d="M8.74678 0.0474551C8.3922 0.149976 6.09061 2.74578 4.59185 4.73354C2.14808 7.97458 0.652518 10.8493 0.127892 13.3141C0.0147025 13.8458 0.0024659 14.0013 0.000159751 14.934C-0.00242879 16.014 0.0242566 16.2599 0.242117 17.1613C0.757942 19.2956 2.15636 21.2649 4.0452 22.5167C6.39587 24.0746 9.43632 24.4325 12.0697 23.4612C14.3449 22.6221 16.2742 20.8288 17.2231 18.671C17.54 17.9504 17.5665 18.0233 16.9772 17.9945C15.8954 17.9416 15.0487 17.4607 14.4647 16.5675C14.358 16.4042 14.2627 16.2707 14.2529 16.2707C14.2432 16.2707 14.0893 16.5608 13.911 16.9155C13.7326 17.2702 13.4879 17.6913 13.3671 17.8512C12.835 18.5562 11.9344 18.9908 11.0055 18.9908C10.4721 18.9908 10.1917 18.925 9.67842 18.6796C9.05858 18.3833 8.75718 18.0698 7.98213 16.9155L7.36022 15.9893L6.97344 15.9886C5.82931 15.9865 4.81009 15.352 4.30024 14.3244C3.88235 13.4821 3.87689 12.5199 4.28532 11.685C4.54502 11.154 5.06075 10.6347 5.61672 10.3443C6.21298 10.0328 6.37083 10.0105 7.97507 10.01C9.50094 10.0097 9.67211 10.0283 10.1812 10.2509C10.3203 10.3116 10.4416 10.3614 10.4507 10.3614C10.4598 10.3614 10.7042 9.89214 10.9938 9.31852C11.5026 8.31089 11.5333 8.26296 11.9009 7.89917C12.435 7.37076 12.9231 7.12886 13.6617 7.02648C14.0478 6.97296 14.589 7.02521 14.9449 7.15034C15.083 7.19888 15.1238 7.20122 15.0991 7.15915C14.9089 6.83475 13.9779 5.50925 13.4285 4.78044C12.3615 3.36522 11.4684 2.30113 10.155 0.880191C9.3508 0.0100767 9.19488 -0.0821265 8.74678 0.0474551ZM13.6811 9.06142C13.2914 9.20863 13.2618 9.25609 12.0456 11.6765C11.4111 12.9394 10.8819 13.9726 10.8696 13.9726C10.8573 13.9726 10.5941 13.5951 10.2847 13.1337C9.97535 12.6723 9.66265 12.2534 9.58989 12.2029C9.32977 12.0223 9.17234 12.0029 7.96655 12.0029C7.01425 12.0029 6.76274 12.0165 6.62046 12.0757C6.24559 12.2317 5.99837 12.594 5.99837 12.9874C5.99837 13.4013 6.17683 13.7006 6.53961 13.8951C6.70908 13.986 6.81474 13.9976 7.59855 14.0119L8.46924 14.0278L9.36347 15.3665C10.0093 16.3335 10.3059 16.7373 10.4313 16.8206C10.8225 17.0804 11.2912 17.0549 11.6433 16.7546C11.8106 16.6119 11.9921 16.2808 12.9689 14.3368L14.1007 12.0844L15.1512 13.83C15.729 14.79 16.2605 15.6366 16.3322 15.7112C16.5863 15.9756 16.7168 15.9951 18.1224 15.9798L19.3964 15.9658L19.5806 15.8376C19.6818 15.7671 19.8176 15.6315 19.8823 15.5362C19.9825 15.3888 20 15.3095 20 15.0038C20 14.6885 19.9843 14.6222 19.8713 14.4611C19.8006 14.3601 19.6645 14.2247 19.569 14.1602C19.4013 14.047 19.365 14.0425 18.4976 14.0274L17.5997 14.0119L16.1846 11.6591C14.8532 9.44557 14.7563 9.29816 14.547 9.16919C14.2927 9.01255 13.9299 8.96739 13.6811 9.06142Z" fill="#FF7354"/>
</svg>
