<svg width="39" height="37" viewBox="0 0 39 37" fill="none" xmlns="http://www.w3.org/2000/svg">
<path d="M25.2092 0H3.81958C2.80667 0 1.83514 0.402422 1.11855 1.11855C0.402378 1.83506 0 2.80667 0 3.81958V32.8484C0 33.8613 0.402422 34.8328 1.11855 35.5494C1.83506 36.2656 2.80667 36.668 3.81958 36.668H25.2092C26.2221 36.668 27.1937 36.2655 27.9103 35.5494C28.6264 34.8329 29.0288 33.8613 29.0288 32.8484V3.81958C29.0288 2.80667 28.6264 1.83514 27.9103 1.11855C27.1938 0.402378 26.2221 0 25.2092 0Z" fill="#39A6F4"/>
<path d="M34.3762 9.1661H31.3206C30.8987 9.1661 30.5566 9.50816 30.5566 9.93002C30.5566 10.3519 30.8987 10.6939 31.3206 10.6939H34.3762C34.9839 10.6939 35.5671 10.9354 35.9968 11.3651C36.4264 11.7948 36.6679 12.378 36.6679 12.9856V29.7918C36.6679 30.3995 36.4265 30.9827 35.9968 31.4123C35.5671 31.842 34.9839 32.0835 34.3762 32.0835H31.3206C30.8987 32.0835 30.5566 32.4256 30.5566 32.8474C30.5566 33.2693 30.8987 33.6113 31.3206 33.6113H34.3762C35.3891 33.6113 36.3607 33.2089 37.0773 32.4928C37.7934 31.7763 38.1958 30.8047 38.1958 29.7917V12.9856C38.1958 11.9727 37.7934 11.0012 37.0773 10.2846C36.3607 9.5684 35.3891 9.16602 34.3762 9.16602V9.1661Z" fill="#39A6F4"/>
<path d="M8.43825 10.5381C9.10214 10.7846 9.85638 11.0757 10.4303 11.5394C11.047 12.0376 11.4585 12.7372 11.3538 13.7767C11.3117 14.3176 11.1182 14.8359 10.7953 15.2722L10.6723 15.1811L10.7953 15.2722C10.4725 15.7084 10.0335 16.045 9.52846 16.2433C9.27658 16.3488 9.01472 16.4286 8.74708 16.4818V18.0167C8.74708 18.3595 8.46914 18.6374 8.12634 18.6374C7.78353 18.6374 7.50559 18.3595 7.50559 18.0167V16.5751C6.61193 16.5358 5.72893 16.2679 5.12624 15.8031C4.98289 15.7086 4.88521 15.5591 4.85599 15.3901C4.82633 15.2185 4.87035 15.0423 4.97693 14.9049C5.08349 14.767 5.24318 14.6805 5.41652 14.6661L5.41654 14.6661C5.58824 14.6519 5.75779 14.7097 5.88502 14.8252C6.1897 15.0662 6.70441 15.2531 7.28904 15.319C7.87365 15.3849 8.50641 15.3272 9.03654 15.1003L9.04383 15.0972L9.0439 15.0974C9.34128 14.988 9.60039 14.795 9.79019 14.5414C9.98002 14.2877 10.0923 13.9847 10.1133 13.6687L10.1224 13.5317C10.1286 13.3148 10.0937 13.1341 10.0256 12.9783C9.94401 12.7918 9.81034 12.6305 9.62232 12.4818C9.23924 12.1787 8.65426 11.9443 7.89092 11.6616L7.89071 11.6616L7.87428 11.6554C7.19868 11.4041 6.45069 11.1258 5.8799 10.6867C5.29435 10.2363 4.88951 9.61233 4.91939 8.68381C4.91939 8.68375 4.91939 8.6837 4.9194 8.68364L5.07237 8.68858C5.08615 8.23072 5.22395 7.78494 5.47095 7.3991C5.71794 7.01326 6.06516 6.70175 6.47543 6.49756L8.43825 10.5381ZM8.43825 10.5381L8.43826 10.538L8.3293 10.4976C7.6103 10.231 7.05736 10.0039 6.68672 9.72827C6.50399 9.59238 6.37163 9.44885 6.28608 9.28884C6.20115 9.12999 6.158 8.94678 6.16536 8.72408L6.1654 8.72185C6.1703 8.45571 6.24934 8.19607 6.39333 7.9721C6.53748 7.74817 6.74084 7.56896 6.98103 7.45404L6.98109 7.45417L6.987 7.45102C7.83736 6.99747 9.06943 7.08555 10.0494 7.69601L10.0607 7.70306L10.073 7.70804C10.3499 7.81972 10.6669 7.71856 10.8279 7.46723L10.8279 7.46722C10.989 7.21586 10.9482 6.88557 10.7312 6.68081L10.7203 6.6705L10.7076 6.6625C10.1127 6.2889 9.44324 6.05167 8.74708 5.96702V4.46769C8.74708 4.12489 8.46914 3.84694 8.12634 3.84694C7.78354 3.84694 7.5056 4.12489 7.5056 4.46769V5.99347C7.12208 6.05691 6.75095 6.18096 6.40587 6.36121L8.43825 10.5381Z" fill="white" stroke="white" stroke-width="0.306111"/>
</svg>
