<svg width="44" height="49" viewBox="0 0 44 49" fill="none" xmlns="http://www.w3.org/2000/svg">
<path d="M22.2133 13.3389V0.876556C23.9257 1.54223 25.4811 2.575 26.7763 3.90639L33.2256 10.5492C34.5204 11.8809 35.5244 13.4816 36.1707 15.2444H24.0644C23.5735 15.2444 23.1027 15.0437 22.7555 14.6863C22.4084 14.329 22.2133 13.8443 22.2133 13.3389ZM37.0222 19.9797V36.2056C37.0193 38.7316 36.0432 41.1532 34.3081 42.9394C32.573 44.7255 30.2205 45.7303 27.7667 45.7333H9.25556C6.80173 45.7303 4.44925 44.7255 2.71414 42.9394C0.979019 41.1532 0.0029393 38.7316 0 36.2056V9.52778C0.0029393 7.00178 0.979019 4.58011 2.71414 2.79396C4.44925 1.00781 6.80173 0.00302575 9.25556 0L17.6133 0C17.9151 0 18.2131 0.0247722 18.5111 0.0457333V13.3389C18.5111 14.855 19.0962 16.3091 20.1376 17.3812C21.1791 18.4533 22.5916 19.0556 24.0644 19.0556H36.9778C36.9982 19.3624 37.0222 19.6691 37.0222 19.9797ZM16.7689 36.2056C16.7689 35.7002 16.5739 35.2155 16.2267 34.8581C15.8796 34.5008 15.4087 34.3 14.9178 34.3H5.66222C5.17128 34.3 4.70044 34.5008 4.35329 34.8581C4.00614 35.2155 3.81111 35.7002 3.81111 36.2056C3.81111 36.7109 4.00614 37.1956 4.35329 37.553C4.70044 37.9104 5.17128 38.1111 5.66222 38.1111H14.9178C15.4087 38.1111 15.8796 37.9104 16.2267 37.553C16.5739 37.1956 16.7689 36.7109 16.7689 36.2056ZM22.3222 28.5833C22.3222 28.0779 22.1272 27.5933 21.78 27.2359C21.4329 26.8785 20.9621 26.6778 20.4711 26.6778H5.66222C5.17128 26.6778 4.70044 26.8785 4.35329 27.2359C4.00614 27.5933 3.81111 28.0779 3.81111 28.5833C3.81111 29.0887 4.00614 29.5734 4.35329 29.9308C4.70044 30.2881 5.17128 30.4889 5.66222 30.4889H20.4711C20.9621 30.4889 21.4329 30.2881 21.78 29.9308C22.1272 29.5734 22.3222 29.0887 22.3222 28.5833Z" fill="#FFB71B"/>
<circle cx="32.8889" cy="37.8889" r="9.88889" fill="#FFB71B" stroke="white" stroke-width="2"/>
<path fill-rule="evenodd" clip-rule="evenodd" d="M32.5515 33.0118C31.5852 33.1064 30.6921 33.4624 29.9091 34.0651C29.5277 34.3586 29.0325 34.9101 28.7464 35.3601C28.6228 35.5544 28.3822 36.0468 28.296 36.2818C28.1996 36.5446 28.0969 36.9461 28.0464 37.2577C27.9845 37.639 27.9845 38.3631 28.0464 38.7445C28.1338 39.2836 28.2722 39.7194 28.509 40.2019C28.7677 40.729 29.0368 41.1027 29.4676 41.5333C29.8984 41.9638 30.2723 42.2327 30.7997 42.4913C31.2825 42.728 31.7185 42.8662 32.258 42.9536C32.6395 43.0155 33.364 43.0155 33.7456 42.9536C34.285 42.8662 34.7211 42.728 35.2039 42.4913C35.7313 42.2327 36.1052 41.9638 36.536 41.5333C36.9668 41.1027 37.2358 40.729 37.4946 40.2019C37.6664 39.8518 37.7528 39.6223 37.8454 39.2704C37.9687 38.8018 38 38.5449 38 38.0011C38 37.4572 37.9687 37.2003 37.8454 36.7317C37.7528 36.3799 37.6664 36.1504 37.4946 35.8002C37.2358 35.2731 36.9668 34.8995 36.536 34.4689C36.1052 34.0383 35.7313 33.7694 35.2039 33.5109C34.7216 33.2744 34.2769 33.1333 33.7554 33.0514C33.4677 33.0061 32.8252 32.985 32.5515 33.0118ZM33.4521 34.1174C34.1535 34.2003 34.8081 34.4651 35.38 34.8976C35.5811 35.0496 35.9549 35.4232 36.107 35.6242C37.0024 36.8071 37.1648 38.3454 36.535 39.6782C36.4313 39.8977 36.266 40.1679 36.107 40.378C35.9549 40.579 35.5811 40.9525 35.38 41.1045C34.1965 41.9994 32.6573 42.1617 31.3237 41.5323C30.9235 41.3434 30.5777 41.0968 30.241 40.7603C29.7142 40.2339 29.3801 39.6449 29.203 38.9303C28.9192 37.7855 29.1717 36.5818 29.8965 35.6242C30.0487 35.4232 30.4224 35.0496 30.6235 34.8976C31.4453 34.2762 32.4505 33.999 33.4521 34.1174ZM32.9137 35.4997C32.7948 35.5275 32.6961 35.6064 32.6403 35.7183L32.5907 35.8177L32.5908 37.0317C32.5909 37.8443 32.598 38.2715 32.6122 38.3239C32.6302 38.3901 32.7627 38.5318 33.4783 39.2497C33.9429 39.7159 34.3539 40.113 34.3915 40.1323C34.6753 40.2772 35.0177 40.0746 35.0177 39.7617C35.0177 39.6003 35.0098 39.5907 34.2039 38.7833L33.4324 38.0102L33.432 36.915C33.4316 35.8947 33.4291 35.8145 33.3956 35.7416C33.3085 35.5518 33.1125 35.4534 32.9137 35.4997Z" fill="white" stroke="white" stroke-width="0.5"/>
</svg>
