<svg width="50" height="49" viewBox="0 0 50 49" fill="none" xmlns="http://www.w3.org/2000/svg">
<path fill-rule="evenodd" clip-rule="evenodd" d="M23.3742 0.130522C22.1474 0.395251 21.1412 1.08491 20.5697 2.05238C20.2058 2.66882 19.9306 3.75392 19.8185 5.01483C19.6005 7.46819 20.2084 9.40013 21.6496 10.8347C21.9915 11.1749 22.2586 11.4602 22.2431 11.4686C22.2277 11.477 21.9512 11.5884 21.6288 11.716C19.6822 12.4861 17.8931 14.1434 17.0862 15.924C16.5429 17.123 16.3059 18.6314 16.4975 19.67C16.7896 21.2533 17.749 22.2467 19.5948 22.8769C21.9833 23.6923 28.0166 23.6923 30.405 22.8769C32.2509 22.2467 33.2102 21.2533 33.5024 19.67C33.694 18.6314 33.457 17.123 32.9137 15.924C32.1067 14.1434 30.3177 12.4861 28.3711 11.716C28.0486 11.5884 27.7722 11.477 27.7568 11.4686C27.7413 11.4602 28.0084 11.1749 28.3503 10.8347C29.7915 9.40013 30.3994 7.46819 30.1814 5.01483C30.0693 3.75392 29.7941 2.66882 29.4301 2.05238C28.8486 1.06784 27.851 0.393409 26.5804 0.126158C25.7719 -0.0438313 24.1722 -0.0416979 23.3742 0.130522ZM14.1536 11.3322C12.8424 12.0089 11.3655 13.1504 9.9969 14.5448C8.54945 16.0195 7.65956 17.1852 6.99452 18.4775L6.48572 19.4662L6.67978 19.7233C6.79215 19.8722 7.17314 20.105 7.58462 20.2764C8.49444 20.6553 8.64981 20.5965 9.1118 19.6983C10.3123 17.364 13.022 14.6483 15.3491 13.4468C16.3657 12.922 16.4195 12.8022 16.0502 11.8895C15.7439 11.1324 15.5231 10.8444 15.2529 10.8497C15.1588 10.8516 14.6642 11.0687 14.1536 11.3322ZM34.405 11.0165C34.311 11.1102 34.1061 11.5029 33.9496 11.8895C33.5804 12.8022 33.6342 12.922 34.6507 13.4468C36.9779 14.6483 39.6876 17.364 40.8881 19.6983C41.3501 20.5965 41.5054 20.6553 42.4153 20.2764C42.8267 20.105 43.2077 19.8722 43.3201 19.7233L43.5142 19.4662L43.0054 18.4775C42.3403 17.1852 41.4504 16.0195 40.003 14.5448C38.6222 13.1379 37.148 12.0017 35.8302 11.3287C34.7889 10.7969 34.6551 10.7675 34.405 11.0165ZM7.46013 23.1604C6.20977 23.3365 5.33229 23.7605 4.64213 24.5223C3.83823 25.4096 3.45187 26.5874 3.33969 28.4928C3.20797 30.7306 3.85934 32.6025 5.24943 33.98L5.84275 34.5681L5.088 34.8753C4.14652 35.2585 3.3434 35.7768 2.49328 36.55C0.985739 37.9207 0.157997 39.6176 0.0148448 41.6302C-0.141597 43.8304 0.937273 45.2729 3.30725 46.0324C5.37773 46.6959 10.0365 46.8218 12.8104 46.2891C14.7924 45.9086 16.1285 45.0843 16.7257 43.8738C17.3989 42.5095 17.2057 40.4002 16.2396 38.5675C15.3841 36.9447 13.6376 35.4521 11.8277 34.7973L11.2613 34.5923L11.9672 33.8804C12.4949 33.3481 12.7727 32.964 13.0675 32.3589C13.678 31.1057 13.7916 30.4721 13.7335 28.6404C13.6826 27.0344 13.5055 26.124 13.0857 25.3093C12.6069 24.3802 11.5868 23.6201 10.411 23.3162C9.70307 23.1332 8.21204 23.0545 7.46013 23.1604ZM40.3581 23.1628C38.7526 23.3852 37.5051 24.1627 36.9142 25.3093C36.4943 26.124 36.3173 27.0344 36.2664 28.6404C36.2083 30.4721 36.3219 31.1057 36.9324 32.3589C37.2272 32.964 37.505 33.3481 38.0327 33.8804L38.7385 34.5923L38.1722 34.7973C35.3302 35.8257 33.2479 38.3854 32.9193 41.2547C32.6034 44.0135 34.0169 45.6799 37.1895 46.2891C39.2 46.6751 43.1078 46.7247 45.1292 46.3897C48.5965 45.8153 50.1727 44.2703 49.985 41.6302C49.8419 39.6176 49.0141 37.9207 47.5066 36.55C46.6565 35.7768 45.8534 35.2585 44.9119 34.8753L44.1571 34.5681L44.7505 33.98C45.7775 32.9622 46.3852 31.7142 46.6068 30.168C46.8082 28.7626 46.5409 26.5614 46.0417 25.5133C45.5201 24.4185 44.4419 23.5771 43.1749 23.2761C42.5312 23.1232 41.0689 23.0644 40.3581 23.1628ZM19.4012 45.9739C19.1959 46.1255 18.7462 47.2518 18.7462 47.6144C18.7462 47.9554 18.9578 48.0922 19.9676 48.4034C21.5207 48.8823 22.5137 49 24.9999 49C26.806 49 27.5049 48.962 28.2734 48.8223C29.3553 48.6254 30.6946 48.2379 31.0338 48.0236C31.3278 47.8378 31.3113 47.4331 30.9773 46.6307C30.6375 45.8147 30.4397 45.7323 29.5187 46.0227C28.1255 46.4621 27.2169 46.5749 25.0488 46.5775C22.8917 46.5801 21.6963 46.4367 20.5156 46.0336C19.895 45.8217 19.6267 45.8073 19.4012 45.9739Z" fill="#0B4977"/>
</svg>
