<svg width="37" height="37" viewBox="0 0 37 37" fill="none" xmlns="http://www.w3.org/2000/svg">
<path fill-rule="evenodd" clip-rule="evenodd" d="M13.9473 0.115822C12.351 0.45985 10.9973 1.82664 10.6595 3.43543C10.5745 3.84044 10.553 4.65069 10.552 7.50003L10.5508 11.0588H18.5H26.4492L26.448 7.50003C26.447 4.65069 26.4255 3.84044 26.3405 3.43543C25.999 1.80901 24.6432 0.453274 23.0166 0.111776C22.2955 -0.0396082 14.6527 -0.036212 13.9473 0.115822ZM19.0077 3.32798C19.4014 3.52886 19.584 3.90533 19.584 4.51643V4.98901H20.0566C20.6678 4.98901 21.0443 5.17154 21.2452 5.56521C21.3252 5.72201 21.3906 5.95049 21.3906 6.0729C21.3906 6.19531 21.3252 6.42379 21.2452 6.5806C21.0443 6.97427 20.6678 7.1568 20.0566 7.1568H19.584V7.62937C19.584 8.24047 19.4014 8.61694 19.0077 8.81783C18.6375 9.00664 18.3353 9.0018 17.9785 8.80128C17.5851 8.58024 17.416 8.2279 17.416 7.62937V7.1568H16.9381C16.1504 7.1568 15.6094 6.71551 15.6094 6.0729C15.6094 5.4303 16.1504 4.98901 16.9381 4.98901H17.416V4.51643C17.416 3.91762 17.599 3.53103 17.9769 3.33152C18.3256 3.14747 18.6517 3.14639 19.0077 3.32798ZM10.5707 14.9066C10.6086 16.7167 10.6547 17.0145 11.06 18.0654C11.6872 19.6917 13.2592 21.2658 14.8803 21.8909C16.0563 22.3444 16.2367 22.3677 18.5361 22.3643C20.8632 22.3607 21.1293 22.3214 22.3238 21.805C23.882 21.1314 25.3368 19.6294 25.936 18.0757C26.3457 17.0135 26.3913 16.7201 26.4293 14.9066L26.4645 13.2266H18.5H10.5355L10.5707 14.9066ZM7.7674 23.8916C6.01922 24.9882 4.39375 26.0247 4.15527 26.195C2.32254 27.5032 0.889156 29.6261 0.323895 31.8696C0.0660508 32.8928 0 33.611 0 35.3903V37H18.5H37V35.3903C37 34.505 36.9657 33.5051 36.9239 33.1684C36.707 31.4234 36.0332 29.7332 34.9947 28.3289C34.4672 27.6156 33.4079 26.5783 32.7341 26.1154C32.2222 25.7637 26.4564 22.1285 26.1526 21.966C26.0355 21.9033 25.9642 21.9265 25.7646 22.0922L25.5202 22.2952L25.515 25.0878L25.5098 27.8804L26.395 27.9074C27.1643 27.9307 27.3335 27.959 27.6864 28.1233C28.2562 28.3884 28.6491 28.771 28.9236 29.3283L29.1592 29.8063L29.1829 31.1637C29.211 32.7713 29.1431 33.0818 28.6569 33.568C28.2351 33.9897 27.8375 34.1096 26.8617 34.1096C26.1768 34.1096 26.033 34.088 25.7831 33.9476C25.2616 33.6545 25.0887 33.0619 25.3662 32.518C25.5671 32.1244 25.9436 31.9418 26.5547 31.9418H27.0273V31.116C27.0273 30.4616 27.0038 30.2666 26.9138 30.1766C26.815 30.0779 26.4814 30.0631 24.3535 30.0631C22.2256 30.0631 21.892 30.0779 21.7932 30.1766C21.7032 30.2666 21.6797 30.4616 21.6797 31.116V31.9418H22.1523C22.7635 31.9418 23.14 32.1244 23.3409 32.518C23.4209 32.6748 23.4863 32.9033 23.4863 33.0257C23.4863 33.3843 23.2307 33.8006 22.9101 33.9642C22.6761 34.0835 22.484 34.1096 21.84 34.1096C20.8699 34.1096 20.4712 33.9889 20.0502 33.568C19.564 33.0818 19.496 32.7713 19.5241 31.1637L19.5479 29.8063L19.7834 29.3283C20.0578 28.7713 20.4504 28.3888 21.0206 28.1228C21.3813 27.9544 21.5339 27.9303 22.3843 27.9071L23.3418 27.8811V25.8288C23.3418 24.7 23.3336 23.7765 23.3237 23.7765C23.3138 23.7765 22.9967 23.8868 22.6191 24.0215C21.3004 24.4919 20.9526 24.5352 18.5 24.5352C16.074 24.5352 15.6634 24.4858 14.4893 24.0521C14.1713 23.9346 13.8375 23.8207 13.7475 23.7989L13.5838 23.7592L13.6029 25.9495L13.6221 28.1397L13.9834 28.3226C14.4462 28.5569 15.1634 29.2761 15.383 29.7261C15.8842 30.7533 15.8706 31.7348 15.3411 32.7518C14.3485 34.6584 11.76 35.0361 10.2224 33.4986C9.20086 32.4772 8.97373 31.0525 9.62094 29.7261C9.85457 29.2474 10.5677 28.5515 11.0747 28.3075L11.4902 28.1076V25.2336V22.3596L11.2519 22.1287C11.1209 22.0017 10.9984 21.8977 10.9798 21.8977C10.9612 21.8977 9.51565 22.795 7.7674 23.8916ZM11.9788 30.2843C11.6737 30.4454 11.418 30.8717 11.418 31.2192C11.418 31.7534 11.965 32.3031 12.4966 32.3031C13.036 32.3031 13.5859 31.7587 13.5859 31.2246C13.5859 30.8611 13.3321 30.4453 13.0097 30.2808C12.6536 30.0992 12.3275 30.1003 11.9788 30.2843Z" fill="#6674F9"/>
</svg>
