<svg width="37" height="35" viewBox="0 0 37 35" fill="none" xmlns="http://www.w3.org/2000/svg">
<path fill-rule="evenodd" clip-rule="evenodd" d="M12.6545 0.0465247C12.1237 0.1334 11.7272 0.258805 11.2312 0.496602C9.81121 1.17769 8.8328 2.53074 8.43994 4.35669C8.29879 5.01274 8.27592 6.34104 8.39288 7.09151C8.74609 9.35828 10.0686 10.9287 12.0609 11.4472C12.5752 11.581 13.5139 11.6292 14.0194 11.5477C15.1379 11.3672 16.0107 10.9348 16.759 10.1902C17.608 9.34548 18.1233 8.24802 18.3191 6.86715C18.4106 6.22241 18.3889 4.69498 18.2803 4.13298C17.8618 1.96627 16.5384 0.517681 14.607 0.112022C14.0453 -0.00591585 13.1571 -0.0356993 12.6545 0.0465247ZM24.9683 0.200391C24.6663 0.316494 24.4734 0.519046 24.1176 1.09346C23.9508 1.36279 23.5886 1.948 23.3128 2.3939C22.6652 3.44075 22.4817 3.73624 22.253 4.10068C21.979 4.53744 21.5261 5.26807 21.4767 5.35303C21.4192 5.4521 21.1438 5.89702 20.3239 7.21555C19.9444 7.82572 19.1105 9.16981 18.4708 10.2024C17.8311 11.235 17.264 12.1471 17.2105 12.2292C17.1571 12.3113 16.9414 12.657 16.7313 12.9973C16.5211 13.3375 16.274 13.7364 16.1821 13.8836C16.0902 14.0308 15.9958 14.1848 15.9724 14.2259C15.9489 14.267 15.8049 14.4983 15.6524 14.74C15.4998 14.9817 15.3558 15.2124 15.3323 15.2526C15.3089 15.2929 15.195 15.4787 15.0793 15.6656C14.6063 16.4297 13.3133 18.5132 13.0243 18.9769C12.6811 19.5276 12.6232 19.6839 12.6235 20.059C12.6241 20.8751 13.4609 21.4624 14.2636 21.2099C14.5892 21.1075 14.8349 20.8781 15.1226 20.4081C15.2544 20.1926 15.406 19.9492 15.4594 19.867C15.5559 19.7187 16.0383 18.9394 16.1682 18.7218C16.2056 18.6594 16.5404 18.1187 16.9123 17.5202C17.2842 16.9218 17.8865 15.9521 18.2509 15.3654C18.6152 14.7787 19.2057 13.8282 19.563 13.2533C20.5267 11.7026 20.5265 11.7029 20.9393 11.0345C21.1495 10.6942 21.4063 10.2813 21.51 10.1171C21.709 9.80191 22.186 9.03297 22.3301 8.795C22.5208 8.48018 23.6779 6.61463 25.0432 4.4207C25.8391 3.14168 26.5335 2.00881 26.5864 1.9032C26.6624 1.75108 26.6822 1.64027 26.6812 1.36983C26.6796 0.954744 26.5594 0.685969 26.2554 0.418389C25.9071 0.111809 25.4153 0.0285184 24.9683 0.200391ZM13.8389 2.47322C14.5041 2.65094 14.9739 3.1596 15.2238 3.97267C15.515 4.92019 15.5151 6.54218 15.2241 7.57794C15.0378 8.24089 14.641 8.76406 14.1376 9.01039C13.8977 9.12782 13.8494 9.13567 13.3695 9.13567C12.8819 9.13567 12.8443 9.12927 12.5802 9.00088C11.9922 8.71516 11.6259 8.19869 11.4013 7.33873C11.3094 6.98709 11.2874 6.78898 11.2688 6.14868C11.2356 5.00288 11.3565 4.26734 11.6928 3.56795C11.9757 2.97962 12.4578 2.56185 12.9698 2.46123C13.2545 2.40525 13.6025 2.41007 13.8389 2.47322ZM25.2755 9.52153C24.6432 9.62761 23.8852 9.93769 23.3843 10.2951C21.9013 11.3534 21.0732 13.1379 21.0612 15.3014C21.0514 17.081 21.5299 18.4755 22.5313 19.5855C22.5716 19.6301 22.5926 19.6859 22.5781 19.7094C22.5635 19.733 22.5707 19.7404 22.5942 19.7259C22.6175 19.7115 22.7597 19.8047 22.9101 19.9332C24.3354 21.1507 26.5402 21.4003 28.2612 20.539C28.7363 20.3012 29.1082 20.0304 29.4981 19.6385C29.9155 19.2189 30.1778 18.8527 30.4528 18.306C31.3106 16.6003 31.3583 13.954 30.5636 12.1571C30.1289 11.1743 29.298 10.3182 28.3631 9.88998C27.5163 9.50216 26.2743 9.35393 25.2755 9.52153ZM26.5467 11.781C26.9037 11.8739 27.1234 11.9995 27.3736 12.2536C27.9147 12.8032 28.1947 13.8096 28.1964 15.2106C28.1985 17.007 27.7456 18.1717 26.8791 18.5983C26.6145 18.7286 26.5725 18.7363 26.1277 18.7363C25.6813 18.7363 25.6416 18.7289 25.3719 18.5961C24.5009 18.1673 23.9715 16.9304 23.9737 15.3292C23.9754 14.1117 24.2352 13.1051 24.7166 12.4512C25.1656 11.8413 25.8359 11.5958 26.5467 11.781ZM31.1147 22.1223C30.6764 22.2749 30.172 22.5471 29.6266 22.9255C29.3919 23.0883 28.8159 23.4881 28.3465 23.8139C27.1481 24.6456 26.3597 25.1818 25.605 25.6781C25.2471 25.9134 24.9543 26.1191 24.9543 26.1353C24.9543 26.1514 25.5611 26.1869 26.3027 26.2142L27.6511 26.2639L28.0201 26.0119C28.7183 25.5353 29.1684 25.2211 29.7595 24.7976C30.7155 24.1127 32.7019 22.6637 32.7785 22.5953C32.8311 22.5483 32.4271 22.1277 32.2628 22.0584C32.0221 21.9569 31.5076 21.9855 31.1147 22.1223ZM34.1855 22.3593C33.6093 22.546 33.2218 22.789 31.5254 24.0274C31.0912 24.3444 30.4192 24.8277 30.032 25.1014C29.6447 25.3751 29.2031 25.6893 29.0506 25.7995C28.898 25.9098 28.6632 26.0722 28.5287 26.1605C28.3943 26.2488 28.2919 26.3335 28.3014 26.3488C28.3108 26.364 28.4592 26.3819 28.6312 26.3884C29.7865 26.4324 31.1129 26.812 31.7142 27.2706C31.7908 27.3291 31.8674 27.3769 31.8845 27.3769C31.9336 27.3769 33.0632 26.564 34.4171 25.5546C34.7877 25.2783 35.0896 25.0816 35.1171 25.0987C35.1437 25.1151 35.1538 25.1097 35.1396 25.0867C35.1254 25.0637 35.2607 24.9407 35.4404 24.8134C36.2315 24.2529 36.4178 23.9535 36.3008 23.4307C36.2064 23.0087 35.6782 22.4234 35.2858 22.3059C35.0149 22.2247 34.5278 22.2484 34.1855 22.3593ZM7.60917 22.3237C7.53876 22.3334 7.26994 22.3622 7.01179 22.3876C5.95321 22.492 4.47949 22.7746 2.36082 23.2795C0.980424 23.6085 0.397731 23.7344 0.142013 23.759L0.0140042 23.7713L0.00303798 26.7048C-0.00566659 29.0374 0.00308065 29.6384 0.0457074 29.6388C0.228247 29.6403 1.19441 29.7364 1.57144 29.7906C2.75838 29.9612 5.11061 30.3295 5.26235 30.3685C6.28931 30.6327 7.12214 30.996 9.70155 32.3048C12.4128 33.6805 13.2232 34.0437 14.1589 34.3026C14.8195 34.4853 15.0958 34.5165 15.8205 34.4899C17.6891 34.4214 20.2654 33.6588 24.2568 31.9928C24.7075 31.8047 25.9013 31.2531 25.9985 31.1881C26.0776 31.1352 26.075 31.1317 25.9559 31.1312C25.5186 31.1293 22.0382 30.9537 21.3274 30.8977C19.951 30.7894 19.4074 30.7382 19.2849 30.7052C18.9822 30.6237 18.884 30.3941 19.0932 30.2571C19.2343 30.1646 19.1737 30.1649 20.4953 30.2501C22.8972 30.405 27.8701 30.6197 29.0292 30.6185C30.8852 30.6166 31.7823 30.4123 32.1168 29.9153C32.2585 29.7049 32.2599 29.6976 32.2405 29.3165C32.2241 28.992 32.1984 28.8835 32.0795 28.6338C31.7432 27.9282 30.9098 27.4005 29.6693 27.1076C28.6825 26.8746 27.9425 26.8145 24.8263 26.7144C22.2645 26.632 21.5714 26.5885 20.3487 26.4329C18.7701 26.2321 17.7831 25.9198 17.1458 25.4195C14.7729 23.5566 12.9824 22.7875 10.1267 22.4045C9.64608 22.3401 7.89718 22.284 7.60917 22.3237ZM27.3699 22.8428C26.9899 22.9424 26.3445 23.291 25.445 23.8828C24.2065 24.6975 23.6553 25.0533 22.8775 25.5401C22.0337 26.0681 21.9987 26.0223 23.3019 26.0965L24.1884 26.147L24.4113 26.0066C25.1384 25.5487 28.2531 23.4502 28.5806 23.1975L28.6868 23.1156L28.5806 23.0006C28.5223 22.9373 28.4127 22.8592 28.3372 22.8271C28.1597 22.7514 27.6897 22.7591 27.3699 22.8428ZM23.5889 23.865C23.0374 24.0634 22.8025 24.1909 21.4896 25.0047C21.3417 25.0964 20.9558 25.3339 20.6321 25.5326C20.3083 25.7312 20.0505 25.9008 20.0591 25.9095C20.084 25.9343 20.8683 26.0097 21.165 26.0158C21.4189 26.021 21.454 26.009 21.7878 25.8015C21.9823 25.6807 22.1629 25.595 22.189 25.6112C22.2164 25.6281 22.2248 25.6214 22.2087 25.5955C22.1924 25.569 22.4869 25.3586 22.9168 25.0894C23.3217 24.8359 23.843 24.5043 24.0753 24.3525L24.4976 24.0766L24.3626 23.956C24.2416 23.8478 24.1978 23.8356 23.9402 23.8387C23.7822 23.8405 23.6241 23.8524 23.5889 23.865Z" fill="#7832B6"/>
</svg>
