<svg width="49" height="43" viewBox="0 0 49 43" fill="none" xmlns="http://www.w3.org/2000/svg">
<path fill-rule="evenodd" clip-rule="evenodd" d="M18.0992 0.150624C17.5161 0.437633 17.3647 0.777112 17.3279 1.87927L17.2953 2.85891H13.562C9.43575 2.85891 9.39153 2.86474 8.96057 3.468C8.75538 3.7553 8.74601 3.86023 8.71863 6.1801L8.69011 8.59335H28.8451H49L48.9715 6.1801C48.9293 2.61146 49.2908 2.85891 44.1194 2.85891H40.3774V1.98928C40.3774 0.592559 39.9702 0.0394718 38.9419 0.0394718C37.9135 0.0394718 37.5063 0.592559 37.5063 1.98928V2.85891H33.8695H30.2328V1.98928C30.2328 0.592559 29.8255 0.0394718 28.7972 0.0394718C27.7689 0.0394718 27.3616 0.592559 27.3616 1.98928V2.85891H23.7727H20.1838L20.1823 1.97485C20.1809 1.23663 20.1454 1.02933 19.967 0.71843C19.5881 0.058491 18.7834 -0.186179 18.0992 0.150624ZM8.56819 12.6675C8.18776 19.773 5.24973 27.035 0.99855 31.3777C0.540796 31.8453 0.126684 32.3319 0.0782574 32.4591C-0.157462 33.0782 0.159893 33.9053 0.754313 34.2211C1.07588 34.392 1.77184 34.3983 20.1622 34.3983C38.7998 34.3983 39.2448 34.3941 39.5917 34.2145C39.7869 34.1132 40.2537 33.7155 40.6288 33.3304C43.2677 30.6215 45.6293 26.5916 47.0227 22.4193C48.0243 19.4197 48.7175 15.7709 48.8639 12.7269L48.9248 11.4606H28.7787H8.63279L8.56819 12.6675ZM48.7123 26.1398C47.4158 29.3151 44.9645 33.0433 42.6622 35.3417C41.6264 36.3758 41.1496 36.7269 40.3935 37.0128L39.8511 37.2178L24.2752 37.2431L8.6993 37.2683V39.5646C8.6993 41.6773 8.71471 41.8909 8.89195 42.2379C9.01599 42.4807 9.21926 42.6837 9.46245 42.8076C9.83722 42.9985 9.98662 43 28.8451 43C47.7035 43 47.8529 42.9985 48.2277 42.8076C48.4711 42.6836 48.6741 42.4807 48.7986 42.2368C48.9886 41.8651 48.9915 41.7205 48.9675 33.7168L48.943 25.575L48.7123 26.1398Z" fill="#0B4977"/>
</svg>
