<svg width="36" height="36" viewBox="0 0 36 36" fill="none" xmlns="http://www.w3.org/2000/svg">
<path fill-rule="evenodd" clip-rule="evenodd" d="M0.187818 0.351843C0.0631505 0.585435 0 5.28565 0 14.3319C0 27.3037 0.0159691 27.9746 0.331903 28.2611C0.631686 28.5331 1.57168 28.5622 10.0656 28.5622H19.4676L19.3531 27.6071C19.2901 27.0819 19.2378 26.2632 19.2371 25.7879L19.2355 24.9237H11.6242H4.01278L3.73041 24.5193C3.48307 24.1655 3.44787 22.8747 3.44787 14.1496C3.44787 4.42678 3.45676 4.17536 3.8108 3.82043C4.16285 3.46749 4.41563 3.45657 12.2387 3.45657H20.3038L20.5861 3.86099C20.8228 4.19956 20.8687 4.97419 20.8687 8.63143C20.8687 12.746 20.8859 12.9718 21.1676 12.5479C21.6495 11.8222 23.0886 10.3786 23.7268 9.98041L24.3165 9.61237V5.0244C24.3165 1.69863 24.2567 0.376585 24.0988 0.21831C23.9338 0.0529402 21.0273 0 12.1283 0C0.694655 0 0.370555 0.00946011 0.187818 0.351843ZM7.25867 7.45892C6.80138 7.91738 6.75292 9.53851 7.17828 10.1472C7.45792 10.5478 7.50656 10.5517 12.249 10.5517C16.9915 10.5517 17.0401 10.5478 17.3197 10.1472C17.7451 9.53851 17.6966 7.91738 17.2393 7.45892C16.8955 7.11418 16.6345 7.09508 12.249 7.09508C7.8635 7.09508 7.60255 7.11418 7.25867 7.45892ZM28.2484 7.76219C28.1818 7.82878 28.1261 8.4224 28.1246 9.08115C28.123 9.7399 28.0571 10.3808 27.9782 10.5056C27.8991 10.6302 27.3901 10.8624 26.8467 11.0214C25.4767 11.4223 24.479 12.0391 23.6223 13.0149C22.6685 14.1012 22.3201 15.1684 22.3222 16.9969C22.326 20.1638 23.8916 21.8894 28.4442 23.7452C30.5253 24.5935 31.3546 25.279 31.5905 26.346C32.0766 28.5459 30.2875 30.104 27.9878 29.4831C26.9113 29.1926 26.2247 28.422 25.9178 27.1598L25.6618 26.1062L23.7907 26.0542C21.5216 25.9911 21.3292 26.0935 21.5053 27.2711C21.9294 30.1062 23.6939 32.1227 26.3602 32.8185C26.9353 32.9688 27.4866 33.1416 27.5851 33.2026C27.6837 33.2637 27.7644 33.831 27.7644 34.4633C27.7644 35.8538 27.9557 36.063 29.1566 35.9862L30.0328 35.9302L30.1235 34.6043C30.2159 33.2543 30.3951 32.9373 31.0693 32.9312C31.9175 32.9237 33.5153 32.0988 34.3999 31.2118C35.5649 30.0438 36.0066 28.8597 35.9999 26.9213C35.9905 24.1229 34.6721 22.4357 31.2257 20.8113C27.9323 19.2589 27.5191 19.0161 27.0839 18.3757C26.596 17.6576 26.5326 16.2686 26.9509 15.4576C27.494 14.4046 29.2766 14.0221 30.4102 14.7152C31.0003 15.0759 31.5752 16.0705 31.5752 16.7311C31.5752 16.9476 31.6598 17.2832 31.763 17.4768C31.9304 17.7901 32.1581 17.8286 33.8408 17.8286C36.0651 17.8286 36.1339 17.775 35.8921 16.2286C35.5432 13.9982 34.2148 12.2303 32.2528 11.3847C30.4882 10.6242 30.5828 10.7352 30.5227 9.35768C30.4926 8.672 30.3806 8.00506 30.2736 7.8759C30.0734 7.63412 28.4662 7.54388 28.2484 7.76219ZM7.25867 12.7347C6.80138 13.1932 6.75292 14.8143 7.17828 15.4231C7.45792 15.8237 7.50656 15.8275 12.249 15.8275C16.9915 15.8275 17.0401 15.8237 17.3197 15.4231C17.7451 14.8143 17.6966 13.1932 17.2393 12.7347C16.8955 12.39 16.6345 12.3709 12.249 12.3709C7.8635 12.3709 7.60255 12.39 7.25867 12.7347ZM7.25867 18.1925C6.80138 18.651 6.75292 20.2721 7.17828 20.8808C7.45792 21.2814 7.50656 21.2852 12.249 21.2852C16.9915 21.2852 17.0401 21.2814 17.3197 20.8808C17.7451 20.2721 17.6966 18.651 17.2393 18.1925C16.8955 17.8478 16.6345 17.8286 12.249 17.8286C7.8635 17.8286 7.60255 17.8478 7.25867 18.1925Z" fill="#428CF3"/>
</svg>
