<svg width="50" height="49" viewBox="0 0 50 49" fill="none" xmlns="http://www.w3.org/2000/svg">
<path fill-rule="evenodd" clip-rule="evenodd" d="M11.1646 0.776548C11.727 0.498451 12.4944 0.216063 12.9165 0.132161C13.53 0.010065 15.4069 -0.0131097 23.1628 0.00588067C31.6518 0.026559 32.858 -0.00436315 33.8779 0.416318C34.1333 0.521673 34.3771 0.655351 34.7206 0.825258C36.2904 1.6015 37.6002 3.11516 38.2668 4.92343L38.5555 5.70644L38.5881 13.1899L38.6208 20.6735L37.9461 20.6762C37.5338 20.678 37.0003 20.7723 36.5741 20.9189C35.5828 21.2599 26.6746 26.1057 26.0803 26.6272C25.4283 27.1994 24.8174 28.1684 24.527 29.0912C24.305 29.7971 24.2894 30.0445 24.2917 32.8509C24.2938 35.4793 24.3244 36.0287 24.5361 37.2435C25.0182 40.0103 25.7019 42.0882 26.8945 44.4115C26.9172 44.4557 22.3672 44.4919 16.7834 44.4919C7.94125 44.4919 6.52491 44.47 5.80896 44.3221C3.56991 43.8597 1.70134 42.405 0.720925 40.3612C0.605621 40.1209 0.508244 39.9305 0.426119 39.7338C-0.0404364 38.6165 -0.0147601 37.2936 0.0127006 25.4175L0.041669 12.8949L0.37266 11.9703C0.950312 10.3569 1.33033 9.90847 5.93191 5.40924C10.1152 1.31912 10.1753 1.2659 11.1646 0.776548ZM23.6206 21.6401C25.3571 21.1329 25.6059 18.5698 23.9943 17.7896C23.5301 17.5649 23.4388 17.562 16.7183 17.5662C10.4643 17.5701 9.64621 17.5535 9.19113 17.9517C9.10256 18.0293 9.02775 18.1225 8.92929 18.2346C8.04983 19.2363 8.24177 20.6684 9.35437 21.4048L9.78922 21.6927L16.5028 21.7254C21.1618 21.7482 23.3401 21.7221 23.6206 21.6401ZM29.7322 30.0909C29.8269 29.9477 31.7526 28.838 34.3873 27.4083C37.396 25.7755 38.9871 24.9696 39.2027 24.9691C39.4197 24.9686 40.9905 25.7628 44.0261 27.4076C47.6343 29.3627 48.5641 29.9106 48.7111 30.1687C48.9802 30.6409 49.1687 33.0213 49.097 35.042C48.8539 41.8906 45.7896 46.5964 40.3937 48.4078L39.5947 48.676L38.6477 48.3421C33.1662 46.4093 29.9708 41.5599 29.5006 34.4603C29.381 32.6549 29.4981 30.4442 29.7322 30.0909ZM17.6814 31.1928C19.2047 30.4156 19.1919 28.1854 17.6599 27.4437C17.2149 27.2283 17.033 27.2182 13.6027 27.2182C10.0915 27.2182 10.0009 27.2235 9.53419 27.4596C8.51954 27.9728 8.08352 29.2462 8.59046 30.2161C8.72737 30.4782 9.02499 30.8403 9.25159 31.0208L9.6638 31.3488L13.4594 31.3795C17.093 31.409 17.2733 31.401 17.6814 31.1928ZM39.133 42.6178V43.9164H40.0703V42.6175C40.8054 42.576 41.4455 42.4356 41.9905 42.1962C42.6535 41.9028 43.1602 41.497 43.5107 40.9789C43.8612 40.4569 44.0365 39.853 44.0365 39.1672C44.0365 38.6605 43.9413 38.2185 43.7508 37.8413C43.5603 37.4641 43.3012 37.1422 42.9735 36.8755C42.6497 36.6088 42.282 36.3878 41.8705 36.2125C41.4628 36.0373 41.038 35.8982 40.5961 35.7953L40.0703 35.6639V32.4084C40.5015 32.4598 40.8654 32.5905 41.1618 32.8006C41.5581 33.0788 41.7829 33.4674 41.8362 33.9665H43.8765C43.8651 33.3074 43.6803 32.7244 43.3221 32.2177C42.964 31.7072 42.4706 31.309 41.8419 31.0233C41.3225 30.7825 40.7319 30.6419 40.0703 30.6013V29.2859H39.133V30.6097C38.5225 30.6593 37.9644 30.7971 37.4585 31.0233C36.8108 31.309 36.2983 31.711 35.9211 32.2291C35.5478 32.7473 35.3611 33.3512 35.3611 34.0408C35.3611 34.879 35.6392 35.5515 36.1955 36.0582C36.7555 36.5611 37.5175 36.9364 38.4815 37.1841L39.133 37.3519V40.7947C38.8637 40.7644 38.6122 40.7058 38.3786 40.6188C38.0243 40.4855 37.7366 40.2835 37.5156 40.013C37.2947 39.7425 37.1689 39.4034 37.1385 38.9958H35.0525C35.0829 39.773 35.2849 40.4321 35.6583 40.9732C36.0354 41.5142 36.5574 41.9257 37.2242 42.2076C37.7785 42.4407 38.4147 42.5774 39.133 42.6178ZM40.0703 40.7903C40.3328 40.7582 40.5728 40.6992 40.7904 40.6131C41.1409 40.4721 41.4152 40.2778 41.6133 40.0302C41.8115 39.7787 41.9124 39.4853 41.9162 39.1501C41.9124 38.8453 41.8229 38.5938 41.6476 38.3957C41.4724 38.1937 41.2266 38.0261 40.9104 37.8927C40.6636 37.7844 40.3836 37.6856 40.0703 37.5963V40.7903ZM39.133 35.4232V32.415C38.8968 32.447 38.6835 32.5031 38.4929 32.5835C38.1767 32.7168 37.9347 32.8978 37.7671 33.1264C37.5995 33.355 37.5137 33.616 37.5099 33.9094C37.5099 34.1532 37.5652 34.3647 37.6757 34.5437C37.79 34.7228 37.9443 34.8752 38.1386 35.0009C38.3329 35.1229 38.5482 35.2257 38.7844 35.3095C38.9001 35.3506 39.0163 35.3885 39.133 35.4232Z" fill="#4E3095"/>
</svg>
