<svg width="21" height="24" viewBox="0 0 21 24" fill="none" xmlns="http://www.w3.org/2000/svg">
<path fill-rule="evenodd" clip-rule="evenodd" d="M3.76141 0.047078C3.17989 0.136045 2.47106 0.432056 1.93594 0.809441C1.56942 1.06791 1.06943 1.58516 0.80234 1.98214C0.531446 2.38488 0.231782 3.07028 0.113658 3.55754C-0.0873251 4.38641 -0.0948377 4.27349 0.708256 12.4636C1.11146 16.5757 1.47339 20.0983 1.5125 20.2916C1.68467 21.1424 2.08708 21.9155 2.69904 22.5713C3.31145 23.2275 3.91917 23.6043 4.75523 23.8461L5.17554 23.9677L7.50665 23.9838L9.83776 24L9.83784 21.1029C9.83789 18.4382 9.84407 18.1927 9.91518 18.0426C10.1528 17.5408 10.8484 17.5408 11.0861 18.0426C11.1572 18.1927 11.1634 18.4382 11.1634 21.1029L11.1635 24L13.4946 23.9838L15.8257 23.9677L16.246 23.8461C17.0887 23.6024 17.7777 23.1698 18.3571 22.5205C18.9354 21.8724 19.3235 21.108 19.4888 20.2916C19.5279 20.0983 19.8898 16.5757 20.293 12.4636C21.0951 4.28362 21.0866 4.41149 20.8871 3.5596C20.4599 1.73525 18.96 0.305214 17.2017 0.0458123C16.7821 -0.0160616 4.16656 -0.0148898 3.76141 0.047078ZM12.0915 3.12901C13.8254 3.45844 15.3546 4.22428 16.7749 5.47451C17.3955 6.02087 18.0884 6.80466 18.1531 7.0335C18.219 7.26693 18.152 7.51611 17.9572 7.76244C17.0078 8.96242 14.2832 12.2228 14.1936 12.2662C14.0242 12.3481 6.97759 12.3483 6.8082 12.2664C6.71151 12.2197 5.74181 11.0612 3.18047 7.93222C2.6667 7.30457 2.68618 7.09415 3.32453 6.37641C4.89979 4.60518 7.07445 3.37951 9.15279 3.09151C9.34723 3.06456 9.56598 3.03367 9.63889 3.0228C9.71181 3.01192 10.1791 3.00967 10.6774 3.01778C11.3477 3.02865 11.7155 3.05758 12.0915 3.12901ZM9.70518 4.43657C9.07213 4.50458 8.28835 4.69311 7.73057 4.91164C7.25012 5.09984 6.74434 5.34415 6.74434 5.38802C6.74434 5.40823 6.85367 5.56619 6.98726 5.73906C7.2799 6.11781 7.35507 6.33807 7.28109 6.6C7.21755 6.82495 6.97754 7.05764 6.76547 7.09982C6.47659 7.15729 6.26584 7.026 5.89401 6.55674L5.56111 6.13674L5.29945 6.35883C4.80239 6.7807 4.39883 7.18391 4.41151 7.24602C4.41854 7.28029 5.09038 8.12023 5.90453 9.11256L7.38472 10.9168H8.27333H9.16189L9.71031 9.66384C10.1857 8.57772 10.2748 8.40485 10.3797 8.36576C10.4572 8.33683 10.5441 8.33683 10.6216 8.36576C10.7264 8.40485 10.8156 8.57772 11.291 9.66384L11.8394 10.9168H12.7279H13.6165L15.0967 9.11256C15.9109 8.12023 16.5825 7.28137 16.5893 7.24837C16.6018 7.18752 16.1811 6.76627 15.6971 6.35504C15.4823 6.1726 15.4224 6.14162 15.3854 6.19393C15.3602 6.22956 15.2134 6.41987 15.0591 6.61688C14.7421 7.02173 14.5145 7.15528 14.2358 7.09982C14.0237 7.05764 13.7837 6.82495 13.7202 6.6C13.6462 6.33807 13.7214 6.11781 14.014 5.73906C14.1476 5.56619 14.2569 5.40771 14.2569 5.38685C14.2569 5.34401 13.5527 5.00829 13.1649 4.86627C12.644 4.67553 12.0903 4.54813 11.2629 4.42865C11.1653 4.41454 11.1635 4.42298 11.1635 4.90859C11.1635 5.52944 11.0807 5.75088 10.7934 5.89844C10.5587 6.01895 10.4441 6.0197 10.2153 5.90223C9.92888 5.75519 9.86352 5.59272 9.83776 4.96376L9.81566 4.42471L9.70518 4.43657Z" fill="#72D284"/>
</svg>
