<svg width="23" height="24" viewBox="0 0 23 24" fill="none" xmlns="http://www.w3.org/2000/svg">
<path fill-rule="evenodd" clip-rule="evenodd" d="M10.5004 0.0445921C9.05502 0.174463 7.69216 0.575896 6.36515 1.26268C4.10618 2.43185 2.27615 4.35388 1.16552 6.72374C0.751926 7.60624 0.552238 8.16902 0.33451 9.06578C0.0623965 10.1863 -0.000447458 10.7333 2.39141e-06 11.9767C0.000407256 13.1301 0.0545241 13.6737 0.265548 14.6436C0.386468 15.1996 0.46942 15.3858 0.66326 15.5364L0.790298 15.6351H11.4901H22.1899L22.3169 15.5364C22.5115 15.3851 22.5943 15.1983 22.7157 14.6361C23.3133 11.8705 22.9633 9.02329 21.7172 6.51268C19.5621 2.17089 15.1505 -0.373069 10.5004 0.0445921ZM11.7825 3.37026C11.9009 3.43006 12.004 3.53019 12.0666 3.64632C12.1572 3.81428 12.1649 3.89256 12.1648 4.64299C12.1647 5.32475 12.1519 5.48398 12.0861 5.62061C11.8441 6.12269 11.1361 6.12269 10.8941 5.62061C10.8283 5.48398 10.8155 5.32475 10.8154 4.64299C10.8153 3.89373 10.8232 3.81409 10.9131 3.64721C11.0169 3.45454 11.2926 3.27655 11.4871 3.2765C11.5474 3.27646 11.6803 3.31867 11.7825 3.37026ZM7.90399 4.4195C8.10237 4.50763 8.18924 4.62198 8.53517 5.25023C8.92124 5.95136 8.98106 6.10398 8.94602 6.29857C8.87297 6.70465 8.613 6.91135 8.21826 6.8772C7.89454 6.84925 7.79684 6.74213 7.34838 5.92364C7.04392 5.368 6.99161 5.2407 6.99161 5.05535C6.99161 4.55458 7.46516 4.22453 7.90399 4.4195ZM15.6278 4.43737C15.8516 4.55458 15.9886 4.78956 15.9886 5.05615C15.9886 5.24249 15.9365 5.36954 15.63 5.93025C15.1808 6.7523 15.0863 6.85263 14.7403 6.87575C14.4338 6.89625 14.238 6.79395 14.1168 6.54992C13.9631 6.24046 14.0001 6.07748 14.3869 5.36302C14.5822 5.00221 14.7846 4.65678 14.8367 4.59548C15.0369 4.35984 15.3575 4.29577 15.6278 4.43737ZM5.6619 7.68199C6.44693 8.14956 6.54967 8.25143 6.57649 8.58893C6.60064 8.89239 6.51369 9.10129 6.30936 9.23088C6.10095 9.363 5.8964 9.38776 5.70436 9.30409C5.43882 9.18843 4.50718 8.61942 4.37227 8.49049C3.93187 8.06964 4.22854 7.31072 4.83368 7.3102C5.00588 7.31006 5.13409 7.36756 5.6619 7.68199ZM18.461 7.37943C18.8572 7.59307 18.9356 8.17699 18.61 8.48847C18.4735 8.6189 17.5436 9.18749 17.2758 9.30409C17.0838 9.38776 16.8792 9.363 16.6708 9.23088C16.4665 9.10129 16.3796 8.89239 16.4037 8.58893C16.4305 8.25143 16.5333 8.14956 17.3183 7.68199C17.9911 7.28122 18.1841 7.23014 18.461 7.37943ZM13.9096 9.18552C14.0567 9.25513 14.123 9.32426 14.1897 9.47763C14.3924 9.94318 14.3367 10.0364 13.0517 11.382C12.4526 12.0093 11.8873 12.5633 11.7955 12.6132C11.582 12.729 11.397 12.7279 11.174 12.6093C10.9744 12.5031 10.8153 12.2329 10.8153 12.0002C10.8153 11.9207 10.8544 11.7775 10.9022 11.6817C11.0046 11.4767 13.1152 9.27618 13.312 9.16929C13.4934 9.07085 13.6777 9.07582 13.9096 9.18552ZM5.37125 11.3788C5.85281 11.6311 5.85281 12.3693 5.37125 12.6215C5.24021 12.6902 5.08748 12.7036 4.43358 12.7036C3.71382 12.7037 3.63874 12.6957 3.47765 12.6013C3.29348 12.4934 3.1229 12.2043 3.1229 12.0002C3.1229 11.8014 3.29303 11.5086 3.47117 11.401C3.62709 11.3068 3.70145 11.2987 4.42746 11.2978C5.08856 11.297 5.2398 11.3099 5.37125 11.3788ZM19.5025 11.3991C19.6867 11.507 19.8573 11.7961 19.8573 12.0002C19.8573 12.2238 19.6827 12.505 19.4805 12.6071C19.3103 12.693 19.2046 12.7037 18.5273 12.7036C17.8918 12.7036 17.7395 12.69 17.6089 12.6215C17.1274 12.3693 17.1274 11.6311 17.6089 11.3788C17.74 11.3102 17.8927 11.2968 18.5466 11.2968C19.2664 11.2967 19.3415 11.3047 19.5025 11.3991ZM3.79705 17.0285C3.46731 17.2583 3.48049 17.1073 3.49358 20.4977C3.50505 23.4787 3.50689 23.5334 3.59803 23.6607C3.82651 23.9797 3.83663 23.9822 4.97732 23.9978C5.57679 24.006 6.15061 23.9905 6.33496 23.961C7.57106 23.7631 8.40436 22.4673 8.0941 21.2255C7.999 20.8448 7.8407 20.5419 7.58343 20.2484C7.37915 20.0154 7.36597 19.9866 7.42499 19.9024C7.5393 19.7395 7.66638 19.2212 7.66638 18.9182C7.66638 18.1283 7.2271 17.4258 6.51612 17.0786C6.2494 16.9484 6.24913 16.9483 5.10161 16.9338C3.96354 16.9194 3.9526 16.9202 3.79705 17.0285ZM10.9953 16.9776C10.852 17.0372 10.6888 17.1957 10.6115 17.3505C10.5173 17.5393 9.54608 23.2067 9.57757 23.3843C9.62844 23.6714 9.95926 23.9602 10.2374 23.9602C10.43 23.9602 10.7244 23.7709 10.8104 23.5917C10.857 23.4947 11.0053 22.7621 11.1535 21.8965C11.2971 21.0581 11.4267 20.3573 11.4415 20.339C11.4562 20.3207 11.6681 21.0172 11.9123 21.8868C12.1566 22.7563 12.3953 23.5352 12.4428 23.6178C12.7147 24.0897 13.4724 24.1093 13.7599 23.6518C13.814 23.5658 14.7019 20.4674 14.7328 20.2571C14.7349 20.243 14.8727 20.9596 15.039 21.8496C15.2054 22.7395 15.3752 23.5341 15.4164 23.6153C15.4953 23.7709 15.8057 23.9602 15.9818 23.9602C16.2597 23.9602 16.5904 23.6717 16.6419 23.3843C16.6741 23.2044 15.6592 17.5969 15.5509 17.3561C15.37 16.9539 14.8315 16.7984 14.4426 17.0359C14.3058 17.1196 14.2143 17.2211 14.1522 17.3581C14.1023 17.4681 13.8538 18.3284 13.6 19.27C13.3462 20.2115 13.126 20.9977 13.1107 21.0169C13.0954 21.0362 12.8941 20.3819 12.6633 19.563C12.0731 17.4684 12.041 17.3679 11.9107 17.2065C11.8467 17.1271 11.737 17.0313 11.6669 16.9935C11.5229 16.9159 11.1641 16.9074 10.9953 16.9776ZM18.4582 17.0314C18.1358 17.2559 18.148 17.1203 18.148 20.4596C18.1479 23.4523 18.148 23.4551 18.2461 23.6372C18.3729 23.8723 18.667 24.0305 18.9032 23.9905C19.0891 23.959 19.2458 23.8512 19.3822 23.6607C19.4733 23.5334 19.4752 23.4787 19.4866 20.4977C19.4975 17.6808 19.4927 17.4526 19.4191 17.301C19.3054 17.0665 19.0808 16.9249 18.8226 16.9249C18.6775 16.9249 18.563 16.9583 18.4582 17.0314ZM6.0485 18.4107C6.37081 18.6092 6.40527 19.0774 6.11782 19.352L5.95826 19.5045H5.39532H4.83233V18.9182V18.3319H5.37647C5.80526 18.3319 5.94769 18.3486 6.0485 18.4107ZM6.38431 21.0329C6.93295 21.3313 6.94559 22.1501 6.40667 22.4802C6.26973 22.5641 6.15763 22.5786 5.54084 22.5924L4.83233 22.6083V21.7912C4.83233 21.3418 4.84753 20.9582 4.86607 20.9388C4.8846 20.9194 5.19333 20.9106 5.55209 20.9192C6.1072 20.9326 6.23118 20.9496 6.38431 21.0329Z" fill="#B436E1"/>
</svg>
