<svg width="33" height="33" viewBox="0 0 33 33" fill="none" xmlns="http://www.w3.org/2000/svg">
<path fill-rule="evenodd" clip-rule="evenodd" d="M15.1346 0.0496008C12.7834 0.373803 10.7037 1.41041 9.0138 3.10051C7.46976 4.64461 6.48876 6.48579 6.05658 8.65051C5.87722 9.54894 5.87722 11.626 6.05658 12.5244C6.48868 14.6888 7.46939 16.5295 9.0138 18.0749C10.5403 19.6024 12.2387 20.5213 14.4199 20.9998C15.3794 21.2103 17.4602 21.2269 18.44 21.032C20.6062 20.6009 22.4376 19.6238 23.9788 18.0768C25.5083 16.5417 26.4231 14.8488 26.903 12.6655C27.129 11.6378 27.129 9.53714 26.903 8.50946C26.4231 6.32616 25.5083 4.63326 23.9788 3.09815C22.4466 1.56016 20.5944 0.568309 18.4807 0.153711C17.7404 0.00853164 15.8572 -0.0500857 15.1346 0.0496008ZM17.1423 4.29601C17.2482 4.37512 17.4033 4.53151 17.4868 4.64344C17.6324 4.83846 17.6397 4.95459 17.6613 7.4407L17.6839 10.0345L18.939 11.0299C20.3422 12.1428 20.5227 12.3242 20.5916 12.691C20.7512 13.5425 20.0411 14.2551 19.1918 14.0957C18.8228 14.0264 15.5649 11.4056 15.4218 11.0629C15.338 10.8623 15.3176 10.2495 15.3176 7.94024C15.3176 6.0841 15.3455 4.99367 15.3962 4.85955C15.5 4.58556 15.7447 4.32543 16.0176 4.19898C16.3113 4.06294 16.8981 4.11359 17.1423 4.29601ZM3.675 23.679C1.95322 24.049 0.463929 25.553 0.101093 27.2879C-0.338526 29.3904 0.686613 31.5389 2.57441 32.4712C3.71428 33.0342 2.80255 32.9996 16.4966 32.9996C30.1809 32.9996 29.2915 33.0331 30.421 32.4759C31.9584 31.7176 33 30.0241 33 28.2833C33 26.5425 31.9584 24.849 30.421 24.0907C29.2907 23.5331 30.1874 23.5665 16.4598 23.5715C6.21928 23.5754 4.07358 23.5934 3.675 23.679ZM12.4155 27.2925C12.8021 27.5814 12.9228 27.817 12.9228 28.2833C12.9228 28.7496 12.8021 28.9851 12.4155 29.2741C12.2171 29.4224 12.1172 29.4267 8.40411 29.4485C5.86042 29.4635 4.50664 29.4449 4.32662 29.3923C3.57766 29.1739 3.28866 28.1502 3.80322 27.5384C4.17372 27.0977 4.08618 27.1058 8.33035 27.1239C12.1227 27.1401 12.2168 27.1439 12.4155 27.2925Z" fill="#BE5AE1"/>
</svg>
