<svg width="36" height="36" viewBox="0 0 36 36" fill="none" xmlns="http://www.w3.org/2000/svg">
<path fill-rule="evenodd" clip-rule="evenodd" d="M23.7007 0.0328198C21.7047 0.35084 20.1545 1.75185 19.6458 3.6973C19.4779 4.33953 19.4804 5.41939 19.6515 6.07707C20.0063 7.44141 20.9777 8.64335 22.2229 9.25871C22.4615 9.37658 22.6759 9.47305 22.6995 9.47305C22.7232 9.47305 22.8772 9.60324 22.7801 9.49673C22.8402 9.58052 22.8703 9.55684 22.8703 9.52678C23.291 9.76721 23.4505 9.74353 24.433 9.74353C25.2923 9.74353 25.7467 9.63948 26.5368 9.26184C27.7445 8.68446 28.589 7.69957 29.0726 6.30445C29.2201 5.87914 29.235 5.75478 29.2375 4.93506C29.2406 3.88621 29.1696 3.55346 28.7626 2.71114C28.1576 1.45907 26.9876 0.504471 25.6278 0.153693C25.0948 0.0162307 24.1692 -0.0418918 23.7007 0.0328198ZM11.6361 5.62922C10.9719 6.77237 8.7968 9.17619 8.7968 9.17619C7.33623 10.6006 5.92157 11.5445 4.26235 12.2019C3.05001 12.6822 1.46496 13.0193 0.418698 13.0193C0.188432 13.0193 0 13.0311 0 13.0454C0 13.0598 0.258997 14.2296 0.575515 15.645C1.11118 18.0405 1.25074 18.6699 1.83257 21.3139C2.32682 23.5602 2.83123 25.0128 3.74009 26.8078C5.41915 30.1238 7.84256 32.8435 10.9584 34.9086C11.4483 35.2332 11.8789 35.4989 11.9153 35.4989C12.022 35.4989 13.1955 34.7321 13.9446 34.1728C15.6474 32.9017 17.2952 31.2037 18.561 29.416C19.95 27.4543 21.1415 24.8788 21.6975 22.6362C21.7672 22.3552 21.8484 22.0307 21.8781 21.915C21.9078 21.7993 22.0671 21.096 22.2321 20.3522C22.3971 19.6084 22.6163 18.6212 22.7192 18.1584C23.4584 14.8331 23.8061 13.2711 23.8331 13.1545C23.8632 13.0242 23.8491 13.0193 23.4445 13.0193C23.2136 13.0193 22.7195 12.9771 22.3464 12.9255C20.2379 12.634 18.3714 11.8411 16.5139 10.4478C15.8027 9.91441 15.4258 9.57493 14.598 8.72221L14.0734 8.1818L13.9038 8.33152L13.7342 8.48131L13.8694 8.32719C13.9438 8.24238 14.0047 8.15247 14.0047 8.1274C14.0047 8.10228 13.8627 7.91318 13.6891 7.7072C13.2112 7.14004 12.6932 6.41769 12.2844 5.74853L11.9167 5.14633L11.6361 5.62922ZM13.823 12.8685C15.5483 14.2445 17.1495 15.1552 18.9168 15.7657C19.2565 15.8831 19.5344 16.0009 19.5344 16.0276C19.5344 16.0542 19.4553 16.4229 19.3585 16.8467C19.2617 17.2706 19.0167 18.3747 18.814 19.3004C18.1984 22.1113 17.9261 23.043 17.3561 24.2892C17.1898 24.6528 17.0506 25.0086 17.0469 25.0798C17.0431 25.151 17.0207 25.1974 16.9971 25.1827C16.9735 25.1682 16.8824 25.2992 16.7949 25.474C16.2722 26.5164 15.2929 27.9368 14.4161 28.9239C13.7523 29.6713 12.6364 30.7193 12.102 31.0974L11.9122 31.2316L11.561 30.9491C9.05916 28.9367 7.08174 26.1354 6.01426 23.0912C5.74456 22.3223 5.57031 21.6772 5.29046 20.4123C5.15516 19.8007 4.97905 19.0164 4.89917 18.6693C4.5321 17.075 4.32083 16.075 4.33941 16.0193C4.35053 15.9859 4.58908 15.8813 4.86954 15.7869C6.39533 15.2731 8.39932 14.1875 9.57216 13.2395C10.3915 12.5772 10.9731 12.0649 11.4174 11.6142L11.9256 11.0987L12.5895 11.7564C12.9546 12.1181 13.5097 12.6186 13.823 12.8685ZM25.7667 11.6218C25.7418 11.6654 25.6063 12.2522 25.2706 13.7706C25.1829 14.1673 24.9783 15.0869 24.816 15.8142C24.6537 16.5415 24.4831 17.3124 24.4368 17.5272C23.3007 22.8054 22.9316 24.2003 22.2086 25.9488L21.8882 26.7234H28.6754H35.4625V22.2822C35.4625 17.4389 35.4612 17.4175 35.1101 16.3803C34.6462 15.0101 33.7552 13.802 32.5567 12.9181C31.6825 12.2735 30.3108 11.7615 29.1213 11.636C28.4797 11.5682 25.8039 11.557 25.7667 11.6218ZM11.6605 15.6608C11.1024 15.7702 10.6445 16.1793 10.4871 16.7091C10.4256 16.9161 10.3983 17.2919 10.3983 17.9308V18.8535L9.39155 18.844C8.58811 18.8365 8.34072 18.8538 8.16665 18.93C7.85344 19.067 7.59498 19.3022 7.40919 19.6191C7.27534 19.8476 7.24727 19.9683 7.24655 20.319C7.24552 20.8022 7.36916 21.0982 7.70329 21.4124C8.10648 21.7914 8.22525 21.8225 9.35566 21.8445L10.3866 21.8646L10.4093 22.8966C10.4293 23.8054 10.4472 23.9573 10.5593 24.1697C10.8558 24.7311 11.3077 25.0069 11.931 25.0069C12.4298 25.0069 12.726 24.8757 13.0587 24.5075C13.3833 24.1481 13.4637 23.7984 13.4637 22.7455C13.4637 21.9527 13.4748 21.8549 13.5643 21.8549C13.6476 21.8549 13.6741 21.8485 13.7342 21.8485H13.644H13.9746C14.185 21.8549 13.7487 21.8549 14.579 21.8543C15.3352 21.8537 15.4466 21.8398 15.7177 21.7114C16.3016 21.4348 16.6104 20.9509 16.6041 20.3222C16.5978 19.6892 16.2879 19.2079 15.7331 18.9692C15.4496 18.8472 15.3174 18.8329 14.4461 18.8302L13.4752 18.8272L13.4516 17.8016C13.4259 16.6784 13.3865 16.5152 13.0478 16.1295C12.7243 15.761 12.146 15.5656 11.6605 15.6608Z" fill="#BE5AE1"/>
</svg>
