<svg width="39" height="44" viewBox="0 0 39 44" fill="none" xmlns="http://www.w3.org/2000/svg">
<path fill-rule="evenodd" clip-rule="evenodd" d="M11.4912 0.104887C9.98313 0.598419 8.57223 1.78194 7.87986 3.13431C7.52004 3.83693 7.38559 4.42027 7.32321 5.55093C7.25151 6.85263 7.29834 7.16653 7.69309 8.02884C7.94168 8.57176 8.41125 9.31937 8.73668 9.6898L9.32826 10.3637L9.03832 11.6383C8.42022 14.3557 8.8296 18.0568 10.0062 20.3873C11.7807 23.9027 14.9539 26.4543 18.7096 27.3856C20.0819 27.7258 20.6899 27.7774 22.4595 27.7041C26.1085 27.5526 28.7432 26.4128 31.2725 23.8916C34.3164 20.8572 35.7112 16.6371 35.0106 12.5809C34.2125 7.95951 31.4812 4.37235 27.3403 2.50688C24.9446 1.42762 21.5873 1.10457 18.9648 1.70109L17.6762 1.99414L17.0995 1.44646C16.0797 0.477872 15.0337 0.0703144 13.413 0.00958331C12.6081 -0.0204164 11.7432 0.0223882 11.4912 0.104887ZM12.1195 3.89052C12.2776 4.04875 12.4069 4.24869 12.4069 4.33485C12.4069 4.53808 11.8784 5.06655 11.6752 5.06655C11.472 5.06655 10.9435 4.53808 10.9435 4.33485C10.9435 4.13162 11.472 3.60315 11.6752 3.60315C11.7613 3.60315 11.9613 3.73248 12.1195 3.89052ZM15.0463 3.89052C15.2044 4.04875 15.3337 4.2646 15.3337 4.37034C15.3337 4.59515 12.4598 7.58213 12.0085 7.82616C11.5342 8.08262 11.1264 7.82817 11.1264 7.27519C11.1264 6.89232 11.4967 6.41672 12.7491 5.19112C13.6416 4.31765 14.4589 3.60315 14.5654 3.60315C14.6717 3.60315 14.8881 3.73248 15.0463 3.89052ZM24.6164 4.7799C26.2049 5.19899 28.0792 6.33422 29.2576 7.59092C33.0749 11.6621 32.9942 17.8095 29.0719 21.7316C27.1027 23.7009 24.6863 24.7056 21.919 24.7056C19.1457 24.7056 16.7243 23.6977 14.7803 21.7338C12.7195 19.6523 11.7559 17.2753 11.8054 14.3957C11.8442 12.1397 11.9924 11.757 12.8552 11.6851C13.5132 11.6303 13.5456 11.6515 13.4135 12.051C13.3365 12.2842 13.2354 13.2299 13.1889 14.1526C13.0513 16.8786 13.8235 18.922 15.6995 20.7981C17.4509 22.5494 19.4475 23.3591 22.015 23.3591C25.9106 23.3591 29.2097 20.881 30.3612 17.09C30.8591 15.4507 30.772 12.9931 30.1601 11.4097C29.225 8.99029 26.9707 6.90806 24.4611 6.14581C23.4049 5.82496 22.8775 5.77246 21.4959 5.85057C20.5716 5.90288 19.6301 6.00441 19.4038 6.07611C19.0282 6.19538 18.9922 6.14818 18.9922 5.53941C18.9922 5.13624 19.0935 4.83332 19.2483 4.77387C20.4314 4.31985 22.8828 4.32259 24.6164 4.7799ZM15.0463 6.81732C15.2044 6.97555 15.3337 7.17549 15.3337 7.26165C15.3337 7.46488 14.8052 7.99335 14.602 7.99335C14.3988 7.99335 13.8703 7.46488 13.8703 7.26165C13.8703 7.05842 14.3988 6.52995 14.602 6.52995C14.6881 6.52995 14.8881 6.65928 15.0463 6.81732ZM22.1784 8.10439C22.362 8.17481 22.4678 8.43786 22.4678 8.8242C22.4678 9.32578 22.596 9.5237 23.1956 9.94791C24.0146 10.5274 24.4799 11.3391 24.4799 12.1884C24.4799 13.2131 23.4515 13.1604 23.1737 12.1212C22.9657 11.3434 22.4859 10.9202 21.8125 10.9202C21.12 10.9202 20.4556 11.6081 20.4556 12.325C20.4556 12.9887 21.2297 13.664 21.9902 13.664C23.2013 13.664 24.2233 14.2926 24.7927 15.3877C25.1538 16.0821 25.1485 17.4749 24.782 18.1836C24.4584 18.8093 23.5745 19.6149 23.0175 19.7917C22.7367 19.8809 22.6507 20.0682 22.6507 20.5909C22.6507 21.2214 22.4001 21.7127 22.0783 21.7127C21.747 21.7127 21.3702 21.0835 21.3702 20.5305C21.3702 20.0465 21.2833 19.9014 20.9425 19.8158C19.853 19.5423 18.7383 17.9919 18.8444 16.8974C18.8938 16.3883 18.9677 16.3164 19.442 16.3164C19.8964 16.3164 20.0014 16.4046 20.0965 16.8652C20.4428 18.543 22.0994 19.1825 23.2136 18.0683C24.4335 16.8484 23.5132 14.9458 21.7024 14.9438C19.1554 14.941 18.2453 11.2262 20.4794 9.95083C21.0547 9.6223 21.1847 9.44541 21.1858 8.99029C21.1878 8.18908 21.552 7.86402 22.1784 8.10439ZM6.30944 27.1396C6.24231 27.2065 6.18743 27.5338 6.18743 27.8667V28.4722L3.12344 28.5223L0.0594407 28.5724L0.0107827 33.7637C-0.0236073 37.4408 0.0228558 39.0279 0.170476 39.2057C0.330902 39.3988 1.04541 39.4565 3.28295 39.4565H6.18743V39.9687C6.18743 40.859 6.39798 40.9199 9.48008 40.9199C12.5622 40.9199 12.7727 40.859 12.7727 39.9687C12.7727 39.4649 12.7908 39.4565 13.8632 39.4565C15.0556 39.4565 14.9962 39.4197 18.2592 42.1711C20.3341 43.9208 19.8241 43.8381 28.5592 43.8426C36.8943 43.847 36.8665 43.8503 37.6189 42.7938C37.8185 42.5133 38.002 42.0388 38.0266 41.739C38.1298 40.4871 38.0181 40.1468 37.2549 39.3892C36.5567 38.6961 36.497 38.5625 36.536 37.78C36.6121 36.2522 35.5817 35.0683 34.175 35.067L33.5347 35.0665L33.5966 34.174C33.6723 33.0835 33.29 32.2639 32.474 31.7663C31.938 31.4394 31.5313 31.409 27.6755 31.4085L23.4623 31.4078L22.3706 30.2901C21.7701 29.6755 21.0139 29.0581 20.6901 28.9182C20.2525 28.7292 19.1612 28.6639 16.4371 28.6639H12.7727V28.0602C12.7727 27.7282 12.674 27.3578 12.5532 27.2371C12.3165 27.0004 6.53865 26.9102 6.30944 27.1396ZM22.414 32.5591C23.6509 33.796 24.6629 34.9485 24.6629 35.12C24.6629 35.5148 24.0248 36.1638 23.6367 36.1638C23.4746 36.1638 22.4548 35.2995 21.3702 34.2431C20.2857 33.1867 19.3129 32.3224 19.2084 32.3224C18.9117 32.3224 18.4434 32.8642 18.4434 33.2074C18.4434 33.3781 19.3502 34.4216 20.4585 35.5267L22.4738 37.5358L23.7801 37.555L25.0863 37.5742L25.9044 38.5237C27.2847 40.1258 27.5119 40.1882 31.9726 40.1882C35.5775 40.1882 35.8445 40.2114 36.1872 40.554C36.6723 41.0391 36.6485 41.3898 36.0926 41.9457L35.6323 42.406L28.3495 42.3489L21.0669 42.2918L20.4119 41.8345C20.0517 41.583 18.8367 40.6158 17.7121 39.6851L15.6673 37.9931H14.22H12.7727V34.1516V30.3102H16.4689H20.1651L22.414 32.5591ZM31.7137 33.3202C32.2757 33.8822 32.2751 34.056 31.7086 34.6225C31.2635 35.0676 31.2045 35.0756 28.7511 35.0257L26.2477 34.9748L26.0723 34.426C25.9757 34.1242 25.7427 33.7073 25.5543 33.4997C25.3659 33.2919 25.2116 33.0656 25.2116 32.9967C25.2116 32.9275 26.5735 32.8712 28.2381 32.8712C31.2077 32.8712 31.2732 32.8796 31.7137 33.3202ZM34.6405 36.9787C34.8875 37.2257 35.0896 37.5175 35.0896 37.6272C35.0896 37.737 34.8875 38.0287 34.6405 38.2757C34.2072 38.7092 34.1042 38.7248 31.668 38.7237C28.4714 38.7224 28.034 38.6009 27.0579 37.4434L26.2874 36.5297H30.2395H34.1916L34.6405 36.9787Z" fill="#FF5F5F"/>
</svg>
