<svg width="41" height="40" viewBox="0 0 41 40" fill="none" xmlns="http://www.w3.org/2000/svg">
<path fill-rule="evenodd" clip-rule="evenodd" d="M14.1476 0.0583376C12.1366 0.3678 10.0708 1.49329 8.8577 2.94037C7.52773 4.52673 6.87645 6.25064 6.85833 8.23214C6.84069 10.1595 7.39776 11.8284 8.56201 13.3363C9.71399 14.8283 11.3059 15.8759 13.2046 16.3916C13.9108 16.5834 14.1064 16.6024 15.3835 16.6028C16.598 16.6032 16.8783 16.579 17.4681 16.4232C19.9558 15.766 21.9394 14.1925 23.0362 12.0067C24.6678 8.75506 24.0107 4.93463 21.383 2.39421C20.3085 1.35534 18.9611 0.611067 17.4846 0.240729C16.6073 0.020623 14.9729 -0.0687339 14.1476 0.0583376ZM7.08523 20.134C3.97493 20.6759 1.44752 22.802 0.424707 25.7369C0.032402 26.8627 -0.0205147 27.5283 0.00562294 31.0156C0.0288742 34.1287 0.0352883 34.2449 0.195 34.4536C0.285921 34.5724 0.459904 34.7422 0.581693 34.8309C0.801858 34.9914 0.852691 34.9923 9.98939 35.0128L19.1756 35.0333L18.8197 34.6607C18.0907 33.8976 17.5377 32.9043 17.2617 31.8624C17.0812 31.1805 17.0546 29.0657 17.2176 28.3414C17.8428 25.5633 20.2318 23.5525 23.1102 23.3818L23.9223 23.3336L23.971 22.5903C24.0194 21.8505 24.1727 21.146 24.4013 20.612L24.5213 20.3318L24.1015 20.247C23.8707 20.2004 23.4653 20.1278 23.2008 20.0856C22.9092 20.0392 19.7665 20.0117 15.2232 20.0157C9.10216 20.021 7.60895 20.0427 7.08523 20.134ZM29.5691 20.1107C28.7066 20.3481 27.8843 21.0676 27.558 21.8703C27.3883 22.2879 27.3748 22.4546 27.3468 24.4813L27.3168 26.6463L25.0984 26.6756C23.0166 26.703 22.8517 26.7158 22.4193 26.8831C21.7773 27.1315 21.1445 27.717 20.8174 28.3654C20.5573 28.8809 20.5549 28.8963 20.5549 30.0236C20.5549 31.151 20.5573 31.1663 20.8174 31.6819C21.1445 32.3303 21.7773 32.9158 22.4193 33.1642C22.8517 33.3315 23.0166 33.3443 25.0984 33.3717L27.3168 33.401L27.3468 35.566C27.3748 37.5976 27.388 37.7586 27.5594 38.1805C27.814 38.8071 28.4139 39.4247 29.0783 39.7438C29.6066 39.9977 29.6223 40 30.7775 40C31.9327 40 31.9484 39.9977 32.4767 39.7438C33.141 39.4247 33.741 38.8071 33.9955 38.1805C34.1669 37.7586 34.1801 37.5976 34.2081 35.566L34.2381 33.401L36.4565 33.3717C38.5383 33.3443 38.7033 33.3315 39.1357 33.1642C39.7776 32.9158 40.4105 32.3303 40.7375 31.6819C40.9976 31.1663 41 31.151 41 30.0236C41 28.8963 40.9976 28.8809 40.7375 28.3654C40.4105 27.717 39.7776 27.1315 39.1357 26.8831C38.7033 26.7158 38.5383 26.703 36.4565 26.6756L34.2381 26.6463L34.2081 24.4813C34.1801 22.4497 34.1669 22.2887 33.9955 21.8667C33.7418 21.2423 33.1408 20.6225 32.4818 20.306C31.9824 20.066 31.899 20.0511 30.9446 20.031C30.2993 20.0175 29.8036 20.0462 29.5691 20.1107Z" fill="#3DA7C8"/>
</svg>
