<svg width="38" height="38" viewBox="0 0 38 38" fill="none" xmlns="http://www.w3.org/2000/svg">
<path fill-rule="evenodd" clip-rule="evenodd" d="M15.0096 0.350774C8.47508 1.66875 3.28084 6.13698 0.822277 12.5553C0.0255371 14.6349 -0.00371661 14.8578 0.000272411 18.8335C0.00372956 22.6146 0.0622367 23.1169 0.706596 24.9061C1.76236 27.8362 2.93513 29.6278 5.4631 32.1717C7.3882 34.1088 8.14638 34.6646 10.2499 35.6807C13.4731 37.2378 16.3659 37.8404 19.6542 37.6393C27.2498 37.175 33.8711 32.1619 36.3727 24.9814C37.413 21.9949 37.6513 17.8291 36.9599 14.7208C34.7805 4.92538 24.7822 -1.62033 15.0096 0.350774ZM20.8602 2.09052C26.4068 2.96544 31.0125 6.17209 33.4873 10.8813C37.0006 17.5671 35.7951 25.4324 30.4304 30.8256C28.0476 33.2211 25.1236 34.7989 21.8686 35.4459C19.3638 35.9437 18.1583 35.9456 15.4088 35.4558C9.10748 34.3332 3.60103 29.0959 2.12695 22.8225C1.59668 20.5661 1.60359 17.0509 2.14264 14.8615C2.7386 12.4404 4.39458 9.35373 6.12102 7.44591C8.6716 4.62754 11.7594 2.93433 15.6745 2.20727C18.0312 1.7698 18.7279 1.75411 20.8602 2.09052ZM16.9313 5.2719C16.2997 5.65697 15.5915 5.8027 14.3517 5.8027C12.6503 5.8027 12.6383 5.80802 11.637 7.00579C10.9823 7.78924 10.2991 8.29823 9.67844 8.46551C8.42695 8.80245 7.57782 9.74226 7.26428 11.1376C7.09116 11.9086 6.66566 12.6027 5.92583 13.3204L4.84135 14.373L5.0166 16.1526C5.14983 17.5046 5.09399 18.1205 4.78391 18.7154C4.17279 19.8871 4.28342 20.8828 5.16207 22.1143C5.76946 22.9656 5.94098 23.4778 5.90429 24.3314C5.84179 25.7808 6.3117 26.6078 7.61239 27.3389C8.34078 27.7484 8.81894 28.2787 9.14471 29.0387C9.7654 30.4868 10.23 30.8373 11.7522 31.0061C12.6803 31.1091 13.2973 31.3878 14.0789 32.0563C15.0676 32.9025 15.2362 32.9552 16.4723 32.8065C18.1461 32.6049 19.0534 32.6049 20.7272 32.8065C21.9721 32.9562 22.1274 32.906 23.1629 32.0164C23.9232 31.3636 24.5301 31.0665 25.1042 31.0665C26.4169 31.0665 27.3844 30.408 28.0019 29.0946C28.3112 28.4367 28.8353 27.7588 29.1667 27.5883C29.498 27.4179 30.0982 26.9714 30.5003 26.5964C31.1101 26.0276 31.2324 25.6906 31.2364 24.5679C31.2402 23.5177 31.4157 22.964 32.0342 22.0513C32.9264 20.7347 33.0158 19.9696 32.4137 18.8053C32.0978 18.1939 32.0417 17.5841 32.1762 16.2178L32.3526 14.4302L31.1271 13.1872C30.2248 12.2718 29.902 11.7362 29.902 11.1544C29.902 10.1154 28.789 8.81627 27.7008 8.58491C27.1623 8.47029 26.3927 7.91928 25.6311 7.10259C24.4328 5.81839 24.3984 5.8027 22.7786 5.8027C21.608 5.8027 20.89 5.65085 20.2682 5.2719C19.7893 4.9799 19.0385 4.74083 18.5997 4.74083C18.1609 4.74083 17.4102 4.9799 16.9313 5.2719ZM16.7648 12.8234C17.5264 13.585 17.669 13.9169 17.669 14.9304C17.669 17.7365 14.3581 19.1029 12.4771 17.0733C10.5898 15.0368 12.0157 11.9229 14.8368 11.9203C15.6473 11.9195 16.0489 12.1075 16.7648 12.8234ZM23.248 12.8433C23.5177 13.1683 22.8746 14.1783 19.4909 18.7439C17.2456 21.7737 15.2657 24.4394 15.0915 24.6678C14.8083 25.0386 14.7155 25.025 14.2249 24.5415L13.6754 23.9998L17.9538 18.2256C20.3068 15.0495 22.3875 12.4511 22.5773 12.4511C22.7672 12.4511 23.069 12.6277 23.248 12.8433ZM13.5882 14.0012C13.0039 14.6466 13.0313 15.4543 13.6565 16.0199C14.3812 16.6757 15.5662 16.4709 16.0492 15.6064C16.3997 14.9788 16.393 14.8333 15.9848 14.2102C15.4378 13.3755 14.2485 13.2715 13.5882 14.0012ZM24.4551 20.4336C25.4723 21.3891 25.7744 22.4122 25.4045 23.6469C24.6495 26.1672 20.774 26.5121 19.7941 24.1461C19.096 22.4609 19.6465 20.7607 21.1517 19.9534C22.025 19.485 23.7054 19.7292 24.4551 20.4336ZM21.3921 21.7588C20.6903 22.4606 20.7211 22.9736 21.5131 23.7653C22.3066 24.5591 22.46 24.5676 23.3507 23.8669C24.1509 23.2376 24.2309 22.6654 23.6373 21.8181C23.1206 21.0801 22.0978 21.053 21.3921 21.7588Z" fill="#72D284"/>
</svg>
