<svg width="41" height="50" viewBox="0 0 41 50" fill="none" xmlns="http://www.w3.org/2000/svg">
<path d="M24.6 14.5833V0.958333C26.4964 1.68612 28.2188 2.81523 29.6532 4.27083L36.7954 11.5333C38.2294 12.9893 39.3413 14.7394 40.057 16.6667H26.65C26.1063 16.6667 25.5849 16.4472 25.2004 16.0565C24.816 15.6658 24.6 15.1359 24.6 14.5833ZM41 21.8437V39.5833C40.9967 42.345 39.9158 44.9926 37.9943 46.9454C36.0727 48.8982 33.4675 49.9967 30.75 50H10.25C7.53253 49.9967 4.92729 48.8982 3.00575 46.9454C1.08421 44.9926 0.00325511 42.345 0 39.5833V10.4167C0.00325511 7.65501 1.08421 5.00741 3.00575 3.05462C4.92729 1.10184 7.53253 0.00330804 10.25 0L19.5058 0C19.8399 0 20.17 0.0270833 20.5 0.05V14.5833C20.5 16.2409 21.1479 17.8306 22.3013 19.0028C23.4546 20.1749 25.0189 20.8333 26.65 20.8333H40.9508C40.9734 21.1687 41 21.5042 41 21.8437ZM24.6 39.5833C24.6 39.0308 24.384 38.5009 23.9996 38.1102C23.6151 37.7195 23.0937 37.5 22.55 37.5H12.3C11.7563 37.5 11.2349 37.7195 10.8504 38.1102C10.466 38.5009 10.25 39.0308 10.25 39.5833C10.25 40.1359 10.466 40.6658 10.8504 41.0565C11.2349 41.4472 11.7563 41.6667 12.3 41.6667H22.55C23.0937 41.6667 23.6151 41.4472 23.9996 41.0565C24.384 40.6658 24.6 40.1359 24.6 39.5833ZM30.75 31.25C30.75 30.6975 30.534 30.1676 30.1496 29.7769C29.7651 29.3862 29.2437 29.1667 28.7 29.1667H12.3C11.7563 29.1667 11.2349 29.3862 10.8504 29.7769C10.466 30.1676 10.25 30.6975 10.25 31.25C10.25 31.8025 10.466 32.3324 10.8504 32.7231C11.2349 33.1138 11.7563 33.3333 12.3 33.3333H28.7C29.2437 33.3333 29.7651 33.1138 30.1496 32.7231C30.534 32.3324 30.75 31.8025 30.75 31.25Z" fill="#0B4977"/>
</svg>
