<svg width="33" height="35" viewBox="0 0 33 35" fill="none" xmlns="http://www.w3.org/2000/svg">
<path fill-rule="evenodd" clip-rule="evenodd" d="M10.6482 0.0619006C10 0.242454 9.35441 0.778269 8.90019 1.51271C8.15487 2.71788 7.63031 4.77646 7.5353 6.86919L7.49905 7.66726H14.8161H22.1332L22.1047 7.51847C22.089 7.43666 22.0607 7.11402 22.0419 6.80156C21.8281 3.26046 20.7566 0.78065 19.1619 0.136675L18.8512 0.0112022L14.8743 0.00184156C11.7798 -0.00546281 10.8422 0.00784823 10.6482 0.0619006ZM15.2322 1.22351C15.5235 1.40114 15.6318 1.71528 15.6318 2.38193V2.96H16.1391C16.8372 2.96 16.9618 2.99425 17.2424 3.26305L17.4849 3.49538L17.4606 3.83068C17.4388 4.13206 17.4168 4.184 17.2426 4.34361C16.9931 4.57227 16.7495 4.63665 16.1323 4.63698L15.6318 4.6373L15.6315 5.13779C15.6311 5.78089 15.5625 6.01794 15.3009 6.27949C15.0995 6.48087 15.0774 6.4892 14.8042 6.46653C14.4861 6.44018 14.2274 6.285 14.1129 6.05191C14.0719 5.96864 14.0332 5.6373 14.0202 5.25953L13.9979 4.61025H13.3946C12.8544 4.61025 12.7672 4.59645 12.5613 4.47855C12.0798 4.20277 11.9779 3.57189 12.3606 3.23589C12.6072 3.01936 12.8873 2.95145 13.4806 2.96449L13.9724 2.97531L13.9823 2.35893C13.9937 1.65452 14.0305 1.53202 14.3029 1.29287C14.4702 1.14603 14.5413 1.12044 14.7816 1.1206C14.9632 1.12071 15.1237 1.15739 15.2322 1.22351ZM7.51587 9.63576C7.51587 10.4552 7.76709 11.5513 8.14113 12.3637C9.12976 14.5113 11.0112 16.0072 13.3719 16.5226C14.0009 16.66 15.5835 16.6605 16.2105 16.5235C17.6289 16.2136 18.79 15.6113 19.7974 14.663C21.1865 13.3554 21.9588 11.6713 22.0936 9.65616L22.1252 9.18322L14.8205 9.18343L7.51587 9.18365V9.63576ZM20.6256 18.0692C20.5644 18.1362 20.1542 18.7753 19.7138 19.4895C18.5606 21.36 18.4955 21.4649 17.5796 22.9253C17.1224 23.6544 16.2937 24.9409 15.738 25.7843L14.7278 27.3176L14.4199 26.8782C14.2506 26.6365 14.0905 26.4521 14.0641 26.4684C14.0628 26.458 14.0628 26.458 14.0628 26.458C14.0383 26.4185 14.017 26.452 14.0086 26.4039C14.1383 26.484 14.0473 26.343 13.6274 25.7458C13.2106 25.153 12.8365 24.5599 10.1268 20.1956C9.44412 19.0961 8.84803 18.1728 8.8022 18.1438C8.74339 18.1067 8.55418 18.1432 8.15795 18.2682C5.81103 19.0084 2.41434 20.8362 1.26317 21.9784C0.749703 22.4879 0.447464 22.9728 0.200739 23.6828L0.0221336 24.1968L0.00476466 27.2267C-0.0137938 30.4743 0.0135301 31.0255 0.238018 31.9285C0.481713 32.9088 0.82848 33.4541 1.41332 33.7767L1.69943 33.9346L3.16031 33.9707C4.7894 34.0109 21.8 34.0294 21.8 33.991C21.8 33.9775 21.6074 33.7107 21.372 33.398C20.4353 32.1538 19.8439 30.8367 19.5228 29.2796C19.361 28.4947 19.3213 26.8978 19.443 26.0634C19.6143 24.8879 19.8562 24.0995 20.3641 23.0605C21.0858 21.5845 22.0833 20.3753 23.3691 19.4181C23.6161 19.2342 23.8079 19.0837 23.7953 19.0837C23.7826 19.0837 23.1537 18.8281 22.3977 18.5156C21.6417 18.2031 20.9587 17.9475 20.8799 17.9475C20.8004 17.9475 20.6873 18.0016 20.6256 18.0692ZM29.5913 20.5621C29.3072 20.6666 26.2092 22.1818 26.1349 22.2525C26.108 22.2782 27.9142 26.0682 27.9985 26.1631C28.0514 26.2226 28.3544 26.0967 29.6794 25.4648C30.5683 25.0409 31.419 24.6008 31.5698 24.487C31.9261 24.218 32.1775 23.9008 32.332 23.5252C32.7352 22.545 32.1768 21.0972 31.1994 20.5887C30.8422 20.4028 30.059 20.3898 29.5913 20.5621ZM24.3406 23.1054C23.9674 23.289 23.2126 23.6554 22.6633 23.9196C21.7278 24.3696 21.6404 24.4247 21.2794 24.7908C20.7603 25.3171 20.6454 25.6111 20.6739 26.3414C20.6927 26.8258 20.7104 26.8957 20.9227 27.3242C21.1974 27.8785 21.5305 28.2379 21.9504 28.4331C22.2097 28.5537 22.3345 28.5769 22.7198 28.5763C22.9727 28.5758 23.2771 28.5424 23.3961 28.5019C23.6563 28.4135 26.9942 26.7867 26.9942 26.7483C26.9942 26.6711 25.1123 22.7946 25.0696 22.784C25.042 22.7771 24.7139 22.9218 24.3406 23.1054ZM28.6444 27.1771C27.884 27.3564 27.324 27.6739 26.8557 28.1913C26.3185 28.7851 26.0203 29.5639 26.0203 30.3736C26.0203 30.9573 26.0959 31.2987 26.3419 31.8258C26.5218 32.2111 26.9885 32.8267 27.1006 32.8267C27.1239 32.8267 27.9295 31.7129 28.8908 30.3514C30.9741 27.401 30.8357 27.6012 30.8357 27.5369C30.8357 27.435 30.2057 27.2091 29.7585 27.1508C29.1951 27.0773 29.0532 27.0806 28.6444 27.1771ZM30.3522 30.1832C29.5667 31.2949 28.7491 32.448 28.5355 32.7456C28.3218 33.0432 28.104 33.3536 28.0514 33.4354L27.9557 33.5841L28.3048 33.7475C29.5855 34.3468 31.0424 34.0943 32.0285 33.1022C32.7075 32.4189 33 31.72 33 30.7807C33 29.8842 32.7084 29.142 32.1062 28.5059L31.7806 28.162L30.3522 30.1832Z" fill="#447FD9"/>
</svg>
