<svg width="22" height="20" viewBox="0 0 22 20" fill="none" xmlns="http://www.w3.org/2000/svg">
<path fill-rule="evenodd" clip-rule="evenodd" d="M1.91645 0.0711559C1.21812 0.237039 0.565598 0.761099 0.261809 1.39999C0.169039 1.59507 0.0721875 1.86735 0.0465781 2.00506C0.0156406 2.17128 0 3.37984 0 5.60197V8.94862L2.02791 8.93765L4.05582 8.92668L5.64803 6.89229C6.52373 5.77338 7.30525 4.79031 7.38465 4.70771C7.575 4.5098 7.73751 4.43159 8.01741 4.40323C8.36602 4.36792 8.62134 4.45508 8.85156 4.68813C8.97583 4.81394 9.91818 6.2809 11.4893 8.79438C12.8337 10.9452 13.9456 12.6933 13.96 12.6791C13.9745 12.6649 14.5857 11.8917 15.3184 10.9607C16.1593 9.89211 16.7138 9.22478 16.8223 9.15044C16.9168 9.08573 17.0983 9.01363 17.2256 8.99026C17.3624 8.96515 18.3854 8.94777 19.7285 8.94777H22V5.58049C22 3.37528 21.9841 2.12681 21.9541 1.96287C21.7926 1.08295 21.0062 0.277329 20.1049 0.0687512C19.7021 -0.0244422 2.30931 -0.0221641 1.91645 0.0711559ZM6.69994 9.01979C5.84306 10.1096 5.28679 10.7801 5.17773 10.8547C5.0832 10.9193 4.9017 10.9913 4.77443 11.0147C4.63757 11.0398 3.61457 11.0572 2.2715 11.0572H0V14.4034C0 16.6252 0.0156406 17.8337 0.0465781 17.9999C0.215961 18.9101 1.00719 19.7208 1.93587 19.9357C2.17895 19.9919 3.28904 19.9998 11 19.9998C20.6876 19.9998 20.0374 20.0176 20.6227 19.7362C21.0531 19.5293 21.5123 19.0633 21.7336 18.6088C21.8296 18.4116 21.9288 18.1376 21.9541 17.9999C21.9841 17.8361 22 16.5936 22 14.4034V11.0572H20.0053H18.0107L16.3907 13.1138C15.4997 14.245 14.7111 15.2324 14.6382 15.3081C14.2342 15.7275 13.4871 15.7365 13.084 15.3268C13.0131 15.2548 11.855 13.4198 10.5104 11.2491C9.16584 9.07843 8.06227 7.30244 8.05802 7.30244C8.05372 7.30244 7.44262 8.07524 6.69994 9.01979Z" fill="#1EA7FF"/>
</svg>
