<svg width="48" height="39" viewBox="0 0 48 39" fill="none" xmlns="http://www.w3.org/2000/svg">
<path fill-rule="evenodd" clip-rule="evenodd" d="M14.995 5.37619V10.7524H19.5616H24.1281V5.37619V0H19.5616H14.995V5.37619ZM26.0759 6.26695C25.9537 6.3292 25.7934 6.46244 25.7196 6.56303C25.5861 6.74498 25.5854 6.78132 25.5684 13.7367L25.5514 20.7275H24.8397H24.1281V16.2257V11.724H19.5616H14.995V16.2257V20.7275H14.6067H14.2185L14.2019 14.9788L14.1854 9.2302L8.59866 9.21362L3.01196 9.19711V14.9623V20.7275H2.6969C1.5782 20.7275 0.622278 21.3104 0.174629 22.2657L0 22.6383V26.719V30.7997L0.182726 31.1952C0.500245 31.8822 1.22771 32.4678 1.97831 32.6409C2.13713 32.6775 2.901 32.7081 3.67589 32.709L5.08471 32.7105V32.9627C5.08471 33.3526 5.27424 34.1822 5.48481 34.7136C6.68481 37.7428 10.0068 39.2988 13.0842 38.2733C15.3529 37.5173 16.9779 35.5085 17.2304 33.1478L17.2772 32.7105H23.4466H29.616L29.6585 33.083C30.0852 36.8217 33.5662 39.2776 37.2065 38.4082C39.6368 37.8277 41.5795 35.6116 41.7896 33.1802L41.8302 32.7105H43.4636C44.3619 32.7105 45.2445 32.6826 45.4249 32.6484C46.2019 32.501 46.9108 31.9565 47.2668 31.2333L47.4789 30.8026L47.497 26.7873L47.5151 22.7719L47.3156 22.3667C47.0884 21.9051 46.8078 21.6487 46.0863 21.2431C45.8191 21.0929 45.2022 20.7205 44.7154 20.4157L43.8304 19.8615L42.661 17.2987C42.0179 15.8892 41.1249 13.9344 40.6767 12.9547C40.2285 11.975 39.7439 10.8382 39.5999 10.4285C38.856 8.31243 37.5888 7.04073 35.5407 6.35524L34.9378 6.15347L30.6179 6.1536C26.6331 6.15367 26.2808 6.16247 26.0759 6.26695ZM41.8133 20.1814C42.0247 20.6293 42.2563 21.0702 42.3279 21.1613C42.4347 21.297 43.7905 22.1759 45.277 23.073L45.5681 23.2486V26.7862V30.3239L45.3787 30.5132L45.1894 30.7026L43.387 30.7018L41.5845 30.701L41.393 30.2028C41.2878 29.9288 41.0377 29.4555 40.8373 29.151C39.426 27.0061 36.9101 25.9858 34.3947 26.5384C32.4662 26.9618 30.7488 28.4332 30.0508 30.2598L29.8816 30.7026H28.689H27.4963V25.0781C27.4963 21.9846 27.5157 19.4341 27.5395 19.4104C27.5632 19.3867 30.6981 19.3672 34.5059 19.3672H41.4291L41.8133 20.1814ZM25.5531 26.719V30.7026H21.2883H17.0235L16.8501 30.2607C16.5948 29.61 16.0746 28.8052 15.5571 28.2605C13.632 26.2338 10.4573 25.8032 8.05703 27.2431C7.43281 27.6176 6.6144 28.3627 6.21947 28.9162C5.92074 29.3349 5.44588 30.2399 5.37334 30.5289L5.32975 30.7026H3.8182C2.31383 30.7026 2.3058 30.7019 2.12495 30.5463L1.9432 30.39L1.92545 26.7537L1.90764 23.1173L2.09859 22.9264L2.28948 22.7355H13.9213H25.5531V26.719Z" fill="#72BC36"/>
</svg>
