<svg width="44" height="49" viewBox="0 0 44 49" fill="none" xmlns="http://www.w3.org/2000/svg">
<path d="M22.2133 13.3389V0.876556C23.9257 1.54223 25.4811 2.575 26.7763 3.90639L33.2256 10.5492C34.5204 11.8809 35.5244 13.4816 36.1707 15.2444H24.0644C23.5735 15.2444 23.1027 15.0437 22.7555 14.6863C22.4084 14.329 22.2133 13.8443 22.2133 13.3389ZM37.0222 19.9797V36.2056C37.0193 38.7316 36.0432 41.1532 34.3081 42.9394C32.573 44.7255 30.2205 45.7303 27.7667 45.7333H9.25556C6.80173 45.7303 4.44925 44.7255 2.71414 42.9394C0.979019 41.1532 0.0029393 38.7316 0 36.2056V9.52778C0.0029393 7.00178 0.979019 4.58011 2.71414 2.79396C4.44925 1.00781 6.80173 0.00302575 9.25556 0L17.6133 0C17.9151 0 18.2131 0.0247722 18.5111 0.0457333V13.3389C18.5111 14.855 19.0962 16.3091 20.1376 17.3812C21.1791 18.4533 22.5916 19.0556 24.0644 19.0556H36.9778C36.9982 19.3624 37.0222 19.6691 37.0222 19.9797ZM16.7689 36.2056C16.7689 35.7002 16.5739 35.2155 16.2267 34.8581C15.8796 34.5008 15.4087 34.3 14.9178 34.3H5.66222C5.17128 34.3 4.70044 34.5008 4.35329 34.8581C4.00614 35.2155 3.81111 35.7002 3.81111 36.2056C3.81111 36.7109 4.00614 37.1956 4.35329 37.553C4.70044 37.9104 5.17128 38.1111 5.66222 38.1111H14.9178C15.4087 38.1111 15.8796 37.9104 16.2267 37.553C16.5739 37.1956 16.7689 36.7109 16.7689 36.2056ZM22.3222 28.5833C22.3222 28.0779 22.1272 27.5933 21.78 27.2359C21.4329 26.8785 20.9621 26.6778 20.4711 26.6778H5.66222C5.17128 26.6778 4.70044 26.8785 4.35329 27.2359C4.00614 27.5933 3.81111 28.0779 3.81111 28.5833C3.81111 29.0887 4.00614 29.5734 4.35329 29.9308C4.70044 30.2881 5.17128 30.4889 5.66222 30.4889H20.4711C20.9621 30.4889 21.4329 30.2881 21.78 29.9308C22.1272 29.5734 22.3222 29.0887 22.3222 28.5833Z" fill="#72D284"/>
<circle cx="32.6667" cy="38.1111" r="9.88889" fill="#72D284" stroke="white" stroke-width="2"/>
<path fill-rule="evenodd" clip-rule="evenodd" d="M36.6759 34.8561C36.6438 34.8643 36.5869 34.8864 36.5494 34.9053C36.512 34.9242 35.201 36.2176 33.6358 37.78L30.7903 40.6204L29.4429 39.2765C28.4962 38.3324 28.0694 37.9195 28.0079 37.8884C27.8897 37.8286 27.7002 37.8272 27.5883 37.8851C27.4839 37.9391 27.3796 38.0568 27.3367 38.169C27.2945 38.2795 27.3052 38.4327 27.3629 38.5435C27.4211 38.6554 30.5073 41.7284 30.5999 41.7667C30.6927 41.805 30.8876 41.8051 30.9806 41.7668C31.073 41.7286 37.1535 35.665 37.2165 35.548C37.275 35.4396 37.2752 35.2295 37.217 35.1204C37.1116 34.923 36.872 34.8059 36.6759 34.8561Z" fill="#72D284" stroke="white" stroke-width="1.5"/>
</svg>
