<svg width="26" height="24" viewBox="0 0 26 24" fill="none" xmlns="http://www.w3.org/2000/svg">
<path fill-rule="evenodd" clip-rule="evenodd" d="M6.64895 0.198387C5.54404 0.318716 4.26616 0.828886 3.28238 1.54253C2.73561 1.9392 1.92418 2.76977 1.5335 3.33268C0.722771 4.50081 0.201714 5.93938 0.0370385 7.4642C-0.0689005 8.44451 0.0591408 9.94948 0.335294 10.9699L0.426244 11.306L2.39335 11.3195L4.36052 11.333L5.13639 9.76829C5.98964 8.04738 6.0216 8.00519 6.47112 8.00519C6.94411 8.00519 6.89447 7.92886 8.383 10.9435L9.73597 13.6836L11.0428 11.0211C11.7615 9.55669 12.4091 8.29414 12.4819 8.21549C12.7482 7.92773 13.2488 7.92318 13.5116 8.20618C13.5796 8.2794 13.9669 9.00686 14.3721 9.82269L15.1088 11.306L17.9124 11.3318C20.6308 11.3569 20.7202 11.3609 20.8542 11.4628C21.0731 11.6291 21.1904 11.8905 21.1639 12.1522C21.1348 12.4391 21.0049 12.6198 20.7223 12.7668L20.4986 12.8831H17.5493C15.7746 12.8831 14.5309 12.863 14.4264 12.8325C14.3309 12.8046 14.1938 12.7243 14.1218 12.654C14.0499 12.5838 13.7742 12.083 13.5094 11.5413C13.2445 10.9994 13.0157 10.5562 13.0009 10.5562C12.9861 10.5562 12.3911 11.745 11.6787 13.1981C10.3147 15.9801 10.2421 16.1001 9.87981 16.1693C9.68165 16.2071 9.40575 16.13 9.23071 15.9879C9.16293 15.9328 8.55484 14.7534 7.79299 13.1993L6.47274 10.5062L5.95057 11.5615C5.49841 12.4754 5.40289 12.633 5.23841 12.7371C5.04904 12.8569 5.04183 12.8573 3.02696 12.8724L1.00543 12.8876L1.35022 13.5705C3.17771 17.1902 6.94472 20.6951 12.2174 23.6815C12.9667 24.1059 13.0335 24.1059 13.783 23.6818C18.3857 21.0775 21.8145 18.0996 23.8722 14.9197C26.2152 11.299 26.6421 7.49341 25.0592 4.33947C24.6757 3.57551 24.2442 2.97304 23.6427 2.36172C22.3111 1.00847 20.6988 0.263179 18.9196 0.178323C16.8602 0.080178 14.9247 0.986136 13.3566 2.78212L12.9882 3.20408L12.7481 2.9114C12.0882 2.10695 11.099 1.29241 10.2596 0.862187C9.22091 0.329833 7.8153 0.071439 6.64895 0.198387Z" fill="#FF5353"/>
</svg>
