<svg width="47" height="32" viewBox="0 0 47 32" fill="none" xmlns="http://www.w3.org/2000/svg">
<path fill-rule="evenodd" clip-rule="evenodd" d="M15.5523 0.169347C15.115 0.367224 14.8179 0.710764 14.6832 1.17418C14.6176 1.39958 14.5958 5.81696 14.6143 15.0607L14.6416 28.6167H14.1245C13.6721 28.6167 13.5978 28.5909 13.5307 28.411C13.4884 28.2978 13.4414 23.4609 13.4259 17.6622L13.3978 7.11907L8.69555 7.14659C4.46013 7.17128 3.96462 7.18957 3.70575 7.33075C3.31882 7.54179 2.96375 7.97778 2.84341 8.38972C2.77465 8.62536 2.7529 11.7572 2.77217 18.6726L2.7998 28.6167H1.3999H0V30.3084V32H23.5H47V30.3084V28.6167H45.7148H44.4297V18.5415C44.4297 8.49917 44.429 8.46488 44.2373 8.07032C44.1036 7.79536 43.9143 7.59794 43.6177 7.4242L43.1904 7.17402L38.3962 7.14668L33.6022 7.11925L33.5741 17.6623C33.5586 23.4609 33.5116 28.2978 33.4693 28.411C33.4022 28.5909 33.3279 28.6167 32.8755 28.6167H32.3584L32.3857 15.0607C32.4042 5.81696 32.3824 1.39958 32.3168 1.17418C32.1821 0.710764 31.885 0.367224 31.4477 0.169347C31.0929 0.00887014 30.6761 0 23.5 0C16.3239 0 15.9071 0.00887014 15.5523 0.169347ZM25.3211 1.03007C27.1338 1.65799 28.4523 2.97637 29.0445 4.75306C29.254 5.38143 29.3047 5.7012 29.3122 6.4425C29.3234 7.55012 29.1959 8.12198 28.7118 9.13486C28.007 10.6096 26.4915 11.8201 24.877 12.198C24.1135 12.3767 22.8865 12.3767 22.123 12.198C20.2451 11.7585 18.5758 10.2283 17.9533 8.37564C17.2071 6.15511 17.9872 3.4867 19.8018 2.0532C20.4638 1.53007 21.4806 1.0319 22.2355 0.860543C23.1048 0.663307 24.4806 0.738927 25.3211 1.03007ZM22.0948 2.88932C22.0598 2.92407 22.0312 3.43943 22.0312 4.03461V5.11662H20.9297H19.8281V6.57966V8.0427H20.9297H22.0312V9.13998V10.2373H23.5H24.9688V9.13998V8.0427H26.0703H27.1719V6.57966V5.11662H26.0732H24.9744L24.9486 3.99648L24.9229 2.87634L23.5406 2.85119C22.7803 2.83739 22.1297 2.85448 22.0948 2.88932ZM7.71094 12.526V13.7175L6.54053 13.6919L5.37012 13.6663L5.34441 12.5004L5.31871 11.3345H6.51482H7.71094V12.526ZM11.4544 12.5004L11.4287 13.6663L10.2583 13.6919L9.08789 13.7175V12.526V11.3345H10.284H11.4801L11.4544 12.5004ZM38.5547 12.5233V13.712H37.4072H36.2598V12.5233V11.3345H37.4072H38.5547V12.5233ZM42.2982 12.5004L42.2725 13.6663L41.1021 13.6919L39.9316 13.7175V12.526V11.3345H41.1278H42.3239L42.2982 12.5004ZM7.71094 16.5494V17.7408L6.54053 17.7152L5.37012 17.6896L5.34441 16.5238L5.31871 15.3579H6.51482H7.71094V16.5494ZM11.4544 16.5238L11.4287 17.6896L10.2583 17.7152L9.08789 17.7408V16.5494V15.3579H10.284H11.4801L11.4544 16.5238ZM38.5547 16.5466V17.7353H37.4072H36.2598V16.5466V15.3579H37.4072H38.5547V16.5466ZM42.2982 16.5238L42.2725 17.6896L41.1021 17.7152L39.9316 17.7408V16.5494V15.3579H41.1278H42.3239L42.2982 16.5238ZM7.71094 20.6614V21.8502H6.51758H5.32422V20.6614V19.4727H6.51758H7.71094V20.6614ZM11.4746 20.6614V21.8502H10.2812H9.08789V20.6614V19.4727H10.2812H11.4746V20.6614ZM38.5547 20.6614V21.8502H37.4072H36.2598V20.6614V19.4727H37.4072H38.5547V20.6614ZM42.3184 20.6614V21.8502H41.125H39.9316V20.6614V19.4727H41.125H42.3184V20.6614ZM27.1719 24.1819V28.5253H23.6836H20.1953V24.1819V19.8385H23.6836H27.1719V24.1819Z" fill="#72D284"/>
</svg>
