<svg width="37" height="41" viewBox="0 0 37 41" fill="none" xmlns="http://www.w3.org/2000/svg">
<path d="M19.1423 11.1611V0.733444C20.5751 1.29044 21.8766 2.15459 22.9603 3.26861L28.3567 8.82684C29.4401 9.94117 30.2802 11.2805 30.821 12.7556H20.6912C20.2804 12.7556 19.8865 12.5876 19.596 12.2886C19.3055 11.9895 19.1423 11.584 19.1423 11.1611ZM31.5334 16.7177V30.2944C31.531 32.408 30.7143 34.4343 29.2624 35.9289C27.8106 37.4234 25.8422 38.2641 23.789 38.2667H8.30011C6.24691 38.2641 4.27851 37.4234 2.82668 35.9289C1.37484 34.4343 0.558123 32.408 0.555664 30.2944V7.97222C0.558123 5.85863 1.37484 3.83234 2.82668 2.33781C4.27851 0.843273 6.24691 0.00253175 8.30011 0L15.2933 0C15.5458 0 15.7952 0.0207278 16.0446 0.0382667V11.1611C16.0446 12.4297 16.5341 13.6464 17.4055 14.5434C18.2769 15.4405 19.4588 15.9444 20.6912 15.9444H31.4963C31.5133 16.2012 31.5334 16.4579 31.5334 16.7177ZM14.5868 30.2944C14.5868 29.8716 14.4236 29.466 14.1331 29.167C13.8426 28.868 13.4487 28.7 13.0379 28.7H5.29344C4.88265 28.7 4.48869 28.868 4.19821 29.167C3.90774 29.466 3.74455 29.8716 3.74455 30.2944C3.74455 30.7173 3.90774 31.1229 4.19821 31.4219C4.48869 31.7209 4.88265 31.8889 5.29344 31.8889H13.0379C13.4487 31.8889 13.8426 31.7209 14.1331 31.4219C14.4236 31.1229 14.5868 30.7173 14.5868 30.2944ZM19.2334 23.9167C19.2334 23.4938 19.0703 23.0882 18.7798 22.7892C18.4893 22.4902 18.0953 22.3222 17.6846 22.3222H5.29344C4.88265 22.3222 4.48869 22.4902 4.19821 22.7892C3.90774 23.0882 3.74455 23.4938 3.74455 23.9167C3.74455 24.3395 3.90774 24.7451 4.19821 25.0441C4.48869 25.3431 4.88265 25.5111 5.29344 25.5111H17.6846C18.0953 25.5111 18.4893 25.3431 18.7798 25.0441C19.0703 24.7451 19.2334 24.3395 19.2334 23.9167Z" fill="#FF7354"/>
<circle cx="27.8885" cy="31.8889" r="8.11111" fill="#FF7354" stroke="white" stroke-width="2"/>
<rect x="31.0713" y="28" width="2" height="10" rx="1" transform="rotate(45 31.0713 28)" fill="white"/>
<rect x="32.4854" y="35.0712" width="2" height="10" rx="1" transform="rotate(135 32.4854 35.0712)" fill="white"/>
</svg>
