<svg width="33" height="44" viewBox="0 0 33 44" fill="none" xmlns="http://www.w3.org/2000/svg">
<path fill-rule="evenodd" clip-rule="evenodd" d="M14.4446 0.14559C12.3764 0.779931 10.44 2.48838 9.67995 4.34945C9.05813 5.87105 9.24176 9.34438 10.0488 11.3243C12.8494 18.1979 19.6537 18.1979 22.4543 11.3243C23.2613 9.34438 23.445 5.87105 22.8231 4.34945C22.2596 2.96938 20.633 1.27178 19.2366 0.605855C18.1132 0.069884 15.507 -0.180139 14.4446 0.14559ZM13.1886 4.66217C14.7469 5.19717 17.604 5.19476 19.3052 4.6571C20.212 4.37019 20.7694 4.30292 20.9373 4.45988C21.367 4.86156 21.6698 6.51046 21.5088 7.57372C21.3685 8.50124 21.3987 8.57212 21.882 8.45398C22.3976 8.32789 22.4007 8.35369 22.0378 9.80802C21.5821 11.6334 21.1336 12.4638 19.9317 13.7076C18.7205 14.9609 17.732 15.4211 16.2516 15.4211C14.7577 15.4211 13.782 14.9604 12.5278 13.6625C11.4116 12.5074 10.668 11.0743 10.3441 9.45311C10.1434 8.4494 10.1672 8.34308 10.569 8.44121C10.9636 8.53765 11.017 8.35634 11.0069 6.95529C10.9961 5.44864 11.3626 4.27471 11.8436 4.27471C11.9627 4.27471 12.5681 4.44903 13.1886 4.66217ZM9.38619 16.149C9.28174 16.3149 9.03079 16.6925 8.82885 16.9883C8.48453 17.492 8.53018 17.5841 9.54455 18.4349C10.1403 18.9347 10.741 19.5413 10.8795 19.7827C11.2065 20.3534 11.867 22.7282 11.867 23.3336C11.867 23.7912 12.1157 23.804 21.0559 23.804H30.2448L30.0712 22.7895C29.8291 21.3735 29.1162 19.964 28.0882 18.8682C27.177 17.8965 25.3744 16.5709 24.9646 16.5709C24.5519 16.5709 25.0249 17.5023 25.8105 18.2367C26.7303 19.0967 26.78 19.9302 25.964 20.817C25.1882 21.6601 23.9835 21.6987 23.0842 20.9089C22.1877 20.1217 22.2387 19.1343 23.2237 18.2138C24.0428 17.4478 24.0652 16.9179 23.3088 16.2107C22.6563 15.6007 22.0615 15.7989 21.2282 16.9041C20.4919 17.8809 16.6596 21.1519 16.2516 21.1519C15.8435 21.1519 12.0112 17.8809 11.2749 16.9041C10.4864 15.8587 9.75397 15.5658 9.38619 16.149ZM6.69024 17.0153C4.42294 18.3657 2.81589 20.5446 2.43186 22.7895L2.25828 23.804H3.16046C4.06186 23.804 4.06289 23.8028 4.37419 22.2971C4.74455 20.5077 5.57941 19.0714 6.69669 18.3028C7.4142 17.809 8.16885 16.6498 7.92254 16.4198C7.87277 16.3732 7.31826 16.6413 6.69024 17.0153ZM23.6451 18.9017C23.2892 19.2342 23.4919 20.18 23.9703 20.4192C24.8908 20.8797 25.7254 20.1598 25.3958 19.1891C25.2455 18.7462 24.0255 18.5458 23.6451 18.9017ZM7.05389 19.7656C5.99878 20.8693 5.43292 21.8316 5.26631 22.8047L5.09531 23.804H7.96536H10.8354V23.0568C10.8354 21.61 9.11281 19.2231 8.06878 19.2231C7.79591 19.2231 7.33915 19.4673 7.05389 19.7656ZM1.38473 25.0045C0.64659 25.287 0.00387326 26.1815 4.58309e-06 26.9318C-0.0018008 27.267 0.530014 30.4705 1.18176 34.0509C2.31941 40.3005 2.39678 40.5872 3.12332 41.2237L3.88003 41.8867H16.1982C29.3566 41.8867 29.2243 41.898 29.9041 40.7104C30.1914 40.2089 32.5 27.9592 32.5 26.9372C32.5 26.5499 32.2243 25.9421 31.8777 25.5655L31.2553 24.889L16.5964 24.841C8.53405 24.8145 1.68881 24.888 1.38473 25.0045ZM16.8716 32.5575C17.8387 33.2186 16.8104 34.8581 15.8002 34.2662C15.165 33.8939 15.0708 32.9408 15.6315 32.5575C15.8851 32.3844 16.1639 32.2426 16.2516 32.2426C16.3392 32.2426 16.618 32.3844 16.8716 32.5575ZM3.35595 42.8511C3.35595 43.3268 3.52798 43.3333 16.2516 43.3333C28.9751 43.3333 29.1471 43.3268 29.1471 42.8511C29.1471 42.3754 28.9751 42.3689 16.2516 42.3689C3.52798 42.3689 3.35595 42.3754 3.35595 42.8511Z" fill="#0B4977"/>
</svg>
