<svg width="40" height="40" viewBox="0 0 40 40" fill="none" xmlns="http://www.w3.org/2000/svg">
<path fill-rule="evenodd" clip-rule="evenodd" d="M29.9279 5.4512C29.9279 2.90203 31.9979 0.832031 34.547 0.832031C37.0962 0.832031 39.1662 2.90203 39.1662 5.4512C39.1662 8.00036 37.0962 10.0704 34.547 10.0704C31.9979 10.0704 29.9279 8.00036 29.9279 5.4512ZM22.5484 25.291L28.0876 18.1438L28.0109 18.1821C28.3176 17.7605 28.3751 17.2238 28.1642 16.7446C27.9553 16.2655 27.4934 15.9396 26.997 15.9013C26.4776 15.8438 25.962 16.0738 25.6534 16.4955L21.017 22.4946L15.7059 18.3163C15.3801 18.0671 14.9967 17.9694 14.6134 18.0096C14.232 18.0671 13.887 18.2761 13.6551 18.5827L7.98367 25.9638L7.86675 26.1363C7.54092 26.7477 7.69425 27.5336 8.26925 27.9571C8.53758 28.1296 8.82508 28.2446 9.15092 28.2446C9.59367 28.2638 10.0134 28.0319 10.2817 27.6696L15.0926 21.4769L20.5551 25.5805L20.7276 25.6936C21.3409 26.0194 22.1076 25.868 22.5484 25.291ZM26.6117 4.24609C26.535 4.72526 26.4967 5.20443 26.4967 5.68359C26.4967 9.99609 29.985 13.4825 34.2784 13.4825C34.7575 13.4825 35.2175 13.4269 35.6967 13.3503V28.8158C35.6967 35.3153 31.8634 39.1678 25.3467 39.1678H11.1844C4.66585 39.1678 0.83252 35.3153 0.83252 28.8158V14.6344C0.83252 8.11776 4.66585 4.24609 11.1844 4.24609H26.6117Z" fill="#B436E1"/>
</svg>
