<svg width="37" height="41" viewBox="0 0 37 41" fill="none" xmlns="http://www.w3.org/2000/svg">
<path d="M18.5867 11.1611V0.733444C20.0195 1.29044 21.3209 2.15459 22.4047 3.26861L27.801 8.82684C28.8844 9.94117 29.7245 11.2805 30.2653 12.7556H20.1356C19.7248 12.7556 19.3308 12.5876 19.0403 12.2886C18.7499 11.9895 18.5867 11.584 18.5867 11.1611ZM30.9778 16.7177V30.2944C30.9753 32.408 30.1586 34.4343 28.7068 35.9289C27.2549 37.4234 25.2865 38.2641 23.2333 38.2667H7.74444C5.69124 38.2641 3.72284 37.4234 2.27101 35.9289C0.819179 34.4343 0.00245941 32.408 0 30.2944V7.97222C0.00245941 5.85863 0.819179 3.83234 2.27101 2.33781C3.72284 0.843273 5.69124 0.00253175 7.74444 0L14.7377 0C14.9901 0 15.2395 0.0207278 15.4889 0.0382667V11.1611C15.4889 12.4297 15.9784 13.6464 16.8499 14.5434C17.7213 15.4405 18.9032 15.9444 20.1356 15.9444H30.9406C30.9576 16.2012 30.9778 16.4579 30.9778 16.7177ZM14.0311 30.2944C14.0311 29.8716 13.8679 29.466 13.5775 29.167C13.287 28.868 12.893 28.7 12.4822 28.7H4.73778C4.32699 28.7 3.93302 28.868 3.64255 29.167C3.35208 29.466 3.18889 29.8716 3.18889 30.2944C3.18889 30.7173 3.35208 31.1229 3.64255 31.4219C3.93302 31.7209 4.32699 31.8889 4.73778 31.8889H12.4822C12.893 31.8889 13.287 31.7209 13.5775 31.4219C13.8679 31.1229 14.0311 30.7173 14.0311 30.2944ZM18.6778 23.9167C18.6778 23.4938 18.5146 23.0882 18.2241 22.7892C17.9336 22.4902 17.5397 22.3222 17.1289 22.3222H4.73778C4.32699 22.3222 3.93302 22.4902 3.64255 22.7892C3.35208 23.0882 3.18889 23.4938 3.18889 23.9167C3.18889 24.3395 3.35208 24.7451 3.64255 25.0441C3.93302 25.3431 4.32699 25.5111 4.73778 25.5111H17.1289C17.5397 25.5111 17.9336 25.3431 18.2241 25.0441C18.5146 24.7451 18.6778 24.3395 18.6778 23.9167Z" fill="#BE5AE1"/>
<circle cx="27.3328" cy="31.8889" r="8.11111" fill="#BE5AE1" stroke="white" stroke-width="2"/>
<path fill-rule="evenodd" clip-rule="evenodd" d="M30.6884 29.1653C30.6616 29.1721 30.614 29.1907 30.5826 29.2065C30.5513 29.2223 29.4543 30.3046 28.1447 31.6118L25.7638 33.9885L24.6364 32.864C23.8442 32.074 23.4871 31.7285 23.4356 31.7025C23.3368 31.6525 23.1782 31.6513 23.0845 31.6998C22.9971 31.745 22.9099 31.8434 22.874 31.9373C22.8387 32.0298 22.8476 32.1579 22.8959 32.2507C22.9446 32.3443 25.527 34.9156 25.6045 34.9476C25.6821 34.9797 25.8452 34.9798 25.923 34.9477C26.0003 34.9158 31.088 29.8421 31.1408 29.7442C31.1897 29.6535 31.1899 29.4778 31.1412 29.3865C31.053 29.2213 30.8525 29.1233 30.6884 29.1653Z" fill="#BE5AE1" stroke="white" stroke-width="1.5"/>
</svg>
