<svg width="44" height="44" viewBox="0 0 44 44" fill="none" xmlns="http://www.w3.org/2000/svg">
<path fill-rule="evenodd" clip-rule="evenodd" d="M16.5859 0.137734C14.6877 0.546849 13.0779 2.17222 12.6761 4.08537C12.5751 4.56701 12.5495 5.53055 12.5483 8.91895L12.5469 13.151H22H31.4531L31.4517 8.91895C31.4505 5.53055 31.4249 4.56701 31.3239 4.08537C30.9177 2.15125 29.3054 0.539029 27.3711 0.132922C26.5135 -0.0471017 17.4248 -0.043063 16.5859 0.137734ZM22.6038 3.95759C23.072 4.19648 23.2891 4.64418 23.2891 5.37089V5.93287H23.8511C24.5779 5.93287 25.0256 6.14993 25.2645 6.61808C25.3596 6.80455 25.4375 7.07626 25.4375 7.22183C25.4375 7.36739 25.3596 7.63911 25.2645 7.82558C25.0256 8.29372 24.5779 8.51078 23.8511 8.51078H23.2891V9.07277C23.2891 9.79948 23.072 10.2472 22.6038 10.4861C22.1635 10.7106 21.8041 10.7048 21.3798 10.4664C20.912 10.2035 20.7109 9.78453 20.7109 9.07277V8.51078H20.1425C19.2058 8.51078 18.5625 7.98601 18.5625 7.22183C18.5625 6.45765 19.2058 5.93287 20.1425 5.93287H20.7109V5.37089C20.7109 4.65879 20.9285 4.19906 21.3779 3.96181C21.7925 3.74294 22.1804 3.74165 22.6038 3.95759ZM12.5706 17.7268C12.6156 19.8794 12.6705 20.2335 13.1524 21.4832C13.8983 23.4172 15.7676 25.289 17.6955 26.0324C19.0939 26.5717 19.3085 26.5995 22.043 26.5953C24.8102 26.5911 25.1267 26.5444 26.5472 25.9302C28.4002 25.1293 30.1303 23.3431 30.8428 21.4955C31.33 20.2323 31.3843 19.8833 31.4294 17.7268L31.4713 15.7289H22H12.5287L12.5706 17.7268ZM9.23691 28.4116C7.15799 29.7157 5.225 30.9483 4.94141 31.1508C2.76195 32.7065 1.05737 35.2311 0.385172 37.899C0.0785469 39.1158 0 39.9699 0 42.0858V44H22H44V42.0858C44 41.033 43.9593 39.8439 43.9095 39.4435C43.6515 37.3684 42.8502 35.3584 41.6153 33.6884C40.9881 32.8401 39.7283 31.6066 38.927 31.0562C38.3183 30.6379 31.4617 26.315 31.1004 26.1217C30.9611 26.0472 30.8763 26.0748 30.639 26.2718L30.3483 26.5132L30.3421 29.8341L30.3359 33.1551L31.3887 33.1871C32.3035 33.2149 32.5047 33.2486 32.9244 33.4439C33.602 33.7592 34.0691 34.2142 34.3956 34.8769L34.6758 35.4454L34.704 37.0595C34.7374 38.9713 34.6566 39.3405 34.0784 39.9187C33.5769 40.4201 33.1041 40.5628 31.9437 40.5628C31.1292 40.5628 30.9581 40.5371 30.661 40.3701C30.0408 40.0216 29.8353 39.3168 30.1652 38.6701C30.4041 38.2019 30.8518 37.9849 31.5786 37.9849H32.1406V37.0028C32.1406 36.2246 32.1126 35.9928 32.0056 35.8857C31.8881 35.7683 31.4915 35.7507 28.9609 35.7507C26.4304 35.7507 26.0337 35.7683 25.9163 35.8857C25.8093 35.9928 25.7812 36.2246 25.7812 37.0028V37.9849H26.3433C27.0701 37.9849 27.5178 38.2019 27.7567 38.6701C27.8518 38.8566 27.9297 39.1283 27.9297 39.2738C27.9297 39.7002 27.6257 40.1953 27.2444 40.3898C26.9662 40.5318 26.7377 40.5628 25.9719 40.5628C24.8183 40.5628 24.3441 40.4193 23.8434 39.9187C23.2653 39.3405 23.1845 38.9713 23.2179 37.0595L23.2461 35.4454L23.5263 34.8769C23.8526 34.2145 24.3194 33.7597 24.9975 33.4433C25.4264 33.2431 25.6078 33.2145 26.6191 33.1869L27.7578 33.1559V30.7153C27.7578 29.373 27.7481 28.2748 27.7363 28.2748C27.7246 28.2748 27.3475 28.4059 26.8984 28.5661C25.3302 29.1255 24.9166 29.177 22 29.177C19.115 29.177 18.6267 29.1182 17.2305 28.6025C16.8523 28.4628 16.4554 28.3273 16.3483 28.3014L16.1537 28.2542L16.1764 30.8589L16.1992 33.4634L16.6289 33.681C17.1793 33.9596 18.0322 34.8148 18.2933 35.3499C18.8893 36.5715 18.8732 37.7387 18.2435 38.9481C17.0631 41.2153 13.9849 41.6645 12.1564 39.8362C10.9416 38.6215 10.6715 36.9272 11.4411 35.3499C11.719 34.7807 12.567 33.9531 13.1699 33.663L13.6641 33.4252V30.0075V26.5898L13.3806 26.3152C13.2248 26.1641 13.0792 26.0406 13.0571 26.0406C13.0349 26.0406 11.3159 27.1076 9.23691 28.4116ZM14.2451 36.0138C13.8823 36.2054 13.5781 36.7123 13.5781 37.1256C13.5781 37.7608 14.2287 38.4145 14.8608 38.4145C15.5023 38.4145 16.1562 37.767 16.1562 37.1319C16.1562 36.6997 15.8544 36.2052 15.471 36.0096C15.0476 35.7937 14.6597 35.7949 14.2451 36.0138Z" fill="#FF5353"/>
</svg>
