<svg width="48" height="41" viewBox="0 0 48 41" fill="none" xmlns="http://www.w3.org/2000/svg">
<path fill-rule="evenodd" clip-rule="evenodd" d="M27.7506 0.132677C25.5636 0.599846 23.6759 2.47757 23.0489 4.80978C22.7956 5.75223 22.7741 7.39301 23.0029 8.33332C23.2077 9.17562 23.9511 10.6731 24.5766 11.5037C25.4132 12.615 27.6706 14.7647 30.7312 17.3654C32.3448 18.7364 33.7237 19.8805 33.7954 19.9078C33.8728 19.9374 34.4745 19.4899 35.2742 18.8079C36.0159 18.1755 37.5693 16.8556 38.7264 15.8748C40.9295 14.0073 42.5549 12.4176 43.3858 11.3171C43.9789 10.5315 44.6504 9.20966 44.8778 8.37994C45.1046 7.55209 45.1024 5.67922 44.8736 4.83654C44.5205 3.53639 43.7904 2.34973 42.7992 1.46537C41.5276 0.330827 39.5535 -0.216069 37.7946 0.0789661C36.5163 0.293435 34.9701 1.25454 34.1497 2.34451L33.9549 2.60336L33.0796 1.73308C32.1186 0.777762 31.457 0.386776 30.3709 0.132117C29.6309 -0.0413231 28.5642 -0.0411365 27.7506 0.132677ZM15.4679 19.7096C13.9751 20.0097 12.8017 20.6297 11.0045 22.0682C8.84776 23.7945 7.33446 25.1351 4.91974 27.4586C2.79661 29.5014 1.89988 30.3262 0.34701 31.6645L0 31.9635L3.43513 36.4667C5.32441 38.9435 6.88066 40.9832 6.8935 40.9994C6.90635 41.0156 7.39569 40.7099 7.98104 40.3201C11.0665 38.2649 13.9306 37.3516 17.2962 37.3499C18.9532 37.349 18.8635 37.3377 23.7657 38.1731C28.3102 38.9475 28.4531 38.9652 30.1717 38.9647C32.5437 38.9641 34.1987 38.6083 36.0675 37.6972C38.0591 36.7262 40.2692 35.0914 42.2421 33.1296C44.4834 30.9009 45.5227 29.2429 47.1179 25.351C48.0425 23.0952 48.1539 22.5717 47.8464 21.9272C47.5988 21.4081 47.2276 21.2285 46.5028 21.277C44.9467 21.3809 43.931 22.2918 41.4925 25.7706C40.9892 26.4886 40.3178 27.3433 40.0005 27.67C38.4227 29.2949 36.34 30.3475 34.0856 30.6594C33.6398 30.721 31.2983 30.7593 27.9782 30.7593H22.5937V29.3729V27.9865L26.4145 27.9353C31.0934 27.8726 32.8627 27.6943 35.0437 27.0658C37.1592 26.4561 38.1026 25.4052 37.3419 24.5062C36.9903 24.0906 35.9839 23.6355 34.7987 23.3562C34.2484 23.2266 32.4691 22.9286 30.8447 22.6942C25.0313 21.855 22.8319 21.3549 19.9608 20.2188C18.3724 19.5904 16.8946 19.4229 15.4679 19.7096Z" fill="#4E3095"/>
</svg>
