<svg width="42" height="48" viewBox="0 0 42 48" fill="none" xmlns="http://www.w3.org/2000/svg">
<path fill-rule="evenodd" clip-rule="evenodd" d="M19.9138 0.203657C19.2901 0.458755 19.0113 0.651672 18.1081 1.45307C17.3181 2.15403 16.1505 3.00579 15.2161 3.5626C12.4172 5.23067 9.50598 6.0995 5.52766 6.45401C4.72858 6.5252 4.0395 6.64487 3.62603 6.78414C1.95171 7.34826 0.687399 8.70637 0.223705 10.4388C0.104262 10.8851 0.0612672 11.8066 0.0158618 14.8936C-0.0589464 19.9859 0.124121 23.0399 0.708897 26.4554C1.98738 33.9228 5.49903 39.5933 11.36 43.654C14.2038 45.6242 19.4736 48 21.0002 48C21.8701 48 24.1786 47.151 26.7361 45.8902C29.4228 44.5659 31.2802 43.3374 33.3092 41.5428C36.6723 38.5682 39.2025 34.4576 40.5139 29.8378C41.6733 25.7535 42.0878 21.5018 41.9849 14.7529C41.9397 11.7927 41.8959 10.8829 41.7769 10.4388C41.3126 8.706 40.0486 7.34826 38.3744 6.78414C37.9609 6.64487 37.2718 6.5252 36.4728 6.45401C31.0435 5.97017 27.4741 4.52681 23.6975 1.28791C22.6279 0.370596 21.9725 0.0475976 21.0966 0.00595667C20.6024 -0.0174898 20.3525 0.0242449 19.9138 0.203657ZM22.8319 12.1847C27.5645 12.8252 31.5781 16.2981 32.8475 20.8513C33.3946 22.8134 33.4106 25.0909 32.8908 26.992C31.6217 31.6335 27.7953 35.0026 22.8801 35.8062C21.4907 36.0334 19.3341 35.9258 17.9153 35.5587C13.5764 34.4358 10.2638 31.2132 9.10968 26.992C8.60761 25.1559 8.60761 22.8257 9.10968 20.9897C10.4951 15.9226 15.0137 12.3369 20.3736 12.0515C21.0294 12.0166 21.9636 12.0673 22.8319 12.1847ZM20.5182 14.8717C18.1593 15.0075 16.1794 15.8537 14.4713 17.4561C12.5964 19.215 11.6385 21.4248 11.6385 23.9908C11.6385 26.5644 12.591 28.7615 14.4713 30.5255C16.329 32.2683 18.4356 33.0985 21.0002 33.0985C23.5648 33.0985 25.6714 32.2683 27.5292 30.5255C29.404 28.7667 30.3632 26.5549 30.3632 23.9908C30.3632 21.4343 29.3984 19.2097 27.5292 17.4561C25.6025 15.6487 23.0925 14.7235 20.5182 14.8717ZM26.204 20.0286C26.8841 20.3609 27.1896 21.265 26.8393 21.9088C26.7635 22.0481 25.0826 23.7299 23.1037 25.6462C19.2697 29.3594 19.2961 29.3389 18.5103 29.1971C18.2194 29.1445 17.8847 28.8716 16.6304 27.664C15.791 26.8559 15.0428 26.0808 14.9675 25.9416C14.5886 25.2409 14.9596 24.3251 15.7395 24.0353C16.4796 23.7603 16.7619 23.8761 17.8228 24.8901C18.3306 25.3756 18.7873 25.7728 18.8375 25.7728C18.8877 25.7728 20.23 24.5024 21.8202 22.9499C23.4106 21.3974 24.8418 20.0696 25.0009 19.9993C25.3979 19.824 25.8058 19.8339 26.204 20.0286Z" fill="#0B4977"/>
</svg>
