<svg width="43" height="43" viewBox="0 0 43 43" fill="none" xmlns="http://www.w3.org/2000/svg">
<path fill-rule="evenodd" clip-rule="evenodd" d="M17.4428 0.0848158C17.1761 0.211385 16.7234 0.625161 16.3551 1.07889C16.2078 1.26042 12.5673 5.61848 8.26522 10.7634C3.96314 15.9084 0.380806 20.2041 0.304493 20.3095C0.0888576 20.6071 -0.0241194 21.0377 0.0043334 21.4531C0.079505 22.5499 1.01287 23.2224 1.8586 22.7892C2.10523 22.6628 2.43586 22.2746 10.0005 13.2287C14.3372 8.04291 17.8973 3.79541 17.9119 3.78983C17.952 3.77438 26.821 14.39 26.7984 14.4265C26.7877 14.4439 26.6549 14.472 26.5034 14.4888C25.1904 14.6344 23.1989 15.3067 21.8034 16.0754C17.5771 18.4032 14.8273 22.6174 14.3899 27.437C14.316 28.2511 14.3628 29.9078 14.4818 30.6915C15.0531 34.4547 16.928 37.6696 19.9285 40.0308L20.0808 40.1506L15.5363 40.1393C10.9985 40.128 10.9912 40.1278 10.6405 40.0309C9.87882 39.8203 9.14093 39.3468 8.67713 38.7712C8.42966 38.4641 8.1641 37.9656 8.02135 37.5402L7.91821 37.2329L7.89621 31.7671C7.87623 26.7995 7.86763 26.2893 7.80185 26.1695C7.58723 25.7785 7.15249 25.7094 6.42523 25.9507C5.81103 26.1546 5.35109 26.5055 5.1431 26.929L5.02015 27.1794L5.0068 32.9305C4.99767 36.867 5.0086 38.8316 5.04145 39.1568C5.24075 41.1291 6.7314 42.6751 8.70953 42.9611C8.96903 42.9986 11.7671 43.0073 19.51 42.9944C30.8775 42.9755 30.1356 42.9914 31.4312 42.739C36.6303 41.7263 40.8629 37.8998 42.4079 32.8155C42.6103 32.1495 42.8091 31.2138 42.9199 30.4062C43.0144 29.7173 43.0287 27.7988 42.9445 27.1135C42.585 24.1892 41.519 21.6836 39.7012 19.4896C39.3108 19.0184 38.3413 18.043 37.8823 17.6597C35.9719 16.0641 33.5671 14.9492 31.1363 14.532C30.7414 14.4642 30.6724 14.4388 30.5605 14.3197C30.4906 14.2453 28.0066 11.2803 25.0406 7.73082C22.0745 4.18135 19.5722 1.18833 19.4798 1.07968C19.2258 0.781012 18.6619 0.30595 18.3903 0.161995C18.0389 -0.0243243 17.7264 -0.0497435 17.4428 0.0848158Z" fill="#0B4977"/>
<path d="M28.238 22.1017C28.4365 21.8431 28.6663 21.6693 28.9374 21.5725C29.2793 21.4505 29.6806 21.4835 30.0469 21.6638C30.3497 21.8128 30.5379 22.0047 30.6969 22.3262C30.7932 22.521 30.7948 22.5554 30.8165 24.8725L30.8384 27.2212L33.1875 27.2432C35.4817 27.2646 35.5415 27.2674 35.7428 27.3604C36.0071 27.4825 36.2997 27.7757 36.4363 28.0554C36.5944 28.3791 36.5924 28.9246 36.4318 29.2627C36.3687 29.3955 36.2403 29.5809 36.1464 29.6748C36.0525 29.7686 35.8671 29.897 35.7342 29.9601L35.4927 30.0749L33.1557 30.0869L30.8187 30.099L30.8066 32.4576C30.7945 34.814 30.7944 34.8164 30.6943 35.0176C30.5606 35.286 30.2819 35.5605 30.0081 35.6935C29.2903 36.042 28.4218 35.7176 28.0768 34.9722C27.987 34.7781 27.984 34.7052 27.9719 32.436L27.9595 30.0997L25.6228 30.0873C23.3341 30.0751 23.2819 30.0729 23.0808 29.98C22.4055 29.6679 22.0714 28.8829 22.3135 28.1774C22.4127 27.8885 22.7225 27.5393 23.0179 27.3834L23.2422 27.2651L25.6023 27.2527L27.9624 27.2403V24.9887C27.9624 22.5002 27.9667 22.455 28.238 22.1017Z" fill="white"/>
</svg>
