<svg width="28" height="37" viewBox="0 0 28 37" fill="none" xmlns="http://www.w3.org/2000/svg">
<path fill-rule="evenodd" clip-rule="evenodd" d="M7.08667 0.210045L6.85205 0.420016V2.15879V3.89756L7.08667 4.10753L7.3213 4.3175H13.9688C21.1889 4.3175 20.912 4.33283 21.098 3.92375C21.2171 3.6619 21.2171 0.655676 21.098 0.393824C20.912 -0.0152524 21.1889 7.44812e-05 13.9688 7.44812e-05H7.3213L7.08667 0.210045ZM2.44151 2.2727C1.39001 2.55585 0.596475 3.2965 0.181606 4.38183L0.0273684 4.78522L0.00574509 19.2846C-0.0101313 29.9576 0.00588858 33.8978 0.0664486 34.2157C0.307108 35.4784 1.30595 36.497 2.5632 36.7619C2.8336 36.8189 6.15356 36.8421 14.0244 36.8421C23.7476 36.8421 25.1566 36.8286 25.5276 36.7318C26.6054 36.4506 27.3976 35.72 27.8184 34.6191L27.9726 34.2157L27.9943 19.7163C28.0101 9.04328 27.9941 5.10306 27.9336 4.78522C27.809 4.13149 27.5312 3.61318 27.0439 3.12503C26.308 2.3879 25.633 2.15879 24.1976 2.15879H23.339V3.09653C23.339 3.85395 23.3105 4.11911 23.1905 4.47573C22.9153 5.29432 22.43 5.83169 21.6183 6.21695L21.148 6.44023L14.1802 6.45995C7.36411 6.47924 7.20212 6.4765 6.73445 6.33424C5.88654 6.07628 5.15859 5.38556 4.86571 4.56115C4.7517 4.24036 4.70622 3.89756 4.67806 3.1482L4.64085 2.15879L3.73496 2.16354C3.18425 2.16641 2.67714 2.20923 2.44151 2.2727ZM11.0194 10.8973C11.4284 11.0684 11.6841 11.5892 11.5958 12.0714C11.5536 12.3026 11.2852 12.6036 9.70218 14.1959C7.73142 16.1782 7.61792 16.2623 7.0565 16.1574C6.82705 16.1145 6.62597 15.9512 5.87059 15.1947C5.11527 14.438 4.95227 14.2366 4.90946 14.0068C4.75931 13.2006 5.52404 12.4874 6.2731 12.7351C6.41426 12.7817 6.70966 12.9847 6.92963 13.186L7.32949 13.552L8.6353 12.2533C9.35347 11.539 10.0058 10.9193 10.0848 10.8763C10.2879 10.7656 10.7285 10.7755 11.0194 10.8973ZM22.5974 13.1398C23.2196 13.6044 23.2196 14.459 22.5974 14.9236C22.3976 15.0729 22.3355 15.0754 18.2641 15.0948L14.1334 15.1145L13.8512 14.9556C13.554 14.7883 13.2816 14.3464 13.2816 14.0317C13.2816 13.7273 13.5535 13.2775 13.8378 13.1114L14.1078 12.9537L18.2512 12.9711C22.3377 12.9881 22.3975 12.9904 22.5974 13.1398ZM11.0662 18.6816C11.3254 18.8123 11.5443 19.1054 11.5984 19.3942C11.6989 19.9307 11.6389 20.0129 9.77107 21.8988C8.7978 22.8816 7.90449 23.7366 7.78602 23.7988C7.45477 23.9729 6.9986 23.9363 6.6718 23.7095C6.51872 23.6032 6.08711 23.2 5.71269 22.8136C4.97691 22.0541 4.817 21.7477 4.90658 21.2693C4.96966 20.9325 5.36879 20.5299 5.70155 20.4673C6.16268 20.3807 6.44774 20.4888 6.90212 20.923L7.32546 21.3274L8.67689 19.9752C9.71338 18.9381 10.0851 18.61 10.2721 18.5672C10.5452 18.5046 10.7832 18.5389 11.0662 18.6816ZM22.5974 20.3355C23.2196 20.8001 23.2196 21.6547 22.5974 22.1193C22.3976 22.2686 22.3355 22.2711 18.2641 22.2905L14.1334 22.3102L13.8512 22.1513C13.554 21.984 13.2816 21.5422 13.2816 21.2274C13.2816 20.923 13.5535 20.4732 13.8378 20.3072L14.1078 20.1494L18.2512 20.1668C22.3377 20.1838 22.3975 20.1861 22.5974 20.3355ZM11.0662 25.8773C11.3254 26.008 11.5443 26.3011 11.5984 26.5899C11.6989 27.1264 11.6389 27.2086 9.77107 29.0946C8.7978 30.0773 7.90449 30.9323 7.78602 30.9945C7.45477 31.1686 6.9986 31.132 6.6718 30.9052C6.51872 30.7989 6.08711 30.3958 5.71269 30.0093C4.97691 29.2498 4.817 28.9434 4.90658 28.465C4.96966 28.1282 5.36879 27.7256 5.70155 27.663C6.16268 27.5764 6.44774 27.6846 6.90212 28.1187L7.32546 28.5231L8.67689 27.1709C9.71338 26.1338 10.0851 25.8057 10.2721 25.7629C10.5452 25.7003 10.7832 25.7346 11.0662 25.8773ZM22.5485 27.4962C22.8529 27.6675 23.1235 28.0892 23.1235 28.3922C23.1235 28.7453 22.8482 29.2056 22.5441 29.3609C22.2784 29.4967 22.1023 29.5025 18.1972 29.5025C14.146 29.5025 14.126 29.5018 13.8481 29.3453C13.554 29.1798 13.2816 28.7363 13.2816 28.4231C13.2816 28.1181 13.5533 27.6689 13.8378 27.5038C14.1064 27.3479 14.1283 27.3471 18.1928 27.3454C22.222 27.3438 22.2815 27.3459 22.5485 27.4962Z" fill="#447FD9"/>
</svg>
