<svg width="50" height="50" viewBox="0 0 50 50" fill="none" xmlns="http://www.w3.org/2000/svg">
<path fill-rule="evenodd" clip-rule="evenodd" d="M13.6332 0.056565C4.03862 0.964479 -2.02961 6.19857 0.634573 11.2685C2.1845 14.2179 6.43865 16.4499 12.0904 17.2786C14.0518 17.5663 17.9109 17.5914 19.8697 17.3293C27.326 16.3315 32.3462 12.7237 32.0732 8.55895C31.8071 4.50119 26.9708 1.19837 19.8213 0.192027C18.5856 0.0181793 14.8936 -0.0627498 13.6332 0.056565ZM0.00145034 16.6634C0.00309406 18.3217 0.137782 19.0251 0.634573 19.9705C2.44885 23.4232 8.05065 25.8998 14.7714 26.2206L16.1352 26.2857L16.511 25.4734C17.24 23.8972 18.2708 22.3557 19.5703 20.8984C20.1273 20.2738 20.2087 20.1438 20.0129 20.1922C19.3817 20.3486 16.6348 20.4767 15.0836 20.4223C9.20687 20.216 4.23074 18.6427 0.846033 15.9208L0 15.2405L0.00145034 16.6634ZM31.7794 17.6566C26.3661 18.2857 21.6061 21.6409 19.2363 26.4982C17.5302 29.995 17.1541 34.0058 18.1812 37.7498C20.2225 45.1903 27.4766 50.1589 35.1466 49.3698C42.2808 48.6359 47.9454 43.353 49.279 36.19C49.5093 34.953 49.5093 32.0634 49.279 30.8264C48.3773 25.9834 45.587 22.0331 41.3539 19.607C38.5929 18.0246 34.9675 17.286 31.7794 17.6566ZM35.0016 24.9347V26.5135L35.5057 26.7476C36.7387 27.3202 37.8956 29.0559 37.9011 30.3416L37.9023 30.6075H36.4519C35.2105 30.6075 35.0016 30.5861 35.0016 30.4586C35.0016 30.3767 34.914 30.138 34.8069 29.9282C34.588 29.4992 34.031 29.1572 33.5512 29.1572C33.0715 29.1572 32.5144 29.4992 32.2955 29.9282C32.1885 30.138 32.1009 30.4437 32.1009 30.6075C32.1009 31.3403 32.8346 32.0579 33.5838 32.0579C34.6673 32.0579 35.7894 32.5406 36.6012 33.3562C38.3416 35.1046 38.3219 37.779 36.556 39.5019C36.2555 39.795 35.7829 40.14 35.5057 40.2688L35.0016 40.5029V42.0818V43.6606H33.5512H32.1009V42.0818V40.5029L31.5968 40.2688C30.3638 39.6962 29.2069 37.9606 29.2014 36.6748L29.2002 36.4089H30.6506C31.892 36.4089 32.1009 36.4304 32.1009 36.5578C32.1009 36.6397 32.1885 36.8784 32.2955 37.0882C32.5144 37.5173 33.0715 37.8592 33.5512 37.8592C34.2869 37.8592 35.0016 37.1446 35.0016 36.4089C35.0016 35.6553 34.2857 34.9586 33.5115 34.9586C32.4532 34.9586 31.3255 34.4703 30.5039 33.6562C28.7605 31.9291 28.7791 29.2389 30.5465 27.5145C30.8469 27.2215 31.3196 26.8764 31.5968 26.7476L32.1009 26.5135V24.9347V23.3558H33.5512H35.0016V24.9347ZM0.00145034 25.3609C0.00309406 27.0331 0.137106 27.7259 0.646272 28.6949C1.07963 29.5195 2.11663 30.6479 3.13941 31.4077C4.04172 32.0781 6.02114 33.0691 7.40448 33.5431C9.28625 34.1878 11.7214 34.672 13.8266 34.8197L14.7451 34.8843L14.7579 33.2052C14.7674 31.9641 14.8243 31.2258 14.9764 30.3748C15.0896 29.7416 15.1596 29.201 15.1319 29.1733C15.1043 29.1457 14.5274 29.0863 13.8498 29.0413C8.51757 28.6869 3.86797 27.0825 0.700999 24.5042L0 23.9334L0.00145034 25.3609ZM0.00145034 34.0629C0.00309406 35.7261 0.137396 36.4284 0.634573 37.3746C2.49449 40.9141 8.26956 43.3975 15.1854 43.6318C16.1188 43.6634 17.0394 43.6598 17.2311 43.6239L17.5797 43.5585L16.8666 42.1792C16.2259 40.9402 15.2816 38.4758 15.2782 38.0343C15.2767 37.8505 15.038 37.8067 13.5365 37.7149C12.1653 37.631 10.1177 37.3087 8.62547 36.9419C5.4238 36.1551 2.80883 34.9223 0.700999 33.2063L0 32.6355L0.00145034 34.0629Z" fill="#FFB71B"/>
</svg>
