<svg width="39" height="37" viewBox="0 0 39 37" fill="none" xmlns="http://www.w3.org/2000/svg">
<path d="M25.2092 0H3.81958C2.80667 0 1.83514 0.402422 1.11855 1.11855C0.402378 1.83506 0 2.80667 0 3.81958V32.8484C0 33.8613 0.402422 34.8328 1.11855 35.5494C1.83506 36.2656 2.80667 36.668 3.81958 36.668H25.2092C26.2221 36.668 27.1937 36.2655 27.9103 35.5494C28.6264 34.8329 29.0288 33.8613 29.0288 32.8484V3.81958C29.0288 2.80667 28.6264 1.83514 27.9103 1.11855C27.1938 0.402378 26.2221 0 25.2092 0Z" fill="#6674F9"/>
<path d="M34.3767 9.1661H31.321C30.8992 9.1661 30.5571 9.50816 30.5571 9.93002C30.5571 10.3519 30.8992 10.6939 31.321 10.6939H34.3767C34.9844 10.6939 35.5676 10.9354 35.9973 11.3651C36.4269 11.7948 36.6684 12.378 36.6684 12.9856V29.7918C36.6684 30.3995 36.427 30.9827 35.9973 31.4123C35.5676 31.842 34.9844 32.0835 34.3767 32.0835H31.321C30.8992 32.0835 30.5571 32.4256 30.5571 32.8474C30.5571 33.2693 30.8992 33.6113 31.321 33.6113H34.3767C35.3896 33.6113 36.3611 33.2089 37.0777 32.4928C37.7939 31.7763 38.1963 30.8047 38.1963 29.7917V12.9856C38.1963 11.9727 37.7939 11.0012 37.0777 10.2846C36.3612 9.5684 35.3896 9.16602 34.3767 9.16602V9.1661Z" fill="#6674F9"/>
<path d="M9.37027 24.3272C9.19601 24.5518 9.12402 24.8397 9.17249 25.1201C9.22022 25.3962 9.37976 25.6404 9.61392 25.7947C10.5983 26.554 12.0406 26.9915 13.5003 27.0557V29.4104C13.5003 29.9703 13.9543 30.4243 14.5142 30.4243C15.0742 30.4243 15.5282 29.9703 15.5282 29.4104V26.9033C15.9653 26.8165 16.393 26.6861 16.8044 26.5138C17.6294 26.1899 18.3464 25.6401 18.8738 24.9275L18.6728 24.7788L18.8738 24.9275C19.4011 24.2149 19.7171 23.3683 19.786 22.4847C19.9569 20.7868 19.2848 19.6441 18.2776 18.8304C17.34 18.073 16.1079 17.5974 15.0235 17.1949L15.0235 17.1947L14.8458 17.1288C13.6714 16.6932 12.7682 16.3223 12.1628 15.8721C11.8643 15.6502 11.6481 15.4157 11.5084 15.1544C11.3697 14.8949 11.2992 14.5956 11.3112 14.2319L11.3113 14.2283C11.3193 13.7935 11.4484 13.3695 11.6836 13.0036C11.919 12.6379 12.2512 12.3451 12.6435 12.1574L12.6436 12.1576L12.6533 12.1525C14.0422 11.4117 16.0547 11.5555 17.6553 12.5527L17.6738 12.5642L17.694 12.5723C18.1462 12.7547 18.664 12.5895 18.927 12.179L18.927 12.179C19.19 11.7684 19.1235 11.2289 18.7691 10.8944L18.7512 10.8776L18.7305 10.8645C17.7588 10.2543 16.6653 9.86681 15.5282 9.72854V7.27954C15.5282 6.71961 15.0742 6.26562 14.5143 6.26562C13.9543 6.26562 13.5003 6.71961 13.5003 7.27954V9.77174C12.8739 9.87536 12.2677 10.078 11.704 10.3724C10.9944 10.7261 10.3938 11.2652 9.96641 11.9329L10.177 12.0677L9.96641 11.9329C9.53864 12.6011 9.29996 13.3731 9.27605 14.1661C9.22724 15.6828 9.88851 16.702 10.8449 17.4377C11.7773 18.1549 12.999 18.6094 14.1025 19.02L14.1294 19.0299L14.1297 19.0301C15.3765 19.4918 16.3321 19.8747 16.9578 20.3696C17.2649 20.6126 17.4832 20.876 17.6165 21.1808C17.7277 21.4352 17.7848 21.7303 17.7746 22.0847L17.7597 22.3084C17.7254 22.8245 17.542 23.3195 17.232 23.7338C16.922 24.148 16.4987 24.4633 16.013 24.6421L16.0129 24.6417L16.001 24.6468C15.1351 25.0174 14.1015 25.1116 13.1466 25.004C12.1917 24.8963 11.3509 24.591 10.8533 24.1973C10.6455 24.0087 10.3685 23.9144 10.0881 23.9376L10.0881 23.9376C9.80504 23.9611 9.54432 24.1022 9.37027 24.3272ZM9.37027 24.3272C9.37031 24.3272 9.37034 24.3271 9.37038 24.3271L9.56787 24.4804L9.37004 24.3275C9.37012 24.3274 9.37019 24.3273 9.37027 24.3272Z" fill="white" stroke="white" stroke-width="0.5"/>
</svg>
