<svg width="25" height="25" viewBox="0 0 25 25" fill="none" xmlns="http://www.w3.org/2000/svg">
<path fill-rule="evenodd" clip-rule="evenodd" d="M12.0799 0.0954952C11.6256 0.293912 11.6468 0.120808 11.6152 3.88739L11.5872 7.21941L11.4247 7.66708C11.1018 8.55614 10.9239 8.74526 8.68052 10.5849C7.57438 11.4919 6.59593 12.3208 6.50629 12.4268C6.27632 12.6986 6.2424 13.1082 6.42794 13.3729C6.6607 13.705 7.06034 13.8232 7.46322 13.6789C7.62333 13.6216 10.8518 11.0194 11.608 10.3381C11.7731 10.1894 12.0205 9.91663 12.1578 9.73186C12.295 9.54715 12.4144 9.39597 12.423 9.39597C12.4316 9.39597 12.5085 9.49749 12.5939 9.62158C12.6793 9.74567 12.865 9.96671 13.0065 10.1128C13.2993 10.415 17.2214 13.6492 17.3628 13.705C17.5211 13.7676 17.8699 13.7524 18.0578 13.6749C18.2917 13.5784 18.5723 13.2914 18.6835 13.035C18.7537 12.8733 18.7597 12.7883 18.7127 12.6207C18.6452 12.3794 18.7626 12.4841 16.1862 10.3694C15.2116 9.5694 14.3086 8.78734 14.1795 8.63143C14.0504 8.47553 13.863 8.17871 13.7629 7.9718C13.4168 7.25563 13.4036 7.10053 13.4023 3.71498C13.4011 0.808171 13.3959 0.651889 13.2924 0.43262C13.1047 0.0348739 12.5635 -0.115604 12.0799 0.0954952ZM7.63188 3.51135C5.58742 4.00928 3.28292 6.72036 1.76165 10.4171C0.510148 13.4585 -0.0810102 16.6846 0.0089098 19.9832C0.0604923 21.8766 0.238824 22.8998 0.661543 23.7269C1.00557 24.4003 1.60757 24.8582 2.22366 24.9151C2.75083 24.9638 3.18836 24.8001 5.04913 23.8576L5.7202 23.5177L6.5301 23.4691C9.04439 23.3182 10.1689 22.6529 10.8921 20.8885C11.2722 19.9611 11.4481 18.7795 11.5069 16.7587C11.5323 15.8867 11.5692 15.0626 11.5889 14.9272C11.6195 14.7178 11.4725 12.8953 11.4209 12.8457C11.4112 12.8364 10.7908 13.3163 10.0422 13.9122C9.29364 14.5081 8.56137 15.0543 8.4149 15.1261C7.53682 15.5561 6.41117 15.4834 5.58004 14.9429C5.21013 14.7023 4.79792 14.1934 4.62724 13.7665C4.44182 13.3027 4.41672 12.6751 4.56488 12.206C4.78373 11.5131 4.97664 11.3016 6.61901 9.95387C9.65533 7.46216 9.57273 7.541 9.73911 6.97402C9.80863 6.73696 9.82685 6.38425 9.82685 5.27389C9.82685 3.66812 9.88251 3.82747 9.24005 3.59412C8.81146 3.43848 8.08467 3.40102 7.63188 3.51135ZM16.1077 3.50641C15.9505 3.54306 15.6865 3.64673 15.5209 3.73675L15.2198 3.90039V5.42555V6.9507L15.3685 7.25568C15.4503 7.42341 15.6254 7.67358 15.7577 7.81159C15.8899 7.9496 16.8164 8.73408 17.8165 9.55489C18.8166 10.3757 19.7401 11.1572 19.8688 11.2916C20.8335 12.2989 20.7683 13.8926 19.7262 14.7767C18.9754 15.4136 17.8132 15.6373 16.9305 15.3148C16.5764 15.1855 16.5534 15.1689 14.9223 13.8664C14.2054 13.2939 13.6102 12.8338 13.5997 12.8439C13.5892 12.8541 13.5408 13.2475 13.4921 13.7183C13.3342 15.2439 13.3884 17.9687 13.6028 19.2845C13.8435 20.7619 14.4477 22.0362 15.1721 22.5944C15.9679 23.2075 16.752 23.4461 18.2406 23.5281C19.1713 23.5794 19.4532 23.6577 20.1648 24.0625C21.4674 24.8035 22.2896 25.0831 22.8602 24.979C24.0109 24.7692 24.6094 23.8534 24.8963 21.8642C25.019 21.0133 25.0374 18.2065 24.9269 17.1886C24.5239 13.4753 23.4125 10.095 21.6844 7.32689C20.6124 5.60956 19.1558 4.16991 18.014 3.69924C17.3877 3.44111 16.6899 3.3705 16.1077 3.50641Z" fill="#5051F9"/>
</svg>
