<svg width="24" height="24" viewBox="0 0 24 24" fill="none" xmlns="http://www.w3.org/2000/svg">
<path fill-rule="evenodd" clip-rule="evenodd" d="M1.74334 11.0816V22.1633H1.21801C0.806237 22.1633 0.643177 22.1899 0.46338 22.2865C0.20554 22.4251 0 22.7778 0 23.0816C0 23.3854 0.20554 23.7381 0.46338 23.8768C0.687922 23.9974 0.796359 24 5.64128 24H10.5898L10.5503 23.8316C10.5286 23.7391 10.4962 23.3258 10.4784 22.9133L10.446 22.1633H9.58135H8.71671V21.2449V20.3265H7.31541C5.97135 20.3265 5.90464 20.3209 5.68231 20.1893C5.42354 20.036 5.23002 19.7019 5.23002 19.4082C5.23002 19.1145 5.42354 18.7803 5.68231 18.6271C5.90464 18.4954 5.97135 18.4898 7.31541 18.4898H8.71671V17.5714V16.6531H7.31541C5.97135 16.6531 5.90464 16.6474 5.68231 16.5158C5.42354 16.3626 5.23002 16.0284 5.23002 15.7347C5.23002 15.441 5.42354 15.1068 5.68231 14.9536C5.90464 14.822 5.97135 14.8163 7.31541 14.8163H8.71671V13.898V12.9796H7.31541C5.97135 12.9796 5.90464 12.974 5.68231 12.8423C5.0941 12.494 5.0941 11.6284 5.68231 11.2801C5.90464 11.1485 5.97135 11.1429 7.31541 11.1429H8.71671V10.2245V9.30612H7.31541C5.97135 9.30612 5.90464 9.30049 5.68231 9.16886C5.0941 8.82055 5.0941 7.95496 5.68231 7.60666C5.90464 7.47502 5.97135 7.46939 7.31541 7.46939H8.71671V6.55102V5.63265H7.31541C5.97135 5.63265 5.90464 5.62702 5.68231 5.49539C5.0941 5.14708 5.0941 4.28149 5.68231 3.93318C5.90464 3.80155 5.97135 3.79592 7.31541 3.79592H8.71671V2.81633V1.83674H11.857C23.1996 1.83674 23.3152 1.83251 23.5366 1.71349C23.7945 1.57488 24 1.22216 24 0.918368C24 0.614572 23.7945 0.261858 23.5366 0.123246C23.3107 0.00183751 23.2074 0 8.37036 0H1.74334V11.0816ZM18.6828 3.88292C18.1935 4.01192 17.8272 4.23221 17.4583 4.61945C16.0202 6.12888 16.704 8.69749 18.6828 9.21912C18.9366 9.28604 18.762 9.29639 17.3003 9.30092C15.7438 9.30576 15.6114 9.31469 15.398 9.42937C15.2503 9.50871 15.1269 9.63876 15.0516 9.79433C14.9392 10.0266 14.9346 10.1502 14.9346 12.9796C14.9346 15.7676 14.9406 15.9353 15.0467 16.1504C15.1083 16.2753 15.5006 16.7353 15.9184 17.1726L16.678 17.9676V20.6189C16.678 23.1553 16.683 23.2807 16.7949 23.5118C16.8703 23.6674 16.9937 23.7974 17.1413 23.8768C17.3575 23.9929 17.4811 24 19.293 24C21.1049 24 21.2284 23.9929 21.4446 23.8768C21.5923 23.7974 21.7157 23.6674 21.791 23.5118C21.9029 23.2807 21.908 23.1553 21.908 20.6189V17.9676L22.6676 17.1726C23.0854 16.7353 23.4776 16.2753 23.5392 16.1504C23.6454 15.9353 23.6513 15.7676 23.6513 12.9796C23.6513 10.1502 23.6468 10.0266 23.5344 9.79433C23.459 9.63876 23.3356 9.50871 23.188 9.42937C22.9746 9.31469 22.8421 9.30576 21.2856 9.30092C19.8438 9.29645 19.6527 9.28543 19.9031 9.22114C21.2105 8.88576 22.0864 7.5019 21.8624 6.12569C21.7633 5.51712 21.5364 5.05231 21.126 4.61804C20.4707 3.92443 19.5623 3.65112 18.6828 3.88292Z" fill="#0B4977"/>
</svg>
