<svg width="46" height="32" viewBox="0 0 46 32" fill="none" xmlns="http://www.w3.org/2000/svg">
<path fill-rule="evenodd" clip-rule="evenodd" d="M15.0193 0.164181C14.5969 0.356021 14.31 0.689082 14.1799 1.13836C14.1166 1.35689 14.0955 5.63951 14.1134 14.6013L14.1398 27.7437H13.6404C13.2035 27.7437 13.1317 27.7187 13.0669 27.5443C13.0261 27.4345 12.9807 22.7452 12.9658 17.1234L12.9386 6.9019L8.39752 6.92858C4.30727 6.95251 3.82873 6.97024 3.57874 7.10712C3.20507 7.31173 2.86217 7.73441 2.74595 8.13378C2.67955 8.36224 2.65854 11.3985 2.67716 18.103L2.70384 27.7437H1.35192H0V29.3838V31.0238H22.6946H45.3891V29.3838V27.7437H44.148H42.9069V17.9759C42.9069 8.2399 42.9063 8.20665 42.7211 7.82413C42.592 7.55756 42.4092 7.36616 42.1227 7.19772L41.7101 6.95517L37.0803 6.92867L32.4505 6.90207L32.4233 17.1235C32.4085 22.7452 32.363 27.4345 32.3222 27.5443C32.2574 27.7187 32.1856 27.7437 31.7487 27.7437H31.2493L31.2757 14.6013C31.2936 5.63951 31.2725 1.35689 31.2092 1.13836C31.0791 0.689082 30.7922 0.356021 30.3698 0.164181C30.0272 0.00859956 29.6247 0 22.6946 0C15.7644 0 15.3619 0.00859956 15.0193 0.164181ZM24.4532 0.998649C26.2038 1.60741 27.4771 2.88558 28.0491 4.60806C28.2514 5.21727 28.3003 5.52728 28.3076 6.24597C28.3184 7.31979 28.1952 7.87422 27.7277 8.8562C27.047 10.286 25.5835 11.4595 24.0243 11.8259C23.287 11.9991 22.1021 11.9991 21.3648 11.8259C19.5512 11.3998 17.9392 9.91628 17.3379 8.12013C16.6174 5.96734 17.3707 3.38034 19.1231 1.99056C19.7624 1.48339 20.7443 1.00042 21.4734 0.834291C22.3129 0.643072 23.6415 0.716386 24.4532 0.998649ZM21.3375 2.80118C21.3037 2.83487 21.2762 3.3345 21.2762 3.91153V4.96053H20.2123H19.1485V6.37894V7.79735H20.2123H21.2762V8.86116V9.92497H22.6946H24.113V8.86116V7.79735H25.1768H26.2406V6.37894V4.96053H25.1795H24.1185L24.0936 3.87456L24.0686 2.78859L22.7337 2.76422C21.9995 2.75083 21.3712 2.76741 21.3375 2.80118ZM7.44665 12.1439V13.299L6.31636 13.2742L5.18606 13.2494L5.16124 12.1191L5.13642 10.9888H6.29154H7.44665V12.1439ZM11.0618 12.1191L11.037 13.2494L9.90671 13.2742L8.77641 13.299V12.1439V10.9888H9.93153H11.0866L11.0618 12.1191ZM37.2333 12.1412V13.2937H36.1251H35.017V12.1412V10.9888H36.1251H37.2333V12.1412ZM40.8484 12.1191L40.8236 13.2494L39.6933 13.2742L38.563 13.299V12.1439V10.9888H39.7181H40.8733L40.8484 12.1191ZM7.44665 16.0445V17.1996L6.31636 17.1748L5.18606 17.15L5.16124 16.0197L5.13642 14.8894H6.29154H7.44665V16.0445ZM11.0618 16.0197L11.037 17.15L9.90671 17.1748L8.77641 17.1996V16.0445V14.8894H9.93153H11.0866L11.0618 16.0197ZM37.2333 16.0419V17.1943H36.1251H35.017V16.0419V14.8894H36.1251H37.2333V16.0419ZM40.8484 16.0197L40.8236 17.15L39.6933 17.1748L38.563 17.1996V16.0445V14.8894H39.7181H40.8733L40.8484 16.0197ZM7.44665 20.0311V21.1836H6.29419H5.14174V20.0311V18.8787H6.29419H7.44665V20.0311ZM11.0813 20.0311V21.1836H9.92887H8.77641V20.0311V18.8787H9.92887H11.0813V20.0311ZM37.2333 20.0311V21.1836H36.1251H35.017V20.0311V18.8787H36.1251H37.2333V20.0311ZM40.8679 20.0311V21.1836H39.7155H38.563V20.0311V18.8787H39.7155H40.8679V20.0311ZM26.2406 23.4442V27.6551H22.8719H19.5031V23.4442V19.2333H22.8719H26.2406V23.4442Z" fill="#0B4977"/>
</svg>
