<svg width="50" height="50" viewBox="0 0 50 50" fill="none" xmlns="http://www.w3.org/2000/svg">
<path fill-rule="evenodd" clip-rule="evenodd" d="M4.3179 0.193393C3.28097 0.465171 2.49128 0.922922 1.70901 1.70552C0.914728 2.50003 0.466937 3.28243 0.192929 4.35401C0.00449354 5.09135 0 5.49829 0 21.8866C0 38.2748 0.00449354 38.6818 0.192929 39.4191C0.466937 40.4907 0.914728 41.2731 1.70901 42.0676C2.50319 42.8622 3.28527 43.3102 4.35639 43.5843C5.08034 43.7695 5.46698 43.7773 13.887 43.7773C18.7138 43.7773 22.6631 43.756 22.6631 43.7299C22.6631 43.7038 22.5328 43.4707 22.3735 43.2118C21.9188 42.4725 21.0451 40.5803 20.7638 39.7256C19.9672 37.306 19.8342 36.2258 19.8319 32.1618C19.8303 29.0956 19.82 28.9062 19.6592 28.9732C19.1374 29.1907 18.2464 29.2215 13.2307 29.1955L7.76601 29.1672L7.30464 28.8958C6.48261 28.4124 6.09519 27.4376 6.35543 26.5078C6.51749 25.9286 7.12304 25.3003 7.67965 25.134C8.27475 24.9561 18.9525 24.9705 19.4545 25.1499L19.8113 25.2775L19.8777 24.7466C20.0204 23.604 20.6254 22.3263 21.4617 21.4018L21.9957 20.8116H14.951C7.25404 20.8116 7.52375 20.8305 6.89895 20.2445C5.85391 19.2641 6.12977 17.5702 7.44462 16.8935C7.79424 16.7137 8.15694 16.707 17.6952 16.707C27.5073 16.707 27.5866 16.7086 28.0027 16.9101C28.3874 17.0965 28.7146 17.4064 28.9638 17.8205C29.0511 17.9656 29.4024 17.8666 32.2659 16.8898L35.4701 15.7967L35.4369 10.2661C35.4067 5.24928 35.3872 4.68559 35.227 4.19803C34.5489 2.13493 33.0659 0.690919 31.1118 0.19095C30.368 0.000675882 30.0325 -0.00411272 17.6899 0.00116452C5.54825 0.00634403 5.0017 0.0141622 4.3179 0.193393ZM17.7029 8.6228C18.5249 9.10616 18.9123 10.081 18.6521 11.0109C18.49 11.59 17.8845 12.2183 17.3279 12.3846C16.7566 12.5554 8.25092 12.5554 7.67965 12.3846C6.88557 12.1472 6.25188 11.239 6.25188 10.3382C6.25188 9.53147 7.0149 8.5971 7.8379 8.39598C8.01325 8.35308 10.2008 8.32552 12.6991 8.33471L17.2415 8.35142L17.7029 8.6228ZM30.7839 21.786C27.0314 23.0705 24.9689 23.8242 24.7509 23.9905C24.5687 24.1296 24.3211 24.4276 24.2007 24.653C23.9847 25.0573 23.9814 25.1205 23.95 29.5092C23.9153 34.3567 23.9932 35.7923 24.3721 37.2861C25.53 41.8529 29.1187 46.0244 34.4448 48.9949C36.7003 50.2529 37.0093 50.2785 38.8315 49.3586C41.2648 48.1304 43.5427 46.4489 45.4271 44.4899C47.7254 42.101 49.0848 39.6634 49.7379 36.7604C49.9393 35.865 49.9532 35.5255 49.9892 30.6175C50.0156 27.0187 49.9941 25.2991 49.9194 25.0213C49.7986 24.5726 49.3417 23.9998 48.938 23.791C48.7914 23.7151 46.1934 22.8077 43.1646 21.7747C38.908 20.3227 37.5248 19.8892 37.0717 19.8653C36.5276 19.8365 36.0774 19.974 30.7839 21.786ZM43.6529 28.3974C44.2346 28.6874 44.6087 29.1695 44.754 29.8164C44.9526 30.7005 44.9013 30.7862 41.2578 35.6514C38.105 39.8614 37.856 40.1669 37.3875 40.4005C36.8451 40.6709 36.4123 40.7094 35.8018 40.5415C35.4807 40.4532 34.9875 40.0136 33.0341 38.0745C31.7266 36.7767 30.5642 35.539 30.4507 35.324C30.0491 34.5632 30.2438 33.4593 30.8849 32.8611C31.4227 32.3591 32.5146 32.1846 33.1447 32.4997C33.3167 32.5856 34.0822 33.2761 34.8459 34.0342C35.6096 34.7921 36.2515 35.3924 36.2723 35.3681C36.293 35.3438 37.4365 33.8199 38.8131 31.9816C40.1897 30.1433 41.4161 28.5821 41.5384 28.5123C42.3082 28.0727 42.9334 28.0387 43.6529 28.3974Z" fill="#0B4977"/>
</svg>
