<svg width="51" height="42" viewBox="0 0 51 42" fill="none" xmlns="http://www.w3.org/2000/svg">
<path fill-rule="evenodd" clip-rule="evenodd" d="M14.12 2.52541L4.78205 5.04402L4.78165 21.8717L4.78125 38.6995H2.39062H0V40.3497V42H25.5H51V40.3497V38.6995H48.6094H46.2188V24.7472V10.7949H37.5678C32.8097 10.7949 28.5738 10.8241 28.1547 10.8597L27.3926 10.9243V24.8119V38.6995H25.5H23.6074V19.3463C23.6074 8.70211 23.5738 -0.00379937 23.5327 1.24391e-06C23.4917 0.00370184 19.2559 1.14009 14.12 2.52541ZM18.4277 9.49474V11.295H14.1943H9.96094V9.49474V7.69445H14.1943H18.4277V9.49474ZM41.0391 17.296V19.0963H36.7559H32.4727V17.296V15.4957H36.7559H41.0391V17.296ZM18.4277 17.596V19.3963H14.1943H9.96094V17.596V15.7958H14.1943H18.4277V17.596ZM41.0391 25.4973V27.2976H36.7559H32.4727V25.4973V23.697H36.7559H41.0391V25.4973ZM18.4277 25.7974V27.5977H14.1943H9.96094V25.7974V23.9971H14.1943H18.4277V25.7974ZM41.0391 33.6987V35.4989H36.7559H32.4727V33.6987V31.8984H36.7559H41.0391V33.6987ZM18.4277 33.8987V35.699H14.1943H9.96094V33.8987V32.0984H14.1943H18.4277V33.8987Z" fill="#0B4977"/>
</svg>
