<svg width="54" height="38" viewBox="0 0 54 38" fill="none" xmlns="http://www.w3.org/2000/svg">
<path fill-rule="evenodd" clip-rule="evenodd" d="M36.9585 10.0541C36.9585 15.6355 32.3913 20.1082 26.692 20.1082C20.9948 20.1082 16.4255 15.6355 16.4255 10.0541C16.4255 4.47276 20.9948 0 26.692 0C32.3913 0 36.9585 4.47276 36.9585 10.0541ZM11.1765 31.4924C11.1765 26.3258 18.3238 25.0331 26.6919 25.0331C35.1055 25.0331 42.2074 26.3703 42.2074 31.5409C42.2074 36.7076 35.0601 38.0003 26.6919 38.0003C18.2783 38.0003 11.1765 36.6631 11.1765 31.4924ZM41.0986 10.2364C41.0986 13.0786 40.2268 15.7307 38.6982 17.9337C38.5392 18.1603 38.6796 18.4657 38.9564 18.5143C39.3407 18.577 39.7352 18.6154 40.138 18.6235C44.1455 18.7267 47.7418 16.2 48.7355 12.3949C50.2083 6.74877 45.8869 1.67923 40.3818 1.67923C39.7848 1.67923 39.2126 1.73992 38.6548 1.85119C38.5784 1.86737 38.4958 1.90378 38.4545 1.96852C38.4008 2.05146 38.44 2.15868 38.4937 2.22948C40.1483 4.50126 41.0986 7.26665 41.0986 10.2364ZM47.7357 22.5937C50.4294 23.1095 52.1997 24.1594 52.933 25.6908C53.5548 26.945 53.5548 28.4016 52.933 29.6558C51.8113 32.0267 48.1922 32.7894 46.7855 32.9856C46.4942 33.0261 46.2608 32.7833 46.2918 32.496C47.0106 25.9255 41.2948 22.8101 39.8158 22.094C39.7538 22.0596 39.7394 22.011 39.7456 21.9787C39.7497 21.9585 39.7766 21.9261 39.8241 21.92C43.0238 21.8593 46.4653 22.2902 47.7357 22.5937ZM12.3007 10.2364C12.3007 13.0786 13.1725 15.7307 14.7011 17.9337C14.8601 18.1603 14.7197 18.4657 14.4429 18.5143C14.0587 18.577 13.6641 18.6154 13.2613 18.6235C9.25384 18.7267 5.65746 16.2 4.66386 12.3949C3.19102 6.74877 7.51246 1.67923 13.0175 1.67923C13.6145 1.67923 14.1867 1.73992 14.7445 1.85119C14.8209 1.86737 14.9035 1.90378 14.9448 1.96852C14.9985 2.05146 14.9593 2.15868 14.9056 2.22948C13.251 4.50126 12.3007 7.26665 12.3007 10.2364ZM5.66363 22.5937C2.96996 23.1095 1.19965 24.1594 0.466331 25.6908C-0.155444 26.945 -0.155444 28.4016 0.466331 29.6558C1.58801 32.0267 5.20711 32.7894 6.61385 32.9856C6.90511 33.0261 7.13853 32.7833 7.10755 32.496C6.38869 25.9255 12.1045 22.8101 13.5835 22.094C13.6455 22.0596 13.6599 22.011 13.6537 21.9787C13.6496 21.9585 13.6228 21.9261 13.5752 21.92C10.3755 21.8593 6.93403 22.2902 5.66363 22.5937Z" fill="#0B4977"/>
</svg>
