<svg width="41" height="47" viewBox="0 0 41 47" fill="none" xmlns="http://www.w3.org/2000/svg">
<path fill-rule="evenodd" clip-rule="evenodd" d="M10.3769 0.267958L10.0334 0.53582V2.754V4.97217L10.3769 5.24003L10.7205 5.5079H20.4542C31.0266 5.5079 30.6211 5.52745 30.8935 5.00558C31.0679 4.67154 31.0679 0.836455 30.8935 0.502406C30.6211 -0.0194576 31.0266 9.50166e-05 20.4542 9.50166e-05H10.7205L10.3769 0.267958ZM3.57507 2.89931C2.03537 3.26053 0.87341 4.20539 0.265923 5.58996L0.0400752 6.10457L0.00841245 24.6016C-0.0148351 38.2174 0.00862257 43.244 0.0972998 43.6494C0.449694 45.2603 1.91229 46.5597 3.75326 46.8976C4.14921 46.9703 9.01057 47 20.5357 47C34.7732 47 36.8365 46.9827 37.3797 46.8593C38.9579 46.5005 40.1179 45.5685 40.7341 44.164L40.9599 43.6494L40.9916 25.1524C41.0148 11.5366 40.9914 6.51004 40.9027 6.10457C40.7203 5.2706 40.3135 4.60939 39.6 3.98664C38.5224 3.04628 37.534 2.754 35.4322 2.754H34.175V3.95029C34.175 4.91654 34.1333 5.25481 33.9576 5.70976C33.5545 6.75404 32.8439 7.43957 31.6553 7.93105L30.9666 8.2159L20.7639 8.24105C10.7832 8.26565 10.546 8.26216 9.86116 8.08068C8.61957 7.75159 7.55365 6.87043 7.12479 5.81872C6.95784 5.40949 6.89126 4.97217 6.85002 4.0162L6.79553 2.754L5.46906 2.76005C4.66265 2.76373 3.9201 2.81835 3.57507 2.89931ZM16.1356 13.9018C16.7344 14.1201 17.1088 14.7845 16.9796 15.3996C16.9178 15.6946 16.5248 16.0787 14.2068 18.1099C11.321 20.6387 11.1548 20.7461 10.3327 20.6122C9.99675 20.5575 9.70231 20.3492 8.59622 19.3841C7.49022 18.4188 7.25154 18.1619 7.18885 17.8687C6.96899 16.8402 8.08877 15.9304 9.18561 16.2464C9.39231 16.3058 9.82486 16.5647 10.147 16.8216L10.7325 17.2885L12.6445 15.6317C13.6962 14.7205 14.6513 13.93 14.767 13.8751C15.0645 13.7338 15.7095 13.7465 16.1356 13.9018ZM33.0891 16.7626C34.0002 17.3554 34.0002 18.4455 33.0891 19.0383C32.7965 19.2287 32.7056 19.2319 26.7438 19.2567L20.6953 19.2818L20.2821 19.0791C19.847 18.8657 19.4481 18.302 19.4481 17.9004C19.4481 17.5121 19.8461 16.9383 20.2625 16.7265L20.6578 16.5252L26.725 16.5474C32.7087 16.5691 32.7964 16.5721 33.0891 16.7626ZM16.2042 23.8323C16.5837 23.9991 16.9042 24.373 16.9834 24.7414C17.1306 25.4258 17.0427 25.5308 14.3076 27.9367C12.8825 29.1903 11.5744 30.2811 11.401 30.3605C10.9159 30.5826 10.2479 30.5359 9.76943 30.2466C9.54526 30.111 8.91327 29.5966 8.365 29.1036C7.28762 28.1347 7.05346 27.7438 7.18464 27.1335C7.277 26.7038 7.86145 26.1902 8.3487 26.1105C9.02393 25.9999 9.44133 26.1379 10.1067 26.6917L10.7266 27.2077L12.7055 25.4827C14.2232 24.1596 14.7674 23.741 15.0412 23.6864C15.4412 23.6066 15.7897 23.6503 16.2042 23.8323ZM33.0891 25.9423C34.0002 26.535 34.0002 27.6252 33.0891 28.2179C32.7965 28.4084 32.7056 28.4115 26.7438 28.4363L20.6953 28.4615L20.2821 28.2588C19.847 28.0454 19.4481 27.4816 19.4481 27.0801C19.4481 26.6917 19.8461 26.118 20.2625 25.9061L20.6578 25.7049L26.725 25.727C32.7087 25.7488 32.7964 25.7517 33.0891 25.9423ZM16.2042 33.012C16.5837 33.1788 16.9042 33.5527 16.9834 33.9211C17.1306 34.6055 17.0427 34.7104 14.3076 37.1163C12.8825 38.37 11.5744 39.4607 11.401 39.5401C10.9159 39.7623 10.2479 39.7156 9.76943 39.4262C9.54526 39.2906 8.91327 38.7763 8.365 38.2833C7.28762 37.3143 7.05346 36.9235 7.18464 36.3132C7.277 35.8835 7.86145 35.3699 8.3487 35.2901C9.02393 35.1796 9.44133 35.3176 10.1067 35.8714L10.7266 36.3874L12.7055 34.6623C14.2232 33.3393 14.7674 32.9207 15.0412 32.8661C15.4412 32.7863 15.7897 32.83 16.2042 33.012ZM33.0175 35.0773C33.4632 35.2958 33.8594 35.8339 33.8594 36.2203C33.8594 36.6708 33.4563 37.258 33.011 37.4562C32.622 37.6294 32.3641 37.6367 26.646 37.6367C20.7139 37.6367 20.6845 37.6358 20.2776 37.4363C19.847 37.225 19.4481 36.6593 19.4481 36.2598C19.4481 35.8707 19.8459 35.2977 20.2625 35.087C20.6558 34.8881 20.6879 34.8871 26.6395 34.8849C32.5394 34.8828 32.6265 34.8855 33.0175 35.0773Z" fill="#447FD9"/>
</svg>
