<svg width="24" height="29" viewBox="0 0 24 29" fill="none" xmlns="http://www.w3.org/2000/svg">
<path fill-rule="evenodd" clip-rule="evenodd" d="M7.70101 0.0311275C4.85961 0.185064 3.2523 0.849567 1.92058 2.42095C0.662035 3.90599 0.207089 5.42348 0.055267 8.64259C-0.0184223 10.2045 -0.0184223 18.8098 0.055267 20.3717C0.204896 23.5444 0.656668 25.0811 1.8672 26.5343C3.06251 27.9693 4.44292 28.6411 6.74887 28.9101C7.77648 29.03 16.2236 29.03 17.2512 28.9101C19.5665 28.64 20.9446 27.9693 22.1282 26.5367C23.3477 25.0605 23.792 23.558 23.9427 20.4001C24.018 18.8234 24.0195 10.2263 23.9448 8.64259C23.7927 5.41879 23.3385 3.90669 22.0739 2.4143C20.7681 0.873469 19.3111 0.253093 16.5309 0.0543322C15.7284 -0.00304542 8.67397 -0.0215585 7.70101 0.0311275ZM14.77 2.38177C14.7704 3.34483 14.9962 4.49612 15.3736 5.45937C15.9492 6.92881 17.077 8.29737 18.3764 9.10358C19.2313 9.63399 20.5323 10.0682 21.2707 10.0697C21.4245 10.0699 21.6866 10.0882 21.8532 10.1102L22.1561 10.1502L22.155 14.6903C22.1536 20.2691 22.0966 21.6305 21.8072 22.9902C21.4485 24.6761 20.2867 26.0432 18.7828 26.549C17.6882 26.9173 16.4953 26.9958 12 26.9958C7.50475 26.9958 6.31187 26.9173 5.21727 26.549C4.35965 26.2606 3.59218 25.6723 2.98934 24.8415C2.28799 23.8749 2.02549 22.7881 1.90212 20.34C1.82952 18.9004 1.82952 10.1139 1.90212 8.67429C2.02549 6.2262 2.28799 5.13945 2.98934 4.17284C3.61936 3.30451 4.38505 2.73257 5.30838 2.44073C6.40224 2.09495 7.24381 2.03776 11.4086 2.02641L14.7699 2.01722L14.77 2.38177ZM17.8595 2.24254C18.5244 2.35426 19.0845 2.54306 19.5594 2.81562C20.6109 3.41913 21.4575 4.58222 21.7721 5.85556C21.8915 6.33848 22.0399 7.41014 22.0403 7.79207L22.0407 8.0827L21.5646 8.05709C19.693 7.95628 18.0208 6.75059 17.1888 4.90195C16.8517 4.15306 16.6837 3.47436 16.6344 2.66283L16.5985 2.07212L16.9681 2.11352C17.1714 2.13628 17.5725 2.19436 17.8595 2.24254ZM11.6966 10.8551C11.4133 10.9688 11.3225 11.0566 11.1879 11.3462C11.0868 11.5641 11.0767 11.7312 11.0767 13.2011V14.8165L9.56199 14.8361C7.84723 14.8585 7.76921 14.8786 7.5111 15.3666C7.26551 15.8308 7.40158 16.379 7.84469 16.7103C8.03056 16.8494 8.07424 16.853 9.55345 16.853H11.0714L11.0885 18.5603C11.1047 20.1776 11.1119 20.2771 11.2263 20.4465C11.4311 20.7498 11.699 20.9106 12 20.9106C12.301 20.9106 12.5689 20.7498 12.7737 20.4465C12.8881 20.2771 12.8954 20.1776 12.9115 18.5603L12.9286 16.853H14.4466C15.9258 16.853 15.9695 16.8494 16.1554 16.7103C16.4315 16.5038 16.5674 16.2722 16.6003 15.9521C16.638 15.5847 16.4667 15.2069 16.171 15.0049C15.9586 14.8599 15.9124 14.8554 14.4381 14.8361L12.9233 14.8165V13.2011C12.9233 11.7193 12.9139 11.5654 12.8097 11.341C12.6074 10.9052 12.1111 10.6886 11.6966 10.8551Z" fill="#0B4977"/>
</svg>
