<svg width="28" height="33" viewBox="0 0 28 33" fill="none" xmlns="http://www.w3.org/2000/svg">
<path fill-rule="evenodd" clip-rule="evenodd" d="M8.98451 0.0354209C5.66955 0.21059 3.79435 0.966748 2.24068 2.75488C0.772374 4.44474 0.241604 6.17155 0.0644781 9.83467C-0.0214927 11.612 -0.0214927 21.4043 0.0644781 23.1816C0.239045 26.7919 0.766113 28.5405 2.1784 30.1942C3.57292 31.8271 5.18341 32.5916 7.87369 32.8977C9.07257 33.0341 18.9275 33.0341 20.1264 32.8977C22.8276 32.5903 24.4354 31.8272 25.8162 30.1969C27.239 28.5171 27.7573 26.8074 27.9332 23.2139C28.021 21.4197 28.0228 11.6369 27.9356 9.83467C27.7582 6.16621 27.2283 4.44554 25.7529 2.7473C24.2295 0.993948 22.5296 0.288003 19.286 0.0618263C18.3498 -0.00346547 10.1196 -0.0245321 8.98451 0.0354209ZM17.2317 2.71029C17.2322 3.80618 17.4956 5.11628 17.9359 6.21238C18.6075 7.8845 19.9231 9.44184 21.4392 10.3592C22.4366 10.9628 23.9543 11.4569 24.8159 11.4586C24.9952 11.4589 25.301 11.4797 25.4953 11.5047L25.8488 11.5502L25.8475 16.7166C25.8459 23.0648 25.7794 24.614 25.4418 26.1613C25.0232 28.0797 23.6678 29.6353 21.9133 30.211C20.6362 30.63 19.2445 30.7194 14 30.7194C8.75554 30.7194 7.36385 30.63 6.08681 30.211C5.08626 29.8827 4.19088 29.2133 3.48756 28.2679C2.66932 27.1679 2.36307 25.9313 2.21914 23.1455C2.13444 21.5073 2.13444 11.509 2.21914 9.87075C2.36307 7.08499 2.66932 5.84834 3.48756 4.74841C4.22259 3.7603 5.11589 3.10947 6.19311 2.77739C7.46928 2.38391 8.45111 2.31883 13.31 2.30592L17.2315 2.29545L17.2317 2.71029ZM20.8361 2.55186C21.6119 2.67898 22.2653 2.89383 22.8193 3.20398C24.046 3.89074 25.0337 5.21425 25.4008 6.66322C25.5401 7.21276 25.7132 8.43223 25.7137 8.86684L25.7141 9.19755L25.1587 9.16841C22.9752 9.0537 21.0243 7.6817 20.0536 5.57808C19.6604 4.7259 19.4643 3.95358 19.4068 3.03011L19.365 2.35793L19.7962 2.40504C20.0333 2.43094 20.5013 2.49703 20.8361 2.55186ZM13.646 12.3523C13.3155 12.4818 13.2095 12.5816 13.0526 12.9112C12.9346 13.1591 12.9229 13.3493 12.9229 15.0219V16.8601L11.1557 16.8825C9.1551 16.9079 9.06408 16.9308 8.76295 17.4861C8.47643 18.0144 8.63517 18.6382 9.15214 19.0152C9.36899 19.1734 9.41995 19.1775 11.1457 19.1775H12.9167L12.9366 21.1203C12.9555 22.9607 12.9639 23.0739 13.0974 23.2667C13.3363 23.6119 13.6489 23.7948 14 23.7948C14.3512 23.7948 14.6638 23.6119 14.9027 23.2667C15.0361 23.0739 15.0446 22.9607 15.0635 21.1203L15.0834 19.1775H16.8544C18.5801 19.1775 18.6311 19.1734 18.8479 19.0152C19.1701 18.7802 19.3287 18.5166 19.367 18.1523C19.4109 17.7343 19.2112 17.3044 18.8662 17.0746C18.6184 16.9095 18.5644 16.9044 16.8444 16.8825L15.0772 16.8601V15.0219C15.0772 13.3358 15.0662 13.1607 14.9446 12.9053C14.7086 12.4094 14.1296 12.1629 13.646 12.3523Z" fill="#0B4977"/>
</svg>
