<svg width="28" height="24" viewBox="0 0 28 24" fill="none" xmlns="http://www.w3.org/2000/svg">
<path fill-rule="evenodd" clip-rule="evenodd" d="M17.79 0.0487538C17.3918 0.100605 17.1779 0.199295 16.9193 0.450308C16.8173 0.549332 16.6189 0.73123 16.4784 0.854481C16.1415 1.15005 16.0771 1.38597 16.1176 2.17549L16.1484 2.77381L15.9775 2.94474C15.8096 3.11254 15.8071 3.12335 15.836 3.54479C15.8697 4.03712 15.9724 4.32317 16.1941 4.54233C16.2796 4.62687 16.4034 4.82731 16.4692 4.98782C16.7249 5.61154 17.3217 6.17416 17.8993 6.3359C18.2733 6.44061 18.9107 6.39276 19.2321 6.23593C19.5984 6.05721 19.9672 5.66334 20.1955 5.20698C20.3019 4.99428 20.3889 4.78833 20.3889 4.74923C20.3889 4.71008 20.4615 4.61701 20.5502 4.54238C20.8258 4.31053 20.9081 4.08235 20.9133 3.53593C20.9179 3.0627 20.9121 3.03908 20.7605 2.90831C20.6079 2.77665 20.6048 2.76362 20.663 2.49228C20.7511 2.08187 20.7364 1.49669 20.6303 1.18525C20.4347 0.611431 19.79 0.191275 18.8852 0.0480298C18.4795 -0.0161856 18.2874 -0.0160742 17.79 0.0487538ZM20.0343 2.37627C20.1977 2.44394 20.202 2.45496 20.1775 2.74947C20.15 3.08147 20.2166 3.22015 20.4035 3.22015C20.5086 3.22015 20.5134 3.24404 20.4785 3.59608C20.4541 3.84375 20.4036 4.01952 20.3305 4.11125C20.2696 4.18783 20.1168 4.4594 19.9909 4.7147C19.7366 5.23093 19.2928 5.73385 18.974 5.86701C18.8659 5.91218 18.6419 5.94916 18.4763 5.94916C17.726 5.94916 17.1048 5.48372 16.7664 4.66819C16.6965 4.49972 16.5777 4.29465 16.5024 4.2125C16.3659 4.06369 16.2746 3.74501 16.27 3.40115C16.2681 3.25869 16.2904 3.22015 16.375 3.22015C16.5368 3.22015 16.6574 3.0671 16.6574 2.8617V2.67824L17.3397 2.64783C18.2259 2.60835 18.8362 2.44778 19.3262 2.12509L19.5165 1.99972L19.6912 2.1531C19.7873 2.23748 19.9417 2.3379 20.0343 2.37627ZM4.97941 5.26952C4.82074 5.32616 4.57374 5.46846 4.4306 5.58576C3.9053 6.01622 3.66353 6.52192 3.66765 7.18156C3.67049 7.63847 3.78761 8.00762 4.03779 8.34852C4.73141 9.29354 6.2845 9.3934 7.068 8.54334C7.99926 7.5331 7.71077 5.95762 6.48477 5.3578C6.06957 5.15463 5.4096 5.11592 4.97941 5.26952ZM15.7385 7.31211C14.6628 7.66142 13.7005 8.13516 13.3455 8.49015C12.9492 8.88647 12.9259 9.01646 12.9259 10.8323V12.4097H18.3839H23.842V10.8323C23.842 9.0095 23.8222 8.90162 23.4119 8.48547C23.1258 8.19525 22.2951 7.76379 21.3914 7.43603C20.5232 7.12113 20.6133 7.10559 20.245 7.63402C19.7022 8.41301 18.9705 9.32016 18.9547 9.23372C18.9464 9.18856 18.907 8.91226 18.8669 8.6197C18.8008 8.13711 18.8031 8.06749 18.8912 7.86782C19.1174 7.35527 18.9888 7.17443 18.398 7.17443C18.1809 7.17443 17.9642 7.18936 17.9166 7.20768C17.7754 7.26182 17.752 7.56368 17.8678 7.83636C17.9633 8.06125 17.9657 8.12251 17.8993 8.61602C17.8596 8.91059 17.8208 9.18649 17.8131 9.22916C17.7969 9.31938 17.1127 8.4784 16.5753 7.70765C16.3709 7.41436 16.1866 7.17694 16.1659 7.17994C16.1453 7.18301 15.9529 7.24243 15.7385 7.31211ZM21.8465 9.32729C21.921 9.39468 21.9484 9.4995 21.9484 9.71715V10.0148H22.2364C22.5522 10.0148 22.7281 10.1209 22.7281 10.3115C22.7281 10.5226 22.5681 10.6275 22.246 10.6275H21.9484V10.9155C21.9484 11.2364 21.8419 11.4072 21.642 11.4072C21.4559 11.4072 21.3448 11.2409 21.3254 10.9334L21.3079 10.6553L21.0016 10.6269C20.6228 10.5917 20.556 10.5509 20.556 10.3543C20.556 10.136 20.7064 10.0249 21.0298 10.0045C21.2682 9.98949 21.3053 9.97178 21.2894 9.8805C21.2602 9.71119 21.3324 9.41345 21.4255 9.32044C21.537 9.20894 21.719 9.21189 21.8465 9.32729ZM5.09292 9.74182C4.48223 9.8199 3.90195 10.2241 3.6359 10.7567C3.37837 11.2725 3.36874 11.4715 3.50513 13.4542C3.57419 14.4582 3.65278 15.8453 3.67979 16.5366C3.72084 17.5872 3.74852 17.8516 3.84854 18.1486C4.1107 18.9267 4.61723 19.3453 5.50116 19.5144C6.01516 19.6128 10.4123 19.6319 10.5904 19.5366C10.6923 19.4821 10.6981 19.4074 10.6973 18.1582C10.6968 17.4317 10.6737 16.8014 10.6458 16.7574C10.6063 16.6948 10.27 16.6597 9.0912 16.5948L7.58713 16.512L7.55744 16.257C7.54112 16.1167 7.51277 15.601 7.49451 15.1109C7.45491 14.0498 7.32347 12.2251 7.24171 11.6021C7.07674 10.3444 6.21499 9.59835 5.09292 9.74182ZM0.473533 11.8205C0.379076 11.8617 0.24786 11.9639 0.181974 12.0476C-0.0694295 12.3672 -0.0674242 12.4627 0.232322 14.4383C0.386038 15.4515 0.56036 16.6062 0.619675 17.0045C0.838664 18.4743 1.04328 19.1266 1.50928 19.8405C2.29763 21.0481 3.49132 21.7696 5.07304 21.9945C5.61979 22.0723 9.04832 22.0232 9.36243 21.9331C9.46513 21.9036 9.62971 21.8016 9.72807 21.7062C10.1805 21.2677 10.0621 20.5048 9.50028 20.2382C9.32116 20.1532 9.11899 20.1476 7.42411 20.1802C5.86835 20.2102 5.46674 20.2018 5.08139 20.1316C3.75743 19.8904 2.86103 19.002 2.59938 17.6719C2.55132 17.4273 2.34814 16.1393 2.14792 14.8096C1.94336 13.4512 1.74481 12.3096 1.69468 12.204C1.5124 11.8198 0.909841 11.6306 0.473533 11.8205ZM10.109 13.3274C9.65087 13.5556 9.44464 13.9307 9.48329 14.4652C9.51515 14.906 9.70256 15.1881 10.0927 15.3825C10.3631 15.5173 10.4411 15.5286 11.0989 15.5286H11.812V19.1404V22.7523L11.9373 22.9364C12.0063 23.0377 12.1334 23.173 12.2199 23.2371L12.3771 23.3536H18.3741H24.3711L24.574 23.2274C24.9703 22.9809 24.9559 23.1361 24.9559 19.1305V15.5368L25.7589 15.5188C26.5509 15.5009 26.5652 15.4984 26.8031 15.3312C27.3969 14.9139 27.4844 14.0562 26.9837 13.5602C26.609 13.1889 27.3226 13.2188 18.4385 13.2024L10.3895 13.1876L10.109 13.3274ZM18.7165 15.7783C18.8044 15.8238 18.9348 15.9429 19.0061 16.0429C19.1207 16.2035 19.1382 16.3013 19.1556 16.8791L19.1754 17.5335H19.8387H20.5019L20.7047 17.7193C20.8808 17.8807 20.9103 17.9446 20.9297 18.2066C20.9468 18.4368 20.9265 18.5488 20.8442 18.6797C20.669 18.9582 20.4279 19.0373 19.754 19.0373H19.1637V19.5594C19.1637 20.2523 19.1261 20.4078 18.9056 20.6283C18.658 20.8759 18.4139 20.9183 18.0817 20.7713C17.7093 20.6066 17.6071 20.3569 17.6054 19.6082L17.6042 19.0373H16.9293H16.2545L16.0382 18.8211C15.8459 18.6287 15.8221 18.5749 15.8228 18.3338C15.8238 17.9976 15.9085 17.8242 16.1513 17.6605C16.3197 17.547 16.4062 17.5335 16.9674 17.5335H17.5951L17.6136 16.8332L17.6321 16.1329L17.8666 15.9143C18.0602 15.7338 18.1409 15.6956 18.3289 15.6956C18.4541 15.6956 18.6285 15.7328 18.7165 15.7783Z" fill="#07B02C"/>
</svg>
