<svg width="42" height="42" viewBox="0 0 42 42" fill="none" xmlns="http://www.w3.org/2000/svg">
<rect width="42" height="42" rx="9" fill="#72D284"/>
<path fill-rule="evenodd" clip-rule="evenodd" d="M20.4281 7.05136C19.9226 7.18102 19.6216 7.38521 18.5773 8.30668C18.0057 8.81114 17.4989 9.22367 17.4513 9.22345C17.4036 9.22323 16.6138 9.16398 15.6962 9.09176C13.8077 8.94316 13.6005 8.95482 12.9883 9.24409C12.5629 9.44515 12.1749 9.79033 11.9608 10.1584C11.8566 10.3374 10.7728 13.5517 10.7728 13.6817C10.7728 13.6927 10.1513 14.0673 9.39152 14.5142C8.43261 15.0782 7.92409 15.4122 7.72857 15.6062C7.13334 16.197 6.86956 17.091 7.06222 17.8646C7.0974 18.0059 7.39072 18.7664 7.71391 19.5546L8.30165 20.9877L7.72863 22.3745C7.41348 23.1372 7.12021 23.8959 7.07694 24.0603C6.9271 24.6295 7.01337 25.2795 7.31167 25.828C7.57048 26.304 8.02956 26.6576 9.5651 27.5635C10.3532 28.0285 11.0084 28.4258 11.0212 28.4464C11.0338 28.467 11.1941 29.1091 11.3773 29.8733C11.5656 30.6593 11.7792 31.4127 11.8691 31.6079C12.0726 32.05 12.5482 32.5314 12.9856 32.738C13.5574 33.008 13.8019 33.0218 15.6222 32.8871C16.5204 32.8206 17.3168 32.7669 17.392 32.7678C17.4885 32.7689 17.7772 32.9881 18.3726 33.5123C18.8366 33.921 19.3166 34.3368 19.4393 34.4363C20.2058 35.0587 21.2345 35.1753 22.0999 34.7381C22.3068 34.6335 22.8057 34.24 23.452 33.6717C24.4088 32.8303 24.4906 32.771 24.695 32.7701C24.8153 32.7695 25.5292 32.8181 26.2814 32.8781C27.9754 33.0131 28.2389 33.0138 28.6542 32.8844C29.2998 32.6833 29.8165 32.2546 30.1085 31.6779C30.236 31.4259 30.489 30.4946 30.8485 28.9538L30.9657 28.4517L32.4528 27.5611C34.028 26.6179 34.4353 26.3025 34.6954 25.8242C34.9913 25.2799 35.0773 24.6288 34.9283 24.0603C34.8853 23.8959 34.5912 23.1372 34.2749 22.3745L33.6997 20.9876L34.3004 19.5311C34.6844 18.5998 34.9241 17.9398 34.965 17.701C35.0917 16.9616 34.8245 16.1492 34.2766 15.6077C34.0846 15.4179 33.5135 15.0415 32.4851 14.4271L30.9756 13.5251L30.6177 12.0616C30.4209 11.2567 30.203 10.4799 30.1334 10.3354C29.8965 9.843 29.3146 9.31631 28.8052 9.13327C28.3078 8.95444 28.0485 8.94984 26.3175 9.08897C25.395 9.16305 24.6005 9.22372 24.5519 9.22378C24.5034 9.22383 24.0479 8.85276 23.5399 8.39916C22.4608 7.43574 22.2498 7.2792 21.8322 7.13169C21.4474 6.99573 20.7911 6.95822 20.4281 7.05136ZM22.5282 12.0945C24.4048 12.4367 26.0325 13.2801 27.3457 14.5907C28.6973 15.9394 29.5438 17.5585 29.9008 19.4775C30.0311 20.178 30.0311 21.8144 29.9008 22.5149C29.1875 26.3498 26.3511 29.1888 22.5197 29.9029C21.8199 30.0333 20.185 30.0333 19.4852 29.9029C17.568 29.5456 15.9114 28.6733 14.5747 27.3172C13.2519 25.9752 12.4161 24.3179 12.0773 22.3651C11.9848 21.8316 11.9848 20.1608 12.0773 19.6273C12.7904 15.5174 15.8939 12.5357 20 12.0156C20.524 11.9492 21.9808 11.9947 22.5282 12.0945ZM20.2366 13.6377C19.0225 13.7881 17.8569 14.2185 16.845 14.8901C16.3172 15.2403 15.252 16.3065 14.902 16.8348C14.3438 17.6775 13.9542 18.6171 13.7441 19.6273C13.6096 20.2732 13.6096 21.7192 13.7441 22.3651C14.0637 23.9019 14.6905 25.0772 15.7777 26.1782C16.8665 27.2811 18.0827 27.9379 19.6349 28.2614C20.2724 28.3943 21.7161 28.3942 22.3832 28.2611C23.8595 27.9668 25.0826 27.3111 26.1797 26.2259C27.2815 25.136 27.9376 23.9187 28.2609 22.3651C28.3953 21.7193 28.3953 20.2732 28.2609 19.6273C28.0507 18.6171 27.6611 17.6775 27.1029 16.8348C26.7431 16.2916 25.6833 15.2358 25.1326 14.8719C24.304 14.3244 23.353 13.9273 22.4213 13.7398C22.017 13.6585 20.6027 13.5924 20.2366 13.6377ZM25.4896 17.8211C25.7323 17.9451 25.9258 18.2605 25.9258 18.5322C25.9258 18.625 25.8782 18.7923 25.8201 18.904C25.6892 19.1556 20.768 24.0736 20.5265 24.1941C20.2935 24.3104 20.0573 24.3044 19.8105 24.1757C19.5597 24.045 16.2871 20.7617 16.1665 20.5198C15.833 19.8511 16.5762 19.1072 17.2443 19.441C17.3406 19.4891 18.0409 20.1481 18.8007 20.9054L20.1821 22.2823L22.3838 20.0843C23.5948 18.8754 24.6594 17.8478 24.7497 17.8007C24.9753 17.6832 25.2334 17.6903 25.4896 17.8211Z" fill="white"/>
</svg>
