<svg width="27" height="27" viewBox="0 0 27 27" fill="none" xmlns="http://www.w3.org/2000/svg">
<path fill-rule="evenodd" clip-rule="evenodd" d="M14.964 0.0751033C21.7727 0.814119 26.9743 6.61699 26.9743 13.4736C26.9743 15.5536 26.5155 17.5252 25.596 19.3962C23.3179 24.032 18.6477 26.9434 13.4899 26.9434C5.5119 26.9434 -0.73588 20.0375 0.0700954 12.1101C0.491011 7.97034 2.83946 4.21969 6.38918 2.01801C8.89407 0.464444 12.0216 -0.244248 14.964 0.0751033ZM12.4365 4.03937C10.0621 4.39961 8.36288 5.22438 6.80237 6.77403C5.45192 8.11513 4.55607 9.77923 4.16145 11.6798C3.98624 12.5239 3.98292 14.4187 4.15535 15.225C4.39312 16.3369 4.7388 17.2663 5.26254 18.2014L5.5054 18.6351L12.0725 12.0777C17.9101 6.2487 18.6266 5.5107 18.5227 5.43442C18.2589 5.24063 17.0773 4.67767 16.5711 4.50459C15.6143 4.17739 14.8976 4.05853 13.7244 4.03254C13.1279 4.01934 12.5484 4.02245 12.4365 4.03937ZM14.8849 14.8863L8.31855 21.4444L8.78061 21.7025C9.81656 22.281 10.966 22.6736 12.1654 22.8583C12.9875 22.9848 14.4633 22.9493 15.3093 22.7825C18.5412 22.1453 21.2288 19.8583 22.4095 16.7407C22.9377 15.3459 23.1122 13.4616 22.8531 11.9502C22.7764 11.5032 22.6172 10.8484 22.4992 10.4949C22.3052 9.91366 21.7542 8.73955 21.5373 8.44483C21.4609 8.34107 20.7219 9.05666 14.8849 14.8863Z" fill="#FF6320"/>
</svg>
