<svg width="28" height="37" viewBox="0 0 28 37" fill="none" xmlns="http://www.w3.org/2000/svg">
<path d="M24.4543 18.8554C23.7889 18.5291 22.9846 18.8037 22.6583 19.4723C22.4322 19.9375 22.1932 20.3832 21.9412 20.8128C21.1305 22.2018 20.1873 23.4131 19.1342 24.4274C16.2626 27.1892 11.763 27.1859 8.89464 24.4242C7.83838 23.4067 6.8984 22.1921 6.0844 20.8031C5.83245 20.3703 5.59019 19.9213 5.36085 19.4529C5.0346 18.7875 4.23029 18.5097 3.56488 18.836C2.89947 19.1622 2.62167 19.9665 2.94792 20.6319C3.19341 21.1326 3.45182 21.6171 3.72316 22.0855C4.66959 23.72 5.77753 25.1542 7.03084 26.3622C8.59423 27.8675 10.5646 28.8107 12.6836 29.0917C13.2101 29.1789 14.0532 29.2791 15.3517 29.0917C17.4675 28.8107 19.4379 27.8707 21.0013 26.3655C22.2578 25.1574 23.3657 23.72 24.3154 22.0823C24.5835 21.6236 24.8355 21.1488 25.0777 20.6546C25.3975 19.9859 25.1229 19.1784 24.4543 18.8554Z" fill="white"/>
<path d="M25.5762 4.89339C24.1711 3.35907 22.1845 2.6129 20.5113 2.25112C20.3143 1.42097 19.5681 0.800781 18.6798 0.800781C17.6397 0.800781 16.7966 1.64385 16.7966 2.68396C16.7966 3.72407 17.6397 4.56714 18.6798 4.56714C19.3194 4.56714 19.8814 4.25059 20.2238 3.76283C21.6548 4.07293 23.3183 4.69635 24.4489 5.9335C25.5439 7.13189 25.9767 8.75989 25.7377 10.7787C25.3856 13.4307 24.7783 15.8501 23.9353 17.9981C24.4844 18.0143 24.9818 18.2469 25.3404 18.6151C26.2416 16.3346 26.8876 13.7731 27.2591 10.9758V10.9661C27.5531 8.47886 26.9878 6.43417 25.5762 4.89339Z" fill="#0B4977"/>
<path d="M9.35777 0.800781C8.46625 0.800781 7.72008 1.42097 7.52627 2.25112C5.85305 2.6129 3.86651 3.35583 2.46139 4.89339C1.04981 6.4374 0.481302 8.47886 0.775246 10.9629V10.9725C1.14671 13.7666 1.79275 16.3249 2.69073 18.6022C3.05251 18.2372 3.54995 18.0078 4.09908 17.9949C3.25601 15.8469 2.64874 13.4275 2.29665 10.7755C2.05762 8.75989 2.49369 7.12866 3.58548 5.93027C4.71604 4.69312 6.37957 4.07293 7.81053 3.7596C8.14969 4.24413 8.71497 4.56391 9.35454 4.56391C10.3947 4.56391 11.2377 3.72084 11.2377 2.68073C11.241 1.64385 10.3979 0.800781 9.35777 0.800781Z" fill="#0B4977"/>
<path d="M12.8415 35.2921V14.7418C12.8415 14.0183 13.4294 13.4336 14.1497 13.4336H14.1723C14.9217 13.4336 15.529 14.0409 15.529 14.7903V33.3734C15.529 33.803 15.8778 34.1518 16.3074 34.1518H24.5088C25.1839 34.1518 25.7298 34.6977 25.7298 35.3728C25.7298 36.0253 25.2001 36.5551 24.5476 36.5551H14.1013C13.4068 36.5518 12.8415 35.9898 12.8415 35.2921Z" fill="#0B4977"/>
</svg>
