<svg width="28" height="37" viewBox="0 0 28 37" fill="none" xmlns="http://www.w3.org/2000/svg">
<path d="M24.4542 18.8554C23.7888 18.5291 22.9845 18.8037 22.6582 19.4723C22.4321 19.9375 22.1931 20.3832 21.9411 20.8128C21.1303 22.2018 20.1871 23.4131 19.1341 24.4274C16.2625 27.1892 11.7629 27.1859 8.89451 24.4242C7.83825 23.4067 6.89828 22.1921 6.08428 20.8031C5.83233 20.3703 5.59006 19.9213 5.36072 19.4529C5.03448 18.7875 4.23017 18.5097 3.56476 18.836C2.89934 19.1622 2.62155 19.9665 2.9478 20.6319C3.19329 21.1326 3.4517 21.6171 3.72303 22.0855C4.66947 23.72 5.77741 25.1542 7.03071 26.3622C8.59411 27.8675 10.5645 28.8107 12.6835 29.0917C13.21 29.1789 14.0531 29.2791 15.3516 29.0917C17.4674 28.8107 19.4377 27.8707 21.0011 26.3655C22.2577 25.1574 23.3656 23.72 24.3153 22.0823C24.5834 21.6236 24.8353 21.1488 25.0776 20.6546C25.3974 19.9859 25.1228 19.1784 24.4542 18.8554Z" fill="#3DA7C8"/>
<path d="M25.5762 4.89339C24.1711 3.35907 22.1845 2.6129 20.5113 2.25112C20.3143 1.42097 19.5681 0.800781 18.6798 0.800781C17.6397 0.800781 16.7966 1.64385 16.7966 2.68396C16.7966 3.72407 17.6397 4.56714 18.6798 4.56714C19.3194 4.56714 19.8814 4.25059 20.2238 3.76283C21.6548 4.07293 23.3183 4.69635 24.4489 5.9335C25.5439 7.13189 25.9767 8.75989 25.7377 10.7787C25.3856 13.4307 24.7783 15.8501 23.9353 17.9981C24.4844 18.0143 24.9818 18.2469 25.3404 18.6151C26.2416 16.3346 26.8876 13.7731 27.2591 10.9758V10.9661C27.5531 8.47886 26.9878 6.43417 25.5762 4.89339Z" fill="white"/>
<path d="M9.35771 0.800781C8.46619 0.800781 7.72002 1.42097 7.52621 2.25112C5.85299 2.6129 3.86644 3.35583 2.46133 4.89339C1.04975 6.4374 0.481241 8.47886 0.775185 10.9629V10.9725C1.14665 13.7666 1.79268 16.3249 2.69067 18.6022C3.05245 18.2372 3.54989 18.0078 4.09902 17.9949C3.25594 15.8469 2.64868 13.4275 2.29659 10.7755C2.05756 8.75989 2.49363 7.12866 3.58542 5.93027C4.71598 4.69312 6.37951 4.07293 7.81046 3.7596C8.14963 4.24413 8.71491 4.56391 9.35448 4.56391C10.3946 4.56391 11.2377 3.72084 11.2377 2.68073C11.2409 1.64385 10.3978 0.800781 9.35771 0.800781Z" fill="white"/>
<path d="M12.8414 35.2921V14.7418C12.8414 14.0183 13.4293 13.4336 14.1496 13.4336H14.1723C14.9217 13.4336 15.5289 14.0409 15.5289 14.7903V33.3734C15.5289 33.803 15.8778 34.1518 16.3074 34.1518H24.5088C25.1839 34.1518 25.7298 34.6977 25.7298 35.3728C25.7298 36.0253 25.2 36.5551 24.5475 36.5551H14.1012C13.4067 36.5518 12.8414 35.9898 12.8414 35.2921Z" fill="white"/>
</svg>
