<svg width="32" height="32" viewBox="0 0 32 32" fill="none" xmlns="http://www.w3.org/2000/svg">
<path fill-rule="evenodd" clip-rule="evenodd" d="M15.4642 29.6024C14.922 29.6024 14.4819 29.1624 14.4819 28.6202V24.4803C14.4819 23.9381 14.922 23.498 15.4642 23.498C16.0064 23.498 16.4464 23.9381 16.4464 24.4803V28.6202C16.4464 29.1624 16.0064 29.6024 15.4642 29.6024" fill="#0B4977"/>
<path fill-rule="evenodd" clip-rule="evenodd" d="M15.4642 3.40896C13.0727 3.40896 11.1266 5.36561 11.1266 7.77149V13.9113C11.1266 16.3145 13.0727 18.2725 15.4642 18.2725C17.8557 18.2725 19.8019 16.3145 19.8019 13.9113V7.77149C19.8019 5.36561 17.8557 3.40896 15.4642 3.40896M15.4643 20.2369C11.9897 20.2369 9.16211 17.3988 9.16211 13.9111V7.77138C9.16211 4.2824 11.9897 1.44434 15.4643 1.44434C18.9388 1.44434 21.7664 4.2824 21.7664 7.77138V13.9111C21.7664 17.3988 18.9388 20.2369 15.4643 20.2369" fill="#0B4977"/>
<mask id="mask0_4301_107056" style="mask-type:luminance" maskUnits="userSpaceOnUse" x="4" y="12" width="23" height="14">
<path fill-rule="evenodd" clip-rule="evenodd" d="M4.00537 12.9707H26.9241V25.4624H4.00537V12.9707Z" fill="white"/>
</mask>
<g mask="url(#mask0_4301_107056)">
<path fill-rule="evenodd" clip-rule="evenodd" d="M15.4641 25.4624C9.14487 25.4624 4.00439 20.2997 4.00439 13.953C4.00439 13.4108 4.44445 12.9707 4.98665 12.9707C5.53017 12.9707 5.96891 13.4108 5.96891 13.953C5.96891 19.2152 10.228 23.4979 15.4641 23.4979C20.7001 23.4979 24.9592 19.2152 24.9592 13.953C24.9592 13.4108 25.3993 12.9707 25.9415 12.9707C26.485 12.9707 26.9237 13.4108 26.9237 13.953C26.9237 20.2997 21.7833 25.4624 15.4641 25.4624" fill="#0B4977"/>
</g>
<path d="M11 2L24 28" stroke="white" stroke-width="2" stroke-linecap="round" stroke-linejoin="round"/>
<path d="M9 2L22 28" stroke="#0B4977" stroke-width="2" stroke-linecap="round" stroke-linejoin="round"/>
</svg>
