<svg width="33" height="28" viewBox="0 0 33 28" fill="none" xmlns="http://www.w3.org/2000/svg">
<path fill-rule="evenodd" clip-rule="evenodd" d="M2.96017 7.50813C2.96017 6.78482 3.54654 6.19845 4.26985 6.19845H18.6763C19.3996 6.19845 19.986 6.78482 19.986 7.50813V20.6049C19.986 21.3282 19.3996 21.9146 18.6763 21.9146H4.26985C3.54654 21.9146 2.96017 21.3282 2.96017 20.6049V7.50813ZM4.26985 3.5791C2.09991 3.5791 0.34082 5.33819 0.34082 7.50813V20.6049C0.34082 22.7748 2.09991 24.5339 4.26985 24.5339H18.6763C20.8462 24.5339 22.6053 22.7748 22.6053 20.6049V16.601L29.7023 21.6702C30.1015 21.9554 30.6266 21.9935 31.0628 21.769C31.499 21.5445 31.7732 21.0951 31.7732 20.6045V7.50771C31.7732 7.01712 31.499 6.56767 31.0628 6.34319C30.6266 6.1187 30.1015 6.15683 29.7023 6.44198L22.6053 11.5112V7.50813C22.6053 5.33819 20.8462 3.5791 18.6763 3.5791H4.26985ZM29.1538 18.0595L23.549 14.0561L29.1538 10.0527V18.0595Z" fill="#0B4977"/>
<path d="M22.6053 16.601L22.7576 16.3878C22.6777 16.3308 22.5727 16.3232 22.4855 16.3681C22.3982 16.413 22.3434 16.5028 22.3434 16.601H22.6053ZM29.7023 21.6702L29.55 21.8833L29.7023 21.6702ZM31.0628 21.769L30.9429 21.5361H30.9429L31.0628 21.769ZM31.0628 6.34319L30.9429 6.57609H30.9429L31.0628 6.34319ZM29.7023 6.44198L29.8545 6.65513L29.7023 6.44198ZM22.6053 11.5112H22.3434C22.3434 11.6093 22.3982 11.6992 22.4855 11.7441C22.5727 11.789 22.6777 11.7814 22.7576 11.7244L22.6053 11.5112ZM23.549 14.0561L23.3968 13.8429C23.3279 13.8921 23.2871 13.9715 23.2871 14.0561C23.2871 14.1407 23.3279 14.2201 23.3968 14.2692L23.549 14.0561ZM29.1538 18.0595L29.0016 18.2727C29.0814 18.3297 29.1864 18.3373 29.2737 18.2924C29.3609 18.2475 29.4158 18.1576 29.4158 18.0595H29.1538ZM29.1538 10.0527H29.4158C29.4158 9.95454 29.3609 9.86465 29.2737 9.81975C29.1864 9.77486 29.0814 9.78248 29.0016 9.83951L29.1538 10.0527ZM4.26985 5.93652C3.40187 5.93652 2.69824 6.64015 2.69824 7.50813H3.22211C3.22211 6.92948 3.6912 6.46039 4.26985 6.46039V5.93652ZM18.6763 5.93652H4.26985V6.46039H18.6763V5.93652ZM20.2479 7.50813C20.2479 6.64015 19.5443 5.93652 18.6763 5.93652V6.46039C19.2549 6.46039 19.724 6.92948 19.724 7.50813H20.2479ZM20.2479 20.6049V7.50813H19.724V20.6049H20.2479ZM18.6763 22.1765C19.5443 22.1765 20.2479 21.4729 20.2479 20.6049H19.724C19.724 21.1835 19.2549 21.6526 18.6763 21.6526V22.1765ZM4.26985 22.1765H18.6763V21.6526H4.26985V22.1765ZM2.69824 20.6049C2.69824 21.4729 3.40187 22.1765 4.26985 22.1765V21.6526C3.6912 21.6526 3.22211 21.1835 3.22211 20.6049H2.69824ZM2.69824 7.50813V20.6049H3.22211V7.50813H2.69824ZM0.602756 7.50813C0.602756 5.48285 2.24457 3.84104 4.26985 3.84104V3.31717C1.95524 3.31717 0.078885 5.19352 0.078885 7.50813H0.602756ZM0.602756 20.6049V7.50813H0.078885V20.6049H0.602756ZM4.26985 24.272C2.24457 24.272 0.602756 22.6302 0.602756 20.6049H0.078885C0.078885 22.9195 1.95524 24.7959 4.26985 24.7959V24.272ZM18.6763 24.272H4.26985V24.7959H18.6763V24.272ZM22.3434 20.6049C22.3434 22.6302 20.7016 24.272 18.6763 24.272V24.7959C20.9909 24.7959 22.8673 22.9195 22.8673 20.6049H22.3434ZM22.3434 16.601V20.6049H22.8673V16.601H22.3434ZM29.8545 21.4571L22.7576 16.3878L22.4531 16.8141L29.55 21.8833L29.8545 21.4571ZM30.9429 21.5361C30.594 21.7157 30.1739 21.6852 29.8545 21.4571L29.55 21.8833C30.0291 22.2255 30.6592 22.2713 31.1826 22.0019L30.9429 21.5361ZM31.5112 20.6045C31.5112 20.9969 31.2919 21.3565 30.9429 21.5361L31.1826 22.0019C31.7061 21.7325 32.0351 21.1932 32.0351 20.6045H31.5112ZM31.5112 7.50771V20.6045H32.0351V7.50771H31.5112ZM30.9429 6.57609C31.2919 6.75568 31.5112 7.11524 31.5112 7.50771H32.0351C32.0351 6.919 31.7061 6.37966 31.1826 6.11028L30.9429 6.57609ZM29.8545 6.65513C30.1739 6.42701 30.594 6.39651 30.9429 6.57609L31.1826 6.11028C30.6592 5.8409 30.0291 5.88666 29.55 6.22884L29.8545 6.65513ZM22.7576 11.7244L29.8545 6.65513L29.55 6.22884L22.4531 11.2981L22.7576 11.7244ZM22.3434 7.50813V11.5112H22.8673V7.50813H22.3434ZM18.6763 3.84104C20.7016 3.84104 22.3434 5.48285 22.3434 7.50813H22.8673C22.8673 5.19352 20.9909 3.31717 18.6763 3.31717V3.84104ZM4.26985 3.84104H18.6763V3.31717H4.26985V3.84104ZM23.3968 14.2692L29.0016 18.2727L29.3061 17.8464L23.7013 13.8429L23.3968 14.2692ZM29.0016 9.83951L23.3968 13.8429L23.7013 14.2692L29.3061 10.2658L29.0016 9.83951ZM29.4158 18.0595V10.0527H28.8919V18.0595H29.4158Z" fill="white"/>
<path d="M7 1L20 27" stroke="white" stroke-width="2" stroke-linecap="round" stroke-linejoin="round"/>
<path d="M5 1L18 27" stroke="#0B4977" stroke-width="2" stroke-linecap="round" stroke-linejoin="round"/>
</svg>
