<svg width="27" height="22" viewBox="0 0 27 22" fill="none" xmlns="http://www.w3.org/2000/svg">
<path fill-rule="evenodd" clip-rule="evenodd" d="M18.9912 0.130652C18.8046 0.206181 18.4605 0.495083 18.2269 0.772729C17.9685 1.0799 17.6483 1.27761 17.4092 1.27761C17.1929 1.27761 16.8924 1.41432 16.7411 1.58136C16.4214 1.93454 16.14 3.43663 16.2681 4.10628C16.3165 4.35994 16.2591 4.8614 16.1405 5.22078C15.9728 5.72925 15.9679 5.93414 16.1191 6.14507C16.226 6.29417 16.5002 6.81993 16.7287 7.3134C17.7013 9.41451 18.6486 10.1858 20.0868 10.0476C21.2204 9.93864 21.8818 9.36181 22.6171 7.84112C22.9526 7.14717 23.3322 6.45338 23.4606 6.29955C23.611 6.11929 23.656 5.85829 23.5872 5.56547C23.5285 5.31556 23.4864 4.6588 23.4937 4.10595C23.5009 3.55294 23.4024 2.85018 23.2745 2.54431C22.558 0.829335 20.3457 -0.417299 18.9912 0.130652ZM18.9258 3.0735C19.1378 3.18704 19.4621 3.17693 19.9706 3.04104C20.5988 2.87302 20.7916 2.88395 21.2761 3.11494C21.5949 3.26698 21.9632 3.62162 22.1146 3.92227C22.2631 4.21737 22.6477 4.73335 22.9694 5.0689L23.5541 5.67933L23.2242 6.12924C23.0428 6.37687 22.8074 6.83119 22.7012 7.13901C21.5226 10.5562 18.4044 10.7597 17.1157 7.50345C16.9146 6.99513 16.6516 6.4635 16.5315 6.32174C16.2102 5.94328 16.2651 5.40789 16.6531 5.13611C16.8428 5.00332 17.0632 4.58555 17.1517 4.19127C17.4121 3.03256 18.0721 2.61674 18.9258 3.0735ZM6.72908 3.99339C6.43741 4.13711 6.19891 4.31835 6.19891 4.39616C6.19891 4.47397 5.92714 4.66663 5.59501 4.82437C4.6425 5.27673 4.35001 5.94784 4.358 7.66217C4.36175 8.4602 4.30041 9.15301 4.22146 9.20162C4.02505 9.32299 4.04006 10.2068 4.24071 10.3308C4.32994 10.3861 4.65277 10.9716 4.95783 11.6319C5.75161 13.3498 6.57281 13.9617 8.1209 13.9893C9.56851 14.0151 10.6817 13.221 11.2763 11.7384C11.4788 11.2337 11.7925 10.6168 11.9735 10.3675C12.2474 9.99068 12.2734 9.83619 12.1275 9.45023C12.0313 9.19493 11.9887 8.60832 12.0331 8.14683C12.2969 5.40103 9.04258 2.85279 6.72908 3.99339ZM17.0878 10.6833C16.4981 10.928 16.4761 10.966 16.4761 11.7404C16.4761 12.3105 16.5485 12.5715 16.7253 12.6394C17.1901 12.8177 17.3403 13.3324 17.0548 13.7679C16.7457 14.2397 16.3031 14.2784 15.9304 13.8665C15.5761 13.4751 15.5891 13.1381 15.9718 12.7918C16.1932 12.5914 16.28 12.3012 16.2722 11.7877C16.2661 11.3903 16.234 11.0654 16.2005 11.0654C15.9394 11.0654 14.037 11.9804 13.7529 12.2427C13.4636 12.5097 13.0503 13.7234 13.0503 14.3059C13.0503 14.3748 13.4492 14.5965 13.9368 14.7984C14.4244 15.0005 14.9105 15.271 15.0172 15.3994C15.1787 15.594 16.1762 15.633 21.0009 15.633H26.7907L26.6765 14.7187C26.6137 14.2157 26.4583 13.4542 26.3312 13.0264C26.116 12.3016 26.0304 12.2149 25.081 11.7619C23.3998 10.9597 23.387 10.9592 23.3989 11.7073C23.406 12.1556 23.5203 12.4554 23.7741 12.6919C24.2258 13.1126 24.3746 13.6674 24.2353 14.4107C24.1564 14.8309 24.0446 14.9805 23.8095 14.9805C23.6254 14.9805 23.4906 14.8697 23.4906 14.7183C23.4906 14.5523 23.5803 14.4906 23.7353 14.5501C24.1172 14.6966 24.0704 13.3185 23.6816 12.9666C22.9748 12.327 22.158 12.7939 21.9223 13.9723C21.8342 14.4131 21.8598 14.4806 22.083 14.395C22.23 14.3386 22.3487 14.3738 22.3487 14.4736C22.3487 14.573 22.1593 14.6542 21.928 14.6542C21.5391 14.6542 21.5156 14.6139 21.6184 14.124C21.8079 13.2206 22.0835 12.7877 22.6306 12.5335C23.0988 12.3161 23.1577 12.2138 23.1608 11.6133C23.1642 10.9698 23.1314 10.9244 22.4711 10.659L21.7778 10.3802L20.8331 11.4048L19.8886 12.4295L18.8711 11.4212C18.3116 10.8665 17.8191 10.4166 17.7767 10.4213C17.7343 10.4259 17.4243 10.5438 17.0878 10.6833ZM16.0501 13.0931C15.8877 13.5164 16.1152 13.8661 16.5162 13.8092C16.7857 13.7709 16.8839 13.6482 16.8839 13.3492C16.8839 13.0502 16.7857 12.9275 16.5162 12.8892C16.2955 12.8578 16.109 12.9394 16.0501 13.0931ZM3.79765 14.8787C2.70142 15.3568 1.69328 15.8402 1.55756 15.9529C1.32592 16.1451 0.981712 17.0963 0.979755 17.5498C0.978939 17.7098 2.52524 17.7537 8.16935 17.7537H15.3601L15.2459 17.2235C14.9955 16.0604 14.7945 15.8819 12.772 15.0252C11.7138 14.5769 10.7192 14.1655 10.5616 14.1107C10.4041 14.056 9.80244 14.1351 9.2248 14.2867C8.1749 14.5621 7.85859 14.5425 6.11735 14.0935C5.92649 14.0443 4.96403 14.37 3.79765 14.8787ZM0.285476 18.2561C0.0424136 18.3977 0 18.6757 0 20.1272V21.8319H8.15647H16.3129V20.2259C16.3129 18.8771 16.2651 18.5767 16.0146 18.3499C15.7459 18.1067 14.9655 18.0804 8.14358 18.0848C3.30435 18.0881 0.467855 18.1499 0.285476 18.2561Z" fill="#3DA7C8"/>
</svg>
