<svg width="25" height="25" viewBox="0 0 25 25" fill="none" xmlns="http://www.w3.org/2000/svg">
<path fill-rule="evenodd" clip-rule="evenodd" d="M10.1412 0.0493115C9.9861 0.122898 9.7229 0.363465 9.50879 0.62726C9.42312 0.732803 7.3066 3.26656 4.80536 6.25781C2.30415 9.24908 0.221399 11.7466 0.177031 11.8078C0.0516614 11.9809 -0.0140229 12.2312 0.00251942 12.4728C0.0462238 13.1104 0.588879 13.5014 1.08058 13.2495C1.22397 13.1761 1.4162 12.9503 5.81426 7.69113C8.33559 4.67611 10.4054 2.20663 10.4139 2.20339C10.4372 2.1944 15.5936 8.36627 15.5805 8.38748C15.5742 8.39762 15.497 8.41393 15.409 8.4237C14.6456 8.50839 13.4877 8.89927 12.6764 9.34615C10.2192 10.6995 8.62051 13.1496 8.36622 15.9518C8.32326 16.4251 8.35045 17.3883 8.41963 17.8439C8.75178 20.0318 9.84189 21.901 11.5863 23.2737L11.6749 23.3434L9.03272 23.3368C6.39447 23.3302 6.39023 23.3301 6.18631 23.2738C5.7435 23.1513 5.3145 22.8761 5.04484 22.5414C4.90096 22.3629 4.74657 22.073 4.66358 21.8257L4.60361 21.647L4.59082 18.4693C4.57921 15.5811 4.5742 15.2845 4.53596 15.2148C4.41118 14.9875 4.15842 14.9473 3.7356 15.0876C3.37851 15.2062 3.1111 15.4102 2.99017 15.6564L2.91869 15.802L2.91093 19.1456C2.90562 21.4343 2.91198 22.5765 2.93107 22.7656C3.04695 23.9122 3.91361 24.8111 5.06368 24.9774C5.21455 24.9992 6.84134 25.0042 11.343 24.9968C17.952 24.9858 17.5207 24.995 18.274 24.8483C21.2967 24.2595 23.7575 22.0348 24.6557 19.0788C24.7734 18.6916 24.889 18.1476 24.9534 17.678C25.0084 17.2775 25.0167 16.1621 24.9677 15.7637C24.7587 14.0635 24.139 12.6067 23.0821 11.3312C22.8551 11.0572 22.2914 10.4901 22.0246 10.2673C20.9139 9.33962 19.5158 8.6914 18.1025 8.44882C17.8729 8.40941 17.8328 8.39463 17.7677 8.32541C17.7271 8.28214 16.2829 6.55831 14.5585 4.49466C12.834 2.43102 11.3792 0.690892 11.3255 0.627719C11.1778 0.454077 10.8499 0.177878 10.6921 0.0941834C10.4877 -0.014142 10.306 -0.0289207 10.1412 0.0493115Z" fill="#3DA7C8"/>
<path d="M16.4902 12.3498C16.6056 12.1995 16.7392 12.0984 16.8968 12.0421C17.0956 11.9712 17.3289 11.9904 17.5419 12.0952C17.7179 12.1819 17.8274 12.2934 17.9198 12.4803C17.9758 12.5936 17.9767 12.6136 17.9893 13.9607L18.0021 15.3263L19.3678 15.3391C20.7016 15.3515 20.7364 15.3531 20.8535 15.4072C21.0071 15.4782 21.1772 15.6487 21.2566 15.8113C21.3486 15.9995 21.3474 16.3166 21.254 16.5132C21.2174 16.5904 21.1427 16.6982 21.0881 16.7528C21.0335 16.8073 20.9257 16.882 20.8485 16.9187L20.7081 16.9854L19.3493 16.9924L17.9906 16.9994L17.9836 18.3707C17.9765 19.7407 17.9765 19.7421 17.9183 19.8591C17.8405 20.0151 17.6785 20.1747 17.5193 20.252C17.102 20.4547 16.5971 20.2661 16.3965 19.8326C16.3443 19.7198 16.3425 19.6775 16.3355 18.3582L16.3283 16.9998L14.9697 16.9926C13.6391 16.9855 13.6087 16.9843 13.4918 16.9302C13.0992 16.7488 12.9049 16.2924 13.0457 15.8822C13.1034 15.7142 13.2835 15.5112 13.4553 15.4206L13.5857 15.3518L14.9578 15.3446L16.33 15.3374V14.0283C16.33 12.5815 16.3325 12.5552 16.4902 12.3498Z" fill="white"/>
</svg>
