<svg width="60" height="60" viewBox="0 0 60 60" fill="none" xmlns="http://www.w3.org/2000/svg">
<path fill-rule="evenodd" clip-rule="evenodd" d="M24.0932 5.16173C21.2732 8.00048 18.8547 10.4994 18.7183 10.7146C18.2665 11.4277 18.4514 12.1497 19.3047 13.003C20.7508 14.449 21.3366 14.2217 24.7053 10.9067L27.6923 7.96731V17.8298V27.6923H17.8177H7.94308L10.8946 24.7307C13.5606 22.0555 13.8462 21.6669 13.8462 20.7133C13.8462 19.9099 13.6601 19.511 13.0682 19.0454C11.6025 17.8924 11.126 18.1918 5.35385 23.8982C0.664039 28.5338 0 29.3028 0 30.0978C0 30.8905 0.666923 31.6693 5.28721 36.2717C10.1238 41.0896 10.6604 41.5385 11.5832 41.5385C12.8983 41.5385 13.8462 40.5661 13.8462 39.2172C13.8462 38.3518 13.4844 37.8681 10.8946 35.2693L7.94308 32.3077H17.8177H27.6923V42.1702V52.0327L24.7053 49.0933C22.2917 46.7184 21.5564 46.1538 20.8751 46.1538C19.0581 46.1538 18.0055 47.9051 18.8504 49.5222C19.0846 49.9702 21.4774 52.5107 24.1679 55.1683C28.5363 59.4831 29.1632 60 30.026 60C30.8945 60 31.5257 59.4666 36.2654 54.7269C41.1211 49.8713 41.5385 49.3728 41.5385 48.431C41.5385 47.1127 40.5715 46.1538 39.2426 46.1538C38.4121 46.1538 37.8764 46.5525 35.2947 49.0933L32.3077 52.0327V42.1702V32.3077H42.1702H52.0327L49.0933 35.2947C46.6788 37.7481 46.1538 38.4369 46.1538 39.15C46.1538 40.4939 47.1369 41.5385 48.4018 41.5385C49.3814 41.5385 49.8162 41.1762 54.7269 36.2654C59.5214 31.4709 60 30.9023 60 30C60 29.0977 59.5214 28.5291 54.7269 23.7346C50.0414 19.0491 49.3488 18.4615 48.512 18.4615C47.2592 18.4615 46.1538 19.5568 46.1538 20.7981C46.1538 21.5772 46.6047 22.1763 49.0933 24.7053L52.0327 27.6923H42.1702H32.3077V17.8298V7.96731L35.2947 10.9067C37.9252 13.4954 38.4012 13.8462 39.283 13.8462C40.5886 13.8462 41.5385 12.87 41.5385 11.5287C41.5385 10.639 41.0394 10.0471 36.2654 5.27308C31.7155 0.723173 30.8709 0 30.1062 0C29.3409 0 28.5202 0.704423 24.0932 5.16173Z" fill="#0B4977"/>
</svg>
