<svg width="40" height="31" viewBox="0 0 40 31" fill="none" xmlns="http://www.w3.org/2000/svg">
<path fill-rule="evenodd" clip-rule="evenodd" d="M2.66047 0.0795017C1.39302 0.324776 0.386274 1.48682 0.104168 3.03027C-0.211149 4.75513 0.418157 6.27822 2.22215 8.15626C2.99258 8.95834 3.20975 9.11746 8.24436 12.5685C10.7372 14.2772 13.5329 16.2036 14.4569 16.8491C17.9135 19.2638 18.7395 19.6862 20.0053 19.6862C21.2286 19.6862 22.1116 19.253 25.0066 17.2323C25.8017 16.6774 28.6501 14.7186 31.3364 12.8796C34.0226 11.0405 36.449 9.35517 36.7284 9.13435C39.4748 6.96375 40.6558 4.03859 39.6243 1.96209C39.3561 1.42226 38.6721 0.71544 38.1425 0.430907C37.28 -0.0324141 38.4268 -0.00549553 19.9302 0.00376009C10.6233 0.00838789 2.85192 0.0424793 2.66047 0.0795017ZM0 18.5122V27.0289L4.99944 22.0949C7.74923 19.3812 9.97341 17.1394 9.94215 17.1132C9.91097 17.087 8.19747 15.9256 6.13443 14.5323C1.59229 11.4646 1.3702 11.3056 0.605628 10.5745L0 9.99543V18.5122ZM39.2944 10.6768C38.5406 11.3864 38.1876 11.6375 33.3828 14.8814L30.0125 17.1567L34.992 22.074L39.9715 26.9913L39.9916 22.7489C40.0028 20.4156 40.0028 16.6014 39.9916 14.2729L39.9715 10.0393L39.2944 10.6768ZM6.88744 24.5507L1.2329 30.1322L1.49563 30.3264C1.8626 30.5977 2.23973 30.777 2.69602 30.897C3.01579 30.9811 6.16029 30.9997 20.0053 30.9997C38.3718 30.9997 37.2876 31.0252 38.1255 30.5751C38.9102 30.1535 39.4129 30.7584 33.1018 24.5297L27.449 18.9508L26.0562 19.9296C24.4697 21.0445 23.9287 21.3702 22.9357 21.8084C21.6557 22.3733 21.1948 22.4787 20.0053 22.4787C18.8157 22.4787 18.3548 22.3733 17.0748 21.8084C16.0833 21.3709 15.5407 21.0444 13.9675 19.9389C13.2086 19.4056 12.5775 18.9693 12.5649 18.9693C12.5523 18.9693 9.9974 21.481 6.88744 24.5507Z" fill="#0B4977"/>
</svg>
