<svg width="30" height="43" viewBox="0 0 34 49" fill="none" xmlns="http://www.w3.org/2000/svg">
<path fill-rule="evenodd" clip-rule="evenodd" d="M0.813661 0.159325C0.635274 0.244592 0.390672 0.44837 0.2701 0.612198L0.050897 0.910154L0.0253987 19.4821L0 38.0541L0.216634 38.4276C0.354896 38.6662 0.580819 38.8705 0.84153 38.9929C1.23645 39.1783 1.4517 39.1845 7.4283 39.1845H13.6068L18.4413 34.4813C21.1002 31.8946 23.5445 29.5906 23.8729 29.3616C25.3771 28.3121 26.9997 27.8427 28.9432 27.8951L30.1447 27.9273L30.1445 20.3369L30.1444 12.7466L24.3207 12.7204C18.6144 12.6948 18.4914 12.6902 18.224 12.4967C18.074 12.3881 17.8595 12.1802 17.7474 12.0347C17.5475 11.7752 17.5432 11.6583 17.5161 5.88505L17.4884 0L9.31326 0.00220353C1.98479 0.00411964 1.10442 0.0204066 0.813661 0.159325ZM20.4591 4.93399V9.86798H25.3017H30.1444V9.49098C30.1444 9.28366 30.1039 9.01071 30.0543 8.88434C30.0047 8.75807 28.1187 6.75612 25.8629 4.43551C21.6439 0.0952307 21.535 0 20.7903 0H20.4591V4.93399ZM15.6956 13.8348C15.8423 13.9089 16.0736 14.0847 16.2095 14.2255C16.4341 14.4584 16.4596 14.5712 16.4899 15.4693L16.5233 16.4569L17.5002 16.495C18.2868 16.5256 18.5294 16.5709 18.7455 16.7273C19.4366 17.2275 19.6317 17.905 19.2781 18.5769C18.9751 19.1527 18.4939 19.3479 17.3707 19.3506L16.506 19.3527V20.2755C16.506 21.3304 16.3556 21.6856 15.7826 21.9847C15.3223 22.2251 14.5202 22.1499 14.1708 21.8335C13.7362 21.4399 13.6399 21.1488 13.6399 20.2287V19.3707L12.6585 19.3378C11.6035 19.3023 11.3597 19.2055 10.9339 18.6526C10.6522 18.2868 10.665 17.5665 10.9604 17.1644C11.3089 16.6899 11.696 16.5435 12.7257 16.497L13.6399 16.4557L13.6401 15.6289C13.6402 14.6649 13.8045 14.2526 14.3216 13.9177C14.7084 13.6672 15.2932 13.6319 15.6956 13.8348ZM23.5208 25.1731C24.5473 25.673 24.576 27.0608 23.5722 27.6558C23.2923 27.8218 22.8382 27.8331 15.4237 27.8583C10.1291 27.8763 7.40576 27.8517 7.06253 27.7826C6.32388 27.6339 5.82964 27.0634 5.83398 26.3643C5.83646 25.9781 6.23286 25.3833 6.62145 25.1829C6.94878 25.0141 7.36801 25.0053 15.0713 25.0055C22.591 25.0056 23.2018 25.0176 23.5208 25.1731ZM17.6542 30.8133C18.3917 31.1525 18.687 32.0515 18.2873 32.7408C17.8366 33.5183 18.1197 33.4841 12.14 33.4841C6.93623 33.4841 6.82998 33.4803 6.56226 33.2865C5.86976 32.7854 5.68406 32.165 6.02314 31.4859C6.18008 31.1717 6.34928 31.0027 6.65278 30.8571C7.0569 30.6632 7.20227 30.658 12.192 30.6579C16.7151 30.6578 17.3558 30.676 17.6542 30.8133ZM27.631 30.7631C27.3629 30.8163 26.8116 31.0084 26.4058 31.1902C25.7399 31.4884 25.4813 31.7 23.7528 33.3617L21.8377 35.2027L25.6204 38.8743L29.4032 42.5457L31.2326 40.7454C33.1479 38.8605 33.502 38.389 33.8443 37.2684C34.0419 36.6218 34.0536 35.2048 33.867 34.5379C33.2537 32.3471 31.2766 30.8022 28.9584 30.7026C28.4964 30.6827 27.8991 30.7099 27.631 30.7631ZM17.8313 39.1126C16.3803 40.5393 15.895 41.0799 15.6879 41.5002C14.4899 43.9326 15.245 46.7189 17.4972 48.1769C18.4284 48.7797 19.2291 49.0023 20.4591 49C22.4043 48.9963 23.2305 48.5416 25.7457 46.0897L27.3261 44.549L23.5719 40.9087C21.5071 38.9065 19.7928 37.2684 19.7623 37.2684C19.7318 37.2684 18.8628 38.0984 17.8313 39.1126Z" fill="#0B4977"/>
</svg>
