<svg width="23" height="23" viewBox="0 0 23 23" fill="none" xmlns="http://www.w3.org/2000/svg">
<path fill-rule="evenodd" clip-rule="evenodd" d="M5.8987 0.270183C5.6444 0.416032 5.46941 0.648145 5.4068 0.922504C5.38012 1.03934 5.36196 1.87833 5.36131 3.02259C5.36014 5.13103 5.3716 5.23839 5.62827 5.53074C5.86635 5.8019 6.0506 5.86776 6.62505 5.88713C6.90446 5.89655 7.13312 5.91493 7.13312 5.92799C7.13312 5.94105 6.96772 6.27184 6.76558 6.66303C6.55271 7.07494 6.39804 7.427 6.39804 7.49951C6.39804 7.66797 6.53567 7.7977 6.71438 7.7977C6.83433 7.7977 6.98104 7.69798 7.61161 7.18788C8.02625 6.85251 8.41104 6.53404 8.46677 6.48021L8.56813 6.38236L8.49419 6.12793C8.36378 5.67919 8.39768 5.69488 8.09232 5.94204C7.9421 6.06368 7.81039 6.15444 7.79971 6.14371C7.78898 6.13299 7.83949 5.99761 7.91192 5.84281C8.01517 5.62215 8.03498 5.53861 8.00367 5.45619C7.92865 5.25893 7.8794 5.24747 7.05671 5.23589C6.29638 5.22521 6.27221 5.22205 6.16367 5.12009L6.05211 5.01523V3.01014V1.00505L6.15827 0.898938L6.26438 0.792783H9.29513H12.3259L12.432 0.898938C12.5204 0.987321 12.5381 1.04717 12.5381 1.25688V1.50871L12.1814 1.5574C11.4025 1.66373 10.7742 1.98301 10.2032 2.56265C9.51107 3.26517 9.20765 4.00294 9.20938 4.97908C9.21107 5.90166 9.50398 6.63847 10.1383 7.31561C10.8527 8.07824 11.7545 8.44085 12.817 8.39272C13.1907 8.37582 13.3772 8.34339 13.6728 8.24406L14.0508 8.11702L14.9916 8.25885C16.1299 8.43047 16.1714 8.43186 16.2925 8.303C16.4584 8.12636 16.4175 8.00797 15.9748 7.38449L15.5631 6.80468L15.715 6.50304C15.9747 5.98723 16.0594 5.60927 16.0594 4.96546C16.0594 4.51101 16.0406 4.33753 15.9614 4.05988C15.778 3.41751 15.3358 2.72238 14.8654 2.33689C14.6666 2.17401 14.1897 1.87379 14.1298 1.87379C14.1105 1.87379 14.0948 2.03654 14.0948 2.23545V2.59711L14.27 2.71849C14.3663 2.78525 14.5518 2.9551 14.6821 3.09589C15.5252 4.00648 15.6534 5.34654 15.001 6.42828C14.9069 6.58429 14.8299 6.75876 14.8299 6.81597C14.8299 6.87318 14.9381 7.07083 15.0704 7.25525C15.2027 7.43962 15.3027 7.59875 15.2926 7.60886C15.2825 7.61898 14.9748 7.58422 14.6088 7.53159L13.9434 7.43595L13.6624 7.54755C12.6321 7.95656 11.4451 7.70771 10.6696 6.92009C10.4315 6.67825 10.1151 6.20282 10.0539 5.99488L10.026 5.9001L11.2496 5.88678C12.3449 5.87489 12.4892 5.86503 12.6246 5.79291C12.8365 5.68009 13.0058 5.51375 13.1151 5.31138C13.2063 5.14223 13.2086 5.09371 13.2208 3.11201C13.2345 0.877102 13.2263 0.789973 12.9733 0.484654C12.9018 0.398433 12.7554 0.286527 12.648 0.236023C12.4543 0.145002 12.4245 0.144181 9.28479 0.14457L6.11697 0.145002L5.8987 0.270183ZM12.5381 3.59587V5.01523L12.4266 5.12009L12.315 5.2249H11.0969H9.87887L9.88462 4.83574C9.90494 3.46157 11.0281 2.30576 12.4625 2.18296C12.5331 2.1769 12.5381 2.27043 12.5381 3.59587ZM1.98754 4.07714C1.48634 4.1711 0.921708 4.48489 0.603633 4.84625C0.277515 5.21673 0 5.9375 0 6.41401C0 6.69261 0.125612 7.16773 0.284823 7.49121C0.56143 8.05329 1.11036 8.5019 1.74604 8.68542C2.08046 8.78197 2.67185 8.78214 3.00736 8.68585C3.78827 8.46161 4.42416 7.82615 4.6481 7.04614C4.74284 6.71613 4.74207 6.10891 4.64646 5.77773C4.36683 4.80885 3.51422 4.12107 2.51831 4.06096C2.33341 4.04976 2.09455 4.05707 1.98754 4.07714ZM19.4566 4.06434C18.5096 4.21105 17.7557 4.86982 17.4851 5.78703C17.3856 6.12426 17.3862 6.69632 17.4863 7.04099C17.7188 7.84106 18.3308 8.4533 19.1323 8.68736C19.499 8.79447 20.0874 8.78582 20.4511 8.66799C21.3588 8.37391 21.9484 7.67571 22.0968 6.7192C22.204 6.02835 21.9498 5.2806 21.4261 4.74658C20.9283 4.2389 20.1252 3.96073 19.4566 4.06434ZM1.78374 9.30872C1.33932 9.47139 1.00646 9.77135 0.797392 10.1975C0.581234 10.6381 0.581235 10.6478 0.794625 13.7444C0.920454 15.5705 1.01394 16.6745 1.05407 16.8078C1.15373 17.139 1.30581 17.3312 1.57074 17.4608C1.792 17.5691 1.92121 17.587 3.61605 17.7446C4.61105 17.8371 5.43002 17.9135 5.43594 17.9144C5.44186 17.9152 5.44723 18.6699 5.44779 19.5915C5.44844 20.5854 5.46703 21.3458 5.49349 21.4607C5.55139 21.7119 5.70247 21.906 5.95629 22.0552C6.12385 22.1537 6.21037 22.1748 6.44128 22.1736C6.75386 22.172 6.93672 22.0979 7.16672 21.8795C7.42944 21.6302 7.43584 21.5638 7.43554 19.0863C7.43541 17.7729 7.41803 16.7943 7.39321 16.7052C7.336 16.4996 7.11842 16.2458 6.90667 16.1378C6.76009 16.063 6.55405 16.0357 5.63043 15.9684C5.02464 15.9244 4.52059 15.8799 4.5103 15.8696C4.50001 15.8593 4.40609 14.6762 4.30162 13.2404C4.17553 11.508 4.08918 10.5563 4.04482 10.411C3.96655 10.1545 3.69704 9.7611 3.49299 9.60561C3.41412 9.54551 3.24258 9.44117 3.11178 9.37371C2.90496 9.26708 2.81757 9.24949 2.44156 9.23863C2.10078 9.22882 1.96142 9.24369 1.78374 9.30872ZM19.1971 9.29701C18.8775 9.4125 18.5667 9.6367 18.376 9.88931C18.0377 10.3372 18.0443 10.2975 17.8322 13.2182C17.7269 14.6682 17.6328 15.8624 17.6231 15.8721C17.6135 15.8818 17.1109 15.9251 16.5063 15.9684C15.5855 16.0343 15.3788 16.0615 15.2333 16.1358C15.0099 16.2498 14.8036 16.4857 14.746 16.6932C14.6836 16.9177 14.6841 21.294 14.7465 21.5187C14.8102 21.7478 15.0479 21.9953 15.315 22.1102C15.8544 22.3422 16.5136 22.0197 16.6425 21.4607C16.6689 21.3458 16.6875 20.5854 16.6882 19.5915C16.6887 18.6699 16.694 17.9152 16.7 17.9144C16.706 17.9135 17.5201 17.8376 18.5091 17.7456C20.0488 17.6024 20.3403 17.5642 20.5358 17.4801C20.8029 17.3652 20.9811 17.148 21.0792 16.8176C21.1827 16.469 21.5517 10.9593 21.4919 10.6557C21.3823 10.0994 21.0124 9.6143 20.516 9.37566C20.2921 9.26808 20.1972 9.24931 19.8241 9.23885C19.5082 9.22998 19.3393 9.24568 19.1971 9.29701ZM7.53542 14.4039L6.96478 14.4159L6.95168 14.6201C6.94446 14.7323 6.94476 14.9945 6.95242 15.2026L6.9663 15.5809H7.50373H8.04116V18.8888V22.1967H8.56143H9.08169L9.07888 19.8941C9.07733 18.6277 9.07672 17.5673 9.0775 17.5375C9.07862 17.4951 9.50631 17.4835 11.068 17.4835H13.057L13.0624 19.7752C13.0654 21.0357 13.0703 22.0913 13.0732 22.121C13.0771 22.1601 13.2192 22.1784 13.5867 22.1873L14.0948 22.1994V18.8902V15.5809H14.6581H15.2215L15.2094 14.9939L15.1974 14.4069L11.6517 14.3993C9.70159 14.3952 7.84926 14.3972 7.53542 14.4039Z" fill="#B54DDA"/>
</svg>
