<svg width="63" height="63" viewBox="0 0 63 63" fill="none" xmlns="http://www.w3.org/2000/svg">
<circle cx="31.3115" cy="31.3115" r="31.3115" fill="#E8E8E8"/>
<path d="M32.375 42H25.642V20.1818H32.6733C34.7898 20.1818 36.6009 20.6186 38.1065 21.4922C39.6122 22.3587 40.7663 23.6051 41.5689 25.2315C42.3714 26.8509 42.7727 28.7898 42.7727 31.0483C42.7727 33.321 42.3679 35.2777 41.5582 36.9183C40.7486 38.5518 39.5696 39.8089 38.0213 40.6896C36.473 41.5632 34.5909 42 32.375 42ZM28.2841 39.6562H32.2045C34.0085 39.6562 35.5036 39.3082 36.6896 38.6122C37.8757 37.9162 38.7599 36.9254 39.3423 35.6399C39.9247 34.3544 40.2159 32.8239 40.2159 31.0483C40.2159 29.2869 39.9283 27.7706 39.353 26.4993C38.7777 25.2209 37.9183 24.2408 36.7749 23.5589C35.6314 22.87 34.2074 22.5256 32.5028 22.5256H28.2841V39.6562Z" fill="#0C2F49"/>
</svg>
