<svg width="10" height="9" viewBox="0 0 10 9" fill="none" xmlns="http://www.w3.org/2000/svg">
<path fill-rule="evenodd" clip-rule="evenodd" d="M2.85792 0.870832C2.72336 0.904505 2.62262 0.962006 2.52116 1.06309C2.23757 1.34561 2.23776 1.78757 2.52161 2.0714C2.71786 2.26767 2.9978 2.33382 3.25809 2.24546L3.33434 2.21957L3.81278 2.698L4.29121 3.17644L4.26532 3.25268C4.17696 3.51297 4.24311 3.79292 4.43937 3.98917C4.71453 4.26434 5.14268 4.27282 5.43176 4.00884C5.58441 3.86942 5.67918 3.62326 5.65663 3.42463C5.65092 3.37437 5.64455 3.31763 5.64247 3.29858C5.63939 3.27038 5.71415 3.20728 6.04491 2.95898C6.26833 2.79125 6.4569 2.65402 6.46393 2.65402C6.47096 2.65402 6.50542 2.66898 6.5405 2.68726C6.73625 2.7893 6.98627 2.7893 7.18202 2.68726C7.2171 2.66898 7.25244 2.65402 7.26057 2.65402C7.26869 2.65402 7.46083 2.79175 7.68758 2.9601C8.01791 3.20536 8.09907 3.27284 8.09603 3.2997C8.09395 3.31814 8.08758 3.37437 8.08187 3.42463C8.05929 3.62356 8.13808 3.83637 8.29089 3.98917C8.70385 4.40213 9.40198 4.17719 9.5011 3.59924C9.53998 3.37248 9.46688 3.14869 9.29913 2.98094C9.07438 2.75617 8.75816 2.70503 8.46643 2.84626L8.39338 2.88163L8.31052 2.82325C8.26495 2.79114 8.07665 2.65253 7.89206 2.51525C7.62482 2.31648 7.55722 2.25878 7.56024 2.23208C7.56232 2.21364 7.56869 2.15741 7.5744 2.10715C7.59698 1.90822 7.51819 1.69541 7.36538 1.54261C7.08163 1.25886 6.64089 1.25886 6.35714 1.54261C6.20433 1.69541 6.12554 1.90822 6.14812 2.10715C6.15383 2.15741 6.1602 2.21415 6.16228 2.2332C6.16537 2.26141 6.0906 2.3245 5.75984 2.5728C5.53642 2.74053 5.35012 2.87776 5.34587 2.87776C5.3416 2.87776 5.30147 2.86069 5.25666 2.83984C5.08147 2.75825 4.88904 2.74631 4.71328 2.8061L4.63487 2.83277L4.15644 2.35434L3.678 1.8759L3.70389 1.79965C3.79222 1.53949 3.7262 1.25998 3.52984 1.06272C3.34962 0.881667 3.09978 0.810326 2.85792 0.870832ZM3.13801 1.35973C3.20892 1.39592 3.26544 1.48799 3.26544 1.56729C3.26544 1.68943 3.14729 1.80701 3.02454 1.80701C2.90698 1.80701 2.786 1.68542 2.786 1.56729C2.786 1.49043 2.84256 1.39614 2.91003 1.36052C2.98714 1.31981 3.05927 1.31957 3.13801 1.35973ZM6.97354 1.83918C7.04445 1.87536 7.10098 1.96743 7.10098 2.04673C7.10098 2.0738 7.0865 2.12433 7.06881 2.15901C7.03263 2.22992 6.94056 2.28645 6.86126 2.28645C6.78196 2.28645 6.68989 2.22992 6.65371 2.15901C6.59282 2.03966 6.62843 1.91424 6.74289 1.84496C6.8194 1.79865 6.89059 1.79686 6.97354 1.83918ZM5.05578 3.2775C5.12669 3.31369 5.18321 3.40575 5.18321 3.48505C5.18321 3.6072 5.06506 3.72477 4.94231 3.72477C4.86798 3.72477 4.76925 3.66262 4.73409 3.5937C4.67507 3.47801 4.71211 3.3517 4.82512 3.28329C4.90164 3.23697 4.97282 3.23518 5.05578 3.2775ZM8.90729 3.2775C8.9782 3.31369 9.03473 3.40575 9.03473 3.48505C9.03473 3.6072 8.91658 3.72477 8.79383 3.72477C8.7195 3.72477 8.62076 3.66262 8.58561 3.5937C8.52659 3.47801 8.56363 3.3517 8.67663 3.28329C8.75315 3.23697 8.82434 3.23518 8.90729 3.2775Z" fill="#26323C"/>
<rect x="0.804689" y="0.753906" width="0.495423" height="8.18248" fill="#26323C"/>
<path d="M2.05078 4.52551C2.05078 4.30485 2.22966 4.12598 2.45032 4.12598V4.12598C2.67097 4.12598 2.84985 4.30485 2.84985 4.52551V8.58479H2.05078V4.52551Z" fill="#26323C"/>
<path d="M3.98438 6.42725C3.98438 6.20659 4.16325 6.02771 4.38391 6.02771V6.02771C4.60457 6.02771 4.78345 6.20659 4.78345 6.42725V8.58473H3.98438V6.42725Z" fill="#26323C"/>
<path d="M5.91797 5.02063C5.91797 4.79997 6.09685 4.62109 6.3175 4.62109V4.62109C6.53816 4.62109 6.71704 4.79997 6.71704 5.02063V8.58448H5.91797V5.02063Z" fill="#26323C"/>
<path d="M7.78906 6.42725C7.78906 6.20659 7.96794 6.02771 8.1886 6.02771V6.02771C8.40925 6.02771 8.58813 6.20659 8.58813 6.42725V8.58473H7.78906V6.42725Z" fill="#26323C"/>
<rect x="8.98828" y="8.44092" width="0.495423" height="8.18248" transform="rotate(90 8.98828 8.44092)" fill="#26323C"/>
</svg>
