<svg width="9" height="9" viewBox="0 0 9 9" fill="none" xmlns="http://www.w3.org/2000/svg">
<path fill-rule="evenodd" clip-rule="evenodd" d="M2.05177 0.116926C1.9172 0.150598 1.81647 0.208099 1.71501 0.309182C1.43142 0.591701 1.43161 1.03367 1.71545 1.3175C1.91171 1.51376 2.19165 1.57991 2.45194 1.49155L2.52819 1.46566L3.00662 1.9441L3.48506 2.42253L3.45917 2.49878C3.37081 2.75907 3.43695 3.03901 3.63322 3.23526C3.90837 3.51043 4.33653 3.51892 4.6256 3.25494C4.77826 3.11552 4.87303 2.86935 4.85048 2.67072C4.84477 2.62046 4.8384 2.56373 4.83632 2.54468C4.83323 2.51647 4.90799 2.45337 5.23876 2.20507C5.46218 2.03735 5.65075 1.90011 5.65778 1.90011C5.66481 1.90011 5.69927 1.91507 5.73434 1.93336C5.9301 2.0354 6.18011 2.0354 6.37587 1.93336C6.41095 1.91507 6.44628 1.90011 6.45442 1.90011C6.46254 1.90011 6.65468 2.03784 6.88143 2.20619C7.21176 2.45146 7.29291 2.51893 7.28988 2.54579C7.2878 2.56424 7.28142 2.62046 7.27572 2.67072C7.25314 2.86966 7.33193 3.08247 7.48474 3.23526C7.8977 3.64822 8.59583 3.42329 8.69495 2.84533C8.73383 2.61857 8.66073 2.39479 8.49297 2.22703C8.26823 2.00227 7.952 1.95113 7.66028 2.09235L7.58723 2.12772L7.50436 2.06934C7.4588 2.03723 7.27049 1.89863 7.08591 1.76135C6.81867 1.56257 6.75107 1.50488 6.75409 1.47817C6.75616 1.45973 6.76254 1.40351 6.76825 1.35325C6.79083 1.15431 6.71204 0.941502 6.55922 0.788704C6.27548 0.504954 5.83474 0.504954 5.55099 0.788704C5.39818 0.941502 5.31939 1.15431 5.34197 1.35325C5.34768 1.40351 5.35405 1.46024 5.35613 1.47929C5.35921 1.5075 5.28445 1.57059 4.95369 1.8189C4.73027 1.98662 4.54397 2.12385 4.53972 2.12385C4.53545 2.12385 4.49532 2.10679 4.45051 2.08593C4.27532 2.00435 4.08289 1.99241 3.90713 2.05219L3.82872 2.07887L3.35029 1.60043L2.87185 1.122L2.89774 1.04575C2.98607 0.785587 2.92005 0.506073 2.72369 0.308814C2.54347 0.127761 2.29363 0.05642 2.05177 0.116926ZM2.33186 0.605829C2.40277 0.642011 2.45929 0.734079 2.45929 0.813379C2.45929 0.935525 2.34114 1.0531 2.21839 1.0531C2.10083 1.0531 1.97985 0.931514 1.97985 0.813379C1.97985 0.736525 2.03641 0.642234 2.10388 0.606612C2.18099 0.565907 2.25312 0.565667 2.33186 0.605829ZM6.16739 1.08527C6.2383 1.12145 6.29483 1.21352 6.29483 1.29282C6.29483 1.31989 6.28035 1.37043 6.26266 1.40511C6.22648 1.47602 6.13441 1.53254 6.05511 1.53254C5.97581 1.53254 5.88374 1.47602 5.84756 1.40511C5.78667 1.28576 5.82227 1.16034 5.93673 1.09106C6.01325 1.04474 6.08443 1.04295 6.16739 1.08527ZM4.24962 2.5236C4.32053 2.55978 4.37706 2.65185 4.37706 2.73115C4.37706 2.85329 4.25891 2.97087 4.13616 2.97087C4.06183 2.97087 3.96309 2.90872 3.92793 2.83979C3.86892 2.7241 3.90596 2.5978 4.01897 2.52938C4.09548 2.48307 4.16667 2.48128 4.24962 2.5236ZM8.10114 2.5236C8.17205 2.55978 8.22858 2.65185 8.22858 2.73115C8.22858 2.85329 8.11043 2.97087 7.98767 2.97087C7.91334 2.97087 7.81461 2.90872 7.77945 2.83979C7.72043 2.7241 7.75748 2.5978 7.87048 2.52938C7.947 2.48307 8.01818 2.48128 8.10114 2.5236Z" fill="#26323C"/>
<rect width="0.495423" height="8.18248" fill="#26323C"/>
<path d="M1.24658 3.7716C1.24658 3.55095 1.42546 3.37207 1.64612 3.37207C1.86677 3.37207 2.04565 3.55095 2.04565 3.77161V7.83088H1.24658V3.7716Z" fill="#26323C"/>
<path d="M3.18066 5.67334C3.18066 5.45268 3.35954 5.2738 3.5802 5.2738C3.80086 5.2738 3.97973 5.45268 3.97973 5.67334V7.83083H3.18066V5.67334Z" fill="#26323C"/>
<path d="M5.11426 4.26697C5.11426 4.04631 5.29314 3.86743 5.51379 3.86743C5.73445 3.86743 5.91333 4.04631 5.91333 4.26697V7.83082H5.11426V4.26697Z" fill="#26323C"/>
<path d="M6.98364 5.67334C6.98364 5.45268 7.16252 5.2738 7.38318 5.2738C7.60383 5.2738 7.78271 5.45268 7.78271 5.67334V7.83083H6.98364V5.67334Z" fill="#26323C"/>
<rect x="8.18262" y="7.68701" width="0.495423" height="8.18248" transform="rotate(90 8.18262 7.68701)" fill="#26323C"/>
</svg>
