<svg width="23" height="24" viewBox="0 0 23 24" fill="none" xmlns="http://www.w3.org/2000/svg">
<path fill-rule="evenodd" clip-rule="evenodd" d="M9.32986 0.189898C9.18721 0.257598 8.94507 0.47892 8.74809 0.72161C8.66927 0.81871 6.72207 3.14976 4.42093 5.90171C2.11982 8.65369 0.203687 10.9514 0.162868 11.0077C0.0475285 11.1669 -0.0129011 11.3972 0.00231786 11.6195C0.0425259 12.2061 0.541768 12.5658 0.994133 12.3341C1.12605 12.2665 1.3029 12.0589 5.34912 7.22037C7.66874 4.44656 9.57297 2.17463 9.58076 2.17165C9.60221 2.16338 14.3461 7.8415 14.3341 7.86102C14.3283 7.87034 14.2573 7.88534 14.1763 7.89434C13.4739 7.97225 12.4087 8.33186 11.6623 8.74299C9.40168 9.98808 7.93087 12.2422 7.69693 14.8202C7.6574 15.2556 7.68241 16.1417 7.74606 16.5609C8.05164 18.5738 9.05454 20.2934 10.6594 21.5563L10.7409 21.6204L8.3101 21.6144C5.88291 21.6084 5.87901 21.6083 5.69141 21.5564C5.28402 21.4437 4.88934 21.1905 4.64125 20.8826C4.50889 20.7184 4.36684 20.4517 4.29049 20.2242L4.23532 20.0598L4.22356 17.1362C4.21287 14.4791 4.20827 14.2062 4.17308 14.1422C4.05828 13.933 3.82575 13.896 3.43675 14.0252C3.10823 14.1342 2.86221 14.3219 2.75096 14.5484L2.6852 14.6823L2.67806 17.7585C2.67317 19.8641 2.67902 20.9149 2.69659 21.0889C2.80319 22.1438 3.60052 22.9708 4.65859 23.1237C4.79739 23.1438 6.29404 23.1484 10.4356 23.1415C16.5159 23.1314 16.1191 23.1399 16.812 23.0049C19.593 22.4633 21.8569 20.4165 22.6833 17.697C22.7915 17.3408 22.8979 16.8403 22.9572 16.4083C23.0077 16.0398 23.0154 15.0136 22.9703 14.6471C22.778 13.083 22.2079 11.7427 21.2355 10.5692C21.0267 10.3172 20.5081 9.79545 20.2626 9.59043C19.2408 8.73698 17.9545 8.14062 16.6543 7.91744C16.4431 7.88119 16.4062 7.86759 16.3463 7.80391C16.3089 7.7641 14.9803 6.17817 13.3938 4.27962C11.8073 2.38107 10.4688 0.780152 10.4194 0.722033C10.2836 0.562282 9.98193 0.308179 9.83669 0.23118C9.64871 0.131521 9.48156 0.117924 9.32986 0.189898Z" fill="#59E2E5"/>
</svg>
