<svg width="3" height="7" viewBox="0 0 3 7" fill="none" xmlns="http://www.w3.org/2000/svg">
<path d="M1.09544 6.90998C0.925088 6.90998 0.786994 6.77188 0.786994 6.60154V2.41882C0.786994 2.24847 0.925088 2.11038 1.09544 2.11038H1.90176C2.0721 2.11038 2.2102 2.24847 2.2102 2.41882V6.60154C2.2102 6.77189 2.0721 6.90998 1.90176 6.90998H1.09544ZM1.50005 1.55105C1.3002 1.55105 1.12848 1.48022 0.984903 1.33857C0.841322 1.19483 0.769531 1.02193 0.769531 0.819861C0.769531 0.619878 0.841322 0.449059 0.984903 0.307404C1.12848 0.163666 1.3002 0.0917969 1.50005 0.0917969C1.70184 0.0917969 1.87356 0.163666 2.0152 0.307404C2.15878 0.449059 2.23057 0.619878 2.23057 0.819861C2.23057 1.02193 2.15878 1.19483 2.0152 1.33857C1.87356 1.48022 1.70184 1.55105 1.50005 1.55105Z" fill="#0B4977"/>
</svg>
