<svg width="15" height="15" viewBox="0 0 15 15" fill="none" xmlns="http://www.w3.org/2000/svg">
<rect width="15" height="15" rx="7.5" fill="#EBF0F4"/>
<path d="M7.09544 10.91C6.92509 10.91 6.78699 10.7719 6.78699 10.6015V6.41882C6.78699 6.24847 6.92509 6.11038 7.09544 6.11038H7.90176C8.0721 6.11038 8.2102 6.24847 8.2102 6.41882V10.6015C8.2102 10.7719 8.0721 10.91 7.90176 10.91H7.09544ZM7.50005 5.55105C7.3002 5.55105 7.12848 5.48022 6.9849 5.33857C6.84132 5.19483 6.76953 5.02193 6.76953 4.81986C6.76953 4.61988 6.84132 4.44906 6.9849 4.3074C7.12848 4.16367 7.3002 4.0918 7.50005 4.0918C7.70184 4.0918 7.87356 4.16367 8.0152 4.3074C8.15878 4.44906 8.23057 4.61988 8.23057 4.81986C8.23057 5.02193 8.15878 5.19483 8.0152 5.33857C7.87356 5.48022 7.70184 5.55105 7.50005 5.55105Z" fill="#0B4977"/>
</svg>
