<svg width="19" height="19" viewBox="0 0 19 19" fill="none" xmlns="http://www.w3.org/2000/svg">
<rect width="19" height="19" rx="9.5" fill="#EBF0F4"/>
<path d="M8.90478 13.82C8.73443 13.82 8.59634 13.6819 8.59634 13.5115V8.04891C8.59634 7.87856 8.73443 7.74046 8.90478 7.74046H10.0906C10.261 7.74046 10.3991 7.87856 10.3991 8.04891V13.5115C10.3991 13.6819 10.261 13.82 10.0906 13.82H8.90478ZM9.49954 7.03198C9.2464 7.03198 9.02889 6.94227 8.84702 6.76284C8.66515 6.58077 8.57422 6.36176 8.57422 6.10581C8.57422 5.8525 8.66515 5.63613 8.84702 5.4567C9.02889 5.27463 9.2464 5.18359 9.49954 5.18359C9.75514 5.18359 9.97265 5.27463 10.1521 5.4567C10.3339 5.63613 10.4249 5.8525 10.4249 6.10581C10.4249 6.36176 10.3339 6.58077 10.1521 6.76284C9.97265 6.94227 9.75514 7.03198 9.49954 7.03198Z" fill="#0B4977"/>
</svg>
