<svg width="40" height="38" viewBox="0 0 40 38" fill="none" xmlns="http://www.w3.org/2000/svg">
<path fill-rule="evenodd" clip-rule="evenodd" d="M33.1339 0.118019C32.0185 0.388602 32.3265 0.106173 23.105 9.31578L14.4618 17.9477L14.1638 17.8192C13.6393 17.593 12.7816 17.369 11.9497 17.2409C5.7217 16.2818 0.0328633 21.1515 0.000163894 27.4699C-0.00298683 28.0792 0.0396756 28.8491 0.0948558 29.1809C0.596842 32.1938 2.27584 34.742 4.85781 36.4095C7.34585 38.0163 10.7206 38.4437 13.605 37.5173C17.0245 36.419 19.6534 33.6109 20.538 30.1118C21.0331 28.1532 20.9218 25.8329 20.2467 24.0378L20.0335 23.4708L22.0355 21.4671L24.0376 19.4634L25.8918 21.3029C28.0523 23.4463 28.2052 23.5414 29.4916 23.5414C30.4381 23.5414 31.0217 23.3174 31.6915 22.6968C32.7812 21.6871 33.0621 20.2216 32.4307 18.8412C32.2551 18.4574 31.8654 18.0138 30.4497 16.5867L28.6874 14.8102L29.9816 13.515L31.2757 12.2197L33.0509 13.9835C34.4768 15.4003 34.92 15.7903 35.3036 15.9661C36.6833 16.5982 38.1419 16.3225 39.1433 15.24C39.777 14.555 40 13.9782 40 13.0246C40 11.7375 39.9046 11.5838 37.7662 9.42486L35.9312 7.57229L36.6277 6.85812C37.5917 5.86979 37.8629 5.28883 37.9068 4.1188C37.9335 3.41111 37.9074 3.17343 37.7535 2.71723C37.2999 1.3725 36.2797 0.434366 34.9228 0.114269C34.2724 -0.0392169 33.7778 -0.0381943 33.1339 0.118019ZM11.9673 22.8215C13.9368 23.438 15.3706 25.4046 15.3872 27.5125C15.3982 28.9109 14.9276 30.0721 13.9521 31.0535C11.9646 33.0529 8.88264 33.0516 6.88108 31.0506C5.90862 30.0783 5.43797 28.9192 5.44461 27.5125C5.45534 25.2183 7.07609 23.2072 9.32774 22.6938C10.0378 22.5319 11.2258 22.5893 11.9673 22.8215Z" fill="#0B4977"/>
</svg>
