<svg width="39" height="52" viewBox="0 0 39 52" fill="none" xmlns="http://www.w3.org/2000/svg">
<path d="M33.9346 25.7906C32.9841 25.3246 31.835 25.7168 31.369 26.672C31.046 27.3365 30.7045 27.9733 30.3446 28.587C29.1863 30.5713 27.8389 32.3017 26.3345 33.7507C22.2322 37.6961 15.8042 37.6914 11.7066 33.746C10.1976 32.2925 8.85479 30.5574 7.69193 28.5732C7.332 27.9548 6.98591 27.3134 6.65828 26.6443C6.19222 25.6937 5.0432 25.2969 4.09261 25.7629C3.14202 26.229 2.74518 27.378 3.21124 28.3286C3.56194 29.0439 3.93111 29.736 4.31872 30.4051C5.67078 32.7401 7.25355 34.7889 9.04398 36.5147C11.2774 38.6651 14.0923 40.0125 17.1194 40.414C17.8715 40.5386 19.0759 40.6816 20.931 40.414C23.9535 40.0125 26.7683 38.6697 29.0017 36.5194C30.7968 34.7935 32.3795 32.7401 33.7362 30.4005C34.1192 29.7453 34.4792 29.0669 34.8252 28.3609C35.2821 27.4057 34.8898 26.2521 33.9346 25.7906Z" fill="#3DA7C8"/>
<path d="M35.5374 5.84658C33.53 3.65469 30.6921 2.58874 28.3018 2.07191C28.0203 0.885986 26.9544 0 25.6854 0C24.1995 0 22.9951 1.20439 22.9951 2.69026C22.9951 4.17613 24.1995 5.38052 25.6854 5.38052C26.599 5.38052 27.402 4.9283 27.8911 4.2315C29.9353 4.6745 32.3118 5.5651 33.9269 7.33245C35.4912 9.04444 36.1096 11.3701 35.7681 14.2542C35.2651 18.0427 34.3976 21.499 33.1932 24.5676C33.9777 24.5907 34.6883 24.923 35.2005 25.449C36.4879 22.1912 37.4108 18.5319 37.9415 14.5357V14.5219C38.3614 10.9687 37.5539 8.0477 35.5374 5.84658Z" fill="#0B4977"/>
<path d="M12.3682 0C11.0946 0 10.0287 0.885986 9.7518 2.07191C7.36148 2.58874 4.52356 3.65008 2.51625 5.84658C0.49971 8.05232 -0.312444 10.9687 0.107477 14.5172V14.5311C0.638145 18.5226 1.56105 22.1773 2.84388 25.4306C3.36071 24.9091 4.07134 24.5815 4.85581 24.563C3.65142 21.4944 2.78389 18.0381 2.28091 14.2496C1.93944 11.3702 2.5624 9.03982 4.1221 7.32784C5.73718 5.56048 8.11365 4.6745 10.1579 4.22689C10.6424 4.91907 11.4499 5.3759 12.3636 5.3759C13.8495 5.3759 15.0539 4.17152 15.0539 2.68564C15.0585 1.20439 13.8541 0 12.3682 0Z" fill="#0B4977"/>
<path d="M17.345 49.2731V19.9156C17.345 18.882 18.1848 18.0468 19.2138 18.0468H19.2461C20.3167 18.0468 21.1842 18.9143 21.1842 19.9848V46.5321C21.1842 47.1459 21.6826 47.6442 22.2963 47.6442H34.0126C34.977 47.6442 35.7569 48.4241 35.7569 49.3885C35.7569 50.3206 35.0001 51.0774 34.068 51.0774H19.1446C18.1525 51.0728 17.345 50.2699 17.345 49.2731Z" fill="#0B4977"/>
</svg>
