<svg width="57" height="93" viewBox="0 0 57 93" fill="none" xmlns="http://www.w3.org/2000/svg">
<g clip-path="url(#clip0_2087_31909)">
<path d="M40.6526 15.0767C37.0411 15.0767 34.1152 17.9837 34.1152 21.5719V43.5743C34.1152 52.5434 41.4328 59.8168 50.4628 59.8168C54.0743 59.8168 57.0001 56.9097 57.0001 53.3215V31.3191C57.0001 22.35 49.6826 15.0767 40.6526 15.0767Z" fill="#2839FF"/>
<path d="M45.1168 12.8651C48.6924 12.8651 51.591 9.98517 51.591 6.43256C51.591 2.87996 48.6924 0 45.1168 0C41.5412 0 38.6426 2.87996 38.6426 6.43256C38.6426 9.98517 41.5412 12.8651 45.1168 12.8651Z" fill="#2839FF"/>
<path d="M18.357 12.8651C21.9326 12.8651 24.8312 9.98517 24.8312 6.43256C24.8312 2.87996 21.9326 0 18.357 0C14.7814 0 11.8828 2.87996 11.8828 6.43256C11.8828 9.98517 14.7814 12.8651 18.357 12.8651Z" fill="#2839FF"/>
<path d="M23.2607 15.0767H23.08C14.1532 15.0767 6.91602 22.2673 6.91602 31.1367C6.91602 31.9946 7.62167 32.6957 8.48795 32.6957C12.2629 32.6957 15.2203 35.6455 15.2203 39.4104C15.2203 43.1753 9.48906 47.5843 9.48906 47.5843C8.52238 48.3453 7.86836 48.8754 7.79951 48.9296L7.50406 49.1661C7.13402 49.4625 6.91888 49.9071 6.91888 50.3802V86.5046C6.91888 90.0928 9.84476 92.9999 13.4562 92.9999H13.6369C22.5637 92.9999 29.8009 85.8092 29.8009 76.9399V21.5719C29.8009 17.9837 26.8751 15.0767 23.2636 15.0767H23.2607Z" fill="#2839FF"/>
<path d="M12.2465 39.4104C12.2465 37.5522 10.8352 36.1528 8.99367 36.1528C7.54221 36.1528 6.60994 37.0962 6.1223 37.9427C5.63465 37.0962 4.70239 36.1528 3.25093 36.1528C1.40935 36.1528 -0.00195312 37.5551 -0.00195312 39.4104C-0.00195312 41.4254 1.76791 42.7963 4.4098 44.874C5.7035 45.8915 5.78668 45.9684 6.1223 46.2363C6.39481 46.0169 6.54684 45.8858 7.83479 44.874C10.4767 42.7963 12.2465 41.4254 12.2465 39.4104Z" fill="#6AE5CE"/>
<path d="M40.6526 15.0767C37.0411 15.0767 34.1152 17.9837 34.1152 21.5719V43.5743C34.1152 52.5434 41.4328 59.8168 50.4628 59.8168C54.0743 59.8168 57.0001 56.9097 57.0001 53.3215V31.3191C57.0001 22.35 49.6826 15.0767 40.6526 15.0767Z" fill="#2839FF"/>
<path d="M40.6526 15.0767C37.0411 15.0767 34.1152 17.9837 34.1152 21.5719V43.5743C34.1152 52.5434 41.4328 59.8168 50.4628 59.8168C54.0743 59.8168 57.0001 56.9097 57.0001 53.3215V31.3191C57.0001 22.35 49.6826 15.0767 40.6526 15.0767Z" fill="#2839FF"/>
<path d="M45.1168 12.8651C48.6924 12.8651 51.591 9.98517 51.591 6.43256C51.591 2.87996 48.6924 0 45.1168 0C41.5412 0 38.6426 2.87996 38.6426 6.43256C38.6426 9.98517 41.5412 12.8651 45.1168 12.8651Z" fill="#2839FF"/>
<path d="M45.1168 12.8651C48.6924 12.8651 51.591 9.98517 51.591 6.43256C51.591 2.87996 48.6924 0 45.1168 0C41.5412 0 38.6426 2.87996 38.6426 6.43256C38.6426 9.98517 41.5412 12.8651 45.1168 12.8651Z" fill="#2839FF"/>
<path d="M18.357 12.8651C21.9326 12.8651 24.8312 9.98517 24.8312 6.43256C24.8312 2.87996 21.9326 0 18.357 0C14.7814 0 11.8828 2.87996 11.8828 6.43256C11.8828 9.98517 14.7814 12.8651 18.357 12.8651Z" fill="#2839FF"/>
<path d="M18.357 12.8651C21.9326 12.8651 24.8312 9.98517 24.8312 6.43256C24.8312 2.87996 21.9326 0 18.357 0C14.7814 0 11.8828 2.87996 11.8828 6.43256C11.8828 9.98517 14.7814 12.8651 18.357 12.8651Z" fill="#2839FF"/>
<path d="M23.2607 15.0767H23.08C14.1532 15.0767 6.91602 22.2673 6.91602 31.1367C6.91602 31.9946 7.62167 32.6957 8.48795 32.6957C12.2629 32.6957 15.2203 35.6455 15.2203 39.4104C15.2203 43.1753 9.48906 47.5843 9.48906 47.5843C8.52238 48.3453 7.86836 48.8754 7.79951 48.9296L7.50406 49.1661C7.13402 49.4625 6.91888 49.9071 6.91888 50.3802V86.5046C6.91888 90.0928 9.84476 92.9999 13.4562 92.9999H13.6369C22.5637 92.9999 29.8009 85.8092 29.8009 76.9399V21.5719C29.8009 17.9837 26.8751 15.0767 23.2636 15.0767H23.2607Z" fill="#2839FF"/>
<path d="M23.2607 15.0767H23.08C14.1532 15.0767 6.91602 22.2673 6.91602 31.1367C6.91602 31.9946 7.62167 32.6957 8.48795 32.6957C12.2629 32.6957 15.2203 35.6455 15.2203 39.4104C15.2203 43.1753 9.48906 47.5843 9.48906 47.5843C8.52238 48.3453 7.86836 48.8754 7.79951 48.9296L7.50406 49.1661C7.13402 49.4625 6.91888 49.9071 6.91888 50.3802V86.5046C6.91888 90.0928 9.84476 92.9999 13.4562 92.9999H13.6369C22.5637 92.9999 29.8009 85.8092 29.8009 76.9399V21.5719C29.8009 17.9837 26.8751 15.0767 23.2636 15.0767H23.2607Z" fill="#2839FF"/>
<path d="M12.2465 39.4104C12.2465 37.5522 10.8352 36.1528 8.99367 36.1528C7.54221 36.1528 6.60994 37.0962 6.1223 37.9427C5.63465 37.0962 4.70239 36.1528 3.25093 36.1528C1.40935 36.1528 -0.00195312 37.5551 -0.00195312 39.4104C-0.00195312 41.4254 1.76791 42.7963 4.4098 44.874C5.7035 45.8915 5.78668 45.9684 6.1223 46.2363C6.39481 46.0169 6.54684 45.8858 7.83479 44.874C10.4767 42.7963 12.2465 41.4254 12.2465 39.4104Z" fill="#2839FF"/>
<path d="M12.2465 39.4104C12.2465 37.5522 10.8352 36.1528 8.99367 36.1528C7.54221 36.1528 6.60994 37.0962 6.1223 37.9427C5.63465 37.0962 4.70239 36.1528 3.25093 36.1528C1.40935 36.1528 -0.00195312 37.5551 -0.00195312 39.4104C-0.00195312 41.4254 1.76791 42.7963 4.4098 44.874C5.7035 45.8915 5.78668 45.9684 6.1223 46.2363C6.39481 46.0169 6.54684 45.8858 7.83479 44.874C10.4767 42.7963 12.2465 41.4254 12.2465 39.4104Z" fill="#2839FF"/>
<path d="M12.2465 39.4104C12.2465 37.5522 10.8352 36.1528 8.99367 36.1528C7.54221 36.1528 6.60994 37.0962 6.1223 37.9427C5.63465 37.0962 4.70239 36.1528 3.25093 36.1528C1.40935 36.1528 -0.00195312 37.5551 -0.00195312 39.4104C-0.00195312 41.4254 1.76791 42.7963 4.4098 44.874C5.7035 45.8915 5.78668 45.9684 6.1223 46.2363C6.39481 46.0169 6.54684 45.8858 7.83479 44.874C10.4767 42.7963 12.2465 41.4254 12.2465 39.4104Z" fill="#2839FF"/>
</g>
<defs>
<clipPath id="clip0_2087_31909">
<rect width="57" height="93" fill="white"/>
</clipPath>
</defs>
</svg>
