<svg width="96" height="80" viewBox="0 0 96 80" fill="none" xmlns="http://www.w3.org/2000/svg">
<path d="M26.9633 45.9053H34.8513C36.0075 45.9053 37.0669 46.1858 38.0295 46.7488C38.99 47.3097 39.7568 48.0685 40.3279 49.0209C40.8989 49.9734 41.1835 50.9965 41.1835 52.0841C41.1835 53.1718 40.903 54.2332 40.342 55.1614C39.781 56.0897 39.0182 56.8201 38.0577 57.3569C37.0952 57.8937 36.0277 58.16 34.8533 58.16L30.8195 58.1863V63.7779H26.9653V45.9073L26.9633 45.9053ZM34.597 54.7397C35.4304 54.7397 36.1205 54.4673 36.6654 53.9224C37.2102 53.3776 37.4826 52.7218 37.4826 51.957C37.4826 51.1922 37.2142 50.5868 36.6795 50.0924C36.1427 49.598 35.4506 49.3519 34.599 49.3519L30.8215 49.3781V54.7639L34.599 54.7377L34.597 54.7397Z" fill="#2939FF"/>
<path d="M45.7015 45.9053H51.5212L57.47 63.7759H53.5129L52.3647 60.2264H44.7834L43.609 63.7759H39.6256L45.7015 45.9053ZM51.2427 56.7556L48.6134 48.5608L45.9074 56.7556H51.2427Z" fill="#2939FF"/>
<path d="M65.5639 63.9797C63.9132 63.9797 62.3897 63.572 60.9933 62.7548C59.5969 61.9375 58.4871 60.8317 57.6617 59.4353C56.8364 58.0389 56.4227 56.5174 56.4227 54.8648C56.4227 53.2121 56.8344 51.6906 57.6617 50.2942C58.4871 48.8978 59.5969 47.788 60.9933 46.9626C62.3897 46.1373 63.9112 45.7236 65.5639 45.7236C67.3679 45.7236 68.9883 46.218 70.427 47.2048C71.8658 48.1915 72.9575 49.5032 73.7081 51.1357L70.0577 52.183C69.5977 51.3314 68.9862 50.6554 68.2194 50.1529C67.4546 49.6505 66.5688 49.3922 65.5639 49.374C64.5589 49.374 63.6529 49.6162 62.8457 50.1025C62.0366 50.5868 61.4029 51.2507 60.9428 52.0942C60.4828 52.9356 60.2527 53.8598 60.2527 54.8648C60.2527 55.8697 60.4828 56.7878 60.9428 57.6212C61.4029 58.4546 62.0366 59.1145 62.8457 59.6008C63.6529 60.0851 64.561 60.3293 65.5639 60.3293C66.5668 60.3293 67.4446 60.0952 68.1932 59.627C68.9418 59.1589 69.5371 58.499 69.9811 57.6475L73.6819 58.6423C72.9494 60.2586 71.8658 61.5521 70.427 62.5227C68.9883 63.4933 67.3679 63.9776 65.5639 63.9776V63.9797Z" fill="#2939FF"/>
<path d="M75.6816 45.0742H79.3825V62.9448H75.6816V45.0742Z" fill="#2AD3B3"/>
<path d="M85.4867 62.8684L79.9213 49.415H83.8522L87.3754 58.5299L90.7191 49.415H94.65L87.1696 68.3067H83.3396L85.4846 62.8684H85.4867Z" fill="#2AD3B3"/>
<path d="M28.4081 69.7433C28.061 69.7433 27.7442 69.6586 27.4576 69.4871C27.1711 69.3176 26.9471 69.0855 26.7816 68.7949C26.6162 68.5043 26.5334 68.1855 26.5334 67.8425C26.5334 67.4994 26.6162 67.1745 26.7816 66.884C26.9471 66.5934 27.1731 66.3613 27.4597 66.1918C27.7462 66.0223 28.063 65.9355 28.4081 65.9355C28.7875 65.9355 29.1305 66.0425 29.4332 66.2544C29.7359 66.4683 29.9619 66.7488 30.1072 67.1019L29.7339 67.2028C29.6168 66.9304 29.4413 66.7104 29.2092 66.547C28.9771 66.3835 28.7088 66.3028 28.4081 66.3028C28.1236 66.3028 27.8693 66.3694 27.6413 66.5046C27.4133 66.6398 27.2377 66.8254 27.1085 67.0615C26.9814 67.2976 26.9168 67.5579 26.9168 67.8425C26.9168 68.127 26.9814 68.3752 27.1085 68.6093C27.2357 68.8434 27.4133 69.029 27.6413 69.1682C27.8693 69.3075 28.1236 69.3761 28.4081 69.3761C28.7108 69.3761 28.9751 69.2954 29.2072 69.1339C29.4372 68.9725 29.6128 68.7566 29.7339 68.4862L30.1072 68.581C29.9619 68.9281 29.7379 69.2086 29.4372 69.4225C29.1365 69.6364 28.7935 69.7413 28.4101 69.7413L28.4081 69.7433Z" fill="#2939FF"/>
<path d="M31.9212 69.7693C31.6548 69.7693 31.4127 69.7047 31.1927 69.5755C30.9728 69.4464 30.7972 69.2688 30.6681 69.0469C30.5389 68.8229 30.4744 68.5787 30.4744 68.3123C30.4744 68.046 30.5389 67.8079 30.6681 67.5859C30.7972 67.3639 30.9728 67.1884 31.1927 67.0552C31.4127 66.924 31.6569 66.8574 31.9212 66.8574C32.1856 66.8574 32.4257 66.924 32.6477 67.0552C32.8696 67.1863 33.0452 67.3639 33.1723 67.5879C33.2994 67.8119 33.364 68.052 33.364 68.3123C33.364 68.5726 33.2994 68.8188 33.1723 69.0408C33.0452 69.2648 32.8696 69.4424 32.6477 69.5735C32.4257 69.7047 32.1835 69.7713 31.9212 69.7713V69.7693ZM31.9212 69.4242C32.121 69.4242 32.3026 69.3738 32.4701 69.2729C32.6376 69.172 32.7687 69.0368 32.8636 68.8673C32.9584 68.6998 33.0068 68.5141 33.0068 68.3103C33.0068 68.1065 32.9584 67.9269 32.8636 67.7574C32.7667 67.5879 32.6355 67.4507 32.4701 67.3498C32.3026 67.2489 32.121 67.1984 31.9212 67.1984C31.7214 67.1984 31.5297 67.2489 31.3643 67.3498C31.1988 67.4507 31.0696 67.5859 30.9728 67.7554C30.8779 67.9249 30.8295 68.1085 30.8295 68.3123C30.8295 68.5161 30.8779 68.7058 30.9728 68.8733C31.0696 69.0428 31.2008 69.176 31.3663 69.2749C31.5338 69.3738 31.7174 69.4242 31.9192 69.4242H31.9212Z" fill="#2939FF"/>
<path d="M33.8282 66.9058H34.1955V67.4487C34.2924 67.2792 34.4276 67.1379 34.6031 67.0249C34.7787 66.9139 34.9845 66.8574 35.2186 66.8574C35.4284 66.8574 35.6242 66.9038 35.8078 66.9987C35.9914 67.0935 36.1388 67.2287 36.2497 67.4063C36.3607 67.5839 36.4172 67.7917 36.4172 68.0298V69.7289H36.0439V68.1529C36.0439 67.9511 36.0036 67.7776 35.9249 67.6363C35.8441 67.4951 35.7372 67.3861 35.602 67.3135C35.4668 67.2408 35.3175 67.2045 35.154 67.2045C34.9724 67.2045 34.809 67.2509 34.6616 67.3437C34.5143 67.4366 34.3993 67.5657 34.3186 67.7292C34.2359 67.8946 34.1955 68.0823 34.1955 68.2901V69.7269H33.8282V66.9058Z" fill="#2939FF"/>
<path d="M36.9902 66.9058H37.3575V67.4487C37.4544 67.2792 37.5896 67.1379 37.7651 67.0249C37.9407 66.9139 38.1465 66.8574 38.3806 66.8574C38.5904 66.8574 38.7862 66.9038 38.9698 66.9987C39.1534 67.0935 39.3007 67.2287 39.4117 67.4063C39.5227 67.5839 39.5792 67.7917 39.5792 68.0298V69.7289H39.2059V68.1529C39.2059 67.9511 39.1655 67.7776 39.0868 67.6363C39.0061 67.4951 38.8992 67.3861 38.764 67.3135C38.6288 67.2408 38.4795 67.2045 38.316 67.2045C38.1344 67.2045 37.9709 67.2509 37.8236 67.3437C37.6763 67.4366 37.5613 67.5657 37.4806 67.7292C37.3979 67.8946 37.3575 68.0823 37.3575 68.2901V69.7269H36.9902V66.9058Z" fill="#2939FF"/>
<path d="M41.4882 69.7693C41.2219 69.7693 40.9797 69.7027 40.7598 69.5715C40.5398 69.4403 40.3663 69.2628 40.2371 69.0388C40.11 68.8148 40.0454 68.5726 40.0454 68.3103C40.0454 68.048 40.11 67.7998 40.2371 67.5778C40.3642 67.3558 40.5398 67.1803 40.7598 67.0511C40.9797 66.922 41.2239 66.8574 41.4882 66.8574C41.7304 66.8574 41.9523 66.9139 42.1602 67.0269C42.366 67.1399 42.5335 67.2953 42.6626 67.491C42.7918 67.6868 42.8705 67.9007 42.8987 68.1348C42.9209 68.2457 42.9209 68.3487 42.9048 68.4435H40.4127C40.4308 68.6352 40.4873 68.8067 40.5862 68.9581C40.6831 69.1094 40.8122 69.2244 40.9696 69.3072C41.127 69.3879 41.3006 69.4303 41.4882 69.4303C41.6759 69.4303 41.8656 69.3838 42.0371 69.291C42.2066 69.1982 42.3438 69.0771 42.4467 68.9238L42.7877 68.9924C42.6747 69.2264 42.4992 69.4141 42.2611 69.5574C42.023 69.6986 41.7667 69.7713 41.4882 69.7713V69.7693ZM42.5375 68.1469C42.5194 67.9733 42.4629 67.8119 42.364 67.6646C42.2671 67.5173 42.142 67.4023 41.9887 67.3195C41.8353 67.2368 41.6678 67.1944 41.4822 67.1944C41.2965 67.1944 41.121 67.2368 40.9656 67.3195C40.8102 67.4023 40.6831 67.5193 40.5882 67.6646C40.4914 67.8119 40.4329 67.9733 40.4127 68.1469H42.5375Z" fill="#2939FF"/>
<path d="M44.737 69.7693C44.4666 69.7693 44.2224 69.7027 44.0025 69.5695C43.7825 69.4363 43.609 69.2587 43.4839 69.0347C43.3588 68.8108 43.2942 68.5706 43.2942 68.3103C43.2942 68.05 43.3588 67.7998 43.4859 67.5778C43.613 67.3558 43.7886 67.1803 44.0085 67.0511C44.2285 66.922 44.4726 66.8574 44.737 66.8574C45.0356 66.8574 45.304 66.9402 45.5401 67.1056C45.7762 67.2711 45.9498 67.489 46.0567 67.7574L45.6995 67.8381C45.6107 67.6464 45.4816 67.491 45.3101 67.374C45.1406 67.257 44.9489 67.1984 44.735 67.1984C44.5211 67.1984 44.3496 67.2489 44.1841 67.3478C44.0186 67.4466 43.8875 67.5819 43.7906 67.7534C43.6937 67.9229 43.6433 68.1105 43.6433 68.3123C43.6433 68.5141 43.6917 68.7058 43.7906 68.8773C43.8875 69.0468 44.0206 69.1821 44.1881 69.2789C44.3556 69.3758 44.5372 69.4262 44.737 69.4262C44.9509 69.4262 45.1426 69.3677 45.3121 69.2527C45.4816 69.1377 45.6128 68.9863 45.7016 68.7966L46.0587 68.8713C45.9477 69.1417 45.7762 69.3576 45.5401 69.5231C45.304 69.6885 45.0377 69.7713 44.739 69.7713L44.737 69.7693Z" fill="#2939FF"/>
<path d="M48.2179 69.7175C47.9415 69.784 47.7034 69.7982 47.5076 69.7578C47.3119 69.7175 47.1626 69.6226 47.0596 69.4733C46.9588 69.324 46.9083 69.1222 46.9083 68.8659L46.9144 67.2375H46.2969V66.9065H46.9144V66.1074H47.2756V66.9065H48.2179V67.2375H47.2756L47.2695 68.8619C47.2695 69.0314 47.3038 69.1646 47.3765 69.2594C47.4471 69.3542 47.554 69.4087 47.6933 69.4269C47.8325 69.445 48.0081 69.4208 48.2179 69.3583V69.7195V69.7175Z" fill="#2939FF"/>
<path d="M48.8192 69.1641H49.2127L48.8354 70.3405H48.5488L48.8212 69.1641H48.8192Z" fill="#2939FF"/>
<path d="M28.4081 74.2414C28.061 74.2414 27.7442 74.1566 27.4576 73.9851C27.1711 73.8156 26.9471 73.5835 26.7816 73.293C26.6162 73.0024 26.5334 72.6836 26.5334 72.3405C26.5334 71.9975 26.6162 71.6726 26.7816 71.382C26.9471 71.0914 27.1731 70.8594 27.4597 70.6899C27.7462 70.5204 28.063 70.4336 28.4081 70.4336C28.7875 70.4336 29.1305 70.5405 29.4332 70.7524C29.7359 70.9663 29.9619 71.2468 30.1072 71.5999L29.7339 71.7008C29.6168 71.4284 29.4413 71.2085 29.2092 71.045C28.9771 70.8816 28.7088 70.8008 28.4081 70.8008C28.1236 70.8008 27.8693 70.8674 27.6413 71.0026C27.4133 71.1378 27.2377 71.3235 27.1085 71.5596C26.9814 71.7957 26.9168 72.056 26.9168 72.3405C26.9168 72.625 26.9814 72.8732 27.1085 73.1073C27.2357 73.3414 27.4133 73.527 27.6413 73.6663C27.8693 73.8055 28.1236 73.8741 28.4081 73.8741C28.7108 73.8741 28.9751 73.7934 29.2072 73.632C29.4372 73.4705 29.6128 73.2546 29.7339 72.9842L30.1072 73.0791C29.9619 73.4261 29.7379 73.7066 29.4372 73.9205C29.1365 74.1344 28.7935 74.2394 28.4101 74.2394L28.4081 74.2414Z" fill="#2939FF"/>
<path d="M31.9212 74.2673C31.6548 74.2673 31.4127 74.2027 31.1927 74.0736C30.9728 73.9444 30.7972 73.7669 30.6681 73.5449C30.5389 73.3209 30.4744 73.0767 30.4744 72.8104C30.4744 72.544 30.5389 72.3059 30.6681 72.0839C30.7972 71.862 30.9728 71.6864 31.1927 71.5532C31.4127 71.4221 31.6569 71.3555 31.9212 71.3555C32.1856 71.3555 32.4257 71.4221 32.6477 71.5532C32.8696 71.6844 33.0452 71.862 33.1723 72.086C33.2994 72.3099 33.364 72.5501 33.364 72.8104C33.364 73.0707 33.2994 73.3169 33.1723 73.5388C33.0452 73.7628 32.8696 73.9404 32.6477 74.0716C32.4257 74.2027 32.1835 74.2693 31.9212 74.2693V74.2673ZM31.9212 73.9222C32.121 73.9222 32.3026 73.8718 32.4701 73.7709C32.6376 73.67 32.7687 73.5348 32.8636 73.3653C32.9584 73.1978 33.0068 73.0122 33.0068 72.8084C33.0068 72.6046 32.9584 72.425 32.8636 72.2555C32.7667 72.086 32.6355 71.9487 32.4701 71.8478C32.3026 71.7469 32.121 71.6965 31.9212 71.6965C31.7214 71.6965 31.5297 71.7469 31.3643 71.8478C31.1988 71.9487 31.0696 72.0839 30.9728 72.2534C30.8779 72.4229 30.8295 72.6066 30.8295 72.8104C30.8295 73.0142 30.8779 73.2039 30.9728 73.3714C31.0696 73.5409 31.2008 73.674 31.3663 73.7729C31.5338 73.8718 31.7174 73.9222 31.9192 73.9222H31.9212Z" fill="#2939FF"/>
<path d="M33.8282 71.4039H34.1955V71.9467C34.2924 71.7772 34.4276 71.636 34.6031 71.523C34.7787 71.412 34.9845 71.3555 35.2186 71.3555C35.4284 71.3555 35.6242 71.4019 35.8078 71.4967C35.9914 71.5916 36.1388 71.7268 36.2497 71.9043C36.3607 72.0819 36.4172 72.2898 36.4172 72.5279V74.227H36.0439V72.651C36.0439 72.4492 36.0036 72.2756 35.9249 72.1344C35.8441 71.9931 35.7372 71.8842 35.602 71.8115C35.4668 71.7389 35.3175 71.7025 35.154 71.7025C34.9724 71.7025 34.809 71.749 34.6616 71.8418C34.5143 71.9346 34.3993 72.0638 34.3186 72.2272C34.2359 72.3927 34.1955 72.5803 34.1955 72.7882V74.2249H33.8282V71.4039Z" fill="#2939FF"/>
<path d="M38.1404 74.2672C37.9104 74.2672 37.6904 74.2269 37.4806 74.1482C37.2707 74.0675 37.081 73.9646 36.9115 73.8374V73.4177C37.0507 73.567 37.2283 73.6921 37.4462 73.793C37.6642 73.8939 37.8942 73.9444 38.1364 73.9444C38.2817 73.9444 38.4088 73.9222 38.5198 73.8778C38.6287 73.8334 38.7135 73.7749 38.772 73.7043C38.8305 73.6336 38.8588 73.5549 38.8547 73.4702C38.8547 73.3531 38.7902 73.2522 38.663 73.1675C38.5359 73.0827 38.32 73.0101 38.0193 72.9496C37.644 72.8709 37.3655 72.774 37.188 72.657C37.0104 72.5399 36.9216 72.3765 36.9216 72.1666C36.9216 71.9971 36.9741 71.8498 37.079 71.7267C37.1839 71.6036 37.3211 71.5128 37.4906 71.4502C37.6601 71.3877 37.8377 71.3574 38.0234 71.3574C38.2433 71.3574 38.4451 71.3917 38.6287 71.4583C38.8124 71.5249 38.9778 71.6056 39.1272 71.6984V72.0758C38.9577 71.9547 38.7801 71.8599 38.5944 71.7893C38.4108 71.7186 38.2191 71.6823 38.0254 71.6823C37.9003 71.6823 37.7812 71.7005 37.6682 71.7388C37.5552 71.7751 37.4624 71.8316 37.3918 71.9063C37.3211 71.981 37.2848 72.0657 37.2848 72.1626C37.2848 72.2655 37.3272 72.3482 37.4119 72.4108C37.4967 72.4733 37.6319 72.5258 37.8175 72.5682C37.874 72.5823 37.9346 72.5964 37.9992 72.6085C38.0637 72.6206 38.1283 72.6348 38.1969 72.6489C38.5662 72.7235 38.8285 72.8285 38.9819 72.9637C39.1373 73.0989 39.2139 73.2664 39.2139 73.4702C39.218 73.7184 39.1191 73.9141 38.9153 74.0594C38.7135 74.2027 38.4552 74.2753 38.1424 74.2753L38.1404 74.2672Z" fill="#2939FF"/>
<path d="M40.8767 74.2738C40.6628 74.2738 40.4671 74.2253 40.2855 74.1305C40.1039 74.0356 39.9586 73.8984 39.8456 73.7209C39.7326 73.5433 39.6781 73.3354 39.6781 73.0973V71.4043H40.0514V72.9803C40.0514 73.1801 40.0918 73.3496 40.1705 73.4888C40.2512 73.63 40.3581 73.737 40.4954 73.8117C40.6326 73.8863 40.7779 73.9226 40.9353 73.9226C41.1189 73.9226 41.2844 73.8783 41.4296 73.7874C41.5749 73.6966 41.6879 73.5695 41.7707 73.404C41.8514 73.2386 41.8938 73.0509 41.8938 72.8431V71.4063H42.2671V74.2273H41.8938V73.6845C41.8009 73.852 41.6678 73.9913 41.4922 74.1043C41.3166 74.2173 41.1108 74.2738 40.8767 74.2738Z" fill="#2939FF"/>
<path d="M42.9108 70.498H43.278V74.2251H42.9108V70.498Z" fill="#2939FF"/>
<path d="M45.6793 74.2155C45.4029 74.2821 45.1648 74.2962 44.969 74.2559C44.7733 74.2155 44.624 74.1207 44.5211 73.9713C44.4202 73.822 44.3697 73.6202 44.3697 73.3639L44.3758 71.7355H43.7583V71.4046H44.3758V70.6055H44.737V71.4046H45.6793V71.7355H44.737L44.7309 73.3599C44.7309 73.5294 44.7652 73.6626 44.8379 73.7574C44.9085 73.8523 45.0155 73.9068 45.1547 73.9249C45.2939 73.9431 45.4695 73.9189 45.6793 73.8563V74.2175V74.2155Z" fill="#2939FF"/>
<path d="M46.2807 73.6602H46.6741L46.2968 74.8366H46.0103L46.2827 73.6602H46.2807Z" fill="#2939FF"/>
<path d="M28.4081 78.7394C28.061 78.7394 27.7442 78.6547 27.4576 78.4832C27.1711 78.3137 26.9471 78.0816 26.7816 77.791C26.6162 77.5004 26.5334 77.1816 26.5334 76.8386C26.5334 76.4955 26.6162 76.1706 26.7816 75.8801C26.9471 75.5895 27.1731 75.3574 27.4597 75.1879C27.7462 75.0184 28.063 74.9316 28.4081 74.9316C28.7875 74.9316 29.1305 75.0386 29.4332 75.2505C29.7359 75.4644 29.9619 75.7449 30.1072 76.098L29.7339 76.1989C29.6168 75.9265 29.4413 75.7065 29.2092 75.5431C28.9771 75.3796 28.7088 75.2989 28.4081 75.2989C28.1236 75.2989 27.8693 75.3655 27.6413 75.5007C27.4133 75.6359 27.2377 75.8215 27.1085 76.0576C26.9814 76.2937 26.9168 76.554 26.9168 76.8386C26.9168 77.1231 26.9814 77.3713 27.1085 77.6054C27.2357 77.8394 27.4133 78.0251 27.6413 78.1643C27.8693 78.3036 28.1236 78.3722 28.4081 78.3722C28.7108 78.3722 28.9751 78.2915 29.2072 78.13C29.4372 77.9686 29.6128 77.7527 29.7339 77.4823L30.1072 77.5771C29.9619 77.9242 29.7379 78.2047 29.4372 78.4186C29.1365 78.6325 28.7935 78.7374 28.4101 78.7374L28.4081 78.7394Z" fill="#2939FF"/>
<path d="M31.5217 78.7654C31.2352 78.7654 30.993 78.6948 30.7973 78.5556C30.6015 78.4163 30.4986 78.2125 30.4885 77.9461C30.4885 77.7766 30.5289 77.6233 30.6116 77.4901C30.6944 77.3569 30.8275 77.25 31.0172 77.1672C31.2049 77.0865 31.447 77.0441 31.7416 77.0441L32.6739 77.0381V76.8101C32.6739 76.6042 32.5892 76.4448 32.4217 76.3338C32.2522 76.2229 32.0423 76.1664 31.7901 76.1664C31.5802 76.1664 31.3966 76.2067 31.2372 76.2894C31.0778 76.3702 30.9809 76.5033 30.9506 76.6829L30.5834 76.689C30.6015 76.5114 30.6641 76.3601 30.7751 76.2329C30.884 76.1078 31.0273 76.011 31.2008 75.9484C31.3744 75.8838 31.5681 75.8516 31.782 75.8516C32.012 75.8516 32.2239 75.8879 32.4136 75.9625C32.6033 76.0372 32.7546 76.1421 32.8656 76.2794C32.9766 76.4166 33.0331 76.576 33.0331 76.7616V78.721H32.6759V78.0612C32.5972 78.2206 32.4661 78.378 32.2784 78.5313C32.0928 78.6867 31.8405 78.7634 31.5257 78.7634L31.5217 78.7654ZM31.5439 78.4466C31.7437 78.4466 31.9293 78.3961 32.1029 78.2952C32.2764 78.1944 32.4156 78.0571 32.5185 77.8856C32.6215 77.7141 32.6739 77.5284 32.6739 77.3287H31.8002C31.5621 77.3287 31.3724 77.3589 31.2311 77.4215C31.0899 77.4841 30.989 77.5627 30.9325 77.6576C30.876 77.7524 30.8517 77.8533 30.8639 77.9562C30.882 78.1096 30.9547 78.2287 31.0818 78.3154C31.2089 78.4022 31.3643 78.4466 31.5439 78.4466Z" fill="#2939FF"/>
<path d="M33.6305 75.9023H33.9978V76.5037C34.0906 76.2736 34.2399 76.1021 34.4457 75.9891C34.6516 75.8781 34.8977 75.8438 35.1863 75.8902V76.2837C34.9704 76.2333 34.7706 76.2413 34.589 76.3079C34.4074 76.3745 34.2641 76.4936 34.1572 76.6671C34.0502 76.8407 33.9978 77.0546 33.9978 77.3068V78.7234H33.6305V75.9023Z" fill="#2939FF"/>
<path d="M36.8146 78.7654C36.5483 78.7654 36.3061 78.6988 36.0862 78.5676C35.8662 78.4364 35.6927 78.2589 35.5635 78.0349C35.4364 77.8109 35.3718 77.5687 35.3718 77.3064C35.3718 77.0441 35.4364 76.7959 35.5635 76.5739C35.6907 76.3519 35.8662 76.1764 36.0862 76.0472C36.3061 75.9181 36.5503 75.8535 36.8146 75.8535C37.0568 75.8535 37.2788 75.91 37.4866 76.023C37.6924 76.136 37.8599 76.2914 37.9891 76.4871C38.1182 76.6829 38.1969 76.8968 38.2251 77.1309C38.2473 77.2418 38.2473 77.3448 38.2312 77.4396H35.7391C35.7572 77.6313 35.8137 77.8028 35.9126 77.9542C36.0095 78.1055 36.1386 78.2205 36.296 78.3033C36.4534 78.384 36.627 78.4263 36.8146 78.4263C37.0023 78.4263 37.192 78.3799 37.3635 78.2871C37.533 78.1943 37.6702 78.0732 37.7731 77.9199L38.1142 77.9885C38.0012 78.2225 37.8256 78.4102 37.5875 78.5535C37.3494 78.6947 37.0931 78.7674 36.8146 78.7674V78.7654ZM37.8619 77.1409C37.8438 76.9674 37.7873 76.806 37.6884 76.6587C37.5915 76.5114 37.4664 76.3963 37.3131 76.3136C37.1597 76.2309 36.9922 76.1885 36.8066 76.1885C36.6209 76.1885 36.4454 76.2309 36.29 76.3136C36.1346 76.3963 36.0075 76.5134 35.9126 76.6587C35.8158 76.806 35.7572 76.9674 35.7371 77.1409H37.8619Z" fill="#2939FF"/>
<path d="M38.879 78.7655C38.8043 78.7655 38.7398 78.7373 38.6853 78.6828C38.6308 78.6283 38.6025 78.5617 38.6025 78.483C38.6025 78.4043 38.6288 78.3317 38.6833 78.2752C38.7357 78.2187 38.8023 78.1904 38.881 78.1904C38.9597 78.1904 39.0324 78.2187 39.0889 78.2752C39.1454 78.3317 39.1736 78.4003 39.1736 78.483C39.1736 78.5658 39.1454 78.6323 39.0889 78.6848C39.0324 78.7373 38.9637 78.7655 38.881 78.7655H38.879Z" fill="#2939FF"/>
<path d="M26.814 10.0088C24.4328 10.0088 22.5017 11.9399 22.5017 14.3211V28.9267C22.5017 34.8815 27.3285 39.7084 33.2834 39.7084C35.6645 39.7084 37.5957 37.7772 37.5957 35.3961V20.7905C37.5957 14.8356 32.7688 10.0088 26.814 10.0088Z" fill="#0505F1"/>
<path d="M29.7581 8.53979C32.1163 8.53979 34.028 6.62809 34.028 4.2699C34.028 1.9117 32.1163 0 29.7581 0C27.3999 0 25.4882 1.9117 25.4882 4.2699C25.4882 6.62809 27.3999 8.53979 29.7581 8.53979Z" fill="#0505F1"/>
<path d="M12.1074 8.53979C14.4656 8.53979 16.3773 6.62809 16.3773 4.2699C16.3773 1.9117 14.4656 0 12.1074 0C9.74922 0 7.83752 1.9117 7.83752 4.2699C7.83752 6.62809 9.74922 8.53979 12.1074 8.53979Z" fill="#0505F1"/>
<path d="M15.3422 10.0088H15.2211C9.33284 10.0088 4.55847 14.7832 4.55847 20.6714C4.55847 21.2405 5.02461 21.7066 5.59568 21.7066C8.08578 21.7066 10.0371 23.664 10.0371 26.1642C10.0371 28.6644 6.25553 31.5903 6.25553 31.5903C5.61787 32.0948 5.18604 32.4459 5.13963 32.4843L4.94591 32.6417C4.70174 32.8374 4.55847 33.134 4.55847 33.4488V57.4296C4.55847 59.8108 6.48961 61.7419 8.87074 61.7419H8.99182C14.8801 61.7419 19.6544 56.9675 19.6544 51.0793V14.3211C19.6544 11.9399 17.7233 10.0088 15.3422 10.0088Z" fill="#0505F1"/>
<path d="M8.07775 26.1642C8.07775 24.9312 7.14547 24.001 5.93271 24.001C4.97622 24.001 4.36076 24.6265 4.03991 25.1895C3.71906 24.6265 3.1036 24.001 2.14711 24.001C0.932331 24.001 0.0020752 24.9312 0.0020752 26.1642C0.0020752 27.502 1.16843 28.4121 2.9119 29.7924C3.76547 30.4664 3.81996 30.5188 4.04193 30.6964C4.22152 30.5511 4.32242 30.4643 5.17196 29.7924C6.91543 28.4141 8.08178 27.502 8.08178 26.1642H8.07775Z" fill="#6AE5CE"/>
<path d="M26.814 10.0088C24.4328 10.0088 22.5017 11.9399 22.5017 14.3211V28.9267C22.5017 34.8815 27.3285 39.7084 33.2834 39.7084C35.6645 39.7084 37.5957 37.7772 37.5957 35.3961V20.7905C37.5957 14.8356 32.7688 10.0088 26.814 10.0088Z" fill="url(#paint0_linear_1186_3095)"/>
<path d="M26.814 10.0088C24.4328 10.0088 22.5017 11.9399 22.5017 14.3211V28.9267C22.5017 34.8815 27.3285 39.7084 33.2834 39.7084C35.6645 39.7084 37.5957 37.7772 37.5957 35.3961V20.7905C37.5957 14.8356 32.7688 10.0088 26.814 10.0088Z" fill="url(#paint1_linear_1186_3095)"/>
<path d="M29.7581 8.53979C32.1163 8.53979 34.028 6.62809 34.028 4.2699C34.028 1.9117 32.1163 0 29.7581 0C27.3999 0 25.4882 1.9117 25.4882 4.2699C25.4882 6.62809 27.3999 8.53979 29.7581 8.53979Z" fill="url(#paint2_linear_1186_3095)"/>
<path d="M29.7581 8.53979C32.1163 8.53979 34.028 6.62809 34.028 4.2699C34.028 1.9117 32.1163 0 29.7581 0C27.3999 0 25.4882 1.9117 25.4882 4.2699C25.4882 6.62809 27.3999 8.53979 29.7581 8.53979Z" fill="url(#paint3_linear_1186_3095)"/>
<path d="M12.1074 8.53979C14.4656 8.53979 16.3773 6.62809 16.3773 4.2699C16.3773 1.9117 14.4656 0 12.1074 0C9.74922 0 7.83752 1.9117 7.83752 4.2699C7.83752 6.62809 9.74922 8.53979 12.1074 8.53979Z" fill="url(#paint4_linear_1186_3095)"/>
<path d="M12.1074 8.53979C14.4656 8.53979 16.3773 6.62809 16.3773 4.2699C16.3773 1.9117 14.4656 0 12.1074 0C9.74922 0 7.83752 1.9117 7.83752 4.2699C7.83752 6.62809 9.74922 8.53979 12.1074 8.53979Z" fill="url(#paint5_linear_1186_3095)"/>
<path d="M15.3422 10.0088H15.2211C9.33284 10.0088 4.55847 14.7832 4.55847 20.6714C4.55847 21.2405 5.02461 21.7066 5.59568 21.7066C8.08578 21.7066 10.0371 23.664 10.0371 26.1642C10.0371 28.6644 6.25553 31.5903 6.25553 31.5903C5.61787 32.0948 5.18604 32.4459 5.13963 32.4843L4.94591 32.6417C4.70174 32.8374 4.55847 33.134 4.55847 33.4488V57.4296C4.55847 59.8108 6.48961 61.7419 8.87074 61.7419H8.99182C14.8801 61.7419 19.6544 56.9675 19.6544 51.0793V14.3211C19.6544 11.9399 17.7233 10.0088 15.3422 10.0088Z" fill="url(#paint6_linear_1186_3095)"/>
<path d="M15.3422 10.0088H15.2211C9.33284 10.0088 4.55847 14.7832 4.55847 20.6714C4.55847 21.2405 5.02461 21.7066 5.59568 21.7066C8.08578 21.7066 10.0371 23.664 10.0371 26.1642C10.0371 28.6644 6.25553 31.5903 6.25553 31.5903C5.61787 32.0948 5.18604 32.4459 5.13963 32.4843L4.94591 32.6417C4.70174 32.8374 4.55847 33.134 4.55847 33.4488V57.4296C4.55847 59.8108 6.48961 61.7419 8.87074 61.7419H8.99182C14.8801 61.7419 19.6544 56.9675 19.6544 51.0793V14.3211C19.6544 11.9399 17.7233 10.0088 15.3422 10.0088Z" fill="url(#paint7_linear_1186_3095)"/>
<path d="M8.07775 26.1642C8.07775 24.9312 7.14547 24.001 5.93271 24.001C4.97622 24.001 4.36076 24.6265 4.03991 25.1895C3.71906 24.6265 3.1036 24.001 2.14711 24.001C0.932331 24.001 0.0020752 24.9312 0.0020752 26.1642C0.0020752 27.502 1.16843 28.4121 2.9119 29.7924C3.76547 30.4664 3.81996 30.5188 4.04193 30.6964C4.22152 30.5511 4.32242 30.4643 5.17196 29.7924C6.91543 28.4141 8.08178 27.502 8.08178 26.1642H8.07775Z" fill="url(#paint8_linear_1186_3095)"/>
<path d="M8.07775 26.1642C8.07775 24.9312 7.14547 24.001 5.93271 24.001C4.97622 24.001 4.36076 24.6265 4.03991 25.1895C3.71906 24.6265 3.1036 24.001 2.14711 24.001C0.932331 24.001 0.0020752 24.9312 0.0020752 26.1642C0.0020752 27.502 1.16843 28.4121 2.9119 29.7924C3.76547 30.4664 3.81996 30.5188 4.04193 30.6964C4.22152 30.5511 4.32242 30.4643 5.17196 29.7924C6.91543 28.4141 8.08178 27.502 8.08178 26.1642H8.07775Z" fill="url(#paint9_linear_1186_3095)"/>
<path d="M8.07775 26.1642C8.07775 24.9312 7.14547 24.001 5.93271 24.001C4.97622 24.001 4.36076 24.6265 4.03991 25.1895C3.71906 24.6265 3.1036 24.001 2.14711 24.001C0.932331 24.001 0.0020752 24.9312 0.0020752 26.1642C0.0020752 27.502 1.16843 28.4121 2.9119 29.7924C3.76547 30.4664 3.81996 30.5188 4.04193 30.6964C4.22152 30.5511 4.32242 30.4643 5.17196 29.7924C6.91543 28.4141 8.08178 27.502 8.08178 26.1642H8.07775Z" fill="#2939FF"/>
<defs>
<linearGradient id="paint0_linear_1186_3095" x1="3.85018" y1="4.10439" x2="30.8074" y2="50.7968" gradientUnits="userSpaceOnUse">
<stop stop-color="#2939FF"/>
<stop offset="0.53" stop-color="#50A4FC"/>
<stop offset="1" stop-color="#4FF3B6"/>
</linearGradient>
<linearGradient id="paint1_linear_1186_3095" x1="3.85018" y1="4.10439" x2="30.8074" y2="50.7968" gradientUnits="userSpaceOnUse">
<stop stop-color="#2939FF"/>
<stop offset="0.53" stop-color="#50A4FC"/>
<stop offset="1" stop-color="#4FF3B6"/>
</linearGradient>
<linearGradient id="paint2_linear_1186_3095" x1="3.85012" y1="4.10443" x2="30.8074" y2="50.7968" gradientUnits="userSpaceOnUse">
<stop stop-color="#2939FF"/>
<stop offset="0.53" stop-color="#50A4FC"/>
<stop offset="1" stop-color="#4FF3B6"/>
</linearGradient>
<linearGradient id="paint3_linear_1186_3095" x1="3.85012" y1="4.10443" x2="30.8074" y2="50.7968" gradientUnits="userSpaceOnUse">
<stop stop-color="#2939FF"/>
<stop offset="0.53" stop-color="#50A4FC"/>
<stop offset="1" stop-color="#4FF3B6"/>
</linearGradient>
<linearGradient id="paint4_linear_1186_3095" x1="3.85014" y1="4.10443" x2="30.8074" y2="50.7968" gradientUnits="userSpaceOnUse">
<stop stop-color="#2939FF"/>
<stop offset="0.53" stop-color="#50A4FC"/>
<stop offset="1" stop-color="#4FF3B6"/>
</linearGradient>
<linearGradient id="paint5_linear_1186_3095" x1="3.85014" y1="4.10443" x2="30.8074" y2="50.7968" gradientUnits="userSpaceOnUse">
<stop stop-color="#2939FF"/>
<stop offset="0.53" stop-color="#50A4FC"/>
<stop offset="1" stop-color="#4FF3B6"/>
</linearGradient>
<linearGradient id="paint6_linear_1186_3095" x1="3.85019" y1="4.10439" x2="30.8074" y2="50.7968" gradientUnits="userSpaceOnUse">
<stop stop-color="#2939FF"/>
<stop offset="0.53" stop-color="#50A4FC"/>
<stop offset="1" stop-color="#4FF3B6"/>
</linearGradient>
<linearGradient id="paint7_linear_1186_3095" x1="3.85019" y1="4.10439" x2="30.8074" y2="50.7968" gradientUnits="userSpaceOnUse">
<stop stop-color="#2939FF"/>
<stop offset="0.53" stop-color="#50A4FC"/>
<stop offset="1" stop-color="#4FF3B6"/>
</linearGradient>
<linearGradient id="paint8_linear_1186_3095" x1="3.85023" y1="4.1044" x2="30.8075" y2="50.7968" gradientUnits="userSpaceOnUse">
<stop stop-color="#2939FF"/>
<stop offset="0.53" stop-color="#50A4FC"/>
<stop offset="1" stop-color="#4FF3B6"/>
</linearGradient>
<linearGradient id="paint9_linear_1186_3095" x1="3.85023" y1="4.1044" x2="30.8075" y2="50.7968" gradientUnits="userSpaceOnUse">
<stop stop-color="#2939FF"/>
<stop offset="0.53" stop-color="#50A4FC"/>
<stop offset="1" stop-color="#4FF3B6"/>
</linearGradient>
</defs>
</svg>
