<svg width="220" height="183" viewBox="0 0 220 183" fill="none" xmlns="http://www.w3.org/2000/svg">
<path d="M62.6676 106.655H81.0021C83.6897 106.655 86.1521 107.307 88.3894 108.61C90.622 109.914 92.4043 111.676 93.7317 113.889C95.059 116.102 95.7204 118.479 95.7204 121.006C95.7204 123.533 95.0684 125.999 93.7645 128.156C92.4606 130.313 90.6877 132.01 88.4551 133.257C86.2178 134.504 83.7366 135.123 81.0068 135.123L71.6308 135.184V148.175H62.6723V106.655H62.6676ZM80.4111 127.181C82.3482 127.181 83.9523 126.548 85.2187 125.282C86.4851 124.016 87.1183 122.492 87.1183 120.716C87.1183 118.939 86.4945 117.532 85.2516 116.384C84.0039 115.235 82.3951 114.663 80.4158 114.663L71.6355 114.724V127.237L80.4158 127.176L80.4111 127.181Z" fill="#2939FF"/>
<path d="M106.222 106.655H119.749L133.576 148.175H124.378L121.71 139.928H104.088L101.358 148.175H92.0995L106.222 106.655ZM119.102 131.864L112.99 112.825L106.7 131.864H119.102Z" fill="#2939FF"/>
<path d="M152.389 148.648C148.552 148.648 145.011 147.701 141.765 145.802C138.52 143.904 135.94 141.334 134.022 138.09C132.103 134.846 131.142 131.311 131.142 127.471C131.142 123.631 132.099 120.096 134.022 116.852C135.94 113.608 138.52 111.029 141.765 109.112C145.011 107.194 148.548 106.233 152.389 106.233C156.582 106.233 160.349 107.382 163.693 109.674C167.037 111.967 169.574 115.014 171.319 118.807L162.834 121.24C161.765 119.262 160.344 117.691 158.562 116.524C156.784 115.356 154.725 114.756 152.389 114.714C150.053 114.714 147.947 115.277 146.071 116.407C144.19 117.532 142.718 119.074 141.648 121.034C140.579 122.994 140.044 125.136 140.044 127.471C140.044 129.806 140.579 131.939 141.648 133.875C142.718 135.812 144.19 137.345 146.071 138.47C147.947 139.595 150.058 140.162 152.389 140.162C154.72 140.162 156.76 139.619 158.501 138.531C160.241 137.443 161.624 135.91 162.656 133.932L171.258 136.243C169.556 139.998 167.037 143.004 163.693 145.259C160.349 147.514 156.582 148.639 152.389 148.639V148.648Z" fill="#2939FF"/>
<path d="M175.906 104.724H184.508V146.244H175.906V104.724Z" fill="#2939FF"/>
<path d="M198.697 146.065L185.761 114.808H194.898L203.087 135.985L210.859 114.808H219.995L202.608 158.7H193.706L198.692 146.065H198.697Z" fill="#2939FF"/>
<path d="M66.0259 162.038C65.2192 162.038 64.4828 161.841 63.8168 161.443C63.1507 161.044 62.6301 160.51 62.2455 159.835C61.8609 159.16 61.6686 158.419 61.6686 157.622C61.6686 156.825 61.8609 156.07 62.2455 155.395C62.6301 154.72 63.1554 154.185 63.8214 153.787C64.4875 153.393 65.2238 153.191 66.0259 153.191C66.9077 153.191 67.705 153.44 68.4086 153.932C69.1121 154.429 69.6374 155.081 69.9752 155.901L69.1074 156.136C68.8354 155.503 68.4273 154.992 67.888 154.612C67.3486 154.232 66.7248 154.045 66.0259 154.045C65.3646 154.045 64.7736 154.199 64.2436 154.514C63.7136 154.828 63.3055 155.259 63.0053 155.807C62.7098 156.356 62.5597 156.961 62.5597 157.622C62.5597 158.283 62.7098 158.86 63.0053 159.403C63.3008 159.947 63.7136 160.379 64.2436 160.702C64.7736 161.026 65.3646 161.185 66.0259 161.185C66.7294 161.185 67.3439 160.997 67.8833 160.622C68.418 160.247 68.826 159.746 69.1074 159.117L69.9752 159.338C69.6374 160.144 69.1168 160.796 68.418 161.293C67.7144 161.785 66.9217 162.034 66.0306 162.034L66.0259 162.038Z" fill="#2939FF"/>
<path d="M74.1918 162.099C73.5727 162.099 73.0099 161.949 72.4986 161.649C71.9874 161.349 71.5793 160.936 71.2791 160.421C70.9789 159.9 70.8289 159.333 70.8289 158.714C70.8289 158.095 70.9789 157.542 71.2791 157.026C71.5793 156.51 71.9874 156.103 72.4986 155.798C73.0099 155.493 73.5774 155.338 74.1918 155.338C74.8063 155.338 75.3644 155.493 75.8803 155.798C76.3963 156.103 76.8043 156.515 77.0998 157.036C77.3953 157.556 77.5454 158.114 77.5454 158.719C77.5454 159.323 77.3953 159.895 77.0998 160.411C76.8043 160.932 76.3963 161.344 75.8803 161.649C75.3644 161.954 74.8016 162.108 74.1918 162.108V162.099ZM74.1918 161.297C74.6562 161.297 75.0783 161.18 75.4676 160.946C75.8569 160.711 76.1618 160.397 76.3822 160.003C76.6027 159.614 76.7152 159.183 76.7152 158.709C76.7152 158.236 76.6027 157.819 76.3822 157.425C76.1571 157.031 75.8522 156.712 75.4676 156.478C75.0783 156.243 74.6562 156.126 74.1918 156.126C73.7275 156.126 73.2819 156.243 72.8973 156.478C72.5127 156.712 72.2125 157.026 71.9874 157.42C71.7669 157.809 71.6544 158.24 71.6544 158.714C71.6544 159.188 71.7669 159.628 71.9874 160.017C72.2125 160.411 72.5174 160.721 72.902 160.95C73.2913 161.18 73.7181 161.297 74.1871 161.297H74.1918Z" fill="#2939FF"/>
<path d="M78.6241 155.446H79.4778V156.708C79.7029 156.314 80.0172 155.986 80.4252 155.723C80.8333 155.465 81.3117 155.334 81.8558 155.334C82.3436 155.334 82.7985 155.442 83.2254 155.662C83.6522 155.883 83.9946 156.197 84.2525 156.609C84.5105 157.022 84.6418 157.505 84.6418 158.058V162.005H83.7741V158.344C83.7741 157.875 83.6803 157.472 83.4974 157.144C83.3098 156.815 83.0612 156.562 82.7469 156.394C82.4327 156.225 82.0856 156.14 81.7057 156.14C81.2836 156.14 80.9036 156.248 80.5613 156.464C80.2189 156.68 79.9515 156.975 79.7639 157.359C79.5716 157.744 79.4778 158.18 79.4778 158.663V162.001H78.6241V155.446Z" fill="#2939FF"/>
<path d="M85.9739 155.446H86.8275V156.708C87.0527 156.314 87.3669 155.986 87.775 155.723C88.183 155.465 88.6614 155.334 89.2055 155.334C89.6933 155.334 90.1483 155.442 90.5751 155.662C91.0019 155.883 91.3443 156.197 91.6023 156.609C91.8602 157.022 91.9916 157.505 91.9916 158.058V162.005H91.1239V158.344C91.1239 157.875 91.0301 157.472 90.8471 157.144C90.6595 156.815 90.4109 156.562 90.0967 156.394C89.7824 156.225 89.4353 156.14 89.0554 156.14C88.6333 156.14 88.2534 156.248 87.911 156.464C87.5686 156.68 87.3012 156.975 87.1136 157.359C86.9213 157.744 86.8275 158.18 86.8275 158.663V162.001H85.9739V155.446Z" fill="#2939FF"/>
<path d="M96.4287 162.099C95.8095 162.099 95.2467 161.945 94.7355 161.64C94.2242 161.335 93.8208 160.922 93.5207 160.402C93.2252 159.882 93.0751 159.319 93.0751 158.71C93.0751 158.1 93.2252 157.523 93.5207 157.008C93.8161 156.492 94.2242 156.084 94.7355 155.784C95.2467 155.484 95.8142 155.334 96.4287 155.334C96.9915 155.334 97.5074 155.465 97.9905 155.728C98.469 155.99 98.8583 156.351 99.1584 156.801C99.4586 157.256 99.6415 157.753 99.7072 158.297C99.7588 158.55 99.7588 158.789 99.7213 159.014H93.9287C93.9709 159.46 94.1023 159.858 94.3321 160.21C94.5572 160.561 94.8574 160.829 95.2232 161.021C95.5891 161.213 95.9925 161.307 96.4287 161.307C96.8649 161.307 97.3058 161.199 97.7044 160.983C98.0984 160.768 98.4174 160.486 98.6566 160.13L99.4492 160.29C99.1866 160.833 98.7785 161.269 98.2251 161.602C97.6716 161.93 97.0759 162.099 96.4287 162.099ZM98.8676 158.33C98.8254 157.927 98.6941 157.552 98.4643 157.209C98.2391 156.867 97.9483 156.6 97.5919 156.408C97.2354 156.215 96.8461 156.117 96.4146 156.117C95.9831 156.117 95.575 156.215 95.2139 156.408C94.8527 156.6 94.5572 156.872 94.3368 157.209C94.1116 157.552 93.9756 157.927 93.9287 158.33H98.8676Z" fill="#2939FF"/>
<path d="M103.98 162.099C103.352 162.099 102.784 161.945 102.273 161.635C101.762 161.326 101.358 160.913 101.067 160.393C100.777 159.872 100.626 159.314 100.626 158.71C100.626 158.105 100.777 157.523 101.072 157.008C101.368 156.492 101.776 156.084 102.287 155.784C102.798 155.484 103.366 155.334 103.98 155.334C104.674 155.334 105.298 155.526 105.847 155.911C106.4 156.295 106.799 156.801 107.048 157.425L106.217 157.613C106.011 157.167 105.711 156.806 105.312 156.534C104.918 156.262 104.473 156.126 103.975 156.126C103.478 156.126 103.08 156.244 102.695 156.473C102.31 156.703 102.005 157.017 101.78 157.411C101.555 157.805 101.438 158.241 101.438 158.71C101.438 159.178 101.55 159.624 101.78 160.022C102.005 160.416 102.315 160.73 102.704 160.955C103.094 161.18 103.516 161.298 103.98 161.298C104.477 161.298 104.923 161.162 105.317 160.894C105.711 160.627 106.016 160.275 106.222 159.835L107.052 160.008C106.794 160.636 106.396 161.138 105.847 161.523C105.298 161.907 104.679 162.099 103.985 162.099H103.98Z" fill="#2939FF"/>
<path d="M112.071 161.977C111.428 162.132 110.875 162.165 110.42 162.071C109.965 161.977 109.618 161.757 109.379 161.41C109.144 161.063 109.027 160.594 109.027 159.999L109.041 156.215H107.606V155.446H109.041V153.59H109.881V155.446H112.071V156.215H109.881L109.866 159.989C109.866 160.383 109.946 160.693 110.115 160.913C110.279 161.133 110.528 161.26 110.851 161.302C111.175 161.344 111.583 161.288 112.071 161.143V161.982V161.977Z" fill="#2939FF"/>
<path d="M113.469 160.693H114.383L113.506 163.426H112.84L113.473 160.693H113.469Z" fill="#2939FF"/>
<path d="M66.0259 172.488C65.2192 172.488 64.4828 172.292 63.8168 171.893C63.1507 171.495 62.6301 170.96 62.2455 170.285C61.8609 169.61 61.6686 168.869 61.6686 168.072C61.6686 167.275 61.8609 166.52 62.2455 165.845C62.6301 165.17 63.1554 164.636 63.8214 164.237C64.4875 163.843 65.2238 163.642 66.0259 163.642C66.9077 163.642 67.705 163.89 68.4086 164.382C69.1121 164.879 69.6374 165.531 69.9752 166.351L69.1074 166.586C68.8354 165.953 68.4273 165.442 67.888 165.062C67.3486 164.682 66.7248 164.495 66.0259 164.495C65.3646 164.495 64.7736 164.65 64.2436 164.964C63.7136 165.278 63.3055 165.709 63.0053 166.258C62.7098 166.806 62.5597 167.411 62.5597 168.072C62.5597 168.733 62.7098 169.31 63.0053 169.854C63.3008 170.397 63.7136 170.829 64.2436 171.152C64.7736 171.476 65.3646 171.635 66.0259 171.635C66.7294 171.635 67.3439 171.448 67.8833 171.073C68.418 170.698 68.826 170.196 69.1074 169.568L69.9752 169.788C69.6374 170.594 69.1168 171.246 68.418 171.743C67.7144 172.235 66.9217 172.484 66.0306 172.484L66.0259 172.488Z" fill="#2939FF"/>
<path d="M74.1918 172.55C73.5727 172.55 73.0099 172.4 72.4986 172.1C71.9874 171.8 71.5793 171.387 71.2791 170.871C70.9789 170.351 70.8289 169.784 70.8289 169.165C70.8289 168.546 70.9789 167.993 71.2791 167.477C71.5793 166.961 71.9874 166.553 72.4986 166.249C73.0099 165.944 73.5774 165.789 74.1918 165.789C74.8063 165.789 75.3644 165.944 75.8803 166.249C76.3963 166.553 76.8043 166.966 77.0998 167.486C77.3953 168.007 77.5454 168.565 77.5454 169.169C77.5454 169.774 77.3953 170.346 77.0998 170.862C76.8043 171.382 76.3963 171.795 75.8803 172.1C75.3644 172.404 74.8016 172.559 74.1918 172.559V172.55ZM74.1918 171.748C74.6562 171.748 75.0783 171.631 75.4676 171.396C75.8569 171.162 76.1618 170.848 76.3822 170.454C76.6027 170.065 76.7152 169.633 76.7152 169.16C76.7152 168.686 76.6027 168.269 76.3822 167.875C76.1571 167.482 75.8522 167.163 75.4676 166.928C75.0783 166.694 74.6562 166.577 74.1918 166.577C73.7275 166.577 73.2819 166.694 72.8973 166.928C72.5127 167.163 72.2125 167.477 71.9874 167.871C71.7669 168.26 71.6544 168.691 71.6544 169.165C71.6544 169.638 71.7669 170.079 71.9874 170.468C72.2125 170.862 72.5174 171.171 72.902 171.401C73.2913 171.631 73.7181 171.748 74.1871 171.748H74.1918Z" fill="#2939FF"/>
<path d="M78.6241 165.897H79.4778V167.158C79.7029 166.764 80.0172 166.436 80.4252 166.173C80.8333 165.915 81.3117 165.784 81.8558 165.784C82.3436 165.784 82.7985 165.892 83.2254 166.112C83.6522 166.333 83.9946 166.647 84.2525 167.059C84.5105 167.472 84.6418 167.955 84.6418 168.508V172.456H83.7741V168.794C83.7741 168.325 83.6803 167.922 83.4974 167.594C83.3098 167.266 83.0612 167.013 82.7469 166.844C82.4327 166.675 82.0856 166.591 81.7057 166.591C81.2836 166.591 80.9036 166.698 80.5613 166.914C80.2189 167.13 79.9515 167.425 79.7639 167.81C79.5716 168.194 79.4778 168.63 79.4778 169.113V172.451H78.6241V165.897Z" fill="#2939FF"/>
<path d="M88.6473 172.55C88.1126 172.55 87.6014 172.456 87.1136 172.273C86.6258 172.086 86.1849 171.846 85.7909 171.551V170.576C86.1145 170.923 86.5273 171.213 87.0338 171.448C87.5404 171.682 88.0751 171.8 88.6379 171.8C88.9756 171.8 89.2711 171.748 89.5291 171.645C89.7824 171.542 89.9794 171.41 90.1154 171.242C90.2514 171.078 90.3171 170.895 90.3077 170.698C90.3077 170.426 90.1576 170.191 89.8621 169.994C89.5666 169.798 89.0647 169.629 88.3659 169.488C87.4935 169.305 86.8462 169.08 86.4335 168.808C86.0207 168.536 85.8143 168.157 85.8143 167.669C85.8143 167.275 85.9363 166.933 86.1802 166.647C86.4241 166.361 86.743 166.15 87.137 166.005C87.531 165.859 87.9438 165.789 88.3753 165.789C88.8865 165.789 89.3555 165.869 89.7824 166.023C90.2092 166.178 90.5938 166.366 90.9409 166.581V167.458C90.5469 167.177 90.1341 166.956 89.7026 166.792C89.2758 166.628 88.8302 166.544 88.38 166.544C88.0892 166.544 87.8124 166.586 87.5498 166.675C87.2871 166.764 87.0714 166.891 86.9072 167.064C86.743 167.238 86.6586 167.435 86.6586 167.66C86.6586 167.899 86.7571 168.091 86.9541 168.236C87.1511 168.382 87.4653 168.504 87.8969 168.602C88.0282 168.635 88.1689 168.668 88.319 168.696C88.4691 168.724 88.6192 168.757 88.7786 168.79C89.637 168.963 90.2467 169.207 90.6032 169.521C90.9643 169.835 91.1426 170.224 91.1426 170.698C91.1519 171.274 90.9221 171.729 90.4484 172.067C89.9794 172.4 89.379 172.568 88.652 172.568L88.6473 172.55Z" fill="#2939FF"/>
<path d="M95.0075 172.564C94.5103 172.564 94.0554 172.451 93.6332 172.231C93.2111 172.011 92.8734 171.692 92.6107 171.279C92.3528 170.867 92.2214 170.384 92.2214 169.83V165.897H93.0891V169.559C93.0891 170.023 93.183 170.417 93.3659 170.74C93.5535 171.068 93.8021 171.317 94.121 171.49C94.44 171.664 94.7777 171.748 95.1435 171.748C95.5703 171.748 95.9549 171.645 96.2926 171.434C96.6303 171.223 96.893 170.928 97.0853 170.543C97.2729 170.159 97.3714 169.723 97.3714 169.24V165.902H98.2391V172.456H97.3714V171.195C97.1557 171.584 96.8461 171.907 96.438 172.17C96.03 172.433 95.5516 172.564 95.0075 172.564Z" fill="#2939FF"/>
<path d="M99.7354 163.792H100.589V172.451H99.7354V163.792Z" fill="#2939FF"/>
<path d="M106.17 172.428C105.528 172.583 104.974 172.615 104.519 172.522C104.064 172.428 103.717 172.208 103.478 171.861C103.244 171.514 103.126 171.045 103.126 170.449L103.14 166.666H101.705V165.897H103.14V164.041H103.98V165.897H106.17V166.666H103.98L103.966 170.44C103.966 170.834 104.046 171.143 104.215 171.364C104.379 171.584 104.627 171.711 104.951 171.753C105.275 171.795 105.683 171.739 106.17 171.593V172.433V172.428Z" fill="#2939FF"/>
<path d="M107.568 171.139H108.483L107.606 173.872H106.94L107.573 171.139H107.568Z" fill="#2939FF"/>
<path d="M66.0259 182.939C65.2192 182.939 64.4828 182.742 63.8168 182.344C63.1507 181.95 62.6301 181.411 62.2455 180.736C61.8609 180.061 61.6686 179.32 61.6686 178.523C61.6686 177.726 61.8609 176.971 62.2455 176.296C62.6301 175.621 63.1554 175.082 63.8214 174.688C64.4875 174.294 65.2238 174.092 66.0259 174.092C66.9077 174.092 67.705 174.341 68.4086 174.833C69.1121 175.325 69.6374 175.982 69.9752 176.802L69.1074 177.037C68.8354 176.404 68.4273 175.893 67.888 175.513C67.3486 175.133 66.7248 174.946 66.0259 174.946C65.3646 174.946 64.7736 175.1 64.2436 175.414C63.7136 175.729 63.3055 176.16 63.0053 176.708C62.7098 177.257 62.5597 177.862 62.5597 178.523C62.5597 179.184 62.7098 179.76 63.0053 180.304C63.3008 180.848 63.7136 181.28 64.2436 181.603C64.7736 181.927 65.3646 182.086 66.0259 182.086C66.7294 182.086 67.3439 181.898 67.8833 181.523C68.418 181.148 68.826 180.647 69.1074 180.018L69.9752 180.239C69.6374 181.045 69.1168 181.697 68.418 182.194C67.7144 182.691 66.9217 182.934 66.0306 182.934L66.0259 182.939Z" fill="#2939FF"/>
<path d="M73.263 183C72.597 183 72.0342 182.836 71.5792 182.512C71.1242 182.189 70.885 181.715 70.8616 181.096C70.8616 180.702 70.9554 180.346 71.1477 180.037C71.3353 179.727 71.6496 179.479 72.0904 179.286C72.5266 179.099 73.0895 179 73.7743 179L75.9412 178.986V178.457C75.9412 177.978 75.7442 177.608 75.3549 177.35C74.9609 177.092 74.4731 176.961 73.8868 176.961C73.399 176.961 72.9722 177.055 72.6017 177.247C72.2312 177.439 72.006 177.744 71.9357 178.161L71.082 178.175C71.1242 177.763 71.2696 177.411 71.5276 177.116C71.7809 176.825 72.1139 176.6 72.5173 176.455C72.9206 176.305 73.3709 176.234 73.8681 176.234C74.4028 176.234 74.8953 176.319 75.3362 176.492C75.777 176.666 76.1288 176.909 76.3868 177.228C76.6448 177.547 76.7761 177.917 76.7761 178.349V182.901H75.9459V181.368C75.763 181.738 75.4581 182.104 75.0219 182.46C74.5904 182.821 74.0041 183 73.2724 183H73.263ZM73.3146 182.259C73.779 182.259 74.2105 182.142 74.6138 181.907C75.0172 181.673 75.3408 181.354 75.58 180.956C75.8193 180.557 75.9412 180.126 75.9412 179.662H73.9103C73.3568 179.662 72.9159 179.732 72.5876 179.877C72.2593 180.023 72.0248 180.205 71.8934 180.426C71.7621 180.646 71.7058 180.881 71.734 181.12C71.7762 181.476 71.945 181.753 72.2405 181.954C72.536 182.156 72.8972 182.259 73.3146 182.259Z" fill="#2939FF"/>
<path d="M78.1644 176.347H79.0181V177.744C79.2338 177.21 79.5809 176.811 80.0593 176.549C80.5377 176.291 81.11 176.211 81.7807 176.319V177.233C81.2788 177.116 80.8145 177.135 80.3923 177.29C79.9702 177.444 79.6372 177.721 79.3886 178.124C79.14 178.527 79.0181 179.024 79.0181 179.61V182.902H78.1644V176.347Z" fill="#2939FF"/>
<path d="M85.5659 183C84.9467 183 84.3839 182.845 83.8727 182.54C83.3614 182.235 82.958 181.823 82.6579 181.302C82.3624 180.782 82.2123 180.219 82.2123 179.61C82.2123 179 82.3624 178.424 82.6579 177.908C82.9534 177.392 83.3614 176.985 83.8727 176.684C84.3839 176.384 84.9514 176.234 85.5659 176.234C86.1287 176.234 86.6446 176.366 87.1278 176.628C87.6062 176.891 87.9955 177.252 88.2956 177.707C88.5958 178.161 88.7787 178.658 88.8444 179.202C88.896 179.46 88.896 179.699 88.8585 179.919H83.0659C83.1081 180.365 83.2395 180.763 83.4693 181.115C83.6944 181.467 83.9946 181.734 84.3605 181.926C84.7263 182.118 85.1297 182.212 85.5659 182.212C86.0021 182.212 86.443 182.104 86.8416 181.889C87.2356 181.673 87.5546 181.392 87.7938 181.035L88.5864 181.195C88.3238 181.738 87.9157 182.174 87.3623 182.507C86.8088 182.836 86.2131 183 85.5659 183ZM88.0002 179.226C87.9579 178.822 87.8266 178.447 87.5968 178.105C87.3717 177.763 87.0808 177.496 86.7244 177.303C86.3679 177.111 85.9786 177.013 85.5471 177.013C85.1156 177.013 84.7075 177.111 84.3464 177.303C83.9852 177.496 83.6897 177.767 83.4693 178.105C83.2442 178.447 83.1081 178.822 83.0612 179.226H88.0002Z" fill="#2939FF"/>
<path d="M90.364 183.001C90.1905 183.001 90.0404 182.935 89.9137 182.809C89.7871 182.682 89.7214 182.527 89.7214 182.344C89.7214 182.161 89.7824 181.992 89.909 181.861C90.0357 181.73 90.1858 181.664 90.3687 181.664C90.5516 181.664 90.7205 181.73 90.8518 181.861C90.9831 181.992 91.0488 182.152 91.0488 182.344C91.0488 182.536 90.9831 182.691 90.8518 182.813C90.7205 182.935 90.561 183.001 90.3687 183.001H90.364Z" fill="#2939FF"/>
<path d="M62.3205 23.2544C56.7859 23.2544 52.2972 27.7411 52.2972 33.2734V67.2075C52.2972 81.0428 63.5165 92.2573 77.3577 92.2573C82.8923 92.2573 87.3809 87.7706 87.3809 82.2383V48.3042C87.3809 34.4689 76.1617 23.2544 62.3205 23.2544Z" fill="#2939FF"/>
<path d="M69.1636 19.841C74.6449 19.841 79.0884 15.3995 79.0884 9.92052C79.0884 4.44157 74.6449 0 69.1636 0C63.6824 0 59.2389 4.44157 59.2389 9.92052C59.2389 15.3995 63.6824 19.841 69.1636 19.841Z" fill="#2939FF"/>
<path d="M28.1373 19.841C33.6186 19.841 38.062 15.3995 38.062 9.92052C38.062 4.44157 33.6186 0 28.1373 0C22.656 0 18.2125 4.44157 18.2125 9.92052C18.2125 15.3995 22.656 19.841 28.1373 19.841Z" fill="#2939FF"/>
<path d="M35.656 23.2544H35.3745C21.6881 23.2544 10.5908 34.347 10.5908 48.0276C10.5908 49.3497 11.6743 50.4327 13.0017 50.4327C18.7895 50.4327 23.3251 54.9804 23.3251 60.7892C23.3251 66.598 14.5354 73.3961 14.5354 73.3961C13.0532 74.5682 12.0495 75.384 11.9416 75.4731L11.4914 75.8388C10.9238 76.2935 10.5908 76.9827 10.5908 77.7141V133.43C10.5908 138.962 15.0795 143.449 20.6141 143.449H20.8955C34.5819 143.449 45.6792 132.357 45.6792 118.676V33.2734C45.6792 27.7411 41.1905 23.2544 35.656 23.2544Z" fill="#2939FF"/>
<path d="M18.7707 60.7886C18.7707 57.924 16.6038 55.7627 13.7849 55.7627C11.5617 55.7627 10.1311 57.2161 9.38535 58.5241C8.63959 57.2161 7.20904 55.7627 4.98582 55.7627C2.16224 55.7627 0 57.924 0 60.7886C0 63.897 2.71101 66.0114 6.76346 69.2182C8.74747 70.7841 8.87411 70.906 9.39004 71.3186C9.80748 70.981 10.042 70.7794 12.0166 69.2182C16.0691 66.0161 18.7801 63.897 18.7801 60.7886H18.7707Z" fill="#2939FF"/>
<path d="M62.3205 23.2544C56.7859 23.2544 52.2972 27.7411 52.2972 33.2734V67.2075C52.2972 81.0428 63.5165 92.2573 77.3577 92.2573C82.8923 92.2573 87.3809 87.7706 87.3809 82.2383V48.3042C87.3809 34.4689 76.1617 23.2544 62.3205 23.2544Z" fill="#2939FF"/>
<path d="M62.3205 23.2544C56.7859 23.2544 52.2972 27.7411 52.2972 33.2734V67.2075C52.2972 81.0428 63.5165 92.2573 77.3577 92.2573C82.8923 92.2573 87.3809 87.7706 87.3809 82.2383V48.3042C87.3809 34.4689 76.1617 23.2544 62.3205 23.2544Z" fill="#2939FF"/>
<path d="M69.1636 19.841C74.6449 19.841 79.0884 15.3995 79.0884 9.92052C79.0884 4.44157 74.6449 0 69.1636 0C63.6824 0 59.2389 4.44157 59.2389 9.92052C59.2389 15.3995 63.6824 19.841 69.1636 19.841Z" fill="#2939FF"/>
<path d="M69.1636 19.841C74.6449 19.841 79.0884 15.3995 79.0884 9.92052C79.0884 4.44157 74.6449 0 69.1636 0C63.6824 0 59.2389 4.44157 59.2389 9.92052C59.2389 15.3995 63.6824 19.841 69.1636 19.841Z" fill="#2939FF"/>
<path d="M28.1373 19.841C33.6186 19.841 38.062 15.3995 38.062 9.92052C38.062 4.44157 33.6186 0 28.1373 0C22.656 0 18.2125 4.44157 18.2125 9.92052C18.2125 15.3995 22.656 19.841 28.1373 19.841Z" fill="#2939FF"/>
<path d="M28.1373 19.841C33.6186 19.841 38.062 15.3995 38.062 9.92052C38.062 4.44157 33.6186 0 28.1373 0C22.656 0 18.2125 4.44157 18.2125 9.92052C18.2125 15.3995 22.656 19.841 28.1373 19.841Z" fill="#2939FF"/>
<path d="M35.656 23.2544H35.3745C21.6881 23.2544 10.5908 34.347 10.5908 48.0276C10.5908 49.3497 11.6743 50.4327 13.0017 50.4327C18.7895 50.4327 23.3251 54.9804 23.3251 60.7892C23.3251 66.598 14.5354 73.3961 14.5354 73.3961C13.0532 74.5682 12.0495 75.384 11.9416 75.4731L11.4914 75.8388C10.9238 76.2935 10.5908 76.9827 10.5908 77.7141V133.43C10.5908 138.962 15.0795 143.449 20.6141 143.449H20.8955C34.5819 143.449 45.6792 132.357 45.6792 118.676V33.2734C45.6792 27.7411 41.1905 23.2544 35.656 23.2544Z" fill="#2939FF"/>
<path d="M35.656 23.2544H35.3745C21.6881 23.2544 10.5908 34.347 10.5908 48.0276C10.5908 49.3497 11.6743 50.4327 13.0017 50.4327C18.7895 50.4327 23.3251 54.9804 23.3251 60.7892C23.3251 66.598 14.5354 73.3961 14.5354 73.3961C13.0532 74.5682 12.0495 75.384 11.9416 75.4731L11.4914 75.8388C10.9238 76.2935 10.5908 76.9827 10.5908 77.7141V133.43C10.5908 138.962 15.0795 143.449 20.6141 143.449H20.8955C34.5819 143.449 45.6792 132.357 45.6792 118.676V33.2734C45.6792 27.7411 41.1905 23.2544 35.656 23.2544Z" fill="#2939FF"/>
<path d="M18.7707 60.7886C18.7707 57.924 16.6038 55.7627 13.7849 55.7627C11.5617 55.7627 10.1311 57.2161 9.38535 58.5241C8.63959 57.2161 7.20904 55.7627 4.98582 55.7627C2.16224 55.7627 0 57.924 0 60.7886C0 63.897 2.71101 66.0114 6.76346 69.2182C8.74747 70.7841 8.87411 70.906 9.39004 71.3186C9.80748 70.981 10.042 70.7794 12.0166 69.2182C16.0691 66.0161 18.7801 63.897 18.7801 60.7886H18.7707Z" fill="#2939FF"/>
<path d="M18.7707 60.7886C18.7707 57.924 16.6038 55.7627 13.7849 55.7627C11.5617 55.7627 10.1311 57.2161 9.38535 58.5241C8.63959 57.2161 7.20904 55.7627 4.98582 55.7627C2.16224 55.7627 0 57.924 0 60.7886C0 63.897 2.71101 66.0114 6.76346 69.2182C8.74747 70.7841 8.87411 70.906 9.39004 71.3186C9.80748 70.981 10.042 70.7794 12.0166 69.2182C16.0691 66.0161 18.7801 63.897 18.7801 60.7886H18.7707Z" fill="#2939FF"/>
<path d="M18.7707 60.7886C18.7707 57.924 16.6038 55.7627 13.7849 55.7627C11.5617 55.7627 10.1311 57.2161 9.38535 58.5241C8.63959 57.2161 7.20904 55.7627 4.98582 55.7627C2.16224 55.7627 0 57.924 0 60.7886C0 63.897 2.71101 66.0114 6.76346 69.2182C8.74747 70.7841 8.87411 70.906 9.39004 71.3186C9.80748 70.981 10.042 70.7794 12.0166 69.2182C16.0691 66.0161 18.7801 63.897 18.7801 60.7886H18.7707Z" fill="#2939FF"/>
</svg>
