<svg width="30" height="35" viewBox="0 0 34 40" fill="none" xmlns="http://www.w3.org/2000/svg">
<path d="M20.4 11.6667V0.766667C21.9726 1.34889 23.401 2.25219 24.5905 3.41667L30.5133 9.22667C31.7024 10.3915 32.6245 11.7915 33.218 13.3333H22.1C21.6491 13.3333 21.2167 13.1577 20.8979 12.8452C20.5791 12.5326 20.4 12.1087 20.4 11.6667ZM34 17.475V31.6667C33.9973 33.876 33.1009 35.9941 31.5074 37.5563C29.914 39.1185 27.7535 39.9974 25.5 40H8.5C6.24649 39.9974 4.08605 39.1185 2.49257 37.5563C0.899099 35.9941 0.00269936 33.876 0 31.6667V8.33333C0.00269936 6.12401 0.899099 4.00593 2.49257 2.4437C4.08605 0.88147 6.24649 0.00264643 8.5 0L16.1755 0C16.4526 0 16.7263 0.0216667 17 0.04V11.6667C17 12.9927 17.5373 14.2645 18.4938 15.2022C19.4502 16.1399 20.7474 16.6667 22.1 16.6667H33.9592C33.9779 16.935 34 17.2033 34 17.475ZM20.4 31.6667C20.4 31.2246 20.2209 30.8007 19.9021 30.4882C19.5833 30.1756 19.1509 30 18.7 30H10.2C9.74913 30 9.31673 30.1756 8.99792 30.4882C8.67911 30.8007 8.5 31.2246 8.5 31.6667C8.5 32.1087 8.67911 32.5326 8.99792 32.8452C9.31673 33.1577 9.74913 33.3333 10.2 33.3333H18.7C19.1509 33.3333 19.5833 33.1577 19.9021 32.8452C20.2209 32.5326 20.4 32.1087 20.4 31.6667ZM25.5 25C25.5 24.558 25.3209 24.134 25.0021 23.8215C24.6833 23.5089 24.2509 23.3333 23.8 23.3333H10.2C9.74913 23.3333 9.31673 23.5089 8.99792 23.8215C8.67911 24.134 8.5 24.558 8.5 25C8.5 25.442 8.67911 25.8659 8.99792 26.1785C9.31673 26.4911 9.74913 26.6667 10.2 26.6667H23.8C24.2509 26.6667 24.6833 26.4911 25.0021 26.1785C25.3209 25.8659 25.5 25.442 25.5 25Z" fill="#0B4977"/>
</svg>
