<svg width="21" height="36" viewBox="0 0 21 36" fill="none" xmlns="http://www.w3.org/2000/svg">
<path fill-rule="evenodd" clip-rule="evenodd" d="M0.959341 0.305988C-0.0189087 0.991213 2.63004e-05 0.64307 2.63004e-05 17.9042C2.63004e-05 35.1653 -0.0189087 34.8171 0.959341 35.5024C1.34817 35.7748 2.37928 35.8081 10.4049 35.8081C20.3948 35.8081 20.0122 35.8548 20.5485 34.571C20.937 33.6411 20.937 2.16725 20.5485 1.23737C20.0122 -0.0464668 20.3948 0.000214535 10.4049 0.000214535C2.37928 0.000214535 1.34817 0.0335854 0.959341 0.305988ZM19.4589 2.76549L19.514 4.12469H10.4132H1.31236V2.84366C1.31236 2.13894 1.36935 1.50546 1.43909 1.43572C1.50883 1.36598 5.5795 1.33092 10.4848 1.35754L19.4038 1.40628L19.4589 2.76549ZM19.4975 17.0605V28.684H10.4049H1.31236V17.0605V5.43702H10.4049H19.4975V17.0605ZM9.9745 9.04668C9.86726 9.17604 9.7514 9.56411 9.71728 9.90907C9.66348 10.4511 9.55455 10.5707 8.91601 10.7891C8.50956 10.9282 7.96119 11.1989 7.69742 11.3907C7.11774 11.8121 6.37421 13.2075 6.37421 13.8734C6.37421 14.5394 7.11774 15.9347 7.69742 16.3562C7.96119 16.548 8.50956 16.8193 8.91601 16.9587L9.65504 17.2124L9.7081 19.2924C9.76471 21.5178 9.73903 21.571 8.8354 21.1036C8.14661 20.7474 7.85152 20.3693 7.70548 19.655C7.5465 18.8779 7.05137 18.5527 6.64549 18.9587C5.86184 19.7422 7.18673 21.8629 8.82283 22.4439C9.4715 22.6743 9.74878 22.8747 9.74878 23.113C9.74878 23.3802 9.81833 23.4145 10.072 23.2724C10.2771 23.1576 10.5171 23.1567 10.7282 23.2697C10.9921 23.4109 11.0611 23.3751 11.0611 23.0959C11.0611 22.847 11.2838 22.6775 11.8226 22.5161C14.1775 21.8104 15.1209 19.1925 13.6316 17.4962C13.0523 16.8363 11.8671 16.1232 11.3498 16.1232C11.1067 16.1232 11.0611 15.7834 11.0611 13.9672C11.0611 12.7814 11.1245 11.8116 11.2017 11.812C11.5697 11.8138 12.6037 12.6222 12.9368 13.1687C13.1417 13.5047 13.3097 13.6646 13.3101 13.5242C13.3106 13.3487 13.4816 13.2936 13.8553 13.3483C14.3569 13.422 14.3867 13.3943 14.2353 12.9959C13.7947 11.8371 12.4153 10.6863 11.4664 10.6863C11.122 10.6863 11.0611 10.5791 11.0611 9.97394C11.0611 8.97469 10.4601 8.46176 9.9745 9.04668ZM9.74878 13.8734C9.74878 15.0077 9.69835 15.9357 9.63648 15.9357C9.5748 15.9357 9.23359 15.7977 8.87833 15.6292C7.7994 15.1172 7.37421 13.8404 7.98969 12.9617C8.27972 12.5476 9.31327 11.8135 9.60817 11.812C9.68541 11.8116 9.74878 12.7392 9.74878 13.8734ZM11.9964 17.7156C13.5043 18.4955 13.5043 20.3125 11.9964 21.0924C11.6985 21.2465 11.3661 21.3725 11.258 21.3725C11.1329 21.3725 11.0611 20.6535 11.0611 19.404C11.0611 18.1545 11.1329 17.4355 11.258 17.4355C11.3661 17.4355 11.6985 17.5615 11.9964 17.7156ZM19.4567 32.1992L19.4038 34.4021H10.4049H1.4061L1.35323 32.1992L1.30055 29.9964H10.4049H19.5093L19.4567 32.1992ZM9.79434 31.7131C9.2574 32.25 9.73603 33.0792 10.5161 32.9636C11.0853 32.879 11.4019 32.3443 11.135 31.918C10.8828 31.5153 10.1102 31.3972 9.79434 31.7131Z" fill="#3DA7C8"/>
</svg>
