<svg width="29" height="32" viewBox="0 0 29 32" fill="none" xmlns="http://www.w3.org/2000/svg">
<path fill-rule="evenodd" clip-rule="evenodd" d="M26.209 0.326802C26.0403 0.477321 25.4818 1.59927 25.4827 1.78573C25.4831 1.84545 28.1813 3.08152 28.3113 3.08152C28.4198 3.08152 28.9502 1.79814 28.9502 1.53552C28.9502 1.18687 28.7359 1.00915 27.7993 0.580533C26.8275 0.135925 26.4843 0.0811429 26.209 0.326802ZM22.7662 7.77931L20.4663 12.9094L20.3217 14.3667C20.2421 15.1683 20.155 16.1856 20.128 16.6275C20.0803 17.4082 20.0833 17.4309 20.2351 17.4309C20.3416 17.4309 20.8251 16.9668 21.7554 15.9713C22.5056 15.1684 23.1969 14.4028 23.2916 14.2697C23.3863 14.1366 24.0887 12.6326 24.8526 10.9275C25.6164 9.2224 26.6297 6.9599 27.1044 5.89968C27.579 4.83955 27.9548 3.95982 27.9394 3.94473C27.924 3.9297 27.4405 3.70803 26.8651 3.45229C26.2896 3.19646 25.6494 2.91112 25.4425 2.81815L25.0662 2.64924L22.7662 7.77931ZM4.71307 6.19377C2.58667 6.56222 0.896277 8.09911 0.281269 10.2231L0.109375 10.8168V21.3012C0.109375 30.5395 0.122678 31.7942 0.22148 31.8567C0.553236 32.0665 0.646806 31.9913 3.06192 29.5741C5.03272 27.6016 5.46432 27.205 5.71462 27.1364C5.92366 27.0791 7.77802 27.0624 11.8804 27.081C17.7225 27.1075 17.75 27.1069 18.4281 26.9424C21.1062 26.2929 23.3741 24.7312 24.8428 22.5252C25.9926 20.798 26.3246 19.634 26.5267 16.6215C26.6108 15.3663 26.6329 11.1735 26.5548 11.2515C26.5281 11.2783 26.1605 12.076 25.738 13.0242C25.3156 13.9724 24.8701 14.9062 24.7479 15.0993C24.5376 15.4321 24.5216 15.5148 24.4423 16.6836C24.2946 18.8577 24.0775 19.7646 23.4489 20.8315C22.2141 22.9278 20.298 24.3527 17.95 24.9206C17.7086 24.979 15.6327 25.0193 11.3555 25.0486L5.11336 25.0914L4.62922 25.3343C4.28169 25.5085 3.87109 25.8384 3.17357 26.5033L2.202 27.4295L2.18175 19.5342C2.16814 14.2458 2.18765 11.4675 2.24071 11.1198C2.43443 9.85116 3.24383 8.88593 4.53856 8.37959L4.96725 8.21196L12.8239 8.23304C19.3727 8.25067 20.6915 8.2373 20.7454 8.15284C20.781 8.09709 21 7.63111 21.2322 7.11729L21.6544 6.18308L21.3824 6.16642C21.2328 6.15723 17.532 6.14041 13.1583 6.12905C7.44387 6.11418 5.06755 6.13241 4.71307 6.19377ZM6.06633 12.2928L6.0883 12.8346L7.63908 12.8548L9.18987 12.8751V12.313V11.751H7.61711H6.04436L6.06633 12.2928ZM10.401 12.2928L10.423 12.8346L14.5058 12.8539L18.5886 12.8733L18.6763 12.525C18.7245 12.3335 18.8135 12.081 18.8741 11.9639L18.9842 11.751H14.6817H10.3791L10.401 12.2928ZM21.8659 13.4037C22.2314 13.5727 22.6083 13.741 22.7036 13.7774C22.8692 13.8408 22.8479 13.8749 22.2178 14.5537C21.8553 14.9441 21.5151 15.2635 21.4616 15.2635C21.4083 15.2636 21.2615 15.2104 21.1357 15.1453L20.9068 15.0269L20.9559 14.3792C21.024 13.4783 21.0805 13.0962 21.1458 13.0962C21.1764 13.0962 21.5006 13.2346 21.8659 13.4037ZM6.10078 15.6871C6.07335 15.7145 6.05093 15.9667 6.05093 16.2476V16.7583H12.1322H18.2134L18.2598 16.478C18.2852 16.3239 18.3065 16.0717 18.3069 15.9175L18.3077 15.6373H12.2292C8.88592 15.6373 6.12814 15.6597 6.10078 15.6871ZM6.05093 20.1215V20.6446H10.0493H14.0477V20.1215V19.5983H10.0493H6.05093V20.1215ZM15.2435 20.1401L15.2435 20.682L17.934 20.6615L20.6246 20.6409V20.1197V19.5983H17.934H15.2435V20.1401Z" fill="#0B4977"/>
</svg>
