<svg width="20" height="21" viewBox="0 0 20 21" fill="none" xmlns="http://www.w3.org/2000/svg">
<path fill-rule="evenodd" clip-rule="evenodd" d="M11.7523 3.33298V6.45893L12.9234 5.83364L14.0944 5.20835H17.0425H19.9906V2.70769V0.207031H15.8714H11.7523V3.33298ZM14.0949 2.70769V3.33286H13.5093H12.9236V2.70769V2.08253H13.5093H14.0949V2.70769ZM16.4376 2.70769V3.33286H15.8519H15.2663V2.70769V2.08253H15.8519H16.4376V2.70769ZM18.7802 2.70769V3.33286H18.1946H17.6089V2.70769V2.08253H18.1946H18.7802V2.70769ZM1.17132 10.2097V16.4613H2.36217H3.55301V16.0011C3.55301 14.9897 3.8223 14.2669 4.43979 13.6209C5.07425 12.957 5.6933 12.7135 6.76275 12.7069L7.32077 12.7035L7.04949 12.6415C5.4905 12.2848 4.46633 10.6225 4.78646 8.9683C4.91042 8.32751 5.16269 7.83842 5.61111 7.36921C6.04653 6.91363 6.50085 6.65165 7.07519 6.52503C8.03594 6.31318 9.02181 6.63568 9.7189 7.3898C10.1021 7.80433 10.3487 8.2574 10.4915 8.80934C10.5817 9.15806 10.5817 10.0109 10.4915 10.3597C10.1936 11.5112 9.32608 12.3966 8.2558 12.6415L7.98452 12.7035L8.54254 12.7069C9.38019 12.712 9.82334 12.8292 10.3662 13.189C10.8406 13.5035 11.2685 14.028 11.5017 14.5809C11.6648 14.9675 11.7175 15.251 11.7407 15.8674L11.7631 16.4613H15.2716H18.7802V11.46V6.45868H16.5741H14.3679L12.4941 7.45894C11.4635 8.00909 10.6115 8.45921 10.6006 8.45921C10.5898 8.45921 10.581 7.44644 10.581 6.20861V3.95802H5.87614H1.17132V10.2097ZM7.24108 7.76715C6.91764 7.85101 6.67077 8.00196 6.41995 8.26916C5.72687 9.00752 5.72687 10.1627 6.41995 10.8992C7.11657 11.6394 8.19458 11.6399 8.88426 10.9003C9.57768 10.1568 9.57815 9.00823 8.88535 8.26866C8.4397 7.79295 7.84314 7.61102 7.24108 7.76715ZM6.07136 14.0199C5.74261 14.1077 5.49651 14.2577 5.24862 14.5213C4.86529 14.929 4.72434 15.3446 4.72434 16.0674V16.4613H7.65265H10.581V16.0674C10.581 15.3504 10.4385 14.931 10.0556 14.5203C9.8014 14.2477 9.52146 14.0831 9.18322 14.0071C8.88582 13.9403 6.32991 13.9508 6.07136 14.0199ZM0 18.1055C0 18.8285 0.140949 19.2442 0.524284 19.6515C0.78834 19.9321 1.07785 20.0977 1.4296 20.1694C1.5964 20.2033 3.98176 20.2128 10.1319 20.2038L18.6045 20.1915L18.8286 20.0949C19.2915 19.8953 19.7013 19.4565 19.8763 18.973C19.9434 18.7876 19.9675 18.6161 19.9816 18.2222L20 17.7116H10H0V18.1055Z" fill="#3053E0"/>
</svg>
