<svg width="38" height="38" viewBox="0 0 38 38" fill="none" xmlns="http://www.w3.org/2000/svg">
<path d="M5.13782 23.557L2.35957 20.7787C2.10061 20.5219 1.89815 20.2137 1.76516 19.8741C1.63217 19.5345 1.57158 19.1708 1.58727 18.8064C1.60297 18.442 1.69459 18.0848 1.85629 17.7579C2.01798 17.4309 2.24618 17.1414 2.52627 16.9077C5.68562 14.3676 9.39673 12.6041 13.3614 11.7587C17.0208 10.943 20.815 10.943 24.4744 11.7587C28.4554 12.6096 32.1801 14.3862 35.3466 16.9447C35.6258 17.1777 35.8535 17.4662 36.0151 17.792C36.1767 18.1178 36.2687 18.4736 36.2853 18.8369C36.3018 19.2001 36.2426 19.5629 36.1112 19.902C35.9799 20.2411 35.7794 20.5491 35.5225 20.8065L32.7443 23.5847C32.2993 24.0386 31.7044 24.3152 31.0706 24.3629C30.4368 24.4106 29.8072 24.2262 29.2993 23.8441C28.2929 23.0722 27.2025 22.4167 26.0487 21.89C25.5927 21.6832 25.2055 21.3499 24.933 20.9297C24.6605 20.5095 24.5142 20.02 24.5114 19.5193V17.167C20.8746 16.1668 17.0353 16.1668 13.3985 17.167V19.5193C13.3957 20.02 13.2494 20.5095 12.9769 20.9297C12.7044 21.3499 12.3172 21.6832 11.8612 21.89C10.7074 22.4167 9.61698 23.0722 8.61062 23.8441C8.0973 24.2304 7.45987 24.4147 6.81955 24.3618C6.17924 24.3088 5.58072 24.0224 5.13782 23.557Z" stroke="white" stroke-width="2.61935" stroke-linecap="round" stroke-linejoin="round"/>
</svg>
