<svg width="36" height="36" viewBox="0 0 36 36" fill="none" xmlns="http://www.w3.org/2000/svg">
<path fill-rule="evenodd" clip-rule="evenodd" d="M16.3793 0.0388287C14.929 0.181847 13.0986 0.595558 11.8162 1.07001C10.1478 1.68748 8.09217 2.85858 6.7022 3.98358C5.98889 4.56093 4.58028 5.9707 4.0034 6.6846C2.87932 8.07571 1.70918 10.133 1.09222 11.8028C0.218712 14.1672 -0.161676 17.0223 0.0635751 19.5229C0.200498 21.0431 0.595796 22.8302 1.09222 24.174C1.70918 25.8439 2.87932 27.9012 4.0034 29.2923C4.58028 30.0062 5.98889 31.416 6.7022 31.9933C8.09217 33.1183 10.1478 34.2894 11.8162 34.9069C14.1787 35.7811 17.0314 36.1618 19.53 35.9364C21.0489 35.7993 22.8345 35.4037 24.1773 34.9069C25.8458 34.2894 27.9014 33.1183 29.2913 31.9933C30.0046 31.416 31.4133 30.0062 31.9901 29.2923C33.1142 27.9012 34.2844 25.8439 34.9013 24.174C35.5254 22.4848 35.988 20.0455 35.9976 18.3931L36 17.9884H34.2189H32.4379L32.3559 18.9914C32.1169 21.9135 31.1645 24.4125 29.4077 26.7273C26.5156 30.538 21.6593 32.7414 16.9946 32.3594C14.0749 32.1202 11.578 31.167 9.26513 29.4088C5.45751 26.5143 3.25591 21.654 3.63764 16.9855C3.8766 14.0634 4.82902 11.5644 6.58581 9.24963C8.6981 6.46641 11.9284 4.47577 15.4096 3.81192C17.2554 3.46 19.6564 3.52863 21.4427 3.9845L21.9701 4.11907L23.3928 2.6979C24.1753 1.91622 24.7924 1.2549 24.7642 1.2283C24.5924 1.06635 21.6597 0.342531 20.3878 0.148133C19.5251 0.0162357 17.2399 -0.0460531 16.3793 0.0388287ZM23.9744 12.393C19.7392 16.6318 16.2425 20.0999 16.2039 20.0999C16.1654 20.0999 14.8916 18.857 13.3735 17.338L10.613 14.5759L9.38215 15.8064C8.70513 16.4831 8.15125 17.0689 8.15125 17.1082C8.15125 17.1474 9.95516 18.9846 12.1599 21.1909L16.1685 25.2024L25.1872 16.1763L34.2059 7.15018L32.9764 5.91813C32.3001 5.24048 31.7306 4.68607 31.7108 4.68607C31.691 4.68607 28.2096 8.15419 23.9744 12.393Z" fill="#0B4977"/>
</svg>
