<svg width="15" height="15" viewBox="0 0 15 15" fill="none" xmlns="http://www.w3.org/2000/svg">
<path fill-rule="evenodd" clip-rule="evenodd" d="M5.7534 0.0417177C4.3082 0.238845 2.95462 0.909353 1.93477 1.93333C0.273842 3.60098 -0.376937 6.00249 0.214347 8.28182C0.820696 10.6192 2.69446 12.4684 5.0377 13.042C5.59396 13.1781 5.96823 13.2204 6.61798 13.2204C7.30214 13.2204 7.65398 13.1769 8.2867 13.014C9.13918 12.7947 10.0591 12.336 10.7034 11.809L10.8697 11.673L11.5647 12.3503C11.947 12.7229 12.6752 13.4466 13.1829 13.9585C13.6907 14.4705 14.1551 14.915 14.2148 14.9462C14.4131 15.0499 14.7132 14.9986 14.8597 14.836C14.9312 14.7565 15 14.5789 15 14.4734C15 14.2628 14.9371 14.1916 13.2824 12.5291L11.6548 10.8938L11.7941 10.7222C12.3881 9.98999 12.8864 8.92773 13.0798 7.98147C13.187 7.45689 13.2164 7.155 13.2159 6.58716C13.2147 5.48794 12.9797 4.52505 12.4776 3.56137C11.4612 1.61102 9.59198 0.311175 7.4104 0.0377745C6.99567 -0.0142218 6.14858 -0.0121914 5.7534 0.0417177ZM7.40929 1.14038C8.62635 1.32479 9.65804 1.84443 10.5145 2.70433C11.5704 3.76453 12.1295 5.11485 12.1295 6.6052C12.1295 8.13425 11.5453 9.51788 10.4533 10.5753C9.61262 11.3895 8.63637 11.8784 7.45307 12.078C7.0634 12.1438 6.18885 12.1446 5.78112 12.0796C4.59082 11.89 3.54353 11.3543 2.69217 10.4994C1.86027 9.66418 1.35202 8.66148 1.14894 7.45506C1.08004 7.04577 1.0796 6.17925 1.14806 5.76323C1.44483 3.9598 2.53335 2.47654 4.16325 1.65466C5.13243 1.16595 6.32801 0.976504 7.40929 1.14038Z" fill="#9B9B9B"/>
</svg>
