<svg width="20" height="20" viewBox="0 0 20 20" fill="none" xmlns="http://www.w3.org/2000/svg">
<path fill-rule="evenodd" clip-rule="evenodd" d="M7.6712 0.0556235C5.74427 0.318459 3.9395 1.21247 2.5797 2.57777C0.365123 4.80131 -0.502583 8.00332 0.285796 11.0424C1.09426 14.159 3.59261 16.6246 6.71694 17.3893C7.45862 17.5708 7.95763 17.6271 8.82397 17.6271C9.73619 17.6271 10.2053 17.5692 11.0489 17.3521C12.1856 17.0596 13.4121 16.448 14.2712 15.7453L14.493 15.564L15.4196 16.4671C15.9293 16.9638 16.9002 17.9287 17.5772 18.6114C18.2542 19.294 18.8734 19.8867 18.9531 19.9283C19.2175 20.0665 19.6176 19.9981 19.8129 19.7813C19.9083 19.6753 20 19.4385 20 19.2979C20 19.0171 19.9161 18.9222 17.7099 16.7055L15.5398 14.5251L15.7255 14.2962C16.5175 13.32 17.1819 11.9036 17.4398 10.642C17.5827 9.94252 17.6219 9.54 17.6211 8.78288C17.6196 7.31726 17.3063 6.0334 16.6368 4.74849C15.2816 2.14803 12.7893 0.414899 9.88054 0.050366C9.32756 -0.0189624 8.19811 -0.0162552 7.6712 0.0556235ZM9.87905 1.52051C11.5018 1.76639 12.8774 2.45924 14.0193 3.60577C15.4272 5.01937 16.1726 6.81979 16.1726 8.80693C16.1726 10.8457 15.3938 12.6905 13.9377 14.1005C12.8168 15.1859 11.5152 15.8379 9.93743 16.104C9.41786 16.1917 8.2518 16.1928 7.70817 16.1062C6.12109 15.8534 4.72471 15.139 3.58956 13.9992C2.48036 12.8856 1.80269 11.5486 1.53192 9.94008C1.44005 9.39436 1.43947 8.23901 1.53075 7.6843C1.92645 5.27974 3.3778 3.30205 5.551 2.20622C6.84323 1.5546 8.43734 1.30201 9.87905 1.52051Z" fill="#9B9B9B"/>
</svg>
