<svg width="42" height="42" viewBox="0 0 42 42" fill="none" xmlns="http://www.w3.org/2000/svg">
<path fill-rule="evenodd" clip-rule="evenodd" d="M0.517578 21.3604C0.517578 10.0385 9.69577 0.860352 21.0176 0.860352C32.3394 0.860352 41.5176 10.0385 41.5176 21.3604C41.5176 32.6822 32.3394 41.8604 21.0176 41.8604C9.69577 41.8604 0.517578 32.6822 0.517578 21.3604ZM37.0607 21.3604C37.0607 12.5008 29.8794 5.31469 21.0176 5.31469C12.1558 5.31469 4.97445 12.5008 4.97441 21.3604C4.97441 30.2199 12.1558 37.4035 21.0176 37.4035C29.8794 37.4035 37.0607 30.2199 37.0607 21.3604ZM26.9496 15.4833V18.6813C28.2206 18.6813 29.4916 19.9605 29.4916 21.4529V28.9149C29.4916 30.1941 28.2206 31.4733 26.7378 31.4733H15.0869C13.8159 31.4733 12.5449 30.1941 12.5449 28.7017V21.2397C12.5449 19.9605 13.8159 18.6813 15.0869 18.6813V15.4833C15.0869 12.4985 18.0526 10.1533 21.0183 10.1533C23.9839 10.1533 26.9496 12.4985 26.9496 15.4833ZM17.8408 18.6813H24.1958V15.4833C24.1958 13.7777 22.7129 12.7117 21.0183 12.7117C19.3236 12.7117 17.8408 13.7777 17.8408 15.4833V18.6813Z" fill="#3DA7C8"/>
</svg>
