<svg width="43" height="33" viewBox="0 0 43 33" fill="none" xmlns="http://www.w3.org/2000/svg">
<path d="M0.195312 5.8844C0.195313 4.49522 0.747162 3.16293 1.72946 2.18063C2.71176 1.19833 4.04404 0.646484 5.43322 0.646484H36.8607C38.2499 0.646484 39.5821 1.19833 40.5644 2.18063C41.5467 3.16293 42.0986 4.49522 42.0986 5.8844V18.9792H0.195312V5.8844ZM30.3133 8.50335C29.966 8.50335 29.6329 8.64131 29.3874 8.88689C29.1418 9.13246 29.0038 9.46553 29.0038 9.81283V12.4318C29.0038 12.7791 29.1418 13.1122 29.3874 13.3577C29.6329 13.6033 29.966 13.7413 30.3133 13.7413H35.5512C35.8985 13.7413 36.2316 13.6033 36.4771 13.3577C36.7227 13.1122 36.8607 12.7791 36.8607 12.4318V9.81283C36.8607 9.46553 36.7227 9.13246 36.4771 8.88689C36.2316 8.64131 35.8985 8.50335 35.5512 8.50335H30.3133ZM0.195312 24.2171V26.836C0.195313 28.2252 0.747162 29.5575 1.72946 30.5398C2.71176 31.5221 4.04404 32.074 5.43322 32.074H36.8607C38.2499 32.074 39.5821 31.5221 40.5644 30.5398C41.5467 29.5575 42.0986 28.2252 42.0986 26.836V24.2171H0.195312Z" fill="#3DA7C8"/>
</svg>
