<svg width="42" height="42" viewBox="0 0 42 42" fill="none" xmlns="http://www.w3.org/2000/svg">
<path d="M21.2755 0.860352C9.97174 0.860352 0.775391 10.0567 0.775391 21.3605V29.8536C0.775391 31.9529 2.61425 33.6605 4.87541 33.6605H6.92542C7.46912 33.6605 7.99055 33.4445 8.375 33.0601C8.75945 32.6756 8.97543 32.1542 8.97543 31.6105V21.0673C8.97543 20.5236 8.75945 20.0022 8.375 19.6177C7.99055 19.2333 7.46912 19.0173 6.92542 19.0173H5.06401C6.20382 11.0838 13.0304 4.96037 21.2755 4.96037C29.5206 4.96037 36.3472 11.0838 37.487 19.0173H35.6256C35.0819 19.0173 34.5604 19.2333 34.176 19.6177C33.7915 20.0022 33.5756 20.5236 33.5756 21.0673V33.6605C33.5756 35.9217 31.7367 37.7605 29.4755 37.7605H25.3755V35.7105H17.1755V41.8606H29.4755C33.9979 41.8606 37.6756 38.1828 37.6756 33.6605C39.9367 33.6605 41.7756 31.9529 41.7756 29.8536V21.3605C41.7756 10.0567 32.5792 0.860352 21.2755 0.860352Z" fill="#3DA7C8"/>
</svg>
