<svg width="32" height="32" viewBox="0 0 40 40" fill="none" xmlns="http://www.w3.org/2000/svg">
<path fill-rule="evenodd" clip-rule="evenodd" d="M8.30359 0.0921036C7.50641 0.343014 6.93 0.85015 6.57039 1.61726L6.36719 2.05077V5.84343V9.63608L6.62188 10.1536C6.9182 10.756 7.3418 11.1694 7.95937 11.4591L8.39844 11.6651L13.6719 11.7042L18.9453 11.7433L21.0561 13.1584C22.2171 13.9367 23.2788 14.6315 23.4155 14.7022C23.9473 14.9773 24.6452 14.7479 24.9209 14.2075C25.0562 13.942 25.0781 13.7472 25.0781 12.8098V11.7207L25.9961 11.691C26.7838 11.6656 26.9764 11.6324 27.3531 11.4573C27.9692 11.1708 28.3937 10.7571 28.6906 10.1536L28.9453 9.63608V5.84178V2.04749L28.6906 1.52995C28.3943 0.927534 27.9707 0.514196 27.3531 0.224437L26.9141 0.0184719L17.7734 0.00354238C10.3691 -0.0086514 8.57031 0.0082323 8.30359 0.0921036ZM23.6739 4.82665C24.0205 5.00362 24.2969 5.45393 24.2969 5.84178C24.2969 6.22964 24.0205 6.67995 23.6739 6.85692C23.3732 7.01035 23.2241 7.01426 17.6505 7.01426H11.9353L11.6237 6.83902C10.8374 6.39691 10.8295 5.32699 11.6088 4.85495L11.9141 4.67009L17.6398 4.6697C23.2246 4.6693 23.3732 4.67321 23.6739 4.82665ZM29.0002 14.3635C28.145 14.5877 27.5395 14.9423 26.8723 15.6098C26.1956 16.2868 25.8488 16.8865 25.623 17.7695C25.3412 18.8723 25.4875 20.0715 26.0306 21.1086C26.3627 21.7426 27.3105 22.6909 27.9442 23.0231C28.9808 23.5665 30.1793 23.7129 31.2816 23.4309C32.1641 23.205 32.7634 22.858 33.4402 22.181C34.1169 21.5039 34.4637 20.9042 34.6895 20.0213C34.9713 18.9184 34.825 17.7193 34.2819 16.6822C33.9498 16.0481 33.002 15.0998 32.3683 14.7676C31.3346 14.2258 30.0937 14.0769 29.0002 14.3635ZM0.684453 16.7116C0.505937 16.8059 0.33125 16.9857 0.235234 17.174C0.0817969 17.475 0.078125 17.6253 0.078125 23.5853C0.078125 29.5477 0.0817188 29.6956 0.235391 29.9969C0.336641 30.1955 0.502578 30.3615 0.701094 30.4628C0.993203 30.6119 1.15727 30.6202 3.825 30.6202C5.37359 30.6202 6.64062 30.6303 6.64062 30.6426C6.64062 30.655 6.46734 31.1826 6.25555 31.8151L5.87047 32.9651H10.625H15.3795L14.9945 31.8151C14.7827 31.1826 14.6094 30.655 14.6094 30.6426C14.6094 30.6303 15.8764 30.6202 17.425 30.6202C20.0927 30.6202 20.2568 30.6119 20.5489 30.4628C20.7474 30.3615 20.9134 30.1955 21.0146 29.9969C21.1683 29.6956 21.1719 29.5477 21.1719 23.5853C21.1719 17.6229 21.1683 17.475 21.0146 17.1737C20.9134 16.9751 20.7474 16.8091 20.5489 16.7078C20.2448 16.5525 20.1114 16.5505 10.6086 16.5539C1.17297 16.5572 0.970625 16.5605 0.684453 16.7116ZM25.624 24.9663C24.9855 25.3934 24.4026 25.9093 23.9338 26.4621L23.5156 26.9553L23.5147 28.4165C23.5134 30.4591 23.3368 31.0409 22.4461 31.9367C22.0343 32.3508 21.9531 32.4763 21.9531 32.6988V32.9651H30.1562H38.3594L38.3591 32.0858C38.3586 30.6952 38.1258 29.5634 37.5853 28.3242C37.0888 27.1858 35.8141 25.6969 34.7375 24.998C34.2102 24.6556 34.2024 24.6534 33.9968 24.7876C33.5243 25.0958 32.4989 25.5487 31.9141 25.7074C31.018 25.9506 29.293 25.9504 28.3984 25.707C27.753 25.5314 26.7942 25.1123 26.4075 24.8369C26.2862 24.7503 26.1566 24.6796 26.1197 24.6796C26.0828 24.6796 25.8597 24.8087 25.624 24.9663ZM0.606328 35.4713C0.0763281 35.7513 0 36.0261 0 37.655C0 39.2997 0.0749219 39.5629 0.622969 39.8427C0.929453 39.9991 1.04297 40 20 40C38.957 40 39.0705 39.9991 39.377 39.8427C39.9251 39.5629 40 39.2997 40 37.655C40 36.0104 39.9251 35.7472 39.377 35.4674C39.0705 35.3109 38.9605 35.3101 19.9836 35.3135C1.13625 35.317 0.894766 35.3189 0.606328 35.4713Z" fill="#0B4977"/>
</svg>
