<svg width="50" height="50" viewBox="0 0 50 50" fill="none" xmlns="http://www.w3.org/2000/svg">
<path fill-rule="evenodd" clip-rule="evenodd" d="M22.9155 0.0956483C17.0621 0.576654 11.6131 3.12517 7.36724 7.36771C1.30623 13.4238 -1.23114 21.9414 0.56657 30.1957C1.32305 33.6693 2.86984 37.0911 4.961 39.9169C5.2793 40.347 5.53286 40.7051 5.52455 40.7125C5.51624 40.72 5.10279 40.6561 4.60584 40.5705C3.71745 40.4174 3.69476 40.4184 3.2648 40.6272C2.77753 40.8638 2.42921 41.4031 2.42921 41.9207C2.42921 42.397 2.77537 42.9694 3.18833 43.1761C3.71618 43.44 9.8652 44.5991 10.3027 44.5171C10.7594 44.4315 11.2987 43.8854 11.3861 43.4202C11.4914 42.859 10.694 37.2921 10.4331 36.7676C9.91536 35.7263 8.35684 35.7488 7.85549 36.8046C7.72123 37.0875 7.70079 37.2969 7.75428 37.8395C7.79114 38.2135 7.84766 38.5921 7.87984 38.6807C8.02348 39.0757 7.44459 38.3822 6.72635 37.2987C4.77648 34.3575 3.59238 31.2056 3.1013 27.6499C2.91697 26.3153 2.94249 23.3599 3.15029 21.9807C4.50757 12.9704 11.1079 5.70125 19.8841 3.55114C22.7156 2.85745 25.768 2.77935 28.8567 3.32174L30.0063 3.52358L30.442 3.31274C31.517 2.79254 31.5697 1.35568 30.5358 0.752107C29.9497 0.4099 26.5202 -0.0300523 24.6859 0.0016172C24.25 0.00914359 23.4533 0.0514674 22.9155 0.0956483ZM39.4139 5.62423C38.967 5.84435 38.6835 6.28274 38.6417 6.81819C38.6222 7.06666 38.7978 8.58005 39.0317 10.1813C39.4792 13.2431 39.5148 13.3652 40.0854 13.791C40.7229 14.2668 41.7055 14.0165 42.1242 13.2716C42.3239 12.9166 42.3418 12.7932 42.2821 12.1865C42.2449 11.8099 42.1882 11.4294 42.156 11.3409C42.0154 10.9541 42.5713 11.6206 43.2987 12.7108C48.2967 20.2013 48.3445 29.6912 43.4215 37.0823C41.1038 40.5619 38.2114 43.0895 34.4543 44.9184C30.3439 46.9193 25.8609 47.5209 21.1791 46.6996L20.0295 46.4979L19.5938 46.7088C18.5188 47.229 18.4661 48.6658 19.5 49.2694C19.6648 49.3656 20.3064 49.531 20.9256 49.6367C27.2382 50.7155 33.484 49.3784 38.8357 45.8027C44.7661 41.8402 48.7518 35.5532 49.8172 28.4807C50.036 27.028 50.0647 23.4799 49.8689 22.0784C49.2409 17.5835 47.685 13.6915 45.1015 10.1535C44.7678 9.6965 44.5019 9.31646 44.5106 9.30903C44.5192 9.30151 44.9361 9.36602 45.4369 9.45223C46.3423 9.60823 46.3498 9.60784 46.7666 9.38684C47.2435 9.13397 47.6066 8.58103 47.6066 8.10804C47.6066 7.62547 47.2627 7.05327 46.8475 6.84478C46.6465 6.7439 45.998 6.56972 45.4064 6.45761C44.8148 6.34559 43.3991 6.07571 42.2602 5.85784C39.9268 5.41134 39.8575 5.40567 39.4139 5.62423ZM23.5511 9.76785C16.3771 10.4351 10.5312 15.8016 9.41323 22.7464C9.24249 23.8068 9.21981 26.0994 9.36952 27.1612C9.82657 30.4036 11.3563 33.4374 13.7291 35.8069C15.9309 38.0056 18.7117 39.4947 21.8888 40.1762C22.7737 40.366 23.2057 40.3964 25.0179 40.3964C26.8325 40.3964 27.261 40.3662 28.1471 40.1756C33.5649 39.0104 37.815 35.4873 39.786 30.5274C40.9421 27.6186 41.1003 24.0047 40.2074 20.9055C39.2073 17.4345 36.8021 14.2326 33.6989 12.2415C30.79 10.3749 26.9879 9.44822 23.5511 9.76785ZM25.7857 14.8197C26.3304 15.2262 26.4326 15.4775 26.4847 16.5379L26.5336 17.5332L27.1692 17.5969C28.6825 17.7483 30.4049 18.8274 30.6951 19.8058C30.9235 20.5762 30.488 21.3688 29.7077 21.6024C29.1747 21.762 28.7466 21.6439 28.1939 21.1848C27.407 20.5312 27.3264 20.5145 24.9673 20.5145C22.6023 20.5145 22.4653 20.5453 22.0383 21.1736C21.5076 21.9542 21.7954 22.9817 22.6681 23.4224C23.0791 23.6299 23.2224 23.6424 25.2098 23.6447C26.3682 23.646 27.509 23.6916 27.745 23.746C28.8164 23.9928 29.8898 24.7539 30.494 25.6949C31.6181 27.4461 31.3278 29.9855 29.8437 31.3821C29.1237 32.0596 27.7183 32.6349 26.7833 32.6349H26.4847L26.4845 33.5391C26.4844 34.5875 26.3314 34.9974 25.8102 35.3454C25.3596 35.6462 24.6763 35.6462 24.2257 35.3454C23.7067 34.9989 23.5514 34.5864 23.5513 33.5535L23.5511 32.6638L22.7838 32.6047C21.5966 32.5132 20.3022 31.9287 19.8153 31.2642C19.1623 30.3729 19.9008 29.0183 21.0399 29.0183C21.2315 29.0183 21.6162 29.1528 21.9483 29.336L22.5244 29.6537H24.8885C27.1339 29.6537 27.2663 29.6434 27.5287 29.4492C28.0608 29.0552 28.2663 28.6378 28.2242 28.0365C28.1806 27.4117 27.9732 27.0746 27.4493 26.7768C27.1208 26.5901 26.9363 26.5747 25.0339 26.5747C23.901 26.5747 22.7409 26.5262 22.4558 26.467C21.0894 26.183 19.9203 25.2637 19.2814 23.9709C18.9085 23.2164 18.9063 23.205 18.9089 22.0342C18.9113 20.9199 18.9281 20.8212 19.22 20.198C19.9125 18.7199 21.2505 17.7663 22.8666 17.599L23.5022 17.5332L23.5511 16.5558C23.6018 15.5438 23.6682 15.3353 24.0556 14.9733C24.5422 14.5185 25.2928 14.4518 25.7857 14.8197Z" fill="#4E3095"/>
</svg>
