<svg width="50" height="49" viewBox="0 0 50 49" fill="none" xmlns="http://www.w3.org/2000/svg">
<path fill-rule="evenodd" clip-rule="evenodd" d="M11.1646 0.776548C11.727 0.498451 12.4944 0.216063 12.9165 0.132161C13.53 0.010065 15.4069 -0.0131097 23.1628 0.00588067C31.6518 0.026559 32.858 -0.00436315 33.8779 0.416318C34.1333 0.521673 34.3771 0.655351 34.7206 0.825258C36.2904 1.6015 37.6002 3.11516 38.2668 4.92343L38.5555 5.70644L38.5881 13.1899L38.6208 20.6735L37.9461 20.6762C37.5338 20.678 37.0003 20.7723 36.5741 20.9189C35.5828 21.2599 26.6746 26.1057 26.0803 26.6272C25.4283 27.1994 24.8174 28.1684 24.527 29.0912C24.305 29.7971 24.2894 30.0445 24.2917 32.8509C24.2938 35.4793 24.3244 36.0287 24.5361 37.2435C25.0182 40.0103 25.7019 42.0882 26.8945 44.4115C26.9172 44.4557 22.3672 44.4919 16.7834 44.4919C7.94125 44.4919 6.52491 44.47 5.80896 44.3221C3.56991 43.8597 1.70134 42.405 0.720925 40.3612C0.605621 40.1209 0.508244 39.9305 0.426119 39.7338C-0.0404364 38.6165 -0.0147601 37.2936 0.0127006 25.4175L0.041669 12.8949L0.37266 11.9703C0.950312 10.3569 1.33033 9.90847 5.93191 5.40924C10.1152 1.31912 10.1753 1.2659 11.1646 0.776548ZM23.6206 21.6401C25.3571 21.1329 25.6059 18.5698 23.9943 17.7896C23.5301 17.5649 23.4388 17.562 16.7183 17.5662C10.4643 17.5701 9.64621 17.5535 9.19113 17.9517C9.10256 18.0293 9.02775 18.1225 8.92929 18.2346C8.04983 19.2363 8.24177 20.6684 9.35437 21.4048L9.78922 21.6927L16.5028 21.7254C21.1618 21.7482 23.3401 21.7221 23.6206 21.6401ZM29.7322 30.0909C29.8269 29.9477 31.7526 28.838 34.3873 27.4083C37.396 25.7755 38.9871 24.9696 39.2027 24.9691C39.4197 24.9686 40.9905 25.7628 44.0261 27.4076C47.6343 29.3627 48.5641 29.9106 48.7111 30.1687C48.9802 30.6409 49.1687 33.0213 49.097 35.042C48.8539 41.8906 45.7896 46.5964 40.3937 48.4078L39.5947 48.676L38.6477 48.3421C33.1662 46.4093 29.9708 41.5599 29.5006 34.4603C29.381 32.6549 29.4981 30.4442 29.7322 30.0909ZM17.6814 31.1928C19.2047 30.4156 19.1919 28.1854 17.6599 27.4437C17.2149 27.2283 17.033 27.2182 13.6027 27.2182C10.0915 27.2182 10.0009 27.2235 9.53419 27.4596C8.51954 27.9728 8.08352 29.2462 8.59046 30.2161C8.72737 30.4782 9.02499 30.8403 9.25159 31.0208L9.6638 31.3488L13.4594 31.3795C17.093 31.409 17.2733 31.401 17.6814 31.1928ZM39.1328 42.618V43.9166H40.0701V42.6177C40.8052 42.5763 41.4453 42.4358 41.9903 42.1964C42.6533 41.903 43.16 41.4973 43.5105 40.9791C43.861 40.4571 44.0363 39.8532 44.0363 39.1674C44.0363 38.6607 43.941 38.2187 43.7505 37.8416C43.56 37.4644 43.301 37.1424 42.9733 36.8757C42.6494 36.609 42.2818 36.388 41.8703 36.2128C41.4626 36.0375 41.0378 35.8984 40.5958 35.7956L40.0701 35.6641V32.4086C40.5013 32.46 40.8652 32.5908 41.1616 32.8009C41.5579 33.079 41.7827 33.4676 41.836 33.9668H43.8763C43.8648 33.3076 43.6801 32.7247 43.3219 32.218C42.9638 31.7074 42.4704 31.3093 41.8417 31.0235C41.3223 30.7828 40.7317 30.6421 40.0701 30.6015V29.2861H39.1328V30.61C38.5223 30.6595 37.9642 30.7973 37.4583 31.0235C36.8106 31.3093 36.2981 31.7112 35.9209 32.2294C35.5476 32.7475 35.3609 33.3514 35.3609 34.041C35.3609 34.8793 35.639 35.5517 36.1953 36.0585C36.7553 36.5614 37.5173 36.9367 38.4813 37.1843L39.1328 37.3521V40.7949C38.8635 40.7647 38.612 40.7061 38.3784 40.6191C38.0241 40.4857 37.7364 40.2838 37.5154 40.0133C37.2944 39.7428 37.1687 39.4037 37.1382 38.996H35.0522C35.0827 39.7732 35.2847 40.4324 35.658 40.9734C36.0352 41.5144 36.5572 41.9259 37.224 42.2078C37.7782 42.4409 38.4145 42.5776 39.1328 42.618ZM40.0701 40.7905C40.3326 40.7585 40.5726 40.6994 40.7901 40.6133C41.1407 40.4724 41.415 40.2781 41.6131 40.0304C41.8112 39.779 41.9122 39.4856 41.916 39.1503C41.9122 38.8455 41.8227 38.594 41.6474 38.3959C41.4721 38.194 41.2264 38.0263 40.9102 37.893C40.6634 37.7847 40.3834 37.6858 40.0701 37.5965V40.7905ZM39.1328 35.4234V32.4153C38.8966 32.4472 38.6832 32.5034 38.4927 32.5837C38.1765 32.7171 37.9345 32.898 37.7669 33.1266C37.5993 33.3552 37.5135 33.6162 37.5097 33.9096C37.5097 34.1534 37.565 34.3649 37.6755 34.544C37.7898 34.723 37.9441 34.8754 38.1384 35.0012C38.3327 35.1231 38.5479 35.226 38.7842 35.3098C38.8999 35.3509 39.0161 35.3887 39.1328 35.4234Z" fill="#72D284"/>
</svg>
