<svg width="42" height="46" viewBox="0 0 42 46" fill="none" xmlns="http://www.w3.org/2000/svg">
<path fill-rule="evenodd" clip-rule="evenodd" d="M26.6947 0.0970211C23.9828 0.725217 22.1547 2.87067 22.0069 5.59837C21.9107 7.37613 22.4616 8.81704 23.7254 10.0927C24.8966 11.2751 26.248 11.8397 27.9065 11.8397C28.9508 11.8397 29.5966 11.6852 30.5994 11.1956C32.1171 10.4546 33.3232 8.9013 33.7008 7.20168C33.9162 6.23151 33.8482 4.91928 33.5366 4.03129C32.6975 1.64089 30.6298 0.101247 28.1309 0.00637957C27.5644 -0.0151118 27.0347 0.0183392 26.6947 0.0970211ZM13.4334 6.8009C11.3428 7.18342 9.57305 8.64259 8.84372 10.5853C8.56994 11.3143 8.38737 12.514 8.46806 13.0532L8.52874 13.4583H14.3972H20.2656L20.3263 13.0532C20.407 12.514 20.2244 11.3143 19.9507 10.5853C19.316 8.89491 17.8452 7.51973 16.1032 6.98802C15.3982 6.77275 14.0889 6.68103 13.4334 6.8009ZM1.33665 16.4325C0.838375 16.6591 0.482285 16.9893 0.228794 17.4598L0.0350849 17.8195L0.0112078 30.8976C-0.0151825 45.2918 -0.0430988 44.5277 0.534348 45.2259C0.68892 45.4127 0.983163 45.6555 1.18827 45.7654L1.56106 45.9651L19.289 45.9885C38.5981 46.014 37.3946 46.0443 38.0882 45.5144C38.2597 45.3833 38.503 45.0691 38.6288 44.8161L38.8576 44.3562V41.6312V38.9062H32.3214C28.0472 38.9062 25.6009 38.8728 25.2526 38.8095C23.5116 38.4933 21.9455 37.0339 21.4843 35.2976C21.383 34.9164 21.356 34.0386 21.356 31.128C21.356 27.1402 21.3724 26.9712 21.8578 25.9692C22.1922 25.2789 23.2121 24.2657 23.946 23.8946C25.0119 23.3558 25.0558 23.353 32.2861 23.3512L38.8649 23.3497L38.8388 20.5324L38.8128 17.715L38.5411 17.2751C38.3728 17.0026 38.1022 16.7315 37.83 16.5629L37.3906 16.2908L19.5657 16.2699C1.7869 16.2489 1.73951 16.2494 1.33665 16.4325ZM25.8869 26.3613C25.8375 26.3778 25.6868 26.4157 25.5519 26.4455C25.206 26.5218 24.6763 27.015 24.4834 27.4404C24.335 27.7679 24.3198 28.1037 24.318 31.1084C24.3158 34.7113 24.327 34.8021 24.8369 35.3398C25.3942 35.9276 24.8916 35.891 32.8435 35.9222C38.062 35.9427 40.2022 35.9217 40.5474 35.8468C41.1466 35.7168 41.7518 35.1745 41.8997 34.6349C42.0314 34.1549 42.0343 28.1104 41.9031 27.6371C41.8507 27.4482 41.6647 27.1348 41.4897 26.9408C40.9104 26.2984 41.1518 26.3162 33.1189 26.3243C29.1907 26.3281 25.9362 26.3448 25.8869 26.3613ZM29.9299 29.2277C30.7144 29.5936 31.138 30.26 31.138 31.128C31.138 32.343 30.2903 33.1895 29.0735 33.1895C27.8491 33.1895 27.0089 32.3506 27.0089 31.128C27.0089 30.236 27.4049 29.6154 28.2207 29.2291C28.7982 28.9556 29.3457 28.9551 29.9299 29.2277Z" fill="#116BAE"/>
</svg>
