<svg width="50" height="49" viewBox="0 0 50 49" fill="none" xmlns="http://www.w3.org/2000/svg">
<path fill-rule="evenodd" clip-rule="evenodd" d="M11.1646 0.776548C11.727 0.498451 12.4944 0.216063 12.9165 0.132161C13.53 0.010065 15.4069 -0.0131097 23.1628 0.00588067C31.6518 0.026559 32.858 -0.00436315 33.8779 0.416318C34.1333 0.521673 34.3771 0.655351 34.7206 0.825258C36.2904 1.6015 37.6002 3.11516 38.2668 4.92343L38.5555 5.70644L38.5881 13.1899L38.6208 20.6735L37.9461 20.6762C37.5338 20.678 37.0003 20.7723 36.5741 20.9189C35.5828 21.2599 26.6746 26.1057 26.0803 26.6272C25.4283 27.1994 24.8174 28.1684 24.527 29.0912C24.305 29.7971 24.2894 30.0445 24.2917 32.8509C24.2938 35.4793 24.3244 36.0287 24.5361 37.2435C25.0182 40.0103 25.7019 42.0882 26.8945 44.4115C26.9172 44.4557 22.3672 44.4919 16.7834 44.4919C7.94125 44.4919 6.52491 44.47 5.80896 44.3221C3.56991 43.8597 1.70134 42.405 0.720925 40.3612C0.605621 40.1209 0.508244 39.9305 0.426119 39.7338C-0.0404364 38.6165 -0.0147601 37.2936 0.0127006 25.4175L0.041669 12.8949L0.37266 11.9703C0.950312 10.3569 1.33033 9.90847 5.93191 5.40924C10.1152 1.31912 10.1753 1.2659 11.1646 0.776548ZM29.7322 30.0909C29.8269 29.9477 31.7526 28.838 34.3873 27.4083C37.396 25.7755 38.9871 24.9696 39.2027 24.9691C39.4197 24.9686 40.9905 25.7628 44.0261 27.4076C47.6343 29.3627 48.5641 29.9106 48.7111 30.1687C48.9802 30.6409 49.1687 33.0213 49.097 35.042C48.8539 41.8906 45.7896 46.5964 40.3937 48.4078L39.5947 48.676L38.6477 48.3421C33.1662 46.4093 29.9708 41.5599 29.5006 34.4603C29.381 32.6549 29.4981 30.4442 29.7322 30.0909ZM13.4504 26.136V28H14.7023V26.1356C15.6842 26.0761 16.5392 25.8745 17.2672 25.5309C18.1527 25.1098 18.8295 24.5273 19.2977 23.7836C19.7659 23.0344 20 22.1676 20 21.1832C20 20.4559 19.8728 19.8215 19.6183 19.2801C19.3639 18.7387 19.0178 18.2766 18.5802 17.8938C18.1476 17.5109 17.6565 17.1937 17.1069 16.9422C16.5623 16.6906 15.9949 16.491 15.4046 16.3434L14.7023 16.1547V11.4819C15.2783 11.5557 15.7643 11.7433 16.1603 12.0449C16.6896 12.4441 16.9898 13.002 17.0611 13.7184H19.7863C19.771 12.7723 19.5242 11.9355 19.0458 11.2082C18.5674 10.4754 17.9084 9.90391 17.0687 9.49375C16.3749 9.14823 15.5861 8.94632 14.7023 8.88805V7H13.4504V8.90021C12.635 8.97129 11.8894 9.16914 11.2137 9.49375C10.3486 9.90391 9.66412 10.4809 9.16031 11.2246C8.66158 11.9684 8.41221 12.8352 8.41221 13.825C8.41221 15.0281 8.78372 15.9934 9.52672 16.7207C10.2748 17.4426 11.2926 17.9812 12.5802 18.3367L13.4504 18.5775V23.5192C13.0907 23.4758 12.7548 23.3917 12.4427 23.2668C11.9695 23.0754 11.5852 22.7855 11.2901 22.3973C10.9949 22.009 10.827 21.5223 10.7863 20.9371H8C8.04071 22.0527 8.31043 22.9988 8.80916 23.7754C9.31298 24.552 10.0102 25.1426 10.9008 25.5473C11.6411 25.8818 12.491 26.078 13.4504 26.136ZM14.7023 23.5129C15.053 23.4669 15.3736 23.3821 15.6641 23.2586C16.1323 23.0562 16.4987 22.7773 16.7634 22.4219C17.028 22.0609 17.1629 21.6398 17.1679 21.1586C17.1629 20.7211 17.0433 20.3602 16.8092 20.0758C16.5751 19.7859 16.2468 19.5453 15.8244 19.3539C15.4948 19.1984 15.1208 19.0566 14.7023 18.9284V23.5129ZM13.4504 15.8092V11.4915C13.1349 11.5373 12.8499 11.6179 12.5954 11.7332C12.173 11.9246 11.8499 12.1844 11.626 12.5125C11.402 12.8406 11.2875 13.2152 11.2824 13.6363C11.2824 13.9863 11.3562 14.2898 11.5038 14.5469C11.6565 14.8039 11.8626 15.0227 12.1221 15.2031C12.3817 15.3781 12.6692 15.5258 12.9847 15.6461C13.1393 15.705 13.2946 15.7594 13.4504 15.8092Z" fill="#FF7354"/>
<rect x="42.0713" y="32.0005" width="2" height="10" rx="1" transform="rotate(45 42.0713 32.0005)" fill="white"/>
<rect x="43.4854" y="39.0713" width="2" height="10" rx="1" transform="rotate(135 43.4854 39.0713)" fill="white"/>
</svg>
