<svg width="33" height="22" viewBox="0 0 33 22" fill="none" xmlns="http://www.w3.org/2000/svg">
<path fill-rule="evenodd" clip-rule="evenodd" d="M2.9592 4.50825C2.9592 3.78494 3.54556 3.19858 4.26887 3.19858H18.6753C19.3986 3.19858 19.985 3.78494 19.985 4.50825V17.605C19.985 18.3283 19.3986 18.9147 18.6753 18.9147H4.26887C3.54556 18.9147 2.9592 18.3283 2.9592 17.605V4.50825ZM4.26887 0.579224C2.09893 0.579224 0.339844 2.33831 0.339844 4.50825V17.605C0.339844 19.775 2.09893 21.534 4.26887 21.534H18.6753C20.8453 21.534 22.6043 19.775 22.6043 17.605V13.6011L29.7013 18.6703C30.1005 18.9555 30.6256 18.9936 31.0618 18.7691C31.498 18.5446 31.7722 18.0952 31.7722 17.6046V4.50783C31.7722 4.01724 31.498 3.56779 31.0618 3.34331C30.6256 3.11883 30.1005 3.15696 29.7013 3.4421L22.6043 8.51135V4.50825C22.6043 2.33831 20.8453 0.579224 18.6753 0.579224H4.26887ZM29.1528 15.0596L23.548 11.0562L29.1528 7.05278V15.0596Z" fill="#0B4977"/>
<path d="M22.6043 13.6011L22.7566 13.3879C22.6768 13.3309 22.5717 13.3233 22.4845 13.3682C22.3972 13.4131 22.3424 13.503 22.3424 13.6011H22.6043ZM29.7013 18.6703L29.549 18.8835L29.7013 18.6703ZM31.0618 18.7691L30.9419 18.5362H30.9419L31.0618 18.7691ZM31.0618 3.34331L30.9419 3.57621H30.9419L31.0618 3.34331ZM29.7013 3.4421L29.8535 3.65525L29.7013 3.4421ZM22.6043 8.51135H22.3424C22.3424 8.60946 22.3972 8.69935 22.4845 8.74425C22.5717 8.78915 22.6768 8.78152 22.7566 8.72449L22.6043 8.51135ZM23.548 11.0562L23.3958 10.8431C23.327 10.8922 23.2861 10.9716 23.2861 11.0562C23.2861 11.1408 23.327 11.2202 23.3958 11.2694L23.548 11.0562ZM29.1528 15.0596L29.0006 15.2728C29.0804 15.3298 29.1855 15.3374 29.2727 15.2926C29.3599 15.2477 29.4148 15.1578 29.4148 15.0596H29.1528ZM29.1528 7.05278H29.4148C29.4148 6.95466 29.3599 6.86477 29.2727 6.81988C29.1855 6.77498 29.0804 6.78261 29.0006 6.83964L29.1528 7.05278ZM4.26887 2.93664C3.4009 2.93664 2.69726 3.64028 2.69726 4.50825H3.22113C3.22113 3.9296 3.69022 3.46051 4.26887 3.46051V2.93664ZM18.6753 2.93664H4.26887V3.46051H18.6753V2.93664ZM20.2469 4.50825C20.2469 3.64028 19.5433 2.93664 18.6753 2.93664V3.46051C19.254 3.46051 19.7231 3.9296 19.7231 4.50825H20.2469ZM20.2469 17.605V4.50825H19.7231V17.605H20.2469ZM18.6753 19.1766C19.5433 19.1766 20.2469 18.473 20.2469 17.605H19.7231C19.7231 18.1837 19.254 18.6528 18.6753 18.6528V19.1766ZM4.26887 19.1766H18.6753V18.6528H4.26887V19.1766ZM2.69726 17.605C2.69726 18.473 3.4009 19.1766 4.26887 19.1766V18.6528C3.69022 18.6528 3.22113 18.1837 3.22113 17.605H2.69726ZM2.69726 4.50825V17.605H3.22113V4.50825H2.69726ZM0.601779 4.50825C0.601779 2.48297 2.24359 0.841159 4.26887 0.841159V0.317288C1.95427 0.317288 0.0779084 2.19365 0.0779084 4.50825H0.601779ZM0.601779 17.605V4.50825H0.0779084V17.605H0.601779ZM4.26887 21.2721C2.24359 21.2721 0.601779 19.6303 0.601779 17.605H0.0779084C0.0779084 19.9196 1.95427 21.796 4.26887 21.796V21.2721ZM18.6753 21.2721H4.26887V21.796H18.6753V21.2721ZM22.3424 17.605C22.3424 19.6303 20.7006 21.2721 18.6753 21.2721V21.796C20.9899 21.796 22.8663 19.9196 22.8663 17.605H22.3424ZM22.3424 13.6011V17.605H22.8663V13.6011H22.3424ZM29.8535 18.4572L22.7566 13.3879L22.4521 13.8142L29.549 18.8835L29.8535 18.4572ZM30.9419 18.5362C30.593 18.7158 30.1729 18.6853 29.8535 18.4572L29.549 18.8835C30.0281 19.2256 30.6582 19.2714 31.1817 19.002L30.9419 18.5362ZM31.5103 17.6046C31.5103 17.9971 31.2909 18.3566 30.9419 18.5362L31.1817 19.002C31.7051 18.7326 32.0341 18.1933 32.0341 17.6046H31.5103ZM31.5103 4.50783V17.6046H32.0341V4.50783H31.5103ZM30.9419 3.57621C31.2909 3.7558 31.5103 4.11536 31.5103 4.50783H32.0341C32.0341 3.91913 31.7051 3.37979 31.1817 3.11041L30.9419 3.57621ZM29.8535 3.65525C30.1729 3.42713 30.593 3.39663 30.9419 3.57621L31.1817 3.11041C30.6582 2.84102 30.0281 2.88678 29.549 3.22896L29.8535 3.65525ZM22.7566 8.72449L29.8535 3.65525L29.549 3.22896L22.4521 8.2982L22.7566 8.72449ZM22.3424 4.50825V8.51135H22.8663V4.50825H22.3424ZM18.6753 0.841159C20.7006 0.841159 22.3424 2.48297 22.3424 4.50825H22.8663C22.8663 2.19365 20.9899 0.317288 18.6753 0.317288V0.841159ZM4.26887 0.841159H18.6753V0.317288H4.26887V0.841159ZM23.3958 11.2694L29.0006 15.2728L29.3051 14.8465L23.7003 10.8431L23.3958 11.2694ZM29.0006 6.83964L23.3958 10.8431L23.7003 11.2694L29.3051 7.26593L29.0006 6.83964ZM29.4148 15.0596V7.05278H28.8909V15.0596H29.4148Z" fill="white"/>
</svg>
