<svg width="32" height="32" viewBox="0 0 32 32" fill="none" xmlns="http://www.w3.org/2000/svg">
<path fill-rule="evenodd" clip-rule="evenodd" d="M15.4647 29.6027C14.9225 29.6027 14.4824 29.1626 14.4824 28.6204V24.4805C14.4824 23.9383 14.9225 23.4983 15.4647 23.4983C16.0069 23.4983 16.4469 23.9383 16.4469 24.4805V28.6204C16.4469 29.1626 16.0069 29.6027 15.4647 29.6027Z" fill="#0B4977"/>
<path fill-rule="evenodd" clip-rule="evenodd" d="M15.4642 3.4092C13.0727 3.4092 11.1266 5.36586 11.1266 7.77173V13.9115C11.1266 16.3148 13.0727 18.2727 15.4642 18.2727C17.8557 18.2727 19.8019 16.3148 19.8019 13.9115V7.77173C19.8019 5.36586 17.8557 3.4092 15.4642 3.4092ZM15.4643 20.2372C11.9897 20.2372 9.16211 17.3992 9.16211 13.9115V7.77175C9.16211 4.28277 11.9897 1.4447 15.4643 1.4447C18.9388 1.4447 21.7664 4.28277 21.7664 7.77175V13.9115C21.7664 17.3992 18.9388 20.2372 15.4643 20.2372Z" fill="#0B4977"/>
<mask id="mask0_4179_118270" style="mask-type:alpha" maskUnits="userSpaceOnUse" x="4" y="12" width="23" height="14">
<path fill-rule="evenodd" clip-rule="evenodd" d="M4.00391 12.9709H26.9226V25.4626H4.00391V12.9709Z" fill="white"/>
</mask>
<g mask="url(#mask0_4179_118270)">
<path fill-rule="evenodd" clip-rule="evenodd" d="M15.4636 25.4626C9.14439 25.4626 4.00391 20.2999 4.00391 13.9532C4.00391 13.411 4.44396 12.9709 4.98616 12.9709C5.52968 12.9709 5.96842 13.411 5.96842 13.9532C5.96842 19.2155 10.2275 23.4981 15.4636 23.4981C20.6997 23.4981 24.9587 19.2155 24.9587 13.9532C24.9587 13.411 25.3988 12.9709 25.941 12.9709C26.4845 12.9709 26.9232 13.411 26.9232 13.9532C26.9232 20.2999 21.7828 25.4626 15.4636 25.4626Z" fill="#0B4977"/>
</g>
</svg>
